<?xml version="1.0" encoding="utf-8"?>
<!-- Generator: Adobe Illustrator 16.0.3, SVG Export Plug-In . SVG Version: 6.00 Build 0)  -->
<!DOCTYPE svg PUBLIC "-//W3C//DTD SVG 1.1//EN" "http://www.w3.org/Graphics/SVG/1.1/DTD/svg11.dtd">
<svg version="1.1" id="_x39_b8dff4b-368a-4ab8-bc0b-59c96572f6a5"
	 xmlns="http://www.w3.org/2000/svg" xmlns:xlink="http://www.w3.org/1999/xlink" x="0px" y="0px" width="1288px" height="711.86px"
	 viewBox="0 0 1288 711.86" enable-background="new 0 0 1288 711.86" xml:space="preserve">
<title>air support</title>
<path fill="#F2F2F2" d="M957.3,104.91h180.94c5.5,0,9.96,4.459,9.96,9.96v1.77c0,5.5-4.46,9.96-9.96,9.96H957.3
	c-5.501,0-9.96-4.459-9.96-9.96v-1.77C947.34,109.369,951.799,104.91,957.3,104.91z"/>
<path fill="#F2F2F2" d="M1002.29,123.39h180.94c5.5,0,9.959,4.459,9.959,9.96v1.77c0,5.5-4.459,9.96-9.959,9.96h-180.94
	c-5.501,0-9.96-4.459-9.96-9.96v-1.77C992.33,127.849,996.789,123.39,1002.29,123.39z"/>
<path fill="#F2F2F2" d="M925.96,139.46h180.94c5.5,0,9.96,4.459,9.96,9.96v1.77c0,5.501-4.46,9.96-9.96,9.96H925.96
	c-5.501,0-9.96-4.459-9.96-9.96v-1.77C916,143.919,920.459,139.46,925.96,139.46z"/>
<path fill="#F2F2F2" d="M543.42,273.18h180.94c5.5,0,9.96,4.459,9.96,9.96v1.77c0,5.5-4.46,9.96-9.96,9.96H543.42
	c-5.5,0-9.96-4.459-9.96-9.96v-1.77C533.46,277.639,537.919,273.18,543.42,273.18z"/>
<path fill="#F2F2F2" d="M588.41,291.66H769.35c5.501,0,9.96,4.459,9.96,9.96v1.77c0,5.5-4.459,9.96-9.96,9.96H588.41
	c-5.501,0-9.96-4.459-9.96-9.96v-1.77C578.45,296.119,582.909,291.66,588.41,291.66z"/>
<path fill="#F2F2F2" d="M512.08,307.72H693.02c5.502,0,9.962,4.459,9.962,9.96v1.77c0,5.5-4.46,9.96-9.962,9.96H512.08
	c-5.501,0-9.96-4.459-9.96-9.96v-1.77C502.12,312.179,506.579,307.72,512.08,307.72z"/>
<g opacity="0.5">
	
		<linearGradient id="SVGID_1_" gradientUnits="userSpaceOnUse" x1="596.2808" y1="932.5884" x2="596.2808" y2="759.52" gradientTransform="matrix(1 0 0 1 246.1797 -223.1289)">
		<stop  offset="0" style="stop-color:#808080;stop-opacity:0.25"/>
		<stop  offset="0.54" style="stop-color:#808080;stop-opacity:0.12"/>
		<stop  offset="1" style="stop-color:#808080;stop-opacity:0.1"/>
	</linearGradient>
	<path fill="url(#SVGID_1_)" d="M1253.5,686.151c-4.82,0-115.7,48.209-244.25-78.74c-69.81-68.932-138.19-76.271-186.11-68.58
		c-29.448,4.719-56.34,19.1-77.64,39.93c-17.13,16.82-58.59,39.74-155.73,33.48c-149.44-9.641-188.81,97.219-188.81,97.219h883
		C1283.96,709.459,1258.29,686.151,1253.5,686.151z"/>
</g>
<path fill="#F2F2F2" d="M3,711.86c0,0,57.117-106.859,273.918-97.221c140.927,6.291,201.09-16.66,225.869-33.469
	c30.843-20.871,69.839-35.211,112.521-39.93c69.522-7.691,168.739-0.354,270.002,68.58
	c186.494,126.947,347.354,78.736,354.349,78.736s44.292,23.303,44.292,23.303H3L3,711.86z"/>
<path opacity="0.02" enable-background="new    " d="M0,711.86c0,0,57.25-106.859,274.56-97.221
	c141.257,6.291,201.561-16.66,226.398-33.469c30.915-20.871,70.002-35.211,112.784-39.93c69.685-7.691,169.134-0.354,270.634,68.58
	c186.932,126.947,348.169,78.736,355.179,78.736s44.396,23.303,44.396,23.303H0L0,711.86z"/>
<path fill="#F2F2F2" d="M152.55,123.73h180.94c5.5,0,9.96,4.459,9.96,9.96v1.77c0,5.501-4.459,9.96-9.96,9.96H152.55
	c-5.5,0-9.96-4.459-9.96-9.96v-1.77C142.59,128.189,147.049,123.73,152.55,123.73z"/>
<path fill="#F2F2F2" d="M197.55,142.21h180.94c5.501,0,9.96,4.459,9.96,9.96v1.77c0,5.501-4.459,9.96-9.96,9.96H197.55
	c-5.5,0-9.96-4.459-9.96-9.96v-1.77C187.59,146.669,192.049,142.21,197.55,142.21z"/>
<path fill="#F2F2F2" d="M121.22,158.28h180.94c5.5,0,9.96,4.459,9.96,9.96v1.77c0,5.501-4.459,9.96-9.96,9.96H121.22
	c-5.501,0-9.96-4.459-9.96-9.96v-1.77C111.26,162.739,115.719,158.28,121.22,158.28z"/>
<g opacity="0.5">
	
		<linearGradient id="SVGID_2_" gradientUnits="userSpaceOnUse" x1="-154.4194" y1="291.3604" x2="-154.4194" y2="129.0605" gradientTransform="matrix(1 0 0 1 404.6797 -129.0605)">
		<stop  offset="0" style="stop-color:#808080;stop-opacity:0.25"/>
		<stop  offset="0.54" style="stop-color:#808080;stop-opacity:0.12"/>
		<stop  offset="1" style="stop-color:#808080;stop-opacity:0.1"/>
	</linearGradient>
	<circle fill="url(#SVGID_2_)" cx="250.26" cy="81.15" r="81.15"/>
</g>
<circle fill="#FCCC63" cx="250.26" cy="81.15" r="72.31"/>
<rect x="161.98" y="590.629" display="none" fill="#6C63FF" width="62.9" height="46.73"/>
<path display="none" fill="#6C63FF" d="M156.5,588.729l35.15-35.148c1.069-1.072,2.804-1.074,3.875-0.006
	c0.001,0.002,0.003,0.004,0.005,0.006l34.87,34.869c1.072,1.068,1.074,2.805,0.005,3.875c-0.513,0.514-1.209,0.805-1.935,0.805
	l-70,0.281c-1.513,0.02-2.756-1.191-2.775-2.705C155.686,589.965,155.976,589.252,156.5,588.729z"/>
<path display="none" opacity="0.05" enable-background="new    " d="M156.5,588.729l35.15-35.148
	c1.069-1.072,2.804-1.074,3.875-0.006c0.001,0.002,0.003,0.004,0.005,0.006l34.87,34.869c1.072,1.068,1.074,2.805,0.005,3.875
	c-0.513,0.514-1.209,0.805-1.935,0.805l-70,0.281c-1.513,0.02-2.756-1.191-2.775-2.705
	C155.686,589.965,155.976,589.252,156.5,588.729z"/>
<path display="none" fill="#FFFFFF" d="M192.62,616.28h1.26c3.921,0,7.1,3.18,7.1,7.1v14l0,0h-15.46l0,0v-14
	C185.52,619.459,188.699,616.28,192.62,616.28z"/>
<circle display="none" fill="#FFFFFF" cx="193.6" cy="562.169" r="3.87"/>
<rect x="166.9" y="596.6" display="none" fill="#FFFFFF" width="14.76" height="11.24"/>
<rect x="173.57" y="596.6" display="none" fill="#6C63FF" width="1.41" height="11.24"/>
<rect x="206.25" y="596.6" display="none" fill="#FFFFFF" width="14.76" height="11.24"/>
<rect x="212.93" y="596.6" display="none" fill="#6C63FF" width="1.41" height="11.24"/>
<g opacity="0.2">
	
		<linearGradient id="SVGID_3_" gradientUnits="userSpaceOnUse" x1="2833.0293" y1="889.3188" x2="2833.0293" y2="889.2787" gradientTransform="matrix(1 0 0 1 -1770.752 -223.1289)">
		<stop  offset="0" style="stop-color:#808080;stop-opacity:0.25"/>
		<stop  offset="0.54" style="stop-color:#808080;stop-opacity:0.12"/>
		<stop  offset="1" style="stop-color:#808080;stop-opacity:0.1"/>
	</linearGradient>
	<path fill="url(#SVGID_3_)" d="M1062.248,666.151L1062.248,666.151C1062.248,666.151,1062.378,666.12,1062.248,666.151z"/>
</g>
<g opacity="0.2">
	
		<linearGradient id="SVGID_4_" gradientUnits="userSpaceOnUse" x1="2827.7305" y1="918.3599" x2="2827.7305" y2="888.4894" gradientTransform="matrix(1 0 0 1 -1770.752 -223.1289)">
		<stop  offset="0" style="stop-color:#808080;stop-opacity:0.25"/>
		<stop  offset="0.54" style="stop-color:#808080;stop-opacity:0.12"/>
		<stop  offset="1" style="stop-color:#808080;stop-opacity:0.1"/>
	</linearGradient>
	<path fill="url(#SVGID_4_)" d="M1060.738,695.231l2.81-0.461l-0.39-1.73l0,0l0,0l0,0l-2-9.16v-6.68c0.004-0.082,0.004-0.166,0-0.25
		c2.939-3.959,1.16-10.16,1-10.699l-0.141,0.061c-0.022-0.24-0.069-0.48-0.141-0.709c0,0-0.87-0.553-1.34,0.158
		c-0.275,0.309-0.275,0.771,0,1.08h-0.061c0.131,0.207,0.224,0.439,0.271,0.682l-0.09-0.17h-0.181l0,0h-0.061
		c0.327,0.658,0.463,1.395,0.391,2.131c-0.102-0.146-0.216-0.277-0.341-0.4c-0.541-0.516-1.253-0.814-2-0.84h-0.529h-0.109h-0.08
		h-0.14h-0.051l-0.171,0.059c-0.188,0.094-0.386,0.168-0.59,0.221h-0.08c-0.229,0.018-0.46-0.047-0.649-0.18h-0.061l-0.069-0.061
		c-0.015,0.063-0.015,0.127,0,0.188c0.014,0.152,0.085,0.291,0.199,0.393l0.11,0.068c-0.343,0.125-0.521,0.504-0.396,0.848
		c0.124,0.342,0.502,0.518,0.846,0.395l0,0l-0.12,0.049l0,0h-0.13l0,0h-0.29c-0.137,0.02-0.274,0.02-0.41,0l0,0h-0.07h-0.109v0.08
		l0,0l0,0l0,0l0,0l0,0l0,0l0,0l0.061,0.051l0,0l0,0l0,0l0,0l0,0l0,0l0,0l0,0h0.061h0.341c0.089-0.006,0.177-0.027,0.26-0.061
		l-0.16,0.07l0,0h-0.08h-0.08h-0.079h-0.08h-0.08h-0.091h-0.079h-0.091h-0.59c0.096,0.029,0.184,0.076,0.26,0.141
		c0.05,0.037,0.104,0.066,0.16,0.09h0.08h0.39c0.158,0.014,0.313,0.063,0.45,0.141c0.072,0.045,0.137,0.104,0.19,0.17l-0.07,0.119
		l-0.05,0.109c-0.061,0.074-0.09,0.146-0.09,0.221c-0.101,0.27-0.15,0.553-0.15,0.84c0,0.061,0,0.109,0,0.16l0,0
		c0,0.039,0,0.119,0,0.119l0,0v0.15l0,0v0.121l0,0c0.03,0.098,0.067,0.195,0.11,0.289l0,0l0.06,0.131l0,0l0.08,0.139l0,0l0.08,0.121
		l0,0c0.062,0.084,0.128,0.164,0.2,0.24l0,0c0.188,0.197,0.406,0.363,0.649,0.49c-0.002,0.035-0.002,0.072,0,0.107l0,0
		c-0.003,0.039-0.003,0.08,0,0.119v0.91l-0.149,0.09c-2.16-1-5.391-8-5.391-8h-0.08c0.311-0.26,0-1.26,0-1.26
		c-0.187-0.109-0.395-0.178-0.609-0.199h-0.33h-0.05l0,0l0,0l0,0l0,0l0,0l0,0l0,0l0,0l0,0l0,0l0,0l0,0l0,0v0.061
		c-0.471,0.711,0,1.102,0,1.102c-0.018,0.271-0.018,0.547,0,0.818c-0.04,5.102,5.409,9.041,5.688,9.24
		c-0.723,2.156-0.723,4.49,0,6.648l0,0c-2.658,2.451-3.822,6.125-3.06,9.66v0.109h-0.09v0.07l-0.051,0.121
		c-0.035,0.068-0.078,0.131-0.13,0.189l0,0l-0.181,0.188l-0.069,0.07c-0.279,0.26-0.561,0.521-0.351,0.621h3v-1.301h0.05
		l-0.05-0.121l0,0l0,0c-0.37-1.156-0.349-2.404,0.061-3.549c0.71-2.359,3.46-3.541,3.46-3.541l0.051,0.17l0,0l2.159,7.092
		c0,0.029,0,0.09,0,0.09c0.007,0.066,0.007,0.133,0,0.199l-0.061,0.15c-0.13,0.279-0.36,0.6-0.46,0.84v0.1
		c-0.008,0.039-0.008,0.08,0,0.121c0.004,0.053,0.039,0.1,0.09,0.119h0.12L1060.738,695.231z M1060.308,673.54
		c-0.118,0.541-0.229,1.041-0.358,1.471l-0.17-0.08v-0.871c0.005-0.063,0.005-0.125,0-0.188c0.187-0.088,0.36-0.197,0.52-0.33h0.009
		V673.54z"/>
</g>
<path fill="#CA7070" d="M1052.068,667.86c0.35-0.26,0-1.391,0-1.391s-0.96-0.609-1.48,0.17c-0.52,0.781,0,1.221,0,1.221
	S1051.718,668.12,1052.068,667.86z"/>
<path id="_x33_9458adb-bcd5-4769-9abe-182f7ae0ca71" fill="#00695C" d="M1055.968,698.639h-3.3c-0.33-0.18,0.35-0.629,0.67-1
	c0.164-0.162,0.248-0.389,0.23-0.619h2.398L1055.968,698.639L1055.968,698.639z"/>
<path opacity="0.2" fill="#FFFFFF" enable-background="new    " d="M1052.848,698.639h-0.17c-0.33-0.18,0.352-0.629,0.67-1
	c0.164-0.162,0.248-0.389,0.23-0.619h0.17c0.018,0.23-0.066,0.457-0.23,0.619C1053.198,698.01,1052.548,698.459,1052.848,698.639z"
	/>
<path id="_x32_4b3a5d5-99f8-4317-aac1-7589e0408752" fill="#00695C" d="M1064.928,698.5l-3.25,0.529
	c-0.33-0.143,0.222-0.803,0.472-1.313c0.126-0.242,0.16-0.52,0.1-0.789l2.28-0.398L1064.928,698.5z"/>
<path fill="#00695C" d="M1061.558,667.469c1.432,2.08-1.118,10.932-1.118,10.932l1.25,1c4.31-4.49,1.738-12.602,1.738-12.602
	S1064.078,666.68,1061.558,667.469z"/>
<path fill="#CA7070" d="M1063.128,667.51c0.351-0.26,0-1.391,0-1.391s-0.96-0.609-1.479,0.17c-0.521,0.781,0,1.221,0,1.221
	S1062.778,667.77,1063.128,667.51z"/>
<path opacity="0.2" fill="#FFFFFF" enable-background="new    " d="M1061.818,699.03h-0.142c-0.33-0.141,0.222-0.801,0.472-1.311
	c0.126-0.242,0.16-0.521,0.1-0.789l2.28-0.381l0,0l-2.08,0.34c0.062,0.268,0.025,0.547-0.102,0.791
	C1062.108,698.17,1061.598,698.79,1061.818,699.03z"/>
<path fill="#CA7070" d="M1058.288,676.85v-1.381c0-0.617,0.501-1.119,1.12-1.119h0.2c0.617,0,1.12,0.502,1.12,1.119v1.381
	c0,0.619-0.503,1.119-1.12,1.119h-0.2C1058.789,677.969,1058.288,677.469,1058.288,676.85z"/>
<path opacity="0.2" fill="#FFFFFF" enable-background="new    " d="M1061.748,679.85l-0.11,0.119l-1.25-1c0,0,2.552-8.85,1.12-10.93
	h0.062l0,0h0.198c1.37,2.15-1.148,10.891-1.148,10.891L1061.748,679.85z"/>
<circle fill="#CA7070" cx="1059.558" cy="672.919" r="2.7"/>
<path opacity="0.2" fill="#FFFFFF" enable-background="new    " d="M1059.658,677.969h-0.15c-0.674,0-1.22-0.545-1.22-1.219v-1.18
	c-0.01-0.088-0.01-0.176,0-0.264c-0.899-0.463-1.464-1.391-1.463-2.4c0.001-1.49,1.212-2.699,2.703-2.697h0.148
	c-0.959,0.053-1.816,0.611-2.255,1.467c-0.679,1.328-0.152,2.955,1.175,3.633c-0.009,0.088-0.009,0.174,0,0.262v1.18
	C1058.593,677.366,1059.047,677.889,1059.658,677.969z"/>
<path fill="#00695C" d="M1062.298,678.969L1062.298,678.969c0-1.49-1.209-2.699-2.7-2.699l0,0l0,0c-1.49,0-2.698,1.209-2.698,2.699
	c-0.816,2.404-0.816,5.008,0,7.41c0.188,0.59,5.398,0,5.398,0V678.969z"/>
<path fill="#263238" d="M1056.918,686.379L1056.918,686.379c-2.967,2.697-4.271,6.771-3.42,10.691v0.119h2.53
	c-0.503-1.316-0.503-2.773,0-4.092c0.83-2.607,3.83-3.92,3.83-3.92l2.438,8h2.352l-2.352-10.801"/>
<path opacity="0.2" fill="#FFFFFF" enable-background="new    " d="M1058.578,686.651c-0.891,0.01-1.6-0.051-1.67-0.262
	c-0.816-2.402-0.816-5.006,0-7.408l0,0c0-1.492,1.209-2.701,2.7-2.701h0.17c-1.421,0.09-2.528,1.268-2.53,2.689
	c-0.816,2.404-0.816,5.008,0,7.41C1057.248,686.559,1057.808,686.629,1058.578,686.651z"/>
<path fill="#00695C" d="M1058.288,676.76c-2.39-0.791-6.14-8.891-6.14-8.891h-1.562c-0.729,6.18,6.271,11.061,6.271,11.061
	S1060.678,677.549,1058.288,676.76z"/>
<g opacity="0.2">
	<path fill="#FFFFFF" d="M1060.208,689.219l2.44,8h-0.352l-2.39-7.869L1060.208,689.219z"/>
	<path fill="#FFFFFF" d="M1053.828,697.11v0.119h-0.35v-0.119c-0.852-3.918,0.452-7.992,3.42-10.689h0.35
		C1054.281,689.118,1052.979,693.192,1053.828,697.11z"/>
</g>
<path opacity="0.2" fill="#FFFFFF" enable-background="new    " d="M1057.028,678.92l-0.17,0.07c0,0-6.972-4.871-6.271-11.063h0.26
	C1050.198,673.719,1056.248,678.35,1057.028,678.92z"/>
<path fill="#263238" d="M1056.498,671.11c-0.173,0.016-0.347,0.016-0.521,0c-0.141-0.039-0.359-0.25-0.471-0.25
	c0.537,0.008,1.069-0.102,1.562-0.32c-0.533,0.207-1.137-0.033-1.381-0.549c0.423,0.148,0.887,0.123,1.29-0.07
	c-0.063,0-0.128-0.008-0.188-0.027c-0.315-0.1-0.491-0.438-0.393-0.754c0.257,0.271,0.635,0.395,1,0.32
	c0.229-0.055,0.449-0.137,0.659-0.24c1.195-0.438,2.535-0.152,3.45,0.73c0.896,0.902,1.273,2.199,1,3.439
	c-0.076,0.412-0.267,0.793-0.55,1.102c-0.494,0.424-1.145,0.619-1.79,0.539c-0.424-0.016-0.838-0.127-1.21-0.33
	c-0.652-0.439-1.1-1.125-1.24-1.9c-0.057-0.375-0.16-0.74-0.31-1.09C1057.25,671.348,1056.894,671.112,1056.498,671.11z"/>
<g opacity="0.2">
	<path fill="#FFFFFF" d="M1056.89,669.903c-0.314-0.1-0.49-0.438-0.392-0.752l0.14,0.119c-0.001,0.018-0.002,0.035-0.002,0.053
		c0.001,0.336,0.275,0.607,0.612,0.607c-0.262,0.125-0.551,0.18-0.84,0.16c0.222-0.01,0.438-0.064,0.64-0.16
		C1056.994,669.928,1056.941,669.918,1056.89,669.903z"/>
	<path fill="#FFFFFF" d="M1057.288,669.459h0.09c0.229-0.057,0.449-0.137,0.66-0.24c0.385-0.152,0.797-0.223,1.21-0.209
		c-0.343,0.012-0.682,0.084-1,0.209c-0.211,0.104-0.432,0.184-0.66,0.24C1057.488,669.475,1057.388,669.475,1057.288,669.459z"/>
	<path fill="#FFFFFF" d="M1056.428,671.1c-0.119,0.02-0.24,0.02-0.358,0c-0.142-0.041-0.36-0.25-0.472-0.25
		c0.476,0.01,0.947-0.072,1.392-0.24c0.12-0.002,0.237-0.025,0.35-0.07c-0.49,0.219-1.021,0.328-1.56,0.32
		c0.108,0,0.33,0.25,0.47,0.25L1056.428,671.1z"/>
	<path fill="#FFFFFF" d="M1060.178,675.03c-0.423-0.016-0.837-0.127-1.21-0.33c-0.651-0.439-1.1-1.125-1.239-1.9
		c-0.057-0.375-0.16-0.74-0.311-1.09c-0.16-0.328-0.485-0.541-0.85-0.561h0.17c0.363,0.02,0.688,0.232,0.85,0.561
		c0.149,0.35,0.254,0.715,0.311,1.09c0.141,0.775,0.588,1.461,1.239,1.9c0.373,0.203,0.787,0.314,1.21,0.33H1060.178z"/>
	<path fill="#FFFFFF" d="M1055.748,669.991l0.2,0.059c0.18,0.33,0.516,0.545,0.89,0.57
		C1056.379,670.659,1055.943,670.407,1055.748,669.991z"/>
</g>
<path opacity="0.2" fill="#FFFFFF" enable-background="new    " d="M1051.588,667.969c-0.336,0-0.671-0.037-1-0.109
	c0,0-0.52-0.439,0-1.221c0.173-0.281,0.492-0.436,0.82-0.398c-0.27,0.02-0.512,0.168-0.65,0.398c-0.52,0.781,0,1.221,0,1.221
	C1051.031,667.918,1051.309,667.956,1051.588,667.969z"/>
<path fill="#FF5252" d="M1036.968,658.821c1.432,2.08-1.12,10.93-1.12,10.93l1.25,1c4.312-4.49,1.74-12.6,1.74-12.6
	S1039.488,658.03,1036.968,658.821z"/>
<path fill="#F6B9AD" d="M1038.538,658.87c0.35-0.26,0-1.389,0-1.389s-0.96-0.611-1.48,0.17c-0.52,0.779,0,1.219,0,1.219
	S1038.188,659.129,1038.538,658.87z"/>
<path fill="#F6B9AD" d="M1033.698,668.209v-1.379c0-0.619,0.501-1.121,1.12-1.121h0.198c0.619,0,1.12,0.502,1.12,1.121v1.379
	c0,0.619-0.501,1.121-1.12,1.121h-0.198C1034.199,669.331,1033.698,668.829,1033.698,668.209z"/>
<path opacity="0.2" fill="#FFFFFF" enable-background="new    " d="M1037.158,671.241l-0.11,0.119l-1.25-1c0,0,2.55-8.85,1.12-10.93
	h0.061l0,0h0.199c1.37,2.15-1.148,10.891-1.148,10.891L1037.158,671.241z"/>
<circle fill="#F6B9AD" cx="1034.968" cy="664.27" r="2.699"/>
<path opacity="0.2" fill="#FFFFFF" enable-background="new    " d="M1035.068,669.331h-0.15c-0.674,0-1.22-0.547-1.22-1.221v-1.18
	c-0.011-0.086-0.011-0.174,0-0.26c-0.899-0.465-1.464-1.391-1.463-2.404c0.001-1.49,1.212-2.697,2.702-2.695h0.149
	c-0.959,0.053-1.817,0.611-2.255,1.467c-0.679,1.326-0.152,2.953,1.175,3.633c-0.009,0.086-0.009,0.174,0,0.26v1.17
	C1033.998,668.719,1034.453,669.249,1035.068,669.331z"/>
<path fill="#FF5252" d="M1037.708,670.29L1037.708,670.29c0-1.49-1.209-2.699-2.7-2.699l0,0l0,0c-1.491,0-2.7,1.209-2.7,2.699
	c-0.365,0.793-0.286,1.721,0.21,2.439c0.79,1-0.828,3.102-0.21,5c0.19,0.592,5.4,0,5.4,0V670.29z"/>
<path opacity="0.2" fill="#FFFFFF" enable-background="new    " d="M1032.288,677.76c0.07,0.209,0.78,0.26,1.66,0.26
	c-0.71-0.01-1.25-0.08-1.312-0.26c-0.62-1.939,1.052-4,0.21-5c-0.495-0.719-0.575-1.646-0.21-2.439
	c0.003-1.424,1.109-2.602,2.53-2.691h-0.17l0,0c-1.491,0-2.7,1.209-2.7,2.701c-0.366,0.793-0.286,1.721,0.21,2.439
	C1033.348,673.77,1031.678,675.831,1032.288,677.76z"/>
<path fill="#F6B9AD" d="M1036.868,677.559l1.51,10.801h-1.51l-1.57-8c-1.274,0.959-2.151,2.354-2.46,3.92
	c-0.325,1.344-0.325,2.746,0,4.09h-1.62v-0.119c-0.591-3.713,0.191-7.514,2.2-10.691l0,0H1036.868L1036.868,677.559z"/>
<path fill="#F6B9AD" d="M1025.658,661.581c0.26-0.33-0.41-1.33-0.41-1.33s-1.09-0.311-1.36,0.6c-0.27,0.91,0.36,1.17,0.36,1.17
	S1025.398,661.911,1025.658,661.581z"/>
<path fill="#FF5252" d="M1034.238,668.26c-2.48-0.051-8.48-6.701-8.48-6.701l-1.5,0.461c1.15,6.119,9.24,8.74,9.24,8.74
	S1036.718,668.309,1034.238,668.26z"/>
<path opacity="0.2" fill="#FFFFFF" enable-background="new    " d="M1033.668,670.741l-0.14,0.109c0,0-8.091-2.621-9.24-8.74
	l0.25-0.08C1025.608,667.741,1032.718,670.401,1033.668,670.741z"/>
<g opacity="0.2">
	<path fill="#FFFFFF" d="M1035.368,680.571l1.52,7.779h0.352l-1.57-8C1035.564,680.418,1035.465,680.491,1035.368,680.571z"/>
	<path fill="#FFFFFF" d="M1031.248,688.25v0.119h0.32v-0.119c-0.592-3.713,0.19-7.514,2.198-10.691h-0.35
		C1031.42,680.741,1030.648,684.542,1031.248,688.25z"/>
</g>
<path opacity="0.2" fill="#FFFFFF" enable-background="new    " d="M1025.258,661.79c-0.325,0.1-0.66,0.164-1,0.189
	c0,0-0.63-0.27-0.358-1.17c0.084-0.318,0.345-0.561,0.67-0.619c-0.249,0.098-0.437,0.311-0.5,0.57
	c-0.271,0.91,0.358,1.17,0.358,1.17C1024.708,661.907,1024.985,661.86,1025.258,661.79z"/>
<path fill="#263238" d="M1032.248,677.44l-2.33,6.609c0,0,1.73,1.691,5.36,1c1.885-0.363,3.793-0.594,5.71-0.689l-3.28-6.92
	H1032.248z"/>
<path fill="#FF5252" d="M1038.398,688.331l0.17,1h-3.11c-0.35-0.65,1.38-1,1.38-1H1038.398z"/>
<path fill="#FF5252" d="M1032.868,688.331l0.17,1h-3.11c-0.35-0.65,1.38-1,1.38-1H1032.868z"/>
<path fill="#FCCC63" d="M1042.198,670.18l-7.432,0.17c1.9-2.42-2.25-8.301-2.25-8.301
	C1040.128,656.86,1042.198,670.18,1042.198,670.18z"/>
<path opacity="0.2" fill="#FFFFFF" enable-background="new    " d="M1034.778,670.34l7.43-0.17v-0.15l-6.54,0.15
	c1.9-2.42-2.25-8.301-2.25-8.301c0.611-0.436,1.286-0.771,2-1c-1.051,0.145-2.048,0.549-2.9,1.18
	C1032.518,662.049,1036.668,667.93,1034.778,670.34z"/>
<path opacity="0.2" fill="#FFFFFF" enable-background="new    " d="M1029.868,684.01c1.124,0.91,2.561,1.342,4,1.199
	c-1.253,0.02-2.472-0.404-3.44-1.199l2.34-6.57h-0.52L1029.868,684.01z"/>
<path opacity="0.2" fill="#FFFFFF" enable-background="new    " d="M1035.458,689.331h0.35c-0.35-0.65,1.382-1,1.382-1h-0.352
	C1036.838,688.331,1035.108,688.67,1035.458,689.331z"/>
<path opacity="0.2" fill="#FFFFFF" enable-background="new    " d="M1029.928,689.331h0.352c-0.352-0.65,1.38-1,1.38-1h-0.352
	C1031.308,688.331,1029.578,688.67,1029.928,689.331z"/>
<polyline fill="none" stroke="#B3B3B3" stroke-miterlimit="10" points="1126.52,400.93 1116.88,347.09 1147.41,345.6 
	1147.41,400.93 1168.3,400.93 1189.19,341.47 "/>
<path fill="#6C63FF" d="M1132.93,395.299h28.96c15.078,0,27.302,12.223,27.302,27.301v4.859c0,15.078-12.224,27.301-27.302,27.301
	h-28.96c-15.077,0-27.3-12.223-27.3-27.301V422.6C1105.63,407.522,1117.854,395.299,1132.93,395.299z"/>
<path opacity="0.05" enable-background="new    " d="M1160.27,395.299h-24.1c-16.397,0.051-29.681,13.332-29.729,29.73l0,0
	c0,0.68,0,1.34,0.08,2c1.1-15.578,14.031-27.671,29.648-27.721h24.102c15.616,0.05,28.55,12.143,29.648,27.721
	c0-0.66,0.08-1.33,0.08-2l0,0C1189.951,408.631,1176.669,395.35,1160.27,395.299z"/>
<linearGradient id="SVGID_5_" gradientUnits="userSpaceOnUse" x1="906.9453" y1="581.8384" x2="906.9453" y2="333.1992" gradientTransform="matrix(1 0 0 1 246.1797 -223.1289)">
	<stop  offset="0" style="stop-color:#808080;stop-opacity:0.25"/>
	<stop  offset="0.54" style="stop-color:#808080;stop-opacity:0.12"/>
	<stop  offset="1" style="stop-color:#808080;stop-opacity:0.1"/>
</linearGradient>
<path fill="url(#SVGID_5_)" d="M1274.17,234.39c0,68.66-57.359,124.319-118.43,124.319c-61.071,0-123.66-55.66-123.66-124.319
	c0-68.66,62.59-124.32,123.67-124.32S1274.17,165.73,1274.17,234.39z"/>
<path fill="#6C63FF" d="M1268.5,234.39c0,65.45-54.67,118.5-112.89,118.5c-58.222,0-117.88-53.05-117.88-118.5
	c0-65.45,59.68-118.46,117.89-118.46S1268.5,168.93,1268.5,234.39z"/>
<rect x="1137.53" y="357.049" fill="#6C63FF" width="26.188" height="9.15"/>
<g opacity="0.2">
	<path d="M1155.62,115.48c-1.39,0-2.771,0-4.16,0.1c56.63,2.45,108.729,54.51,108.729,118.4s-52.101,115.95-108.689,118.4
		c1.39,0.06,2.78,0.1,4.16,0.1c58.21,0,112.89-53.05,112.89-118.5C1268.55,168.53,1213.83,115.48,1155.62,115.48z"/>
</g>
<g opacity="0.2">
	<path fill="#FFFFFF" d="M1044.4,234.39c0-64.51,58-117,115.38-118.46c-0.83,0-1.66,0-2.49,0c-58.21,0-117.88,53.05-117.88,118.5
		c0,65.45,59.66,118.5,117.87,118.5c0.83,0,1.66,0,2.489,0C1102.37,351.37,1044.4,298.93,1044.4,234.39z"/>
</g>
<rect x="1114.25" y="336.26" fill="#6C63FF" width="75.26" height="24.53"/>
<path opacity="0.2" fill="#FFFFFF" enable-background="new    " d="M1114.25,124.52c0,0-89.39,102.18,0,219.74l29.52-0.1
	c0,0-81.488-97.12-3.738-227l-14.53,3.31L1114.25,124.52z"/>
<path opacity="0.2" fill="#FFFFFF" enable-background="new    " d="M1192,122.93c0,0,89.39,103.74,0,221.3l-29.52-0.1
	c0,0,81.488-98,3.738-227.85l14.55,2.91L1192,122.93z"/>
<path opacity="0.1" fill="#191EAE" enable-background="new    " d="M204.553,626.64c-3.333,0.795-6.587,2.048-10.002,2.399
	c-4.331,0.445-8.786-0.581-13.023,0.423c-1.974,0.468-4.076,1.663-4.413,3.662c-0.306,1.818,1.004,3.544,2.533,4.572
	c3.12,2.101,7.11,2.253,10.87,2.337c4.167,0.092,8.422,0.174,12.426-1.001c2.599-0.757,5.033-2.039,7.666-2.668
	c3.662-0.874,7.482-0.45,11.237-0.368c1.063,0.022,2.146,0.015,3.157-0.335c0.655-0.228,1.255-0.595,1.916-0.809
	c1.294-0.419,2.697-0.214,4.04-0.029c5.616,0.765,11.284,1.081,16.95,0.947c2.811-0.066,5.788-0.302,8.071-1.941
	c0.655-0.47,1.243-1.058,1.597-1.782c0.533-1.09,0.483-2.399,0.092-3.545c-0.971-2.852-3.859-4.704-6.812-5.294
	s-6.003-0.134-8.981,0.321l-13.954,2.139c-0.988,0.151-1.986,0.305-2.928,0.643c-1.08,0.387-2.062,1.01-3.13,1.424
	c-3.069,1.201-5.024,0.363-7.702-0.801C211.068,625.584,207.804,625.856,204.553,626.64z"/>
<linearGradient id="SVGID_6_" gradientUnits="userSpaceOnUse" x1="118.5098" y1="87.2271" x2="118.5098" y2="167.2554" gradientTransform="matrix(1 0 0 -1 100.9697 722.3604)">
	<stop  offset="0" style="stop-color:#808080;stop-opacity:0.25"/>
	<stop  offset="0.54" style="stop-color:#808080;stop-opacity:0.12"/>
	<stop  offset="1" style="stop-color:#808080;stop-opacity:0.1"/>
</linearGradient>
<path fill="url(#SVGID_6_)" d="M258.467,568.384c1.077-1.615-0.323-1.508-0.323-1.508l-26.289,7.258l11.432-18.024
	c0.216-1.292-1.292-0.969-1.292-0.969l-12.262,19.58l-3.213,0.884l-0.244-0.549l-0.604,0.228c-0.076-0.269-0.192-0.464-0.364-0.55
	c-1.029-0.514-2.254,0.643-3.394,1.967l-3.066,1.155l0.969,1.508l1.827-0.591c0.365,0.995,1.136,1.969,1.408,2.301l-0.22,0.126
	l0.323,0.884l-0.214,0.081l0.093,0.289l-0.093,0.035c0,0,0.295,0.904,0.65,2.044l-1.389,2.216l-0.231-0.169l-2.367,3.115
	l-2.073-0.444c0.051-0.793,0.114-1.506,0.162-2.011c0.431,0.226,0.725,0.417,0.725,0.417c0.035-0.217,0.049-0.437,0.042-0.656
	c0.093-2.878-3.45-4.946-3.963-5.231c-0.271-0.386-0.507-0.793-0.708-1.218c-0.188-0.657,0.017-1.195,0.399-1.629l0.096,0.006
	c0.081-0.074,0.168-0.145,0.252-0.212h0.108c2.659-0.001,4.884-2.019,5.143-4.665c0.238,0.203,0.4,0.482,0.456,0.789
	c0.075-0.164,0.101-0.348,0.077-0.527c0.02-0.264-0.032-0.699-0.355-1.322c0.139-0.449,0.203-0.918,0.19-1.388
	c0.03-1.127-0.35-2.792-2.389-4.195c0,0-4.091-2.476-6.353,0.861c-2.261,3.337-2.045,2.368-2.045,2.368l-4.355,3.081
	c-0.021,0.014-0.042,0.028-0.06,0.042c-0.466,0.362,0.088,0.996,0.788,1.56c-2.512-0.506-6.012-0.439-8.862,2.531
	c0,0-2.692,6.459-5.491,8.937c-2.8,2.478-4.953,19.595-4.953,19.595l-0.126,0.607l-3.961,19.964l0.159-0.069
	c-0.379,1.233-0.698,2.224-0.698,2.224l-1.722,4.419l0.077,0.018l-0.077,0.198c0,0,8.183,1.831,10.767,1.292
	c1.276-0.267,1.528-0.689,1.456-1.051c0.097-0.458-0.486-0.884-0.486-0.884s-3.015-0.431-4.521-2.904
	c-0.264-0.451-0.405-0.965-0.408-1.488c0.03-1.361,0.698-2.841,1.263-3.852c3.339-1.01,7.543-1.928,10.993-1.55
	c1.615,0.176,3.242,0.236,4.866,0.179c-0.446,1.503-0.884,2.837-0.884,2.837l-1.722,4.419l0.077,0.018l-0.077,0.197
	c0,0,8.183,1.831,10.766,1.292c1.277-0.266,1.528-0.688,1.456-1.05c0.097-0.458-0.486-0.885-0.486-0.885s-3.015-0.431-4.521-2.903
	c-0.264-0.451-0.404-0.966-0.408-1.488c0.022-1.011,0.396-2.087,0.817-2.988c0.662-0.123,1.315-0.283,1.959-0.477
	c0,0,6.46,1.184,7.753,2.368c0.549,0.505,0.457-2.081,0.169-5.223c-0.512-5.575-1.948-11.027-4.251-16.131
	c-0.308-0.685-0.614-1.376-0.904-2.054l1.175-1.632c0.09,0.092,0.146,0.144,0.146,0.144c0.405,0.097,0.82,0.144,1.236,0.139
	c3.586,0.105,2.856-4.553,2.856-4.553c0-0.067-0.326-0.277-0.825-0.472l0.217-0.302l0.081-0.046c0.064,0.045,0.09,0.066,0.09,0.066
	s3.553-1.83,3.23-3.121c-0.09-0.347-0.264-0.666-0.505-0.931l2.121-2.946l-0.252-0.187l0.798-1.264
	c0.378,1.288,0.686,2.469,0.64,2.738c-0.107,0.646,3.553,2.045,3.553,2.045s1.169,0.146,2.063,0.197
	c0.211,1.445,0.766,3.409,1.069,4.419c0.122,0.406,0.284,0.799,0.483,1.173c0.517,0.965,1.58,3.053,1.699,4.091
	c-0.006,0.048-0.02,0.094-0.04,0.137c-0.429,0.861-0.429,1.508-0.429,1.508h0.035c-0.02,0.108-0.032,0.216-0.035,0.326l0.916-0.089
	c0.033,0.87-0.505,2.471-4.146,4.072c-2.237,0.984-3.73,1.875-4.712,2.581c-1.529,1.088-2.198,3.027-1.665,4.827
	c0.128,0.427,0.317,0.832,0.563,1.204c0.757,1.137,0.995,1.933,1.064,2.398c-0.213-0.007-0.396-0.019-0.525-0.035
	c0,0,0.062,0.126,0.167,0.34c-0.062,0-0.119-0.01-0.167-0.017c0,0,3.525,7.051,3.683,9.597c-0.002,0.149-0.046,0.296-0.126,0.423
	c0,0-0.431,1.938-2.261,1.938c-0.998,0-1.163,0.288-1.002,0.566c-0.231,0.294,0.351,0.757,0.788,0.833
	c0.646,0.108,6.352,0.538,7.536-1.077l-0.069-0.237c0.024-0.027,0.048-0.057,0.069-0.085l-0.757-2.585c0,0-0.643-2.072-0.707-3.248
	c0.003-0.104,0.024-0.208,0.061-0.306c0.081-0.189,0.107-0.733,0.102-1.44c0.017-2.04-0.318-5.988-0.318-5.988l-0.482,0.199
	c-0.445-0.572-1.091-1.568-0.815-2.228c0.234,0.03,0.47,0.044,0.707,0.039c0.77,0,2.192-0.126,4.347-0.829l2.489,5.51
	c0,0,0.758,1.615,2.369,2.153l2.147,1.996c-0.104,0.023-0.209,0.04-0.315,0.049l0.285,0.193c-0.06,0.011-0.118,0.018-0.177,0.022
	l5.615,3.811c0.039,0.538,0.066,2.325-1.307,2.325c-1.615,0-1.507,1.184-1.507,1.184h0.125c-0.012,0.071-0.016,0.145-0.013,0.216
	h7.86c0,0,0.903-1.605,0.286-2.588c-0.043-0.114-0.104-0.221-0.179-0.318c-0.758-0.969-2.477-3.015-2.477-3.015
	s-1.681-2.266-2.689-4.236c-0.223-0.436-0.403-0.892-0.54-1.362l-0.031,0.039c-0.029-0.087-0.056-0.173-0.077-0.252
	c0,0-0.126,0.162-0.339,0.41c-0.58-0.638-1.467-1.516-2.354-2.021c-1.122-0.641-1.708-5.463-1.933-7.882
	c0.681-0.754,1.115-1.696,1.247-2.703c0.225-1.699,0.252-3.979-0.723-5.725c-0.069-0.367-0.567-3.022-0.6-4.735
	c0-0.239,0.024-0.478,0.071-0.712c0.083-0.427,0.117-0.862,0.103-1.297c0-0.017,0-0.031,0-0.048c0-0.091,0-0.183,0-0.275
	c-0.025-1.716-0.418-3.406-1.153-4.957c-0.35-0.729-0.745-1.607-1.107-2.464c-0.305-0.721-0.903-1.121-1.55-1.335
	c0.033-0.101,0.041-0.208,0.024-0.313c0.02-0.137,0-0.276-0.054-0.404c-0.104-0.239-0.296-0.428-0.443-0.643
	c-0.096-0.139-0.174-0.29-0.232-0.449c-0.006-0.018-0.013-0.035-0.018-0.053c0.051-0.094,0.124-0.174,0.212-0.233
	c0.343-0.285,0.6-0.659,0.743-1.081c0.107-0.363,0.167-0.739,0.181-1.118c0.026-0.368,0.045-0.742,0.04-1.114
	c0.009-0.77-0.069-1.535-0.389-2.229c-0.141-0.327-0.357-0.616-0.631-0.843c-0.186-0.135-0.385-0.25-0.595-0.344
	c-0.826-0.402-1.657-0.806-2.542-1.051c-0.885-0.245-1.837-0.321-2.719-0.063c-0.261,0.065-0.504,0.19-0.71,0.364
	c-0.167,0.154-0.285,0.356-0.454,0.505c-0.237,0.216-0.557,0.32-0.806,0.522c-0.466,0.379-0.607,1.035-0.591,1.642
	c0,0,0,0.01,0,0.014c0,0.068,0,0.136,0,0.202c0.008,0.26,0.099,0.584,0.356,0.615c0.143,0.009,0.281-0.052,0.372-0.163
	c-0.58,1.652,0.09,3.483,1.6,4.37c0.296,0.688,0.481,1.42,0.55,2.167c-0.363,0.038-0.666,0.062-0.849,0.062
	c-0.061,0.001-0.121,0.017-0.175,0.044c-1.263-0.126-2.123-0.558-3.157-0.905c-0.883-0.295-1.579-1.697-2.02-2.903l4.293-6.767
	L258.467,568.384z M212.686,598.793c-0.253-0.666-0.463-1.263-0.61-1.768c-0.206-0.69-0.458-1.365-0.758-2.021
	c-0.17-0.4-0.28-0.823-0.324-1.255c0.411-0.505,0.822-1.011,1.221-1.5c0.302,0.051,0.618,0.117,0.946,0.201
	c-0.089,0.243-0.204,0.475-0.342,0.692c-0.646,0.863,0.649,4.203,0.649,4.203l0.02-0.021c0.021,0.107,0.046,0.213,0.079,0.316
	L212.686,598.793z M231.12,616.842l-0.021,0.009c-0.081-0.104-0.17-0.222-0.26-0.351c0.166,0.204,0.286,0.333,0.286,0.333
	L231.12,616.842z M226.069,580.575v-0.025c-0.081,0.135-0.194,0.246-0.331,0.323l-0.316-1.185l-0.024,0.021
	c0.097-0.495,0.252-1.371,0.337-2.257l1.409-0.455l-0.153-0.345l1.842-0.483L226.069,580.575z"/>
<path fill="#8499F0" d="M225.975,576.261l31.061-8.574c0,0,1.359-0.104,0.313,1.463l-31.061,8.155L225.975,576.261z"/>
<polygon fill="#9F9BAD" points="218.865,578.356 219.805,579.82 226.915,577.52 226.079,575.638 "/>
<path fill="#F9D3C4" d="M223.047,581.597c0,0-2.509-2.822-1.359-4.183s2.399-2.614,3.451-2.091c1.052,0.522,0,5.229,0,5.229
	L223.047,581.597z"/>
<path fill="#F6E2D7" d="M223.151,582.748l-0.418-1.15c0,0,2.3-1.255,2.509-1.463l0.418,1.567L223.151,582.748z"/>
<path fill="#2A2A31" d="M217.819,586.721c0,0-0.732,6.379,0,8.051c0,0-3.556,1.778-4.182,2.509c0,0-1.255-3.241-0.631-4.079
	c0.624-0.837,2.509-7.527,2.509-7.527L217.819,586.721z"/>
<path fill="#F9D3C4" d="M231.308,583.06c0,0,1.568,2.399,1.046,4.603c-0.523,2.201,5.124-1.256,5.124-1.256s-1.673-2.509-1.463-4.81
	L231.308,583.06z"/>
<path fill="#C8B5AC" d="M234.444,612.129l2.928,6.481c0,0,0.732,1.568,2.3,2.092l3.03,2.822l4.079-3.555
	c0,0-1.463-1.883-2.928-2.719s-1.986-8.992-1.986-8.992L234.444,612.129z"/>
<path opacity="0.1" enable-background="new    " d="M234.444,612.129l2.928,6.481c0,0,0.732,1.568,2.3,2.092l3.03,2.822l4.079-3.555
	c0,0-1.463-1.883-2.928-2.719s-1.986-8.992-1.986-8.992L234.444,612.129z"/>
<path fill="#C8B5AC" d="M233.504,601.987c0,0,1.358,2.305-3.875,4.601c-2.173,0.956-3.623,1.822-4.576,2.506
	c-1.483,1.06-2.13,2.943-1.611,4.69c0.124,0.413,0.308,0.808,0.546,1.168c1.255,1.883,1.045,2.824,1.045,2.824
	s4.601,1.673,6.061-1.15c0,0-1.568-1.674-1.15-2.613c0,0,1.778,0.417,5.751-1.046c1.761-0.659,3.457-1.48,5.066-2.454
	c1.272-0.764,2.125-2.064,2.32-3.535c0.239-1.812,0.252-4.303-1.011-6.038L233.504,601.987z"/>
<path opacity="0.1" enable-background="new    " d="M242.182,600.941l-0.139,0.016c0.974,1.7,0.948,3.94,0.728,5.605
	c-0.194,1.471-1.048,2.771-2.319,3.535c-1.609,0.973-3.305,1.795-5.065,2.454c-3.974,1.463-5.757,1.041-5.757,1.041
	c-0.417,0.941,1.151,2.614,1.151,2.614c-1.192,2.298-4.461,1.617-5.637,1.284c0.008,0.095,0.005,0.19-0.01,0.284
	c0,0,4.601,1.673,6.061-1.15c0,0-1.568-1.674-1.15-2.614c0,0,1.778,0.418,5.751-1.045c1.763-0.659,3.461-1.48,5.072-2.454
	c1.272-0.764,2.125-2.064,2.32-3.535C243.428,605.168,243.439,602.677,242.182,600.941z"/>
<path fill="#3E3F49" d="M218.76,623.945c-1.255-1.15-7.528-2.301-7.528-2.301s-4.81,1.568-11.501,0.836
	c-6.692-0.732-16.315,3.556-16.315,3.556l3.856-19.382l0.117-0.59c0,0,2.087-16.624,4.812-19.03
	c2.725-2.405,5.332-8.678,5.332-8.678c4.914-5.123,11.815-1.359,11.815-1.359s0.039,0.095,0.105,0.271
	c0.547,1.454,3.024,8.403,2.091,12.693c-0.61,2.806-0.331,4.292,0.009,5.05c0.29,0.635,0.535,1.289,0.735,1.957
	c0.44,1.508,1.464,3.935,2.512,6.262c2.233,4.949,3.626,10.236,4.124,15.643C219.203,621.923,219.293,624.432,218.76,623.945z"/>
<path fill="#151519" d="M207.785,576.997c0,0-3.346-1.883-2.399-2.614c0.947-0.731,5.854-1.045,5.854-1.045l1.721,4.025
	L207.785,576.997z"/>
<path fill="#535461" d="M217.191,577.937c0,0-3.868,0.836-3.241,3.03c0,0,0.631,1.359,1.255,1.778
	c0.624,0.418-3.974,0.94-3.974,0.94l-2.613-2.091l0.366-2.875c0,0,0.157-4.546,2.667-4.546
	C214.161,574.174,217.191,577.937,217.191,577.937z"/>
<circle fill="#F9D3C4" cx="233.712" cy="581.179" r="3.556"/>
<path opacity="0.1" fill="#FFFFFF" enable-background="new    " d="M235.908,586.198c0,0,3.136-0.522,3.974,1.465
	c0.351,0.834,0.74,1.687,1.072,2.397c0.713,1.507,1.095,3.149,1.119,4.815c0.015,0.423-0.02,0.847-0.1,1.263
	c-0.313,1.359,0.523,5.646,0.523,5.646l-9.723,0.94c0.034-0.513,0.176-1.011,0.418-1.463c0.329-0.657-1.01-3.307-1.611-4.42
	c-0.194-0.362-0.352-0.742-0.47-1.137c-0.463-1.541-1.533-5.36-0.952-5.942c0,0,0.631-3.03,1.463-3.03
	S235.908,586.198,235.908,586.198z"/>
<path fill="#C8B5AC" d="M235.908,585.884c0,0,3.136-0.523,3.974,1.463c0.351,0.835,0.74,1.688,1.072,2.399
	c0.713,1.506,1.095,3.147,1.119,4.814c0.015,0.423-0.02,0.847-0.1,1.263c-0.313,1.359,0.523,5.646,0.523,5.646l-9.723,0.939
	c0.034-0.511,0.176-1.01,0.418-1.463c0.329-0.656-1.01-3.306-1.611-4.419c-0.194-0.362-0.352-0.743-0.47-1.136
	c-0.463-1.542-1.533-5.362-0.952-5.944c0,0,0.631-3.029,1.463-3.029S235.908,585.884,235.908,585.884z"/>
<path fill="#C8B5AC" d="M232.562,586.615c0,0-0.209-1.15,0.313-1.359c0.522-0.21,2.613-0.522,2.613-0.522s0.631,1.463,1.255,1.463
	C237.367,586.196,232.562,586.615,232.562,586.615z"/>
<path opacity="0.1" enable-background="new    " d="M232.562,586.615c0,0-0.209-1.15,0.313-1.359
	c0.522-0.21,2.613-0.522,2.613-0.522s0.631,1.463,1.255,1.463C237.367,586.196,232.562,586.615,232.562,586.615z"/>
<path opacity="0.1" fill="#FFFFFF" enable-background="new    " d="M234.967,592.367c0,0-3.555-0.941-4.391-0.941
	s-2.509-0.209-2.509-0.209s-3.556-1.36-3.451-1.986c0.104-0.626-1.778-6.379-1.778-6.379s2.823-1.046,3.03-1.568
	c0,0,0.94,4.078,2.509,4.602c1.568,0.522,2.718,1.255,5.542,0.731c0.55-0.103,1.107-0.164,1.666-0.183
	c1.966-0.061,3.672,1.435,3.759,3.399C239.41,591.295,238.574,592.675,234.967,592.367z"/>
<path fill="#C8B5AC" d="M234.967,592.053c0,0-3.555-0.94-4.391-0.94s-2.51-0.205-2.51-0.205s-3.556-1.359-3.451-1.986
	c0.105-0.626-1.778-6.378-1.778-6.378s2.823-1.046,3.03-1.568c0,0,0.941,4.078,2.509,4.601c1.568,0.523,2.719,1.255,5.542,0.732
	c0.55-0.103,1.106-0.164,1.665-0.183c1.966-0.061,3.672,1.434,3.759,3.398C239.41,590.981,238.574,592.367,234.967,592.053z"/>
<path opacity="0.1" enable-background="new    " d="M231.748,580.311c0.207,0.326,0.544,0.592,0.929,0.615
	c0.202,0.012,0.413-0.042,0.602,0.03c0.182,0.084,0.319,0.241,0.379,0.433c0.233,0.617-0.016,1.38,0.354,1.926
	c0.252,0.37,0.711,0.522,1.119,0.705c-0.346,0.231-0.395,0.758-0.196,1.12c0.2,0.362,0.581,0.595,0.967,0.749
	c0.56,0.2,1.138,0.342,1.728,0.42c0.202,0.034,0.429,0.063,0.597-0.056c0.206-0.147,0.219-0.46,0.119-0.691
	c-0.101-0.232-0.287-0.415-0.431-0.624c-0.094-0.135-0.169-0.282-0.226-0.437c-0.028-0.064-0.04-0.134-0.034-0.204
	c0.038-0.118,0.117-0.218,0.222-0.283c0.333-0.276,0.583-0.641,0.721-1.051c0.104-0.354,0.163-0.718,0.175-1.086
	c0.073-1.027,0.094-2.103-0.337-3.038c-0.136-0.316-0.346-0.598-0.611-0.817c-0.181-0.132-0.375-0.243-0.579-0.334
	c-0.802-0.391-1.609-0.784-2.468-1.021c-0.86-0.235-1.784-0.31-2.64-0.061c-0.253,0.063-0.489,0.186-0.688,0.354
	c-0.163,0.15-0.278,0.347-0.442,0.495c-0.231,0.21-0.541,0.313-0.783,0.506c-0.452,0.368-0.59,1.01-0.573,1.589
	c0.006,0.253,0.096,0.567,0.345,0.598c0.412,0.051,0.588-0.643,0.993-0.728C231.494,579.32,231.546,579.997,231.748,580.311z"/>
<path fill="#D37F3F" d="M231.748,580.101c0.207,0.326,0.544,0.593,0.929,0.615c0.202,0.013,0.413-0.042,0.602,0.03
	c0.182,0.084,0.319,0.241,0.379,0.433c0.233,0.618-0.016,1.38,0.354,1.926c0.252,0.37,0.711,0.522,1.119,0.706
	c-0.346,0.23-0.395,0.757-0.196,1.119c0.2,0.362,0.581,0.595,0.967,0.749c0.56,0.2,1.138,0.342,1.728,0.421
	c0.202,0.034,0.429,0.063,0.597-0.056c0.206-0.147,0.219-0.46,0.119-0.692c-0.101-0.232-0.287-0.415-0.431-0.623
	c-0.094-0.136-0.169-0.283-0.226-0.438c-0.028-0.064-0.04-0.134-0.034-0.204c0.038-0.117,0.117-0.218,0.222-0.283
	c0.333-0.276,0.583-0.64,0.721-1.051c0.104-0.353,0.163-0.718,0.175-1.086c0.073-1.027,0.094-2.102-0.337-3.038
	c-0.136-0.316-0.346-0.598-0.611-0.817c-0.181-0.132-0.375-0.243-0.579-0.333c-0.802-0.392-1.609-0.784-2.468-1.021
	c-0.86-0.236-1.784-0.311-2.64-0.061c-0.253,0.063-0.489,0.185-0.688,0.354c-0.163,0.149-0.278,0.346-0.442,0.495
	c-0.231,0.209-0.541,0.312-0.783,0.505c-0.452,0.368-0.59,1.01-0.573,1.589c0.006,0.253,0.096,0.568,0.345,0.599
	c0.412,0.05,0.588-0.643,0.993-0.728C231.494,579.111,231.546,579.788,231.748,580.101z"/>
<path opacity="0.1" fill="#FFFFFF" enable-background="new    " d="M244.275,621.017c0,0-1.464,1.568-2.823,1.673l5.542,3.764
	c0,0,0.313,2.399-1.255,2.399s-1.463,1.156-1.463,1.156h7.633c0,0,0.94-1.673,0.209-2.614c-0.73-0.94-2.398-2.927-2.398-2.927
	s-2.719-3.662-3.241-5.647C246.468,618.821,245.371,620.233,244.275,621.017z"/>
<path fill="#74555E" d="M244.377,621.226c0,0-1.463,1.568-2.823,1.674l5.542,3.763c0,0,0.313,2.399-1.255,2.399
	c-1.568,0-1.463,1.151-1.463,1.151h7.633c0,0,0.94-1.674,0.209-2.614c-0.731-0.941-2.399-2.928-2.399-2.928
	s-2.718-3.662-3.241-5.647C246.573,619.03,245.476,620.441,244.377,621.226z"/>
<path fill="#2A2A31" d="M205.063,599.058l9.722,11.502c0,0,1.255,3.974-1.778,5.332l-1.255,1.463l-5.124-1.986
	c0,0,1.673-0.522,0-3.556c-1.673-3.032-4.81-6.061-4.81-6.061l-2.195-0.522l-5.542,8.992c0,0-0.631,3.974-3.136,4.497l-2.196,1.045
	l-3.03-2.399l7.005-14.951c0,0-1.046-7.323,1.882-8.261L205.063,599.058z"/>
<path opacity="0.1" enable-background="new    " d="M212.718,582.797c0.468,0.164,0.854,0.498,1.86-0.363
	c0,0,2.613,2.927,1.673,4.809c-0.94,1.881-10.456,13.069-10.456,13.069l-12.752-4.81c0,0,3.974-5.229,3.346-7.424
	c-0.628-2.195,4.601-9.934,8.365-9.41c3.764,0.522,4.706,0.836,4.706,0.836s0.548,2.829,2.497,3.115
	C212.215,582.655,212.47,582.715,212.718,582.797z"/>
<path fill="#2A2A31" d="M212.718,582.485c0.468,0.163,0.854,0.497,1.86-0.364c0,0,2.613,2.928,1.673,4.809
	s-10.456,13.069-10.456,13.069l-12.752-4.809c0,0,3.974-5.229,3.346-7.425c-0.628-2.195,4.601-9.934,8.365-9.41
	c3.764,0.522,4.706,0.836,4.706,0.836s0.548,2.829,2.497,3.115C212.215,582.342,212.47,582.402,212.718,582.485z"/>
<path fill="#2A2A31" d="M199.521,580.447c0,0,0.836,9.516,9.933,10.666l3.346-4.079c0,0-5.229-2.613-5.229-3.346
	c0,0-1.986-1.567-1.359-4.182L199.521,580.447z"/>
<path opacity="0.1" enable-background="new    " d="M214.578,582.33c0,0,4.391,2.301,3.869,5.542c0,0-2.091-1.36-3.241-1.046
	L214.578,582.33z"/>
<path fill="#757681" d="M214.578,582.121c0,0,4.391,2.3,3.869,5.542c0,0-2.091-1.36-3.241-1.047L214.578,582.121z"/>
<path opacity="0.1" enable-background="new    " d="M215.729,613.07c0,0-5.229,5.96-5.229,6.796c0,0-3.03,4.183-1.568,6.588
	s4.392,2.823,4.392,2.823s1.568,1.15-0.941,1.673c-2.509,0.523-10.456-1.255-10.456-1.255l1.673-4.293c0,0,1.777-5.437,1.777-6.587
	s1.464-4.801,1.464-4.801l5.332,1.673l1.673-2.199l1.198-1.045L215.729,613.07z"/>
<path fill="#535461" d="M215.729,613.279c0,0-5.229,5.96-5.229,6.796c0,0-3.03,4.182-1.568,6.587s4.392,2.823,4.392,2.823
	s1.568,1.15-0.941,1.673c-2.509,0.523-10.456-1.255-10.456-1.255l1.673-4.293c0,0,1.777-5.437,1.777-6.587
	c0-1.149,1.464-4.809,1.464-4.809l5.332,1.672l1.673-2.188l1.198-1.046L215.729,613.279z"/>
<path opacity="0.1" enable-background="new    " d="M195.025,615.789c0,0-5.229,5.959-5.229,6.797c0,0-3.031,4.182-1.568,6.587
	s4.392,2.823,4.392,2.823s1.568,1.15-0.941,1.673c-2.508,0.522-10.456-1.255-10.456-1.255l1.673-4.293c0,0,1.783-5.431,1.783-6.581
	s1.464-4.81,1.464-4.81l5.332,1.673l1.664-2.195l1.198-1.046L195.025,615.789z"/>
<path fill="#535461" d="M195.025,615.998c0,0-5.229,5.959-5.229,6.797c0,0-3.031,4.182-1.568,6.587
	c1.462,2.406,4.392,2.823,4.392,2.823s1.568,1.151-0.941,1.674c-2.508,0.522-10.456-1.256-10.456-1.256l1.673-4.292
	c0,0,1.783-5.431,1.783-6.582c0-1.149,1.464-4.809,1.464-4.809l5.332,1.673l1.664-2.199l1.198-1.046L195.025,615.998z"/>
<path fill="#FC6681" d="M221.897,587.349l19.444-31.062c0,0,1.464-0.313,1.255,0.941l-19.758,31.165L221.897,587.349z"/>
<path opacity="0.1" enable-background="new    " d="M207.572,579.401l-0.313,1.987c0,0-5.437-3.864-7.842,1.565l-1.045-4.392
	C198.371,578.562,205.585,576.261,207.572,579.401z"/>
<path fill="#757681" d="M207.572,579.192l-0.313,1.986c0,0-5.437-3.869-7.842,1.568l-1.045-4.392
	C198.371,578.355,205.585,576.055,207.572,579.192z"/>
<path opacity="0.1" enable-background="new    " d="M209.454,577.477v1.924l-1.883,0.941c-4.078-3.556-8.155-0.941-8.155-0.941
	s-5.959,9.516-7.005,10.354c-1.045,0.838-5.136,17.11-5.136,17.11l0.118-0.59c0,0,2.084-16.631,4.809-19.03
	c2.725-2.398,5.332-8.678,5.332-8.678c4.914-5.124,11.815-1.359,11.815-1.359S209.388,577.3,209.454,577.477z"/>
<path fill="#2A2A31" d="M209.454,577.272v1.924l-1.883,0.94c-4.078-3.556-8.155-0.94-8.155-0.94s-5.959,9.516-7.005,10.354
	c-1.045,0.839-5.136,17.11-5.136,17.11l0.118-0.59c0,0,2.084-16.63,4.809-19.036c2.725-2.405,5.332-8.678,5.332-8.678
	c4.914-5.123,11.815-1.359,11.815-1.359S209.388,577.092,209.454,577.272z"/>
<path opacity="0.1" enable-background="new    " d="M211.545,574.382c-0.682,0-1.294,0.31-1.825,0.758
	c0.361,2.356,2.33,4.135,4.711,4.254c0.964-0.884,2.651-1.249,2.651-1.249S214.055,574.382,211.545,574.382z"/>
<circle fill="#535461" cx="214.786" cy="574.174" r="5.019"/>
<path opacity="0.1" enable-background="new    " d="M217.819,568.422c0,0-3.974-2.398-6.169,0.836
	c-2.196,3.235-1.986,2.301-1.986,2.301l-4.293,3.03c0,0,3.556,0,5.751,0.836c0,0,6.587-3.869,7.737-1.359
	c0,0,1.255,0.522,1.36,1.359c0,0,0.313-0.522-0.313-1.673C219.906,573.755,221.169,570.722,217.819,568.422z"/>
<path fill="#535461" d="M217.819,568.213c0,0-3.974-2.399-6.169,0.836c-2.196,3.234-1.986,2.301-1.986,2.301l-4.293,3.03
	c0,0,3.556,0,5.751,0.835c0,0,6.587-3.868,7.737-1.359c0,0,1.255,0.522,1.36,1.359c0,0,0.313-0.522-0.313-1.673
	C219.906,573.546,221.169,570.513,217.819,568.213z"/>
<polygon fill="#9F9BAD" points="221.896,586.826 211.963,599.896 213.923,601.238 223.466,587.976 "/>
<path opacity="0.1" enable-background="new    " d="M211.755,586.094c0,0-3.241,2.928-3.031,6.378c0,0,2.399-0.836,5.751,0.419
	c3.353,1.253,4.079,1.882,4.079,1.882s3.451-1.778,3.136-3.03c-0.314-1.253-1.784-1.78-1.784-1.78l-2.928-0.632
	C216.979,589.331,212.173,586.929,211.755,586.094z"/>
<path fill="#757681" d="M211.963,586.094c0,0-3.241,2.928-3.03,6.378c0,0,2.399-0.836,5.751,0.419
	c3.353,1.253,4.079,1.882,4.079,1.882s3.451-1.778,3.136-3.03c-0.314-1.253-1.778-1.777-1.778-1.777l-2.928-0.632
	C217.193,589.333,212.382,586.929,211.963,586.094z"/>
<path opacity="0.1" enable-background="new    " d="M218.969,595.503c0,0,0.836,5.332-3.764,4.294c0,0-2.718-2.51-1.045-4.294
	S218.969,595.294,218.969,595.503z"/>
<path fill="#757681" d="M219.178,595.503c0,0,0.836,5.332-3.764,4.294c0,0-2.719-2.51-1.046-4.294
	C216.042,593.719,219.178,595.294,219.178,595.503z"/>
<path opacity="0.1" enable-background="new    " d="M241.498,596.084c0,0-0.104,1.673-0.836,2.091
	c-0.731,0.418-2.823,0.733-2.823,0.941s-0.836,1.15-1.045,0.836"/>
<path opacity="0.1" fill="#FFFFFF" enable-background="new    " d="M226.4,617.297c-0.631,0.018-1.264,0.003-1.894-0.043
	c0,0,4.391,8.783,3.451,10.038c0,0-0.418,1.883-2.196,1.883s-0.836,0.939-0.209,1.045c0.626,0.104,6.169,0.522,7.323-1.045
	l-0.732-2.51c0,0-0.94-3.03-0.631-3.764c0.31-0.733-0.209-6.902-0.209-6.902l-1.403,0.581
	C228.789,617.041,227.601,617.284,226.4,617.297z"/>
<path fill="#74555E" d="M226.4,617.609c-0.631,0.018-1.264,0.004-1.894-0.043c0,0,4.391,8.783,3.451,10.038
	c0,0-0.418,1.883-2.196,1.883s-0.836,0.94-0.209,1.045c0.626,0.104,6.169,0.522,7.323-1.045l-0.732-2.51c0,0-0.94-3.029-0.631-3.763
	c0.31-0.734-0.209-6.902-0.209-6.902l-1.403,0.581C228.789,617.352,227.601,617.595,226.4,617.609z"/>
<path fill="#FCCC63" d="M251,544.597c-0.148-0.064-0.225-0.23-0.178-0.385c0.003-0.013,0.005-0.023,0.006-0.036l0,0
	c0.005-0.088-0.063-0.164-0.151-0.169c-0.053-0.003-0.104,0.021-0.137,0.063l0,0c-0.007,0.01-0.013,0.021-0.018,0.031
	c-0.064,0.148-0.23,0.226-0.385,0.178c-0.011-0.003-0.023-0.005-0.036-0.006l0,0c-0.088-0.005-0.164,0.063-0.169,0.15
	c-0.003,0.054,0.021,0.105,0.063,0.138l0,0c0.01,0.007,0.021,0.013,0.032,0.018c0.149,0.063,0.227,0.228,0.182,0.382
	c-0.004,0.012-0.006,0.024-0.007,0.036l0,0c-0.005,0.088,0.063,0.164,0.151,0.169c0.053,0.003,0.104-0.021,0.137-0.063l0,0
	c0.007-0.01,0.013-0.021,0.018-0.031c0.064-0.148,0.23-0.225,0.385-0.179c0.012,0.004,0.023,0.007,0.035,0.007l0,0
	c0.088,0.005,0.165-0.063,0.169-0.15c0.003-0.054-0.021-0.105-0.063-0.138l0,0C251.024,544.606,251.013,544.601,251,544.597z"/>
<path fill="#FCCC63" d="M217.667,552.425c-0.148-0.064-0.225-0.23-0.178-0.386c0.003-0.011,0.005-0.022,0.006-0.035l0,0
	c0.005-0.088-0.062-0.164-0.151-0.169c-0.053-0.003-0.104,0.021-0.137,0.063l0,0c-0.007,0.01-0.013,0.021-0.018,0.031
	c-0.064,0.148-0.23,0.225-0.385,0.178c-0.012-0.003-0.023-0.005-0.036-0.006l0,0c-0.088-0.005-0.164,0.063-0.169,0.15
	c-0.003,0.054,0.021,0.105,0.063,0.138l0,0c0.01,0.007,0.021,0.013,0.032,0.018c0.148,0.064,0.225,0.23,0.178,0.385
	c-0.003,0.013-0.005,0.023-0.006,0.036l0,0c-0.005,0.088,0.062,0.164,0.15,0.169c0.054,0.003,0.105-0.021,0.137-0.063l0,0
	c0.007-0.01,0.013-0.021,0.018-0.031c0.065-0.148,0.23-0.226,0.385-0.178c0.012,0.003,0.023,0.005,0.035,0.006l0,0
	c0.089,0.005,0.164-0.063,0.169-0.151c0.003-0.053-0.021-0.104-0.063-0.137l0,0C217.688,552.436,217.678,552.43,217.667,552.425z"/>
<circle fill="#FCCC63" cx="261.408" cy="564.395" r="0.52"/>
<rect x="181.092" y="585.955" fill="#FCCC63" width="0.257" height="1.456"/>
<rect x="180.493" y="586.553" fill="#FCCC63" width="1.456" height="0.258"/>
<rect x="264.678" y="549.716" fill="#FCCC63" width="0.258" height="1.457"/>
<rect x="264.08" y="550.316" fill="#FCCC63" width="1.456" height="0.258"/>
<rect x="197.506" y="561.711" fill="#FCCC63" width="0.258" height="1.456"/>
<rect x="196.907" y="562.311" fill="#FCCC63" width="1.456" height="0.258"/>
<rect x="229.83" y="548.455" fill="#FCCC63" width="0.257" height="1.456"/>
<rect x="229.231" y="549.053" fill="#FCCC63" width="1.456" height="0.257"/>
<rect x="267.33" y="573.707" fill="#FCCC63" width="0.257" height="1.456"/>
<rect x="266.731" y="574.306" fill="#FCCC63" width="1.456" height="0.258"/>
<path fill="#FCCC63" d="M191.861,547.494c-0.146-0.063-0.222-0.226-0.176-0.379c0.003-0.012,0.006-0.023,0.006-0.035l0,0
	c0.009-0.087-0.055-0.164-0.141-0.173c-0.055-0.006-0.108,0.018-0.142,0.062l0,0c-0.007,0.01-0.013,0.021-0.018,0.032
	c-0.064,0.146-0.227,0.221-0.379,0.175c-0.012-0.003-0.023-0.006-0.036-0.006l0,0c-0.086-0.006-0.162,0.06-0.167,0.146
	c-0.004,0.054,0.02,0.105,0.063,0.137l0,0c0.01,0.008,0.021,0.014,0.032,0.019c0.146,0.063,0.221,0.226,0.175,0.379
	c-0.003,0.011-0.005,0.022-0.006,0.034l0,0c-0.006,0.088,0.06,0.163,0.147,0.169c0.054,0.003,0.105-0.021,0.137-0.063l0,0
	c0.007-0.01,0.013-0.021,0.018-0.031c0.063-0.146,0.227-0.222,0.379-0.176c0.011,0.003,0.023,0.005,0.035,0.007l0,0
	c0.087,0.006,0.162-0.061,0.168-0.147c0.003-0.054-0.021-0.105-0.063-0.138l0,0C191.883,547.5,191.872,547.497,191.861,547.494z"/>
<path fill="#FCCC63" d="M179.974,569.997c-0.146-0.063-0.221-0.227-0.175-0.379c0.003-0.012,0.005-0.023,0.006-0.036l0,0
	c0.006-0.087-0.06-0.162-0.147-0.168c-0.053-0.003-0.105,0.021-0.137,0.063l0,0c-0.007,0.011-0.013,0.021-0.018,0.032
	c-0.063,0.146-0.227,0.222-0.379,0.176c-0.012-0.004-0.023-0.007-0.036-0.007l0,0c-0.086-0.006-0.162,0.06-0.167,0.146
	c-0.004,0.054,0.02,0.105,0.063,0.137l0,0c0.01,0.008,0.021,0.014,0.032,0.019c0.146,0.063,0.221,0.227,0.175,0.379
	c-0.003,0.012-0.006,0.022-0.006,0.035l0,0c-0.006,0.087,0.06,0.162,0.147,0.168c0.054,0.004,0.105-0.021,0.137-0.063l0,0
	c0.007-0.01,0.013-0.021,0.018-0.032c0.063-0.146,0.227-0.221,0.379-0.175c0.011,0.003,0.023,0.005,0.035,0.006l0,0
	c0.087,0.006,0.162-0.061,0.168-0.147c0.003-0.054-0.021-0.105-0.063-0.137l0,0C179.996,570.006,179.985,570,179.974,569.997z"/>
<circle fill="#FCCC63" cx="166.787" cy="567.302" r="0.514"/>
<circle fill="#FCCC63" cx="174.721" cy="550.946" r="0.514"/>
<circle fill="#FCCC63" cx="263.616" cy="586.252" r="0.521"/>
<path fill="#323B44" d="M1156.285,420.153h-1.762v-3.423c0-3.863-3.08-7.075-6.943-7.133c-3.899-0.041-7.094,3.086-7.135,6.985
	c0,0.019,0,0.035,0,0.053v3.518h-1.759c-1.618,0.006-2.928,1.315-2.933,2.934v14.075c0.005,1.619,1.314,2.929,2.933,2.934h17.599
	c1.617-0.005,2.927-1.314,2.932-2.934v-14.075C1159.212,421.468,1157.902,420.159,1156.285,420.153z M1148.514,429.303v5.042
	c0.004,0.554-0.423,1.016-0.976,1.056c-0.567,0.026-1.05-0.412-1.075-0.979c-0.001-0.016-0.003-0.032-0.003-0.048v-5.072
	c-1.161-0.566-1.644-1.968-1.077-3.131c0.566-1.162,1.969-1.646,3.131-1.078c1.162,0.566,1.646,1.968,1.078,3.131
	c-0.229,0.47-0.608,0.848-1.078,1.078V429.303z M1152.473,420.153h-9.975v-3.518c0-2.754,2.231-4.985,4.984-4.985
	c2.755,0,4.987,2.231,4.987,4.985L1152.473,420.153z"/>
</svg>
