<?xml version="1.0" encoding="utf-8"?>
<!-- Generator: Adobe Illustrator 16.0.0, SVG Export Plug-In . SVG Version: 6.00 Build 0)  -->
<!DOCTYPE svg PUBLIC "-//W3C//DTD SVG 1.1//EN" "http://www.w3.org/Graphics/SVG/1.1/DTD/svg11.dtd">
<svg version="1.1" id="icon" xmlns="http://www.w3.org/2000/svg" xmlns:xlink="http://www.w3.org/1999/xlink" x="0px" y="0px"
	 width="651px" height="354.083px" viewBox="0 0 651 354.083" enable-background="new 0 0 651 354.083" xml:space="preserve">
<linearGradient id="B_1_" gradientUnits="userSpaceOnUse" x1="167.7178" y1="-88.1948" x2="622.988" y2="209.8006" gradientTransform="matrix(1 0 0 -1 -170.96 182.4229)">
	<stop  offset="0.0806" style="stop-color:#FFFFFF"/>
	<stop  offset="0.4086" style="stop-color:#FFFFFF"/>
	<stop  offset="1" style="stop-color:#FFFFFF"/>
</linearGradient>
<path id="B" fill="url(#B_1_)" d="M245.563,152.896c6.794-9.096,9.968-19.935,9.968-31.354c0-7.867-1.542-15.577-5.141-22.616
	c-13.833-27.064-51.378-32.807-78.71-32.807H90.243c-2.838,8.493-10.838,14.37-20.001,14.37c-11.643,0-21.074-9.432-21.074-21.075
	c0-11.644,9.432-21.074,21.074-21.074c7.956,0,15.152,4.47,18.728,11.397h82.71c34.215,0,76.207,8.313,93.281,41.746
	c4.782,9.341,6.928,19.577,6.928,30.058c0,15.666-4.716,30.549-14.459,42.774c1.117,2.593,1.698,5.408,1.698,8.269
	c0,1.9-0.269,3.8-0.76,5.631c17.208,13.565,25.499,33.254,25.499,55.268c0,12.715-2.771,25.074-9.387,36.047
	c-19.197,31.869-61.814,38.818-95.939,38.818h-45.054c-3.397,7.441-10.861,12.314-19.174,12.314
	c-11.644,0-21.074-9.432-21.074-21.074c0-11.621,9.431-21.074,21.074-21.074c8.783,0,16.56,5.453,19.667,13.475h44.562
	c27.6,0,66.239-4.85,81.927-30.906c5.052-8.381,7.04-17.879,7.04-27.6c0-16.939-6.033-31.98-19.309-42.439
	c-3.084,1.722-6.57,2.615-10.146,2.615c-11.644,0-21.075-9.432-21.075-21.075s9.432-21.074,21.075-21.074
	C240.624,151.51,243.171,151.979,245.563,152.896L245.563,152.896z M162.405,191.401l12.024-0.425c3.888,0,7.776,0.134,11.643,0.515
	c21.364,2.077,39.422,12.471,39.422,36.182c0,7.33-1.698,14.414-6.057,20.381c-9.922,13.588-29.455,15.957-45.008,15.957h-74.8
	c-3.486,7.195-10.838,11.91-18.996,11.91c-11.621,0-21.074-9.451-21.074-21.072c0-11.645,9.453-21.098,21.074-21.098
	c8.961,0,16.85,5.653,19.823,13.879h73.973c9.341,0,25.744-0.961,31.778-9.209c2.257-3.105,2.905-6.994,2.905-10.748
	c0-18.75-20.382-20.314-34.64-20.314l-11.799,0.424c-3.152,7.912-10.862,13.23-19.555,13.23c-11.643,0-21.074-9.43-21.074-21.074
	s9.431-21.074,21.074-21.074C151.544,178.864,159.053,183.87,162.405,191.401L162.405,191.401z M129.375,94.098h35.466
	c4.068,0,8.158,0.156,12.203,0.626c19.845,2.256,36.472,12.448,36.472,34.349c0,8.716-2.838,16.761-9.029,23.018
	c-10.123,10.236-25.924,12.292-39.645,12.292H95.429c-3.173,7.889-10.883,13.208-19.555,13.208
	c-11.644,0-21.074-9.431-21.074-21.074c0-11.644,9.431-21.074,21.074-21.074c8.425,0,15.956,5.006,19.286,12.559h69.681
	c13.119,0,32.293-1.765,32.293-18.929c0-17.097-19.331-18.616-32.293-18.616H129.33c-3.263,7.71-10.861,12.85-19.398,12.85
	c-11.643,0-21.096-9.431-21.096-21.074c0-11.644,9.453-21.075,21.096-21.075C118.491,81.158,126.134,86.343,129.375,94.098
	L129.375,94.098z"/>
<linearGradient id="C_1_" gradientUnits="userSpaceOnUse" x1="466.0615" y1="-114.2607" x2="950.4792" y2="202.813" gradientTransform="matrix(1 0 0 -1 -170.96 182.4229)">
	<stop  offset="0.0806" style="stop-color:#FFFFFF"/>
	<stop  offset="0.4086" style="stop-color:#FFFFFF"/>
	<stop  offset="1" style="stop-color:#FFFFFF"/>
</linearGradient>
<path id="C" fill="url(#C_1_)" d="M367.907,177.982c0.124,12.282,3.587,23.121,10.639,31.442
	c7.275,8.57,18.561,14.748,34.158,17.391c5.48,0.92,11.56,1.419,18.237,1.419h151.204h16.991l-10.389,13.431l-47.936,61.887
	l-2.515,3.266h-4.062H404.108c-2.89,4.98-8.272,8.346-14.45,8.346c-9.218,0-16.693-7.475-16.693-16.693s7.475-16.692,16.693-16.692
	c6.178,0,11.56,3.363,14.45,8.347h126.066l35.005-45.193H430.94c-7.499,0-14.476-0.6-20.979-1.695
	c-19.757-3.339-34.357-11.533-44.123-23.045c-9.866-11.658-14.625-26.434-14.625-42.902v-0.772
	c-4.286-3.015-7.076-7.997-7.076-13.653c0-9.218,7.475-16.667,16.693-16.667c9.219,0,16.667,7.449,16.667,16.667
	C377.499,169.536,373.587,175.316,367.907,177.982L367.907,177.982z M548.836,75.783c9.218,0,16.692,7.45,16.692,16.668
	c0,9.218-7.475,16.692-16.692,16.692c-0.998,0-1.97-0.075-2.916-0.249l-13.055,16.892l-2.466,3.189L526.313,129
	c-35.479,0.199-10.839,0.298-38.318,0.298c-25.414,0-54.189-0.073-86.429-0.249c-14.6,0-20.031,1.794-23.394,7.749h-18.063
	c4.56-13.902,18.91-24.292,32.712-24.292c4.261-0.597,11.984-0.075,16.594-0.05c23.543,0.1,49.753,0.149,78.58,0.149
	c33.684,0,7.723-0.075,34.181-0.199l10.988-14.201c-0.646-1.794-1.021-3.712-1.021-5.755
	C532.143,83.233,539.617,75.783,548.836,75.783L548.836,75.783z M430.716,41.849c6.179,0,11.585,3.364,14.451,8.347h82.217h16.966
	l-10.363,13.429l-23.943,30.943l-2.465,3.214l-4.087,0.025c-35.453,0.174,4.81,0.274-22.672,0.274
	c-27.133,0-58.15-0.075-93.104-0.274c-17.241,5.307-31.766,15.871-42.056,29.623c-10.488,14.001-16.567,31.343-16.567,49.829
	c0,20.878,7.922,42.281,21.525,58c12.083,13.902,28.626,23.271,47.985,23.445c19.209,0.174,38.418,0.273,57.602,0.25
	c14.352,0,28.7-0.076,43.102-0.227c2.865-5.105,8.296-8.545,14.551-8.545c9.219,0,16.691,7.475,16.691,16.691
	c0,9.219-7.474,16.692-16.691,16.692c-6.104,0-11.461-3.313-14.375-8.222c-14.401,0.15-28.826,0.226-43.277,0.226
	c-19.259,0.024-38.518-0.075-57.726-0.249c-24.591-0.227-45.419-11.859-60.443-29.176c-16.195-18.711-25.636-44.146-25.636-68.888
	c0-22.099,7.325-42.927,19.956-59.819c12.607-16.842,30.544-29.723,51.772-35.952l2.392-0.323
	c27.43,0.174,58.898,0.249,94.301,0.249c33.684,0-7.924-0.074,18.536-0.224l11.062-14.301h-65.25
	c-2.866,4.984-8.272,8.347-14.451,8.347c-9.193,0-16.668-7.475-16.668-16.693C414.048,49.325,421.522,41.849,430.716,41.849
	L430.716,41.849z"/>
</svg>
