<?xml version="1.0" encoding="utf-8"?>
<!-- Generator: Adobe Illustrator 16.0.3, SVG Export Plug-In . SVG Version: 6.00 Build 0)  -->
<!DOCTYPE svg PUBLIC "-//W3C//DTD SVG 1.1//EN" "http://www.w3.org/Graphics/SVG/1.1/DTD/svg11.dtd">
<svg version="1.1" id="_x39_b8dff4b-368a-4ab8-bc0b-59c96572f6a5"
	 xmlns="http://www.w3.org/2000/svg" xmlns:xlink="http://www.w3.org/1999/xlink" x="0px" y="0px" width="1288px" height="711.86px"
	 viewBox="-405 0 1288 711.86" enable-background="new -405 0 1288 711.86" xml:space="preserve">
<title>air support</title>
<path fill="#F2F2F2" d="M646.3,24.91h180.94c5.5,0,9.96,4.459,9.96,9.96v1.77c0,5.5-4.46,9.96-9.96,9.96H646.3
	c-5.501,0-9.96-4.459-9.96-9.96v-1.77C636.34,29.369,640.799,24.91,646.3,24.91z"/>
<path fill="#F2F2F2" d="M691.29,43.39h180.94c5.5,0,9.959,4.459,9.959,9.96v1.77c0,5.5-4.459,9.96-9.959,9.96H691.29
	c-5.501,0-9.96-4.459-9.96-9.96v-1.77C681.33,47.849,685.789,43.39,691.29,43.39z"/>
<path fill="#F2F2F2" d="M614.96,59.46H795.9c5.5,0,9.96,4.459,9.96,9.96v1.77c0,5.501-4.46,9.96-9.96,9.96H614.96
	c-5.501,0-9.96-4.459-9.96-9.96v-1.77C605,63.919,609.459,59.46,614.96,59.46z"/>
<path fill="#F2F2F2" d="M142.42,273.18h180.94c5.5,0,9.96,4.459,9.96,9.96v1.77c0,5.5-4.46,9.96-9.96,9.96H142.42
	c-5.5,0-9.96-4.459-9.96-9.96v-1.77C132.46,277.639,136.919,273.18,142.42,273.18z"/>
<path fill="#F2F2F2" d="M187.41,291.66H368.35c5.501,0,9.96,4.459,9.96,9.96v1.77c0,5.5-4.459,9.96-9.96,9.96H187.41
	c-5.501,0-9.96-4.459-9.96-9.96v-1.77C177.45,296.119,181.909,291.66,187.41,291.66z"/>
<path fill="#F2F2F2" d="M111.08,307.72H292.02c5.501,0,9.961,4.459,9.961,9.96v1.77c0,5.5-4.46,9.96-9.961,9.96H111.08
	c-5.501,0-9.96-4.459-9.96-9.96v-1.77C101.12,312.179,105.579,307.72,111.08,307.72z"/>
<g opacity="0.5">
	
		<linearGradient id="SVGID_1_" gradientUnits="userSpaceOnUse" x1="397.6201" y1="-11.6279" x2="397.6201" y2="161.4404" gradientTransform="matrix(1 0 0 -1 43.8398 697.8311)">
		<stop  offset="0" style="stop-color:#808080;stop-opacity:0.25"/>
		<stop  offset="0.54" style="stop-color:#808080;stop-opacity:0.12"/>
		<stop  offset="1" style="stop-color:#808080;stop-opacity:0.1"/>
	</linearGradient>
	<path fill="url(#SVGID_1_)" d="M852.5,686.151c-4.82,0-115.7,48.209-244.25-78.74c-69.81-68.932-138.19-76.271-186.11-68.58
		c-29.449,4.719-56.34,19.1-77.64,39.93c-17.13,16.82-58.59,39.74-155.73,33.48C39.33,602.6-0.04,709.459-0.04,709.459h883
		C882.96,709.459,857.29,686.151,852.5,686.151z"/>
</g>
<path fill="#F2F2F2" d="M-398,711.86c0,0,57.117-106.859,273.918-97.221c140.927,6.291,201.09-16.66,225.869-33.469
	c30.843-20.871,69.839-35.211,112.521-39.93c69.522-7.691,168.739-0.352,270.002,68.58
	c186.495,126.949,347.355,78.738,354.349,78.738s44.292,23.301,44.292,23.301H-398z"/>
<path opacity="0.02" enable-background="new    " d="M-401,711.86c0,0,57.25-106.859,274.56-97.221
	c141.257,6.291,201.561-16.66,226.398-33.469c30.915-20.871,70.002-35.211,112.784-39.93c69.685-7.691,169.134-0.352,270.634,68.58
	c186.932,126.949,348.169,78.738,355.179,78.738c7.009,0,44.396,23.301,44.396,23.301H-401z"/>
<path fill="#F2F2F2" d="M-288.45,123.73h180.94c5.5,0,9.96,4.459,9.96,9.96v1.77c0,5.501-4.459,9.96-9.96,9.96h-180.94
	c-5.5,0-9.96-4.459-9.96-9.96v-1.77C-298.41,128.189-293.951,123.73-288.45,123.73z"/>
<path fill="#F2F2F2" d="M-243.45,142.21h180.94c5.501,0,9.96,4.459,9.96,9.96v1.77c0,5.501-4.459,9.96-9.96,9.96h-180.94
	c-5.5,0-9.96-4.459-9.96-9.96v-1.77C-253.41,146.669-248.951,142.21-243.45,142.21z"/>
<path fill="#F2F2F2" d="M-319.78,158.28h180.94c5.5,0,9.96,4.459,9.96,9.96v1.77c0,5.501-4.459,9.96-9.96,9.96h-180.94
	c-5.501,0-9.96-4.459-9.96-9.96v-1.77C-329.74,162.739-325.281,158.28-319.78,158.28z"/>
<g opacity="0.5">
	
		<linearGradient id="SVGID_2_" gradientUnits="userSpaceOnUse" x1="-393.0806" y1="629.5991" x2="-393.0806" y2="791.8989" gradientTransform="matrix(1 0 0 -1 202.3398 791.8994)">
		<stop  offset="0" style="stop-color:#808080;stop-opacity:0.25"/>
		<stop  offset="0.54" style="stop-color:#808080;stop-opacity:0.12"/>
		<stop  offset="1" style="stop-color:#808080;stop-opacity:0.1"/>
	</linearGradient>
	<circle fill="url(#SVGID_2_)" cx="-190.74" cy="81.15" r="81.15"/>
</g>
<circle fill="#FCCC63" cx="-190.74" cy="81.15" r="72.31"/>
<rect x="-239.02" y="590.629" fill="#6C63FF" width="62.9" height="46.73"/>
<path fill="#6C63FF" d="M-244.5,588.729l35.15-35.148c1.069-1.072,2.804-1.074,3.875-0.006c0.001,0.002,0.003,0.004,0.005,0.006
	l34.87,34.869c1.072,1.068,1.074,2.805,0.005,3.875c-0.513,0.514-1.209,0.805-1.935,0.805l-70,0.281
	c-1.513,0.02-2.756-1.191-2.775-2.705C-245.314,589.965-245.024,589.252-244.5,588.729z"/>
<path opacity="0.05" enable-background="new    " d="M-244.5,588.729l35.15-35.148c1.069-1.072,2.804-1.074,3.875-0.006
	c0.001,0.002,0.003,0.004,0.005,0.006l34.87,34.869c1.072,1.068,1.074,2.805,0.005,3.875c-0.513,0.514-1.209,0.805-1.935,0.805
	l-70,0.281c-1.513,0.02-2.756-1.191-2.775-2.705C-245.314,589.965-245.024,589.252-244.5,588.729z"/>
<path fill="#FFFFFF" d="M-208.38,616.28h1.26c3.921,0,7.1,3.18,7.1,7.1v14l0,0h-15.46l0,0v-14
	C-215.48,619.459-212.301,616.28-208.38,616.28z"/>
<circle fill="#FFFFFF" cx="-207.4" cy="562.169" r="3.87"/>
<rect x="-234.1" y="596.6" fill="#FFFFFF" width="14.76" height="11.24"/>
<rect x="-227.43" y="596.6" fill="#6C63FF" width="1.41" height="11.24"/>
<rect x="-194.75" y="596.6" fill="#FFFFFF" width="14.76" height="11.24"/>
<rect x="-188.07" y="596.6" fill="#6C63FF" width="1.41" height="11.24"/>
<g opacity="0.2">
	
		<linearGradient id="SVGID_3_" gradientUnits="userSpaceOnUse" x1="2724.3691" y1="31.6411" x2="2724.3691" y2="31.6812" gradientTransform="matrix(1 0 0 -1 -1973.0918 697.8311)">
		<stop  offset="0" style="stop-color:#808080;stop-opacity:0.25"/>
		<stop  offset="0.54" style="stop-color:#808080;stop-opacity:0.12"/>
		<stop  offset="1" style="stop-color:#808080;stop-opacity:0.1"/>
	</linearGradient>
	<path fill="url(#SVGID_3_)" d="M751.248,666.151L751.248,666.151C751.248,666.151,751.378,666.12,751.248,666.151z"/>
</g>
<g opacity="0.2">
	
		<linearGradient id="SVGID_4_" gradientUnits="userSpaceOnUse" x1="2719.0713" y1="2.6006" x2="2719.0713" y2="32.4711" gradientTransform="matrix(1 0 0 -1 -1973.0918 697.8311)">
		<stop  offset="0" style="stop-color:#808080;stop-opacity:0.25"/>
		<stop  offset="0.54" style="stop-color:#808080;stop-opacity:0.12"/>
		<stop  offset="1" style="stop-color:#808080;stop-opacity:0.1"/>
	</linearGradient>
	<path fill="url(#SVGID_4_)" d="M749.738,695.231l2.81-0.461l-0.39-1.73l0,0l0,0l0,0l-2-9.16v-6.68c0.004-0.082,0.004-0.166,0-0.25
		c2.94-3.959,1.16-10.16,1-10.699l-0.14,0.059c-0.023-0.24-0.07-0.479-0.141-0.709c0,0-0.87-0.551-1.34,0.16
		c-0.275,0.307-0.275,0.771,0,1.08h-0.06c0.131,0.207,0.223,0.438,0.27,0.68l-0.09-0.17h-0.18l0,0h-0.061
		c0.327,0.66,0.463,1.396,0.391,2.131c-0.102-0.145-0.216-0.277-0.341-0.4c-0.541-0.516-1.253-0.814-2-0.84h-0.529h-0.11h-0.08
		h-0.14h-0.05l-0.171,0.059c-0.188,0.094-0.386,0.168-0.59,0.221h-0.08c-0.23,0.018-0.46-0.047-0.649-0.18h-0.061l-0.069-0.061
		c-0.015,0.063-0.015,0.127,0,0.189c0.013,0.152,0.085,0.291,0.199,0.391l0.11,0.07c-0.343,0.125-0.52,0.502-0.395,0.846
		c0.124,0.342,0.502,0.518,0.845,0.395l0,0l-0.12,0.049l0,0h-0.13l0,0h-0.29c-0.136,0.02-0.274,0.02-0.41,0l0,0h-0.07h-0.109v0.08
		l0,0l0,0l0,0l0,0l0,0l0,0l0,0l0.06,0.051l0,0l0,0l0,0l0,0l0,0l0,0l0,0l0,0h0.061h0.34c0.089-0.006,0.177-0.027,0.26-0.061
		l-0.16,0.07l0,0h-0.08h-0.08h-0.079h-0.08h-0.08h-0.091h-0.079h-0.091h-0.59c0.096,0.029,0.184,0.076,0.26,0.141
		c0.05,0.037,0.104,0.066,0.16,0.09h0.08h0.39c0.158,0.014,0.313,0.063,0.45,0.141c0.072,0.045,0.137,0.104,0.19,0.17l-0.07,0.119
		l-0.05,0.109c-0.06,0.074-0.09,0.146-0.09,0.221c-0.1,0.27-0.15,0.553-0.15,0.84c0,0.061,0,0.109,0,0.16l0,0
		c0,0.039,0,0.119,0,0.119l0,0v0.15l0,0v0.121l0,0c0.03,0.098,0.067,0.195,0.11,0.289l0,0l0.06,0.131l0,0l0.08,0.139l0,0l0.08,0.121
		l0,0c0.062,0.084,0.128,0.164,0.2,0.24l0,0c0.188,0.197,0.407,0.363,0.65,0.49c-0.002,0.035-0.002,0.072,0,0.109l0,0
		c-0.003,0.039-0.003,0.08,0,0.119v0.91l-0.15,0.09c-2.16-1-5.39-8-5.39-8h-0.08c0.31-0.26,0-1.26,0-1.26
		c-0.187-0.109-0.395-0.178-0.61-0.199h-0.33h-0.05l0,0l0,0l0,0l0,0l0,0l0,0l0,0l0,0l0,0l0,0l0,0l0,0l0,0v0.059
		c-0.47,0.711,0,1.102,0,1.102c-0.017,0.271-0.017,0.547,0,0.818c-0.04,5.102,5.41,9.041,5.689,9.24
		c-0.723,2.158-0.723,4.492,0,6.65l0,0c-2.658,2.451-3.822,6.125-3.06,9.66v0.109h-0.09v0.07l-0.05,0.121
		c-0.036,0.068-0.079,0.131-0.13,0.189l0,0l-0.181,0.189l-0.069,0.07c-0.28,0.26-0.561,0.52-0.351,0.621h3v-1.301h0.05l-0.05-0.121
		l0,0l0,0c-0.37-1.156-0.349-2.404,0.061-3.549c0.71-2.359,3.46-3.541,3.46-3.541l0.05,0.17l0,0l2.16,7.092c0,0.029,0,0.09,0,0.09
		c0.006,0.066,0.006,0.133,0,0.199l-0.061,0.15c-0.13,0.279-0.36,0.6-0.46,0.84v0.1c-0.008,0.039-0.008,0.08,0,0.121
		c0.004,0.053,0.039,0.1,0.09,0.119h0.12L749.738,695.231z M749.308,673.54c-0.119,0.541-0.229,1.041-0.359,1.471l-0.17-0.08v-0.871
		c0.005-0.063,0.005-0.125,0-0.189c0.187-0.088,0.361-0.197,0.52-0.33H749.308z"/>
</g>
<path fill="#CA7070" d="M741.068,667.86c0.35-0.26,0-1.391,0-1.391s-0.96-0.609-1.48,0.17c-0.52,0.781,0,1.221,0,1.221
	S740.718,668.12,741.068,667.86z"/>
<path id="_x33_9458adb-bcd5-4769-9abe-182f7ae0ca71" fill="#00695C" d="M744.968,698.639h-3.3c-0.33-0.18,0.35-0.629,0.67-1
	c0.164-0.162,0.248-0.389,0.23-0.619h2.399V698.639z"/>
<path opacity="0.2" fill="#FFFFFF" enable-background="new    " d="M741.848,698.639h-0.17c-0.33-0.18,0.351-0.629,0.67-1
	c0.164-0.162,0.248-0.389,0.23-0.619h0.17c0.018,0.23-0.066,0.457-0.23,0.619C742.198,698.01,741.548,698.459,741.848,698.639z"/>
<path id="_x32_4b3a5d5-99f8-4317-aac1-7589e0408752" fill="#00695C" d="M753.928,698.5l-3.25,0.529
	c-0.33-0.141,0.221-0.801,0.471-1.311c0.126-0.242,0.161-0.521,0.1-0.789l2.28-0.4L753.928,698.5z"/>
<path fill="#00695C" d="M750.558,667.469c1.431,2.08-1.119,10.932-1.119,10.932l1.25,1c4.31-4.49,1.739-12.602,1.739-12.602
	S753.078,666.68,750.558,667.469z"/>
<path fill="#CA7070" d="M752.128,667.51c0.351-0.26,0-1.391,0-1.391s-0.96-0.609-1.479,0.17c-0.521,0.781,0,1.221,0,1.221
	S751.778,667.77,752.128,667.51z"/>
<path opacity="0.2" fill="#FFFFFF" enable-background="new    " d="M750.818,699.03h-0.141c-0.33-0.141,0.221-0.801,0.471-1.311
	c0.126-0.242,0.161-0.521,0.1-0.789l2.28-0.381l0,0l-2.08,0.34c0.062,0.268,0.026,0.547-0.101,0.791
	C751.108,698.17,750.598,698.79,750.818,699.03z"/>
<path fill="#CA7070" d="M747.288,676.85v-1.381c0-0.617,0.501-1.119,1.12-1.119h0.2c0.618,0,1.12,0.502,1.12,1.119v1.381
	c0,0.619-0.502,1.119-1.12,1.119h-0.2C747.789,677.969,747.288,677.469,747.288,676.85z"/>
<path opacity="0.2" fill="#FFFFFF" enable-background="new    " d="M750.748,679.85l-0.11,0.119l-1.25-1c0,0,2.551-8.85,1.12-10.93
	h0.061l0,0h0.199c1.37,2.15-1.149,10.891-1.149,10.891L750.748,679.85z"/>
<circle fill="#CA7070" cx="748.558" cy="672.92" r="2.7"/>
<path opacity="0.2" fill="#FFFFFF" enable-background="new    " d="M748.658,677.969h-0.15c-0.674,0-1.22-0.545-1.22-1.219v-1.18
	c-0.01-0.088-0.01-0.174,0-0.262c-0.899-0.463-1.464-1.391-1.463-2.402c0.001-1.49,1.212-2.699,2.703-2.697h0.149
	c-0.959,0.053-1.817,0.611-2.255,1.467c-0.679,1.328-0.152,2.955,1.175,3.633c-0.009,0.088-0.009,0.174,0,0.262v1.18
	C747.593,677.366,748.047,677.889,748.658,677.969z"/>
<path fill="#00695C" d="M751.298,678.969L751.298,678.969c0-1.49-1.209-2.699-2.7-2.699l0,0l0,0c-1.491,0-2.699,1.209-2.699,2.699
	c-0.816,2.404-0.816,5.008,0,7.41c0.189,0.59,5.399,0,5.399,0V678.969z"/>
<path fill="#263238" d="M745.918,686.379L745.918,686.379c-2.967,2.697-4.271,6.771-3.42,10.691v0.119h2.53
	c-0.503-1.316-0.503-2.773,0-4.09c0.83-2.609,3.83-3.92,3.83-3.92l2.439,8h2.351l-2.351-10.801"/>
<path opacity="0.2" fill="#FFFFFF" enable-background="new    " d="M747.578,686.651c-0.89,0.01-1.6-0.051-1.67-0.262
	c-0.816-2.402-0.816-5.006,0-7.408l0,0c0-1.492,1.209-2.701,2.7-2.701h0.17c-1.421,0.09-2.528,1.268-2.53,2.689
	c-0.816,2.404-0.816,5.008,0,7.41C746.248,686.559,746.808,686.629,747.578,686.651z"/>
<path fill="#00695C" d="M747.288,676.76c-2.39-0.791-6.14-8.891-6.14-8.891h-1.561c-0.729,6.18,6.271,11.061,6.271,11.061
	S749.678,677.549,747.288,676.76z"/>
<g opacity="0.2">
	<path fill="#FFFFFF" d="M749.208,689.219l2.44,8h-0.351l-2.39-7.869L749.208,689.219z"/>
	<path fill="#FFFFFF" d="M742.828,697.11v0.119h-0.35v-0.119c-0.851-3.918,0.453-7.992,3.42-10.689h0.35
		C743.281,689.118,741.978,693.192,742.828,697.11z"/>
</g>
<path opacity="0.2" fill="#FFFFFF" enable-background="new    " d="M746.028,678.92l-0.17,0.07c0,0-6.971-4.871-6.271-11.061h0.26
	C739.198,673.719,745.248,678.35,746.028,678.92z"/>
<path fill="#263238" d="M745.498,671.11c-0.173,0.016-0.347,0.016-0.52,0c-0.141-0.039-0.36-0.25-0.471-0.25
	c0.537,0.008,1.069-0.102,1.561-0.32c-0.533,0.207-1.136-0.033-1.38-0.549c0.422,0.148,0.886,0.123,1.29-0.07
	c-0.064,0-0.128-0.008-0.188-0.027c-0.315-0.1-0.491-0.438-0.392-0.754c0.256,0.271,0.634,0.393,1,0.32
	c0.228-0.055,0.449-0.137,0.659-0.24c1.195-0.438,2.535-0.154,3.45,0.73c0.896,0.902,1.273,2.199,1,3.439
	c-0.076,0.412-0.267,0.793-0.55,1.102c-0.494,0.424-1.144,0.619-1.79,0.539c-0.424-0.016-0.838-0.127-1.21-0.33
	c-0.652-0.439-1.1-1.125-1.24-1.9c-0.057-0.375-0.16-0.74-0.31-1.09C746.25,671.348,745.894,671.112,745.498,671.11z"/>
<g opacity="0.2">
	<path fill="#FFFFFF" d="M745.89,669.903c-0.315-0.1-0.491-0.438-0.392-0.752l0.14,0.119c-0.001,0.018-0.002,0.035-0.002,0.053
		c0.001,0.336,0.275,0.607,0.612,0.607c-0.262,0.125-0.551,0.18-0.84,0.16c0.222-0.01,0.439-0.064,0.64-0.16
		C745.994,669.928,745.941,669.918,745.89,669.903z"/>
	<path fill="#FFFFFF" d="M746.288,669.459h0.09c0.228-0.057,0.449-0.137,0.66-0.24c0.385-0.152,0.797-0.223,1.21-0.209
		c-0.343,0.012-0.682,0.084-1,0.209c-0.211,0.104-0.432,0.184-0.66,0.24C746.488,669.475,746.388,669.475,746.288,669.459z"/>
	<path fill="#FFFFFF" d="M745.428,671.1c-0.119,0.02-0.24,0.02-0.359,0c-0.141-0.041-0.36-0.25-0.471-0.25
		c0.475,0.01,0.947-0.072,1.391-0.24c0.12-0.002,0.238-0.025,0.35-0.07c-0.49,0.219-1.022,0.328-1.56,0.32
		c0.109,0,0.33,0.25,0.47,0.25L745.428,671.1z"/>
	<path fill="#FFFFFF" d="M749.178,675.03c-0.423-0.016-0.837-0.127-1.21-0.33c-0.652-0.439-1.1-1.125-1.239-1.9
		c-0.057-0.375-0.161-0.74-0.311-1.09c-0.16-0.328-0.485-0.541-0.85-0.561h0.17c0.364,0.02,0.689,0.232,0.85,0.561
		c0.149,0.35,0.254,0.715,0.311,1.09c0.14,0.775,0.587,1.461,1.239,1.9c0.373,0.203,0.787,0.314,1.21,0.33H749.178z"/>
	<path fill="#FFFFFF" d="M744.748,669.991l0.2,0.059c0.18,0.33,0.516,0.545,0.89,0.57
		C745.379,670.659,744.943,670.407,744.748,669.991z"/>
</g>
<path opacity="0.2" fill="#FFFFFF" enable-background="new    " d="M740.588,667.969c-0.336,0-0.671-0.037-1-0.109
	c0,0-0.52-0.439,0-1.221c0.173-0.281,0.492-0.436,0.82-0.398c-0.269,0.02-0.512,0.168-0.65,0.398c-0.52,0.781,0,1.221,0,1.221
	C740.031,667.918,740.309,667.956,740.588,667.969z"/>
<path fill="#FF5252" d="M725.968,658.821c1.431,2.08-1.12,10.93-1.12,10.93l1.25,1c4.311-4.49,1.74-12.6,1.74-12.6
	S728.488,658.03,725.968,658.821z"/>
<path fill="#F6B9AD" d="M727.538,658.87c0.35-0.26,0-1.389,0-1.389s-0.96-0.611-1.48,0.17c-0.52,0.779,0,1.219,0,1.219
	S727.188,659.129,727.538,658.87z"/>
<path fill="#F6B9AD" d="M722.698,668.209v-1.379c0-0.619,0.501-1.121,1.12-1.121h0.199c0.619,0,1.12,0.502,1.12,1.121v1.379
	c0,0.619-0.501,1.121-1.12,1.121h-0.199C723.199,669.331,722.698,668.829,722.698,668.209z"/>
<path opacity="0.2" fill="#FFFFFF" enable-background="new    " d="M726.158,671.241l-0.11,0.119l-1.25-1c0,0,2.55-8.85,1.12-10.93
	h0.061l0,0h0.199c1.37,2.15-1.149,10.891-1.149,10.891L726.158,671.241z"/>
<circle fill="#F6B9AD" cx="723.968" cy="664.27" r="2.7"/>
<path opacity="0.2" fill="#FFFFFF" enable-background="new    " d="M724.068,669.331h-0.15c-0.674,0-1.22-0.547-1.22-1.221v-1.18
	c-0.01-0.086-0.01-0.174,0-0.26c-0.899-0.465-1.464-1.391-1.463-2.404c0.001-1.49,1.212-2.697,2.703-2.695h0.149
	c-0.959,0.053-1.817,0.611-2.255,1.467c-0.679,1.326-0.152,2.953,1.175,3.633c-0.009,0.086-0.009,0.174,0,0.26v1.17
	C722.998,668.719,723.453,669.249,724.068,669.331z"/>
<path fill="#FF5252" d="M726.708,670.29L726.708,670.29c0-1.49-1.209-2.699-2.7-2.699l0,0l0,0c-1.491,0-2.7,1.209-2.7,2.699
	c-0.366,0.793-0.286,1.721,0.21,2.439c0.79,1-0.829,3.102-0.21,5c0.19,0.592,5.4,0,5.4,0V670.29z"/>
<path opacity="0.2" fill="#FFFFFF" enable-background="new    " d="M721.288,677.76c0.07,0.209,0.78,0.26,1.66,0.26
	c-0.71-0.01-1.25-0.08-1.311-0.26c-0.62-1.939,1.051-4,0.21-5c-0.496-0.719-0.576-1.646-0.21-2.439
	c0.003-1.424,1.109-2.602,2.53-2.691h-0.17l0,0c-1.491,0-2.7,1.209-2.7,2.701c-0.366,0.793-0.286,1.721,0.21,2.439
	C722.348,673.77,720.678,675.831,721.288,677.76z"/>
<path fill="#F6B9AD" d="M725.868,677.559l1.51,10.801h-1.51l-1.57-8c-1.275,0.959-2.152,2.354-2.46,3.92
	c-0.325,1.344-0.325,2.746,0,4.09h-1.62v-0.119c-0.591-3.713,0.191-7.514,2.2-10.691l0,0H725.868z"/>
<path fill="#F6B9AD" d="M714.658,661.581c0.26-0.33-0.41-1.33-0.41-1.33s-1.09-0.311-1.36,0.6c-0.27,0.91,0.36,1.17,0.36,1.17
	S714.398,661.911,714.658,661.581z"/>
<path fill="#FF5252" d="M723.238,668.26c-2.48-0.051-8.48-6.701-8.48-6.701l-1.5,0.461c1.15,6.119,9.24,8.74,9.24,8.74
	S725.718,668.309,723.238,668.26z"/>
<path opacity="0.2" fill="#FFFFFF" enable-background="new    " d="M722.668,670.741l-0.14,0.109c0,0-8.09-2.621-9.24-8.74
	l0.25-0.08C714.608,667.741,721.718,670.401,722.668,670.741z"/>
<g opacity="0.2">
	<path fill="#FFFFFF" d="M724.368,680.571l1.52,7.779h0.351l-1.57-8C724.564,680.418,724.465,680.491,724.368,680.571z"/>
	<path fill="#FFFFFF" d="M720.248,688.25v0.119h0.32v-0.119c-0.591-3.713,0.191-7.514,2.199-10.691h-0.35
		C720.42,680.741,719.648,684.542,720.248,688.25z"/>
</g>
<path opacity="0.2" fill="#FFFFFF" enable-background="new    " d="M714.258,661.79c-0.325,0.1-0.66,0.164-1,0.189
	c0,0-0.63-0.27-0.359-1.17c0.084-0.318,0.345-0.561,0.67-0.619c-0.249,0.098-0.436,0.311-0.5,0.57
	c-0.271,0.91,0.359,1.17,0.359,1.17C713.708,661.907,713.985,661.86,714.258,661.79z"/>
<path fill="#263238" d="M721.248,677.44l-2.33,6.609c0,0,1.73,1.691,5.36,1c1.885-0.363,3.793-0.594,5.71-0.689l-3.28-6.92H721.248z
	"/>
<path fill="#FF5252" d="M727.398,688.331l0.17,1h-3.11c-0.35-0.65,1.38-1,1.38-1H727.398z"/>
<path fill="#FF5252" d="M721.868,688.331l0.17,1h-3.11c-0.35-0.65,1.38-1,1.38-1H721.868z"/>
<path fill="#FCCC63" d="M731.198,670.18l-7.431,0.17c1.9-2.42-2.25-8.301-2.25-8.301C729.128,656.86,731.198,670.18,731.198,670.18z
	"/>
<path opacity="0.2" fill="#FFFFFF" enable-background="new    " d="M723.778,670.34l7.43-0.17v-0.15l-6.54,0.15
	c1.9-2.42-2.25-8.301-2.25-8.301c0.611-0.434,1.286-0.771,2-1c-1.051,0.145-2.048,0.549-2.9,1.18
	C721.518,662.049,725.668,667.93,723.778,670.34z"/>
<path opacity="0.2" fill="#FFFFFF" enable-background="new    " d="M718.868,684.01c1.124,0.91,2.561,1.342,4,1.199
	c-1.253,0.021-2.472-0.404-3.44-1.199l2.34-6.57h-0.52L718.868,684.01z"/>
<path opacity="0.2" fill="#FFFFFF" enable-background="new    " d="M724.458,689.331h0.35c-0.35-0.65,1.381-1,1.381-1h-0.351
	C725.838,688.331,724.108,688.67,724.458,689.331z"/>
<path opacity="0.2" fill="#FFFFFF" enable-background="new    " d="M718.928,689.331h0.351c-0.351-0.65,1.38-1,1.38-1h-0.351
	C720.308,688.331,718.578,688.67,718.928,689.331z"/>
<polyline fill="none" stroke="#B3B3B3" stroke-miterlimit="10" points="725.52,400.93 715.88,347.09 746.41,345.6 746.41,400.93 
	767.3,400.93 788.19,341.47 "/>
<path fill="#6C63FF" d="M731.93,395.299h28.96c15.078,0,27.301,12.223,27.301,27.301v4.859c0,15.078-12.223,27.301-27.301,27.301
	h-28.96c-15.077,0-27.3-12.223-27.3-27.301V422.6C704.63,407.522,716.853,395.299,731.93,395.299z"/>
<path opacity="0.05" enable-background="new    " d="M759.27,395.299h-24.1c-16.398,0.051-29.681,13.332-29.729,29.73l0,0
	c0,0.68,0,1.34,0.08,2c1.1-15.578,14.032-27.67,29.649-27.72h24.101c15.617,0.05,28.55,12.142,29.649,27.72c0-0.66,0.08-1.33,0.08-2
	l0,0C788.951,408.631,775.669,395.35,759.27,395.299z"/>
<linearGradient id="SVGID_5_" gradientUnits="userSpaceOnUse" x1="700.3027" y1="252.6118" x2="700.3027" y2="291.4019" gradientTransform="matrix(1 0.0023 0.0023 -1 42.9064 696.6414)">
	<stop  offset="0" style="stop-color:#000000;stop-opacity:0.12"/>
	<stop  offset="0.55" style="stop-color:#000000;stop-opacity:0.09"/>
	<stop  offset="1" style="stop-color:#000000;stop-opacity:0.02"/>
</linearGradient>
<polygon fill="url(#SVGID_5_)" points="765.66,413.01 757.77,406.82 738.69,430.991 728.43,423.04 722.01,431.2 736.93,442.6 
	736.93,442.6 740.63,445.571 "/>
<polygon fill="#69F0AE" points="765.08,412.86 757.92,407.379 738.97,432.1 728.44,424.02 722.95,431.18 737.06,441.981 
	737.06,441.981 740.68,444.69 "/>
<linearGradient id="SVGID_6_" gradientUnits="userSpaceOnUse" x1="708.2861" y1="339.1221" x2="708.2861" y2="587.7607" gradientTransform="matrix(1 0 0 -1 43.8398 697.8311)">
	<stop  offset="0" style="stop-color:#808080;stop-opacity:0.25"/>
	<stop  offset="0.54" style="stop-color:#808080;stop-opacity:0.12"/>
	<stop  offset="1" style="stop-color:#808080;stop-opacity:0.1"/>
</linearGradient>
<path fill="url(#SVGID_6_)" d="M873.17,234.39c0,68.66-57.359,124.319-118.43,124.319S631.08,303.05,631.08,234.39
	c0-68.66,62.59-124.32,123.67-124.32S873.17,165.73,873.17,234.39z"/>
<path fill="#6C63FF" d="M867.5,234.39c0,65.45-54.67,118.5-112.89,118.5c-58.221,0-117.88-53.05-117.88-118.5
	c0-65.45,59.68-118.46,117.89-118.46S867.5,168.93,867.5,234.39z"/>
<rect x="736.53" y="357.049" fill="#6C63FF" width="26.189" height="9.15"/>
<g opacity="0.2">
	<path d="M754.62,115.48c-1.39,0-2.771,0-4.16,0.1c56.63,2.45,108.729,54.51,108.729,118.4s-52.1,115.95-108.689,118.4
		c1.39,0.06,2.78,0.1,4.16,0.1c58.21,0,112.89-53.05,112.89-118.5C867.55,168.53,812.83,115.48,754.62,115.48z"/>
</g>
<g opacity="0.2">
	<path fill="#FFFFFF" d="M643.4,234.39c0-64.51,58-117,115.38-118.46c-0.83,0-1.66,0-2.49,0c-58.21,0-117.88,53.05-117.88,118.5
		c0,65.45,59.66,118.5,117.87,118.5c0.83,0,1.66,0,2.489,0C701.37,351.37,643.4,298.93,643.4,234.39z"/>
</g>
<rect x="713.25" y="336.26" fill="#6C63FF" width="75.26" height="24.53"/>
<path opacity="0.2" fill="#FFFFFF" enable-background="new    " d="M713.25,124.52c0,0-89.39,102.18,0,219.74l29.52-0.1
	c0,0-81.489-97.12-3.739-227l-14.53,3.31L713.25,124.52z"/>
<path opacity="0.2" fill="#FFFFFF" enable-background="new    " d="M791,122.93c0,0,89.39,103.74,0,221.3l-29.52-0.1
	c0,0,81.489-98,3.739-227.85l14.55,2.91L791,122.93z"/>
</svg>
