<?xml version="1.0" encoding="utf-8"?>
<!-- Generator: Adobe Illustrator 16.0.3, SVG Export Plug-In . SVG Version: 6.00 Build 0)  -->
<!DOCTYPE svg PUBLIC "-//W3C//DTD SVG 1.1//EN" "http://www.w3.org/Graphics/SVG/1.1/DTD/svg11.dtd">
<svg version="1.1" id="Ebene_1" xmlns="http://www.w3.org/2000/svg" xmlns:xlink="http://www.w3.org/1999/xlink" x="0px" y="0px"
	 width="607px" height="435px" viewBox="0 0 607 435" enable-background="new 0 0 607 435" xml:space="preserve">
<g>
	<linearGradient id="SVGID_1_" gradientUnits="userSpaceOnUse" x1="112.9497" y1="217.2808" x2="496.6719" y2="217.2808">
		<stop  offset="0" style="stop-color:#582D7F"/>
		<stop  offset="0.2125" style="stop-color:#4B5194"/>
		<stop  offset="0.7538" style="stop-color:#2AA7C8"/>
		<stop  offset="1" style="stop-color:#1DC9DC"/>
	</linearGradient>
	<path fill="url(#SVGID_1_)" d="M141.253,259.433c7.001-34.332-13.832-57.214-23.862-90.19
		c-7.373-24.236-4.209-60.715,22.297-72.607c23.237-10.426,48.763-16.147,72.158-26.847c29.985-13.714,58.731-30.809,91.242-37.969
		c32.954-7.256,67.805-6.124,100.103,3.726c15.741,4.8,31.095,11.73,43.496,22.517c17.949,15.613,25.405,38.86,23.392,62.16
		c-2.155,24.917-16.588,47.289-16.87,72.498c-0.261,23.162,14.408,42.413,25.1,61.784c11.943,21.64,19.621,44.034,18.194,69.095
		c-1.727,30.304-15.808,66.59-45.971,78.695c-29.945,12.018-63.553-3.37-92.159-12.289c-28.745-8.961-55.733-6.878-84.759-0.388
		c-38.017,8.499-83.144,27.221-121.644,12.082c-22.175-8.717-37.458-28.904-38.904-52.658c-1.775-29.17,17.396-54.498,25.979-81.217
		C139.968,264.948,140.697,262.155,141.253,259.433z"/>
	<linearGradient id="SVGID_2_" gradientUnits="userSpaceOnUse" x1="-98.6973" y1="299.9541" x2="397.364" y2="208.8991">
		<stop  offset="0" style="stop-color:#582D7F"/>
		<stop  offset="0.2125" style="stop-color:#4B5194"/>
		<stop  offset="0.7538" style="stop-color:#2AA7C8"/>
		<stop  offset="1" style="stop-color:#1DC9DC"/>
	</linearGradient>
	<ellipse fill="url(#SVGID_2_)" cx="496.671" cy="190.671" rx="35.893" ry="40.106"/>
	<linearGradient id="SVGID_3_" gradientUnits="userSpaceOnUse" x1="-110.4585" y1="226.8896" x2="385.6303" y2="135.8296">
		<stop  offset="0" style="stop-color:#582D7F"/>
		<stop  offset="0.2125" style="stop-color:#4B5194"/>
		<stop  offset="0.7538" style="stop-color:#2AA7C8"/>
		<stop  offset="1" style="stop-color:#1DC9DC"/>
	</linearGradient>
	<ellipse fill="url(#SVGID_3_)" cx="91.333" cy="189.85" rx="13.948" ry="15.586"/>
	<linearGradient id="SVGID_4_" gradientUnits="userSpaceOnUse" x1="-102.1494" y1="284.333" x2="396.4571" y2="192.8108">
		<stop  offset="0" style="stop-color:#582D7F"/>
		<stop  offset="0.2125" style="stop-color:#4B5194"/>
		<stop  offset="0.7538" style="stop-color:#2AA7C8"/>
		<stop  offset="1" style="stop-color:#1DC9DC"/>
	</linearGradient>
	<ellipse fill="url(#SVGID_4_)" cx="112.949" cy="244.851" rx="19.379" ry="33.429"/>
	<g>
		<linearGradient id="SVGID_5_" gradientUnits="userSpaceOnUse" x1="113.9453" y1="189.7378" x2="177.0962" y2="189.7378">
			<stop  offset="0" style="stop-color:#582D7F"/>
			<stop  offset="0.2125" style="stop-color:#4B5194"/>
			<stop  offset="0.7538" style="stop-color:#2AA7C8"/>
			<stop  offset="1" style="stop-color:#1DC9DC"/>
		</linearGradient>
		<path fill="url(#SVGID_5_)" d="M175.519,224.76c-3.311-10.454-11.265-18.027-17.533-26.625
			c-6.268-8.597-11.113-20.512-6.889-30.546c2.319-5.509,7.085-9.577,8.615-15.421c2.646-10.109-5.206-19.356-9.912-28.482
			c-4.514-8.752-6.322-19.196-5.125-29.203c-1.673,0.697-3.337,1.412-4.988,2.152c-26.506,11.893-29.669,48.371-22.297,72.607
			c10.031,32.977,30.864,55.858,23.862,90.19c-0.556,2.723-1.285,5.516-2.209,8.392c-1.854,5.771-4.201,11.476-6.725,17.169
			c11.625-3.947,23.028-9.293,31.833-18.533C174.183,255.931,180.11,239.258,175.519,224.76z"/>
		<linearGradient id="SVGID_6_" gradientUnits="userSpaceOnUse" x1="112.9497" y1="367.9004" x2="249.6221" y2="367.9004">
			<stop  offset="0" style="stop-color:#582D7F"/>
			<stop  offset="0.2125" style="stop-color:#4B5194"/>
			<stop  offset="0.7538" style="stop-color:#2AA7C8"/>
			<stop  offset="1" style="stop-color:#1DC9DC"/>
		</linearGradient>
		<path fill="url(#SVGID_6_)" d="M249.622,377.495c-3.299-1.058-6.664-1.879-10.089-2.428c-22.294-3.578-44.685,4.473-67.188,5.542
			c-7.52,0.355-15.389-0.169-21.942-4.303c-6.954-4.389-11.521-12.254-15.35-20.084c-3.829-7.831-7.308-16.104-13.021-22.337
			c-2.023-2.21-4.42-4.113-7.001-5.508c-1.59,6.712-2.398,13.572-1.967,20.663c1.446,23.754,16.729,43.941,38.904,52.658
			c21.442,8.432,44.94,6.357,68.122,1.398C228.843,393.088,238.778,384.289,249.622,377.495z"/>
		<linearGradient id="SVGID_7_" gradientUnits="userSpaceOnUse" x1="282.9512" y1="63.3447" x2="441.5098" y2="63.3447">
			<stop  offset="0" style="stop-color:#582D7F"/>
			<stop  offset="0.2125" style="stop-color:#4B5194"/>
			<stop  offset="0.7538" style="stop-color:#2AA7C8"/>
			<stop  offset="1" style="stop-color:#1DC9DC"/>
		</linearGradient>
		<path fill="url(#SVGID_7_)" d="M309.685,39.566c4.832-1.686,9.354-4.465,14.309-5.618c14.104-3.278,27.844,7.234,37.481,19.193
			c9.64,11.96,17.562,26.22,29.884,34.552c11.083,7.494,24.421,9.277,37.313,10.691c4.266,0.468,8.554,0.91,12.839,1.167
			c-7.149-16.834-11.64-35.072-12.901-53.746c-8.062-4.273-16.679-7.596-25.418-10.261c-32.298-9.85-67.148-10.982-100.103-3.726
			c-6.865,1.512-13.56,3.471-20.136,5.743C291.274,41.741,300.96,42.612,309.685,39.566z"/>
		<linearGradient id="SVGID_8_" gradientUnits="userSpaceOnUse" x1="428.6084" y1="72.792" x2="468.8408" y2="72.792">
			<stop  offset="0" style="stop-color:#582D7F"/>
			<stop  offset="0.2125" style="stop-color:#4B5194"/>
			<stop  offset="0.7538" style="stop-color:#2AA7C8"/>
			<stop  offset="1" style="stop-color:#1DC9DC"/>
		</linearGradient>
		<path fill="url(#SVGID_8_)" d="M460.931,98.852c2.656-0.435,5.312-1.059,7.91-1.887c-2.975-14.85-10.258-28.555-22.154-38.903
			c-5.518-4.799-11.618-8.832-18.078-12.256c1.262,18.674,5.752,36.912,12.901,53.746C448.007,99.941,454.503,99.902,460.931,98.852
			z"/>
		<linearGradient id="SVGID_9_" gradientUnits="userSpaceOnUse" x1="441.5098" y1="118.4932" x2="470.3965" y2="118.4932">
			<stop  offset="0" style="stop-color:#582D7F"/>
			<stop  offset="0.2125" style="stop-color:#4B5194"/>
			<stop  offset="0.7538" style="stop-color:#2AA7C8"/>
			<stop  offset="1" style="stop-color:#1DC9DC"/>
		</linearGradient>
		<path fill="url(#SVGID_9_)" d="M441.51,99.552c6.286,14.795,14.626,28.506,24.638,40.471c1.86-6.485,3.346-13.049,3.931-19.801
			c0.679-7.856,0.275-15.704-1.237-23.257c-2.599,0.829-5.254,1.452-7.91,1.887C454.503,99.902,448.007,99.941,441.51,99.552z"/>
		<linearGradient id="SVGID_10_" gradientUnits="userSpaceOnUse" x1="249.6221" y1="376.3477" x2="352.625" y2="376.3477">
			<stop  offset="0" style="stop-color:#582D7F"/>
			<stop  offset="0.2125" style="stop-color:#4B5194"/>
			<stop  offset="0.7538" style="stop-color:#2AA7C8"/>
			<stop  offset="1" style="stop-color:#1DC9DC"/>
		</linearGradient>
		<path fill="url(#SVGID_10_)" d="M281.107,364.564c-11.103,2.271-21.666,6.779-31.485,12.931
			c8.374,2.686,16.324,6.912,23.768,12.174c0.073-0.018,0.148-0.035,0.223-0.052c27.083-6.056,52.394-8.271,79.012-1.261
			C334.915,367.429,306.617,359.346,281.107,364.564z"/>
		<linearGradient id="SVGID_11_" gradientUnits="userSpaceOnUse" x1="436.8379" y1="311.1074" x2="496.6719" y2="311.1074">
			<stop  offset="0" style="stop-color:#582D7F"/>
			<stop  offset="0.2125" style="stop-color:#4B5194"/>
			<stop  offset="0.7538" style="stop-color:#2AA7C8"/>
			<stop  offset="1" style="stop-color:#1DC9DC"/>
		</linearGradient>
		<path fill="url(#SVGID_11_)" d="M478.308,254.503c-1.14-2.063-2.324-4.126-3.53-6.193c-0.612,2.606-0.902,5.286-0.743,8.038
			c0.575,10.01,7.006,18.675,7.718,28.674c0.676,9.515-3.984,18.569-9.79,25.572c-5.806,7.002-12.848,12.621-18.608,19.669
			c-9.709,11.879-15.378,27.595-16.516,43.642c0.825-0.382,1.641-0.797,2.446-1.249c9.109-5.117,15.806-14.433,24.619-20.159
			c5.533-3.594,11.769-5.679,18.083-6.835c3.752-0.687,7.592-1.044,11.397-0.912c1.699-7.123,2.727-14.291,3.118-21.15
			C497.927,298.538,490.251,276.144,478.308,254.503z"/>
		<linearGradient id="SVGID_12_" gradientUnits="userSpaceOnUse" x1="436.6201" y1="375.0518" x2="493.3838" y2="375.0518">
			<stop  offset="0" style="stop-color:#582D7F"/>
			<stop  offset="0.2125" style="stop-color:#4B5194"/>
			<stop  offset="0.7538" style="stop-color:#2AA7C8"/>
			<stop  offset="1" style="stop-color:#1DC9DC"/>
		</linearGradient>
		<path fill="url(#SVGID_12_)" d="M481.986,345.661c-6.314,1.156-12.55,3.241-18.083,6.835c-8.813,5.727-15.51,15.042-24.619,20.159
			c-0.806,0.452-1.621,0.867-2.446,1.249c-0.063,0.912-0.117,1.826-0.152,2.738c-0.375,9.716,0.876,19.452,3.471,28.739
			c3.498-0.707,6.96-1.717,10.375-3.088c23.334-9.364,37.04-33.202,42.853-57.545C489.578,344.617,485.738,344.975,481.986,345.661z
			"/>
		<linearGradient id="SVGID_13_" gradientUnits="userSpaceOnUse" x1="220.0908" y1="390.2969" x2="273.3896" y2="390.2969">
			<stop  offset="0" style="stop-color:#582D7F"/>
			<stop  offset="0.2125" style="stop-color:#4B5194"/>
			<stop  offset="0.7538" style="stop-color:#2AA7C8"/>
			<stop  offset="1" style="stop-color:#1DC9DC"/>
		</linearGradient>
		<path fill="url(#SVGID_13_)" d="M220.091,403.098c18.358-3.928,36.517-9.663,53.299-13.429
			c-7.443-5.262-15.394-9.488-23.768-12.174C238.778,384.289,228.843,393.088,220.091,403.098z"/>
		<linearGradient id="SVGID_14_" gradientUnits="userSpaceOnUse" x1="373.3555" y1="390.3037" x2="440.1563" y2="390.3037">
			<stop  offset="0" style="stop-color:#582D7F"/>
			<stop  offset="0.2125" style="stop-color:#4B5194"/>
			<stop  offset="0.7538" style="stop-color:#2AA7C8"/>
			<stop  offset="1" style="stop-color:#1DC9DC"/>
		</linearGradient>
		<path fill="url(#SVGID_14_)" d="M436.686,376.643c0.035-0.912,0.089-1.826,0.152-2.738c-12.358,5.724-26.73,3.929-39.876,7.433
			c-8.699,2.319-16.854,7.067-23.606,13.611c21.52,7.26,44.847,14.881,66.801,10.434
			C437.562,396.095,436.311,386.358,436.686,376.643z"/>
	</g>
</g>
<g>
	<g>
		<linearGradient id="SVGID_15_" gradientUnits="userSpaceOnUse" x1="183.0244" y1="296.0117" x2="165.1035" y2="288.1631">
			<stop  offset="0" style="stop-color:#2E5905"/>
			<stop  offset="1" style="stop-color:#3D7606"/>
		</linearGradient>
		<path fill="url(#SVGID_15_)" d="M166.734,290.352c-11.209-17.713-13.406-41.131-13.406-41.131
			c-23.301,38.67,15.517,74.365,15.517,74.365l11.256-1.487l-7.73-28.783L166.734,290.352z"/>
		<linearGradient id="SVGID_16_" gradientUnits="userSpaceOnUse" x1="197.752" y1="290.9707" x2="186.8696" y2="280.6236">
			<stop  offset="0" style="stop-color:#539216"/>
			<stop  offset="1" style="stop-color:#5FA819"/>
		</linearGradient>
		<path fill="url(#SVGID_16_)" d="M188.254,322.099h-8.153c-8.428-11.403-13.106-27.61-15.369-42.142
			c-3.432-22.035,4.391-45.706,2.479-65.938c9.243,16.969,8.074,36.417,17.317,53.388l1.294,2.231L188.254,322.099z"/>
		<linearGradient id="SVGID_17_" gradientUnits="userSpaceOnUse" x1="213.9282" y1="308.0986" x2="228.7531" y2="305.9185">
			<stop  offset="0" style="stop-color:#2E5905"/>
			<stop  offset="1" style="stop-color:#3D7606"/>
		</linearGradient>
		<path fill="url(#SVGID_17_)" d="M227.199,321.106c0,0,10.412-12.89,8.924-31.233c0,0-19.171,6.444-24.772,32.226L227.199,321.106z
			"/>
		<linearGradient id="SVGID_18_" gradientUnits="userSpaceOnUse" x1="199.7617" y1="287.6816" x2="228.6618" y2="280.4566">
			<stop  offset="0" style="stop-color:#3D7606"/>
			<stop  offset="1" style="stop-color:#5FA819"/>
		</linearGradient>
		<path fill="url(#SVGID_18_)" d="M223.216,301.899c1.116-3.944,1.982-7.963,2.656-11.999c1.427-8.559,2.559-17.351,1.54-26.021
			c-0.082-0.695-0.174-1.389-0.274-2.078c-1.133-7.75-3.236-13.933-4.896-18.035c-0.735,15.078-12.567,40.232-17.125,49.55
			c0,0-1.566,29.584-1.569,29.631c-0.054,0.79,4.839,0.627,5.384,0.593c5.186-0.32,7.846-5.112,9.768-9.282
			C220.537,310.268,222.02,306.125,223.216,301.899z"/>
		<path fill="#7FB947" d="M188.528,323.586c0,0-12.395-62.963,6.445-92.709c0,0,16.857,57.014,8.429,92.709H188.528z"/>
	</g>
	<g>
		<linearGradient id="SVGID_19_" gradientUnits="userSpaceOnUse" x1="191.5879" y1="403.5625" x2="194.2639" y2="346.8307">
			<stop  offset="0" style="stop-color:#FCD118"/>
			<stop  offset="1" style="stop-color:#FDDA46"/>
		</linearGradient>
		<path fill="url(#SVGID_19_)" d="M238.34,336.834h-87.21l13.711,47.717c0.584,2.033,2.444,3.434,4.559,3.434h50.668
			c2.116,0,3.975-1.4,4.559-3.434L238.34,336.834z"/>
		<path fill="#FCCA18" d="M233.254,347.59h-77.039c-5.082,0-9.202-4.12-9.202-9.2V320.2h95.441v18.189
			C242.455,343.47,238.336,347.59,233.254,347.59z"/>
	</g>
	<g>
		<path fill="#FFFFFF" d="M213.98,372.272h-38.49c-1.349,0-2.442-1.093-2.442-2.441v-14.843c0-1.349,1.094-2.442,2.442-2.442h38.49
			c1.348,0,2.441,1.094,2.441,2.442v14.843C216.421,371.18,215.328,372.272,213.98,372.272z"/>
	</g>
	<g>
		<g>
			<linearGradient id="SVGID_20_" gradientUnits="userSpaceOnUse" x1="183.0186" y1="333.7705" x2="181.9296" y2="378.7836">
				<stop  offset="0" style="stop-color:#42E397"/>
				<stop  offset="1" style="stop-color:#3CB6B5"/>
			</linearGradient>
			<path fill="url(#SVGID_20_)" d="M187.638,360.572H177.14c-0.414,0-0.748-0.334-0.748-0.748l0,0c0-0.413,0.334-0.748,0.748-0.748
				h10.498c0.412,0,0.747,0.335,0.747,0.748l0,0C188.385,360.238,188.05,360.572,187.638,360.572z"/>
			<linearGradient id="SVGID_21_" gradientUnits="userSpaceOnUse" x1="202.1528" y1="334.2461" x2="201.0644" y2="379.2356">
				<stop  offset="0" style="stop-color:#42E397"/>
				<stop  offset="1" style="stop-color:#3CB6B5"/>
			</linearGradient>
			<path fill="url(#SVGID_21_)" d="M212.33,360.572h-21.591c-0.413,0-0.748-0.334-0.748-0.747l0,0c0-0.413,0.335-0.748,0.748-0.748
				h21.591c0.413,0,0.748,0.335,0.748,0.748l0,0C213.078,360.238,212.743,360.572,212.33,360.572z"/>
		</g>
		<g>
			<linearGradient id="SVGID_22_" gradientUnits="userSpaceOnUse" x1="178.521" y1="333.6846" x2="177.4327" y2="378.6682">
				<stop  offset="0" style="stop-color:#42E397"/>
				<stop  offset="1" style="stop-color:#3CB6B5"/>
			</linearGradient>
			<path fill="url(#SVGID_22_)" d="M178.388,365.742h-1.248c-0.414,0-0.748-0.335-0.748-0.748l0,0c0-0.413,0.334-0.748,0.748-0.748
				h1.248c0.413,0,0.748,0.335,0.748,0.748l0,0C179.136,365.407,178.8,365.742,178.388,365.742z"/>
			<linearGradient id="SVGID_23_" gradientUnits="userSpaceOnUse" x1="188.8872" y1="333.9326" x2="187.7988" y2="378.92">
				<stop  offset="0" style="stop-color:#42E397"/>
				<stop  offset="1" style="stop-color:#3CB6B5"/>
			</linearGradient>
			<path fill="url(#SVGID_23_)" d="M194.375,365.742h-12.479c-0.413,0-0.749-0.334-0.749-0.748l0,0c0-0.413,0.335-0.748,0.749-0.748
				h12.479c0.414,0,0.748,0.335,0.748,0.748l0,0C195.123,365.408,194.789,365.742,194.375,365.742z"/>
			<linearGradient id="SVGID_24_" gradientUnits="userSpaceOnUse" x1="205.7856" y1="334.3447" x2="204.6974" y2="379.3262">
				<stop  offset="0" style="stop-color:#42E397"/>
				<stop  offset="1" style="stop-color:#3CB6B5"/>
			</linearGradient>
			<path fill="url(#SVGID_24_)" d="M212.33,365.742h-14.571c-0.414,0-0.749-0.334-0.749-0.748l0,0c0-0.413,0.335-0.748,0.749-0.748
				h14.571c0.413,0,0.748,0.335,0.748,0.748l0,0C213.078,365.408,212.743,365.742,212.33,365.742z"/>
		</g>
	</g>
</g>
<g>
	<g>
		<g>
			<g>
				<g>
					<linearGradient id="SVGID_25_" gradientUnits="userSpaceOnUse" x1="310.665" y1="374.2441" x2="311.272" y2="296.556">
						<stop  offset="0" style="stop-color:#D1D3D4"/>
						<stop  offset="1" style="stop-color:#9D9E9F"/>
					</linearGradient>
					<path fill="url(#SVGID_25_)" d="M283.239,325.559c0.029,15.474,0.086,48.847,0.086,48.847h55.142c0,0,0-33.499,0-48.847
						H283.239z"/>
				</g>
			</g>
			<g>
				<linearGradient id="SVGID_26_" gradientUnits="userSpaceOnUse" x1="157.502" y1="316.8086" x2="303.6003" y2="316.8086">
					<stop  offset="0" style="stop-color:#9D9E9F"/>
					<stop  offset="1" style="stop-color:#D1D3D4"/>
				</linearGradient>
				<path fill="url(#SVGID_26_)" d="M185.383,306.487v5.312c0,8.467,6.864,15.33,15.332,15.33h220.277
					c8.467,0,15.332-6.863,15.332-15.33v-5.312H185.383z"/>
			</g>
			<g>
				<linearGradient id="SVGID_27_" gradientUnits="userSpaceOnUse" x1="310.8535" y1="368.957" x2="310.8535" y2="386.5207">
					<stop  offset="0" style="stop-color:#D1D3D4"/>
					<stop  offset="1" style="stop-color:#9D9E9F"/>
				</linearGradient>
				<polygon fill="url(#SVGID_27_)" points="350.713,371.981 270.993,371.981 264.488,379.202 357.218,379.202 				"/>
				<linearGradient id="SVGID_28_" gradientUnits="userSpaceOnUse" x1="310.8535" y1="373.835" x2="310.8535" y2="403.7812">
					<stop  offset="0" style="stop-color:#D1D3D4"/>
					<stop  offset="1" style="stop-color:#9D9E9F"/>
				</linearGradient>
				<rect x="264.488" y="379.202" fill="url(#SVGID_28_)" width="92.73" height="8.782"/>
			</g>
		</g>
		<linearGradient id="SVGID_29_" gradientUnits="userSpaceOnUse" x1="337.0273" y1="156.8252" x2="337.0273" y2="360.2901">
			<stop  offset="0" style="stop-color:#42E397"/>
			<stop  offset="1" style="stop-color:#3CB6B5"/>
		</linearGradient>
		<path fill="url(#SVGID_29_)" d="M420.992,158.496h-40.078H237.731v147.991h143.183h55.41V173.827
			C436.324,165.36,429.459,158.496,420.992,158.496z"/>
		<rect x="266.323" y="185.686" fill="#E6E7E8" width="74.368" height="93.324"/>
		<g>
			<rect x="271.372" y="191.679" fill="#D1D3D4" width="64.269" height="9.778"/>
			<rect x="271.372" y="207.576" fill="#D1D3D4" width="64.269" height="54.813"/>
		</g>
		<g>
			
				<linearGradient id="SVGID_30_" gradientUnits="userSpaceOnUse" x1="-82.998" y1="721.3955" x2="-82.998" y2="668.7016" gradientTransform="matrix(0.9635 -0.2678 0.2678 0.9635 190.8262 -384.8018)">
				<stop  offset="0" style="stop-color:#F1F2F2"/>
				<stop  offset="1" style="stop-color:#FFFFFF"/>
			</linearGradient>
			<polygon fill="url(#SVGID_30_)" points="260.571,272.688 319.566,272.688 319.566,294.849 319.57,294.854 319.586,306.487 
				323.569,306.487 323.569,257.981 256.586,257.981 256.586,306.487 260.571,306.487 			"/>
			
				<linearGradient id="SVGID_31_" gradientUnits="userSpaceOnUse" x1="-84.9756" y1="721.3896" x2="-84.9756" y2="668.7013" gradientTransform="matrix(0.9635 -0.2678 0.2678 0.9635 190.8262 -384.8018)">
				<stop  offset="0" style="stop-color:#F1F2F2"/>
				<stop  offset="1" style="stop-color:#FFFFFF"/>
			</linearGradient>
			<polygon fill="url(#SVGID_31_)" points="292.578,284.179 298.295,291.84 307.761,278.447 319.566,294.849 319.566,272.688 
				260.571,272.688 260.571,306.487 275.948,306.487 			"/>
			
				<linearGradient id="SVGID_32_" gradientUnits="userSpaceOnUse" x1="994.0781" y1="2123.4199" x2="1086.0682" y2="2157.916" gradientTransform="matrix(0.9505 0.3107 -0.3107 0.9505 -52.9902 -2083.9268)">
				<stop  offset="0" style="stop-color:#582D7F"/>
				<stop  offset="0.2125" style="stop-color:#4B5194"/>
				<stop  offset="0.7538" style="stop-color:#2AA7C8"/>
				<stop  offset="1" style="stop-color:#1DC9DC"/>
			</linearGradient>
			<polygon fill="url(#SVGID_32_)" points="292.578,284.179 298.295,291.84 307.761,278.447 319.566,294.849 319.566,272.688 
				260.571,272.688 260.571,306.487 275.948,306.487 			"/>
			
				<linearGradient id="SVGID_33_" gradientUnits="userSpaceOnUse" x1="-108.6494" y1="697.0215" x2="-108.6494" y2="689.209" gradientTransform="matrix(0.9635 -0.2678 0.2678 0.9635 190.8262 -384.8018)">
				<stop  offset="0" style="stop-color:#F1F2F2"/>
				<stop  offset="1" style="stop-color:#FFFFFF"/>
			</linearGradient>
			<polygon fill="url(#SVGID_33_)" points="271.754,312.11 271.76,312.11 271.754,312.11 			"/>
			
				<linearGradient id="SVGID_34_" gradientUnits="userSpaceOnUse" x1="-90.3799" y1="721.4004" x2="-90.3799" y2="668.7001" gradientTransform="matrix(0.9635 -0.2678 0.2678 0.9635 190.8262 -384.8018)">
				<stop  offset="0" style="stop-color:#F1F2F2"/>
				<stop  offset="1" style="stop-color:#FFFFFF"/>
			</linearGradient>
			<polygon fill="url(#SVGID_34_)" points="292.578,284.179 275.948,306.487 287.942,306.487 298.295,291.84 			"/>
			
				<linearGradient id="SVGID_35_" gradientUnits="userSpaceOnUse" x1="991.2197" y1="2131.0137" x2="1083.2239" y2="2165.5151" gradientTransform="matrix(0.9505 0.3107 -0.3107 0.9505 -52.9902 -2083.9268)">
				<stop  offset="0" style="stop-color:#582D7F"/>
				<stop  offset="0.2125" style="stop-color:#4B5194"/>
				<stop  offset="0.7538" style="stop-color:#2AA7C8"/>
				<stop  offset="1" style="stop-color:#1DC9DC"/>
			</linearGradient>
			<polygon fill="url(#SVGID_35_)" points="292.578,284.179 275.948,306.487 287.942,306.487 298.295,291.84 			"/>
			
				<linearGradient id="SVGID_36_" gradientUnits="userSpaceOnUse" x1="976.3193" y1="2034.4922" x2="938.6419" y2="2022.3898" gradientTransform="matrix(0.965 0.2622 -0.2622 0.965 -93.6011 -1903.9092)">
				<stop  offset="0" style="stop-color:#9D9E9F"/>
				<stop  offset="1" style="stop-color:#D1D3D4"/>
			</linearGradient>
			<polygon fill="url(#SVGID_36_)" points="292.578,284.179 275.948,306.487 287.942,306.487 298.295,291.84 			"/>
			
				<linearGradient id="SVGID_37_" gradientUnits="userSpaceOnUse" x1="-59.522" y1="721.4004" x2="-59.522" y2="668.6943" gradientTransform="matrix(0.9635 -0.2678 0.2678 0.9635 190.8262 -384.8018)">
				<stop  offset="0" style="stop-color:#F1F2F2"/>
				<stop  offset="1" style="stop-color:#FFFFFF"/>
			</linearGradient>
			<polygon fill="url(#SVGID_37_)" points="319.566,294.849 319.566,306.487 319.586,306.487 319.57,294.854 			"/>
			
				<linearGradient id="SVGID_38_" gradientUnits="userSpaceOnUse" x1="1129.4727" y1="2220.9434" x2="1095.8096" y2="2208.6638" gradientTransform="matrix(0.9509 0.3095 -0.3095 0.9509 -44.707 -2143.2852)">
				<stop  offset="0" style="stop-color:#9D9E9F"/>
				<stop  offset="1" style="stop-color:#D1D3D4"/>
			</linearGradient>
			<polygon fill="url(#SVGID_38_)" points="319.566,294.849 319.566,306.487 319.586,306.487 319.57,294.854 			"/>
			
				<linearGradient id="SVGID_39_" gradientUnits="userSpaceOnUse" x1="-67.8096" y1="721.3965" x2="-67.8096" y2="668.6994" gradientTransform="matrix(0.9635 -0.2678 0.2678 0.9635 190.8262 -384.8018)">
				<stop  offset="0" style="stop-color:#F1F2F2"/>
				<stop  offset="1" style="stop-color:#FFFFFF"/>
			</linearGradient>
			<polygon fill="url(#SVGID_39_)" points="298.295,291.84 309.227,306.487 319.566,306.487 319.566,294.849 307.761,278.447 			"/>
			
				<linearGradient id="SVGID_40_" gradientUnits="userSpaceOnUse" x1="997.3281" y1="2114.748" x2="1089.3207" y2="2149.2451" gradientTransform="matrix(0.9505 0.3107 -0.3107 0.9505 -52.9902 -2083.9268)">
				<stop  offset="0" style="stop-color:#582D7F"/>
				<stop  offset="0.2125" style="stop-color:#4B5194"/>
				<stop  offset="0.7538" style="stop-color:#2AA7C8"/>
				<stop  offset="1" style="stop-color:#1DC9DC"/>
			</linearGradient>
			<polygon fill="url(#SVGID_40_)" points="298.295,291.84 309.227,306.487 319.566,306.487 319.566,294.849 307.761,278.447 			"/>
			
				<linearGradient id="SVGID_41_" gradientUnits="userSpaceOnUse" x1="1129.3418" y1="2221.291" x2="1095.6837" y2="2209.0132" gradientTransform="matrix(0.9509 0.3095 -0.3095 0.9509 -44.707 -2143.2852)">
				<stop  offset="0" style="stop-color:#9D9E9F"/>
				<stop  offset="1" style="stop-color:#D1D3D4"/>
			</linearGradient>
			<polygon fill="url(#SVGID_41_)" points="298.295,291.84 309.227,306.487 319.566,306.487 319.566,294.849 307.761,278.447 			"/>
			
				<linearGradient id="SVGID_42_" gradientUnits="userSpaceOnUse" x1="-81.2969" y1="721.3984" x2="-81.2969" y2="668.7007" gradientTransform="matrix(0.9635 -0.2678 0.2678 0.9635 190.8262 -384.8018)">
				<stop  offset="0" style="stop-color:#F1F2F2"/>
				<stop  offset="1" style="stop-color:#FFFFFF"/>
			</linearGradient>
			<polygon fill="url(#SVGID_42_)" points="287.942,306.487 309.227,306.487 298.295,291.84 			"/>
			
				<linearGradient id="SVGID_43_" gradientUnits="userSpaceOnUse" x1="992.1221" y1="2128.6377" x2="1084.1129" y2="2163.1343" gradientTransform="matrix(0.9505 0.3107 -0.3107 0.9505 -52.9902 -2083.9268)">
				<stop  offset="0" style="stop-color:#582D7F"/>
				<stop  offset="0.2125" style="stop-color:#4B5194"/>
				<stop  offset="0.7538" style="stop-color:#2AA7C8"/>
				<stop  offset="1" style="stop-color:#1DC9DC"/>
			</linearGradient>
			<polygon fill="url(#SVGID_43_)" points="287.942,306.487 309.227,306.487 298.295,291.84 			"/>
			
				<linearGradient id="SVGID_44_" gradientUnits="userSpaceOnUse" x1="976.8145" y1="2032.958" x2="939.1348" y2="2020.8549" gradientTransform="matrix(0.965 0.2622 -0.2622 0.965 -93.6011 -1903.9092)">
				<stop  offset="0" style="stop-color:#9D9E9F"/>
				<stop  offset="1" style="stop-color:#D1D3D4"/>
			</linearGradient>
			<polygon fill="url(#SVGID_44_)" points="287.942,306.487 309.227,306.487 298.295,291.84 			"/>
			
				<linearGradient id="SVGID_45_" gradientUnits="userSpaceOnUse" x1="1124.2881" y1="2235.1504" x2="1090.6305" y2="2222.8728" gradientTransform="matrix(0.9509 0.3095 -0.3095 0.9509 -44.707 -2143.2852)">
				<stop  offset="0" style="stop-color:#9D9E9F"/>
				<stop  offset="1" style="stop-color:#D1D3D4"/>
			</linearGradient>
			<polygon fill="url(#SVGID_45_)" points="287.942,306.487 309.227,306.487 298.295,291.84 			"/>
		</g>
		<g>
			
				<linearGradient id="SVGID_46_" gradientUnits="userSpaceOnUse" x1="559.5381" y1="54.4707" x2="587.8047" y2="54.4707" gradientTransform="matrix(1 0 0 1 -299.0005 211.375)">
				<stop  offset="0" style="stop-color:#582D7F"/>
				<stop  offset="0.2125" style="stop-color:#4B5194"/>
				<stop  offset="0.7538" style="stop-color:#2AA7C8"/>
				<stop  offset="1" style="stop-color:#1DC9DC"/>
			</linearGradient>
			<path fill="url(#SVGID_46_)" d="M286.678,268.628h-24.015c-1.174,0-2.125-0.952-2.125-2.125v-1.314
				c0-1.174,0.951-2.125,2.125-2.125h24.015c1.175,0,2.126,0.951,2.126,2.125v1.314
				C288.804,267.676,287.853,268.628,286.678,268.628z"/>
			<circle fill="#FCD118" cx="273.224" cy="282.438" r="3.473"/>
		</g>
		<g>
			<linearGradient id="SVGID_47_" gradientUnits="userSpaceOnUse" x1="331.9287" y1="158.2744" x2="331.9287" y2="239.0201">
				<stop  offset="0" style="stop-color:#CEECFA"/>
				<stop  offset="1" style="stop-color:#EE6EE4"/>
			</linearGradient>
			<path fill="url(#SVGID_47_)" d="M374.606,274.786l-84.964,0.268c-3.331,0.011-6.04-2.682-6.05-6.014l-0.353-112.301
				c-0.01-3.331,2.681-6.04,6.012-6.049l84.962-0.268c3.332-0.01,6.041,2.682,6.051,6.014l0.353,112.302
				C380.628,272.068,377.937,274.776,374.606,274.786z"/>
			<g>
				<g>
					
						<linearGradient id="SVGID_48_" gradientUnits="userSpaceOnUse" x1="378.8047" y1="-98.9126" x2="378.8047" y2="-219.6133" gradientTransform="matrix(1 -0.0031 0.0031 1 -46.6147 381.2456)">
						<stop  offset="0" style="stop-color:#E6E7E8"/>
						<stop  offset="1" style="stop-color:#FFFFFF"/>
					</linearGradient>
					<path fill="url(#SVGID_48_)" d="M372.923,155.809l0.235,63.621l0.112,35.386l-0.027,6.833l-72.072,7.475
						c-5.963-0.049-10.8-6.031-10.823-13.423l-0.318-99.631L372.923,155.809z"/>
					
						<linearGradient id="SVGID_49_" gradientUnits="userSpaceOnUse" x1="13023.793" y1="-6374.3525" x2="13084.8242" y2="-6458.0713" gradientTransform="matrix(-0.9224 0.3862 0.3862 0.9224 14892.8086 1098.0059)">
						<stop  offset="5.000000e-008" style="stop-color:#A7A9AC"/>
						<stop  offset="1" style="stop-color:#FFFFFF"/>
					</linearGradient>
					<path fill="url(#SVGID_49_)" d="M290.078,170.798l-0.003-0.006l0-0.141C290.074,170.605,290.077,170.764,290.078,170.798z"/>
				</g>
				<g>
					<path fill="#FFFFFF" d="M312.114,255.893l51.994-0.162l24.367-0.077c0.022,7.289-4.829,13.214-10.841,13.233h-0.021
						l-76.342,0.238C307.283,269.107,312.136,263.183,312.114,255.893z"/>
				</g>
				<g>
					<g>
						<linearGradient id="SVGID_50_" gradientUnits="userSpaceOnUse" x1="320.0723" y1="158.1333" x2="320.0723" y2="194.5364">
							<stop  offset="0" style="stop-color:#FFDE39"/>
							<stop  offset="0.0935" style="stop-color:#FFC63C"/>
							<stop  offset="0.2863" style="stop-color:#FE9843"/>
							<stop  offset="0.4154" style="stop-color:#FE7D4B"/>
							<stop  offset="0.6521" style="stop-color:#FE4F59"/>
							<stop  offset="1" style="stop-color:#ED327F"/>
						</linearGradient>
						<path fill="url(#SVGID_50_)" d="M341.905,173.914l-43.638,0.137c-0.686,0.002-1.242-0.551-1.245-1.235l-0.021-6.417
							c-0.001-0.685,0.552-1.242,1.237-1.245l43.639-0.137c0.685-0.002,1.241,0.551,1.243,1.236l0.021,6.417
							C343.145,173.355,342.591,173.912,341.905,173.914z"/>
						<linearGradient id="SVGID_51_" gradientUnits="userSpaceOnUse" x1="331.6699" y1="158.145" x2="331.6699" y2="194.5321">
							<stop  offset="0" style="stop-color:#FFDE39"/>
							<stop  offset="0.0935" style="stop-color:#FFC63C"/>
							<stop  offset="0.2863" style="stop-color:#FE9843"/>
							<stop  offset="0.4154" style="stop-color:#FE7D4B"/>
							<stop  offset="0.6521" style="stop-color:#FE4F59"/>
							<stop  offset="1" style="stop-color:#ED327F"/>
						</linearGradient>
						<path fill="url(#SVGID_51_)" d="M365.061,180.5l-66.773,0.209c-0.684,0.002-1.242-0.551-1.244-1.236l-0.001-0.591
							c-0.002-0.684,0.551-1.241,1.236-1.243l66.771-0.21c0.686-0.003,1.243,0.551,1.244,1.236l0.002,0.59
							C366.299,179.94,365.744,180.498,365.061,180.5z"/>
					</g>
					<g>
						<g>
							<g>
								<g>
									<linearGradient id="SVGID_52_" gradientUnits="userSpaceOnUse" x1="328.123" y1="182.5542" x2="328.123" y2="242.9175">
										<stop  offset="0" style="stop-color:#E6E7E8"/>
										<stop  offset="0.5252" style="stop-color:#D1D3D4"/>
									</linearGradient>
									<path fill="url(#SVGID_52_)" d="M298.101,189.113c-0.606,0-1.099-0.492-1.099-1.098s0.492-1.098,1.099-1.098l60.046-0.001
										c0.607,0,1.098,0.491,1.098,1.098c0,0.606-0.49,1.097-1.098,1.097L298.101,189.113z"/>
								</g>
								<g>
									<linearGradient id="SVGID_53_" gradientUnits="userSpaceOnUse" x1="363.6719" y1="182.5522" x2="363.6719" y2="242.9319">
										<stop  offset="0" style="stop-color:#E6E7E8"/>
										<stop  offset="0.5252" style="stop-color:#D1D3D4"/>
									</linearGradient>
									<path fill="url(#SVGID_53_)" d="M362.16,189.111c-0.606,0-1.097-0.491-1.097-1.098s0.49-1.098,1.097-1.098h3.022
										c0.605,0,1.097,0.492,1.097,1.098s-0.491,1.098-1.097,1.098H362.16z"/>
								</g>
							</g>
							<g>
								<g>
									<linearGradient id="SVGID_54_" gradientUnits="userSpaceOnUse" x1="303.3628" y1="182.5547" x2="303.3628" y2="242.917">
										<stop  offset="0" style="stop-color:#E6E7E8"/>
										<stop  offset="0.5252" style="stop-color:#D1D3D4"/>
									</linearGradient>
									<path fill="url(#SVGID_54_)" d="M298.101,195.682c-0.606,0-1.098-0.491-1.098-1.098c0-0.606,0.492-1.098,1.098-1.098
										h10.524c0.606,0,1.099,0.491,1.099,1.098s-0.492,1.098-1.099,1.098H298.101z"/>
								</g>
								<g>
									<linearGradient id="SVGID_55_" gradientUnits="userSpaceOnUse" x1="338.4082" y1="182.5537" x2="338.4082" y2="242.9209">
										<stop  offset="0" style="stop-color:#E6E7E8"/>
										<stop  offset="0.5252" style="stop-color:#D1D3D4"/>
									</linearGradient>
									<path fill="url(#SVGID_55_)" d="M311.637,195.681c-0.606,0-1.099-0.491-1.099-1.098c0-0.606,0.492-1.098,1.099-1.098
										l53.546-0.001c0.606,0,1.097,0.491,1.097,1.097c0,0.607-0.49,1.099-1.097,1.099L311.637,195.681z"/>
								</g>
							</g>
							<g>
								<g>
									<linearGradient id="SVGID_56_" gradientUnits="userSpaceOnUse" x1="307.5879" y1="182.5518" x2="307.5879" y2="242.9251">
										<stop  offset="0" style="stop-color:#E6E7E8"/>
										<stop  offset="0.5252" style="stop-color:#D1D3D4"/>
									</linearGradient>
									<path fill="url(#SVGID_56_)" d="M298.101,202.331c-0.606,0-1.099-0.491-1.099-1.097c0-0.606,0.492-1.098,1.099-1.098
										l18.973-0.001c0.606,0,1.099,0.492,1.099,1.098c0,0.606-0.492,1.098-1.099,1.098L298.101,202.331z"/>
								</g>
								<g>
									<linearGradient id="SVGID_57_" gradientUnits="userSpaceOnUse" x1="335.5547" y1="182.5498" x2="335.5547" y2="242.9295">
										<stop  offset="0" style="stop-color:#E6E7E8"/>
										<stop  offset="0.5252" style="stop-color:#D1D3D4"/>
									</linearGradient>
									<path fill="url(#SVGID_57_)" d="M322.018,202.33c-0.605,0-1.097-0.491-1.097-1.098c0-0.606,0.489-1.098,1.097-1.098h27.073
										c0.606,0,1.098,0.492,1.098,1.098s-0.491,1.098-1.098,1.098H322.018z"/>
								</g>
								<g>
									<linearGradient id="SVGID_58_" gradientUnits="userSpaceOnUse" x1="359.3818" y1="182.5532" x2="359.3818" y2="242.923">
										<stop  offset="0" style="stop-color:#E6E7E8"/>
										<stop  offset="0.5252" style="stop-color:#D1D3D4"/>
									</linearGradient>
									<path fill="url(#SVGID_58_)" d="M353.582,202.33c-0.607,0-1.099-0.492-1.099-1.097c0-0.606,0.491-1.099,1.099-1.099h11.601
										c0.606,0,1.098,0.492,1.098,1.098c0,0.606-0.491,1.098-1.098,1.098L353.582,202.33z"/>
								</g>
							</g>
						</g>
					</g>
					<g>
						<g>
							<g>
								<g>
									<linearGradient id="SVGID_59_" gradientUnits="userSpaceOnUse" x1="335.1602" y1="182.5171" x2="335.1602" y2="242.9206">
										<stop  offset="0" style="stop-color:#E6E7E8"/>
										<stop  offset="0.5252" style="stop-color:#D1D3D4"/>
									</linearGradient>
									<path fill="url(#SVGID_59_)" d="M365.183,245.955c0.606,0,1.098,0.491,1.098,1.099c0,0.606-0.491,1.099-1.098,1.099
										l-60.048,0.001c-0.605,0-1.096-0.492-1.096-1.099s0.489-1.098,1.096-1.098L365.183,245.955z"/>
								</g>
								<g>
									<linearGradient id="SVGID_60_" gradientUnits="userSpaceOnUse" x1="299.6113" y1="182.5278" x2="299.6113" y2="242.9209">
										<stop  offset="0" style="stop-color:#E6E7E8"/>
										<stop  offset="0.5252" style="stop-color:#D1D3D4"/>
									</linearGradient>
									<path fill="url(#SVGID_60_)" d="M301.122,245.957c0.606,0,1.098,0.491,1.098,1.099c0,0.605-0.491,1.098-1.098,1.098h-3.021
										c-0.606,0-1.099-0.491-1.099-1.098c0-0.607,0.492-1.099,1.099-1.099H301.122z"/>
								</g>
							</g>
							<g>
								<g>
									<linearGradient id="SVGID_61_" gradientUnits="userSpaceOnUse" x1="359.9199" y1="182.5596" x2="359.9199" y2="242.9219">
										<stop  offset="0" style="stop-color:#E6E7E8"/>
										<stop  offset="0.5252" style="stop-color:#D1D3D4"/>
									</linearGradient>
									<path fill="url(#SVGID_61_)" d="M365.183,239.387c0.606,0,1.097,0.492,1.097,1.099c0,0.605-0.49,1.097-1.097,1.097h-10.525
										c-0.605,0-1.098-0.491-1.098-1.097c0-0.606,0.492-1.098,1.098-1.098L365.183,239.387z"/>
								</g>
								<g>
									<linearGradient id="SVGID_62_" gradientUnits="userSpaceOnUse" x1="324.874" y1="182.5684" x2="324.874" y2="242.9222">
										<stop  offset="0" style="stop-color:#E6E7E8"/>
										<stop  offset="0.5252" style="stop-color:#D1D3D4"/>
									</linearGradient>
									<path fill="url(#SVGID_62_)" d="M351.646,239.388c0.607,0,1.099,0.491,1.099,1.098c0,0.605-0.491,1.098-1.099,1.098
										l-53.546,0.001c-0.606,0-1.098-0.491-1.098-1.098s0.492-1.097,1.098-1.097L351.646,239.388z"/>
								</g>
							</g>
							<g>
								<g>
									<linearGradient id="SVGID_63_" gradientUnits="userSpaceOnUse" x1="355.6953" y1="182.5498" x2="355.6953" y2="242.9232">
										<stop  offset="0" style="stop-color:#E6E7E8"/>
										<stop  offset="0.5252" style="stop-color:#D1D3D4"/>
									</linearGradient>
									<path fill="url(#SVGID_63_)" d="M365.183,232.737c0.605,0,1.097,0.491,1.097,1.098s-0.491,1.098-1.097,1.098l-18.975,0.001
										c-0.604,0-1.097-0.491-1.097-1.098s0.492-1.099,1.097-1.099H365.183z"/>
								</g>
								<g>
									<linearGradient id="SVGID_64_" gradientUnits="userSpaceOnUse" x1="327.7285" y1="182.5557" x2="327.7285" y2="242.9219">
										<stop  offset="0" style="stop-color:#E6E7E8"/>
										<stop  offset="0.5252" style="stop-color:#D1D3D4"/>
									</linearGradient>
									<path fill="url(#SVGID_64_)" d="M341.266,232.738c0.604,0,1.098,0.491,1.098,1.098s-0.491,1.098-1.098,1.098h-27.072
										c-0.606,0-1.099-0.491-1.099-1.098s0.492-1.098,1.099-1.098H341.266z"/>
								</g>
								<g>
									<linearGradient id="SVGID_65_" gradientUnits="userSpaceOnUse" x1="303.9009" y1="182.5415" x2="303.9009" y2="242.9247">
										<stop  offset="0" style="stop-color:#E6E7E8"/>
										<stop  offset="0.5252" style="stop-color:#D1D3D4"/>
									</linearGradient>
									<path fill="url(#SVGID_65_)" d="M309.702,232.738c0.605,0,1.098,0.492,1.098,1.099c0,0.605-0.491,1.097-1.098,1.097
										l-11.602,0.001c-0.606,0-1.099-0.491-1.099-1.098s0.492-1.097,1.099-1.097L309.702,232.738z"/>
								</g>
							</g>
						</g>
					</g>
					<linearGradient id="SVGID_66_" gradientUnits="userSpaceOnUse" x1="331.5625" y1="182.5527" x2="331.5625" y2="242.923">
						<stop  offset="0" style="stop-color:#E6E7E8"/>
						<stop  offset="0.5252" style="stop-color:#D1D3D4"/>
					</linearGradient>
					<rect x="297.002" y="206.305" fill="url(#SVGID_66_)" width="69.119" height="21.138"/>
				</g>
			</g>
			<g>
				
					<linearGradient id="SVGID_67_" gradientUnits="userSpaceOnUse" x1="379.0557" y1="-231.3457" x2="379.0557" y2="-211.8667" gradientTransform="matrix(1 -0.0031 0.0031 1 -46.6147 381.2456)">
					<stop  offset="0" style="stop-color:#D1D3D4"/>
					<stop  offset="1" style="stop-color:#BCBEC0"/>
				</linearGradient>
				<path fill="url(#SVGID_67_)" d="M359.321,150.003c-0.005-1.337-1.091-2.418-2.428-2.413l-15.073,0.047
					c-0.018-5.578-4.552-10.084-10.131-10.068c-5.577,0.017-10.085,4.554-10.067,10.131l-15.073,0.047
					c-1.337,0.004-2.417,1.091-2.413,2.429l0.019,5.848l55.186-0.174L359.321,150.003z"/>
				
					<rect x="330.595" y="129.501" transform="matrix(-0.003 -1 1 -0.003 175.638 489.3079)" fill="#BCBEC0" width="2.312" height="55.186"/>
			</g>
			<g>
				
					<linearGradient id="SVGID_68_" gradientUnits="userSpaceOnUse" x1="386.1035" y1="-239.4482" x2="371.1782" y2="-224.5229" gradientTransform="matrix(1 -0.0031 0.0031 1 -46.6147 381.2456)">
					<stop  offset="0" style="stop-color:#9D9E9F"/>
					<stop  offset="1" style="stop-color:#D1D3D4"/>
				</linearGradient>
				<circle fill="url(#SVGID_68_)" cx="331.721" cy="147.669" r="6.447"/>
				<linearGradient id="SVGID_69_" gradientUnits="userSpaceOnUse" x1="303.9941" y1="175.3965" x2="355.366" y2="124.0246">
					<stop  offset="0" style="stop-color:#582D7F"/>
					<stop  offset="0.2125" style="stop-color:#4B5194"/>
					<stop  offset="0.7538" style="stop-color:#2AA7C8"/>
					<stop  offset="1" style="stop-color:#1DC9DC"/>
				</linearGradient>
				<circle fill="url(#SVGID_69_)" cx="331.721" cy="147.668" r="3.787"/>
			</g>
		</g>
		<g>
			<linearGradient id="SVGID_70_" gradientUnits="userSpaceOnUse" x1="211.5571" y1="246.6045" x2="211.5571" y2="304.149">
				<stop  offset="0" style="stop-color:#BBBBBB"/>
				<stop  offset="0.0454" style="stop-color:#CCCDCD"/>
				<stop  offset="0.1083" style="stop-color:#DDDEDE"/>
				<stop  offset="0.1866" style="stop-color:#E8E9E9"/>
				<stop  offset="0.2966" style="stop-color:#EFF0F0"/>
				<stop  offset="0.6017" style="stop-color:#F1F2F2"/>
				<stop  offset="1" style="stop-color:#FFFFFF"/>
			</linearGradient>
			<rect x="185.383" y="248.104" fill="url(#SVGID_70_)" width="52.348" height="31.096"/>
			<linearGradient id="SVGID_71_" gradientUnits="userSpaceOnUse" x1="211.5571" y1="270.2793" x2="211.5571" y2="387.6777">
				<stop  offset="0" style="stop-color:#BBBBBB"/>
				<stop  offset="0.0454" style="stop-color:#CCCDCD"/>
				<stop  offset="0.1083" style="stop-color:#DDDEDE"/>
				<stop  offset="0.1866" style="stop-color:#E8E9E9"/>
				<stop  offset="0.2966" style="stop-color:#EFF0F0"/>
				<stop  offset="0.6017" style="stop-color:#F1F2F2"/>
				<stop  offset="1" style="stop-color:#FFFFFF"/>
			</linearGradient>
			<rect x="185.383" y="279.2" fill="url(#SVGID_71_)" width="52.348" height="27.287"/>
			<linearGradient id="SVGID_72_" gradientUnits="userSpaceOnUse" x1="211.5571" y1="185.3896" x2="211.5571" y2="242.9383">
				<stop  offset="0" style="stop-color:#BBBBBB"/>
				<stop  offset="0.0454" style="stop-color:#CCCDCD"/>
				<stop  offset="0.1083" style="stop-color:#DDDEDE"/>
				<stop  offset="0.1866" style="stop-color:#E8E9E9"/>
				<stop  offset="0.2966" style="stop-color:#EFF0F0"/>
				<stop  offset="0.6017" style="stop-color:#F1F2F2"/>
				<stop  offset="1" style="stop-color:#FFFFFF"/>
			</linearGradient>
			<rect x="185.383" y="185.908" fill="url(#SVGID_72_)" width="52.348" height="31.098"/>
			<linearGradient id="SVGID_73_" gradientUnits="userSpaceOnUse" x1="211.5571" y1="436.3291" x2="211.5571" y2="232.5486">
				<stop  offset="0" style="stop-color:#42E397"/>
				<stop  offset="1" style="stop-color:#3CB6B5"/>
			</linearGradient>
			<path fill="url(#SVGID_73_)" d="M237.731,158.496h-37.016c-8.468,0-15.332,6.864-15.332,15.331v12.082h52.348V158.496z"/>
			<linearGradient id="SVGID_74_" gradientUnits="userSpaceOnUse" x1="211.5571" y1="214.2646" x2="211.5571" y2="262.0147">
				<stop  offset="0" style="stop-color:#42E397"/>
				<stop  offset="1" style="stop-color:#3CB6B5"/>
			</linearGradient>
			<rect x="185.383" y="217.006" fill="url(#SVGID_74_)" width="52.348" height="31.098"/>
		</g>
		<g>
			<g>
				<g>
					<g>
						<path fill="#FFFFFF" d="M206.206,170.003h-10.451c-0.876,0-1.587-0.711-1.587-1.588s0.711-1.588,1.587-1.588h10.451
							c0.877,0,1.588,0.711,1.588,1.588S207.083,170.003,206.206,170.003z"/>
					</g>
					<g>
						<path fill="#FFFFFF" d="M214.617,170.003h-3.177c-0.877,0-1.588-0.711-1.588-1.588s0.711-1.588,1.588-1.588h3.177
							c0.877,0,1.588,0.711,1.588,1.588S215.495,170.003,214.617,170.003z"/>
					</g>
				</g>
				<g>
					<g>
						<path fill="#FFFFFF" d="M198.687,178.415h-2.932c-0.876,0-1.587-0.71-1.587-1.588c0-0.877,0.711-1.588,1.587-1.588h2.932
							c0.877,0,1.588,0.711,1.588,1.588C200.275,177.704,199.564,178.415,198.687,178.415z"/>
					</g>
					<g>
						<path fill="#FFFFFF" d="M226.343,178.415h-22.133c-0.877,0-1.588-0.71-1.588-1.588c0-0.877,0.711-1.588,1.588-1.588h22.133
							c0.876,0,1.587,0.711,1.587,1.588C227.93,177.704,227.219,178.415,226.343,178.415z"/>
					</g>
				</g>
			</g>
			<g>
				<g>
					<g>
						<path fill="#FFFFFF" d="M214.617,199.938h-18.862c-0.876,0-1.587-0.711-1.587-1.588c0-0.877,0.711-1.588,1.587-1.588h18.862
							c0.877,0,1.588,0.711,1.588,1.588C216.206,199.228,215.495,199.938,214.617,199.938z"/>
					</g>
				</g>
				<g>
					<g>
						<path fill="#FFFFFF" d="M209.137,208.35h-13.382c-0.876,0-1.587-0.71-1.587-1.588c0-0.877,0.711-1.588,1.587-1.588h13.382
							c0.877,0,1.588,0.711,1.588,1.588C210.726,207.639,210.014,208.35,209.137,208.35z"/>
					</g>
					<g>
						<path fill="#FFFFFF" d="M226.343,208.35h-11.066c-0.877,0-1.588-0.71-1.588-1.588c0-0.877,0.711-1.588,1.588-1.588h11.066
							c0.876,0,1.587,0.711,1.587,1.588C227.93,207.639,227.219,208.35,226.343,208.35z"/>
					</g>
				</g>
			</g>
			<g>
				<g>
					<g>
						<path fill="#FFFFFF" d="M227.124,229.874h-4.902c-0.877,0-1.588-0.711-1.588-1.589c0-0.877,0.711-1.588,1.588-1.588h4.902
							c0.877,0,1.588,0.711,1.588,1.588C228.712,229.163,228.001,229.874,227.124,229.874z"/>
					</g>
					<g>
						<path fill="#FFFFFF" d="M215.276,229.874h-19.129c-0.877,0-1.588-0.711-1.588-1.589c0-0.877,0.711-1.588,1.588-1.588h19.129
							c0.876,0,1.587,0.711,1.587,1.588C216.864,229.163,216.153,229.874,215.276,229.874z"/>
					</g>
				</g>
				<g>
					<g>
						<path fill="#FFFFFF" d="M196.93,238.284h-0.783c-0.877,0-1.588-0.711-1.588-1.588s0.711-1.588,1.588-1.588h0.783
							c0.877,0,1.588,0.711,1.588,1.588S197.807,238.284,196.93,238.284z"/>
					</g>
					<g>
						<path fill="#FFFFFF" d="M226.733,238.284h-24.287c-0.878,0-1.588-0.711-1.588-1.588s0.71-1.588,1.588-1.588h24.287
							c0.877,0,1.588,0.711,1.588,1.588S227.61,238.284,226.733,238.284z"/>
					</g>
				</g>
			</g>
			<g>
				<g>
					<g>
						<path fill="#FFFFFF" d="M206.989,259.809h-10.451c-0.876,0-1.587-0.712-1.587-1.588c0-0.877,0.711-1.588,1.587-1.588h10.451
							c0.877,0,1.588,0.711,1.588,1.588C208.577,259.097,207.866,259.809,206.989,259.809z"/>
					</g>
					<g>
						<path fill="#FFFFFF" d="M215.4,259.809h-3.176c-0.878,0-1.589-0.712-1.589-1.588c0-0.877,0.711-1.588,1.589-1.588h3.176
							c0.877,0,1.588,0.711,1.588,1.588C216.988,259.097,216.277,259.809,215.4,259.809z"/>
					</g>
				</g>
				<g>
					<g>
						<path fill="#FFFFFF" d="M215.792,268.219h-19.253c-0.876,0-1.587-0.71-1.587-1.587c0-0.878,0.711-1.587,1.587-1.587h19.253
							c0.877,0,1.588,0.709,1.588,1.587C217.379,267.509,216.668,268.219,215.792,268.219z"/>
					</g>
					<g>
						<path fill="#FFFFFF" d="M227.124,268.219h-4.902c-0.877,0-1.588-0.71-1.588-1.587c0-0.878,0.711-1.587,1.588-1.587h4.902
							c0.877,0,1.588,0.709,1.588,1.587C228.712,267.509,228.001,268.219,227.124,268.219z"/>
					</g>
				</g>
			</g>
			<g>
				<g>
					<g>
						<path fill="#FFFFFF" d="M207.38,289.744H196.93c-0.876,0-1.588-0.712-1.588-1.589s0.712-1.589,1.588-1.589h10.451
							c0.876,0,1.588,0.712,1.588,1.589S208.257,289.744,207.38,289.744z"/>
					</g>
					<g>
						<path fill="#FFFFFF" d="M227.516,289.744h-14.901c-0.877,0-1.588-0.712-1.588-1.589s0.711-1.589,1.588-1.589h14.901
							c0.877,0,1.588,0.712,1.588,1.589S228.393,289.744,227.516,289.744z"/>
					</g>
				</g>
				<g>
					<g>
						<path fill="#FFFFFF" d="M215.425,298.154H196.93c-0.876,0-1.588-0.711-1.588-1.587c0-0.878,0.712-1.589,1.588-1.589h18.495
							c0.877,0,1.588,0.711,1.588,1.589C217.013,297.443,216.302,298.154,215.425,298.154z"/>
					</g>
					<g>
						<path fill="#FFFFFF" d="M227.516,298.154h-6.06c-0.876,0-1.588-0.711-1.588-1.587c0-0.878,0.711-1.589,1.588-1.589h6.06
							c0.877,0,1.588,0.711,1.588,1.589C229.104,297.443,228.393,298.154,227.516,298.154z"/>
					</g>
				</g>
			</g>
		</g>
		<g>
			<path fill="#FFFFFF" d="M319.925,319.247h-18.143c-1.347,0-2.439-1.091-2.439-2.438c0-1.349,1.092-2.44,2.439-2.44h18.143
				c1.348,0,2.44,1.092,2.44,2.44C322.365,318.156,321.272,319.247,319.925,319.247z"/>
		</g>
		<g>
			<path fill="#FFFFFF" d="M408.27,223.666h-67.282v82.821h6.666v-3.604c0-1.846,1.496-3.342,3.343-3.342h67.295
				c1.847,0,3.343,1.496,3.343,3.342v3.604h6.666v-62.795L408.27,223.666z"/>
			<polygon fill="#E6E7E8" points="408.27,243.692 428.3,243.692 408.27,223.666 			"/>
		</g>
		<g>
			<linearGradient id="SVGID_75_" gradientUnits="userSpaceOnUse" x1="384.6436" y1="275.7188" x2="384.6436" y2="327.5492">
				<stop  offset="0" style="stop-color:#FFDE39"/>
				<stop  offset="0.0935" style="stop-color:#FFC63C"/>
				<stop  offset="0.2863" style="stop-color:#FE9843"/>
				<stop  offset="0.4154" style="stop-color:#FE7D4B"/>
				<stop  offset="0.6521" style="stop-color:#FE4F59"/>
				<stop  offset="1" style="stop-color:#ED327F"/>
			</linearGradient>
			<path fill="url(#SVGID_75_)" d="M418.291,299.542h-67.295c-1.847,0-3.343,1.496-3.343,3.342v3.604h3.659v-2.509
				c0-1.076,0.874-1.948,1.95-1.948h4.176c1.077,0,1.949,0.872,1.949,1.948v2.509h62.246v-3.604
				C421.634,301.038,420.138,299.542,418.291,299.542z"/>
			<path fill="#FFFFFF" d="M359.388,303.979c0-1.076-0.872-1.948-1.949-1.948h-4.176c-1.076,0-1.95,0.872-1.95,1.948v2.509h8.075
				V303.979z"/>
		</g>
		<g>
			<linearGradient id="SVGID_76_" gradientUnits="userSpaceOnUse" x1="353.9238" y1="233.6797" x2="404.0654" y2="233.6797">
				<stop  offset="0" style="stop-color:#42E397"/>
				<stop  offset="1" style="stop-color:#3CB6B5"/>
			</linearGradient>
			<path fill="url(#SVGID_76_)" d="M387.977,236.06h-37.29c-1.315,0-2.382-1.066-2.382-2.381l0,0c0-1.315,1.066-2.38,2.382-2.38
				h37.29c1.315,0,2.381,1.064,2.381,2.38l0,0C390.357,234.993,389.292,236.06,387.977,236.06z"/>
			<g>
				<g>
					<g>
						<path fill="#939598" d="M365.388,245.94h-3.75c-0.525,0-0.951-0.427-0.951-0.951c0-0.526,0.426-0.954,0.951-0.954h3.75
							c0.525,0,0.952,0.428,0.952,0.954C366.34,245.514,365.913,245.94,365.388,245.94z"/>
					</g>
					<g>
						<path fill="#939598" d="M358.337,245.94h-9.499c-0.527,0-0.954-0.427-0.954-0.951c0-0.526,0.427-0.954,0.954-0.954h9.499
							c0.525,0,0.952,0.428,0.952,0.954C359.289,245.514,358.862,245.94,358.337,245.94z"/>
					</g>
					<g>
						<path fill="#939598" d="M420.45,252.511h-35.807c-0.525,0-0.952-0.426-0.952-0.95c0-0.528,0.427-0.954,0.952-0.954h35.807
							c0.525,0,0.952,0.426,0.952,0.954C421.402,252.085,420.976,252.511,420.45,252.511z"/>
					</g>
					<g>
						<path fill="#939598" d="M380.177,252.511h-31.339c-0.527,0-0.954-0.426-0.954-0.95c0-0.528,0.427-0.954,0.954-0.954h31.339
							c0.525,0,0.951,0.426,0.951,0.954C381.128,252.085,380.702,252.511,380.177,252.511z"/>
					</g>
					<g>
						<path fill="#939598" d="M420.45,259.083h-20.467c-0.525,0-0.952-0.427-0.952-0.952c0-0.527,0.427-0.954,0.952-0.954h20.467
							c0.525,0,0.952,0.427,0.952,0.954C421.402,258.656,420.976,259.083,420.45,259.083z"/>
					</g>
					<g>
						<path fill="#939598" d="M396.07,259.083H373.7c-0.525,0-0.952-0.427-0.952-0.952c0-0.527,0.427-0.954,0.952-0.954h22.37
							c0.527,0,0.954,0.427,0.954,0.954C397.024,258.656,396.598,259.083,396.07,259.083z"/>
					</g>
					<g>
						<path fill="#939598" d="M369.331,259.083h-20.493c-0.527,0-0.954-0.427-0.954-0.952c0-0.527,0.427-0.954,0.954-0.954h20.493
							c0.527,0,0.953,0.427,0.953,0.954C370.284,258.656,369.858,259.083,369.331,259.083z"/>
					</g>
				</g>
				<g>
					<g>
						<linearGradient id="SVGID_77_" gradientUnits="userSpaceOnUse" x1="384.6436" y1="275.7217" x2="384.6436" y2="327.5457">
							<stop  offset="0" style="stop-color:#FFDE39"/>
							<stop  offset="0.0935" style="stop-color:#FFC63C"/>
							<stop  offset="0.2863" style="stop-color:#FE9843"/>
							<stop  offset="0.4154" style="stop-color:#FE7D4B"/>
							<stop  offset="0.6521" style="stop-color:#FE4F59"/>
							<stop  offset="0.8845" style="stop-color:#F33C72"/>
							<stop  offset="1" style="stop-color:#ED327F"/>
						</linearGradient>
						<path fill="url(#SVGID_77_)" d="M418.291,278.007h-67.295c-1.847,0-3.343-1.497-3.343-3.343v-6.365
							c0-1.848,1.496-3.343,3.343-3.343h67.295c1.847,0,3.343,1.495,3.343,3.343v6.365
							C421.634,276.51,420.138,278.007,418.291,278.007z"/>
						<g>
							<g>
								<path fill="#FFFFFF" d="M357.438,275.518h-4.176c-1.076,0-1.95-0.872-1.95-1.949v-4.175c0-1.077,0.874-1.95,1.95-1.95h4.176
									c1.077,0,1.949,0.873,1.949,1.95v4.175C359.388,274.646,358.516,275.518,357.438,275.518z"/>
								<g>
									<g>
										<g>
											<path fill="#FFFFFF" d="M398.013,270.067h-35.091c-0.401,0-0.727-0.326-0.727-0.728c0-0.4,0.325-0.725,0.727-0.725
												h35.091c0.4,0,0.725,0.324,0.725,0.725C398.737,269.741,398.413,270.067,398.013,270.067z"/>
										</g>
									</g>
									<g>
										<g>
											<path fill="#FFFFFF" d="M366.77,274.347h-3.848c-0.401,0-0.727-0.325-0.727-0.726c0-0.399,0.325-0.726,0.727-0.726h3.848
												c0.401,0,0.725,0.326,0.725,0.726C367.494,274.021,367.171,274.347,366.77,274.347z"/>
										</g>
										<g>
											<path fill="#FFFFFF" d="M389.821,274.347h-20.119c-0.401,0-0.725-0.325-0.725-0.726c0-0.399,0.323-0.726,0.725-0.726
												h20.119c0.401,0,0.728,0.326,0.728,0.726C390.549,274.021,390.223,274.347,389.821,274.347z"/>
										</g>
										<g>
											<path fill="#FFFFFF" d="M403.347,274.347h-10.376c-0.401,0-0.726-0.325-0.726-0.726c0-0.399,0.324-0.726,0.726-0.726
												h10.376c0.4,0,0.726,0.326,0.726,0.726C404.072,274.021,403.747,274.347,403.347,274.347z"/>
										</g>
									</g>
								</g>
							</g>
						</g>
					</g>
					<g>
						<g>
							<g>
								<path fill="#FFFFFF" d="M385.203,304.652h-22.281c-0.401,0-0.727-0.325-0.727-0.727c0-0.399,0.325-0.725,0.727-0.725h22.281
									c0.401,0,0.726,0.325,0.726,0.725C385.929,304.327,385.604,304.652,385.203,304.652z"/>
							</g>
						</g>
					</g>
					<g>
						<linearGradient id="SVGID_78_" gradientUnits="userSpaceOnUse" x1="384.6436" y1="275.7227" x2="384.6436" y2="327.5428">
							<stop  offset="0" style="stop-color:#FFDE39"/>
							<stop  offset="0.0935" style="stop-color:#FFC63C"/>
							<stop  offset="0.2863" style="stop-color:#FE9843"/>
							<stop  offset="0.4154" style="stop-color:#FE7D4B"/>
							<stop  offset="0.6521" style="stop-color:#FE4F59"/>
							<stop  offset="1" style="stop-color:#ED327F"/>
						</linearGradient>
						<path fill="url(#SVGID_78_)" d="M418.291,295.299h-67.295c-1.847,0-3.343-1.495-3.343-3.343v-6.365
							c0-1.847,1.496-3.342,3.343-3.342h67.295c1.847,0,3.343,1.495,3.343,3.342v6.365
							C421.634,293.804,420.138,295.299,418.291,295.299z"/>
						<g>
							<g>
								<path fill="#FFFFFF" d="M357.438,292.812h-4.176c-1.076,0-1.95-0.873-1.95-1.95v-4.176c0-1.077,0.874-1.949,1.95-1.949
									h4.176c1.077,0,1.949,0.872,1.949,1.949v4.176C359.388,291.938,358.516,292.812,357.438,292.812z"/>
								<g>
									<g>
										<g>
											<path fill="#FFFFFF" d="M364.661,287.359h-1.739c-0.401,0-0.727-0.325-0.727-0.726s0.325-0.726,0.727-0.726h1.739
												c0.401,0,0.727,0.325,0.727,0.726S365.063,287.359,364.661,287.359z"/>
										</g>
										<g>
											<path fill="#FFFFFF" d="M371.961,287.359h-4.832c-0.4,0-0.727-0.325-0.727-0.726s0.326-0.726,0.727-0.726h4.832
												c0.401,0,0.726,0.325,0.726,0.726S372.362,287.359,371.961,287.359z"/>
										</g>
									</g>
									<g>
										<g>
											<path fill="#FFFFFF" d="M390.156,291.641h-27.234c-0.401,0-0.727-0.325-0.727-0.727c0-0.4,0.325-0.727,0.727-0.727
												h27.234c0.4,0,0.726,0.326,0.726,0.727C390.882,291.315,390.557,291.641,390.156,291.641z"/>
										</g>
										<g>
											<path fill="#FFFFFF" d="M403.347,291.641h-10.376c-0.401,0-0.726-0.325-0.726-0.727c0-0.4,0.324-0.727,0.726-0.727
												h10.376c0.4,0,0.726,0.326,0.726,0.727C404.072,291.315,403.747,291.641,403.347,291.641z"/>
										</g>
									</g>
								</g>
							</g>
						</g>
					</g>
				</g>
			</g>
		</g>
	</g>
</g>
<g>
	<g>
		<g>
			<linearGradient id="SVGID_79_" gradientUnits="userSpaceOnUse" x1="406.5781" y1="84.2129" x2="447.6009" y2="20.5928">
				<stop  offset="0" style="stop-color:#FFDE39"/>
				<stop  offset="0.0935" style="stop-color:#FFC63C"/>
				<stop  offset="0.2863" style="stop-color:#FE9843"/>
				<stop  offset="0.4154" style="stop-color:#FE7D4B"/>
				<stop  offset="0.6521" style="stop-color:#FE4F59"/>
				<stop  offset="1" style="stop-color:#ED327F"/>
			</linearGradient>
			<path fill="url(#SVGID_79_)" d="M415.21,61.502v-4.322h4.322v-1.295h-6.745c-19.325,0-34.988,15.665-34.988,34.989l0,0
				c0,18.688,14.648,33.952,33.09,34.938V61.502H415.21z"/>
			<linearGradient id="SVGID_80_" gradientUnits="userSpaceOnUse" x1="471.8252" y1="126.2842" x2="512.8476" y2="62.6648">
				<stop  offset="0" style="stop-color:#FFDE39"/>
				<stop  offset="0.0935" style="stop-color:#FFC63C"/>
				<stop  offset="0.2863" style="stop-color:#FE9843"/>
				<stop  offset="0.4154" style="stop-color:#FE7D4B"/>
				<stop  offset="0.6521" style="stop-color:#FE4F59"/>
				<stop  offset="1" style="stop-color:#ED327F"/>
			</linearGradient>
			<path fill="url(#SVGID_80_)" d="M485.567,55.897v69.955c18.905-0.479,34.084-15.956,34.084-34.978l0,0
				C519.651,71.852,504.473,56.376,485.567,55.897z"/>
			<g>
				<g>
					<path fill="#FFFFFF" d="M498.894,67c-0.215,0-0.435-0.057-0.634-0.174c-4.279-2.532-9.186-3.869-14.188-3.869h-1.051
						c-0.688,0-1.244-0.559-1.244-1.246c0-0.688,0.556-1.245,1.244-1.245h1.051c5.448,0,10.793,1.458,15.458,4.216
						c0.591,0.35,0.787,1.115,0.438,1.707C499.733,66.781,499.319,67,498.894,67z"/>
				</g>
				<g>
					<path fill="#FFFFFF" d="M388.925,108.015c-0.406,0-0.806-0.199-1.045-0.565c-3.211-4.932-4.911-10.665-4.911-16.576
						c0-1.538,0.116-3.083,0.345-4.592c0.104-0.681,0.737-1.147,1.418-1.045c0.681,0.104,1.148,0.738,1.045,1.418
						c-0.209,1.386-0.316,2.806-0.316,4.22c0,5.428,1.559,10.689,4.507,15.216c0.376,0.576,0.213,1.348-0.363,1.723
						C389.393,107.95,389.157,108.015,388.925,108.015z"/>
				</g>
				<g>
					<path fill="#FFFFFF" d="M394.765,114.572c-0.281,0-0.563-0.094-0.795-0.287c-1.029-0.855-2.014-1.787-2.923-2.77
						c-0.467-0.504-0.436-1.293,0.07-1.759c0.504-0.468,1.292-0.437,1.759,0.068c0.836,0.903,1.738,1.759,2.685,2.544
						c0.529,0.439,0.602,1.225,0.164,1.753C395.477,114.418,395.123,114.572,394.765,114.572z"/>
				</g>
				<g>
					<path fill="#FFFFFF" d="M484.071,121.282h-2.379c-0.688,0-1.245-0.557-1.245-1.245c0-0.688,0.557-1.246,1.245-1.246h2.379
						c12.87,0,24.015-8.712,27.102-21.188c0.165-0.668,0.841-1.076,1.509-0.91c0.668,0.165,1.074,0.839,0.909,1.508
						C510.229,111.792,498.089,121.282,484.071,121.282z"/>
				</g>
				<g>
					<path fill="#FFFFFF" d="M506.252,73.183c-0.352,0-0.701-0.147-0.948-0.436c-0.955-1.119-2.009-2.171-3.129-3.126
						c-0.523-0.446-0.587-1.232-0.14-1.756c0.445-0.523,1.231-0.585,1.756-0.14c1.219,1.04,2.366,2.185,3.408,3.403
						c0.445,0.523,0.384,1.309-0.14,1.756C506.825,73.085,506.538,73.183,506.252,73.183z"/>
				</g>
			</g>
			<path fill="#BCBEC0" d="M485.567,55.897v-3.038h-66.035v3.026h65.131C484.965,55.885,485.268,55.889,485.567,55.897z"/>
			<path fill="#BCBEC0" d="M484.663,55.885h-65.131v1.295h61.712v68.683h3.419c0.302,0,0.604-0.004,0.904-0.012V55.897
				C485.268,55.889,484.965,55.885,484.663,55.885z"/>
			<rect x="415.21" y="57.181" fill="#E6E7E8" width="4.322" height="4.322"/>
			<polygon fill="#E6E7E8" points="476.923,61.502 476.923,125.863 481.244,125.863 481.244,57.181 419.532,57.181 419.532,61.502 
							"/>
			<path fill="#FFFFFF" d="M415.21,125.863V61.502h-4.321v64.309c0.629,0.034,1.261,0.052,1.898,0.052H415.21z"/>
			<path fill="#FFFFFF" d="M441.85,142.556c2.695-0.565,8.219-2.079,13.503-6.423h-8.905
				C444.836,139.646,442.578,141.87,441.85,142.556z"/>
			<polygon fill="#FFFFFF" points="416.465,112.165 419.532,112.165 419.532,61.502 415.21,61.502 415.21,125.863 416.465,125.863 
							"/>
			<path fill="#FFFFFF" d="M446.447,136.133h8.905c0.669-0.55,1.336-1.144,1.99-1.789c0.854-0.841,1.616-1.691,2.297-2.533h-11.799
				C447.531,133.416,447.032,134.858,446.447,136.133z"/>
			<polygon fill="#FFFFFF" points="419.532,61.502 419.532,112.165 471.349,112.165 471.349,125.863 476.923,125.863 
				476.923,61.502 			"/>
			<path fill="#FFFFFF" d="M448.125,129.665c-0.056,0.743-0.151,1.46-0.284,2.146h11.799c0.587-0.727,1.11-1.446,1.582-2.146
				H448.125z"/>
			<rect x="416.465" y="112.165" fill="#FFFFFF" width="3.067" height="13.698"/>
			<path fill="#FFFFFF" d="M448.017,125.863c-0.418-3.202-1.568-5.624-2.271-6.899l17.998,6.171
				c-0.104,0.233-0.219,0.478-0.341,0.728h7.945v-13.698h-51.816v13.698H448.017z"/>
			<path fill="#FFFFFF" d="M448.017,125.863c0.132,1.007,0.193,2.089,0.143,3.24c-0.008,0.189-0.021,0.376-0.034,0.562h13.097
				c0.923-1.374,1.636-2.671,2.182-3.802H448.017z"/>
			<path fill="#FFFFFF" d="M463.744,125.135l-17.998-6.171c0.702,1.275,1.853,3.697,2.271,6.899h15.387
				C463.525,125.613,463.64,125.368,463.744,125.135z"/>
			<linearGradient id="SVGID_81_" gradientUnits="userSpaceOnUse" x1="443.9063" y1="110.5396" x2="443.9063" y2="6.6438">
				<stop  offset="0" style="stop-color:#E6E7E8"/>
				<stop  offset="1" style="stop-color:#BCBEC0"/>
			</linearGradient>
			<path fill="url(#SVGID_81_)" d="M419.532,112.165h-3.067v13.698h3.067h28.484c0.132,1.007,0.193,2.089,0.143,3.24
				c-0.008,0.189-0.021,0.376-0.034,0.562h13.097c0.923-1.374,1.636-2.671,2.182-3.802h7.945v-13.698H419.532z"/>
		</g>
		<g>
			<g>
				<g>
					<linearGradient id="SVGID_82_" gradientUnits="userSpaceOnUse" x1="428.1611" y1="118.3208" x2="428.1611" y2="77.3642">
						<stop  offset="0" style="stop-color:#E6E7E8"/>
						<stop  offset="1" style="stop-color:#BCBEC0"/>
					</linearGradient>
					<path fill="url(#SVGID_82_)" d="M429.562,76.196h-2.8c-0.393,0-0.711-0.322-0.711-0.72c0-0.398,0.318-0.721,0.711-0.721h2.8
						c0.393,0,0.71,0.322,0.71,0.721C430.271,75.874,429.954,76.196,429.562,76.196z"/>
				</g>
				<g>
					<linearGradient id="SVGID_83_" gradientUnits="userSpaceOnUse" x1="420.751" y1="118.3208" x2="420.751" y2="77.3642">
						<stop  offset="0" style="stop-color:#E6E7E8"/>
						<stop  offset="1" style="stop-color:#BCBEC0"/>
					</linearGradient>
					<path fill="url(#SVGID_83_)" d="M424.298,76.196h-7.092c-0.394,0-0.712-0.322-0.712-0.72c0-0.398,0.318-0.721,0.712-0.721
						h7.092c0.393,0,0.71,0.322,0.71,0.721C425.008,75.874,424.69,76.196,424.298,76.196z"/>
				</g>
			</g>
			<g>
				<g>
					<linearGradient id="SVGID_84_" gradientUnits="userSpaceOnUse" x1="457.3008" y1="118.3335" x2="457.3008" y2="77.363">
						<stop  offset="0" style="stop-color:#E6E7E8"/>
						<stop  offset="1" style="stop-color:#BCBEC0"/>
					</linearGradient>
					<path fill="url(#SVGID_84_)" d="M470.666,82.345h-26.729c-0.395,0-0.713-0.322-0.713-0.72s0.318-0.721,0.713-0.721h26.729
						c0.393,0,0.711,0.323,0.711,0.721S471.059,82.345,470.666,82.345z"/>
				</g>
				<g>
					<linearGradient id="SVGID_85_" gradientUnits="userSpaceOnUse" x1="428.9023" y1="118.3335" x2="428.9023" y2="77.363">
						<stop  offset="0" style="stop-color:#E6E7E8"/>
						<stop  offset="1" style="stop-color:#BCBEC0"/>
					</linearGradient>
					<path fill="url(#SVGID_85_)" d="M440.601,82.345h-23.395c-0.394,0-0.712-0.322-0.712-0.72s0.318-0.721,0.712-0.721h23.395
						c0.392,0,0.711,0.323,0.711,0.721S440.992,82.345,440.601,82.345z"/>
				</g>
			</g>
			<g>
				<g>
					<linearGradient id="SVGID_86_" gradientUnits="userSpaceOnUse" x1="463.0273" y1="118.3115" x2="463.0273" y2="77.3688">
						<stop  offset="0" style="stop-color:#E6E7E8"/>
						<stop  offset="1" style="stop-color:#BCBEC0"/>
					</linearGradient>
					<path fill="url(#SVGID_86_)" d="M470.666,88.495h-15.277c-0.394,0-0.71-0.322-0.71-0.72c0-0.397,0.316-0.72,0.71-0.72h15.277
						c0.393,0,0.711,0.322,0.711,0.72C471.377,88.172,471.059,88.495,470.666,88.495z"/>
				</g>
				<g>
					<linearGradient id="SVGID_87_" gradientUnits="userSpaceOnUse" x1="444.1172" y1="118.3115" x2="444.1172" y2="77.3688">
						<stop  offset="0" style="stop-color:#E6E7E8"/>
						<stop  offset="1" style="stop-color:#BCBEC0"/>
					</linearGradient>
					<path fill="url(#SVGID_87_)" d="M452.468,88.495h-16.7c-0.393,0-0.712-0.322-0.712-0.72c0-0.397,0.319-0.72,0.712-0.72h16.7
						c0.393,0,0.711,0.322,0.711,0.72C453.179,88.172,452.86,88.495,452.468,88.495z"/>
				</g>
				<g>
					<linearGradient id="SVGID_88_" gradientUnits="userSpaceOnUse" x1="424.8545" y1="118.3115" x2="424.8545" y2="77.3688">
						<stop  offset="0" style="stop-color:#E6E7E8"/>
						<stop  offset="1" style="stop-color:#BCBEC0"/>
					</linearGradient>
					<path fill="url(#SVGID_88_)" d="M432.505,88.495h-15.299c-0.394,0-0.712-0.322-0.712-0.72c0-0.397,0.318-0.72,0.712-0.72
						h15.299c0.393,0,0.71,0.322,0.71,0.72C433.215,88.172,432.897,88.495,432.505,88.495z"/>
				</g>
			</g>
			<g>
				<g>
					<linearGradient id="SVGID_89_" gradientUnits="userSpaceOnUse" x1="454.0957" y1="118.332" x2="454.0957" y2="77.3588">
						<stop  offset="0" style="stop-color:#E6E7E8"/>
						<stop  offset="1" style="stop-color:#BCBEC0"/>
					</linearGradient>
					<path fill="url(#SVGID_89_)" d="M470.713,94.588h-33.189c-0.363,0-0.692-0.272-0.709-0.635
						c-0.016-0.381,0.289-0.695,0.665-0.695h33.189c0.364,0,0.693,0.272,0.708,0.635C471.394,94.274,471.09,94.588,470.713,94.588z"
						/>
				</g>
				<g>
					<linearGradient id="SVGID_90_" gradientUnits="userSpaceOnUse" x1="428.0039" y1="118.3315" x2="428.0039" y2="77.3586">
						<stop  offset="0" style="stop-color:#E6E7E8"/>
						<stop  offset="1" style="stop-color:#BCBEC0"/>
					</linearGradient>
					<path fill="url(#SVGID_90_)" d="M435.62,94.588h-15.189c-0.361,0-0.69-0.272-0.707-0.635c-0.016-0.381,0.287-0.695,0.665-0.695
						h15.188c0.364,0,0.692,0.272,0.708,0.635C436.301,94.274,435.997,94.588,435.62,94.588z"/>
				</g>
				<g>
					<linearGradient id="SVGID_91_" gradientUnits="userSpaceOnUse" x1="417.8105" y1="118.332" x2="417.8105" y2="77.3587">
						<stop  offset="0" style="stop-color:#E6E7E8"/>
						<stop  offset="1" style="stop-color:#BCBEC0"/>
					</linearGradient>
					<path fill="url(#SVGID_91_)" d="M418.46,94.588h-1.257c-0.364,0-0.691-0.272-0.708-0.635c-0.017-0.381,0.287-0.695,0.664-0.695
						h1.258c0.362,0,0.691,0.272,0.708,0.635C419.142,94.274,418.837,94.588,418.46,94.588z"/>
				</g>
			</g>
			<g>
				<g>
					<linearGradient id="SVGID_92_" gradientUnits="userSpaceOnUse" x1="447.0234" y1="118.3164" x2="447.0234" y2="77.3736">
						<stop  offset="0" style="stop-color:#E6E7E8"/>
						<stop  offset="1" style="stop-color:#BCBEC0"/>
					</linearGradient>
					<path fill="url(#SVGID_92_)" d="M470.713,100.737H423.38c-0.363,0-0.691-0.272-0.709-0.635
						c-0.016-0.381,0.287-0.694,0.665-0.694h47.333c0.364,0,0.693,0.271,0.708,0.634
						C471.394,100.424,471.09,100.737,470.713,100.737z"/>
				</g>
				<g>
					<linearGradient id="SVGID_93_" gradientUnits="userSpaceOnUse" x1="419.2246" y1="118.3164" x2="419.2246" y2="77.3733">
						<stop  offset="0" style="stop-color:#E6E7E8"/>
						<stop  offset="1" style="stop-color:#BCBEC0"/>
					</linearGradient>
					<path fill="url(#SVGID_93_)" d="M421.29,100.737h-4.087c-0.364,0-0.691-0.272-0.708-0.635
						c-0.017-0.381,0.287-0.695,0.664-0.694h4.087c0.364,0,0.692,0.271,0.709,0.634C421.971,100.424,421.666,100.737,421.29,100.737
						z"/>
				</g>
			</g>
			<g>
				<g>
					<linearGradient id="SVGID_94_" gradientUnits="userSpaceOnUse" x1="459.2109" y1="118.3193" x2="459.2109" y2="77.3765">
						<stop  offset="0" style="stop-color:#E6E7E8"/>
						<stop  offset="1" style="stop-color:#BCBEC0"/>
					</linearGradient>
					<path fill="url(#SVGID_94_)" d="M470.713,106.887h-22.961c-0.364,0-0.692-0.272-0.707-0.635
						c-0.018-0.381,0.286-0.694,0.663-0.694h22.961c0.364,0,0.693,0.271,0.708,0.633
						C471.394,106.572,471.09,106.887,470.713,106.887z"/>
				</g>
				<g>
					<linearGradient id="SVGID_95_" gradientUnits="userSpaceOnUse" x1="431.3945" y1="118.3193" x2="431.3945" y2="77.3762">
						<stop  offset="0" style="stop-color:#E6E7E8"/>
						<stop  offset="1" style="stop-color:#BCBEC0"/>
					</linearGradient>
					<path fill="url(#SVGID_95_)" d="M445.632,106.887h-28.429c-0.364,0-0.691-0.272-0.708-0.635
						c-0.017-0.381,0.287-0.694,0.664-0.694h28.428c0.363,0,0.691,0.271,0.708,0.633
						C446.312,106.572,446.008,106.887,445.632,106.887z"/>
				</g>
			</g>
		</g>
	</g>
	<g>
		<linearGradient id="SVGID_96_" gradientUnits="userSpaceOnUse" x1="419.6279" y1="68.9844" x2="440.2646" y2="68.9844">
			<stop  offset="0" style="stop-color:#42E397"/>
			<stop  offset="1" style="stop-color:#3CB6B5"/>
		</linearGradient>
		<circle fill="url(#SVGID_96_)" cx="418.019" cy="68.984" r="1.524"/>
		<linearGradient id="SVGID_97_" gradientUnits="userSpaceOnUse" x1="419.6299" y1="68.9844" x2="440.26" y2="68.9844">
			<stop  offset="0" style="stop-color:#42E397"/>
			<stop  offset="1" style="stop-color:#3CB6B5"/>
		</linearGradient>
		<circle fill="url(#SVGID_97_)" cx="423.369" cy="68.984" r="1.524"/>
		<linearGradient id="SVGID_98_" gradientUnits="userSpaceOnUse" x1="419.6279" y1="68.9844" x2="440.2646" y2="68.9844">
			<stop  offset="0" style="stop-color:#42E397"/>
			<stop  offset="1" style="stop-color:#3CB6B5"/>
		</linearGradient>
		<circle fill="url(#SVGID_98_)" cx="428.718" cy="68.984" r="1.524"/>
	</g>
	<g>
		<g>
			<path fill="#939598" d="M470.286,68.557c-1.934,0-3.505-1.572-3.505-3.504v-6.025c0-1.932,1.571-3.504,3.505-3.504
				c1.931,0,3.504,1.573,3.504,3.504v2.475h-1.563v-2.475c0-1.07-0.871-1.94-1.94-1.94c-1.071,0-1.942,0.87-1.942,1.94v6.025
				c0,1.07,0.871,1.94,1.942,1.94c1.069,0,1.94-0.871,1.94-1.94h1.563C473.79,66.985,472.217,68.557,470.286,68.557z"/>
		</g>
		<g>
			<path fill="#939598" d="M473.008,66.18c-0.432,0-0.781-0.351-0.781-0.782v-1.219c0-0.432,0.35-0.782,0.781-0.782
				c0.433,0,0.782,0.351,0.782,0.782v1.219C473.79,65.829,473.44,66.18,473.008,66.18z"/>
		</g>
	</g>
</g>
<g>
	<path fill="#FFFFFF" d="M290.142,391.885H140.725c-1.16,0-2.1-0.939-2.1-2.101c0-1.16,0.94-2.1,2.1-2.1h149.417
		c1.16,0,2.1,0.939,2.1,2.1C292.242,390.945,291.302,391.885,290.142,391.885z"/>
</g>
</svg>
