<?xml version="1.0" encoding="utf-8"?>
<!-- Generator: Adobe Illustrator 16.0.3, SVG Export Plug-In . SVG Version: 6.00 Build 0)  -->
<!DOCTYPE svg PUBLIC "-//W3C//DTD SVG 1.1//EN" "http://www.w3.org/Graphics/SVG/1.1/DTD/svg11.dtd">
<svg version="1.1" id="Ebene_1" xmlns="http://www.w3.org/2000/svg" xmlns:xlink="http://www.w3.org/1999/xlink" x="0px" y="0px"
	 width="607px" height="435px" viewBox="0 0 607 435" enable-background="new 0 0 607 435" xml:space="preserve">
<linearGradient id="SVGID_1_" gradientUnits="userSpaceOnUse" x1="-71.0942" y1="289.2119" x2="422.6554" y2="198.5812">
	<stop  offset="0" style="stop-color:#582D7F"/>
	<stop  offset="0.2125" style="stop-color:#4B5194"/>
	<stop  offset="0.7538" style="stop-color:#2AA7C8"/>
	<stop  offset="1" style="stop-color:#1DC9DC"/>
</linearGradient>
<circle fill="url(#SVGID_1_)" cx="521.5" cy="180.436" r="35.871"/>
<linearGradient id="SVGID_2_" gradientUnits="userSpaceOnUse" x1="-106.1719" y1="209.4248" x2="387.5738" y2="118.7948">
	<stop  offset="0" style="stop-color:#582D7F"/>
	<stop  offset="0.2125" style="stop-color:#4B5194"/>
	<stop  offset="0.7538" style="stop-color:#2AA7C8"/>
	<stop  offset="1" style="stop-color:#1DC9DC"/>
</linearGradient>
<circle fill="url(#SVGID_2_)" cx="94.667" cy="172.559" r="13.939"/>
<linearGradient id="SVGID_3_" gradientUnits="userSpaceOnUse" x1="-90.7017" y1="281.0166" x2="403.0535" y2="190.3849">
	<stop  offset="0" style="stop-color:#582D7F"/>
	<stop  offset="0.2125" style="stop-color:#4B5194"/>
	<stop  offset="0.7538" style="stop-color:#2AA7C8"/>
	<stop  offset="1" style="stop-color:#1DC9DC"/>
</linearGradient>
<ellipse fill="url(#SVGID_3_)" cx="122.305" cy="241.917" rx="19.366" ry="29.9"/>
<g>
	<linearGradient id="SVGID_4_" gradientUnits="userSpaceOnUse" x1="120.4653" y1="214.1797" x2="519.8232" y2="214.1797">
		<stop  offset="0" style="stop-color:#582D7F"/>
		<stop  offset="0.2125" style="stop-color:#4B5194"/>
		<stop  offset="0.7538" style="stop-color:#2AA7C8"/>
		<stop  offset="1" style="stop-color:#1DC9DC"/>
	</linearGradient>
	<path fill="url(#SVGID_4_)" d="M149.921,255.668c7.286-33.793-14.395-56.313-24.834-88.771
		c-7.672-23.854-4.381-59.758,23.206-71.463c24.184-10.261,50.75-15.894,75.098-26.424c31.208-13.498,61.124-30.325,94.959-37.371
		c34.298-7.142,70.569-6.027,104.183,3.667c16.382,4.724,32.362,11.545,45.268,22.162c18.681,15.367,26.441,38.249,24.345,61.182
		c-2.24,24.524-17.263,46.544-17.558,71.356c-0.271,22.798,14.995,41.745,26.123,60.811c12.432,21.298,20.421,43.341,18.936,68.007
		c-1.797,29.825-16.452,65.543-47.844,77.457c-31.164,11.828-66.142-3.318-95.915-12.096c-29.916-8.82-58.004-6.77-88.212-0.382
		c-39.566,8.365-86.532,26.791-126.6,11.893c-23.08-8.582-38.985-28.449-40.49-51.829c-1.849-28.712,18.104-53.641,27.037-79.938
		C148.584,261.096,149.344,258.347,149.921,255.668z"/>
	<g>
		<linearGradient id="SVGID_5_" gradientUnits="userSpaceOnUse" x1="121.5015" y1="187.0693" x2="187.2256" y2="187.0693">
			<stop  offset="0" style="stop-color:#582D7F"/>
			<stop  offset="0.2125" style="stop-color:#4B5194"/>
			<stop  offset="0.7538" style="stop-color:#2AA7C8"/>
			<stop  offset="1" style="stop-color:#1DC9DC"/>
		</linearGradient>
		<path fill="url(#SVGID_5_)" d="M185.584,221.541c-3.446-10.29-11.724-17.744-18.248-26.206
			c-6.524-8.462-11.567-20.188-7.17-30.065c2.414-5.423,7.375-9.426,8.966-15.178c2.753-9.95-5.418-19.052-10.316-28.034
			c-4.697-8.614-6.579-18.893-5.334-28.742c-1.74,0.686-3.472,1.389-5.19,2.118c-27.587,11.705-30.878,47.609-23.206,71.463
			c10.439,32.458,32.121,54.979,24.834,88.771c-0.578,2.679-1.337,5.428-2.299,8.259c-1.929,5.68-4.373,11.294-6.999,16.897
			c12.099-3.886,23.966-9.146,33.13-18.241C184.193,252.221,190.362,235.809,185.584,221.541z"/>
		<linearGradient id="SVGID_6_" gradientUnits="userSpaceOnUse" x1="120.4653" y1="362.4277" x2="262.707" y2="362.4277">
			<stop  offset="0" style="stop-color:#582D7F"/>
			<stop  offset="0.2125" style="stop-color:#4B5194"/>
			<stop  offset="0.7538" style="stop-color:#2AA7C8"/>
			<stop  offset="1" style="stop-color:#1DC9DC"/>
		</linearGradient>
		<path fill="url(#SVGID_6_)" d="M262.707,371.87c-3.434-1.041-6.936-1.849-10.5-2.39c-23.203-3.521-46.505,4.402-69.926,5.454
			c-7.825,0.352-16.016-0.166-22.835-4.234c-7.237-4.319-11.992-12.061-15.976-19.769c-3.984-7.707-7.605-15.849-13.551-21.985
			c-2.106-2.173-4.601-4.046-7.286-5.419c-1.655,6.604-2.496,13.359-2.047,20.338c1.505,23.38,17.41,43.247,40.49,51.829
			c22.316,8.297,46.772,6.256,70.897,1.376C241.081,387.218,251.421,378.557,262.707,371.87z"/>
		<linearGradient id="SVGID_7_" gradientUnits="userSpaceOnUse" x1="297.394" y1="62.667" x2="462.415" y2="62.667">
			<stop  offset="0" style="stop-color:#582D7F"/>
			<stop  offset="0.2125" style="stop-color:#4B5194"/>
			<stop  offset="0.7538" style="stop-color:#2AA7C8"/>
			<stop  offset="1" style="stop-color:#1DC9DC"/>
		</linearGradient>
		<path fill="url(#SVGID_7_)" d="M325.217,39.264c5.028-1.66,9.735-4.396,14.893-5.529c14.677-3.227,28.977,7.12,39.008,18.892
			c10.031,11.771,18.277,25.806,31.103,34.007c11.534,7.375,25.416,9.131,38.832,10.522c4.44,0.46,8.902,0.896,13.363,1.148
			c-7.442-16.569-12.116-34.52-13.429-52.9c-8.389-4.206-17.358-7.476-26.452-10.099c-33.614-9.694-69.886-10.809-104.184-3.667
			c-7.145,1.488-14.112,3.416-20.957,5.652C306.057,41.404,316.137,42.261,325.217,39.264z"/>
		<linearGradient id="SVGID_8_" gradientUnits="userSpaceOnUse" x1="448.9863" y1="71.9653" x2="490.8594" y2="71.9653">
			<stop  offset="0" style="stop-color:#582D7F"/>
			<stop  offset="0.2125" style="stop-color:#4B5194"/>
			<stop  offset="0.7538" style="stop-color:#2AA7C8"/>
			<stop  offset="1" style="stop-color:#1DC9DC"/>
		</linearGradient>
		<path fill="url(#SVGID_8_)" d="M482.625,97.614c2.767-0.428,5.528-1.042,8.234-1.857c-3.097-14.616-10.676-28.104-23.059-38.291
			c-5.74-4.723-12.092-8.693-18.814-12.063c1.313,18.38,5.986,36.331,13.429,52.9C469.176,98.687,475.938,98.649,482.625,97.614z"/>
		<linearGradient id="SVGID_9_" gradientUnits="userSpaceOnUse" x1="462.415" y1="116.9473" x2="492.4775" y2="116.9473">
			<stop  offset="0" style="stop-color:#582D7F"/>
			<stop  offset="0.2125" style="stop-color:#4B5194"/>
			<stop  offset="0.7538" style="stop-color:#2AA7C8"/>
			<stop  offset="1" style="stop-color:#1DC9DC"/>
		</linearGradient>
		<path fill="url(#SVGID_9_)" d="M462.415,98.304c6.542,14.562,15.221,28.057,25.641,39.834c1.937-6.383,3.482-12.844,4.09-19.489
			c0.707-7.732,0.288-15.457-1.286-22.891c-2.706,0.815-5.468,1.429-8.234,1.857C475.938,98.649,469.176,98.687,462.415,98.304z"/>
		<linearGradient id="SVGID_10_" gradientUnits="userSpaceOnUse" x1="262.707" y1="370.7402" x2="369.9063" y2="370.7402">
			<stop  offset="0" style="stop-color:#582D7F"/>
			<stop  offset="0.2125" style="stop-color:#4B5194"/>
			<stop  offset="0.7538" style="stop-color:#2AA7C8"/>
			<stop  offset="1" style="stop-color:#1DC9DC"/>
		</linearGradient>
		<path fill="url(#SVGID_10_)" d="M295.475,359.144c-11.555,2.234-22.548,6.673-32.768,12.727
			c8.715,2.644,16.989,6.805,24.735,11.982c0.078-0.019,0.155-0.034,0.233-0.051c28.187-5.96,54.529-8.142,82.231-1.241
			C351.475,361.962,322.024,354.007,295.475,359.144z"/>
		<linearGradient id="SVGID_11_" gradientUnits="userSpaceOnUse" x1="457.5527" y1="306.5273" x2="519.8232" y2="306.5273">
			<stop  offset="0" style="stop-color:#582D7F"/>
			<stop  offset="0.2125" style="stop-color:#4B5194"/>
			<stop  offset="0.7538" style="stop-color:#2AA7C8"/>
			<stop  offset="1" style="stop-color:#1DC9DC"/>
		</linearGradient>
		<path fill="url(#SVGID_11_)" d="M500.711,250.815c-1.186-2.032-2.419-4.063-3.675-6.097c-0.637,2.566-0.938,5.202-0.773,7.912
			c0.6,9.851,7.292,18.382,8.032,28.222c0.705,9.365-4.146,18.278-10.188,25.169c-6.042,6.893-13.371,12.423-19.366,19.359
			c-10.105,11.693-16.005,27.161-17.188,42.955c0.857-0.376,1.707-0.784,2.545-1.229c9.479-5.036,16.451-14.206,25.623-19.842
			c5.757-3.538,12.249-5.589,18.82-6.728c3.902-0.676,7.9-1.026,11.86-0.896c1.77-7.012,2.838-14.065,3.245-20.818
			C521.132,294.156,513.142,272.113,500.711,250.815z"/>
		<linearGradient id="SVGID_12_" gradientUnits="userSpaceOnUse" x1="457.3252" y1="369.4668" x2="516.4014" y2="369.4668">
			<stop  offset="0" style="stop-color:#582D7F"/>
			<stop  offset="0.2125" style="stop-color:#4B5194"/>
			<stop  offset="0.7538" style="stop-color:#2AA7C8"/>
			<stop  offset="1" style="stop-color:#1DC9DC"/>
		</linearGradient>
		<path fill="url(#SVGID_12_)" d="M504.541,340.537c-6.571,1.139-13.063,3.189-18.82,6.728
			c-9.172,5.636-16.144,14.806-25.623,19.842c-0.838,0.445-1.688,0.854-2.545,1.229c-0.067,0.897-0.123,1.797-0.16,2.695
			c-0.39,9.563,0.913,19.146,3.614,28.288c3.639-0.696,7.242-1.691,10.796-3.04c24.285-9.218,38.551-32.68,44.599-56.639
			C512.441,339.511,508.443,339.861,504.541,340.537z"/>
		<linearGradient id="SVGID_13_" gradientUnits="userSpaceOnUse" x1="231.9727" y1="384.4707" x2="287.4424" y2="384.4707">
			<stop  offset="0" style="stop-color:#582D7F"/>
			<stop  offset="0.2125" style="stop-color:#4B5194"/>
			<stop  offset="0.7538" style="stop-color:#2AA7C8"/>
			<stop  offset="1" style="stop-color:#1DC9DC"/>
		</linearGradient>
		<path fill="url(#SVGID_13_)" d="M231.973,397.07c19.106-3.866,38.005-9.512,55.47-13.218c-7.746-5.178-16.02-9.339-24.735-11.982
			C251.421,378.557,241.081,387.218,231.973,397.07z"/>
		<linearGradient id="SVGID_14_" gradientUnits="userSpaceOnUse" x1="391.4824" y1="384.4766" x2="461.0068" y2="384.4766">
			<stop  offset="0" style="stop-color:#582D7F"/>
			<stop  offset="0.2125" style="stop-color:#4B5194"/>
			<stop  offset="0.7538" style="stop-color:#2AA7C8"/>
			<stop  offset="1" style="stop-color:#1DC9DC"/>
		</linearGradient>
		<path fill="url(#SVGID_14_)" d="M457.393,371.031c0.037-0.898,0.093-1.798,0.16-2.695c-12.862,5.632-27.821,3.867-41.502,7.315
			c-9.053,2.282-17.54,6.956-24.568,13.397c22.396,7.145,46.673,14.646,69.524,10.271
			C458.306,390.178,457.003,380.595,457.393,371.031z"/>
	</g>
</g>
<g>
	<g>
		
			<linearGradient id="SVGID_15_" gradientUnits="userSpaceOnUse" x1="171.6245" y1="-277.3066" x2="119.5885" y2="-277.3066" gradientTransform="matrix(1 0.0035 -0.0035 1 246.3779 524.3013)">
			<stop  offset="0" style="stop-color:#F1F2F2"/>
			<stop  offset="1" style="stop-color:#FFFFFF"/>
		</linearGradient>
		<path fill="url(#SVGID_15_)" d="M418.372,374.664l-160.597-0.563l0.892-254.138l160.597,0.563c2.651,0.01,4.794,2.167,4.784,4.819
			l-0.857,244.533C423.182,372.531,421.023,374.674,418.372,374.664z"/>
		
			<linearGradient id="SVGID_16_" gradientUnits="userSpaceOnUse" x1="94.499" y1="-277.0737" x2="252.0031" y2="-277.0737" gradientTransform="matrix(1 0.0035 -0.0035 1 246.3779 524.3013)">
			<stop  offset="0" style="stop-color:#FFDE39"/>
			<stop  offset="0.0935" style="stop-color:#FFC63C"/>
			<stop  offset="0.2863" style="stop-color:#FE9843"/>
			<stop  offset="0.4154" style="stop-color:#FE7D4B"/>
			<stop  offset="0.6521" style="stop-color:#FE4F59"/>
			<stop  offset="1" style="stop-color:#ED327F"/>
		</linearGradient>
		<path fill="url(#SVGID_16_)" d="M421.485,195.569l-8.601-0.03l0.187-53.404c0.011-3.221-2.591-5.842-5.813-5.853l-30.871-0.108
			l-0.782,223.01l30.871,0.108c3.222,0.011,5.842-2.591,5.854-5.813l0.334-95.219l8.602,0.031c4.358,0.015,7.904-3.506,7.919-7.865
			l0.165-46.937C429.365,199.13,425.844,195.584,421.485,195.569z"/>
		
			<linearGradient id="SVGID_17_" gradientUnits="userSpaceOnUse" x1="36.3208" y1="-277.0742" x2="192.7254" y2="-277.0742" gradientTransform="matrix(1 0.0035 -0.0035 1 246.3779 524.3013)">
			<stop  offset="0" style="stop-color:#FFDE39"/>
			<stop  offset="0.0935" style="stop-color:#FFC63C"/>
			<stop  offset="0.2863" style="stop-color:#FE9843"/>
			<stop  offset="0.4154" style="stop-color:#FE7D4B"/>
			<stop  offset="0.6521" style="stop-color:#FE4F59"/>
			<stop  offset="1" style="stop-color:#ED327F"/>
		</linearGradient>
		<path fill="url(#SVGID_17_)" d="M410.471,275.089l-9.008-0.032l0.488-139.254c0.012-3.338-2.685-6.054-6.022-6.065l-32.801-0.115
			L362.3,365.641l32.801,0.114c3.338,0.013,6.054-2.685,6.065-6.022l0.064-18.296l9.008,0.033c4.665,0.016,8.461-3.754,8.477-8.418
			l0.174-49.486C418.905,278.9,415.136,275.105,410.471,275.089z"/>
		<g>
			
				<linearGradient id="SVGID_18_" gradientUnits="userSpaceOnUse" x1="-63.0044" y1="-277.3076" x2="-2.6008" y2="-277.3076" gradientTransform="matrix(1 0.0035 -0.0035 1 246.3779 524.3013)">
				<stop  offset="0" style="stop-color:#FC9E18"/>
				<stop  offset="0.3131" style="stop-color:#FCAF18"/>
				<stop  offset="1" style="stop-color:#FCD118"/>
			</linearGradient>
			<path fill="url(#SVGID_18_)" d="M224.257,127.973l-0.834,237.876c-0.016,4.491,3.611,8.145,8.102,8.159l15.564,0.055
				l0.892-254.138l-15.564-0.055C227.926,119.856,224.273,123.483,224.257,127.973z"/>
			<linearGradient id="SVGID_19_" gradientUnits="userSpaceOnUse" x1="228.1255" y1="368.873" x2="399.1812" y2="138.3724">
				<stop  offset="0" style="stop-color:#42E397"/>
				<stop  offset="1" style="stop-color:#3CB6B5"/>
			</linearGradient>
			<polygon fill="url(#SVGID_19_)" points="389.685,120.423 247.98,119.926 247.089,374.063 388.793,374.562 			"/>
			<g opacity="0.86">
				<linearGradient id="SVGID_20_" gradientUnits="userSpaceOnUse" x1="265.0522" y1="191.3457" x2="372.1143" y2="191.3457">
					<stop  offset="0" style="stop-color:#F1F2F2"/>
					<stop  offset="1" style="stop-color:#FFFFFF"/>
				</linearGradient>
				<path fill="url(#SVGID_20_)" d="M366.716,225.703l-96.505-0.338c-2.859-0.011-5.168-2.336-5.158-5.195l0.204-58.024
					c0.01-2.859,2.335-5.168,5.195-5.158l96.504,0.338c2.859,0.01,5.169,2.336,5.159,5.195l-0.204,58.024
					C371.9,223.404,369.575,225.713,366.716,225.703z"/>
			</g>
			<linearGradient id="SVGID_21_" gradientUnits="userSpaceOnUse" x1="308.1611" y1="189.2803" x2="294.3763" y2="235.3733">
				<stop  offset="0" style="stop-color:#F1F2F2"/>
				<stop  offset="1" style="stop-color:#FFFFFF"/>
			</linearGradient>
			<path opacity="0.8" fill="url(#SVGID_21_)" d="M328.976,187.679c-34.099-5.012-56.951,23.827-63.7,33.716
				c0.667,2.286,2.771,3.962,5.273,3.972l41.835,0.146C320.057,212.922,357.894,191.929,328.976,187.679z"/>
			<linearGradient id="SVGID_22_" gradientUnits="userSpaceOnUse" x1="271.4697" y1="246.2861" x2="289.9933" y2="230.7781">
				<stop  offset="0" style="stop-color:#F1F2F2"/>
				<stop  offset="1" style="stop-color:#FFFFFF"/>
			</linearGradient>
			<path opacity="0.8" fill="url(#SVGID_22_)" d="M371.912,220.207l0.085-24.326c-1.928-0.19-4.175-0.095-6.795,0.418
				c-14.861,2.913-51.718,41.996-64.534,16.149c-9.447-19.053-26.959-21.482-35.513-21.444l-0.101,28.828
				c-0.011,3.045,2.449,5.523,5.495,5.534l95.83,0.335C369.424,225.712,371.9,223.252,371.912,220.207z"/>
			<linearGradient id="SVGID_23_" gradientUnits="userSpaceOnUse" x1="349.8721" y1="214.8784" x2="372.4875" y2="239.8631">
				<stop  offset="0" style="stop-color:#F1F2F2"/>
				<stop  offset="1" style="stop-color:#FFFFFF"/>
			</linearGradient>
			<path opacity="0.8" fill="url(#SVGID_23_)" d="M366.378,225.701c3.046,0.011,5.522-2.449,5.534-5.494l0.045-12.708
				c-6.824-0.08-15.427-5.894-26.827-2.58c-9.115,2.649-12.85,12.169-14.338,20.657L366.378,225.701z"/>
			<g>
				<path fill="#D1D3D4" d="M234.621,176.86l-19.015-0.067c-2.117-0.007-3.827-1.729-3.819-3.846l0.002-0.5
					c0.007-2.117,1.729-3.827,3.846-3.819l19.014,0.067c0.981,0.003,1.774,0.801,1.771,1.783l-0.016,4.612
					C236.401,176.071,235.602,176.864,234.621,176.86z"/>
				<path fill="#D1D3D4" d="M234.447,226.308l-19.015-0.066c-2.116-0.008-3.826-1.729-3.819-3.846l0.001-0.501
					c0.007-2.116,1.729-3.826,3.846-3.818l19.014,0.066c0.982,0.004,1.774,0.802,1.771,1.783l-0.017,4.611
					C236.227,225.519,235.429,226.312,234.447,226.308z"/>
				<path fill="#D1D3D4" d="M234.274,275.756l-19.015-0.066c-2.117-0.009-3.827-1.73-3.819-3.847l0.002-0.501
					c0.007-2.117,1.729-3.826,3.846-3.818l19.015,0.066c0.981,0.003,1.774,0.802,1.771,1.783l-0.017,4.611
					C236.053,274.966,235.255,275.758,234.274,275.756z"/>
				<path fill="#D1D3D4" d="M234.101,325.203l-19.015-0.067c-2.117-0.007-3.826-1.729-3.819-3.847l0.002-0.499
					c0.007-2.117,1.729-3.827,3.846-3.819l19.014,0.066c0.981,0.003,1.774,0.803,1.771,1.782l-0.016,4.613
					C235.88,324.413,235.082,325.206,234.101,325.203z"/>
			</g>
		</g>
		
			<linearGradient id="SVGID_24_" gradientUnits="userSpaceOnUse" x1="324.4199" y1="283.6709" x2="289.5282" y2="348.9315" gradientTransform="matrix(0.9999 -0.015 0.015 0.9999 9.2783 -36.4985)">
			<stop  offset="0" style="stop-color:#42E397"/>
			<stop  offset="1" style="stop-color:#3CB6B5"/>
		</linearGradient>
		<path opacity="0.68" fill="url(#SVGID_24_)" d="M274.372,253.403c-13.458-39.054-22.299-49.917-26.675-52.831l-0.608,173.491
			l134.376,0.472c-5.446-12.123-16.542-34.861-31.446-55.354C328.425,289.489,294.478,311.745,274.372,253.403z"/>
		
			<linearGradient id="SVGID_25_" gradientUnits="userSpaceOnUse" x1="297.8535" y1="264.5313" x2="307.5463" y2="409.2747" gradientTransform="matrix(0.9999 -0.015 0.015 0.9999 9.2783 -36.4985)">
			<stop  offset="0" style="stop-color:#42E397"/>
			<stop  offset="1" style="stop-color:#3CB6B5"/>
		</linearGradient>
		<path opacity="0.68" fill="url(#SVGID_25_)" d="M389.244,245.979c-17.856,5.929-35.129,13.009-48.233,7.391
			c-32.768-14.046,8.541,78.871-46.372,71.718c-18.58-2.42-34.489,2.022-47.409,8.958l-0.141,40.018l141.704,0.498L389.244,245.979z
			"/>
		<linearGradient id="SVGID_26_" gradientUnits="userSpaceOnUse" x1="253.8955" y1="440.2754" x2="449.2137" y2="162.4626">
			<stop  offset="0" style="stop-color:#42E397"/>
			<stop  offset="1" style="stop-color:#3CB6B5"/>
		</linearGradient>
		<path opacity="0.5" fill="url(#SVGID_26_)" d="M350.019,319.181c-7.32-10.064-16.06-14.16-25.198-17.45
			c-2.495,14.595-9.54,26.047-30.182,23.357c-18.58-2.42-34.489,2.022-47.409,8.958l-0.141,40.018l134.376,0.472
			C376.019,362.412,364.923,339.674,350.019,319.181z"/>
	</g>
	<linearGradient id="SVGID_27_" gradientUnits="userSpaceOnUse" x1="261.8809" y1="177.5874" x2="315.8131" y2="149.4738">
		<stop  offset="0" style="stop-color:#FFDE39"/>
		<stop  offset="0.0935" style="stop-color:#FFC63C"/>
		<stop  offset="0.2863" style="stop-color:#FE9843"/>
		<stop  offset="0.4154" style="stop-color:#FE7D4B"/>
		<stop  offset="0.6521" style="stop-color:#FE4F59"/>
		<stop  offset="1" style="stop-color:#ED327F"/>
	</linearGradient>
	<circle fill="url(#SVGID_27_)" cx="279.503" cy="168.401" r="4.16"/>
	<linearGradient id="SVGID_28_" gradientUnits="userSpaceOnUse" x1="265.2627" y1="184.0732" x2="319.1918" y2="155.9612">
		<stop  offset="0" style="stop-color:#FFDE39"/>
		<stop  offset="0.0935" style="stop-color:#FFC63C"/>
		<stop  offset="0.2863" style="stop-color:#FE9843"/>
		<stop  offset="0.4154" style="stop-color:#FE7D4B"/>
		<stop  offset="0.6521" style="stop-color:#FE4F59"/>
		<stop  offset="1" style="stop-color:#ED327F"/>
	</linearGradient>
	<circle fill="url(#SVGID_28_)" cx="295.328" cy="168.401" r="4.159"/>
	<linearGradient id="SVGID_29_" gradientUnits="userSpaceOnUse" x1="268.6431" y1="190.561" x2="322.5737" y2="162.4482">
		<stop  offset="0" style="stop-color:#FFDE39"/>
		<stop  offset="0.0935" style="stop-color:#FFC63C"/>
		<stop  offset="0.2863" style="stop-color:#FE9843"/>
		<stop  offset="0.4154" style="stop-color:#FE7D4B"/>
		<stop  offset="0.6521" style="stop-color:#FE4F59"/>
		<stop  offset="1" style="stop-color:#ED327F"/>
	</linearGradient>
	<circle fill="url(#SVGID_29_)" cx="311.152" cy="168.401" r="4.16"/>
	<g>
		<linearGradient id="SVGID_30_" gradientUnits="userSpaceOnUse" x1="271.8276" y1="200.0127" x2="337.5246" y2="167.9733">
			<stop  offset="0" style="stop-color:#582D7F"/>
			<stop  offset="0.2125" style="stop-color:#4B5194"/>
			<stop  offset="0.7538" style="stop-color:#2AA7C8"/>
			<stop  offset="1" style="stop-color:#1DC9DC"/>
		</linearGradient>
		<path fill="url(#SVGID_30_)" d="M322.404,187.679H278.9c-0.894,0-1.618-0.725-1.618-1.618v-0.211c0-0.894,0.724-1.618,1.618-1.618
			h43.504c0.894,0,1.618,0.724,1.618,1.618v0.211C324.022,186.954,323.298,187.679,322.404,187.679z"/>
		<linearGradient id="SVGID_31_" gradientUnits="userSpaceOnUse" x1="272.6367" y1="201.7153" x2="338.6131" y2="169.5396">
			<stop  offset="0" style="stop-color:#582D7F"/>
			<stop  offset="0.2125" style="stop-color:#4B5194"/>
			<stop  offset="0.7538" style="stop-color:#2AA7C8"/>
			<stop  offset="1" style="stop-color:#1DC9DC"/>
		</linearGradient>
		<path fill="url(#SVGID_31_)" d="M288.588,198.022H278.9c-0.894,0-1.618-0.724-1.618-1.618v-0.211c0-0.893,0.724-1.617,1.618-1.617
			h9.688c0.894,0,1.618,0.724,1.618,1.617v0.211C290.206,197.298,289.481,198.022,288.588,198.022z"/>
		<linearGradient id="SVGID_32_" gradientUnits="userSpaceOnUse" x1="278.583" y1="213.9307" x2="344.3035" y2="181.8797">
			<stop  offset="0" style="stop-color:#582D7F"/>
			<stop  offset="0.2125" style="stop-color:#4B5194"/>
			<stop  offset="0.7538" style="stop-color:#2AA7C8"/>
			<stop  offset="1" style="stop-color:#1DC9DC"/>
		</linearGradient>
		<path fill="url(#SVGID_32_)" d="M332.527,198.022h-35.583c-0.893,0-1.618-0.724-1.618-1.618v-0.211
			c0-0.893,0.725-1.617,1.618-1.617h35.583c0.894,0,1.618,0.724,1.618,1.617v0.211C334.146,197.298,333.421,198.022,332.527,198.022
			z"/>
		<linearGradient id="SVGID_33_" gradientUnits="userSpaceOnUse" x1="278.418" y1="213.4951" x2="344.1725" y2="181.4276">
			<stop  offset="0" style="stop-color:#582D7F"/>
			<stop  offset="0.2125" style="stop-color:#4B5194"/>
			<stop  offset="0.7538" style="stop-color:#2AA7C8"/>
			<stop  offset="1" style="stop-color:#1DC9DC"/>
		</linearGradient>
		<path fill="url(#SVGID_33_)" d="M306.035,208.366H278.9c-0.894,0-1.618-0.724-1.618-1.617v-0.211c0-0.894,0.724-1.618,1.618-1.618
			h27.135c0.893,0,1.617,0.724,1.617,1.618v0.211C307.652,207.642,306.928,208.366,306.035,208.366z"/>
		<linearGradient id="SVGID_34_" gradientUnits="userSpaceOnUse" x1="279.2793" y1="215.8242" x2="345.1426" y2="183.7037">
			<stop  offset="0" style="stop-color:#582D7F"/>
			<stop  offset="0.2125" style="stop-color:#4B5194"/>
			<stop  offset="0.7538" style="stop-color:#2AA7C8"/>
			<stop  offset="1" style="stop-color:#1DC9DC"/>
		</linearGradient>
		<path fill="url(#SVGID_34_)" d="M347.928,187.679h-14.804c-0.893,0-1.617-0.725-1.617-1.618v-0.211
			c0-0.894,0.725-1.618,1.617-1.618h14.804c0.894,0,1.617,0.724,1.617,1.618v0.211C349.545,186.954,348.821,187.679,347.928,187.679
			z"/>
	</g>
	<g>
		<path fill="#D1D3D4" d="M305.032,350.298h-31.027c-0.391,0-0.708-0.316-0.708-0.707v-0.093c0-0.391,0.317-0.708,0.708-0.708
			h31.027c0.392,0,0.708,0.317,0.708,0.708v0.093C305.74,349.981,305.424,350.298,305.032,350.298z"/>
		<path fill="#D1D3D4" d="M266.155,350.298h-8.627c-0.392,0-0.708-0.316-0.708-0.707v-0.093c0-0.391,0.317-0.708,0.708-0.708h8.627
			c0.391,0,0.708,0.317,0.708,0.708v0.093C266.863,349.981,266.546,350.298,266.155,350.298z"/>
		<path fill="#D1D3D4" d="M332.037,350.298h-19.154c-0.39,0-0.707-0.316-0.707-0.707v-0.093c0-0.391,0.317-0.708,0.707-0.708h19.154
			c0.392,0,0.708,0.317,0.708,0.708v0.093C332.745,349.981,332.429,350.298,332.037,350.298z"/>
		<path fill="#D1D3D4" d="M278.836,355.252h-21.308c-0.392,0-0.708-0.317-0.708-0.708v-0.093c0-0.391,0.317-0.707,0.708-0.707
			h21.308c0.391,0,0.708,0.316,0.708,0.707v0.093C279.544,354.935,279.227,355.252,278.836,355.252z"/>
		<path fill="#D1D3D4" d="M315.268,355.252h-27.07c-0.391,0-0.708-0.317-0.708-0.708v-0.093c0-0.391,0.317-0.707,0.708-0.707h27.07
			c0.392,0,0.709,0.316,0.709,0.707v0.093C315.977,354.935,315.659,355.252,315.268,355.252z"/>
		<path fill="#D1D3D4" d="M332.037,355.252h-7.408c-0.391,0-0.707-0.317-0.707-0.708v-0.093c0-0.391,0.316-0.707,0.707-0.707h7.408
			c0.392,0,0.708,0.316,0.708,0.707v0.093C332.745,354.935,332.429,355.252,332.037,355.252z"/>
		<path fill="#D1D3D4" d="M305.222,360.206h-47.693c-0.392,0-0.708-0.317-0.708-0.707v-0.094c0-0.391,0.317-0.707,0.708-0.707
			h47.693c0.391,0,0.707,0.316,0.707,0.707v0.094C305.929,359.889,305.612,360.206,305.222,360.206z"/>
	</g>
</g>
<g>
	<g>
		<g>
			<linearGradient id="SVGID_35_" gradientUnits="userSpaceOnUse" x1="242.9858" y1="154.3735" x2="120.448" y2="31.8357">
				<stop  offset="0" style="stop-color:#CEECFA"/>
				<stop  offset="1" style="stop-color:#EE6EE4"/>
			</linearGradient>
			<path fill="url(#SVGID_35_)" d="M204.987,122.902h-78.48c-25.277,0-45.768-20.491-45.768-45.768v0
				c0-25.277,20.491-45.768,45.768-45.768h78.48c25.276,0,45.767,20.491,45.767,45.768v0
				C250.754,102.411,230.263,122.902,204.987,122.902z"/>
			<g>
				<g>
					<path fill="#FFFFFF" d="M102.759,50.062c-0.427,0-0.852-0.179-1.151-0.529c-0.545-0.635-0.473-1.593,0.163-2.138
						c1.063-0.913,2.187-1.777,3.339-2.57c0.69-0.475,1.634-0.299,2.108,0.391c0.475,0.69,0.3,1.634-0.391,2.109
						c-1.063,0.731-2.101,1.529-3.082,2.371C103.46,49.942,103.109,50.062,102.759,50.062z"/>
				</g>
				<g>
					<path fill="#FFFFFF" d="M89.939,83.61c-0.75,0-1.402-0.555-1.502-1.319c-0.224-1.698-0.336-3.433-0.336-5.156
						c0-9.672,3.553-18.959,10.004-26.153c0.56-0.623,1.518-0.675,2.142-0.116c0.623,0.559,0.675,1.518,0.116,2.142
						c-5.952,6.636-9.229,15.204-9.229,24.127c0,1.592,0.104,3.194,0.31,4.762c0.109,0.83-0.476,1.592-1.306,1.701
						C90.071,83.605,90.004,83.61,89.939,83.61z"/>
				</g>
				<g>
					<path fill="#FFFFFF" d="M100.03,104.65c-0.4,0-0.799-0.157-1.098-0.469c-3.719-3.897-6.548-8.423-8.408-13.45
						c-0.291-0.786,0.11-1.658,0.896-1.949c0.786-0.29,1.658,0.111,1.949,0.896c1.716,4.637,4.326,8.812,7.758,12.409
						c0.578,0.606,0.555,1.565-0.05,2.144C100.782,104.511,100.406,104.65,100.03,104.65z"/>
				</g>
				<g>
					<path fill="#FFFFFF" d="M241.438,84.43c-0.077,0-0.155-0.005-0.233-0.018c-0.828-0.128-1.396-0.902-1.268-1.73
						c0.281-1.822,0.423-3.688,0.423-5.548c0-1.832-0.138-3.67-0.41-5.464c-0.126-0.828,0.444-1.601,1.271-1.727
						c0.828-0.126,1.602,0.444,1.727,1.272c0.294,1.944,0.444,3.936,0.444,5.918c0,2.014-0.154,4.036-0.458,6.01
						C242.819,83.894,242.174,84.43,241.438,84.43z"/>
				</g>
				<g>
					<path fill="#FFFFFF" d="M240.394,68.152c-0.658,0-1.264-0.432-1.456-1.095c-1.696-5.855-4.891-11.235-9.241-15.559
						c-0.594-0.59-0.596-1.55-0.006-2.145c0.591-0.594,1.55-0.597,2.145-0.006c4.712,4.686,8.176,10.518,10.015,16.866
						c0.233,0.804-0.23,1.646-1.035,1.878C240.676,68.132,240.533,68.152,240.394,68.152z"/>
				</g>
			</g>
		</g>
		
			<linearGradient id="SVGID_36_" gradientUnits="userSpaceOnUse" x1="-4766.3257" y1="-104.521" x2="-4888.8594" y2="-227.0546" gradientTransform="matrix(-1.161 0.037 0.0318 0.9995 -5375.7617 444.9341)">
			<stop  offset="0" style="stop-color:#CEECFA"/>
			<stop  offset="1" style="stop-color:#EE6EE4"/>
		</linearGradient>
		<path fill="url(#SVGID_36_)" d="M200.494,116.441c-1.353,1.703-4.364,5.984-4.554,11.979c-0.236,7.45,4.038,12.595,5.383,14.09
			c-1.569-0.226-10.144-1.598-15.782-8.601c-5.718-7.102-4.111-14.646-3.804-15.961L200.494,116.441z"/>
	</g>
	<g>
		<g>
			<g>
				<g>
					<g>
						<linearGradient id="SVGID_37_" gradientUnits="userSpaceOnUse" x1="102.7598" y1="113.355" x2="174.0348" y2="90.5664">
							<stop  offset="0" style="stop-color:#FFDE39"/>
							<stop  offset="0.0935" style="stop-color:#FFC63C"/>
							<stop  offset="0.2863" style="stop-color:#FE9843"/>
							<stop  offset="0.4154" style="stop-color:#FE7D4B"/>
							<stop  offset="0.6521" style="stop-color:#FE4F59"/>
							<stop  offset="1" style="stop-color:#ED327F"/>
						</linearGradient>
						<path fill="url(#SVGID_37_)" d="M174.425,89.071l-50.537,0.092c-1.107,0.002-2.164,0.467-2.914,1.281
							c-1.382,1.498-2.907,3.863-3.041,7.087c-0.144,3.471,1.371,6.797,4.024,9.02c0.708,0.594,1.604,0.914,2.528,0.917
							l51.403,0.138L174.425,89.071z"/>
						<g>
							<linearGradient id="SVGID_38_" gradientUnits="userSpaceOnUse" x1="133.2007" y1="113.6377" x2="133.2007" y2="66.5798">
								<stop  offset="0" style="stop-color:#CEECFA"/>
								<stop  offset="1" style="stop-color:#EE6EE4"/>
							</linearGradient>
							<path fill="url(#SVGID_38_)" d="M131.917,107.487c-3.222-2.072-5.336-6.073-5.178-9.957c0.178-4.394,2.881-7.197,4.32-8.386
								h7.754c-5.864,4.845-5.626,14.172,0.858,18.342H131.917z"/>
						</g>
					</g>
				</g>
				<g>
					<path fill="#F1F2F2" d="M192.258,103.052c0-0.699,0.566-1.266,1.265-1.266h23.953c-0.396-1.371-0.58-2.812-0.521-4.275
						c0.039-0.952,0.177-1.84,0.388-2.667h-16.464c-0.699,0-1.266-0.566-1.266-1.265c0-0.699,0.566-1.266,1.266-1.266h17.4
						c0.653-1.331,1.463-2.429,2.238-3.289h-50.278c-5.131,0-9.291,4.16-9.291,9.291l0,0c0,5.131,4.16,9.291,9.291,9.291h50.665
						c-0.969-0.972-1.78-2.084-2.411-3.289h-24.97C192.824,104.318,192.258,103.751,192.258,103.052z"/>
					<path fill="#E6E7E8" d="M199.614,93.58c0,0.699,0.566,1.265,1.266,1.265h16.464c0.234-0.922,0.559-1.765,0.936-2.531h-17.4
						C200.18,92.314,199.614,92.88,199.614,93.58z"/>
					<path fill="#E6E7E8" d="M193.523,101.787c-0.699,0-1.265,0.567-1.265,1.266c0,0.699,0.566,1.266,1.265,1.266h24.97
						c-0.422-0.806-0.763-1.654-1.017-2.531H193.523z"/>
				</g>
				<path fill="#E6E7E8" d="M189.662,104.318h-19.773c-0.699,0-1.265-0.566-1.265-1.266c0-0.699,0.566-1.266,1.265-1.266h19.773
					c0.699,0,1.266,0.567,1.266,1.266C190.928,103.751,190.361,104.318,189.662,104.318z"/>
				<g>
					<g>
						<path fill="#E6E7E8" d="M205.336,99.582H176.84c-0.699,0-1.266-0.566-1.266-1.266c0-0.699,0.567-1.265,1.266-1.265h28.496
							c0.699,0,1.266,0.566,1.266,1.265C206.602,99.015,206.035,99.582,205.336,99.582z"/>
					</g>
					<g>
						<path fill="#E6E7E8" d="M212.977,99.582h-2.587c-0.699,0-1.265-0.566-1.265-1.266c0-0.699,0.566-1.265,1.265-1.265h2.587
							c0.699,0,1.266,0.566,1.266,1.265C214.242,99.015,213.675,99.582,212.977,99.582z"/>
					</g>
				</g>
				<g>
					<g>
						<path fill="#E6E7E8" d="M196.054,94.845h-4.826c-0.699,0-1.266-0.566-1.266-1.265c0-0.699,0.567-1.266,1.266-1.266h4.826
							c0.699,0,1.265,0.566,1.265,1.266C197.319,94.278,196.753,94.845,196.054,94.845z"/>
					</g>
					<g>
						<path fill="#E6E7E8" d="M183.99,94.845h-13.862c-0.699,0-1.265-0.566-1.265-1.265c0-0.699,0.566-1.266,1.265-1.266h13.862
							c0.699,0,1.266,0.566,1.266,1.266C185.255,94.278,184.689,94.845,183.99,94.845z"/>
					</g>
				</g>
			</g>
			<g>
				<g>
					<g>
						<linearGradient id="SVGID_39_" gradientUnits="userSpaceOnUse" x1="181.9209" y1="69.6104" x2="181.9209" y2="101.6339">
							<stop  offset="0" style="stop-color:#42E397"/>
							<stop  offset="1" style="stop-color:#3CB6B5"/>
						</linearGradient>
						<path fill="url(#SVGID_39_)" d="M147.195,65.814l63.771,0.116c1.398,0.003,2.73,0.589,3.678,1.616
							c1.743,1.89,3.669,4.875,3.837,8.943c0.182,4.379-1.73,8.578-5.078,11.383c-0.893,0.748-2.025,1.153-3.19,1.156l-64.864,0.174
							L147.195,65.814z"/>
						<g>
							<linearGradient id="SVGID_40_" gradientUnits="userSpaceOnUse" x1="199.2153" y1="102.6519" x2="199.2153" y2="68.6817">
								<stop  offset="0" style="stop-color:#42E397"/>
								<stop  offset="1" style="stop-color:#3CB6B5"/>
							</linearGradient>
							<path fill="url(#SVGID_40_)" d="M200.835,89.052c4.065-2.615,6.733-7.664,6.535-12.564
								c-0.225-5.544-3.636-9.081-5.452-10.581h-9.785c7.399,6.113,7.1,17.883-1.083,23.145H200.835z"/>
						</g>
					</g>
				</g>
				<path fill="#F1F2F2" d="M147.053,65.755h-36.446c0.978,1.085,2,2.471,2.824,4.15l0.168,0.454h3.725
					c0.74,0,1.34,0.566,1.34,1.266c0,0.699-0.6,1.265-1.34,1.265h-2.789l0.077,0.209c0.265,1.043,0.439,2.165,0.489,3.365
					c0.075,1.847-0.157,3.665-0.657,5.395l-0.143,0.355h20.762c0.74,0,1.339,0.567,1.339,1.266s-0.6,1.266-1.339,1.266h-21.778
					l-0.123,0.307c-0.796,1.521-1.819,2.923-3.042,4.15h36.935c6.475,0,11.724-5.249,11.724-11.724v0
					C158.777,71.004,153.528,65.755,147.053,65.755z"/>
				<g>
					<g>
						<path fill="#D1D3D4" d="M148.316,72.89h-27.31c-0.74,0-1.34-0.566-1.34-1.265c0-0.699,0.6-1.266,1.34-1.266h27.31
							c0.74,0,1.34,0.566,1.34,1.266C149.656,72.323,149.056,72.89,148.316,72.89z"/>
					</g>
					<g>
						<g>
							<path fill="#D1D3D4" d="M146.233,78.818h-4.898c-0.74,0-1.34-0.567-1.34-1.266s0.6-1.266,1.34-1.266h4.898
								c0.74,0,1.34,0.567,1.34,1.266S146.973,78.818,146.233,78.818z"/>
						</g>
						<g>
							<path fill="#D1D3D4" d="M133.5,78.818h-16.535c-0.74,0-1.34-0.567-1.34-1.266s0.6-1.266,1.34-1.266H133.5
								c0.74,0,1.34,0.567,1.34,1.266S134.24,78.818,133.5,78.818z"/>
						</g>
					</g>
					<g>
						<g>
							<path fill="#D1D3D4" d="M151.862,84.746h-12.365c-0.74,0-1.34-0.567-1.34-1.266s0.6-1.266,1.34-1.266h12.365
								c0.74,0,1.34,0.567,1.34,1.266S152.602,84.746,151.862,84.746z"/>
						</g>
						<g>
							<path fill="#D1D3D4" d="M118.663,71.625c0-0.699-0.6-1.266-1.34-1.266h-3.725l0.936,2.531h2.789
								C118.063,72.89,118.663,72.323,118.663,71.625z"/>
							<path fill="#D1D3D4" d="M136.401,83.48c0-0.699-0.6-1.266-1.339-1.266H114.3l-1.017,2.532h21.778
								C135.802,84.746,136.401,84.179,136.401,83.48z"/>
						</g>
					</g>
				</g>
			</g>
		</g>
		<g>
			<linearGradient id="SVGID_41_" gradientUnits="userSpaceOnUse" x1="215.2808" y1="28.9243" x2="187.7759" y2="28.9243">
				<stop  offset="0" style="stop-color:#FFDE39"/>
				<stop  offset="0.0935" style="stop-color:#FFC63C"/>
				<stop  offset="0.2863" style="stop-color:#FE9843"/>
				<stop  offset="0.4154" style="stop-color:#FE7D4B"/>
				<stop  offset="0.6521" style="stop-color:#FE4F59"/>
				<stop  offset="1" style="stop-color:#ED327F"/>
			</linearGradient>
			<polygon fill="url(#SVGID_41_)" points="199.144,25.832 211.307,25.832 208.479,28.951 211.259,32.018 197.767,32.018 			"/>
			<polygon fill="#FFFFFF" points="132.416,65.907 190.997,65.907 197.131,23.462 147.447,23.462 143.247,24.384 140.331,27.912 			
				"/>
			<g>
				<linearGradient id="SVGID_42_" gradientUnits="userSpaceOnUse" x1="173.5864" y1="12.4092" x2="173.5864" y2="21.8828">
					<stop  offset="0" style="stop-color:#FCDE8A"/>
					<stop  offset="1" style="stop-color:#F38381"/>
				</linearGradient>
				<path fill="url(#SVGID_42_)" d="M202.202,26.615c-0.382-1.836-2.001-3.153-3.878-3.153h-53.802l1.507,5.306h56.621
					L202.202,26.615z"/>
				<linearGradient id="SVGID_43_" gradientUnits="userSpaceOnUse" x1="185.5479" y1="67.1064" x2="170.0735" y2="15.5252">
					<stop  offset="0" style="stop-color:#FCDE8A"/>
					<stop  offset="1" style="stop-color:#F38381"/>
				</linearGradient>
				<polygon fill="url(#SVGID_43_)" points="146.029,28.768 156.585,65.907 210.388,65.907 202.65,28.768 				"/>
				<g>
					<polygon fill="#FFFFFF" points="198.024,59.496 180.196,59.496 173.359,35.179 191.192,35.179 					"/>
					<polygon fill="#FFFFFF" points="203.948,59.496 201.086,59.496 194.25,35.179 197.115,35.179 					"/>
				</g>
			</g>
			<g>
				<path fill="#E6E7E8" d="M144.525,28.324c0.003-0.368,0.003-0.727,0-1.075C144.523,27.597,144.522,27.956,144.525,28.324z"/>
				<path fill="#E6E7E8" d="M144.525,27.249c0.001-0.157,0.002-0.318,0.004-0.471v-3.314c-0.003,0-0.006,0-0.008,0v3.314
					C144.524,26.931,144.524,27.092,144.525,27.249z"/>
				<g>
					<path fill="#F1F2F2" d="M148.407,26.654c-0.384-1.843-1.999-3.167-3.877-3.189v3.314c-0.002,0.153-0.003,0.314-0.004,0.471
						c0.003,0.348,0.003,0.707,0,1.075c0.038,4.769,0.604,11.153,2.752,18.35c2.575,8.628,6.429,15.089,9.358,19.233h0.427
						L148.407,26.654z"/>
					<path fill="#F1F2F2" d="M144.525,27.249c-0.001-0.157-0.001-0.318-0.003-0.471v-3.314c-0.013,0-0.026-0.002-0.04-0.002
						c-1.907,0-3.55,1.344-3.929,3.213l-8.138,39.231c2.93-4.144,6.784-10.604,9.358-19.232c2.148-7.197,2.714-13.582,2.752-18.35
						C144.522,27.956,144.523,27.597,144.525,27.249z"/>
				</g>
				<path fill="#808285" d="M144.525,28.324c-0.038,4.769-0.604,11.153-2.752,18.35c-2.575,8.628-6.428,15.089-9.358,19.232v0
					h24.221c-2.93-4.144-6.783-10.605-9.358-19.233C145.129,39.477,144.563,33.092,144.525,28.324z"/>
			</g>
		</g>
	</g>
</g>
<g>
	<g>
		<g>
			
				<linearGradient id="SVGID_44_" gradientUnits="userSpaceOnUse" x1="-1075.9639" y1="506.1904" x2="-1151.0024" y2="539.2349" gradientTransform="matrix(0.5133 -0.8582 0.8582 0.5133 571.6484 -825.7944)">
				<stop  offset="1.600000e-007" style="stop-color:#A7A9AC"/>
				<stop  offset="1" style="stop-color:#CCCCCC"/>
			</linearGradient>
			<path fill="url(#SVGID_44_)" d="M491.956,383.707c19.179-17.416,25.807-42.585,18.567-62.992
				c-1.031-2.904-5.188-3.021-6.634-0.185l-0.152,0.299c-3.229,6.335-11.001,9.132-17.36,6.245l0,0
				c-6.359-2.885-8.897-10.359-5.67-16.696l0,0c4.755-9.331-0.978-20.136-11.354-21.304c-17.11-1.929-35.941,3.873-50.672,17.25
				c-24.878,22.591-28.642,58.227-8.407,79.596C430.509,407.288,467.078,406.297,491.956,383.707z"/>
			<path fill="#FFFFFF" d="M492.639,378.968c19.179-17.416,25.807-42.585,18.566-62.991c-1.03-2.904-5.188-3.021-6.633-0.187
				l-0.153,0.3c-3.228,6.335-11,9.133-17.359,6.246l0,0c-6.359-2.886-8.897-10.362-5.67-16.697l0,0
				c4.755-9.331-0.978-20.135-11.354-21.304c-17.111-1.929-35.94,3.873-50.672,17.25c-24.878,22.591-28.642,58.228-8.408,79.595
				C431.191,402.549,467.761,401.559,492.639,378.968z"/>
			<path fill="#4A91D6" d="M475.499,367.643c-2.956-3.51-2.334-8.817,1.39-11.854c3.725-3.035,9.139-2.653,12.096,0.856
				c2.956,3.51,2.334,8.817-1.39,11.854C483.871,371.535,478.455,371.152,475.499,367.643z"/>
			<path fill="#00A14B" d="M448.227,380.839c-2.957-3.509-2.335-8.815,1.39-11.853c3.724-3.037,9.139-2.654,12.095,0.856
				c2.957,3.51,2.334,8.815-1.39,11.853S451.183,384.351,448.227,380.839z"/>
			<path fill="#7F3F98" d="M421.502,371.479c-2.956-3.511-2.334-8.817,1.39-11.854c3.725-3.037,9.14-2.653,12.096,0.856
				c2.957,3.51,2.334,8.815-1.39,11.853C429.873,375.371,424.458,374.989,421.502,371.479z"/>
			<path fill="#F7941E" d="M412.026,345.036c-2.957-3.51-2.335-8.817,1.39-11.854c3.724-3.037,9.139-2.654,12.096,0.855
				c2.955,3.51,2.333,8.817-1.391,11.854S414.982,348.546,412.026,345.036z"/>
			<path fill="#FCD118" d="M428.587,320.811c-2.957-3.51-2.334-8.817,1.39-11.854c3.725-3.037,9.14-2.653,12.096,0.856
				c2.956,3.509,2.334,8.816-1.391,11.853C436.958,324.702,431.543,324.319,428.587,320.811z"/>
			<path fill="#EF4136" d="M455.184,308.498c-2.956-3.509-2.334-8.815,1.391-11.853c3.724-3.037,9.139-2.654,12.095,0.854
				c2.956,3.512,2.334,8.817-1.39,11.854S458.141,312.008,455.184,308.498z"/>
		</g>
		<g>
			<g>
				<path fill="#FCD118" d="M507.15,371.818L507.15,371.818c1.999-0.684,3.148-2.771,2.599-4.717l-10.003-35.364l-9.835,3.37
					l12.428,34.531C503.022,371.539,505.151,372.504,507.15,371.818z"/>
				
					<linearGradient id="SVGID_45_" gradientUnits="userSpaceOnUse" x1="5914.1143" y1="180.4238" x2="5893.21" y2="186.6486" gradientTransform="matrix(0.0626 0.9981 -0.9981 0.0626 312.7451 -5559.2988)">
					<stop  offset="0" style="stop-color:#9D9E9F"/>
					<stop  offset="1" style="stop-color:#D1D3D4"/>
				</linearGradient>
				<polygon fill="url(#SVGID_45_)" points="487.84,328.854 489.911,335.107 499.746,331.737 497.791,325.444 				"/>
				<polygon fill="#FCD118" points="490.947,306.898 482.604,309.757 487.84,328.854 497.791,325.444 				"/>
			</g>
			<path fill="#FDD7AD" d="M482.604,309.757c0,0-13.292-5.126-4.305-24.917c0.869,2.118,2.477,4.994,5.579,6.793
				c2.401,1.392,3.91,1.103,5.422,2.257c1.801,1.374,3.354,4.605,1.647,13.009L482.604,309.757z"/>
		</g>
	</g>
</g>
<g>
	<g>
		<g>
			
				<linearGradient id="SVGID_46_" gradientUnits="userSpaceOnUse" x1="1286.3906" y1="-1661.2568" x2="1353.5586" y2="-1594.0889" gradientTransform="matrix(0.9472 0.3205 -0.3205 0.9472 -1338.8745 1191.9688)">
				<stop  offset="0" style="stop-color:#FC9E18"/>
				<stop  offset="0.3131" style="stop-color:#FCAF18"/>
				<stop  offset="1" style="stop-color:#FCD118"/>
			</linearGradient>
			<circle fill="url(#SVGID_46_)" cx="437.352" cy="81.94" r="37.138"/>
			<g>
				
					<linearGradient id="SVGID_47_" gradientUnits="userSpaceOnUse" x1="47.5786" y1="3317.9053" x2="47.5786" y2="3272.9158" gradientTransform="matrix(0.8822 -0.4709 0.4709 0.8822 -1150.375 -2791.5208)">
					<stop  offset="0" style="stop-color:#FC9E18"/>
					<stop  offset="0.3131" style="stop-color:#FCAF18"/>
					<stop  offset="1" style="stop-color:#FCD118"/>
				</linearGradient>
				<circle fill="url(#SVGID_47_)" cx="437.352" cy="81.94" r="35.213"/>
				<g>
					<path fill="#FFFFFF" d="M406.869,72.714c-0.169,0.09-0.374,0.115-0.573,0.052c-0.389-0.125-0.603-0.541-0.479-0.93
						c0.865-2.701,2.072-5.281,3.588-7.669c0.22-0.345,0.676-0.447,1.021-0.228c0.345,0.219,0.447,0.676,0.229,1.021
						c-1.448,2.282-2.602,4.747-3.429,7.327C407.165,72.478,407.034,72.626,406.869,72.714z"/>
				</g>
				<g>
					<path fill="#FFFFFF" d="M405.583,78.494c-0.13,0.07-0.283,0.101-0.441,0.081c-0.405-0.052-0.691-0.422-0.639-0.827
						c0.125-0.979,0.297-1.964,0.51-2.929c0.088-0.399,0.482-0.651,0.881-0.563c0.399,0.088,0.651,0.482,0.563,0.881
						c-0.203,0.922-0.367,1.864-0.487,2.799C405.938,78.183,405.787,78.385,405.583,78.494z"/>
				</g>
			</g>
			
				<linearGradient id="SVGID_48_" gradientUnits="userSpaceOnUse" x1="1326.7988" y1="-1599.3999" x2="1326.7988" y2="-1628.7819" gradientTransform="matrix(0.9472 0.3205 -0.3205 0.9472 -1338.8745 1191.9688)">
				<stop  offset="0" style="stop-color:#FFDE39"/>
				<stop  offset="0.0935" style="stop-color:#FFC63C"/>
				<stop  offset="0.2863" style="stop-color:#FE9843"/>
				<stop  offset="0.4154" style="stop-color:#FE7D4B"/>
				<stop  offset="0.6521" style="stop-color:#FE4F59"/>
				<stop  offset="1" style="stop-color:#ED327F"/>
			</linearGradient>
			<path fill="url(#SVGID_48_)" d="M420.113,76.108c-2.324,6.873-0.309,14.165,4.573,18.902c2.081-1.834,6.03-4.813,11.789-6.402
				c8.104-2.237,14.889-0.372,17.587,0.533c0.192-0.446,0.369-0.901,0.527-1.368L420.113,76.108z"/>
		</g>
		<g>
			<path fill="#EF4136" d="M428.564,97.877c0.929,0.512,1.915,0.95,2.955,1.301c8.153,2.759,16.896-0.594,21.263-7.594
				c0.482-0.772,0.911-1.587,1.28-2.443c-3.24-0.281-9.485-0.364-16.348,2.671C433.56,93.65,430.539,96.03,428.564,97.877z"/>
			
				<linearGradient id="SVGID_49_" gradientUnits="userSpaceOnUse" x1="1330.5635" y1="-1613.7158" x2="1335.4922" y2="-1607.3085" gradientTransform="matrix(0.9472 0.3205 -0.3205 0.9472 -1338.8745 1191.9688)">
				<stop  offset="0" style="stop-color:#EF4136"/>
				<stop  offset="1" style="stop-color:#B33129"/>
			</linearGradient>
			<path fill="url(#SVGID_49_)" d="M436.476,88.608c-5.759,1.589-9.708,4.567-11.789,6.402c1.142,1.108,2.44,2.076,3.878,2.867
				c1.975-1.847,4.995-4.227,9.15-6.065c6.862-3.035,13.107-2.952,16.348-2.671l0,0C451.364,88.236,444.579,86.372,436.476,88.608z"
				/>
		</g>
	</g>
	<g>
		<g>
			<g>
				
					<linearGradient id="SVGID_50_" gradientUnits="userSpaceOnUse" x1="1039.4746" y1="-390.7349" x2="1039.4746" y2="-431.4338" gradientTransform="matrix(0.9929 0.1193 -0.1193 0.9929 -654.2666 354.7461)">
					<stop  offset="0" style="stop-color:#FFDE39"/>
					<stop  offset="0.0935" style="stop-color:#FFC63C"/>
					<stop  offset="0.2863" style="stop-color:#FE9843"/>
					<stop  offset="0.4154" style="stop-color:#FE7D4B"/>
					<stop  offset="0.6521" style="stop-color:#FE4F59"/>
					<stop  offset="1" style="stop-color:#ED327F"/>
				</linearGradient>
				<path fill="url(#SVGID_50_)" d="M420.477,51.955L420.477,51.955c2.917-1.487,6.335,0.255,7.822,3.172l0.735,1.443l1.443-0.736
					c2.917-1.487,6.706-0.889,8.194,2.027l0,0c1.487,2.917,0.317,6.521-2.6,8.008l-1.443,0.736l-10.607,5.408l-5.408-10.607
					l-0.735-1.443C416.391,57.045,417.561,53.442,420.477,51.955z"/>
			</g>
		</g>
		<g>
			<g>
				
					<linearGradient id="SVGID_51_" gradientUnits="userSpaceOnUse" x1="1070.7588" y1="-390.4023" x2="1070.7588" y2="-431.1013" gradientTransform="matrix(0.9929 0.1193 -0.1193 0.9929 -654.2666 354.7461)">
					<stop  offset="0" style="stop-color:#FFDE39"/>
					<stop  offset="0.0935" style="stop-color:#FFC63C"/>
					<stop  offset="0.2863" style="stop-color:#FE9843"/>
					<stop  offset="0.4154" style="stop-color:#FE7D4B"/>
					<stop  offset="0.6521" style="stop-color:#FE4F59"/>
					<stop  offset="1" style="stop-color:#ED327F"/>
				</linearGradient>
				<path fill="url(#SVGID_51_)" d="M450.757,62.2L450.757,62.2c2.917-1.487,6.334,0.255,7.821,3.171l0.735,1.444l1.444-0.736
					c2.916-1.488,6.706-0.89,8.192,2.027l0,0c1.487,2.917,0.318,6.52-2.599,8.007l-1.443,0.736l-10.607,5.409l-5.407-10.607
					l-0.736-1.443C446.67,67.291,447.84,63.687,450.757,62.2z"/>
			</g>
		</g>
	</g>
</g>
</svg>
