<?xml version="1.0" encoding="utf-8"?>
<!-- Generator: Adobe Illustrator 16.0.3, SVG Export Plug-In . SVG Version: 6.00 Build 0)  -->
<!DOCTYPE svg PUBLIC "-//W3C//DTD SVG 1.1//EN" "http://www.w3.org/Graphics/SVG/1.1/DTD/svg11.dtd">
<svg version="1.1" id="Ebene_1" xmlns="http://www.w3.org/2000/svg" xmlns:xlink="http://www.w3.org/1999/xlink" x="0px" y="0px"
	 width="600px" height="450px" viewBox="-230 -165 600 450" enable-background="new -230 -165 600 450" xml:space="preserve">
<g>
	<g>
		<g>
			<path fill="#E5E9FF" d="M68.826-119.066c102.132,0,184.927,82.795,184.927,184.925c0,102.135-82.795,184.927-184.927,184.927
				c-102.131,0-184.927-82.792-184.927-184.927C-116.101-36.271-33.305-119.066,68.826-119.066z"/>
		</g>
		<g>
			<path fill="#E5E9FF" d="M-77.441,172.887H0.133c7.361,0,13.324,5.963,13.324,13.324v1.682c0,7.357-5.966,13.328-13.324,13.328
				h-77.575c-7.361,0-13.328-5.971-13.328-13.328v-1.682C-90.77,178.85-84.803,172.887-77.441,172.887z"/>
		</g>
		<g>
			<path fill="#E5E9FF" d="M-106.729,228.436H44.179c5.154,0,9.336,4.181,9.336,9.332l0,0c0,5.152-4.182,9.33-9.336,9.33h-150.908
				c-5.155,0-9.333-4.178-9.333-9.33l0,0C-116.062,232.616-111.885,228.436-106.729,228.436z"/>
		</g>
		<g>
			<path fill="#E5E9FF" d="M150.744,247.101h17.162c5.068,0,9.179,4.11,9.179,9.186l0,0c0,5.062-4.11,9.176-9.179,9.176h-17.162
				c-5.068,0-9.18-4.114-9.18-9.176l0,0C141.558,251.211,145.676,247.101,150.744,247.101z"/>
		</g>
		<g>
			<path fill="#E5E9FF" d="M142.222,192.782h83.567c8.316,0,15.059,6.743,15.059,15.065l0,0c0,8.319-6.742,15.058-15.059,15.058
				h-83.567c-8.318,0-15.062-6.738-15.062-15.058l0,0C127.16,199.525,133.903,192.782,142.222,192.782z"/>
		</g>
		<g>
			<path fill="#E5E9FF" d="M-63.521,201.007h52.876c-3.904,0-7.456,1.692-10.011,4.247c-2.574,2.572-4.163,5.606-4.163,9.525
				c0,7.826,6.349,13.656,14.173,13.656h-52.876c3.904,0,7.445-1.035,10.014-3.583c2.561-2.563,4.149-5.936,4.149-9.85
				C-49.358,207.17-55.697,201.007-63.521,201.007z"/>
		</g>
		<g>
			<path fill="#E5E9FF" d="M143.781,39.234h136.326c14.056,0,25.446,11.397,25.446,25.447l0,0c0,14.055-11.395,25.449-25.446,25.449
				H143.781c-14.052,0-25.443-11.398-25.443-25.449l0,0C118.338,50.627,129.729,39.234,143.781,39.234z"/>
		</g>
		<g>
			<path fill="#E5E9FF" d="M95.24,139.562h201.988c9.115,0,16.494,7.383,16.494,16.491l0,0c0,9.109-7.386,16.491-16.494,16.491
				H95.24c-9.108,0-16.494-7.382-16.494-16.491l0,0C78.746,146.944,86.132,139.562,95.24,139.562z"/>
		</g>
		<g>
			<path fill="#E5E9FF" d="M178.518,90.13h94.984c-7.02,0-13.395,2.782-17.994,7.425c-4.611,4.662-7.467,10.146-7.467,17.253
				c0,14.191,11.409,24.754,25.461,24.754h-94.984c7.02,0,13.374-1.999,17.991-6.62c4.597-4.642,7.445-10.542,7.445-17.651
				C203.954,101.081,192.569,90.13,178.518,90.13z"/>
		</g>
		<g>
			<path fill="#E5E9FF" d="M29.837,17.104h-159.742c-14.918,0-27.018-12.096-27.018-27.017l0,0
				c0-14.918,12.096-27.016,27.018-27.016H29.84c14.922,0,27.016,12.098,27.016,27.016l0,0
				C56.856,5.009,44.759,17.104,29.837,17.104z"/>
		</g>
		<g>
			<path fill="#E5E9FF" d="M96.37,173.523h-230.839c-21.563,0-39.043-17.484-39.043-39.04l0,0c0-21.557,17.477-39.04,39.043-39.04
				H96.377c21.566,0,39.036,17.483,39.036,39.04v0.003C135.413,156.046,117.943,173.523,96.37,173.523z"/>
		</g>
		<g>
			<path fill="#E5E9FF" d="M226.999-44.964H99.551c-11.905,0-21.553-9.649-21.553-21.554l0,0c0-11.909,9.647-21.554,21.553-21.554
				h127.448c11.898,0,21.549,9.646,21.549,21.554l0,0C248.552-54.613,238.904-44.964,226.999-44.964z"/>
		</g>
		<g>
			<path fill="#E5E9FF" d="M57.054-102.626c2.609,0,5.154,0.201,7.637,0.558c-1.104-8.929-8.7-15.848-17.931-15.848h-96.869
				c-9.986,0-18.08,8.095-18.08,18.082s8.097,18.08,18.08,18.08h65.003C25.048-94.34,40.851-102.626,57.054-102.626z"/>
		</g>
		<g>
			<path fill="#E5E9FF" d="M187.788-119.061h-30.263c-6.474,0-11.724-5.255-11.724-11.734l0,0c0-6.479,5.25-11.729,11.724-11.729
				h30.263c6.483,0,11.73,5.25,11.73,11.729l0,0C199.525-124.316,194.271-119.061,187.788-119.061z"/>
		</g>
	</g>
	<g>
		<g>
			<path fill="#FFFFFF" d="M-41.913,55.248c-1.751,0-3.5-0.622-4.836-1.858c-2.022-1.878-5.311-1.882-7.333,0
				c-0.344,0.322-0.888,0.301-1.211-0.042c-0.325-0.348-0.304-0.891,0.043-1.214c2.67-2.477,7.005-2.477,9.672,0
				c2.022,1.879,5.311,1.879,7.333,0c2.667-2.477,7.001-2.477,9.668,0c2.019,1.879,5.312,1.879,7.333,0
				c2.667-2.477,7.001-2.477,9.668,0c0.346,0.327,0.369,0.867,0.045,1.214c-0.325,0.343-0.865,0.364-1.213,0.042
				c-2.019-1.878-5.311-1.882-7.33,0c-2.667,2.473-7.005,2.477-9.672,0c-2.022-1.882-5.311-1.882-7.333,0
				C-38.412,54.626-40.167,55.248-41.913,55.248z"/>
		</g>
	</g>
	<g>
		<g>
			<g>
				<g>
					<rect x="190.717" y="3.42" fill="#F7B75D" width="20.776" height="158.701"/>
				</g>
			</g>
		</g>
		<g>
			<g>
				<g>
					<rect x="201.108" y="7.178" fill="#566CD3" width="10.385" height="2.742"/>
				</g>
			</g>
			<g>
				<g>
					<rect x="205.562" y="13.01" fill="#566CD3" width="5.932" height="2.744"/>
				</g>
			</g>
			<g>
				<g>
					<rect x="201.108" y="17.383" fill="#566CD3" width="10.385" height="2.746"/>
				</g>
			</g>
			<g>
				<g>
					<rect x="205.562" y="23.218" fill="#566CD3" width="5.932" height="2.74"/>
				</g>
			</g>
			<g>
				<g>
					<rect x="201.108" y="29.048" fill="#566CD3" width="10.385" height="2.746"/>
				</g>
			</g>
			<g>
				<g>
					<rect x="205.562" y="33.425" fill="#566CD3" width="5.932" height="2.742"/>
				</g>
			</g>
			<g>
				<g>
					<rect x="201.108" y="39.26" fill="#566CD3" width="10.385" height="2.74"/>
				</g>
			</g>
			<g>
				<g>
					<rect x="205.562" y="45.087" fill="#566CD3" width="5.932" height="2.742"/>
				</g>
			</g>
			<g>
				<g>
					<rect x="201.108" y="49.465" fill="#566CD3" width="10.385" height="2.74"/>
				</g>
			</g>
			<g>
				<g>
					<rect x="205.562" y="55.295" fill="#566CD3" width="5.932" height="2.744"/>
				</g>
			</g>
			<g>
				<g>
					<rect x="201.108" y="59.668" fill="#566CD3" width="10.385" height="2.744"/>
				</g>
			</g>
			<g>
				<g>
					<rect x="205.562" y="65.502" fill="#566CD3" width="5.932" height="2.74"/>
				</g>
			</g>
			<g>
				<g>
					<rect x="201.108" y="71.332" fill="#566CD3" width="10.385" height="2.744"/>
				</g>
			</g>
			<g>
				<g>
					<rect x="205.562" y="75.701" fill="#566CD3" width="5.932" height="2.747"/>
				</g>
			</g>
			<g>
				<g>
					<rect x="201.108" y="81.542" fill="#566CD3" width="10.385" height="2.74"/>
				</g>
			</g>
			<g>
				<g>
					<rect x="205.562" y="87.369" fill="#566CD3" width="5.932" height="2.747"/>
				</g>
			</g>
			<g>
				<g>
					<rect x="201.108" y="91.745" fill="#566CD3" width="10.385" height="2.747"/>
				</g>
			</g>
			<g>
				<g>
					<rect x="205.562" y="97.582" fill="#566CD3" width="5.932" height="2.74"/>
				</g>
			</g>
			<g>
				<g>
					<rect x="201.108" y="103.405" fill="#566CD3" width="10.385" height="2.751"/>
				</g>
			</g>
			<g>
				<g>
					<rect x="205.562" y="107.782" fill="#566CD3" width="5.932" height="2.747"/>
				</g>
			</g>
			<g>
				<g>
					<rect x="201.108" y="113.615" fill="#566CD3" width="10.385" height="2.744"/>
				</g>
			</g>
			<g>
				<g>
					<rect x="205.562" y="117.988" fill="#566CD3" width="5.932" height="2.747"/>
				</g>
			</g>
			<g>
				<g>
					<rect x="201.108" y="123.826" fill="#566CD3" width="10.385" height="2.743"/>
				</g>
			</g>
			<g>
				<g>
					<rect x="205.562" y="129.656" fill="#566CD3" width="5.932" height="2.743"/>
				</g>
			</g>
			<g>
				<g>
					<rect x="201.108" y="134.032" fill="#566CD3" width="10.385" height="2.74"/>
				</g>
			</g>
			<g>
				<g>
					<rect x="205.562" y="139.862" fill="#566CD3" width="5.932" height="2.74"/>
				</g>
			</g>
			<g>
				<g>
					<rect x="201.108" y="145.692" fill="#566CD3" width="10.385" height="2.741"/>
				</g>
			</g>
			<g>
				<g>
					<rect x="205.562" y="150.069" fill="#566CD3" width="5.932" height="2.747"/>
				</g>
			</g>
			<g>
				<g>
					<rect x="201.108" y="155.906" fill="#566CD3" width="10.385" height="2.74"/>
				</g>
			</g>
		</g>
	</g>
	<g>
		<g>
			<g>
				<path fill="#B9B8F1" d="M-47.94-41.048c-0.427,0-0.841-0.197-1.11-0.573c-0.28-0.379-0.547-0.762-0.813-1.157
					c-0.421-0.625-0.257-1.477,0.372-1.899c0.631-0.423,1.482-0.261,1.905,0.369c0.247,0.369,0.505,0.73,0.762,1.092
					c0.44,0.608,0.304,1.466-0.311,1.91C-47.383-41.13-47.661-41.048-47.94-41.048z"/>
			</g>
		</g>
		<g>
			<g>
				<path fill="#B9B8F1" d="M-13.093-23.202c-0.458,0-0.916-0.007-1.374-0.021c-0.755-0.03-1.35-0.663-1.329-1.414
					c0.024-0.745,0.638-1.332,1.371-1.332c0.016,0,0.033,0,0.047,0.003c0.461,0.01,0.928,0.024,1.386,0.021
					c0.451,0,0.892-0.007,1.332-0.018c0.014,0,0.028,0,0.042,0c0.741,0,1.349,0.587,1.372,1.328c0.024,0.759-0.57,1.392-1.329,1.414
					C-12.073-23.206-12.561-23.202-13.093-23.202z M-6.027-23.756c-0.659,0-1.243-0.477-1.353-1.15
					c-0.123-0.748,0.382-1.452,1.13-1.575c0.902-0.147,1.79-0.321,2.674-0.522c0.737-0.171,1.475,0.293,1.639,1.035
					c0.167,0.737-0.293,1.472-1.031,1.643c-0.937,0.215-1.882,0.4-2.842,0.554C-5.881-23.763-5.956-23.756-6.027-23.756z
					 M-20.004-23.772c-0.071,0-0.15-0.003-0.225-0.014c-0.942-0.154-1.898-0.342-2.842-0.561c-0.741-0.173-1.197-0.902-1.028-1.643
					c0.171-0.738,0.909-1.192,1.646-1.031c0.884,0.211,1.786,0.386,2.667,0.53c0.745,0.122,1.251,0.827,1.131,1.575
					C-18.763-24.247-19.347-23.772-20.004-23.772z M2.108-25.911c-0.557,0-1.077-0.344-1.284-0.895
					c-0.266-0.709,0.096-1.5,0.809-1.765c0.848-0.311,1.697-0.662,2.511-1.031c0.692-0.318,1.505-0.003,1.816,0.683
					c0.311,0.692,0.003,1.503-0.684,1.816C4.399-26.713,3.498-26.341,2.592-26C2.435-25.944,2.266-25.911,2.108-25.911z
					 M-28.132-25.938c-0.163,0-0.327-0.024-0.484-0.082c-0.898-0.335-1.8-0.711-2.678-1.11c-0.687-0.311-0.998-1.12-0.683-1.814
					c0.311-0.687,1.12-0.995,1.811-0.684c0.823,0.373,1.669,0.719,2.513,1.039c0.706,0.264,1.066,1.055,0.802,1.767
					C-27.059-26.273-27.578-25.938-28.132-25.938z M9.668-29.613c-0.456,0-0.907-0.232-1.167-0.655
					c-0.396-0.643-0.201-1.489,0.447-1.886c0.773-0.476,1.531-0.98,2.262-1.503c0.617-0.437,1.475-0.297,1.912,0.321
					c0.44,0.615,0.297,1.475-0.318,1.912c-0.781,0.558-1.594,1.099-2.417,1.606C10.165-29.681,9.915-29.613,9.668-29.613z
					 M-35.686-29.644c-0.247,0-0.493-0.065-0.718-0.205c-0.813-0.509-1.625-1.045-2.41-1.611c-0.619-0.44-0.762-1.295-0.318-1.91
					c0.44-0.617,1.297-0.76,1.916-0.32c0.738,0.531,1.5,1.038,2.258,1.508c0.645,0.396,0.84,1.244,0.447,1.886
					C-34.775-29.876-35.223-29.644-35.686-29.644z M16.357-34.712c-0.365,0-0.734-0.15-1.001-0.44
					c-0.516-0.556-0.484-1.424,0.072-1.94c0.666-0.617,1.309-1.257,1.933-1.912c0.522-0.554,1.388-0.573,1.939-0.054
					c0.551,0.522,0.572,1.39,0.053,1.94c-0.654,0.696-1.346,1.379-2.057,2.034C17.026-34.838,16.694-34.712,16.357-34.712z
					 M-42.367-34.753c-0.334,0-0.673-0.122-0.935-0.365c-0.697-0.646-1.384-1.338-2.053-2.04c-0.523-0.552-0.495-1.417,0.052-1.94
					c0.549-0.519,1.417-0.494,1.94,0.054c0.624,0.657,1.264,1.299,1.93,1.917c0.556,0.516,0.587,1.382,0.071,1.937
					C-41.633-34.899-41.999-34.753-42.367-34.753z"/>
			</g>
		</g>
		<g>
			<g>
				<path fill="#B9B8F1" d="M21.965-41.048c-0.278,0-0.554-0.082-0.8-0.262c-0.612-0.447-0.752-1.302-0.308-1.91
					c0.257-0.362,0.516-0.724,0.762-1.096c0.427-0.626,1.281-0.792,1.903-0.365c0.627,0.423,0.792,1.274,0.365,1.903
					c-0.26,0.392-0.533,0.774-0.809,1.154C22.814-41.245,22.392-41.048,21.965-41.048z"/>
			</g>
		</g>
	</g>
	<g>
		<g>
			<g>
				<g>
					<g>
						<g>
							<path fill="#566CD3" d="M162.313,151.523V39.954c0-6.206-4.887-11.243-10.912-11.243H-18.361
								c-6.028,0-10.904,5.034-10.904,11.243v111.569H162.313z"/>
						</g>
					</g>
				</g>
			</g>
			<g>
				<g>
					<path fill="#566CD3" d="M144.348,95.3h52.507c5.418,0,9.802,4.394,9.802,9.801l0,0c0,5.415-4.391,9.805-9.802,9.805h-52.507
						c-5.418,0-9.809-4.394-9.809-9.805l0,0C134.539,99.687,138.93,95.3,144.348,95.3z"/>
				</g>
				<g>
					<path fill="#566CD3" d="M149.182,56.823h28.55c5.422,0,9.805,4.386,9.805,9.801l0,0c0,5.414-4.39,9.797-9.805,9.797h-28.55
						c-5.414,0-9.798-4.387-9.798-9.797l0,0C139.384,61.209,143.768,56.823,149.182,56.823z"/>
				</g>
				<g>
					<path fill="#566CD3" d="M131.694,132.354h77.807c3.51,0,6.352,3.212,6.352,7.165l0,0c0,3.964-2.842,7.173-6.352,7.173h-77.807
						c-3.506,0-6.352-3.209-6.352-7.173l0,0C125.343,135.57,128.188,132.354,131.694,132.354z"/>
				</g>
				<g>
					<path fill="#566CD3" d="M188.438,38.608h28.156c3.506,0,6.351,2.845,6.351,6.353l0,0c0,3.511-2.845,6.353-6.351,6.353h-28.156
						c-3.502,0-6.348-2.842-6.348-6.353l0,0C182.09,41.454,184.936,38.608,188.438,38.608z"/>
				</g>
				<g>
					<path fill="#566CD3" d="M152.191,113.989h37.791c-2.789,0-5.326,1.154-7.158,2.901c-1.835,1.755-2.971,3.824-2.971,6.502
						c0,5.334,4.54,9.314,10.129,9.314h-37.791c2.789,0,5.319-0.706,7.158-2.45c1.828-1.744,2.964-4.04,2.964-6.718
						C162.313,118.191,157.783,113.989,152.191,113.989z"/>
				</g>
			</g>
		</g>
		<g>
			<g>
				<g>
					<g>
						<rect x="-20.785" y="38.78" fill="#E5E9FF" width="174.615" height="104.068"/>
					</g>
				</g>
			</g>
		</g>
		<g>
			<g>
				<g>
					<g>
						<ellipse fill="#FFFFFF" cx="66.371" cy="33.636" rx="2.849" ry="2.914"/>
					</g>
				</g>
			</g>
		</g>
		<g>
			<g>
				<g>
					<g>
						<ellipse fill="#121F55" cx="71.17" cy="33.636" rx="1.249" ry="1.278"/>
					</g>
				</g>
			</g>
		</g>
		<g>
			<g>
				<g>
					<g>
						<path fill="#FFFFFF" d="M-40.294,151.523v5.299c0,2.929,2.316,5.299,5.178,5.299h203.277c2.859,0,5.181-2.37,5.181-5.299
							v-5.299H-40.294z"/>
					</g>
				</g>
			</g>
		</g>
	</g>
	<g>
		<g>
			<path fill="#B9B8F1" d="M124.783,65.425c-0.202-1.604-1.667-3.128-3.254-3.411l-6.264-1.091
				c-1.607-0.287-3.317-1.751-3.838-3.309l-2.517-6.202c-0.695-1.447-0.524-3.716,0.451-5.02l3.723-5.179
				c0.937-1.307,0.915-3.45-0.073-4.713l-3.359-3.999c-1.115-1.174-3.195-1.568-4.656-0.851l-5.729,2.812
				c-1.465,0.695-3.688,0.487-4.964-0.482c0,0-0.968-0.759-2.803-1.895c-1.814-1.12-2.926-1.653-2.926-1.653
				c-1.423-0.734-2.614-2.62-2.625-4.236l-0.024-6.403c-0.035-1.598-1.297-3.323-2.846-3.777l-5.054-1.239
				c-1.569-0.304-3.496,0.598-4.265,2.027l-0.965,1.835l-1.164,2.223l-0.835,1.571c-0.766,1.424-2.716,2.609-4.328,2.626
				l-2.469,0.161l-1.11,0.083l-3.102,0.236c-1.622,0.222-3.702-0.663-4.665-1.984l-3.75-5.11c-0.963-1.321-2.992-1.959-4.507-1.414
				l-4.837,1.954c-1.482,0.698-2.492,2.566-2.27,4.147l0.901,6.318c0.226,1.622-0.662,3.702-1.978,4.638l-5.129,4.357
				c-1.157,1.113-3.347,1.622-4.894,1.127l-6.07-1.94c-1.543-0.487-3.572,0.171-4.528,1.475c0,0-0.465,0.629-1.424,2.2
				c-0.984,1.608-1.342,2.255-1.342,2.255c-0.745,1.429-0.447,3.558,0.669,4.692l4.442,4.589c1.12,1.152,1.64,3.385,1.169,4.908
				l-1.639,6.559c-0.283,1.565-1.753,3.269-3.29,3.792l-6.045,2.003c-1.531,0.511-2.742,2.241-2.708,3.838l0.372,5.247
				c0.199,1.604,1.664,3.121,3.249,3.404l6.264,1.087c1.604,0.287,3.315,1.759,3.838,3.313l2.524,6.205
				c0.715,1.453,0.522,3.719-0.413,5.016l-3.74,5.201c-0.956,1.289-0.919,3.433,0.083,4.701l3.333,3.998
				c1.117,1.172,3.189,1.563,4.652,0.843l5.727-2.817c1.445-0.706,3.672-0.482,4.965,0.493c0,0,1.008,0.762,2.802,1.891
				c1.811,1.119,2.943,1.692,2.943,1.692c1.428,0.699,2.613,2.593,2.63,4.222l0.021,6.387c0.014,1.597,1.285,3.324,2.828,3.778
				l5.058,1.244c1.571,0.301,3.493-0.615,4.259-2.03l2.981-5.632c0.752-1.422,2.699-2.597,4.317-2.625l6.68-0.479
				c1.614-0.228,3.697,0.653,4.662,1.975l3.751,5.114c0.961,1.321,2.992,1.964,4.506,1.419l4.861-1.992
				c1.465-0.664,2.465-2.531,2.248-4.132l-0.905-6.299c-0.221-1.614,0.667-3.698,1.979-4.642l5.135-4.355
				c1.174-1.118,3.383-1.636,4.907-1.125l6.075,1.922c1.523,0.514,3.555-0.175,4.509-1.461c0,0,0.468-0.622,1.443-2.188
				c1-1.608,1.317-2.279,1.317-2.279c0.752-1.412,0.448-3.537-0.671-4.705l-4.418-4.551c-1.132-1.175-1.657-3.391-1.167-4.915
				l1.618-6.529c0.283-1.587,1.758-3.299,3.292-3.813l6.058-2.002c1.521-0.524,2.766-2.237,2.691-3.873L124.783,65.425z
				 M94.699,89.815c-9.669,15.562-30.108,20.315-45.685,10.654c-15.541-9.668-20.338-30.092-10.652-45.669
				c5.512-8.887,14.535-14.231,24.16-15.42c1.096-0.147,2.227-0.203,3.329-0.196c1.035-0.047,2.046-0.019,3.06,0.079
				c1.124,0.053,2.212,0.171,3.333,0.372c4.055,0.69,8.058,2.187,11.787,4.499C99.586,53.796,104.363,74.24,94.699,89.815z"/>
		</g>
		<g>
			<g>
				<g>
					<g>
						<g>
							<g>
								<g>
									<path fill="#FFFFFF" d="M67.535-3.391c-0.023-4.18,1.568-8,4.186-10.863h1.342c-1.056,1.868-1.566,4.051-1.664,6.185
										c-0.135,3.017,1.447,6.464,3.548,8.562c2.192,2.197,5.456,3.549,8.567,3.549c3.278,0,6.19-1.37,8.567-3.549
										c2.377-2.18,3.401-5.43,3.548-8.562c0.084-2.048-0.615-4.292-1.727-6.185h1.349c2.58,2.817,4.159,6.557,4.185,10.673
										c0.038,6.458-3.771,12.042-9.277,14.58l0.228,103.656c5.536,2.475,9.409,8.011,9.451,14.471
										c0.024,3.929-1.377,7.543-3.719,10.336h-1.56c0.79-1.678,1.182-3.563,1.263-5.397c0.136-3.017-1.447-6.47-3.545-8.567
										c-2.198-2.198-5.463-3.544-8.563-3.544c-3.289,0-6.197,1.366-8.567,3.544c-2.384,2.182-3.411,5.433-3.551,8.567
										c-0.077,1.772,0.44,3.691,1.3,5.397h-1.23c-2.309-2.748-3.705-6.281-3.729-10.145c-0.04-6.459,3.765-12.041,9.277-14.579
										L76.978,11.081C71.449,8.604,67.577,3.069,67.535-3.391z"/>
								</g>
							</g>
						</g>
					</g>
				</g>
			</g>
			<g>
				<g id="XMLID_1545_">
					<g id="XMLID_1548_">
						<g>
							<g>
								<g>
									<path fill="#FFFFFF" d="M60.439-9.565c-0.285-0.73-9.065-14.5-9.065-14.5s-8.405,13.366-8.952,14.5H60.439z"/>
								</g>
							</g>
						</g>
					</g>
					<g id="XMLID_1546_">
						<g>
							<g>
								<g>
									<polygon fill="#121F55" points="47.074,-17.092 55.715,-17.117 51.377,-24.069 									"/>
								</g>
							</g>
						</g>
					</g>
				</g>
				<g id="XMLID_1544_">
					<g>
						<g>
							<g>
								<polygon fill="#F7B75D" points="60.254,-9.049 42.371,-8.992 42.412,128.981 60.254,128.981 								"/>
							</g>
						</g>
					</g>
				</g>
				<g id="XMLID_1539_">
					<g>
						<g>
							<g>
								<polygon fill="#FFCA80" points="54.38,-9.049 48.242,-8.992 48.252,128.981 54.38,128.981 								"/>
							</g>
						</g>
					</g>
				</g>
				<g>
					<g>
						<g>
							<path fill="#566CD3" d="M42.351,128.981v6.924c0,1.958,1.596,3.556,3.549,3.556h10.99c1.954,0,3.553-1.598,3.553-3.556
								v-6.924H42.351z"/>
						</g>
					</g>
				</g>
			</g>
		</g>
		<g>
			<path fill="#B9B8F1" d="M112.654,91.773c-0.472-0.49-0.821-1.15-1.055-1.87H94.643c-9.688,15.491-30.079,20.214-45.628,10.566
				c-4.441-2.765-7.999-6.407-10.601-10.566H22.797l1.342,3.3c0.715,1.453,0.522,3.719-0.413,5.016l-3.74,5.201
				c-0.956,1.289-0.919,3.433,0.083,4.701l3.333,3.998c1.117,1.172,3.189,1.563,4.652,0.843l5.727-2.817
				c1.445-0.706,3.672-0.482,4.965,0.493c0,0,1.008,0.762,2.802,1.891c1.811,1.119,2.943,1.692,2.943,1.692
				c1.428,0.699,2.613,2.593,2.63,4.222l0.021,6.387c0.014,1.597,1.285,3.324,2.828,3.778l5.058,1.244
				c1.571,0.301,3.493-0.615,4.259-2.03l2.981-5.632c0.752-1.422,2.699-2.597,4.317-2.625l6.68-0.479
				c1.614-0.228,3.697,0.653,4.662,1.975l3.751,5.114c0.961,1.321,2.992,1.961,4.506,1.419l4.861-1.996
				c1.465-0.66,2.465-2.527,2.248-4.128l-0.905-6.299c-0.221-1.614,0.667-3.698,1.979-4.642l5.135-4.355
				c1.174-1.118,3.383-1.636,4.907-1.125l6.075,1.922c1.523,0.514,3.555-0.175,4.509-1.461c0,0,0.468-0.622,1.443-2.188
				c1-1.608,1.317-2.279,1.317-2.279c0.752-1.412,0.448-3.537-0.671-4.705L112.654,91.773z"/>
		</g>
	</g>
	<g>
		<g>
			<polygon fill="#566CD3" points="-39.859,37.355 -53.094,24.223 -46.305,17.433 -33.061,30.565 			"/>
		</g>
		<g>
			<path fill="#2143AF" d="M9.321,86.631l-43.799-43.795l6.79-6.79l43.799,43.8C13.846,82.104,11.582,84.37,9.321,86.631z"/>
		</g>
		<g>
			<path fill="#FFFFFF" d="M3.84,81.15l-43.799-43.795l6.79-6.79l43.795,43.794C8.365,76.62,6.104,78.889,3.84,81.15z"/>
		</g>
		<g>
			<polygon fill="#B9B8F1" points="-61.216,26.364 -63.306,30.605 -67.988,31.286 -64.601,34.585 -65.4,39.245 -61.216,37.044 
				-57.032,39.245 -57.831,34.585 -54.444,31.286 -59.122,30.605 			"/>
		</g>
		<g>
			<polygon fill="#B9B8F1" points="-49.279,8.517 -46.373,9.705 -45.704,12.774 -43.678,10.378 -40.557,10.694 -42.203,8.024 
				-40.939,5.146 -43.989,5.894 -46.329,3.803 -46.563,6.935 			"/>
		</g>
		<g>
			<polygon fill="#B9B8F1" points="-61.069,13.229 -60.099,16.084 -61.906,18.5 -58.893,18.461 -57.151,20.923 -56.256,18.042 
				-53.377,17.146 -55.84,15.408 -55.8,12.393 -58.217,14.198 			"/>
		</g>
		<g>
			<polygon fill="#B9B8F1" points="-31.533,18.042 -33.695,19.681 -36.273,18.826 -35.389,21.388 -36.995,23.575 -34.279,23.526 
				-32.701,25.729 -31.909,23.134 -29.321,22.311 -31.547,20.759 			"/>
		</g>
		<g>
			<polygon fill="#B9B8F1" points="-48.51,38.404 -50.676,40.04 -53.255,39.185 -52.364,41.75 -53.975,43.937 -51.258,43.885 
				-49.68,46.092 -48.89,43.499 -46.301,42.673 -48.531,41.122 			"/>
		</g>
		<g>
			<polygon fill="#B9B8F1" points="-67.312,18.676 -69.478,20.312 -72.05,19.456 -71.162,22.023 -72.773,24.209 -70.061,24.155 
				-68.478,26.364 -67.691,23.769 -65.099,22.945 -67.329,21.388 			"/>
		</g>
		<g>
			<polygon fill="#B9B8F1" points="-29.204,9.719 -31.43,9.978 -32.907,8.291 -33.347,10.49 -35.413,11.374 -33.456,12.472 
				-33.255,14.702 -31.605,13.185 -29.418,13.687 -30.348,11.645 			"/>
		</g>
		<g>
			<polygon fill="#B9B8F1" points="-53.993,4.261 -56.219,4.52 -57.694,2.83 -58.138,5.032 -60.199,5.911 -58.245,7.01 
				-58.046,9.247 -56.394,7.73 -54.204,8.227 -55.143,6.187 			"/>
		</g>
	</g>
	<g>
		<g>
			<g>
				<path fill="#FFFFFF" d="M-58.976,75.967h-0.472c-16.287,0.161-29.443,14.017-29.443,31.099c0,5.81,1.435,11.301,4.198,15.887
					c6.937,11.499,10.817,27.2,10.817,27.2h14.429h0.472h14.429c0,0,3.88-15.701,10.816-27.2c2.759-4.583,4.202-10.074,4.202-15.887
					C-29.528,89.983-42.69,76.128-58.976,75.967z"/>
			</g>
			<g id="XMLID_543_">
				<g id="XMLID_544_">
					<g>
						<g>
							<polygon fill="#B9B8F1" points="-74.663,147.919 -74.663,158.493 -71.407,164.169 -59.266,164.169 -47.128,164.169 
								-43.863,158.493 -43.863,147.919 							"/>
						</g>
					</g>
				</g>
			</g>
		</g>
		<g>
			<path fill="#F7B75D" d="M-59.211,85.229c-2.555-2.495-10.287-0.916-10.287,4.614c-5.194,0-9.775,6.906-6.178,12.576
				c-4.918,2.775-5.458,11.759,0.426,14.855c0,7.099,8.078,11.786,16.035,7.613c7.961,4.173,16.035-0.515,16.035-7.613
				c5.888-3.097,5.344-12.08,0.426-14.855c3.597-5.67-0.982-12.576-6.174-12.576C-48.924,84.313-56.653,82.734-59.211,85.229z"/>
		</g>
		<g id="XMLID_528_">
			<g id="XMLID_536_">
				<g id="XMLID_537_">
					<g>
						<g>
							<path fill="#FFFFFF" d="M-50.502,104.244c-0.033-0.237-0.249-0.465-0.488-0.51l-0.933-0.161
								c-0.241-0.049-0.495-0.266-0.573-0.5l-0.376-0.926c-0.105-0.217-0.075-0.553,0.068-0.752l0.554-0.775
								c0.14-0.192,0.14-0.514-0.01-0.699l-0.505-0.602c-0.165-0.175-0.476-0.234-0.694-0.126l-0.854,0.42
								c-0.222,0.102-0.556,0.073-0.744-0.073l-0.856-0.528c-0.212-0.111-0.39-0.388-0.39-0.64l-0.004-0.95
								c-0.003-0.245-0.194-0.504-0.426-0.566l-0.755-0.188c-0.236-0.046-0.523,0.091-0.642,0.3l-0.143,0.276l-0.171,0.332
								l-0.121,0.238c-0.119,0.216-0.409,0.384-0.652,0.391l-1,0.074c-0.243,0.031-0.554-0.102-0.698-0.301l-0.563-0.763
								c-0.142-0.199-0.448-0.29-0.673-0.213l-0.722,0.294c-0.222,0.102-0.373,0.381-0.337,0.615l0.133,0.947
								c0.035,0.241-0.1,0.549-0.297,0.695l-0.762,0.657c-0.177,0.168-0.501,0.244-0.73,0.168l-0.909-0.29
								c-0.229-0.07-0.533,0.024-0.676,0.227c0,0-0.071,0.091-0.215,0.329c-0.147,0.237-0.201,0.335-0.201,0.335
								c-0.11,0.217-0.064,0.531,0.102,0.703l0.661,0.682c0.169,0.175,0.248,0.507,0.176,0.733l-0.245,0.979
								c-0.042,0.23-0.26,0.489-0.493,0.565l-0.902,0.301c-0.232,0.077-0.413,0.336-0.405,0.573l0.054,0.783
								c0.031,0.237,0.246,0.469,0.487,0.511l0.934,0.16c0.239,0.042,0.494,0.263,0.573,0.496l0.375,0.931
								c0.107,0.216,0.075,0.552-0.061,0.751l-0.563,0.776c-0.142,0.192-0.134,0.514,0.016,0.702l0.496,0.598
								c0.169,0.175,0.477,0.234,0.696,0.126l0.854-0.419c0.218-0.108,0.552-0.074,0.745,0.073l0.86,0.531
								c0.215,0.104,0.393,0.384,0.393,0.636l0.003,0.951c0,0.241,0.194,0.5,0.423,0.566l0.755,0.188
								c0.236,0.042,0.522-0.091,0.636-0.308l0.444-0.839c0.115-0.217,0.405-0.378,0.645-0.392l0.998-0.073
								c0.245-0.039,0.552,0.102,0.696,0.297l0.561,0.766c0.143,0.199,0.447,0.29,0.676,0.206l0.73-0.301
								c0.218-0.098,0.365-0.374,0.332-0.615l-0.135-0.943c-0.037-0.237,0.096-0.553,0.297-0.692l0.762-0.653
								c0.179-0.168,0.509-0.245,0.734-0.168l0.909,0.29c0.226,0.073,0.529-0.027,0.673-0.224c0,0,0.072-0.091,0.215-0.328
								c0.15-0.238,0.196-0.343,0.196-0.343c0.112-0.21,0.068-0.524-0.1-0.699l-0.662-0.678c-0.171-0.182-0.247-0.511-0.175-0.734
								l0.239-0.976c0.047-0.241,0.266-0.492,0.495-0.569l0.905-0.301c0.226-0.077,0.414-0.335,0.4-0.58L-50.502,104.244z
								 M-55.003,107.887c-1.442,2.328-4.499,3.041-6.828,1.598c-2.323-1.443-3.039-4.499-1.59-6.827
								c0.819-1.328,2.174-2.128,3.609-2.31c0.164-0.018,0.332-0.028,0.496-0.025c0.156-0.014,0.31-0.007,0.457,0.008
								c0.167,0.01,0.332,0.031,0.496,0.059c0.608,0.102,1.206,0.325,1.765,0.675C-54.272,102.504-53.556,105.563-55.003,107.887z"
								/>
						</g>
					</g>
				</g>
			</g>
			<g id="XMLID_530_">
				<g id="XMLID_531_">
					<g>
						<g>
							<path fill="#FFFFFF" d="M-57.347,102.273c-0.333-0.21-0.69-0.35-1.048-0.438c-0.484-0.118-0.977-0.126-1.451-0.045
								c-0.944,0.178-1.817,0.733-2.368,1.614c-1.031,1.657-0.519,3.831,1.141,4.866c1.657,1.027,3.836,0.524,4.868-1.133
								C-55.174,105.482-55.69,103.305-57.347,102.273z M-58.131,105.943c-0.372,0.594-1.155,0.786-1.746,0.409
								c-0.602-0.374-0.785-1.15-0.413-1.751c0.101-0.168,0.229-0.301,0.379-0.389c0.402-0.269,0.938-0.286,1.375-0.024
								c0.028,0.024,0.054,0.046,0.075,0.066C-57.93,104.636-57.78,105.37-58.131,105.943z"/>
						</g>
					</g>
				</g>
			</g>
		</g>
	</g>
	<g>
		<g>
			<path fill="#F7B75D" d="M122.291-30.2c-0.052,0.044-0.098,0.086-0.146,0.137L107.072-15.06c-1.069,1.063-1.072,2.792-0.007,3.859
				c1.063,1.059,2.782,1.063,3.849,0.007l15.072-15.007c0.052-0.047,0.087-0.102,0.133-0.15c-0.734-0.512-1.437-1.092-2.091-1.755
				C123.375-28.758,122.798-29.462,122.291-30.2z"/>
		</g>
		<g>
			<path fill="#FFFFFF" d="M115.531-25.922l-6.449,6.425c-0.855,0.854-0.855,2.244-0.003,3.102l3.201,3.2
				c0.854,0.856,2.244,0.856,3.098,0.003l6.445-6.428c0.859-0.851,0.859-2.244,0.007-3.099l-3.205-3.2
				C117.771-26.774,116.388-26.774,115.531-25.922z"/>
		</g>
		<g id="XMLID_549_">
			<g>
				<g>
					<g>
						<path fill="#B9B8F1" d="M127.559-48.984l-1.262-1.92l-4.055,2.665l1.259,1.922c-1.363,1.314-2.405,2.875-3.09,4.563
							l-2.258-0.465l-0.982,4.754L119.425-37c-0.027,1.435,0.175,2.889,0.622,4.295c0.112,0.36,0.249,0.726,0.399,1.08
							c0.003,0.014,0.01,0.028,0.017,0.044l-1.926,1.264l2.667,4.055l1.923-1.267c0.346,0.361,0.709,0.697,1.08,1.008
							c1.063,0.884,2.237,1.583,3.488,2.092l-0.469,2.251l4.747,0.98l0.469-2.248c1.824,0.035,3.666-0.304,5.421-1.038l1.262,1.923
							l4.055-2.667l-1.262-1.919c1.367-1.314,2.408-2.87,3.097-4.563l2.251,0.465l0.989-4.749l-2.265-0.466
							c0.049-1.825-0.294-3.668-1.027-5.423l1.922-1.262l-2.663-4.053l-1.923,1.264c-0.35-0.362-0.706-0.697-1.083-1.008
							c-1.06-0.884-2.237-1.583-3.481-2.086l0.465-2.256l-4.75-0.98l-0.469,2.251C131.156-50.057,129.311-49.718,127.559-48.984z
							 M138.992-44.274c0.728,0.601,1.377,1.325,1.916,2.155c2.978,4.528,1.72,10.61-2.811,13.592
							c-3.698,2.426-8.428,2.036-11.664-0.663c-0.724-0.601-1.377-1.325-1.919-2.155c-0.318-0.477-0.58-0.97-0.804-1.479
							c-0.154-0.355-0.291-0.717-0.398-1.08c-1.221-4.053,0.293-8.584,4.009-11.028C131.022-47.362,135.749-46.969,138.992-44.274z"
							/>
					</g>
				</g>
			</g>
		</g>
	</g>
	<g>
		<g id="_x38_._Right_shoe_238_">
			<g>
				<g>
					<circle fill="#F7B75D" cx="-35.31" cy="153.713" r="3.008"/>
				</g>
			</g>
			<g>
				<g>
					<path fill="#F7B75D" d="M-47.142,153.467l10.956,3.125c1.159,0.328,2.365-0.343,2.695-1.496l0,0
						c0.329-1.164-0.454-4.118-1.611-4.45l-11.493,0.105c-1.267,0.01-1.951,1.59-1.017,2.442
						C-47.472,153.323-47.318,153.418-47.142,153.467z"/>
				</g>
			</g>
			<g>
				<g>
					<path fill="#FFFFFF" d="M-38.795,152.055L-38.795,152.055c0.322-0.015,0.543-0.314,0.472-0.623l-0.27-1.132
						c-0.056-0.238-0.271-0.398-0.515-0.385l0,0c-0.315,0.014-0.54,0.314-0.472,0.622l0.269,1.129
						C-39.254,151.9-39.04,152.068-38.795,152.055z"/>
				</g>
			</g>
			<g>
				<g>
					<path fill="#FFFFFF" d="M-40.431,152.124L-40.431,152.124c0.318-0.011,0.543-0.311,0.472-0.622l-0.269-1.133
						c-0.056-0.23-0.267-0.398-0.514-0.384l0,0c-0.32,0.014-0.545,0.311-0.474,0.622l0.269,1.125
						C-40.889,151.971-40.675,152.139-40.431,152.124z"/>
				</g>
			</g>
		</g>
		<g>
			<g>
				<path fill="#8EDEF2" d="M-32.001,132.428l0.056-0.035l16.427-9.679l4.915,5.32l-17.238,9.141l-4.042,17.592l-0.121-0.021
					l-4.621-4.188l3.125-16.121C-33.33,133.609-32.804,132.851-32.001,132.428z"/>
			</g>
		</g>
		<g id="_x38_._Right_shoe_237_">
			<g>
				<g>
					<circle fill="#F7B75D" cx="3.769" cy="159.398" r="2.706"/>
				</g>
			</g>
			<g>
				<g>
					<path fill="#F7B75D" d="M-6.513,162.125l10.24-0.021c1.083,0,1.957-0.885,1.954-1.972l0,0c0-1.08-1.417-3.439-2.497-3.436
						l-9.901,2.943c-1.096,0.332-1.292,1.859-0.272,2.362C-6.84,162.086-6.679,162.125-6.513,162.125z"/>
				</g>
			</g>
			<g>
				<g>
					<path fill="#FFFFFF" d="M0.345,158.832L0.345,158.832c0.271-0.088,0.39-0.409,0.25-0.661l-0.516-0.908
						c-0.106-0.189-0.332-0.272-0.54-0.206l0,0c-0.272,0.087-0.395,0.401-0.255,0.653l0.516,0.916
						C-0.089,158.814,0.14,158.898,0.345,158.832z"/>
				</g>
			</g>
			<g>
				<g>
					<path fill="#FFFFFF" d="M-1.052,159.3L-1.052,159.3c0.271-0.087,0.393-0.408,0.253-0.656l-0.516-0.913
						c-0.106-0.188-0.332-0.275-0.54-0.209l0,0c-0.269,0.091-0.393,0.401-0.25,0.649l0.512,0.92
						C-1.485,159.283-1.26,159.366-1.052,159.3z"/>
				</g>
			</g>
		</g>
		<g>
			<g>
				<path fill="#8EDEF2" d="M-17.893,120.295l10.888-1.185c0.676,0.766,1.496,3.143,1.739,4.208
					c0.388,1.717,0.044,3.415-0.823,4.782c-0.865,1.374-2.251,2.422-3.966,2.807c-0.833,0.192-4.963,0.252-6.909-1.64
					C-19.808,126.503-17.893,120.295-17.893,120.295z"/>
			</g>
		</g>
		<g>
			<g>
				<path fill="#8EDEF2" d="M-11.099,126.122h7.008l-2.688,16.677l11.83,13.793l-6.14,1.719l-11.289-12.66
					c-0.554-0.629-0.84-1.503-0.697-2.397L-11.099,126.122z"/>
			</g>
		</g>
		<g>
			<g>
				<path fill="#121F55" d="M-39.747,119.033l16.239-0.283c0.715-0.018,1.363-0.419,1.688-1.065l6.361-12.65l-3.452-1.733
					l-5.837,11.611l-15.068,0.259L-39.747,119.033z"/>
			</g>
		</g>
		<g>
			<g>
				<polygon fill="#F99AB6" points="-16.568,93.283 -16.078,103.531 -11.328,103.305 -12.015,93.409 -12.212,90.592 				"/>
			</g>
		</g>
		<g>
			<g>
				<g>
					<path fill="#F99AB6" d="M-12.939,96.513c0,0-1.073,2.639-3.321,3.3l-0.161-3.433L-12.939,96.513z"/>
				</g>
			</g>
		</g>
		<g>
			<g>
				<path fill="#F99AB6" d="M-18.118,99.351c-0.19-0.031-0.559-0.133-0.741-0.182c-1.765-0.485-3.511-3.4-3.443-5.071
					c0.082-2.003,0.29-3.003,0.175-4.359c-0.161-1.859,1.643-3.32,3.511-3.243l3.78,0.15c1.417,0.06,2.527,1.255,2.47,2.677
					l-0.247,6.132C-12.698,97.639-15.956,99.693-18.118,99.351z"/>
			</g>
		</g>
		<g>
			<g>
				<path fill="#F99AB6" d="M-10.311,100.714c-0.505-0.342-1.127-0.507-1.783-0.433l-2.097,0.244
					c-1.021,0.119-1.949,0.482-2.735,1.027C-14.753,102.189-12.134,101.969-10.311,100.714z"/>
			</g>
		</g>
		<g>
			<g>
				<path fill="#121F55" d="M-7.048,104.748c-0.093-1.65-1.564-3.873-3.361-4.094c-3.041,0.424-5.776,0.595-6.808,0.836
					c-1.772,1.23-2.824,3.366-2.559,5.655l0.268,18.959c5.696,4.013,16.126,2.401,16.126,2.401
					C-3.381,120.323-6.861,107.995-7.048,104.748z"/>
			</g>
		</g>
		<g>
			<g>
				<path fill="#121F55" d="M-28.333,118.925l13.258,0.147c0.963,0.007,1.786-0.692,1.93-1.644l2.179-14.597l-3.815-0.573
					l-1.933,12.934l-11.575-0.126L-28.333,118.925z"/>
			</g>
		</g>
		<g>
			<g>
				<path fill="#F7B75D" d="M-16.676,101.393c0.867-0.21,2.407-0.256,4.86-0.556c-1.363,3.198-5.031,5.848-6.12,9.595
					C-18.5,109.81-18.452,102.623-16.676,101.393z"/>
			</g>
		</g>
		<g>
			<g>
				<path fill="#2747B3" d="M-16.526,101.976c0.157-0.178,0.666-0.527,0.68-0.72c0.395-0.053,0.33,0.105,0.874,0.046
					c-1.489,1.377-0.625,3.648-1.213,5.718c-0.745,1.06-1.389,2.168-1.751,3.412c-0.311-0.354-0.435-2.706-0.182-4.949
					C-18.09,105.237-17.735,103.356-16.526,101.976z"/>
			</g>
		</g>
		<g>
			<path fill="#B8B9F1" d="M-16.701,102.333c0.186,0.244,0.984,0.366,1.236,0.185c0.243-0.168,0.479-1.098,0.479-1.098l-1.844-0.272
				C-16.833,101.147-16.879,102.099-16.701,102.333z"/>
		</g>
		<g>
			<g>
				<path fill="#121F55" d="M-19.962,90.221c-7.315-1.594-2.05-6.242-2.05-6.242s0.15,1.73,1.564,1.167
					c2.712-1.09,8.607-1.775,10.229,1.769c1.264,2.762-1.089,8.791-1.533,10.367c-0.729-0.461-0.114-7.557-3.113-7.263
					C-16.5,90.179-18.361,90.57-19.962,90.221z"/>
			</g>
		</g>
		<g>
			<g>
				<path fill="#FFFEFF" d="M-18.855,97.823c-1.493-0.066-0.529-2.537,0.037-2.506C-18.247,95.346-17.363,97.89-18.855,97.823z"/>
			</g>
		</g>
		<g>
			<polygon fill="#FFFFFF" points="-14.056,103.172 -10.344,100.707 -11.601,99.323 -16.014,101.287 			"/>
		</g>
		<g>
			<polygon fill="#FFFFFF" points="-17.141,102.217 -16.926,101.396 -16.215,100.654 -15.912,101.287 			"/>
		</g>
		<g>
			<g>
				<path fill="#566CD3" d="M-13.794,114.43c0-0.447-0.365-0.817-0.82-0.817h-29.628c-0.621,0-1.129,0.37-1.129,0.817
					c0,0.455,0.509,0.818,1.129,0.818h29.628C-14.159,115.248-13.794,114.885-13.794,114.43L-13.794,114.43z"/>
			</g>
			<g>
				<path fill="#2143AF" d="M-12.63,114.43c0,0.455-0.398,0.818-0.884,0.818h-11.25c-0.484,0-0.88-0.37-0.88-0.818
					c0-0.447,0.396-0.817,0.88-0.817h11.253C-13.029,113.612-12.63,113.982-12.63,114.43z"/>
			</g>
			<g>
				<path fill="#2143AF" d="M-45.324,98.281v14.939c0,0.671,0.537,1.209,1.202,1.209h19.716c0.669,0,1.203-0.538,1.203-1.209V98.281
					c0-0.671-0.537-1.206-1.203-1.206h-19.716C-44.788,97.075-45.324,97.61-45.324,98.281z"/>
			</g>
			<g>
				<path fill="#E5E9FF" d="M-46.244,98.281v14.939c0,0.671,0.54,1.209,1.206,1.209h19.714c0.669,0,1.208-0.538,1.208-1.209V98.281
					c0-0.671-0.538-1.206-1.208-1.206h-19.714C-45.704,97.075-46.244,97.61-46.244,98.281z"/>
			</g>
			<g>
				<path fill="#2143AF" d="M-31.93,105.751L-31.93,105.751c0-0.702-0.57-1.269-1.271-1.269h-3.958
					c-0.702,0-1.271,0.566-1.271,1.269l0,0c0,0.699,0.568,1.269,1.271,1.269h3.958C-32.503,107.02-31.93,106.45-31.93,105.751z"/>
			</g>
		</g>
		<g>
			<g>
				<path fill="#F99AB6" d="M-27.083,116.988c0.136-0.804-0.033-1.59-0.423-2.236l-4.983-0.839c-0.58,0.485-0.998,1.174-1.131,1.975
					c-0.304,1.814,0.913,3.513,2.712,3.82C-29.099,120.012-27.391,118.792-27.083,116.988z"/>
			</g>
		</g>
		<g>
			<g>
				<path fill="#F99AB6" d="M-37.603,116.073c0.068-0.814-0.166-1.58-0.61-2.202l-5.035-0.416c-0.533,0.527-0.895,1.255-0.963,2.065
					c-0.154,1.825,1.202,3.426,3.029,3.579C-39.361,119.247-37.757,117.897-37.603,116.073z"/>
			</g>
		</g>
	</g>
	<g>
		<g>
			<g>
				<path fill="#2143AF" d="M142.606-8.02c-0.014,2.83-1.465,5.119-3.243,5.114c-1.783-0.007-3.22-2.307-3.209-5.138
					c0.01-2.832,1.461-5.121,3.243-5.114C141.181-13.151,142.613-10.851,142.606-8.02z"/>
			</g>
		</g>
		<g>
			<g>
				<path fill="#2143AF" d="M154.974-0.507c-2.069-1.188-4.362-4.165-3.492-6.786c2.045-6.127-2.729-8.317-5.093-8.768
					c-2.366-0.455-4.457,0.146-5.768,1.199c-2.139,1.714-1.496,4.663-0.308,7.04c-1.293,0.745-1.908,2.353-1.167,3.541
					c1.621,2.606,0.224,6.103-0.741,8.181c-1.56,3.347,0.608,7.502,4.383,9.396c3.771,1.895,8.68,1.693,12.465-0.003
					c1.877-0.841,3.572-2.068,4.429-3.7C161.53,6.066,158.86,1.734,154.974-0.507z"/>
			</g>
		</g>
		<g>
			<g>
				<path fill="#F99AB6" d="M129.01,22.938c-0.895,0.129-1.842,0.208-2.831,0.236c-0.728,0.018-1.329-0.55-1.35-1.277
					s0.549-1.328,1.275-1.346c4.604-0.129,8.054-1.486,10.238-4.034c3.342-3.896,2.705-9.307,2.698-9.361
					c-0.091-0.723,0.427-1.367,1.14-1.468c0.717-0.089,1.377,0.419,1.461,1.136c0.035,0.271,0.783,6.633-3.31,11.4
					C136.141,20.787,133.016,22.362,129.01,22.938z"/>
			</g>
		</g>
		<g>
			<path fill="#F7B75D" d="M140.034,4.738c-1.228,0.175-2.098,1.316-1.943,2.534c0.007,0.052,0.559,5.085-2.472,8.618
				c-1.482,1.725-3.639,2.854-6.407,3.368c0.801,1.365,0.934,3.128,0.294,4.568c4.065-0.652,7.284-2.315,9.563-4.976
				c4.369-5.089,3.572-11.861,3.537-12.145C142.445,5.463,141.307,4.581,140.034,4.738z"/>
		</g>
		<g>
			<g>
				<path fill="#F99AB6" d="M140.397,6.972c-0.671-0.344-1.216-1.365-0.412-2.298c0.797-0.916,2.013-1.428,3.327-1.482l0.343-0.011
					c1.153-0.047,2.216,0.458,2.911,1.278C146.011,6.19,142.222,7.669,140.397,6.972z"/>
			</g>
		</g>
		<g>
			<g>
				<path fill="#F99AB6" d="M142.613,0.554l-0.027,1.482l-0.053,2.784l2.136,0.039l0.069-3.557l0.032-1.379
					C144.127,0.356,143.383,0.589,142.613,0.554z"/>
			</g>
		</g>
		<g>
			<g>
				<g>
					<path fill="#F99AB6" d="M142.613,0.907l-0.027,1.485c0.762-0.113,1.681-0.451,2.16-1.008l0.024-1.106
						C144.127,0.711,143.383,0.944,142.613,0.907z"/>
				</g>
			</g>
		</g>
		<g>
			<g>
				<path fill="#F99AB6" d="M143.152,1.674L143.152,1.674c2.023-0.019,3.813-1.01,4.928-2.52c0.776-1.049,1.23-2.346,1.217-3.747
					l-0.028-2.438c-0.021-1.772-0.779-3.368-1.979-4.485c-1.125-1.045-2.635-1.676-4.292-1.66l0,0
					c-1.094,0.011-2.118,0.308-3.006,0.808c-1.895,1.082-3.16,3.128-3.136,5.459l0.024,2.443c0.021,2.244,1.237,4.2,3.034,5.273
					C140.859,1.365,141.971,1.688,143.152,1.674z"/>
			</g>
		</g>
		<g>
			<g>
				<circle fill="#121F55" cx="144.176" cy="23.171" r="5.892"/>
			</g>
		</g>
		<g>
			<g>
				<path fill="#FFFEFF" d="M142.739-1.555c-0.133,0.771-0.811,1.361-1.622,1.372c-0.804,0.004-1.488-0.573-1.643-1.338
					L142.739-1.555z"/>
			</g>
		</g>
		<g>
			<g>
				<path fill="#F7B75D" d="M137.272,7.956c-0.409,1.11,0.713,2.23,1.888,2.358c1.175,0.129,2.23-0.719,2.363-1.893
					c0.122-1.174-1.622-3.747-2.29-2.767C138.604,6.587,137.611,7.007,137.272,7.956z"/>
			</g>
		</g>
		<g>
			<g>
				<path fill="#F7B75D" d="M146.566,4.462c0.507,0.598,0.829,1.356,0.871,2.199c0,0-0.531,9.673,2.125,14.13l-11.276,0.942
					l0.301-13.391c-0.07-1.417,0.479-2.728,1.401-3.665C140.041,6.832,144.477,4.236,146.566,4.462z"/>
			</g>
		</g>
		<g>
			<g>
				<g>
					<g>
						<path fill="#2143AF" d="M138.359,49.302c-1.136,0.058-1.698,1.121-1.793,1.424c-0.524,1.659-0.339,3.394-1.405,6.208
							c-0.72,1.919-1.446,2.311-1.964,3.869c-0.44,1.343,0.793,1.776,2.01,1.301c0.479-0.182,3.478-0.969,3.526-3.363
							c0.039-1.755-0.167-3.093,0.392-4.596c0.556-1.503,1.035-0.654,1.21-0.196c0.126,0.325,0.531,1.267,0.66,1.561
							c0.056,0.106,0.179,0.154,0.283,0.11h0.007c0.119-0.05,0.175-0.188,0.119-0.3c-0.168-0.344-0.482-1.524-0.595-3.032
							C140.663,50.445,139.395,49.253,138.359,49.302z"/>
					</g>
				</g>
			</g>
			<g>
				<g>
					<g>
						<path fill="#F99AB6" d="M137.168,57.567c0.629-1.4,1.37-5.708,1.003-6.653c-0.434-1.113-2.758-1.199-2.911-0.194
							c-0.242,1.727,0.468,4.733-0.951,7.966C134.483,59.524,136.44,59.203,137.168,57.567z"/>
					</g>
				</g>
			</g>
		</g>
		<g>
			<g>
				<path fill="#121F55" d="M146.053,28.458l-15.166,7.046l1.437-3.422l5.62,18.209c0.343,1.104-0.279,2.279-1.384,2.62
					c-1.056,0.325-2.174-0.229-2.569-1.243l-6.91-17.76c-0.51-1.307,0.084-2.77,1.328-3.368l0.105-0.054l15.086-7.22
					c1.426-0.683,3.146-0.079,3.823,1.349c0.686,1.428,0.077,3.143-1.346,3.828C146.077,28.447,146.057,28.458,146.053,28.458z"/>
			</g>
		</g>
		<g>
			<g>
				<g>
					<g>
						<path fill="#2143AF" d="M128.174,43.581c-1.031-0.481-2.023,0.199-2.254,0.421c-1.244,1.221-1.881,2.841-4.136,4.839
							c-1.534,1.36-2.359,1.369-3.54,2.51c-1.021,0.977-0.126,1.94,1.164,2.087c0.506,0.061,3.526,0.762,4.693-1.335
							c0.854-1.529,1.294-2.81,2.489-3.88c1.188-1.071,1.216-0.096,1.16,0.39c-0.038,0.351-0.122,1.366-0.14,1.69
							c-0.011,0.113,0.077,0.218,0.195,0.229h0.008c0.125,0.014,0.237-0.083,0.237-0.212c0.011-0.379,0.29-1.567,0.892-2.957
							C129.685,45.667,129.111,44.016,128.174,43.581z"/>
					</g>
				</g>
			</g>
			<g>
				<g>
					<g>
						<path fill="#F99AB6" d="M123.264,50.333c1.202-0.949,3.872-4.409,3.984-5.423c0.14-1.188-1.881-2.347-2.475-1.528
							c-1.021,1.411-1.793,4.403-4.559,6.596C119.978,50.814,121.851,51.44,123.264,50.333z"/>
					</g>
				</g>
			</g>
		</g>
		<g>
			<g>
				<path fill="#121F55" d="M144.99,28.919l-16.701-0.837l2.867-2.359l-3.523,18.727c-0.214,1.14-1.308,1.887-2.443,1.672
					c-1.088-0.205-1.821-1.214-1.695-2.294l2.167-18.931c0.164-1.396,1.37-2.416,2.754-2.363l0.119,0.003l16.708,0.652
					c1.583,0.061,2.817,1.396,2.758,2.978s-1.395,2.821-2.979,2.756C145.015,28.919,144.99,28.919,144.99,28.919z"/>
			</g>
		</g>
		<g>
			<g>
				<path fill="#F99AB6" d="M146.137,23.171c-0.675,0.11-1.391,0.194-2.156,0.243c-0.721,0.047-1.35-0.502-1.395-1.227
					c-0.049-0.724,0.507-1.346,1.227-1.396c2.43-0.154,5.498-0.751,6.281-2.709c1.237-3.09-3.027-8.715-4.621-10.44
					c-0.496-0.533-0.458-1.365,0.077-1.858c0.531-0.491,1.363-0.455,1.856,0.075c0.74,0.809,7.196,8.023,5.127,13.2
					C151.667,21.221,149.517,22.601,146.137,23.171z"/>
			</g>
		</g>
		<g>
			<path fill="#F7B75D" d="M148.108,5.207c-0.524-0.57-1.286-0.83-2.052-0.701c-0.514,0.085-0.982,0.35-1.335,0.751
				c-0.772,0.879-0.682,2.233,0.101,3.099c1.818,1.994,5.334,6.984,4.38,9.371c-0.168,0.411-0.514,0.748-0.947,1.017
				c-0.811,0.496-1.262,1.421-1.076,2.357c0,0.014,0.007,0.033,0.007,0.047c0.287,1.493,1.95,2.33,3.261,1.575
				c1.42-0.813,2.416-1.919,2.972-3.303C155.672,13.811,149.395,6.596,148.108,5.207z"/>
		</g>
		<g>
			<g>
				<path fill="#F99AB6" d="M138.384,21.911c0.066,0.776,0.402,1.464,0.916,1.968l4.796-0.394c0.419-0.587,0.643-1.316,0.58-2.094
					c-0.14-1.732-1.664-3.028-3.397-2.889C139.534,18.643,138.237,20.172,138.384,21.911z"/>
			</g>
		</g>
		<g>
			<g>
				<path fill="#F99AB6" d="M122.033,22.498c0.034,0.779,0.35,1.479,0.839,2.008l4.81-0.187c0.44-0.568,0.699-1.292,0.667-2.067
					c-0.073-1.741-1.534-3.101-3.278-3.032C123.333,19.291,121.97,20.754,122.033,22.498z"/>
			</g>
		</g>
		<g>
			<g>
				<path fill="#2143AF" d="M145.868-13.851c3.159,1.108,5.155,3.614,4.463,5.598c-0.698,1.982-3.823,2.691-6.983,1.583
					c-3.16-1.108-5.159-3.614-4.46-5.596C139.58-14.249,142.704-14.958,145.868-13.851z"/>
			</g>
		</g>
		<g>
			<g>
				<path fill="#121F55" d="M147.015,23.714c0-0.437-0.356-0.786-0.794-0.786h-28.6c-0.604,0-1.094,0.353-1.094,0.786
					c0,0.434,0.489,0.789,1.094,0.789h28.6C146.658,24.506,147.015,24.151,147.015,23.714L147.015,23.714z"/>
			</g>
			<g>
				<path fill="#FFFFFF" d="M148.129,23.714c0,0.437-0.377,0.789-0.846,0.789H136.42c-0.469,0-0.854-0.355-0.854-0.789
					c0-0.433,0.385-0.786,0.854-0.786h10.863C147.752,22.928,148.129,23.281,148.129,23.714z"/>
			</g>
			<g>
				<path fill="#FFFFFF" d="M116.573,8.127v14.425c0,0.643,0.524,1.162,1.164,1.162h19.025c0.643,0,1.167-0.519,1.167-1.162V8.127
					c0-0.645-0.524-1.162-1.167-1.162h-19.025C117.098,6.965,116.573,7.482,116.573,8.127z"/>
			</g>
			<g>
				<path fill="#2143AF" d="M115.686,8.127v14.425c0,0.643,0.523,1.162,1.16,1.162h19.029c0.649,0,1.167-0.519,1.167-1.162V8.127
					c0-0.645-0.521-1.162-1.167-1.162h-19.029C116.202,6.965,115.686,7.482,115.686,8.127z"/>
			</g>
			<g>
				<path fill="#FFFFFF" d="M129.499,15.34L129.499,15.34c0-0.677-0.546-1.229-1.23-1.229h-3.817c-0.678,0-1.23,0.552-1.23,1.229
					l0,0c0,0.676,0.546,1.227,1.23,1.227h3.817C128.953,16.563,129.499,16.016,129.499,15.34z"/>
			</g>
		</g>
	</g>
	<g id="XMLID_316_">
		<g id="XMLID_322_">
			<g>
				<g>
					<g>
						<path fill="#B9B8F1" d="M174.104-16.917c5.117,0,9.27,3.579,9.27,7.992c0,2.653-1.499,5.002-3.799,6.458l1.3,3.296
							l-3.198-2.377c-1.102,0.398-2.311,0.621-3.576,0.621c-5.117,0-9.27-3.58-9.27-7.998
							C164.837-13.338,168.982-16.917,174.104-16.917z"/>
					</g>
				</g>
			</g>
		</g>
		<g id="XMLID_317_">
			<g id="XMLID_321_">
				<g>
					<g>
						<g>
							<circle fill="#FFFFFF" cx="178.158" cy="-8.767" r="1.256"/>
						</g>
					</g>
				</g>
			</g>
			<g id="XMLID_320_">
				<g>
					<g>
						<g>
							<circle fill="#FFFFFF" cx="174.104" cy="-8.767" r="1.256"/>
						</g>
					</g>
				</g>
			</g>
			<g id="XMLID_319_">
				<g>
					<g>
						<g>
							<path fill="#FFFFFF" d="M170.053-10.023c0.691,0,1.254,0.563,1.254,1.257s-0.563,1.254-1.254,1.254
								c-0.696,0-1.259-0.561-1.259-1.254S169.356-10.023,170.053-10.023z"/>
						</g>
					</g>
				</g>
			</g>
		</g>
	</g>
	<g>
		<g>
			<path fill="#FFFFFF" d="M165.603-26.409c-1.747,0-3.499-0.619-4.834-1.858c-2.021-1.878-5.31-1.878-7.333,0
				c-0.347,0.318-0.888,0.301-1.213-0.043c-0.325-0.346-0.305-0.89,0.045-1.209c2.671-2.477,7.005-2.477,9.668,0
				c2.024,1.88,5.31,1.875,7.334,0c2.663-2.477,7.005-2.477,9.668,0c2.021,1.88,5.306,1.875,7.333,0
				c2.664-2.477,7.005-2.477,9.669,0c0.35,0.323,0.37,0.863,0.041,1.209c-0.321,0.348-0.863,0.365-1.209,0.043
				c-2.021-1.878-5.31-1.878-7.333,0c-2.664,2.477-7.005,2.48-9.669,0c-2.02-1.878-5.313-1.878-7.333,0
				C169.108-27.028,167.354-26.409,165.603-26.409z"/>
		</g>
	</g>
	<g>
		<g>
			<path fill="#FFFFFF" d="M-68.049-5.556c-1.75,0-3.5-0.621-4.831-1.858c-2.021-1.879-5.313-1.879-7.335,0
				c-0.346,0.322-0.888,0.301-1.213-0.043c-0.318-0.346-0.301-0.892,0.047-1.209c2.662-2.477,7-2.477,9.667,0
				c2.019,1.875,5.311,1.875,7.335,0c2.666-2.477,7.003-2.477,9.667,0c2.022,1.875,5.312,1.875,7.332,0
				c2.666-2.477,7.006-2.477,9.667,0c0.352,0.318,0.369,0.867,0.047,1.209c-0.323,0.344-0.867,0.365-1.213,0.043
				c-2.021-1.879-5.31-1.879-7.332,0c-2.664,2.477-7.005,2.477-9.667,0c-2.024-1.879-5.313-1.879-7.335,0
				C-64.545-6.176-66.295-5.556-68.049-5.556z"/>
		</g>
	</g>
	<g>
		<g>
			<path fill="#FFFFFF" d="M4.378-56.239c-1.751,0-3.5-0.619-4.833-1.861c-2.022-1.875-5.311-1.875-7.335,0
				c-0.35,0.322-0.886,0.304-1.213-0.043c-0.322-0.346-0.301-0.886,0.047-1.213c2.663-2.477,7.001-2.477,9.663,0
				c2.024,1.878,5.316,1.875,7.335,0c2.662-2.477,7.001-2.477,9.67,0c2.021,1.878,5.31,1.875,7.335,0
				c2.664-2.477,7.001-2.477,9.667,0c0.344,0.327,0.369,0.867,0.04,1.213c-0.321,0.348-0.867,0.365-1.209,0.043
				c-2.022-1.875-5.308-1.875-7.332,0c-2.665,2.477-7.003,2.48-9.667,0c-2.022-1.875-5.311-1.875-7.335,0
				C7.879-56.857,6.128-56.239,4.378-56.239z"/>
		</g>
	</g>
	<g>
		<g>
			<g>
				<path fill="#B9B8F1" d="M79.277-31.897l5.558,7.978c0.028,0.255,0.161,0.491,0.388,0.652c0.186,0.129,0.396,0.174,0.608,0.164
					c0.213,0.01,0.416-0.035,0.604-0.164c0.224-0.161,0.363-0.397,0.392-0.652l5.548-7.978c0.3-0.435,0.199-1.026-0.234-1.323
					c-0.434-0.301-1.021-0.194-1.321,0.236l-4.988,7.172l-4.995-7.172c-0.293-0.43-0.888-0.537-1.321-0.236
					C79.092-32.919,78.983-32.329,79.277-31.897z"/>
			</g>
		</g>
		<g>
			<g>
				<path fill="#B9B8F1" d="M79.277-40.429l5.558,7.978c0.028,0.25,0.161,0.495,0.388,0.648c0.186,0.131,0.396,0.178,0.608,0.168
					c0.213,0.01,0.416-0.037,0.604-0.168c0.224-0.154,0.363-0.398,0.392-0.648l5.548-7.978c0.3-0.434,0.199-1.028-0.234-1.325
					c-0.434-0.304-1.021-0.196-1.321,0.232l-4.988,7.181l-4.995-7.181c-0.293-0.432-0.888-0.537-1.321-0.232
					C79.092-41.457,78.983-40.866,79.277-40.429z"/>
			</g>
		</g>
		<g>
			<g>
				<path fill="#B9B8F1" d="M78.914-48.961l5.547,7.973c0.035,0.255,0.171,0.495,0.395,0.652c0.183,0.129,0.396,0.176,0.608,0.161
					c0.206,0.016,0.42-0.031,0.602-0.161c0.228-0.154,0.363-0.394,0.395-0.652l5.555-7.973c0.294-0.44,0.188-1.031-0.238-1.332
					c-0.433-0.297-1.03-0.19-1.328,0.243l-4.984,7.172l-4.991-7.172c-0.301-0.433-0.892-0.54-1.321-0.243
					C78.725-49.993,78.62-49.402,78.914-48.961z"/>
			</g>
		</g>
		<g>
			<g>
				<path fill="#B9B8F1" d="M78.914-57.506l5.547,7.981c0.035,0.25,0.171,0.491,0.395,0.648c0.183,0.125,0.396,0.175,0.608,0.161
					c0.206,0.014,0.42-0.037,0.602-0.161c0.228-0.157,0.363-0.398,0.395-0.648l5.555-7.981c0.294-0.43,0.188-1.024-0.238-1.325
					c-0.433-0.297-1.03-0.192-1.328,0.236l-4.984,7.178l-4.991-7.178c-0.301-0.428-0.892-0.537-1.321-0.236
					C78.725-58.526,78.62-57.936,78.914-57.506z"/>
			</g>
		</g>
	</g>
	<g>
		<g>
			<g>
				<path fill="#B9B8F1" d="M46.893-41.553l3.958,5.69c0.021,0.184,0.121,0.351,0.283,0.461c0.127,0.094,0.281,0.129,0.432,0.119
					c0.147,0.011,0.297-0.024,0.43-0.119c0.161-0.11,0.262-0.278,0.283-0.461l3.955-5.69c0.215-0.308,0.14-0.734-0.171-0.946
					c-0.308-0.215-0.73-0.14-0.942,0.173l-3.558,5.113l-3.56-5.113c-0.211-0.31-0.634-0.385-0.942-0.173
					C46.756-42.287,46.678-41.86,46.893-41.553z"/>
			</g>
		</g>
		<g>
			<g>
				<path fill="#B9B8F1" d="M46.893-47.646l3.958,5.692c0.021,0.178,0.121,0.35,0.283,0.461c0.127,0.092,0.281,0.129,0.432,0.117
					c0.147,0.012,0.297-0.021,0.43-0.117c0.161-0.115,0.262-0.287,0.283-0.461l3.955-5.692c0.215-0.308,0.14-0.73-0.171-0.943
					c-0.308-0.219-0.73-0.14-0.942,0.167l-3.558,5.123l-3.56-5.123c-0.211-0.308-0.634-0.386-0.942-0.167
					C46.756-48.376,46.678-47.953,46.893-47.646z"/>
			</g>
		</g>
		<g>
			<g>
				<path fill="#B9B8F1" d="M46.63-53.729l3.955,5.687c0.026,0.182,0.126,0.354,0.283,0.465c0.133,0.093,0.287,0.129,0.437,0.119
					c0.146,0.007,0.297-0.026,0.43-0.119c0.161-0.11,0.257-0.283,0.283-0.465l3.952-5.687c0.216-0.313,0.142-0.734-0.169-0.946
					c-0.304-0.215-0.734-0.14-0.944,0.168l-3.555,5.119l-3.562-5.119c-0.215-0.308-0.633-0.383-0.945-0.168
					C46.491-54.463,46.416-54.042,46.63-53.729z"/>
			</g>
		</g>
		<g>
			<g>
				<path fill="#B9B8F1" d="M46.63-59.821l3.955,5.69c0.026,0.183,0.126,0.351,0.283,0.461c0.133,0.095,0.287,0.126,0.437,0.116
					c0.146,0.01,0.297-0.021,0.43-0.116c0.161-0.11,0.257-0.278,0.283-0.461l3.952-5.69c0.216-0.308,0.142-0.731-0.169-0.946
					c-0.304-0.215-0.734-0.136-0.944,0.173l-3.555,5.117l-3.562-5.117c-0.215-0.31-0.633-0.388-0.945-0.173
					C46.491-60.552,46.416-60.129,46.63-59.821z"/>
			</g>
		</g>
	</g>
	<g>
		<g>
			<g>
				<path fill="#F99AB6" d="M-79.123,81.241c0.247-0.653,6.035-16.113,6.035-25.581h-3.436c0,8.834-5.751,24.214-5.809,24.368
					L-79.123,81.241z"/>
			</g>
		</g>
		<g>
			<g>
				<path fill="#F99AB6" d="M-64.047,68.528l5.755-9.636c0.239-0.406,0.304-0.892,0.18-1.342c-0.129-0.455-0.437-0.837-0.856-1.056
					l-9.242-4.86l-1.596,3.041l7.634,4.018l-4.825,8.088L-64.047,68.528z"/>
			</g>
		</g>
		<g>
			<g>
				<path fill="#121F55" d="M-80.717,20.917c0,0,2.267-2.735,3.291-3.616C-75.547,15.688-74,17.468-74,17.468
					c9.345-1.435,11.098,11.909,6.846,15.235c-3.45,2.691-6.328,0.837-6.328,0.837s-1.947,1.449-4.925,1.908
					c-1.842,0.282-4.068-0.928-4.068-0.928s-2.606,1.865-4.607-0.895c-2.001-2.756,0.956-5.68,2.531-5.704
					c0,0-1.879-2.267,0.697-3.767C-82.842,23.557-80.717,20.917-80.717,20.917z"/>
			</g>
		</g>
		<g>
			<g>
				<path fill="#F99AB6" d="M-69.163,37.495c0.631-0.318,1.139-1.274,0.384-2.148c-0.737-0.858-1.884-1.335-3.107-1.381l-0.314-0.01
					c-1.085-0.04-2.069,0.428-2.725,1.195C-74.402,36.765-70.861,38.147-69.163,37.495z"/>
			</g>
		</g>
		<g>
			<g>
				<path fill="#F99AB6" d="M-71.056,31.504l0.028,1.384l0.054,2.606l-1.998,0.037l-0.06-3.326l-0.03-1.288
					C-72.459,31.317-71.772,31.532-71.056,31.504z"/>
			</g>
		</g>
		<g>
			<g>
				<g>
					<path fill="#F99AB6" d="M-71.056,31.504l0.028,1.384c-0.705-0.103-1.568-0.417-2.012-0.94l-0.021-1.035
						C-72.459,31.317-71.772,31.532-71.056,31.504z"/>
				</g>
			</g>
		</g>
		<g>
			<g>
				<path fill="#F99AB6" d="M-69.938,31.5L-69.938,31.5c-1.69,0.851-3.597,0.797-5.172,0.018c-1.092-0.537-2.022-1.421-2.609-2.592
					l-1.028-2.036c-0.745-1.482-0.795-3.128-0.272-4.57c0.484-1.347,1.468-2.52,2.845-3.216l0,0
					c0.914-0.458,1.887-0.653,2.842-0.612c2.034,0.086,3.963,1.239,4.94,3.19l1.028,2.036c0.944,1.872,0.769,4.017-0.262,5.673
					C-68.167,30.261-68.951,31.006-69.938,31.5z"/>
			</g>
		</g>
		<g>
			<g>
				<path fill="#121F55" d="M-76.339,25.5c4.163,0.673,4.621-3.808,4.382-5.655c-0.498-3.862-5.541-3.113-7.302-1.195
					c-1.096,1.192-3.036,4.409-2.193,8.415c0.837,4.002,4.922,6.493,4.922,6.493c4.491-3.293-0.15-6.446-0.15-6.446L-76.339,25.5z"
					/>
			</g>
		</g>
		<g>
			<g>
				<circle fill="#8EDEF2" cx="-72.691" cy="52.628" r="5.502"/>
			</g>
		</g>
		<g>
			<g>
				<path fill="#FFFEFF" d="M-70.393,28.342c0.44,0.581,1.25,0.785,1.929,0.444c0.677-0.339,0.995-1.109,0.79-1.811L-70.393,28.342z
					"/>
			</g>
		</g>
		<g>
			<g>
				<path fill="#8EDEF2" d="M-63.271,54.199c-7.269,6.304-16.281,9.395-16.281,9.395s-1.54-9.227,1.868-13.22
					c1.708-2.005,10.499,0.909,10.499,0.909L-63.271,54.199z"/>
			</g>
		</g>
		<g>
			<g>
				<path fill="#8EDEF2" d="M-66.241,38.414c0.379,1.039-0.669,2.083-1.769,2.202c-1.096,0.121-2.086-0.673-2.202-1.769
					c-0.121-1.096,1.512-3.5,2.13-2.58C-67.49,37.137-66.561,37.526-66.241,38.414z"/>
			</g>
		</g>
		<g>
			<g>
				<path fill="#8EDEF2" d="M-74.925,35.155c-0.476,0.558-0.776,1.267-0.813,2.046c0,0,0.494,9.038-1.985,13.201
					c-1.068,1.793,10.564,1.739,10.564,1.739l-0.311-13.364c0.065-1.332-0.447-2.545-1.309-3.429
					C-68.822,37.366-72.971,34.94-74.925,35.155z"/>
			</g>
		</g>
		<g>
			<g>
				<path fill="#8EDEF2" d="M-73.174,38.451c2.068,0,15.992-0.659,23.741-17.825l-3.132-1.414
					c-7.223,16.005-20.173,15.817-20.728,15.803l-0.119,3.436C-73.375,38.451-73.296,38.451-73.174,38.451z"/>
			</g>
		</g>
		<g>
			<g>
				<path fill="#F99AB6" d="M-52.472,16.46c0.617-0.383,1.321-0.505,1.983-0.404l2.367,3.826c-0.212,0.64-0.635,1.213-1.257,1.592
					c-1.389,0.856-3.204,0.426-4.06-0.959C-54.286,19.13-53.86,17.314-52.472,16.46z"/>
			</g>
		</g>
		<g>
			<g>
				<g>
					<circle fill="#121F55" cx="-66.889" cy="68.83" r="2.237"/>
				</g>
			</g>
			<g>
				<g>
					<path fill="#121F55" d="M-59.354,73.408l-8.132-2.419c-0.856-0.259-1.346-1.153-1.092-2.021l0,0
						c0.255-0.853,1.93-2.404,2.79-2.149l7.176,4.667c0.79,0.51,0.591,1.775-0.341,1.936
						C-59.094,73.437-59.229,73.437-59.354,73.408z"/>
				</g>
			</g>
		</g>
		<g>
			<g>
				<g>
					<path fill="#121F55" d="M-81.066,79.693c1.237,0,2.241,0.999,2.241,2.236s-1.003,2.244-2.241,2.244s-2.24-1.007-2.24-2.244
						S-82.304,79.693-81.066,79.693z"/>
				</g>
			</g>
			<g>
				<g>
					<path fill="#121F55" d="M-72.254,82.014l-8.225,2.076c-0.867,0.224-1.751-0.304-1.973-1.178l0,0
						c-0.222-0.867,0.434-3.052,1.304-3.268l8.55,0.342c0.942,0.035,1.414,1.224,0.699,1.839
						C-72.011,81.916-72.128,81.982-72.254,82.014z"/>
				</g>
			</g>
		</g>
		<g>
			<g>
				<path fill="#8EDEF2" d="M-70.833,51.036c0.877,0,1.825-0.082,2.828-0.297l-0.108-0.481c-4.696,1.01-8.35-0.998-8.385-1.021
					l-0.239,0.426C-76.609,49.732-74.252,51.036-70.833,51.036z"/>
			</g>
		</g>
	</g>
	<g>
		<g>
			<g>
				<g>
					<path fill="#2143AF" d="M5.96,24.309c-0.659,0-1.307-0.3-1.722-0.874l-7.38-10.097c-0.573-0.783-0.54-1.861,0.075-2.609
						L6.572-0.979c0.748-0.905,2.09-1.038,2.999-0.29c0.905,0.748,1.038,2.09,0.293,2.999l-8.59,10.43l6.403,8.763
						c0.694,0.949,0.486,2.283-0.461,2.978C6.834,24.176,6.394,24.309,5.96,24.309z"/>
				</g>
			</g>
		</g>
		<g>
			<g>
				<g>
					<path fill="#2143AF" d="M20.116,24.291c-0.437,0-0.881-0.136-1.257-0.409c-0.952-0.697-1.157-2.029-0.461-2.978l6.428-8.786
						L16.271,1.716c-0.748-0.905-0.615-2.251,0.29-2.996c0.909-0.748,2.254-0.619,2.999,0.29l9.607,11.68
						c0.619,0.755,0.648,1.824,0.075,2.613l-7.405,10.114C21.418,23.991,20.775,24.291,20.116,24.291z"/>
				</g>
			</g>
		</g>
		<g>
			<g>
				<g>
					<circle fill="#566CD3" cx="13.255" cy="-13.033" r="6.149"/>
				</g>
			</g>
		</g>
		<g>
			<g>
				<g>
					<polygon fill="#F99AB6" points="15.506,-6.477 15.495,-0.627 15.481,3.195 10.999,3.185 11.221,-6.164 11.289,-8.824 					"/>
				</g>
			</g>
		</g>
		<g>
			<g>
				<g>
					<path fill="#2143AF" d="M6.585,2.687C6.6,0.862,8.18-0.903,9.81-1.751c2.445-1.271,6.218-0.386,7.417,0.325
						c2.046,1.22,3.268,3.691,3.121,6.232l0.147,13.637H6.014C6.014,18.443,6.554,6.835,6.585,2.687z"/>
				</g>
			</g>
		</g>
		<g>
			<path fill="#E5E9FF" d="M13.47,6.799c1.063-3.27,2.232-5.551,3.282-8.461c-3.223-1.213-6.339-0.533-7.001,0
				c1.048,2.91,2.218,5.194,3.282,8.461c0.053,0.236,0.215,0.613,0.219,0.61c0.003,0.003,0.007,0.017,0.01,0.024
				C13.276,7.393,13.419,7.035,13.47,6.799z"/>
		</g>
		<g>
			<polygon fill="#2747B3" points="13.641,-1.43 13.255,-1.43 12.867,-1.43 12.142,2.987 12.654,5.682 13.255,7.409 13.853,5.682 
				14.365,2.987 			"/>
		</g>
		<g>
			<g>
				<g>
					<path fill="#F99AB6" d="M14.417-17.734h-2.33c-2.062,0-3.992,1.687-3.733,3.733c0.19,1.489,0,2.605,0,4.815
						c0,1.854,2.169,5.444,4.026,5.444h1.75c1.851,0,4.02-3.59,4.02-5.444c0-2.209-0.186-3.326,0-4.815
						C18.409-16.044,16.479-17.734,14.417-17.734z"/>
				</g>
			</g>
		</g>
		<g>
			<g>
				<g>
					<path fill="#FFFEFF" d="M11.364-6.88c0.169,0.895,0.949,1.567,1.891,1.567c0.94,0,1.722-0.673,1.889-1.567H11.364z"/>
				</g>
			</g>
		</g>
		<g>
			<g>
				<g>
					<path fill="#121F55" d="M15.581,31.485h-4.654c-3.341,0-5.851-3.06-5.196-6.339l0.283-6.708h14.481l0.28,6.708
						C21.429,28.425,18.924,31.485,15.581,31.485z"/>
				</g>
			</g>
		</g>
		<g>
			<g>
				<g>
					<g>
						<path fill="#2747B3" d="M22.757,26.85H4.406c-0.795,0-1.442-0.646-1.442-1.441V15.149c0-0.797,0.647-1.438,1.442-1.438h18.354
							c0.795,0,1.438,0.645,1.438,1.438v10.259C24.199,26.203,23.556,26.85,22.757,26.85z"/>
					</g>
				</g>
			</g>
			<g>
				<g>
					<g>
						<path fill="#FFFFFF" d="M22.757,27.455H4.406c-0.795,0-1.442-0.64-1.442-1.438V15.754c0-0.793,0.647-1.435,1.442-1.435h18.354
							c0.795,0,1.438,0.645,1.438,1.435v10.262C24.199,26.815,23.556,27.455,22.757,27.455z"/>
					</g>
				</g>
			</g>
			<g>
				<g>
					<g>
						<path fill="#2747B3" d="M15.698,21.979h-4.236c-0.602,0-1.085-0.484-1.085-1.082v-0.021c0-0.598,0.484-1.083,1.085-1.083
							h4.236c0.598,0,1.085,0.485,1.085,1.083v0.021C16.783,21.495,16.301,21.979,15.698,21.979z"/>
					</g>
				</g>
			</g>
		</g>
		<g>
			<path fill="#B8B9F1" d="M13.826-1.18c-0.222,0.205-0.998,0.184-1.209-0.031c-0.198-0.205-0.264-1.127-0.264-1.127l1.804,0.054
				C14.157-2.288,14.034-1.368,13.826-1.18z"/>
		</g>
		<g>
			<polygon fill="#FFFFFF" points="11.343,-0.033 9.819,-1.87 11.086,-3.506 13.255,-2.328 			"/>
		</g>
		<g>
			<polygon fill="#FFFFFF" points="15.162,-0.033 16.688,-1.87 15.42,-3.506 13.255,-2.328 			"/>
		</g>
		<g>
			<g>
				<g>
					<g>
						<path fill="#2143AF" d="M15.786,47.378l1.248-4.682H16.94c-0.283-0.011-0.489-0.28-0.426-0.556
							c0.047-0.212,0.241-0.362,0.459-0.35l0.297,0.01l0.138-0.526l-0.138-0.003c-0.283-0.011-0.491-0.28-0.426-0.556
							c0.054-0.215,0.239-0.358,0.458-0.349l0.348,0.01l0.783-2.943c0.037-0.058,0.079-0.114,0.133-0.161
							c0.047-0.115,0.1-0.225,0.168-0.329c0.774-1.271,2.431-1.676,3.702-0.895c1.271,0.769,1.671,2.429,0.898,3.7
							c-0.004,0.007-0.014,0.014-0.018,0.026c-0.004,0.003-0.009,0.007-0.012,0.014l-5.308,8.716
							c-0.085,0.14-0.203,0.247-0.35,0.335C16.691,49.439,15.492,48.476,15.786,47.378z"/>
					</g>
				</g>
			</g>
			<g id="_x38_._Right_shoe_236_">
				<g>
					<g>
						<g>
							<circle fill="#566CD3" cx="20.391" cy="38.192" r="2.695"/>
						</g>
					</g>
				</g>
				<g>
					<g>
						<g>
							<path fill="#2143AF" d="M17.356,48.348l5.312-8.712c0.561-0.924,0.272-2.127-0.652-2.684l0,0
								c-0.919-0.563-3.665-0.591-4.223,0.332l-2.649,9.944c-0.293,1.098,0.905,2.067,1.865,1.459
								C17.152,48.602,17.271,48.486,17.356,48.348z"/>
						</g>
					</g>
				</g>
				<g>
					<g>
						<g>
							<path fill="#FFFFFF" d="M18.129,40.809L18.129,40.809c0.065-0.278-0.143-0.543-0.426-0.554l-1.045-0.039
								c-0.219-0.009-0.411,0.142-0.458,0.35l0,0c-0.068,0.279,0.14,0.545,0.426,0.556l1.042,0.039
								C17.89,41.167,18.079,41.017,18.129,40.809z"/>
						</g>
					</g>
				</g>
				<g>
					<g>
						<g>
							<path fill="#FFFFFF" d="M17.801,42.238L17.801,42.238c0.063-0.28-0.144-0.549-0.427-0.559l-1.042-0.035
								c-0.218-0.007-0.413,0.138-0.461,0.35l0,0c-0.061,0.28,0.14,0.545,0.425,0.556l1.042,0.042
								C17.556,42.595,17.75,42.444,17.801,42.238z"/>
						</g>
					</g>
				</g>
			</g>
		</g>
		<g>
			<g>
				<g>
					<path fill="#121F55" d="M6.066,23.865l16.14,11.572l-5.075,4.353L2.603,28.694c-1.321-0.946-1.625-2.784-0.676-4.105
						l0.035-0.047C2.91,23.225,4.75,22.917,6.066,23.865z"/>
				</g>
			</g>
		</g>
		<g>
			<g>
				<g>
					<g>
						<path fill="#2143AF" d="M14.693,54.907l0.321-4.831l0.086,0.024c0.276,0.082,0.552-0.103,0.58-0.386
							c0.021-0.218-0.114-0.419-0.322-0.484l-0.287-0.083l0.037-0.543l0.134,0.044c0.273,0.082,0.552-0.108,0.581-0.392
							c0.021-0.218-0.114-0.417-0.322-0.479l-0.334-0.096l0.205-3.039c-0.014-0.072-0.039-0.136-0.075-0.201
							c-0.007-0.121-0.024-0.243-0.051-0.366c-0.328-1.449-1.767-2.364-3.221-2.036c-1.449,0.325-2.363,1.769-2.036,3.217
							c0,0.01,0.003,0.018,0.007,0.03c0,0,0,0.01,0,0.014l2.237,9.957c0.031,0.157,0.11,0.3,0.218,0.433
							C13.173,56.573,14.618,56.043,14.693,54.907z"/>
					</g>
				</g>
			</g>
			<g id="_x38_._Right_shoe_235_">
				<g>
					<g>
						<g>
							<circle fill="#2143AF" cx="13.279" cy="44.729" r="2.695"/>
						</g>
					</g>
				</g>
				<g>
					<g>
						<g>
							<path fill="#2143AF" d="M12.893,55.323L10.66,45.37c-0.236-1.057,0.426-2.103,1.479-2.338l0,0
								c1.052-0.236,3.658,0.621,3.894,1.672l-0.683,10.268c-0.075,1.133-1.522,1.662-2.237,0.785
								C13.007,55.627,12.928,55.484,12.893,55.323z"/>
						</g>
					</g>
				</g>
				<g>
					<g>
						<g>
							<path fill="#FFFFFF" d="M14.578,47.936L14.578,47.936c0.029-0.283,0.309-0.468,0.58-0.39l1.003,0.297
								c0.206,0.061,0.346,0.264,0.322,0.479l0,0c-0.028,0.283-0.304,0.469-0.581,0.39l-1.001-0.301
								C14.693,48.355,14.557,48.151,14.578,47.936z"/>
						</g>
					</g>
				</g>
				<g>
					<g>
						<g>
							<path fill="#FFFFFF" d="M14.435,49.394L14.435,49.394c0.026-0.283,0.31-0.47,0.584-0.392l1,0.297
								c0.211,0.062,0.342,0.266,0.321,0.48l0,0c-0.028,0.287-0.308,0.472-0.583,0.39l-0.998-0.301
								C14.546,49.808,14.414,49.606,14.435,49.394z"/>
						</g>
					</g>
				</g>
			</g>
		</g>
		<g>
			<g>
				<g>
					<path fill="#121F55" d="M17.757,26.413l-7.646,18.33l6.143,0.738l6.994-16.78c0.626-1.5-0.082-3.225-1.583-3.852l-0.056-0.021
						C20.113,24.206,18.383,24.914,17.757,26.413z"/>
				</g>
			</g>
		</g>
		<g>
			<g>
				<g>
					<path fill="#566CD3" d="M12.972-15.177c3.128-1.779,5.301-0.054,6.239,1.811c-0.491-2.878-2.978-5.072-5.993-5.072
						c-2.889,0-5.294,2.012-5.923,4.703C9.263-13.188,11.028-14.07,12.972-15.177z"/>
				</g>
			</g>
		</g>
	</g>
	<g>
		<path fill="#B9B8F1" d="M256.549,166.196H-99.113c-1.134,0-2.059-0.923-2.059-2.062c0-1.133,0.925-2.052,2.059-2.052h355.668
			c1.14,0,2.056,0.919,2.056,2.052C258.611,165.273,257.695,166.196,256.549,166.196z"/>
	</g>
	<g>
		<g>
			<path fill="#B9B8F1" d="M175.365,180.793h-54.856c-1.14,0-2.063-0.919-2.063-2.055c0-1.137,0.923-2.052,2.063-2.052h54.856
				c1.129,0,2.056,0.915,2.056,2.052C177.421,179.874,176.494,180.793,175.365,180.793z"/>
		</g>
		<g>
			<path fill="#B9B8F1" d="M104.046,180.793H90.333c-1.136,0-2.059-0.919-2.059-2.055c0-1.137,0.923-2.052,2.059-2.052h13.713
				c1.14,0,2.059,0.915,2.059,2.052C106.104,179.874,105.186,180.793,104.046,180.793z"/>
		</g>
	</g>
	<g>
		<rect x="-52.318" y="-47.223" fill="#FFFFFF" width="6.858" height="6.862"/>
	</g>
	<g>
		<rect x="-16.662" y="-28.021" fill="#FFFFFF" width="6.858" height="6.858"/>
	</g>
	<g>
		<rect x="18.996" y="-47.223" fill="#FFFFFF" width="6.858" height="6.862"/>
	</g>
	<g>
		<g>
			<path fill="#2143AF" d="M-3.972-9.312c-0.621-4.03-6.632-11.247-9.049-13.941v13.677c0.409,0.274,0.827,0.718,0.827,1.257
				c0,0.869-0.705,1.575-1.579,1.575c-0.868,0-1.438-0.706-1.438-1.575c0-0.526,0.411-0.966,0.809-1.246v-13.637
				c-2.241,2.462-9.282,10.383-9.282,14.679c0,5.126,4.263,9.07,4.263,9.07h11.186C-8.236,0.547-3.186-4.186-3.972-9.312z"/>
		</g>
	</g>
	<g>
		<g>
			<g>
				<g>
					<path fill="#2143AF" d="M143.62,171.056c-0.692,0-1.388-0.322-1.835-0.934l-7.875-10.783c-0.608-0.828-0.58-1.982,0.08-2.782
						l10.291-12.5c0.8-0.972,2.236-1.104,3.205-0.311c0.972,0.8,1.111,2.233,0.308,3.205l-9.169,11.133l6.837,9.357
						c0.738,1.014,0.521,2.436-0.499,3.177C144.561,170.915,144.089,171.056,143.62,171.056z"/>
				</g>
			</g>
		</g>
		<g>
			<g>
				<g>
					<path fill="#2143AF" d="M158.741,171.034c-0.469,0-0.943-0.144-1.346-0.44c-1.01-0.741-1.233-2.16-0.493-3.181l6.865-9.371
						l-9.13-11.104c-0.804-0.972-0.664-2.412,0.308-3.209c0.972-0.804,2.404-0.657,3.205,0.314l10.252,12.465
						c0.661,0.807,0.692,1.95,0.077,2.789l-7.91,10.801C160.133,170.713,159.44,171.034,158.741,171.034z"/>
				</g>
			</g>
		</g>
		<g>
			<g>
				<g>
					<path fill="#121F55" d="M145.183,130.124c0,3.629,2.933,6.558,6.561,6.558c3.625,0,6.564-2.929,6.564-6.558
						c0-3.628-2.939-5.274-6.564-5.274C148.115,124.85,145.183,126.503,145.183,130.124z"/>
				</g>
			</g>
		</g>
		<g>
			<g>
				<g>
					<polygon fill="#F99AB6" points="149.335,138.185 149.35,144.428 149.37,148.51 154.152,148.5 153.91,138.523 153.841,135.682 
											"/>
				</g>
			</g>
		</g>
		<g>
			<g>
				<g>
					<path fill="#2143AF" d="M144.299,147.972c0.014-1.95,1.698-3.831,3.442-4.739c2.611-1.356,6.631-0.413,7.917,0.353
						c2.185,1.297,3.488,3.939,3.335,6.651l0.153,14.555h-15.46C143.684,164.791,144.26,152.4,144.299,147.972z"/>
				</g>
			</g>
		</g>
		<g>
			<g>
				<g>
					<path fill="#F99AB6" d="M154.833,143.218c-1.897-0.808-4.582-1.073-6.753-0.14l1.604,1.604c1.018,1.017,2.663,1.017,3.681,0
						C153.858,144.193,154.352,143.7,154.833,143.218z"/>
				</g>
			</g>
		</g>
		<g>
			<g>
				<g>
					<path fill="#F99AB6" d="M150.492,126.37h2.496c2.198,0,4.257,1.804,3.98,3.985c-0.206,1.59,0,2.782,0,5.138
						c0,1.989-2.317,5.823-4.296,5.823h-1.866c-1.979,0-4.289-3.834-4.289-5.823c0-2.353,0.196-3.544,0-5.138
						C146.238,128.167,148.301,126.37,150.492,126.37z"/>
				</g>
			</g>
		</g>
		<g>
			<g>
				<g>
					<path fill="#FFFEFF" d="M153.764,137.755c-0.182,0.954-1.014,1.678-2.017,1.678c-1.007,0-1.835-0.724-2.017-1.678H153.764z"/>
				</g>
			</g>
		</g>
		<g>
			<g>
				<g>
					<path fill="#566CD3" d="M153.896,178.717h-4.967c-3.565,0-6.246-3.265-5.547-6.767l0.301-7.159h15.456l0.301,7.159
						C160.146,175.445,157.462,178.717,153.896,178.717z"/>
				</g>
			</g>
		</g>
		<g>
			<g>
				<g>
					<path fill="#566CD3" d="M128.789,170.727l21.109-2.014l0.601,6.323l-21.104,2.01c-1.728,0.168-3.266-1.101-3.423-2.831
						l-0.007-0.063C125.797,172.426,127.066,170.891,128.789,170.727z"/>
				</g>
			</g>
		</g>
		<g>
			<g>
				<g>
					<path fill="#566CD3" d="M170.926,170.727l-21.104-2.014l-0.604,6.323l21.102,2.014c1.729,0.164,3.265-1.101,3.432-2.828
						l0.008-0.066C173.918,172.426,172.652,170.891,170.926,170.727z"/>
				</g>
			</g>
		</g>
		<g>
			<g>
				<g>
					<path fill="#FFFFFF" d="M159.675,175.019h-16.522c-0.847,0-1.538-0.688-1.538-1.545V162.52c0-0.843,0.685-1.538,1.538-1.538
						h16.522c0.846,0,1.534,0.692,1.534,1.538v10.954C161.209,174.33,160.521,175.019,159.675,175.019z"/>
				</g>
			</g>
		</g>
		<g>
			<g>
				<g>
					<path fill="#B9B8F1" d="M159.675,175.666h-16.522c-0.847,0-1.538-0.682-1.538-1.542V163.17c0-0.846,0.685-1.535,1.538-1.535
						h16.522c0.846,0,1.534,0.689,1.534,1.535v10.954C161.209,174.984,160.521,175.666,159.675,175.666z"/>
				</g>
			</g>
		</g>
		<g>
			<g>
				<g>
					<path fill="#FFFFFF" d="M153.677,169.821h-4.526c-0.644,0-1.157-0.521-1.157-1.16v-0.018c0-0.644,0.521-1.161,1.157-1.161
						h4.526c0.636,0,1.156,0.518,1.156,1.161v0.018C154.833,169.308,154.313,169.821,153.677,169.821z"/>
				</g>
			</g>
		</g>
		<g>
			<g>
				<g>
					<g>
						<path fill="#FFFFFF" d="M143.093,181.468l6.151-0.374l-0.021,0.119c-0.06,0.356,0.227,0.671,0.583,0.664
							c0.28-0.007,0.511-0.206,0.553-0.476l0.066-0.374l0.688-0.045l-0.028,0.182c-0.063,0.356,0.225,0.678,0.581,0.671
							c0.279-0.007,0.514-0.213,0.556-0.482l0.073-0.44l3.873-0.23c0.073-0.028,0.153-0.073,0.233-0.119
							c0.15-0.035,0.301-0.069,0.451-0.129c1.779-0.64,2.698-2.611,2.056-4.387c-0.644-1.783-2.607-2.698-4.391-2.063
							c-0.014,0.011-0.021,0.018-0.034,0.021c-0.011,0-0.018,0-0.025,0.004l-12.209,4.422c-0.192,0.069-0.363,0.188-0.51,0.343
							C140.747,179.812,141.648,181.556,143.093,181.468z"/>
					</g>
				</g>
			</g>
			<g id="_x38_._Right_shoe_234_">
				<g>
					<g>
						<g>
							<path fill="#F7B75D" d="M155.714,174.613c1.895,0,3.426,1.535,3.426,3.43c0,1.891-1.531,3.429-3.426,3.429
								s-3.433-1.538-3.433-3.429C152.281,176.148,153.819,174.613,155.714,174.613z"/>
						</g>
					</g>
				</g>
				<g>
					<g>
						<g>
							<path fill="#F7B75D" d="M142.278,179.259l12.213-4.415c1.289-0.468,2.712,0.207,3.181,1.489l0,0
								c0.468,1.294-0.196,4.716-1.479,5.184l-13.076,0.787c-1.44,0.087-2.342-1.657-1.343-2.699
								C141.914,179.451,142.086,179.332,142.278,179.259z"/>
						</g>
					</g>
				</g>
				<g>
					<g>
						<g>
							<path fill="#FFFFFF" d="M151.88,180.206L151.88,180.206c0.36-0.014,0.646,0.314,0.584,0.671l-0.217,1.314
								c-0.049,0.272-0.28,0.472-0.553,0.479l0,0c-0.367,0.015-0.643-0.314-0.587-0.667l0.22-1.314
								C151.373,180.416,151.604,180.213,151.88,180.206z"/>
						</g>
					</g>
				</g>
				<g>
					<g>
						<g>
							<path fill="#FFFFFF" d="M150.017,180.255L150.017,180.255c0.367-0.014,0.644,0.314,0.587,0.668l-0.216,1.311
								c-0.05,0.272-0.276,0.479-0.556,0.482l0,0c-0.367,0.014-0.644-0.308-0.584-0.671l0.217-1.308
								C149.507,180.465,149.737,180.266,150.017,180.255z"/>
						</g>
					</g>
				</g>
			</g>
		</g>
		<g>
			<g>
				<g>
					<path fill="#F99AB6" d="M169.637,172.055l-14.251,3.831c-1.374,0.374-2.181,1.782-1.817,3.16l0.014,0.049
						c0.374,1.366,1.783,2.181,3.152,1.813l14.255-3.834c1.373-0.37,2.181-1.782,1.813-3.152l-0.014-0.05
						C172.422,172.499,171.01,171.691,169.637,172.055z"/>
				</g>
			</g>
		</g>
		<g>
			<g>
				<g>
					<g>
						<path fill="#FFFFFF" d="M156.63,181.468l-6.159-0.374l0.021,0.119c0.056,0.356-0.224,0.671-0.587,0.664
							c-0.27-0.007-0.507-0.206-0.553-0.476l-0.063-0.374l-0.688-0.045l0.027,0.182c0.066,0.356-0.22,0.678-0.58,0.671
							c-0.276-0.007-0.507-0.213-0.556-0.482l-0.073-0.44l-3.866-0.23c-0.08-0.028-0.161-0.073-0.234-0.119
							c-0.153-0.035-0.308-0.069-0.454-0.129c-1.782-0.64-2.705-2.611-2.056-4.387c0.64-1.783,2.608-2.698,4.387-2.063
							c0.015,0.011,0.024,0.018,0.039,0.021c0.007,0,0.014,0,0.021,0.004l12.213,4.422c0.196,0.069,0.363,0.188,0.504,0.343
							C158.972,179.812,158.07,181.556,156.63,181.468z"/>
					</g>
				</g>
			</g>
			<g id="_x38_._Right_shoe_233_">
				<g>
					<g>
						<g>
							<path fill="#F7B75D" d="M144.008,174.613c1.895,0,3.43,1.535,3.43,3.43c0,1.891-1.535,3.429-3.43,3.429
								c-1.891,0-3.429-1.538-3.429-3.429C140.579,176.148,142.117,174.613,144.008,174.613z"/>
						</g>
					</g>
				</g>
				<g>
					<g>
						<g>
							<path fill="#F7B75D" d="M157.441,179.259l-12.213-4.415c-1.287-0.468-2.713,0.207-3.178,1.489l0,0
								c-0.472,1.294,0.188,4.716,1.479,5.184l13.072,0.787c1.44,0.087,2.343-1.657,1.343-2.699
								C157.805,179.451,157.637,179.332,157.441,179.259z"/>
						</g>
					</g>
				</g>
				<g>
					<g>
						<g>
							<path fill="#FFFFFF" d="M147.839,180.206L147.839,180.206c-0.359-0.014-0.646,0.314-0.583,0.671l0.217,1.314
								c0.041,0.272,0.275,0.472,0.552,0.479l0,0c0.363,0.015,0.65-0.314,0.584-0.667l-0.221-1.314
								C148.35,180.416,148.115,180.213,147.839,180.206z"/>
						</g>
					</g>
				</g>
				<g>
					<g>
						<g>
							<path fill="#FFFFFF" d="M149.702,180.255L149.702,180.255c-0.363-0.014-0.644,0.314-0.587,0.668l0.22,1.311
								c0.049,0.272,0.276,0.479,0.556,0.482l0,0c0.36,0.014,0.644-0.308,0.58-0.671l-0.213-1.308
								C150.205,180.465,149.979,180.266,149.702,180.255z"/>
						</g>
					</g>
				</g>
			</g>
		</g>
		<g>
			<g>
				<g>
					<path fill="#F99AB6" d="M130.072,172.055l14.258,3.831c1.373,0.374,2.185,1.782,1.82,3.16l-0.014,0.049
						c-0.37,1.366-1.775,2.181-3.152,1.813l-14.255-3.834c-1.377-0.37-2.185-1.782-1.817-3.152l0.014-0.05
						C127.297,172.499,128.709,171.691,130.072,172.055z"/>
				</g>
			</g>
		</g>
		<g>
			<g>
				<g>
					<path fill="#121F55" d="M152.135,123.833c5.984,0,5.883,6.417,5.883,6.417c-6.274,1.195-8.683-3.243-8.683-4.114
						C149.335,126.133,149.992,123.833,152.135,123.833z"/>
				</g>
			</g>
		</g>
		<g>
			<g>
				<g>
					<path fill="#121F55" d="M149.024,125.248c-4.775-0.646-3.688,5.624-3.688,5.624c3.153-0.601,5.023-3.174,4.908-3.74
						L149.024,125.248z"/>
				</g>
			</g>
		</g>
	</g>
</g>
</svg>
