<?xml version="1.0" encoding="utf-8"?>
<!-- Generator: Adobe Illustrator 16.0.3, SVG Export Plug-In . SVG Version: 6.00 Build 0)  -->
<!DOCTYPE svg PUBLIC "-//W3C//DTD SVG 1.1//EN" "http://www.w3.org/Graphics/SVG/1.1/DTD/svg11.dtd">
<svg version="1.1" id="Ebene_1" xmlns="http://www.w3.org/2000/svg" xmlns:xlink="http://www.w3.org/1999/xlink" x="0px" y="0px"
	 width="140px" height="120px" viewBox="0 0 140 120" enable-background="new 0 0 140 120" xml:space="preserve">
<g>
	<g>
		<g>
			<circle fill="#E5E9FF" cx="69.748" cy="62.696" r="51.666"/>
		</g>
		<g>
			<path fill="#E5E9FF" d="M28.883,92.597h21.673c2.057,0,3.723,1.667,3.723,3.724v0.469c0,2.056-1.667,3.723-3.723,3.723H28.883
				c-2.057,0-3.724-1.667-3.724-3.723V96.32C25.159,94.264,26.826,92.597,28.883,92.597z"/>
		</g>
		<g>
			<path fill="#E5E9FF" d="M20.7,108.117h42.162c1.44,0,2.608,1.168,2.608,2.607l0,0c0,1.44-1.168,2.607-2.608,2.607H20.7
				c-1.44,0-2.607-1.167-2.607-2.607l0,0C18.093,109.285,19.26,108.117,20.7,108.117z"/>
		</g>
		<g>
			<path fill="#E5E9FF" d="M92.635,113.332h4.794c1.417,0,2.565,1.148,2.565,2.566l0,0c0,1.415-1.148,2.564-2.565,2.564h-4.794
				c-1.416,0-2.565-1.149-2.565-2.564l0,0C90.069,114.48,91.219,113.332,92.635,113.332z"/>
		</g>
		<g>
			<path fill="#E5E9FF" d="M90.254,98.156h23.347c2.324,0,4.208,1.884,4.208,4.209l0,0c0,2.324-1.884,4.207-4.208,4.207H90.254
				c-2.324,0-4.208-1.883-4.208-4.207l0,0C86.046,100.04,87.93,98.156,90.254,98.156z"/>
		</g>
		<g>
			<path fill="#E5E9FF" d="M32.772,100.454h14.773c-1.091,0-2.083,0.473-2.797,1.187c-0.719,0.718-1.163,1.566-1.163,2.661
				c0,2.186,1.774,3.815,3.96,3.815H32.772c1.091,0,2.08-0.289,2.798-1.001c0.715-0.715,1.159-1.658,1.159-2.752
				C36.729,102.176,34.958,100.454,32.772,100.454z"/>
		</g>
		<g>
			<path fill="#E5E9FF" d="M90.69,55.257h38.087c3.927,0,7.109,3.184,7.109,7.109l0,0c0,3.927-3.183,7.11-7.109,7.11H90.69
				c-3.927,0-7.109-3.184-7.109-7.11l0,0C83.581,58.44,86.764,55.257,90.69,55.257z"/>
		</g>
		<g>
			<path fill="#E5E9FF" d="M77.128,83.287h56.433c2.546,0,4.608,2.063,4.608,4.608l0,0c0,2.544-2.063,4.607-4.608,4.607H77.128
				c-2.545,0-4.608-2.063-4.608-4.607l0,0C72.52,85.35,74.583,83.287,77.128,83.287z"/>
		</g>
		<g>
			<path fill="#E5E9FF" d="M100.395,69.477h26.537c-1.961,0-3.742,0.777-5.027,2.074c-1.289,1.302-2.086,2.835-2.086,4.82
				c0,3.965,3.187,6.916,7.113,6.916h-26.537c1.96,0,3.736-0.559,5.026-1.849c1.284-1.298,2.08-2.946,2.08-4.932
				C107.501,72.536,104.32,69.477,100.395,69.477z"/>
		</g>
		<g>
			<path fill="#E5E9FF" d="M58.855,49.074H14.225c-4.168,0-7.548-3.379-7.548-7.548l0,0c0-4.168,3.379-7.548,7.548-7.548h44.631
				c4.169,0,7.548,3.38,7.548,7.548l0,0C66.404,45.695,63.024,49.074,58.855,49.074z"/>
		</g>
		<g>
			<path fill="#E5E9FF" d="M77.444,92.776H12.95c-6.024,0-10.908-4.885-10.908-10.908l0,0c0-6.023,4.883-10.907,10.908-10.907
				h64.495c6.025,0,10.907,4.884,10.907,10.907v0.001C88.352,87.892,83.47,92.776,77.444,92.776z"/>
		</g>
		<g>
			<path fill="#E5E9FF" d="M113.939,31.733H78.332c-3.326,0-6.022-2.696-6.022-6.022l0,0c0-3.327,2.696-6.022,6.022-6.022h35.607
				c3.325,0,6.021,2.695,6.021,6.022l0,0C119.961,29.037,117.265,31.733,113.939,31.733z"/>
		</g>
		<g>
			<path fill="#E5E9FF" d="M66.459,15.623c0.729,0,1.44,0.056,2.134,0.156c-0.309-2.495-2.431-4.428-5.01-4.428H36.519
				c-2.79,0-5.051,2.262-5.051,5.052c0,2.79,2.262,5.051,5.051,5.051H54.68C57.517,17.938,61.932,15.623,66.459,15.623z"/>
		</g>
		<g>
			<path fill="#E5E9FF" d="M102.985,11.031H94.53c-1.81,0-3.276-1.468-3.276-3.278l0,0c0-1.81,1.467-3.277,3.276-3.277h8.455
				c1.811,0,3.277,1.467,3.277,3.277l0,0C106.263,9.563,104.796,11.031,102.985,11.031z"/>
		</g>
	</g>
	<g>
		<g>
			<path fill="#FFFFFF" d="M38.809,59.731c-0.489,0-0.978-0.174-1.351-0.519c-0.565-0.525-1.484-0.526-2.049,0
				c-0.096,0.09-0.248,0.084-0.338-0.012c-0.091-0.097-0.085-0.249,0.012-0.339c0.746-0.692,1.957-0.692,2.702,0
				c0.565,0.525,1.484,0.525,2.049,0c0.745-0.692,1.956-0.692,2.701,0c0.564,0.525,1.484,0.525,2.049,0
				c0.745-0.692,1.956-0.692,2.701,0c0.097,0.091,0.103,0.242,0.013,0.339c-0.091,0.096-0.242,0.102-0.339,0.012
				c-0.564-0.525-1.484-0.526-2.048,0c-0.745,0.691-1.957,0.692-2.702,0c-0.565-0.526-1.484-0.526-2.049,0
				C39.787,59.557,39.297,59.731,38.809,59.731z"/>
		</g>
	</g>
	<g>
		<g>
			<g>
				<g>
					<rect x="103.803" y="45.251" fill="#F7B75D" width="5.805" height="44.339"/>
				</g>
			</g>
		</g>
		<g>
			<g>
				<g>
					<rect x="106.706" y="46.301" fill="#566CD3" width="2.901" height="0.766"/>
				</g>
			</g>
			<g>
				<g>
					<rect x="107.95" y="47.93" fill="#566CD3" width="1.657" height="0.767"/>
				</g>
			</g>
			<g>
				<g>
					<rect x="106.706" y="49.152" fill="#566CD3" width="2.901" height="0.767"/>
				</g>
			</g>
			<g>
				<g>
					<rect x="107.95" y="50.782" fill="#566CD3" width="1.657" height="0.766"/>
				</g>
			</g>
			<g>
				<g>
					<rect x="106.706" y="52.411" fill="#566CD3" width="2.901" height="0.767"/>
				</g>
			</g>
			<g>
				<g>
					<rect x="107.95" y="53.634" fill="#566CD3" width="1.657" height="0.766"/>
				</g>
			</g>
			<g>
				<g>
					<rect x="106.706" y="55.264" fill="#566CD3" width="2.901" height="0.766"/>
				</g>
			</g>
			<g>
				<g>
					<rect x="107.95" y="56.892" fill="#566CD3" width="1.657" height="0.766"/>
				</g>
			</g>
			<g>
				<g>
					<rect x="106.706" y="58.115" fill="#566CD3" width="2.901" height="0.766"/>
				</g>
			</g>
			<g>
				<g>
					<rect x="107.95" y="59.744" fill="#566CD3" width="1.657" height="0.767"/>
				</g>
			</g>
			<g>
				<g>
					<rect x="106.706" y="60.966" fill="#566CD3" width="2.901" height="0.767"/>
				</g>
			</g>
			<g>
				<g>
					<rect x="107.95" y="62.596" fill="#566CD3" width="1.657" height="0.766"/>
				</g>
			</g>
			<g>
				<g>
					<rect x="106.706" y="64.225" fill="#566CD3" width="2.901" height="0.766"/>
				</g>
			</g>
			<g>
				<g>
					<rect x="107.95" y="65.446" fill="#566CD3" width="1.657" height="0.767"/>
				</g>
			</g>
			<g>
				<g>
					<rect x="106.706" y="67.077" fill="#566CD3" width="2.901" height="0.766"/>
				</g>
			</g>
			<g>
				<g>
					<rect x="107.95" y="68.705" fill="#566CD3" width="1.657" height="0.767"/>
				</g>
			</g>
			<g>
				<g>
					<rect x="106.706" y="69.928" fill="#566CD3" width="2.901" height="0.767"/>
				</g>
			</g>
			<g>
				<g>
					<rect x="107.95" y="71.558" fill="#566CD3" width="1.657" height="0.766"/>
				</g>
			</g>
			<g>
				<g>
					<rect x="106.706" y="73.186" fill="#566CD3" width="2.901" height="0.768"/>
				</g>
			</g>
			<g>
				<g>
					<rect x="107.95" y="74.408" fill="#566CD3" width="1.657" height="0.768"/>
				</g>
			</g>
			<g>
				<g>
					<rect x="106.706" y="76.038" fill="#566CD3" width="2.901" height="0.767"/>
				</g>
			</g>
			<g>
				<g>
					<rect x="107.95" y="77.26" fill="#566CD3" width="1.657" height="0.768"/>
				</g>
			</g>
			<g>
				<g>
					<rect x="106.706" y="78.891" fill="#566CD3" width="2.901" height="0.766"/>
				</g>
			</g>
			<g>
				<g>
					<rect x="107.95" y="80.52" fill="#566CD3" width="1.657" height="0.766"/>
				</g>
			</g>
			<g>
				<g>
					<rect x="106.706" y="81.742" fill="#566CD3" width="2.901" height="0.766"/>
				</g>
			</g>
			<g>
				<g>
					<rect x="107.95" y="83.371" fill="#566CD3" width="1.657" height="0.766"/>
				</g>
			</g>
			<g>
				<g>
					<rect x="106.706" y="85" fill="#566CD3" width="2.901" height="0.766"/>
				</g>
			</g>
			<g>
				<g>
					<rect x="107.95" y="86.223" fill="#566CD3" width="1.657" height="0.767"/>
				</g>
			</g>
			<g>
				<g>
					<rect x="106.706" y="87.853" fill="#566CD3" width="2.901" height="0.766"/>
				</g>
			</g>
		</g>
	</g>
	<g>
		<g>
			<g>
				<path fill="#B9B8F1" d="M37.125,32.827c-0.119,0-0.235-0.055-0.31-0.16c-0.078-0.106-0.153-0.213-0.227-0.323
					c-0.118-0.175-0.072-0.413,0.104-0.531s0.414-0.073,0.532,0.103c0.069,0.103,0.141,0.204,0.213,0.305
					c0.123,0.17,0.085,0.41-0.087,0.534C37.281,32.804,37.203,32.827,37.125,32.827z"/>
			</g>
		</g>
		<g>
			<g>
				<path fill="#B9B8F1" d="M46.861,37.813c-0.128,0-0.256-0.002-0.384-0.006c-0.211-0.008-0.377-0.185-0.371-0.395
					c0.007-0.208,0.178-0.372,0.383-0.372c0.004,0,0.009,0,0.013,0.001c0.129,0.003,0.259,0.007,0.387,0.006
					c0.126,0,0.249-0.002,0.372-0.005c0.004,0,0.008,0,0.012,0c0.207,0,0.377,0.164,0.383,0.371
					c0.007,0.212-0.159,0.389-0.371,0.395C47.146,37.812,47.01,37.813,46.861,37.813z M48.835,37.658
					c-0.184,0-0.347-0.133-0.378-0.321c-0.034-0.209,0.107-0.406,0.316-0.44c0.252-0.041,0.5-0.09,0.747-0.146
					c0.206-0.048,0.412,0.082,0.458,0.289c0.047,0.206-0.082,0.411-0.288,0.459c-0.262,0.06-0.526,0.112-0.794,0.155
					C48.876,37.656,48.855,37.658,48.835,37.658z M44.93,37.654c-0.02,0-0.042-0.001-0.063-0.004
					c-0.263-0.043-0.53-0.096-0.794-0.157c-0.207-0.048-0.334-0.252-0.287-0.459c0.048-0.206,0.254-0.333,0.46-0.288
					c0.247,0.059,0.499,0.108,0.745,0.148c0.208,0.034,0.35,0.231,0.316,0.44C45.277,37.521,45.114,37.654,44.93,37.654z
					 M51.108,37.056c-0.156,0-0.301-0.096-0.359-0.25c-0.074-0.198,0.027-0.419,0.226-0.493c0.237-0.087,0.474-0.185,0.702-0.288
					c0.193-0.089,0.42-0.001,0.507,0.191c0.087,0.193,0.001,0.42-0.191,0.507c-0.245,0.109-0.497,0.213-0.75,0.308
					C51.199,37.047,51.152,37.056,51.108,37.056z M42.659,37.049c-0.045,0-0.091-0.007-0.135-0.023
					c-0.251-0.094-0.503-0.199-0.748-0.31c-0.192-0.087-0.279-0.313-0.191-0.507c0.087-0.192,0.313-0.278,0.506-0.191
					c0.23,0.104,0.466,0.201,0.702,0.29c0.197,0.074,0.298,0.295,0.224,0.494C42.959,36.955,42.814,37.049,42.659,37.049z
					 M53.22,36.022c-0.127,0-0.253-0.065-0.326-0.183c-0.111-0.18-0.056-0.416,0.125-0.527c0.216-0.133,0.428-0.274,0.632-0.42
					c0.172-0.122,0.412-0.083,0.534,0.09c0.123,0.172,0.083,0.412-0.089,0.534c-0.218,0.156-0.445,0.307-0.675,0.449
					C53.359,36.003,53.289,36.022,53.22,36.022z M40.549,36.013c-0.069,0-0.138-0.018-0.201-0.057
					c-0.227-0.142-0.454-0.292-0.673-0.45c-0.173-0.123-0.213-0.362-0.089-0.534c0.123-0.172,0.362-0.212,0.535-0.089
					c0.206,0.148,0.419,0.29,0.631,0.421c0.18,0.111,0.235,0.348,0.125,0.527C40.803,35.948,40.678,36.013,40.549,36.013z
					 M55.089,34.597c-0.102,0-0.205-0.042-0.28-0.123c-0.144-0.155-0.135-0.398,0.02-0.542c0.186-0.172,0.366-0.351,0.54-0.534
					c0.146-0.155,0.388-0.16,0.542-0.015c0.154,0.146,0.16,0.388,0.015,0.542c-0.183,0.194-0.376,0.385-0.575,0.568
					C55.276,34.562,55.183,34.597,55.089,34.597z M38.682,34.586c-0.093,0-0.188-0.034-0.261-0.102
					c-0.195-0.181-0.387-0.374-0.574-0.57c-0.146-0.154-0.138-0.396,0.015-0.542c0.153-0.145,0.396-0.138,0.542,0.015
					c0.174,0.184,0.353,0.363,0.539,0.536c0.155,0.144,0.164,0.386,0.02,0.541C38.887,34.545,38.785,34.586,38.682,34.586z"/>
			</g>
		</g>
		<g>
			<g>
				<path fill="#B9B8F1" d="M56.656,32.827c-0.078,0-0.155-0.023-0.224-0.073c-0.171-0.125-0.21-0.364-0.086-0.534
					c0.072-0.101,0.144-0.202,0.213-0.306c0.119-0.175,0.358-0.221,0.532-0.102c0.175,0.118,0.221,0.356,0.102,0.532
					c-0.073,0.109-0.149,0.216-0.226,0.322C56.893,32.772,56.775,32.827,56.656,32.827z"/>
			</g>
		</g>
	</g>
	<g>
		<g>
			<g>
				<g>
					<g>
						<g>
							<path fill="#566CD3" d="M95.867,86.629V55.458c0-1.734-1.365-3.141-3.048-3.141h-47.43c-1.684,0-3.046,1.406-3.046,3.141
								v31.171H95.867z"/>
						</g>
					</g>
				</g>
			</g>
			<g>
				<g>
					<path fill="#566CD3" d="M90.848,70.921h14.669c1.514,0,2.739,1.227,2.739,2.738l0,0c0,1.513-1.226,2.739-2.739,2.739H90.848
						c-1.514,0-2.74-1.227-2.74-2.739l0,0C88.107,72.147,89.334,70.921,90.848,70.921z"/>
				</g>
				<g>
					<path fill="#566CD3" d="M92.198,60.171h7.977c1.514,0,2.739,1.226,2.739,2.738l0,0c0,1.513-1.226,2.738-2.739,2.738h-7.977
						c-1.513,0-2.737-1.226-2.737-2.738l0,0C89.461,61.397,90.686,60.171,92.198,60.171z"/>
				</g>
				<g>
					<path fill="#566CD3" d="M87.313,81.274h21.738c0.98,0,1.774,0.897,1.774,2.002l0,0c0,1.107-0.794,2.003-1.774,2.003H87.313
						c-0.98,0-1.775-0.896-1.775-2.003l0,0C85.538,82.172,86.333,81.274,87.313,81.274z"/>
				</g>
				<g>
					<path fill="#566CD3" d="M103.166,55.082h7.866c0.979,0,1.774,0.795,1.774,1.775l0,0c0,0.981-0.795,1.775-1.774,1.775h-7.866
						c-0.979,0-1.774-0.794-1.774-1.775l0,0C101.392,55.877,102.187,55.082,103.166,55.082z"/>
				</g>
				<g>
					<path fill="#566CD3" d="M93.039,76.142h10.558c-0.779,0-1.488,0.323-2,0.811c-0.512,0.49-0.829,1.069-0.829,1.816
						c0,1.491,1.268,2.603,2.829,2.603H93.039c0.78,0,1.487-0.197,2-0.684c0.511-0.488,0.828-1.13,0.828-1.877
						C95.867,77.317,94.601,76.142,93.039,76.142z"/>
				</g>
			</g>
		</g>
		<g>
			<g>
				<g>
					<g>
						<rect x="44.712" y="55.13" fill="#E5E9FF" width="48.785" height="29.075"/>
					</g>
				</g>
			</g>
		</g>
		<g>
			<g>
				<g>
					<g>
						<ellipse fill="#FFFFFF" cx="69.062" cy="53.693" rx="0.796" ry="0.814"/>
					</g>
				</g>
			</g>
		</g>
		<g>
			<g>
				<g>
					<g>
						<ellipse fill="#121F55" cx="70.403" cy="53.693" rx="0.349" ry="0.357"/>
					</g>
				</g>
			</g>
		</g>
		<g>
			<g>
				<g>
					<g>
						<path fill="#FFFFFF" d="M39.261,86.629v1.481c0,0.818,0.647,1.48,1.447,1.48h56.793c0.799,0,1.447-0.662,1.447-1.48v-1.481
							H39.261z"/>
					</g>
				</g>
			</g>
		</g>
	</g>
	<g>
		<g>
			<path fill="#B9B8F1" d="M85.382,62.574c-0.057-0.448-0.466-0.874-0.91-0.953l-1.749-0.304c-0.449-0.08-0.927-0.49-1.072-0.925
				l-0.704-1.733c-0.194-0.404-0.146-1.038,0.126-1.402l1.04-1.447c0.262-0.365,0.256-0.964-0.02-1.317l-0.939-1.117
				c-0.311-0.328-0.892-0.438-1.3-0.238l-1.601,0.786c-0.409,0.194-1.031,0.136-1.387-0.135c0,0-0.271-0.212-0.783-0.529
				c-0.507-0.313-0.817-0.462-0.817-0.462c-0.398-0.205-0.731-0.732-0.734-1.184l-0.006-1.789c-0.01-0.446-0.363-0.928-0.796-1.055
				l-1.412-0.346c-0.438-0.085-0.976,0.167-1.191,0.566l-0.27,0.513l-0.325,0.621l-0.233,0.439
				c-0.214,0.398-0.759,0.729-1.209,0.734L68.4,51.342l-0.31,0.023l-0.867,0.066c-0.453,0.062-1.034-0.185-1.303-0.554l-1.048-1.428
				c-0.269-0.369-0.836-0.547-1.259-0.395l-1.352,0.546c-0.414,0.195-0.696,0.717-0.634,1.159l0.252,1.765
				c0.063,0.453-0.185,1.034-0.553,1.296l-1.433,1.217c-0.323,0.311-0.935,0.453-1.367,0.315L56.83,54.81
				c-0.431-0.136-0.998,0.048-1.265,0.412c0,0-0.13,0.176-0.398,0.615c-0.275,0.449-0.375,0.63-0.375,0.63
				c-0.208,0.399-0.125,0.994,0.187,1.311l1.241,1.282c0.313,0.322,0.458,0.946,0.327,1.371l-0.458,1.832
				c-0.079,0.438-0.49,0.914-0.919,1.06l-1.689,0.56c-0.428,0.142-0.766,0.626-0.757,1.072l0.104,1.466
				c0.056,0.448,0.465,0.872,0.908,0.951l1.75,0.304c0.448,0.08,0.926,0.491,1.072,0.926l0.705,1.733
				c0.2,0.406,0.146,1.039-0.115,1.402l-1.045,1.453c-0.267,0.36-0.257,0.959,0.023,1.313l0.931,1.117
				c0.312,0.327,0.891,0.436,1.3,0.236l1.6-0.787c0.404-0.198,1.026-0.135,1.387,0.137c0,0,0.282,0.213,0.783,0.529
				c0.506,0.312,0.822,0.472,0.822,0.472c0.399,0.195,0.73,0.724,0.735,1.18l0.006,1.784c0.004,0.446,0.359,0.928,0.79,1.056
				l1.413,0.347c0.439,0.084,0.976-0.171,1.19-0.567l0.833-1.573c0.21-0.398,0.754-0.726,1.206-0.734l1.866-0.134
				c0.452-0.063,1.034,0.183,1.303,0.552l1.048,1.429c0.268,0.369,0.836,0.548,1.259,0.396l1.358-0.557
				c0.409-0.185,0.689-0.707,0.628-1.153l-0.253-1.76c-0.062-0.452,0.186-1.033,0.553-1.297l1.434-1.217
				c0.328-0.312,0.946-0.457,1.372-0.314l1.697,0.537c0.426,0.143,0.993-0.049,1.26-0.408c0,0,0.13-0.175,0.403-0.612
				c0.279-0.449,0.368-0.637,0.368-0.637c0.21-0.394,0.125-0.988-0.187-1.314l-1.235-1.272c-0.317-0.328-0.463-0.947-0.326-1.372
				l0.452-1.825c0.079-0.443,0.491-0.921,0.92-1.065l1.693-0.56c0.424-0.146,0.772-0.625,0.752-1.082L85.382,62.574z M76.977,69.389
				c-2.701,4.347-8.412,5.676-12.764,2.976c-4.342-2.701-5.682-8.407-2.976-12.759c1.54-2.483,4.061-3.976,6.75-4.308
				c0.306-0.041,0.622-0.057,0.93-0.055c0.289-0.013,0.572-0.005,0.855,0.022c0.314,0.015,0.618,0.048,0.931,0.104
				c1.133,0.193,2.251,0.611,3.293,1.257C78.342,59.325,79.677,65.037,76.977,69.389z"/>
		</g>
		<g>
			<g>
				<g>
					<g>
						<g>
							<g>
								<g>
									<path fill-rule="evenodd" clip-rule="evenodd" fill="#FFFFFF" d="M69.387,43.348c-0.006-1.168,0.438-2.235,1.169-3.035
										h0.376c-0.296,0.522-0.438,1.132-0.465,1.728c-0.038,0.843,0.404,1.806,0.991,2.392c0.613,0.614,1.525,0.992,2.393,0.992
										c0.917,0,1.73-0.383,2.394-0.992c0.664-0.609,0.951-1.517,0.991-2.392c0.024-0.572-0.171-1.199-0.482-1.728h0.377
										c0.72,0.787,1.162,1.832,1.169,2.982c0.011,1.804-1.054,3.364-2.592,4.073l0.063,28.96c1.547,0.691,2.63,2.238,2.641,4.043
										c0.007,1.098-0.385,2.107-1.039,2.888h-0.436c0.221-0.469,0.33-0.995,0.353-1.508c0.038-0.843-0.404-1.807-0.99-2.393
										c-0.614-0.615-1.526-0.991-2.393-0.991c-0.918,0-1.731,0.382-2.394,0.991c-0.665,0.609-0.952,1.517-0.991,2.393
										c-0.022,0.495,0.122,1.031,0.363,1.508h-0.344c-0.645-0.768-1.035-1.755-1.042-2.834c-0.011-1.805,1.052-3.364,2.592-4.074
										l-0.065-28.96C70.481,46.699,69.399,45.153,69.387,43.348z"/>
								</g>
							</g>
						</g>
					</g>
				</g>
			</g>
			<g>
				<g id="XMLID_1545_">
					<g id="XMLID_1548_">
						<g>
							<g>
								<g>
									<path fill-rule="evenodd" clip-rule="evenodd" fill="#FFFFFF" d="M67.405,41.623c-0.08-0.204-2.533-4.051-2.533-4.051
										s-2.348,3.734-2.501,4.051H67.405z"/>
								</g>
							</g>
						</g>
					</g>
					<g id="XMLID_1546_">
						<g>
							<g>
								<g>
									<polygon fill-rule="evenodd" clip-rule="evenodd" fill="#121F55" points="63.671,39.52 66.085,39.513 64.873,37.571 
																			"/>
								</g>
							</g>
						</g>
					</g>
				</g>
				<g id="XMLID_1544_">
					<g>
						<g>
							<g>
								<polygon fill-rule="evenodd" clip-rule="evenodd" fill="#F7B75D" points="67.353,41.767 62.357,41.783 62.368,80.331 
									67.353,80.331 								"/>
							</g>
						</g>
					</g>
				</g>
				<g id="XMLID_1539_">
					<g>
						<g>
							<g>
								<polygon fill-rule="evenodd" clip-rule="evenodd" fill="#FFCA80" points="65.712,41.767 63.997,41.783 64,80.331 
									65.712,80.331 								"/>
							</g>
						</g>
					</g>
				</g>
				<g>
					<g>
						<g>
							<path fill-rule="evenodd" clip-rule="evenodd" fill="#566CD3" d="M62.351,80.331v1.935c0,0.546,0.446,0.993,0.992,0.993h3.07
								c0.546,0,0.993-0.447,0.993-0.993v-1.935H62.351z"/>
						</g>
					</g>
				</g>
			</g>
		</g>
		<g>
			<path fill="#B9B8F1" d="M81.993,69.935c-0.131-0.136-0.229-0.321-0.295-0.522h-4.737c-2.707,4.328-8.404,5.647-12.748,2.952
				c-1.241-0.772-2.235-1.79-2.962-2.952h-4.363l0.375,0.922c0.2,0.406,0.146,1.039-0.115,1.402l-1.045,1.453
				c-0.267,0.36-0.257,0.959,0.023,1.313l0.931,1.117c0.312,0.327,0.891,0.436,1.3,0.236l1.6-0.787
				c0.404-0.198,1.026-0.135,1.387,0.137c0,0,0.282,0.213,0.783,0.529c0.506,0.312,0.822,0.472,0.822,0.472
				c0.399,0.195,0.73,0.724,0.735,1.18l0.006,1.784c0.004,0.446,0.359,0.928,0.79,1.056l1.413,0.347
				c0.439,0.084,0.976-0.171,1.19-0.567l0.833-1.573c0.21-0.398,0.754-0.726,1.206-0.734l1.866-0.134
				c0.452-0.063,1.034,0.183,1.303,0.552l1.048,1.429c0.268,0.369,0.836,0.548,1.259,0.396l1.358-0.557
				c0.409-0.185,0.689-0.707,0.628-1.153l-0.253-1.76c-0.062-0.452,0.186-1.033,0.553-1.297l1.434-1.217
				c0.328-0.312,0.946-0.457,1.372-0.314l1.697,0.537c0.426,0.143,0.993-0.049,1.26-0.408c0,0,0.13-0.175,0.403-0.612
				c0.279-0.449,0.368-0.637,0.368-0.637c0.21-0.394,0.125-0.988-0.187-1.314L81.993,69.935z"/>
		</g>
	</g>
	<g>
		<g>
			<polygon fill="#566CD3" points="39.383,54.732 35.685,51.063 37.582,49.166 41.282,52.835 			"/>
		</g>
		<g>
			<path fill="#2143AF" d="M53.123,68.499L40.886,56.263l1.897-1.897L55.02,66.603C54.387,67.234,53.755,67.867,53.123,68.499z"/>
		</g>
		<g>
			<path fill="#FFFFFF" d="M51.592,66.968L39.355,54.732l1.897-1.897l12.236,12.236C52.856,65.702,52.224,66.336,51.592,66.968z"/>
		</g>
		<g>
			<polygon fill="#B9B8F1" points="33.416,51.661 32.832,52.846 31.524,53.036 32.47,53.958 32.247,55.26 33.416,54.645 
				34.585,55.26 34.362,53.958 35.308,53.036 34.001,52.846 			"/>
		</g>
		<g>
			<polygon fill="#B9B8F1" points="36.751,46.675 37.563,47.007 37.75,47.864 38.316,47.195 39.188,47.283 38.728,46.537 
				39.081,45.733 38.229,45.942 37.575,45.358 37.51,46.233 			"/>
		</g>
		<g>
			<polygon fill="#B9B8F1" points="33.457,47.991 33.728,48.789 33.223,49.464 34.065,49.453 34.552,50.141 34.802,49.336 
				35.606,49.086 34.918,48.6 34.929,47.758 34.254,48.262 			"/>
		</g>
		<g>
			<polygon fill="#B9B8F1" points="41.709,49.336 41.105,49.794 40.385,49.555 40.632,50.271 40.183,50.882 40.942,50.868 
				41.383,51.484 41.604,50.759 42.327,50.529 41.705,50.095 			"/>
		</g>
		<g>
			<polygon fill="#B9B8F1" points="36.966,55.025 36.361,55.482 35.64,55.243 35.889,55.96 35.439,56.571 36.198,56.556 
				36.639,57.173 36.86,56.448 37.583,56.218 36.96,55.784 			"/>
		</g>
		<g>
			<polygon fill="#B9B8F1" points="31.713,49.513 31.108,49.97 30.389,49.731 30.637,50.448 30.187,51.059 30.945,51.044 
				31.387,51.661 31.607,50.936 32.331,50.706 31.708,50.271 			"/>
		</g>
		<g>
			<polygon fill="#B9B8F1" points="42.36,47.011 41.738,47.083 41.325,46.612 41.202,47.226 40.625,47.473 41.172,47.78 
				41.228,48.403 41.689,47.979 42.3,48.119 42.04,47.549 			"/>
		</g>
		<g>
			<polygon fill="#B9B8F1" points="35.434,45.486 34.812,45.558 34.4,45.086 34.276,45.701 33.7,45.947 34.246,46.254 
				34.302,46.879 34.763,46.455 35.375,46.594 35.113,46.024 			"/>
		</g>
	</g>
	<g>
		<g>
			<g>
				<path fill="#FFFFFF" d="M34.042,65.519H33.91c-4.55,0.046-8.226,3.916-8.226,8.689c0,1.623,0.401,3.157,1.173,4.438
					c1.938,3.213,3.022,7.6,3.022,7.6h4.031h0.132h4.031c0,0,1.084-4.387,3.022-7.6c0.771-1.28,1.174-2.814,1.174-4.438
					C42.269,69.435,38.592,65.564,34.042,65.519z"/>
			</g>
			<g id="XMLID_543_">
				<g id="XMLID_544_">
					<g>
						<g>
							<polygon fill="#B9B8F1" points="29.659,85.622 29.659,88.576 30.569,90.162 33.961,90.162 37.352,90.162 38.264,88.576 
								38.264,85.622 							"/>
						</g>
					</g>
				</g>
			</g>
		</g>
		<g>
			<path fill-rule="evenodd" clip-rule="evenodd" fill="#F7B75D" d="M33.976,68.107c-0.714-0.697-2.874-0.256-2.874,1.289
				c-1.451,0-2.731,1.93-1.726,3.514c-1.374,0.775-1.525,3.286,0.119,4.15c0,1.984,2.257,3.294,4.48,2.128
				c2.224,1.166,4.48-0.144,4.48-2.128c1.645-0.864,1.493-3.375,0.119-4.15c1.005-1.584-0.274-3.514-1.725-3.514
				C36.85,67.852,34.691,67.41,33.976,68.107z"/>
		</g>
		<g id="XMLID_528_">
			<g id="XMLID_536_">
				<g id="XMLID_537_">
					<g>
						<g>
							<path fill="#FFFFFF" d="M36.409,73.42c-0.009-0.067-0.069-0.13-0.136-0.143l-0.261-0.045
								c-0.067-0.013-0.138-0.074-0.16-0.139l-0.105-0.259c-0.029-0.061-0.021-0.154,0.019-0.21l0.155-0.217
								c0.039-0.054,0.039-0.144-0.003-0.195l-0.141-0.168c-0.046-0.049-0.133-0.065-0.194-0.035l-0.239,0.117
								c-0.062,0.029-0.155,0.021-0.208-0.021l-0.239-0.147c-0.059-0.031-0.109-0.109-0.109-0.179l-0.001-0.266
								c-0.001-0.067-0.054-0.14-0.119-0.158l-0.211-0.052c-0.066-0.013-0.146,0.025-0.179,0.084l-0.04,0.077l-0.048,0.093
								l-0.034,0.066c-0.033,0.06-0.114,0.108-0.182,0.109l-0.279,0.021c-0.068,0.009-0.155-0.028-0.195-0.084l-0.157-0.213
								c-0.04-0.056-0.125-0.081-0.188-0.059l-0.202,0.082c-0.062,0.028-0.104,0.106-0.094,0.172l0.037,0.264
								c0.01,0.068-0.028,0.154-0.083,0.194L32.6,72.293c-0.049,0.047-0.14,0.068-0.204,0.047l-0.254-0.081
								c-0.064-0.02-0.149,0.007-0.189,0.063c0,0-0.02,0.025-0.06,0.092c-0.041,0.067-0.056,0.094-0.056,0.094
								c-0.031,0.061-0.018,0.148,0.028,0.196l0.185,0.191c0.047,0.049,0.069,0.141,0.049,0.205l-0.068,0.273
								c-0.012,0.065-0.073,0.137-0.138,0.158l-0.252,0.084c-0.065,0.021-0.115,0.094-0.113,0.16l0.015,0.219
								c0.009,0.066,0.069,0.131,0.136,0.143l0.261,0.045c0.067,0.012,0.138,0.073,0.16,0.139l0.105,0.259
								c0.03,0.061,0.021,0.154-0.017,0.21l-0.157,0.217c-0.04,0.054-0.038,0.144,0.004,0.196l0.139,0.167
								c0.047,0.049,0.133,0.065,0.194,0.035l0.239-0.117c0.061-0.03,0.154-0.021,0.208,0.021l0.24,0.148
								c0.06,0.03,0.11,0.108,0.11,0.178l0.001,0.266c0,0.067,0.054,0.139,0.118,0.157l0.211,0.053
								c0.066,0.012,0.146-0.025,0.178-0.085l0.124-0.235c0.032-0.06,0.113-0.106,0.18-0.109l0.279-0.021
								c0.068-0.01,0.154,0.028,0.194,0.083l0.157,0.214c0.04,0.055,0.125,0.081,0.189,0.058L35,75.932
								c0.061-0.027,0.102-0.105,0.093-0.172l-0.038-0.264c-0.01-0.067,0.027-0.154,0.083-0.193l0.213-0.183
								c0.05-0.047,0.142-0.068,0.205-0.047l0.254,0.081c0.063,0.021,0.148-0.007,0.188-0.062c0,0,0.02-0.026,0.06-0.092
								c0.042-0.066,0.055-0.095,0.055-0.095c0.031-0.059,0.019-0.147-0.028-0.196l-0.185-0.189
								c-0.048-0.051-0.069-0.143-0.049-0.206l0.067-0.272c0.013-0.067,0.074-0.138,0.138-0.159l0.253-0.084
								c0.063-0.022,0.116-0.094,0.112-0.162L36.409,73.42z M35.152,74.438c-0.403,0.65-1.257,0.849-1.908,0.446
								c-0.649-0.404-0.849-1.257-0.444-1.907c0.229-0.372,0.607-0.595,1.008-0.646c0.046-0.005,0.093-0.008,0.139-0.007
								c0.043-0.003,0.086-0.002,0.127,0.002c0.047,0.003,0.093,0.009,0.139,0.017c0.17,0.028,0.337,0.091,0.493,0.188
								C35.356,72.934,35.556,73.788,35.152,74.438z"/>
						</g>
					</g>
				</g>
			</g>
			<g id="XMLID_530_">
				<g id="XMLID_531_">
					<g>
						<g>
							<path fill="#FFFFFF" d="M34.497,72.869c-0.093-0.058-0.193-0.098-0.293-0.122c-0.135-0.033-0.273-0.035-0.405-0.012
								c-0.264,0.049-0.508,0.204-0.662,0.45c-0.288,0.464-0.145,1.071,0.319,1.36c0.463,0.287,1.072,0.146,1.36-0.317
								C35.104,73.766,34.96,73.157,34.497,72.869z M34.278,73.894c-0.104,0.167-0.323,0.22-0.488,0.115
								c-0.168-0.104-0.219-0.322-0.115-0.49c0.028-0.046,0.064-0.083,0.106-0.108c0.112-0.075,0.262-0.08,0.384-0.006
								c0.008,0.006,0.015,0.012,0.021,0.018C34.334,73.529,34.376,73.734,34.278,73.894z"/>
						</g>
					</g>
				</g>
			</g>
		</g>
	</g>
	<g>
		<g>
			<path fill="#F7B75D" d="M84.685,35.858c-0.014,0.012-0.027,0.024-0.041,0.038l-4.21,4.192c-0.299,0.297-0.3,0.78-0.002,1.078
				c0.296,0.296,0.777,0.297,1.075,0.002l4.211-4.193c0.014-0.013,0.024-0.028,0.037-0.042c-0.205-0.143-0.401-0.305-0.584-0.49
				C84.988,36.261,84.827,36.064,84.685,35.858z"/>
		</g>
		<g>
			<path fill="#FFFFFF" d="M82.797,37.053l-1.802,1.795c-0.239,0.239-0.239,0.627-0.001,0.867l0.895,0.894
				c0.238,0.239,0.626,0.239,0.865,0.001l1.801-1.796c0.24-0.238,0.24-0.627,0.001-0.866l-0.895-0.894
				C83.423,36.815,83.036,36.815,82.797,37.053z"/>
		</g>
		<g id="XMLID_549_">
			<g>
				<g>
					<g>
						<path fill="#B9B8F1" d="M86.157,30.61l-0.352-0.537l-1.133,0.745l0.352,0.537c-0.382,0.367-0.672,0.803-0.864,1.275
							l-0.63-0.13l-0.275,1.328l0.63,0.13c-0.008,0.401,0.049,0.807,0.174,1.2c0.031,0.101,0.069,0.203,0.111,0.302
							c0.001,0.004,0.003,0.008,0.005,0.012l-0.538,0.353l0.745,1.133l0.537-0.354c0.096,0.101,0.198,0.195,0.302,0.282
							c0.296,0.247,0.625,0.442,0.974,0.584l-0.131,0.629l1.327,0.274l0.131-0.628c0.509,0.01,1.024-0.085,1.514-0.29l0.353,0.537
							l1.133-0.745l-0.353-0.536c0.382-0.367,0.673-0.802,0.865-1.275l0.629,0.13l0.276-1.327l-0.632-0.13
							c0.013-0.51-0.082-1.025-0.288-1.515l0.537-0.353l-0.744-1.132l-0.536,0.353c-0.098-0.101-0.198-0.195-0.304-0.282
							c-0.295-0.247-0.625-0.442-0.972-0.583l0.13-0.63l-1.327-0.274l-0.131,0.629C87.162,30.31,86.647,30.405,86.157,30.61z
							 M89.351,31.926c0.203,0.168,0.385,0.37,0.536,0.602c0.832,1.265,0.48,2.964-0.785,3.797
							c-1.033,0.678-2.355,0.569-3.259-0.185c-0.203-0.168-0.385-0.37-0.536-0.602c-0.089-0.133-0.163-0.271-0.225-0.413
							c-0.043-0.099-0.081-0.2-0.111-0.302c-0.341-1.132,0.082-2.398,1.12-3.081C87.125,31.063,88.446,31.173,89.351,31.926z"/>
					</g>
				</g>
			</g>
		</g>
	</g>
	<g>
		<g id="_x38_._Right_shoe_238_">
			<g>
				<g>
					<circle fill="#F7B75D" cx="40.654" cy="87.241" r="0.84"/>
				</g>
			</g>
			<g>
				<g>
					<path fill="#F7B75D" d="M37.348,87.172l3.061,0.873c0.324,0.092,0.661-0.096,0.753-0.418l0,0
						c0.092-0.325-0.127-1.151-0.45-1.243l-3.211,0.029c-0.354,0.003-0.545,0.444-0.284,0.682
						C37.256,87.132,37.299,87.158,37.348,87.172z"/>
				</g>
			</g>
			<g>
				<g>
					<path fill="#FFFFFF" d="M39.68,86.778L39.68,86.778c0.09-0.004,0.152-0.088,0.132-0.174l-0.075-0.317
						c-0.016-0.066-0.076-0.111-0.144-0.108l0,0c-0.088,0.004-0.151,0.088-0.132,0.174l0.075,0.316
						C39.552,86.735,39.612,86.781,39.68,86.778z"/>
				</g>
			</g>
			<g>
				<g>
					<path fill="#FFFFFF" d="M39.223,86.797L39.223,86.797c0.089-0.003,0.152-0.087,0.132-0.174l-0.075-0.316
						c-0.016-0.065-0.075-0.111-0.144-0.108l0,0c-0.089,0.004-0.152,0.087-0.132,0.174l0.075,0.315
						C39.095,86.754,39.155,86.801,39.223,86.797z"/>
				</g>
			</g>
		</g>
		<g>
			<g>
				<path fill="#8EDEF2" d="M41.578,81.294l0.016-0.01l4.589-2.704l1.373,1.487L42.74,82.62l-1.129,4.915l-0.034-0.006l-1.291-1.169
					l0.873-4.505C41.207,81.624,41.354,81.412,41.578,81.294z"/>
			</g>
		</g>
		<g id="_x38_._Right_shoe_237_">
			<g>
				<g>
					<circle fill="#F7B75D" cx="51.572" cy="88.829" r="0.756"/>
				</g>
			</g>
			<g>
				<g>
					<path fill="#F7B75D" d="M48.699,89.591l2.861-0.006c0.303,0,0.547-0.247,0.546-0.551l0,0c0-0.302-0.396-0.961-0.698-0.96
						l-2.766,0.822c-0.306,0.093-0.361,0.52-0.076,0.661C48.608,89.58,48.653,89.591,48.699,89.591z"/>
				</g>
			</g>
			<g>
				<g>
					<path fill="#FFFFFF" d="M50.615,88.671L50.615,88.671c0.076-0.024,0.109-0.114,0.07-0.184l-0.144-0.255
						c-0.03-0.052-0.093-0.076-0.151-0.057l0,0c-0.076,0.024-0.11,0.112-0.071,0.182l0.144,0.256
						C50.494,88.666,50.558,88.69,50.615,88.671z"/>
				</g>
			</g>
			<g>
				<g>
					<path fill="#FFFFFF" d="M50.225,88.802L50.225,88.802c0.076-0.025,0.11-0.114,0.071-0.184l-0.144-0.255
						c-0.03-0.052-0.093-0.077-0.151-0.058l0,0c-0.075,0.025-0.11,0.112-0.07,0.182l0.143,0.256
						C50.104,88.797,50.167,88.821,50.225,88.802z"/>
				</g>
			</g>
		</g>
		<g>
			<g>
				<path fill="#8EDEF2" d="M45.52,77.905l3.042-0.332c0.189,0.214,0.418,0.878,0.486,1.176c0.108,0.479,0.012,0.954-0.23,1.336
					c-0.242,0.384-0.629,0.677-1.108,0.784c-0.233,0.054-1.387,0.071-1.93-0.458C44.985,79.638,45.52,77.905,45.52,77.905z"/>
			</g>
		</g>
		<g>
			<g>
				<path fill="#8EDEF2" d="M47.418,79.532h1.958l-0.751,4.66l3.305,3.853l-1.715,0.481l-3.154-3.538
					c-0.155-0.176-0.235-0.419-0.195-0.669L47.418,79.532z"/>
			</g>
		</g>
		<g>
			<g>
				<path fill="#121F55" d="M39.414,77.552l4.537-0.08c0.2-0.004,0.381-0.116,0.472-0.297L46.2,73.64l-0.964-0.484l-1.631,3.244
					l-4.21,0.073L39.414,77.552z"/>
			</g>
		</g>
		<g>
			<g>
				<polygon fill="#F99AB6" points="45.89,70.358 46.027,73.221 47.354,73.157 47.162,70.393 47.107,69.606 				"/>
			</g>
		</g>
		<g>
			<g>
				<g>
					<path fill="#F99AB6" d="M46.904,71.26c0,0-0.3,0.737-0.928,0.921l-0.045-0.959L46.904,71.26z"/>
				</g>
			</g>
		</g>
		<g>
			<g>
				<path fill="#F99AB6" d="M45.457,72.053c-0.053-0.009-0.156-0.037-0.207-0.051c-0.493-0.136-0.981-0.95-0.962-1.417
					c0.023-0.56,0.081-0.839,0.049-1.218c-0.045-0.52,0.459-0.927,0.981-0.906l1.056,0.042c0.396,0.017,0.706,0.35,0.69,0.748
					l-0.069,1.713C46.971,71.574,46.061,72.149,45.457,72.053z"/>
			</g>
		</g>
		<g>
			<g>
				<path fill="#F99AB6" d="M47.638,72.434c-0.141-0.096-0.315-0.142-0.498-0.121l-0.586,0.068
					c-0.285,0.033-0.544,0.135-0.764,0.287C46.397,72.846,47.129,72.784,47.638,72.434z"/>
			</g>
		</g>
		<g>
			<g>
				<path fill="#121F55" d="M48.55,73.561c-0.026-0.461-0.437-1.082-0.939-1.144c-0.85,0.118-1.614,0.166-1.902,0.234
					c-0.495,0.343-0.789,0.94-0.715,1.58l0.075,5.297c1.591,1.121,4.505,0.67,4.505,0.67C49.574,77.912,48.602,74.468,48.55,73.561z
					"/>
			</g>
		</g>
		<g>
			<g>
				<path fill="#121F55" d="M42.603,77.521l3.704,0.041c0.269,0.002,0.499-0.193,0.539-0.459l0.609-4.077l-1.066-0.161l-0.54,3.613
					l-3.234-0.034L42.603,77.521z"/>
			</g>
		</g>
		<g>
			<g>
				<path fill="#F7B75D" d="M45.86,72.623c0.242-0.058,0.672-0.071,1.358-0.155c-0.381,0.893-1.406,1.634-1.71,2.68
					C45.35,74.974,45.364,72.967,45.86,72.623z"/>
			</g>
		</g>
		<g>
			<g>
				<path fill="#2747B3" d="M45.902,72.786c0.044-0.05,0.186-0.148,0.19-0.201c0.11-0.014,0.092,0.029,0.244,0.013
					c-0.416,0.385-0.175,1.019-0.339,1.597c-0.208,0.296-0.388,0.606-0.489,0.953c-0.087-0.098-0.122-0.756-0.051-1.382
					C45.465,73.697,45.564,73.172,45.902,72.786z"/>
			</g>
		</g>
		<g>
			<path fill="#B8B9F1" d="M45.853,72.886c0.052,0.068,0.275,0.102,0.345,0.052c0.068-0.047,0.134-0.307,0.134-0.307l-0.515-0.077
				C45.816,72.554,45.803,72.821,45.853,72.886z"/>
		</g>
		<g>
			<g>
				<path fill="#121F55" d="M44.942,69.502c-2.044-0.446-0.573-1.744-0.573-1.744s0.042,0.483,0.437,0.326
					c0.758-0.305,2.405-0.496,2.858,0.494c0.353,0.771-0.304,2.456-0.428,2.896c-0.204-0.128-0.032-2.111-0.87-2.029
					C45.909,69.49,45.389,69.599,44.942,69.502z"/>
			</g>
		</g>
		<g>
			<g>
				<path fill="#FFFEFF" d="M45.251,71.626c-0.417-0.018-0.148-0.709,0.01-0.7C45.421,70.934,45.668,71.645,45.251,71.626z"/>
			</g>
		</g>
		<g>
			<polygon fill="#FFFFFF" points="46.592,73.12 47.629,72.431 47.278,72.045 46.045,72.594 			"/>
		</g>
		<g>
			<polygon fill="#FFFFFF" points="45.73,72.854 45.79,72.624 45.989,72.417 46.073,72.594 			"/>
		</g>
		<g>
			<g>
				<path fill="#566CD3" d="M46.665,76.266c0-0.126-0.102-0.229-0.229-0.229h-8.278c-0.173,0-0.315,0.103-0.315,0.228
					c0,0.127,0.142,0.229,0.315,0.229h8.278C46.563,76.494,46.665,76.393,46.665,76.266L46.665,76.266z"/>
			</g>
			<g>
				<path fill="#2143AF" d="M46.99,76.265c0,0.127-0.111,0.229-0.247,0.229H43.6c-0.135,0-0.246-0.103-0.246-0.229
					c0-0.125,0.111-0.228,0.246-0.228h3.144C46.879,76.037,46.99,76.14,46.99,76.265z"/>
			</g>
			<g>
				<path fill="#2143AF" d="M37.856,71.754v4.174c0,0.187,0.15,0.337,0.336,0.337H43.7c0.187,0,0.336-0.15,0.336-0.337v-4.174
					c0-0.188-0.15-0.337-0.336-0.337h-5.508C38.006,71.417,37.856,71.566,37.856,71.754z"/>
			</g>
			<g>
				<path fill="#E5E9FF" d="M37.599,71.754v4.174c0,0.187,0.151,0.337,0.337,0.337h5.508c0.187,0,0.337-0.15,0.337-0.337v-4.174
					c0-0.188-0.15-0.337-0.337-0.337h-5.508C37.75,71.417,37.599,71.566,37.599,71.754z"/>
			</g>
			<g>
				<path fill="#2143AF" d="M41.598,73.841L41.598,73.841c0-0.196-0.159-0.354-0.355-0.354h-1.106c-0.196,0-0.355,0.158-0.355,0.354
					l0,0c0,0.195,0.159,0.354,0.355,0.354h1.106C41.438,74.195,41.598,74.036,41.598,73.841z"/>
			</g>
		</g>
		<g>
			<g>
				<path fill="#F99AB6" d="M42.952,76.981c0.038-0.225-0.009-0.445-0.118-0.626l-1.392-0.234c-0.162,0.136-0.279,0.328-0.316,0.552
					c-0.085,0.506,0.255,0.982,0.758,1.067C42.389,77.825,42.866,77.485,42.952,76.981z"/>
			</g>
		</g>
		<g>
			<g>
				<path fill="#F99AB6" d="M40.013,76.724c0.019-0.227-0.046-0.441-0.17-0.614l-1.407-0.117c-0.149,0.148-0.25,0.351-0.269,0.577
					c-0.043,0.51,0.336,0.958,0.846,1.001C39.522,77.612,39.97,77.234,40.013,76.724z"/>
			</g>
		</g>
	</g>
	<g>
		<g>
			<g>
				
					<ellipse transform="matrix(-0.0037 1 -1 -0.0037 131.8388 -47.2492)" fill="#2143AF" cx="89.456" cy="42.048" rx="1.432" ry="0.901"/>
			</g>
		</g>
		<g>
			<g>
				<path fill="#2143AF" d="M93.816,44.154c-0.578-0.332-1.218-1.164-0.975-1.896c0.571-1.712-0.763-2.324-1.423-2.45
					c-0.661-0.127-1.245,0.041-1.612,0.335c-0.597,0.479-0.417,1.303-0.085,1.967c-0.361,0.208-0.534,0.657-0.327,0.989
					c0.453,0.728,0.063,1.705-0.207,2.286c-0.435,0.935,0.171,2.096,1.225,2.625c1.054,0.529,2.425,0.473,3.482-0.001
					c0.525-0.235,0.998-0.578,1.238-1.034C95.648,45.99,94.902,44.78,93.816,44.154z"/>
			</g>
		</g>
		<g>
			<g>
				<path fill="#F99AB6" d="M86.563,50.704c-0.25,0.036-0.515,0.058-0.791,0.066c-0.204,0.005-0.371-0.154-0.378-0.357
					c-0.005-0.203,0.154-0.371,0.357-0.376c1.286-0.036,2.25-0.415,2.86-1.127c0.934-1.088,0.756-2.6,0.754-2.615
					c-0.025-0.202,0.12-0.382,0.318-0.41c0.201-0.025,0.385,0.117,0.409,0.317c0.01,0.076,0.218,1.853-0.925,3.185
					C88.555,50.103,87.681,50.543,86.563,50.704z"/>
			</g>
		</g>
		<g>
			<path fill="#F7B75D" d="M89.643,45.619c-0.343,0.049-0.586,0.368-0.544,0.708c0.002,0.015,0.157,1.421-0.69,2.408
				c-0.414,0.482-1.017,0.797-1.79,0.941c0.224,0.381,0.261,0.874,0.082,1.276c1.136-0.182,2.036-0.647,2.672-1.39
				c1.221-1.422,0.998-3.314,0.988-3.393C90.317,45.822,89.998,45.575,89.643,45.619z"/>
		</g>
		<g>
			<g>
				<path fill="#F99AB6" d="M89.744,46.243c-0.188-0.096-0.34-0.381-0.115-0.642c0.222-0.256,0.563-0.399,0.93-0.414l0.096-0.003
					c0.322-0.013,0.618,0.128,0.813,0.357C91.312,46.025,90.254,46.438,89.744,46.243z"/>
			</g>
		</g>
		<g>
			<g>
				<path fill="#F99AB6" d="M90.364,44.45l-0.008,0.414l-0.015,0.778l0.597,0.011l0.019-0.994l0.009-0.385
					C90.786,44.395,90.578,44.46,90.364,44.45z"/>
			</g>
		</g>
		<g>
			<g>
				<g>
					<path fill="#F99AB6" d="M90.364,44.549l-0.008,0.415c0.212-0.032,0.469-0.126,0.603-0.282l0.007-0.309
						C90.786,44.494,90.578,44.559,90.364,44.549z"/>
				</g>
			</g>
		</g>
		<g>
			<g>
				<path fill="#F99AB6" d="M90.514,44.763L90.514,44.763c0.565-0.005,1.065-0.282,1.377-0.704c0.217-0.293,0.343-0.655,0.339-1.047
					l-0.007-0.681c-0.006-0.495-0.218-0.941-0.553-1.253c-0.314-0.292-0.736-0.468-1.199-0.464l0,0
					c-0.306,0.003-0.592,0.086-0.84,0.226c-0.529,0.302-0.883,0.874-0.876,1.525l0.007,0.683c0.005,0.627,0.345,1.173,0.847,1.473
					C89.873,44.677,90.183,44.767,90.514,44.763z"/>
			</g>
		</g>
		<g>
			<g>
				<circle fill="#121F55" cx="90.8" cy="50.769" r="1.646"/>
			</g>
		</g>
		<g>
			<g>
				<path fill="#FFFEFF" d="M90.399,43.861c-0.038,0.215-0.227,0.38-0.453,0.383c-0.226,0.001-0.416-0.16-0.459-0.374L90.399,43.861
					z"/>
			</g>
		</g>
		<g>
			<g>
				<path fill="#F7B75D" d="M88.871,46.518c-0.114,0.31,0.199,0.623,0.528,0.659c0.328,0.036,0.623-0.201,0.659-0.529
					c0.035-0.328-0.453-1.047-0.639-0.773C89.243,46.136,88.966,46.253,88.871,46.518z"/>
			</g>
		</g>
		<g>
			<g>
				<path fill="#F7B75D" d="M91.468,45.542c0.142,0.167,0.231,0.379,0.243,0.614c0,0-0.148,2.703,0.593,3.948l-3.15,0.263
					l0.084-3.741c-0.019-0.396,0.134-0.762,0.392-1.024C89.644,46.204,90.884,45.479,91.468,45.542z"/>
			</g>
		</g>
		<g>
			<g>
				<g>
					<g>
						<path fill="#2143AF" d="M89.175,58.07c-0.317,0.016-0.475,0.313-0.501,0.398c-0.147,0.463-0.095,0.948-0.393,1.734
							c-0.201,0.536-0.404,0.646-0.548,1.081c-0.123,0.375,0.221,0.497,0.561,0.364c0.133-0.051,0.972-0.271,0.986-0.94
							c0.01-0.49-0.047-0.864,0.109-1.284c0.155-0.42,0.288-0.183,0.338-0.055c0.035,0.091,0.148,0.354,0.184,0.436
							c0.016,0.03,0.05,0.043,0.079,0.031h0.002c0.033-0.014,0.049-0.053,0.033-0.084c-0.047-0.096-0.134-0.426-0.166-0.847
							C89.819,58.389,89.464,58.056,89.175,58.07z"/>
					</g>
				</g>
			</g>
			<g>
				<g>
					<g>
						<path fill="#F99AB6" d="M88.842,60.379c0.175-0.391,0.383-1.595,0.28-1.859c-0.121-0.311-0.771-0.335-0.813-0.054
							c-0.068,0.482,0.131,1.322-0.266,2.225C88.092,60.926,88.639,60.836,88.842,60.379z"/>
					</g>
				</g>
			</g>
		</g>
		<g>
			<g>
				<path fill="#121F55" d="M91.324,52.246l-4.237,1.969l0.402-0.956l1.57,5.087c0.095,0.309-0.078,0.637-0.387,0.732
					c-0.295,0.091-0.607-0.064-0.718-0.347l-1.931-4.962c-0.142-0.365,0.024-0.774,0.371-0.941l0.03-0.015l4.214-2.017
					c0.399-0.191,0.879-0.022,1.069,0.377c0.191,0.399,0.022,0.878-0.376,1.069C91.331,52.243,91.325,52.246,91.324,52.246z"/>
			</g>
		</g>
		<g>
			<g>
				<g>
					<g>
						<path fill="#2143AF" d="M86.329,56.471c-0.288-0.134-0.566,0.056-0.63,0.118c-0.347,0.341-0.525,0.794-1.155,1.352
							c-0.429,0.38-0.659,0.382-0.99,0.701c-0.284,0.273-0.035,0.542,0.326,0.583c0.142,0.017,0.985,0.213,1.312-0.373
							c0.237-0.427,0.361-0.785,0.695-1.084c0.332-0.299,0.34-0.027,0.324,0.109c-0.011,0.098-0.034,0.382-0.039,0.472
							c-0.003,0.032,0.021,0.061,0.054,0.064l0.002,0c0.036,0.004,0.067-0.023,0.067-0.059c0.003-0.106,0.081-0.438,0.249-0.826
							C86.751,57.054,86.591,56.593,86.329,56.471z"/>
					</g>
				</g>
			</g>
			<g>
				<g>
					<g>
						<path fill="#F99AB6" d="M84.957,58.358c0.336-0.265,1.082-1.232,1.114-1.515c0.039-0.332-0.526-0.656-0.692-0.427
							c-0.285,0.394-0.501,1.23-1.273,1.843C84.039,58.492,84.563,58.667,84.957,58.358z"/>
					</g>
				</g>
			</g>
		</g>
		<g>
			<g>
				<path fill="#121F55" d="M91.027,52.375l-4.666-0.234l0.801-0.659l-0.984,5.232c-0.06,0.318-0.365,0.527-0.683,0.467
					c-0.303-0.057-0.508-0.339-0.474-0.641l0.606-5.289c0.046-0.39,0.383-0.675,0.769-0.66l0.033,0.001l4.668,0.182
					c0.443,0.017,0.788,0.39,0.771,0.832c-0.017,0.442-0.39,0.788-0.832,0.77C91.034,52.375,91.028,52.375,91.027,52.375z"/>
			</g>
		</g>
		<g>
			<g>
				<path fill="#F99AB6" d="M91.347,50.769c-0.188,0.031-0.388,0.054-0.602,0.068c-0.201,0.013-0.377-0.14-0.39-0.343
					c-0.013-0.202,0.142-0.376,0.343-0.39c0.679-0.043,1.536-0.21,1.755-0.757c0.346-0.863-0.846-2.435-1.291-2.917
					c-0.138-0.149-0.128-0.381,0.021-0.519c0.149-0.137,0.381-0.127,0.519,0.021c0.207,0.226,2.011,2.242,1.433,3.688
					C92.892,50.224,92.292,50.61,91.347,50.769z"/>
			</g>
		</g>
		<g>
			<path fill="#F7B75D" d="M91.898,45.75c-0.146-0.159-0.359-0.232-0.573-0.196c-0.143,0.024-0.274,0.098-0.373,0.21
				c-0.215,0.246-0.19,0.624,0.028,0.866c0.508,0.557,1.49,1.951,1.224,2.618c-0.047,0.115-0.143,0.209-0.264,0.284
				c-0.227,0.139-0.353,0.397-0.302,0.659c0.001,0.004,0.002,0.009,0.002,0.013c0.08,0.417,0.545,0.651,0.912,0.44
				c0.396-0.227,0.675-0.536,0.83-0.923C94.011,48.154,92.258,46.138,91.898,45.75z"/>
		</g>
		<g>
			<g>
				<path fill="#F99AB6" d="M89.182,50.417c0.018,0.217,0.112,0.409,0.255,0.55l1.34-0.11c0.118-0.164,0.18-0.368,0.163-0.585
					c-0.04-0.484-0.466-0.846-0.95-0.807C89.503,49.504,89.141,49.931,89.182,50.417z"/>
			</g>
		</g>
		<g>
			<g>
				<path fill="#F99AB6" d="M84.614,50.581c0.009,0.218,0.097,0.413,0.233,0.561l1.344-0.052c0.124-0.159,0.195-0.361,0.187-0.578
					c-0.02-0.486-0.429-0.866-0.916-0.847C84.976,49.685,84.596,50.094,84.614,50.581z"/>
			</g>
		</g>
		<g>
			<g>
				
					<ellipse transform="matrix(0.9437 0.3309 -0.3309 0.9437 18.8256 -27.7486)" fill="#2143AF" cx="90.921" cy="41.424" rx="1.694" ry="1.063"/>
			</g>
		</g>
		<g>
			<g>
				<path fill="#121F55" d="M91.593,50.921c0-0.122-0.1-0.22-0.222-0.22h-7.99c-0.169,0-0.306,0.099-0.306,0.22
					s0.137,0.22,0.306,0.22h7.99C91.493,51.142,91.593,51.043,91.593,50.921L91.593,50.921z"/>
			</g>
			<g>
				<path fill="#FFFFFF" d="M91.905,50.921c0,0.122-0.106,0.22-0.237,0.22h-3.035c-0.131,0-0.238-0.099-0.238-0.22
					s0.107-0.22,0.238-0.22h3.035C91.799,50.701,91.905,50.8,91.905,50.921z"/>
			</g>
			<g>
				<path fill="#FFFFFF" d="M83.088,46.566v4.03c0,0.18,0.146,0.325,0.325,0.325h5.316c0.179,0,0.325-0.145,0.325-0.325v-4.03
					c0-0.18-0.146-0.325-0.325-0.325h-5.316C83.234,46.241,83.088,46.386,83.088,46.566z"/>
			</g>
			<g>
				<path fill="#2143AF" d="M82.84,46.566v4.03c0,0.18,0.146,0.325,0.324,0.325h5.317c0.181,0,0.325-0.145,0.325-0.325v-4.03
					c0-0.18-0.145-0.325-0.325-0.325h-5.317C82.985,46.241,82.84,46.386,82.84,46.566z"/>
			</g>
			<g>
				<path fill="#FFFFFF" d="M86.699,48.581L86.699,48.581c0-0.189-0.152-0.343-0.343-0.343h-1.067c-0.19,0-0.343,0.154-0.343,0.343
					l0,0c0,0.189,0.152,0.343,0.343,0.343h1.067C86.547,48.923,86.699,48.77,86.699,48.581z"/>
			</g>
		</g>
	</g>
	<g id="XMLID_316_">
		<g id="XMLID_322_">
			<g>
				<g>
					<g>
						<path fill-rule="evenodd" clip-rule="evenodd" fill="#B9B8F1" d="M99.161,39.569c1.43,0,2.59,1,2.59,2.233
							c0,0.741-0.419,1.397-1.062,1.804l0.364,0.921l-0.894-0.664c-0.308,0.111-0.645,0.173-0.999,0.173
							c-1.43,0-2.589-1-2.589-2.234C96.572,40.569,97.731,39.569,99.161,39.569z"/>
					</g>
				</g>
			</g>
		</g>
		<g id="XMLID_317_">
			<g id="XMLID_321_">
				<g>
					<g>
						<g>
							<circle fill-rule="evenodd" clip-rule="evenodd" fill="#FFFFFF" cx="100.294" cy="41.846" r="0.351"/>
						</g>
					</g>
				</g>
			</g>
			<g id="XMLID_320_">
				<g>
					<g>
						<g>
							<circle fill-rule="evenodd" clip-rule="evenodd" fill="#FFFFFF" cx="99.161" cy="41.846" r="0.351"/>
						</g>
					</g>
				</g>
			</g>
			<g id="XMLID_319_">
				<g>
					<g>
						<g>
							<circle fill-rule="evenodd" clip-rule="evenodd" fill="#FFFFFF" cx="98.029" cy="41.846" r="0.351"/>
						</g>
					</g>
				</g>
			</g>
		</g>
	</g>
	<g>
		<g>
			<path fill="#FFFFFF" d="M96.786,36.917c-0.488,0-0.978-0.173-1.351-0.519c-0.564-0.525-1.483-0.525-2.048,0
				c-0.097,0.089-0.249,0.084-0.339-0.012c-0.091-0.097-0.085-0.249,0.013-0.338c0.745-0.692,1.956-0.692,2.701,0
				c0.565,0.525,1.483,0.524,2.049,0c0.744-0.692,1.956-0.692,2.701,0c0.564,0.525,1.482,0.524,2.049,0
				c0.744-0.692,1.956-0.692,2.7,0c0.098,0.09,0.104,0.241,0.012,0.338c-0.089,0.097-0.241,0.102-0.338,0.012
				c-0.564-0.525-1.483-0.525-2.048,0c-0.744,0.692-1.958,0.693-2.702,0c-0.564-0.525-1.484-0.525-2.048,0
				C97.766,36.744,97.276,36.917,96.786,36.917z"/>
		</g>
	</g>
	<g>
		<g>
			<path fill="#FFFFFF" d="M31.507,42.743c-0.489,0-0.978-0.173-1.35-0.519c-0.564-0.525-1.484-0.525-2.049,0
				c-0.097,0.09-0.248,0.084-0.339-0.012c-0.089-0.097-0.084-0.249,0.013-0.338c0.744-0.692,1.956-0.692,2.701,0
				c0.564,0.524,1.484,0.524,2.049,0c0.745-0.692,1.957-0.692,2.701,0c0.565,0.524,1.484,0.524,2.048,0
				c0.745-0.692,1.958-0.692,2.701,0c0.098,0.089,0.103,0.242,0.013,0.338c-0.09,0.096-0.242,0.102-0.339,0.012
				c-0.564-0.525-1.483-0.525-2.048,0c-0.744,0.692-1.957,0.692-2.701,0c-0.565-0.525-1.484-0.525-2.049,0
				C32.486,42.57,31.997,42.743,31.507,42.743z"/>
		</g>
	</g>
	<g>
		<g>
			<path fill="#FFFFFF" d="M51.742,28.583c-0.489,0-0.978-0.173-1.35-0.52c-0.565-0.524-1.484-0.524-2.049,0
				c-0.098,0.09-0.248,0.085-0.339-0.012c-0.09-0.097-0.084-0.248,0.013-0.339c0.744-0.692,1.956-0.692,2.7,0
				c0.565,0.525,1.485,0.524,2.049,0c0.744-0.692,1.956-0.692,2.702,0c0.564,0.525,1.483,0.524,2.049,0
				c0.744-0.692,1.956-0.692,2.701,0c0.096,0.091,0.103,0.242,0.011,0.339c-0.09,0.097-0.242,0.102-0.338,0.012
				c-0.565-0.524-1.483-0.524-2.048,0c-0.745,0.692-1.957,0.693-2.701,0c-0.565-0.524-1.484-0.524-2.049,0
				C52.72,28.41,52.231,28.583,51.742,28.583z"/>
		</g>
	</g>
	<g>
		<g>
			<g>
				<path fill="#B9B8F1" d="M72.668,35.384l1.552,2.229c0.009,0.071,0.046,0.137,0.109,0.182c0.052,0.036,0.111,0.049,0.17,0.046
					c0.059,0.003,0.116-0.01,0.169-0.046c0.063-0.045,0.101-0.111,0.11-0.182l1.549-2.229c0.084-0.122,0.056-0.287-0.066-0.37
					c-0.12-0.084-0.285-0.054-0.368,0.066l-1.394,2.004l-1.395-2.004c-0.082-0.12-0.248-0.15-0.369-0.066
					C72.616,35.098,72.586,35.263,72.668,35.384z"/>
			</g>
		</g>
		<g>
			<g>
				<path fill="#B9B8F1" d="M72.668,33l1.552,2.229c0.009,0.07,0.046,0.138,0.109,0.181c0.052,0.037,0.111,0.05,0.17,0.047
					c0.059,0.003,0.116-0.01,0.169-0.047c0.063-0.043,0.101-0.111,0.11-0.181L76.327,33c0.084-0.121,0.056-0.287-0.066-0.37
					c-0.12-0.085-0.285-0.055-0.368,0.065l-1.394,2.006l-1.395-2.006c-0.082-0.121-0.248-0.15-0.369-0.065
					C72.616,32.713,72.586,32.878,72.668,33z"/>
			</g>
		</g>
		<g>
			<g>
				<path fill="#B9B8F1" d="M72.566,30.616l1.55,2.228c0.01,0.071,0.048,0.138,0.11,0.182c0.052,0.036,0.111,0.049,0.17,0.045
					c0.058,0.004,0.117-0.009,0.169-0.045c0.063-0.043,0.101-0.11,0.11-0.182l1.551-2.228c0.083-0.123,0.053-0.288-0.066-0.372
					c-0.121-0.083-0.288-0.053-0.371,0.068l-1.393,2.004l-1.394-2.004c-0.084-0.121-0.249-0.151-0.369-0.068
					C72.513,30.328,72.484,30.493,72.566,30.616z"/>
			</g>
		</g>
		<g>
			<g>
				<path fill="#B9B8F1" d="M72.566,28.229l1.55,2.23c0.01,0.07,0.048,0.137,0.11,0.181c0.052,0.035,0.111,0.049,0.17,0.045
					c0.058,0.004,0.117-0.01,0.169-0.045c0.063-0.044,0.101-0.111,0.11-0.181l1.551-2.23c0.083-0.12,0.053-0.286-0.066-0.37
					c-0.121-0.083-0.288-0.054-0.371,0.066l-1.393,2.005l-1.394-2.005c-0.084-0.12-0.249-0.15-0.369-0.066
					C72.513,27.944,72.484,28.109,72.566,28.229z"/>
			</g>
		</g>
	</g>
	<g>
		<g>
			<g>
				<path fill="#B9B8F1" d="M63.62,32.686l1.106,1.59c0.006,0.051,0.034,0.098,0.079,0.129c0.036,0.026,0.079,0.036,0.121,0.033
					c0.041,0.003,0.083-0.007,0.12-0.033c0.045-0.031,0.073-0.078,0.079-0.129l1.105-1.59c0.06-0.086,0.039-0.205-0.048-0.264
					c-0.086-0.06-0.204-0.039-0.263,0.048l-0.994,1.429L63.93,32.47c-0.059-0.086-0.177-0.107-0.263-0.048
					C63.582,32.481,63.56,32.6,63.62,32.686z"/>
			</g>
		</g>
		<g>
			<g>
				<path fill="#B9B8F1" d="M63.62,30.984l1.106,1.59c0.006,0.05,0.034,0.098,0.079,0.129c0.036,0.026,0.079,0.036,0.121,0.033
					c0.041,0.003,0.083-0.006,0.12-0.033c0.045-0.032,0.073-0.08,0.079-0.129l1.105-1.59c0.06-0.086,0.039-0.204-0.048-0.264
					c-0.086-0.061-0.204-0.039-0.263,0.047l-0.994,1.431l-0.995-1.431c-0.059-0.086-0.177-0.108-0.263-0.047
					C63.582,30.78,63.56,30.898,63.62,30.984z"/>
			</g>
		</g>
		<g>
			<g>
				<path fill="#B9B8F1" d="M63.547,29.284l1.105,1.589c0.007,0.051,0.035,0.099,0.079,0.13c0.037,0.026,0.08,0.036,0.122,0.033
					c0.041,0.002,0.083-0.007,0.12-0.033c0.045-0.031,0.072-0.079,0.079-0.13l1.104-1.589c0.061-0.087,0.04-0.205-0.047-0.264
					c-0.085-0.06-0.205-0.039-0.264,0.047l-0.993,1.43l-0.995-1.43c-0.06-0.086-0.177-0.107-0.264-0.047
					C63.508,29.079,63.487,29.197,63.547,29.284z"/>
			</g>
		</g>
		<g>
			<g>
				<path fill="#B9B8F1" d="M63.547,27.582l1.105,1.59c0.007,0.051,0.035,0.098,0.079,0.129c0.037,0.026,0.08,0.035,0.122,0.032
					c0.041,0.003,0.083-0.006,0.12-0.032c0.045-0.031,0.072-0.078,0.079-0.129l1.104-1.59c0.061-0.086,0.04-0.204-0.047-0.264
					c-0.085-0.06-0.205-0.038-0.264,0.048l-0.993,1.43l-0.995-1.43c-0.06-0.086-0.177-0.108-0.264-0.048
					C63.508,27.378,63.487,27.496,63.547,27.582z"/>
			</g>
		</g>
	</g>
	<g>
		<g>
			<g>
				<path fill="#F99AB6" d="M28.413,66.993c0.069-0.183,1.686-4.502,1.686-7.147h-0.96c0,2.469-1.607,6.766-1.623,6.809
					L28.413,66.993z"/>
			</g>
		</g>
		<g>
			<g>
				<path fill="#F99AB6" d="M32.625,63.442l1.608-2.693c0.067-0.113,0.085-0.249,0.05-0.375c-0.036-0.127-0.122-0.234-0.239-0.295
					l-2.582-1.358l-0.446,0.85l2.133,1.122l-1.348,2.26L32.625,63.442z"/>
			</g>
		</g>
		<g>
			<g>
				<path fill="#121F55" d="M27.968,50.139c0,0,0.633-0.764,0.919-1.01c0.525-0.451,0.957,0.047,0.957,0.047
					c2.611-0.401,3.101,3.327,1.913,4.256c-0.964,0.752-1.768,0.234-1.768,0.234s-0.544,0.405-1.376,0.533
					c-0.515,0.079-1.137-0.259-1.137-0.259s-0.728,0.521-1.287-0.25c-0.559-0.77,0.267-1.587,0.707-1.594
					c0,0-0.525-0.633,0.195-1.052C27.374,50.877,27.968,50.139,27.968,50.139z"/>
			</g>
		</g>
		<g>
			<g>
				<path fill="#F99AB6" d="M31.196,54.771c0.176-0.089,0.318-0.356,0.107-0.6c-0.206-0.24-0.526-0.373-0.868-0.386l-0.088-0.003
					c-0.303-0.011-0.578,0.12-0.761,0.334C29.732,54.567,30.721,54.953,31.196,54.771z"/>
			</g>
		</g>
		<g>
			<g>
				<path fill="#F99AB6" d="M30.667,53.097l0.008,0.387l0.015,0.728l-0.558,0.01l-0.017-0.929l-0.008-0.36
					C30.275,53.045,30.467,53.105,30.667,53.097z"/>
			</g>
		</g>
		<g>
			<g>
				<g>
					<path fill="#F99AB6" d="M30.667,53.097l0.008,0.387c-0.197-0.029-0.438-0.117-0.562-0.263l-0.006-0.289
						C30.275,53.045,30.467,53.105,30.667,53.097z"/>
				</g>
			</g>
		</g>
		<g>
			<g>
				<path fill="#F99AB6" d="M30.979,53.096L30.979,53.096c-0.472,0.238-1.005,0.223-1.445,0.005
					c-0.305-0.15-0.565-0.397-0.729-0.724l-0.287-0.569c-0.208-0.414-0.222-0.874-0.076-1.277c0.135-0.376,0.41-0.704,0.795-0.898
					l0,0c0.255-0.128,0.527-0.183,0.794-0.171c0.568,0.024,1.107,0.346,1.38,0.891l0.287,0.569c0.264,0.523,0.215,1.122-0.073,1.585
					C31.474,52.75,31.255,52.958,30.979,53.096z"/>
			</g>
		</g>
		<g>
			<g>
				<path fill="#121F55" d="M29.191,51.42c1.163,0.188,1.291-1.064,1.224-1.58c-0.139-1.079-1.548-0.87-2.04-0.334
					c-0.306,0.333-0.848,1.232-0.613,2.351c0.234,1.118,1.375,1.814,1.375,1.814c1.255-0.92-0.042-1.801-0.042-1.801L29.191,51.42z"
					/>
			</g>
		</g>
		<g>
			<g>
				<circle fill="#8EDEF2" cx="30.21" cy="58.999" r="1.537"/>
			</g>
		</g>
		<g>
			<g>
				<path fill="#FFFEFF" d="M30.852,52.214c0.123,0.162,0.349,0.219,0.539,0.124c0.189-0.095,0.278-0.31,0.221-0.506L30.852,52.214z
					"/>
			</g>
		</g>
		<g>
			<g>
				<path fill="#8EDEF2" d="M32.842,59.438c-2.031,1.761-4.549,2.625-4.549,2.625s-0.43-2.578,0.522-3.694
					c0.477-0.56,2.933,0.254,2.933,0.254L32.842,59.438z"/>
			</g>
		</g>
		<g>
			<g>
				<path fill="#8EDEF2" d="M32.012,55.028c0.106,0.29-0.187,0.582-0.494,0.615c-0.306,0.034-0.583-0.188-0.615-0.494
					c-0.034-0.306,0.422-0.978,0.595-0.721C31.663,54.671,31.923,54.78,32.012,55.028z"/>
			</g>
		</g>
		<g>
			<g>
				<path fill="#8EDEF2" d="M29.586,54.117c-0.133,0.156-0.217,0.354-0.227,0.572c0,0,0.138,2.525-0.555,3.688
					c-0.298,0.501,2.952,0.486,2.952,0.486l-0.087-3.734c0.018-0.372-0.125-0.711-0.366-0.958
					C31.291,54.735,30.132,54.057,29.586,54.117z"/>
			</g>
		</g>
		<g>
			<g>
				<path fill="#8EDEF2" d="M30.075,55.038c0.578,0,4.468-0.184,6.633-4.98l-0.875-0.395c-2.018,4.472-5.636,4.419-5.791,4.415
					l-0.033,0.96C30.019,55.038,30.041,55.038,30.075,55.038z"/>
			</g>
		</g>
		<g>
			<g>
				<path fill="#F99AB6" d="M35.859,48.894c0.172-0.107,0.369-0.141,0.554-0.113l0.661,1.069c-0.059,0.179-0.177,0.339-0.351,0.445
					c-0.388,0.239-0.895,0.119-1.134-0.268C35.352,49.64,35.471,49.133,35.859,48.894z"/>
			</g>
		</g>
		<g>
			<g>
				<g>
					<circle fill="#121F55" cx="31.831" cy="63.525" r="0.625"/>
				</g>
			</g>
			<g>
				<g>
					<path fill="#121F55" d="M33.936,64.804l-2.272-0.675c-0.239-0.073-0.376-0.323-0.305-0.564l0,0
						c0.071-0.239,0.539-0.672,0.779-0.601l2.005,1.303c0.221,0.143,0.165,0.496-0.095,0.542
						C34.009,64.813,33.971,64.813,33.936,64.804z"/>
				</g>
			</g>
		</g>
		<g>
			<g>
				<g>
					<circle fill="#121F55" cx="27.87" cy="67.186" r="0.626"/>
				</g>
			</g>
			<g>
				<g>
					<path fill="#121F55" d="M30.332,67.209l-2.298,0.58c-0.242,0.062-0.489-0.085-0.551-0.329l0,0
						c-0.062-0.242,0.121-0.853,0.364-0.913l2.389,0.095c0.263,0.01,0.395,0.342,0.195,0.514C30.4,67.181,30.367,67.2,30.332,67.209
						z"/>
				</g>
			</g>
		</g>
		<g>
			<g>
				<path fill="#8EDEF2" d="M30.729,58.554c0.245,0,0.51-0.023,0.79-0.083l-0.03-0.134c-1.312,0.282-2.333-0.279-2.343-0.285
					l-0.067,0.119C29.115,58.19,29.774,58.554,30.729,58.554z"/>
			</g>
		</g>
	</g>
	<g>
		<g>
			<g>
				<g>
					<path fill="#2143AF" d="M52.184,51.087c-0.184,0-0.365-0.084-0.481-0.244l-2.062-2.821c-0.16-0.219-0.151-0.52,0.021-0.729
						l2.693-3.271c0.209-0.253,0.584-0.29,0.838-0.081c0.253,0.209,0.29,0.584,0.082,0.838l-2.4,2.914l1.789,2.448
						c0.194,0.265,0.136,0.638-0.129,0.832C52.428,51.05,52.305,51.087,52.184,51.087z"/>
				</g>
			</g>
		</g>
		<g>
			<g>
				<g>
					<path fill="#2143AF" d="M56.139,51.082c-0.122,0-0.246-0.038-0.351-0.114c-0.266-0.195-0.323-0.567-0.129-0.832l1.796-2.455
						l-2.39-2.906c-0.209-0.253-0.172-0.629,0.081-0.837c0.254-0.209,0.63-0.173,0.838,0.081l2.684,3.263
						c0.173,0.211,0.181,0.51,0.021,0.73l-2.069,2.826C56.503,50.998,56.323,51.082,56.139,51.082z"/>
				</g>
			</g>
		</g>
		<g>
			<g>
				<g>
					<circle fill="#566CD3" cx="54.222" cy="40.654" r="1.718"/>
				</g>
			</g>
		</g>
		<g>
			<g>
				<g>
					<polygon fill="#F99AB6" points="54.851,42.486 54.848,44.12 54.844,45.188 53.592,45.185 53.654,42.573 53.673,41.83 					"/>
				</g>
			</g>
		</g>
		<g>
			<g>
				<g>
					<path fill="#2143AF" d="M52.359,45.046c0.004-0.51,0.445-1.003,0.901-1.24c0.683-0.355,1.737-0.108,2.072,0.091
						c0.572,0.341,0.913,1.031,0.872,1.741l0.041,3.81h-4.046C52.199,49.448,52.35,46.205,52.359,45.046z"/>
				</g>
			</g>
		</g>
		<g>
			<path fill="#E5E9FF" d="M54.282,46.195c0.297-0.914,0.624-1.551,0.917-2.364c-0.9-0.339-1.771-0.149-1.956,0
				c0.293,0.813,0.62,1.451,0.917,2.364c0.015,0.066,0.06,0.171,0.061,0.17c0.001,0.001,0.002,0.005,0.003,0.007
				C54.228,46.361,54.268,46.261,54.282,46.195z"/>
		</g>
		<g>
			<polygon fill="#2747B3" points="54.33,43.896 54.222,43.896 54.114,43.896 53.911,45.13 54.054,45.883 54.222,46.365 
				54.389,45.883 54.532,45.13 			"/>
		</g>
		<g>
			<g>
				<g>
					<path fill="#F99AB6" d="M54.547,39.341h-0.651c-0.576,0-1.115,0.471-1.043,1.043c0.053,0.416,0,0.728,0,1.345
						c0,0.518,0.606,1.521,1.125,1.521h0.489c0.517,0,1.123-1.003,1.123-1.521c0-0.617-0.052-0.929,0-1.345
						C55.662,39.813,55.123,39.341,54.547,39.341z"/>
				</g>
			</g>
		</g>
		<g>
			<g>
				<g>
					<path fill="#FFFEFF" d="M53.694,42.373c0.047,0.25,0.265,0.438,0.528,0.438s0.481-0.188,0.528-0.438H53.694z"/>
				</g>
			</g>
		</g>
		<g>
			<g>
				<g>
					<path fill="#121F55" d="M54.872,53.092h-1.3c-0.934,0-1.635-0.855-1.452-1.771l0.079-1.874h4.046l0.078,1.874
						C56.506,52.237,55.806,53.092,54.872,53.092z"/>
				</g>
			</g>
		</g>
		<g>
			<g>
				<g>
					<g>
						<path fill="#2747B3" d="M56.877,51.797H51.75c-0.222,0-0.403-0.181-0.403-0.403v-2.866c0-0.223,0.181-0.402,0.403-0.402h5.128
							c0.222,0,0.402,0.18,0.402,0.402v2.866C57.28,51.616,57.1,51.797,56.877,51.797z"/>
					</g>
				</g>
			</g>
			<g>
				<g>
					<g>
						<path fill="#FFFFFF" d="M56.877,51.966H51.75c-0.222,0-0.403-0.179-0.403-0.402v-2.867c0-0.222,0.181-0.401,0.403-0.401h5.128
							c0.222,0,0.402,0.18,0.402,0.401v2.867C57.28,51.787,57.1,51.966,56.877,51.966z"/>
					</g>
				</g>
			</g>
			<g>
				<g>
					<g>
						<path fill="#2747B3" d="M54.905,50.436h-1.184c-0.168,0-0.303-0.135-0.303-0.302v-0.006c0-0.167,0.135-0.303,0.303-0.303
							h1.184c0.167,0,0.303,0.136,0.303,0.303v0.006C55.208,50.301,55.073,50.436,54.905,50.436z"/>
					</g>
				</g>
			</g>
		</g>
		<g>
			<path fill="#B8B9F1" d="M54.382,43.966c-0.062,0.057-0.279,0.051-0.338-0.009c-0.055-0.057-0.074-0.315-0.074-0.315l0.504,0.015
				C54.474,43.656,54.44,43.913,54.382,43.966z"/>
		</g>
		<g>
			<polygon fill="#FFFFFF" points="53.688,44.286 53.262,43.773 53.616,43.316 54.222,43.645 			"/>
		</g>
		<g>
			<polygon fill="#FFFFFF" points="54.755,44.286 55.181,43.773 54.827,43.316 54.222,43.645 			"/>
		</g>
		<g>
			<g>
				<g>
					<g>
						<path fill="#2143AF" d="M54.929,57.532l0.349-1.308l-0.026,0c-0.079-0.003-0.137-0.078-0.119-0.155
							c0.013-0.059,0.067-0.101,0.128-0.098l0.083,0.003l0.039-0.147l-0.039-0.001c-0.079-0.003-0.137-0.078-0.119-0.155
							c0.015-0.06,0.067-0.1,0.128-0.098l0.097,0.003l0.219-0.822c0.01-0.016,0.022-0.032,0.037-0.045
							c0.013-0.032,0.028-0.063,0.047-0.092c0.216-0.355,0.679-0.468,1.034-0.25c0.355,0.215,0.467,0.679,0.251,1.034
							c-0.001,0.002-0.004,0.004-0.005,0.007c-0.001,0.001-0.002,0.002-0.003,0.004l-1.483,2.435
							c-0.024,0.039-0.057,0.069-0.098,0.094C55.182,58.108,54.847,57.839,54.929,57.532z"/>
					</g>
				</g>
			</g>
			<g id="_x38_._Right_shoe_236_">
				<g>
					<g>
						<g>
							<circle fill="#566CD3" cx="56.216" cy="54.966" r="0.753"/>
						</g>
					</g>
				</g>
				<g>
					<g>
						<g>
							<path fill="#2143AF" d="M55.368,57.803l1.484-2.434c0.157-0.258,0.076-0.594-0.182-0.75l0,0
								c-0.257-0.157-1.024-0.165-1.18,0.093l-0.74,2.778c-0.082,0.307,0.253,0.578,0.521,0.408
								C55.311,57.874,55.344,57.842,55.368,57.803z"/>
						</g>
					</g>
				</g>
				<g>
					<g>
						<g>
							<path fill="#FFFFFF" d="M55.584,55.697L55.584,55.697c0.018-0.078-0.04-0.152-0.119-0.155l-0.292-0.011
								c-0.061-0.002-0.115,0.04-0.128,0.098l0,0c-0.019,0.078,0.039,0.152,0.119,0.155l0.291,0.011
								C55.517,55.797,55.57,55.755,55.584,55.697z"/>
						</g>
					</g>
				</g>
				<g>
					<g>
						<g>
							<path fill="#FFFFFF" d="M55.492,56.096L55.492,56.096c0.018-0.078-0.04-0.153-0.119-0.156l-0.291-0.01
								c-0.061-0.002-0.115,0.039-0.129,0.098l0,0c-0.017,0.078,0.039,0.152,0.119,0.155l0.291,0.012
								C55.424,56.196,55.478,56.154,55.492,56.096z"/>
						</g>
					</g>
				</g>
			</g>
		</g>
		<g>
			<g>
				<g>
					<path fill="#121F55" d="M52.214,50.963l4.509,3.233l-1.418,1.216l-4.059-3.1c-0.369-0.264-0.454-0.778-0.189-1.147l0.01-0.013
						C51.332,50.784,51.846,50.698,52.214,50.963z"/>
				</g>
			</g>
		</g>
		<g>
			<g>
				<g>
					<g>
						<path fill="#2143AF" d="M54.624,59.636l0.09-1.35l0.024,0.007c0.077,0.023,0.154-0.029,0.162-0.108
							c0.006-0.061-0.032-0.117-0.09-0.135l-0.08-0.023l0.01-0.152l0.038,0.012c0.076,0.023,0.154-0.03,0.162-0.109
							c0.006-0.061-0.032-0.117-0.09-0.134l-0.093-0.027l0.057-0.849c-0.004-0.02-0.011-0.038-0.021-0.056
							c-0.002-0.034-0.007-0.068-0.014-0.102c-0.092-0.405-0.494-0.661-0.9-0.569c-0.405,0.091-0.66,0.494-0.569,0.899
							c0,0.003,0.001,0.005,0.002,0.008c0,0,0,0.003,0,0.004l0.625,2.782c0.009,0.044,0.031,0.084,0.061,0.121
							C54.199,60.101,54.603,59.953,54.624,59.636z"/>
					</g>
				</g>
			</g>
			<g id="_x38_._Right_shoe_235_">
				<g>
					<g>
						<g>
							<circle fill="#2143AF" cx="54.229" cy="56.792" r="0.753"/>
						</g>
					</g>
				</g>
				<g>
					<g>
						<g>
							<path fill="#2143AF" d="M54.121,59.752l-0.624-2.781c-0.066-0.295,0.119-0.587,0.413-0.653l0,0
								c0.294-0.066,1.022,0.173,1.088,0.467l-0.191,2.869c-0.021,0.316-0.425,0.464-0.625,0.219
								C54.153,59.837,54.131,59.797,54.121,59.752z"/>
						</g>
					</g>
				</g>
				<g>
					<g>
						<g>
							<path fill="#FFFFFF" d="M54.592,57.688L54.592,57.688c0.008-0.079,0.086-0.131,0.162-0.109l0.28,0.083
								c0.058,0.017,0.097,0.074,0.09,0.134l0,0c-0.008,0.079-0.085,0.131-0.162,0.109l-0.28-0.084
								C54.624,57.805,54.586,57.748,54.592,57.688z"/>
						</g>
					</g>
				</g>
				<g>
					<g>
						<g>
							<path fill="#FFFFFF" d="M54.552,58.095L54.552,58.095c0.007-0.079,0.086-0.131,0.163-0.109l0.279,0.083
								c0.059,0.017,0.096,0.074,0.09,0.134l0,0c-0.008,0.08-0.086,0.132-0.163,0.109l-0.279-0.084
								C54.583,58.211,54.546,58.155,54.552,58.095z"/>
						</g>
					</g>
				</g>
			</g>
		</g>
		<g>
			<g>
				<g>
					<path fill="#121F55" d="M55.48,51.675l-2.136,5.121l1.716,0.206l1.954-4.688c0.175-0.419-0.023-0.901-0.442-1.076l-0.016-0.006
						C56.138,51.058,55.655,51.256,55.48,51.675z"/>
				</g>
			</g>
		</g>
		<g>
			<g>
				<g>
					<path fill="#566CD3" d="M54.143,40.055c0.874-0.497,1.481-0.015,1.743,0.506c-0.137-0.804-0.832-1.417-1.674-1.417
						c-0.807,0-1.479,0.562-1.655,1.314C53.107,40.611,53.6,40.364,54.143,40.055z"/>
				</g>
			</g>
		</g>
	</g>
	<g>
		<path fill="#B9B8F1" d="M122.196,90.728H22.828c-0.317,0-0.575-0.258-0.575-0.575s0.258-0.574,0.575-0.574h99.369
			c0.318,0,0.574,0.257,0.574,0.574S122.515,90.728,122.196,90.728z"/>
	</g>
	<g>
		<g>
			<path fill="#B9B8F1" d="M99.513,94.807H84.187c-0.318,0-0.575-0.257-0.575-0.574c0-0.318,0.257-0.574,0.575-0.574h15.326
				c0.316,0,0.575,0.256,0.575,0.574C100.088,94.55,99.829,94.807,99.513,94.807z"/>
		</g>
		<g>
			<path fill="#B9B8F1" d="M79.588,94.807h-3.831c-0.318,0-0.575-0.257-0.575-0.574c0-0.318,0.257-0.574,0.575-0.574h3.831
				c0.318,0,0.575,0.256,0.575,0.574C80.163,94.55,79.906,94.807,79.588,94.807z"/>
		</g>
	</g>
	<g>
		<rect x="35.902" y="31.102" fill="#FFFFFF" width="1.916" height="1.917"/>
	</g>
	<g>
		<rect x="45.864" y="36.467" fill="#FFFFFF" width="1.916" height="1.916"/>
	</g>
	<g>
		<rect x="55.826" y="31.102" fill="#FFFFFF" width="1.916" height="1.917"/>
	</g>
	<g>
		<g>
			<path fill="#2143AF" d="M49.409,41.694c-0.173-1.126-1.853-3.142-2.528-3.895v3.821c0.114,0.077,0.231,0.201,0.231,0.351
				c0,0.243-0.197,0.44-0.441,0.44c-0.243,0-0.402-0.197-0.402-0.44c0-0.147,0.115-0.27,0.226-0.348v-3.81
				c-0.626,0.688-2.593,2.901-2.593,4.101c0,1.432,1.191,2.534,1.191,2.534h3.125C48.218,44.448,49.629,43.126,49.409,41.694z"/>
		</g>
	</g>
	<g>
		<g>
			<g>
				<g>
					<path fill="#2143AF" d="M90.645,92.086c-0.194,0-0.388-0.09-0.513-0.261l-2.2-3.012c-0.171-0.232-0.162-0.554,0.022-0.778
						l2.875-3.492c0.224-0.271,0.625-0.309,0.896-0.087c0.271,0.224,0.31,0.624,0.086,0.896l-2.562,3.11l1.91,2.614
						c0.206,0.283,0.145,0.681-0.139,0.888C90.907,92.047,90.775,92.086,90.645,92.086z"/>
				</g>
			</g>
		</g>
		<g>
			<g>
				<g>
					<path fill="#2143AF" d="M94.869,92.08c-0.131,0-0.263-0.04-0.376-0.123c-0.282-0.207-0.344-0.604-0.137-0.888l1.918-2.619
						l-2.552-3.103c-0.224-0.271-0.185-0.673,0.086-0.896c0.272-0.224,0.672-0.184,0.896,0.088l2.864,3.483
						c0.185,0.225,0.194,0.544,0.022,0.779l-2.21,3.018C95.258,91.99,95.064,92.08,94.869,92.08z"/>
				</g>
			</g>
		</g>
		<g>
			<g>
				<g>
					<path fill="#121F55" d="M91.081,80.65c0,1.014,0.82,1.833,1.833,1.833s1.834-0.819,1.834-1.833
						c0-1.013-0.821-1.473-1.834-1.473S91.081,79.638,91.081,80.65z"/>
				</g>
			</g>
		</g>
		<g>
			<g>
				<g>
					<polygon fill="#F99AB6" points="92.241,82.903 92.245,84.647 92.251,85.787 93.587,85.784 93.52,82.997 93.5,82.203 					"/>
				</g>
			</g>
		</g>
		<g>
			<g>
				<g>
					<path fill="#2143AF" d="M90.834,85.637c0.004-0.545,0.474-1.07,0.962-1.324c0.729-0.38,1.853-0.116,2.212,0.098
						c0.61,0.363,0.974,1.101,0.931,1.858l0.043,4.067h-4.319C90.662,90.336,90.823,86.874,90.834,85.637z"/>
				</g>
			</g>
		</g>
		<g>
			<g>
				<g>
					<path fill="#F99AB6" d="M93.778,84.308c-0.531-0.225-1.281-0.299-1.888-0.039l0.449,0.449c0.284,0.284,0.744,0.284,1.028,0
						C93.505,84.581,93.642,84.444,93.778,84.308z"/>
				</g>
			</g>
		</g>
		<g>
			<g>
				<g>
					<path fill="#F99AB6" d="M92.565,79.601h0.697c0.614,0,1.189,0.504,1.112,1.114c-0.057,0.444,0,0.777,0,1.436
						c0,0.555-0.647,1.626-1.2,1.626h-0.521c-0.553,0-1.199-1.071-1.199-1.626c0-0.658,0.055-0.991,0-1.436
						C91.376,80.104,91.952,79.601,92.565,79.601z"/>
				</g>
			</g>
		</g>
		<g>
			<g>
				<g>
					<path fill="#FFFEFF" d="M93.478,82.782c-0.05,0.267-0.282,0.469-0.563,0.469s-0.513-0.202-0.563-0.469H93.478z"/>
				</g>
			</g>
		</g>
		<g>
			<g>
				<g>
					<path fill="#566CD3" d="M93.515,94.226h-1.387c-0.996,0-1.745-0.912-1.55-1.89l0.084-2h4.319l0.083,2
						C95.261,93.313,94.512,94.226,93.515,94.226z"/>
				</g>
			</g>
		</g>
		<g>
			<g>
				<g>
					<path fill="#566CD3" d="M86.501,91.994l5.898-0.563l0.167,1.767L86.67,93.76c-0.482,0.046-0.912-0.308-0.956-0.791
						l-0.002-0.018C85.665,92.469,86.019,92.04,86.501,91.994z"/>
				</g>
			</g>
		</g>
		<g>
			<g>
				<g>
					<path fill="#566CD3" d="M98.273,91.994l-5.896-0.563l-0.169,1.767l5.896,0.563c0.483,0.046,0.912-0.308,0.958-0.791
						l0.003-0.018C99.11,92.469,98.756,92.04,98.273,91.994z"/>
				</g>
			</g>
		</g>
		<g>
			<g>
				<g>
					<path fill="#FFFFFF" d="M95.13,93.193h-4.616c-0.237,0-0.43-0.192-0.43-0.431v-3.061c0-0.235,0.192-0.429,0.43-0.429h4.616
						c0.236,0,0.429,0.193,0.429,0.429v3.061C95.559,93.001,95.366,93.193,95.13,93.193z"/>
				</g>
			</g>
		</g>
		<g>
			<g>
				<g>
					<path fill="#B9B8F1" d="M95.13,93.374h-4.616c-0.237,0-0.43-0.191-0.43-0.43v-3.061c0-0.236,0.192-0.429,0.43-0.429h4.616
						c0.236,0,0.429,0.192,0.429,0.429v3.061C95.559,93.183,95.366,93.374,95.13,93.374z"/>
				</g>
			</g>
		</g>
		<g>
			<g>
				<g>
					<path fill="#FFFFFF" d="M93.454,91.741h-1.265c-0.179,0-0.323-0.145-0.323-0.324v-0.005c0-0.18,0.145-0.324,0.323-0.324h1.265
						c0.178,0,0.323,0.145,0.323,0.324v0.005C93.777,91.597,93.632,91.741,93.454,91.741z"/>
				</g>
			</g>
		</g>
		<g>
			<g>
				<g>
					<g>
						<path fill="#FFFFFF" d="M90.497,94.995l1.719-0.104l-0.006,0.033c-0.017,0.1,0.063,0.188,0.163,0.186
							c0.078-0.002,0.143-0.058,0.155-0.134l0.018-0.104l0.192-0.012l-0.007,0.05c-0.018,0.1,0.062,0.189,0.162,0.187
							c0.077-0.002,0.143-0.059,0.155-0.134l0.02-0.123l1.082-0.064c0.021-0.009,0.044-0.021,0.066-0.034
							c0.042-0.01,0.084-0.02,0.126-0.036c0.497-0.179,0.754-0.729,0.574-1.225c-0.18-0.498-0.728-0.755-1.227-0.576
							c-0.003,0.002-0.006,0.004-0.01,0.005c-0.002,0-0.004,0-0.006,0.001l-3.411,1.235c-0.054,0.02-0.102,0.053-0.143,0.096
							C89.842,94.532,90.094,95.019,90.497,94.995z"/>
					</g>
				</g>
			</g>
			<g id="_x38_._Right_shoe_234_">
				<g>
					<g>
						<g>
							<circle fill="#F7B75D" cx="94.023" cy="94.038" r="0.958"/>
						</g>
					</g>
				</g>
				<g>
					<g>
						<g>
							<path fill="#F7B75D" d="M90.27,94.378l3.412-1.234c0.36-0.131,0.758,0.058,0.889,0.417l0,0
								c0.13,0.361-0.055,1.317-0.414,1.448l-3.653,0.22c-0.402,0.024-0.654-0.463-0.375-0.754
								C90.168,94.432,90.216,94.398,90.27,94.378z"/>
						</g>
					</g>
				</g>
				<g>
					<g>
						<g>
							<path fill="#FFFFFF" d="M92.952,94.642L92.952,94.642c0.101-0.003,0.181,0.088,0.163,0.188l-0.06,0.367
								c-0.014,0.076-0.078,0.132-0.155,0.134l0,0c-0.102,0.004-0.18-0.088-0.163-0.187l0.061-0.366
								C92.81,94.701,92.875,94.644,92.952,94.642z"/>
						</g>
					</g>
				</g>
				<g>
					<g>
						<g>
							<path fill="#FFFFFF" d="M92.432,94.656L92.432,94.656c0.102-0.003,0.18,0.088,0.163,0.187l-0.06,0.366
								c-0.013,0.076-0.077,0.134-0.155,0.135l0,0c-0.102,0.003-0.18-0.086-0.163-0.188l0.061-0.365
								C92.289,94.715,92.354,94.659,92.432,94.656z"/>
						</g>
					</g>
				</g>
			</g>
		</g>
		<g>
			<g>
				<g>
					<path fill="#F99AB6" d="M97.913,92.365l-3.982,1.071c-0.383,0.104-0.609,0.498-0.507,0.882l0.004,0.014
						c0.104,0.382,0.498,0.609,0.88,0.507l3.983-1.072c0.384-0.103,0.609-0.497,0.507-0.88l-0.004-0.014
						C98.692,92.489,98.297,92.263,97.913,92.365z"/>
				</g>
			</g>
		</g>
		<g>
			<g>
				<g>
					<g>
						<path fill="#FFFFFF" d="M94.279,94.995l-1.72-0.104l0.005,0.033c0.016,0.1-0.062,0.188-0.163,0.186
							c-0.076-0.002-0.142-0.058-0.155-0.134l-0.017-0.104l-0.193-0.012l0.008,0.05c0.018,0.1-0.062,0.189-0.162,0.187
							c-0.078-0.002-0.142-0.059-0.155-0.134l-0.021-0.123l-1.08-0.064c-0.023-0.009-0.045-0.021-0.066-0.034
							c-0.042-0.01-0.085-0.02-0.127-0.036c-0.497-0.179-0.755-0.729-0.574-1.225c0.179-0.498,0.729-0.755,1.226-0.576
							c0.004,0.002,0.007,0.004,0.011,0.005c0.002,0,0.003,0,0.005,0.001l3.412,1.235c0.055,0.02,0.102,0.053,0.142,0.096
							C94.934,94.532,94.681,95.019,94.279,94.995z"/>
					</g>
				</g>
			</g>
			<g id="_x38_._Right_shoe_233_">
				<g>
					<g>
						<g>
							<circle fill="#F7B75D" cx="90.753" cy="94.038" r="0.958"/>
						</g>
					</g>
				</g>
				<g>
					<g>
						<g>
							<path fill="#F7B75D" d="M94.506,94.378l-3.412-1.234c-0.359-0.131-0.758,0.058-0.888,0.417l0,0
								c-0.132,0.361,0.053,1.317,0.413,1.448l3.652,0.22c0.403,0.024,0.655-0.463,0.376-0.754
								C94.607,94.432,94.56,94.398,94.506,94.378z"/>
						</g>
					</g>
				</g>
				<g>
					<g>
						<g>
							<path fill="#FFFFFF" d="M91.823,94.642L91.823,94.642c-0.101-0.003-0.18,0.088-0.163,0.188l0.061,0.367
								c0.012,0.076,0.077,0.132,0.154,0.134l0,0c0.101,0.004,0.181-0.088,0.163-0.187l-0.061-0.366
								C91.966,94.701,91.9,94.644,91.823,94.642z"/>
						</g>
					</g>
				</g>
				<g>
					<g>
						<g>
							<path fill="#FFFFFF" d="M92.344,94.656L92.344,94.656c-0.102-0.003-0.18,0.088-0.164,0.187l0.061,0.366
								c0.014,0.076,0.078,0.134,0.156,0.135l0,0c0.1,0.003,0.179-0.086,0.162-0.188l-0.06-0.365
								C92.485,94.715,92.421,94.659,92.344,94.656z"/>
						</g>
					</g>
				</g>
			</g>
		</g>
		<g>
			<g>
				<g>
					<path fill="#F99AB6" d="M86.86,92.365l3.983,1.071c0.384,0.104,0.61,0.498,0.508,0.882l-0.003,0.014
						c-0.104,0.382-0.497,0.609-0.881,0.507l-3.983-1.072c-0.384-0.103-0.61-0.497-0.507-0.88l0.004-0.014
						C86.084,92.489,86.478,92.263,86.86,92.365z"/>
				</g>
			</g>
		</g>
		<g>
			<g>
				<g>
					<path fill="#121F55" d="M93.024,78.892c1.672,0,1.643,1.793,1.643,1.793c-1.753,0.335-2.426-0.906-2.426-1.149
						C92.241,79.535,92.425,78.892,93.024,78.892z"/>
				</g>
			</g>
		</g>
		<g>
			<g>
				<g>
					<path fill="#121F55" d="M92.155,79.288c-1.335-0.18-1.031,1.572-1.031,1.572c0.881-0.169,1.403-0.887,1.371-1.045
						L92.155,79.288z"/>
				</g>
			</g>
		</g>
	</g>
</g>
</svg>
