<?xml version="1.0" encoding="utf-8"?>
<!-- Generator: Adobe Illustrator 16.0.3, SVG Export Plug-In . SVG Version: 6.00 Build 0)  -->
<!DOCTYPE svg PUBLIC "-//W3C//DTD SVG 1.1//EN" "http://www.w3.org/Graphics/SVG/1.1/DTD/svg11.dtd">
<svg version="1.1" id="Ebene_1" xmlns="http://www.w3.org/2000/svg" xmlns:xlink="http://www.w3.org/1999/xlink" x="0px" y="0px"
	 width="607px" height="435px" viewBox="0 0 607 435" enable-background="new 0 0 607 435" xml:space="preserve">
<g>
	<linearGradient id="SVGID_1_" gradientUnits="userSpaceOnUse" x1="112" y1="215.981" x2="498.4395" y2="215.981">
		<stop  offset="0" style="stop-color:#582D7F"/>
		<stop  offset="0.2125" style="stop-color:#4B5194"/>
		<stop  offset="0.7538" style="stop-color:#2AA7C8"/>
		<stop  offset="1" style="stop-color:#1DC9DC"/>
	</linearGradient>
	<path fill="url(#SVGID_1_)" d="M125.7,237.389c0.025-0.049,0.051-0.098,0.077-0.147c10.549-20.013,29.065-38.488,25.172-62.98
		c-2.564-16.138-9.82-30.244-8.634-47.025c1.151-16.289,7.615-32.253,17.833-44.964c17.896-22.263,45.439-35.111,73.474-40.659
		c40.1-7.934,89.497-7.847,129.375,1.55c29.512,6.954,51.732,28.484,55.508,59.379c3.991,32.653-7.403,63.72,22.638,87.812
		c13.186,10.573,30.496,16.677,42.134,29.099c10.766,11.492,14.808,28.273,15.139,43.615c0.56,25.962-8.042,52.328-25.175,71.856
		c-25.074,28.58-60.331,30.167-95.765,29.508c-44.06-0.819-80.36,10.991-122.197,23.211c-30.133,8.801-63.729,13.5-92.043-0.049
		c-24.971-11.949-42.172-37.101-48.236-64.094C108.7,295.472,112.353,262.804,125.7,237.389z"/>
	<linearGradient id="SVGID_2_" gradientUnits="userSpaceOnUse" x1="152.373" y1="360.2939" x2="495.0826" y2="138.541">
		<stop  offset="0" style="stop-color:#582D7F"/>
		<stop  offset="0.2125" style="stop-color:#4B5194"/>
		<stop  offset="0.7538" style="stop-color:#2AA7C8"/>
		<stop  offset="1" style="stop-color:#1DC9DC"/>
	</linearGradient>
	<ellipse fill="url(#SVGID_2_)" cx="469.077" cy="155.369" rx="33.885" ry="36.307"/>
	<linearGradient id="SVGID_3_" gradientUnits="userSpaceOnUse" x1="66.9561" y1="220.6123" x2="409.666" y2="-1.1408">
		<stop  offset="0" style="stop-color:#582D7F"/>
		<stop  offset="0.2125" style="stop-color:#4B5194"/>
		<stop  offset="0.7538" style="stop-color:#2AA7C8"/>
		<stop  offset="1" style="stop-color:#1DC9DC"/>
	</linearGradient>
	<ellipse fill="url(#SVGID_3_)" cx="125.682" cy="182.613" rx="20.179" ry="21.621"/>
	<linearGradient id="SVGID_4_" gradientUnits="userSpaceOnUse" x1="175.521" y1="290.7461" x2="518.2387" y2="68.9879">
		<stop  offset="0" style="stop-color:#582D7F"/>
		<stop  offset="0.2125" style="stop-color:#4B5194"/>
		<stop  offset="0.7538" style="stop-color:#2AA7C8"/>
		<stop  offset="1" style="stop-color:#1DC9DC"/>
	</linearGradient>
	<ellipse fill="url(#SVGID_4_)" cx="508.442" cy="75.327" rx="12.073" ry="12.935"/>
	
		<linearGradient id="SVGID_5_" gradientUnits="userSpaceOnUse" x1="199.6035" y1="-285.5078" x2="539.9106" y2="-505.7062" gradientTransform="matrix(0.9915 -0.1304 0.1304 0.9915 65.1484 789.6577)">
		<stop  offset="0" style="stop-color:#582D7F"/>
		<stop  offset="0.2125" style="stop-color:#4B5194"/>
		<stop  offset="0.7538" style="stop-color:#2AA7C8"/>
		<stop  offset="1" style="stop-color:#1DC9DC"/>
	</linearGradient>
	<path fill="url(#SVGID_5_)" d="M366.03,384.887c1.18,9.601-12.78,19.484-31.178,22.077c-18.398,2.594-34.269-3.085-35.447-12.685
		c-1.178-9.601,12.78-19.484,31.179-22.078C348.981,369.607,364.852,375.287,366.03,384.887z"/>
	<g>
		<linearGradient id="SVGID_6_" gradientUnits="userSpaceOnUse" x1="113.3159" y1="191.2686" x2="174.2466" y2="191.2686">
			<stop  offset="0" style="stop-color:#582D7F"/>
			<stop  offset="0.2125" style="stop-color:#4B5194"/>
			<stop  offset="0.7538" style="stop-color:#2AA7C8"/>
			<stop  offset="1" style="stop-color:#1DC9DC"/>
		</linearGradient>
		<path fill="url(#SVGID_6_)" d="M169.159,254.527c17.805-31.166-17.297-54.784-11.533-85.819
			c2.315-12.462,11.022-22.988,12.171-35.635c0.74-8.148-1.745-16.016-4.034-23.928c-6.02,0.865-12.647-0.711-18.718-3.672
			c-2.578,7.003-4.206,14.349-4.73,21.763c-1.186,16.781,6.07,30.888,8.634,47.025c3.893,24.493-14.624,42.967-25.172,62.98
			c-0.026,0.05-0.052,0.099-0.077,0.147c-6.292,11.98-10.426,25.572-12.384,39.531C134.267,278.016,158.538,273.119,169.159,254.527
			z"/>
		<linearGradient id="SVGID_7_" gradientUnits="userSpaceOnUse" x1="147.0454" y1="94.4707" x2="165.7637" y2="94.4707">
			<stop  offset="0" style="stop-color:#582D7F"/>
			<stop  offset="0.2125" style="stop-color:#4B5194"/>
			<stop  offset="0.7538" style="stop-color:#2AA7C8"/>
			<stop  offset="1" style="stop-color:#1DC9DC"/>
		</linearGradient>
		<path fill="url(#SVGID_7_)" d="M165.764,109.145c-0.852-2.947-1.677-5.9-2.298-8.875c-1.415-6.778-1.756-13.807-1.04-20.71
			c-0.773,0.889-1.537,1.789-2.278,2.711c-5.567,6.925-10.017,14.818-13.103,23.202C153.117,108.434,159.744,110.01,165.764,109.145
			z"/>
		<linearGradient id="SVGID_8_" gradientUnits="userSpaceOnUse" x1="452.9189" y1="258.9922" x2="498.4395" y2="258.9922">
			<stop  offset="0" style="stop-color:#582D7F"/>
			<stop  offset="0.2125" style="stop-color:#4B5194"/>
			<stop  offset="0.7538" style="stop-color:#2AA7C8"/>
			<stop  offset="1" style="stop-color:#1DC9DC"/>
		</linearGradient>
		<path fill="url(#SVGID_8_)" d="M466.166,232.499c3.496,10.685,9.625,21.144,8.305,32.378c-1.117,9.519-7.357,17.252-12.253,25.284
			c-3.929,6.444-7.028,13.422-9.299,20.701c12.352-2.879,24.791-3.964,36.948-2.674c5.985-14.175,8.878-29.719,8.547-45.121
			c-0.331-15.342-4.373-32.123-15.139-43.615c-4.558-4.863-9.983-8.756-15.691-12.33
			C463.192,213.71,463.473,224.272,466.166,232.499z"/>
		<linearGradient id="SVGID_9_" gradientUnits="userSpaceOnUse" x1="283.1035" y1="75.3267" x2="419.3926" y2="75.3267">
			<stop  offset="0" style="stop-color:#582D7F"/>
			<stop  offset="0.2125" style="stop-color:#4B5194"/>
			<stop  offset="0.7538" style="stop-color:#2AA7C8"/>
			<stop  offset="1" style="stop-color:#1DC9DC"/>
		</linearGradient>
		<path fill="url(#SVGID_9_)" d="M418.504,102.542c-3.775-30.895-25.995-52.425-55.508-59.379c-8.24-1.941-16.892-3.48-25.778-4.637
			c-17.529-2.285-35.988-3.067-54.114-2.434c2.48,11.339,9.034,21.575,17.74,28.677c7.524,6.137,16.654,9.935,26.147,10.078
			c5.4,0.082,10.788-0.864,16.185-0.645c25.675,1.044,43.929,26.877,67.624,37.519c2.794,1.254,5.668,2.268,8.593,3.053
			C419.264,110.729,419.007,106.647,418.504,102.542z"/>
		<linearGradient id="SVGID_10_" gradientUnits="userSpaceOnUse" x1="162.0625" y1="72.6182" x2="300.8438" y2="72.6182">
			<stop  offset="0" style="stop-color:#582D7F"/>
			<stop  offset="0.2125" style="stop-color:#4B5194"/>
			<stop  offset="0.7538" style="stop-color:#2AA7C8"/>
			<stop  offset="1" style="stop-color:#1DC9DC"/>
		</linearGradient>
		<path fill="url(#SVGID_10_)" d="M163.465,100.27c0.621,2.975,1.446,5.928,2.298,8.875c4.148-0.595,8.009-2.35,11.199-5.612
			c3.208-3.282,5.221-7.645,7.808-11.506c11.392-17.003,32.641-22.668,52.167-23.313c19.525-0.645,39.394,2.438,58.416-2.327
			c1.85-0.463,3.682-1.005,5.491-1.619c-8.706-7.102-15.26-17.337-17.74-28.677c-17.157,0.599-34.012,2.46-49.482,5.521
			c-26.874,5.317-53.291,17.351-71.196,37.948C161.709,86.463,162.051,93.492,163.465,100.27z"/>
		<linearGradient id="SVGID_11_" gradientUnits="userSpaceOnUse" x1="359.0674" y1="337.8398" x2="452.9189" y2="337.8398">
			<stop  offset="0" style="stop-color:#582D7F"/>
			<stop  offset="0.2125" style="stop-color:#4B5194"/>
			<stop  offset="0.7538" style="stop-color:#2AA7C8"/>
			<stop  offset="1" style="stop-color:#1DC9DC"/>
		</linearGradient>
		<path fill="url(#SVGID_11_)" d="M452.919,310.862c-34.729,8.096-68.763,30.378-93.852,53.954
			c6.004-0.36,12.127-0.501,18.407-0.385c25.11,0.467,50.128-0.197,71.498-10.791C447.322,339.304,448.651,324.546,452.919,310.862z
			"/>
		<linearGradient id="SVGID_12_" gradientUnits="userSpaceOnUse" x1="448.2861" y1="330.6455" x2="489.8672" y2="330.6455">
			<stop  offset="0" style="stop-color:#582D7F"/>
			<stop  offset="0.2125" style="stop-color:#4B5194"/>
			<stop  offset="0.7538" style="stop-color:#2AA7C8"/>
			<stop  offset="1" style="stop-color:#1DC9DC"/>
		</linearGradient>
		<path fill="url(#SVGID_12_)" d="M452.919,310.862c-4.268,13.684-5.597,28.441-3.946,42.778c8.788-4.357,16.96-10.39,24.267-18.717
			c6.969-7.942,12.526-17.017,16.628-26.735C477.71,306.898,465.271,307.983,452.919,310.862z"/>
		<linearGradient id="SVGID_13_" gradientUnits="userSpaceOnUse" x1="214.0664" y1="380.7861" x2="297.1709" y2="380.7861">
			<stop  offset="0" style="stop-color:#582D7F"/>
			<stop  offset="0.2125" style="stop-color:#4B5194"/>
			<stop  offset="0.7538" style="stop-color:#2AA7C8"/>
			<stop  offset="1" style="stop-color:#1DC9DC"/>
		</linearGradient>
		<path fill="url(#SVGID_13_)" d="M214.066,371.356c5.791,6.626,10.516,14.31,13.777,22.654c9.297-1.519,18.517-3.765,27.434-6.368
			c14.442-4.218,28.224-8.388,41.894-12.005C270.368,366.565,241.46,365.135,214.066,371.356z"/>
		<linearGradient id="SVGID_14_" gradientUnits="userSpaceOnUse" x1="168.6016" y1="383.7227" x2="227.8433" y2="383.7227">
			<stop  offset="0" style="stop-color:#582D7F"/>
			<stop  offset="0.2125" style="stop-color:#4B5194"/>
			<stop  offset="0.7538" style="stop-color:#2AA7C8"/>
			<stop  offset="1" style="stop-color:#1DC9DC"/>
		</linearGradient>
		<path fill="url(#SVGID_14_)" d="M168.602,389.924c18.568,7.265,39.085,7.383,59.242,4.087
			c-3.261-8.345-7.986-16.028-13.777-22.654C198.164,374.967,182.774,381.154,168.602,389.924z"/>
		<linearGradient id="SVGID_15_" gradientUnits="userSpaceOnUse" x1="112.0068" y1="343.2949" x2="214.0664" y2="343.2949">
			<stop  offset="0" style="stop-color:#582D7F"/>
			<stop  offset="0.2125" style="stop-color:#4B5194"/>
			<stop  offset="0.7538" style="stop-color:#2AA7C8"/>
			<stop  offset="1" style="stop-color:#1DC9DC"/>
		</linearGradient>
		<path fill="url(#SVGID_15_)" d="M171.464,347.604c-5.054-0.651-10.256-0.73-15.024-2.64
			c-14.257-5.709-18.941-24.485-29.047-36.679c-4.205-5.071-9.528-9.054-15.386-11.621c0.062,9.153,1.054,18.214,2.991,26.835
			c6.064,26.993,23.265,52.145,48.236,64.094c1.769,0.848,3.559,1.621,5.368,2.33c14.172-8.77,29.562-14.957,45.465-18.567
			C202.884,358.563,187.729,349.704,171.464,347.604z"/>
	</g>
</g>
<g>
	<g>
		<path fill="#FCD118" d="M196.404,312.532l0.178-1.818l-12.139-1.179c-0.845-0.082-1.463-0.833-1.381-1.679
			c0.083-0.843,0.833-1.461,1.677-1.38h0.002l12.141,1.179l1.151-11.751l-6.413-0.621c-0.845-0.082-1.464-0.833-1.382-1.677
			c0.082-0.846,0.833-1.464,1.678-1.383h0l6.415,0.622l-0.182,1.866l1.466-14.971l-0.133,1.352l-6.412-0.622
			c-0.844-0.081-1.463-0.832-1.381-1.677c0.081-0.845,0.833-1.464,1.677-1.382h0l6.416,0.621l0.425-4.347l-6.412-0.622
			c-0.845-0.081-1.463-0.832-1.382-1.676c0.082-0.846,0.833-1.464,1.677-1.383h0.001l6.415,0.622l0.425-4.35l-12.139-1.179
			c-0.844-0.081-1.462-0.833-1.38-1.679c0.082-0.844,0.832-1.461,1.677-1.381h0l12.142,1.18l-0.122,1.248l0.547-5.593l-6.413-0.621
			c-0.844-0.082-1.463-0.833-1.381-1.679c0.082-0.844,0.833-1.463,1.677-1.382l0.001,0.001l6.415,0.621l1.151-11.755l-12.139-1.179
			c-0.845-0.081-1.463-0.833-1.381-1.679c0.082-0.843,0.833-1.462,1.677-1.381h0.001l12.142,1.18l0.303-3.095
			c0.053-0.539-0.342-1.02-0.881-1.073l-19.576-1.912c-0.54-0.054-1.02,0.343-1.073,0.881l-7.121,72.726l0.668,4.004H196.404z
			 M194.589,249.169c0.083-0.844,0.833-1.462,1.677-1.381h0.001l6.415,0.622l-0.299,3.059l-6.413-0.622
			C195.126,250.766,194.507,250.015,194.589,249.169z M191.19,299.63C191.191,299.63,191.191,299.63,191.19,299.63l6.417,0.622
			l-0.3,3.059l-6.413-0.622c-0.845-0.081-1.462-0.832-1.381-1.678C189.596,300.167,190.346,299.549,191.19,299.63z M185.237,285.639
			c0.083-0.844,0.833-1.461,1.677-1.381h0.001l12.142,1.18l-0.3,3.059l-12.139-1.178
			C185.773,287.236,185.155,286.484,185.237,285.639z"/>
		
			<rect x="201.721" y="242.531" transform="matrix(-0.0974 0.9952 -0.9952 -0.0974 464.4327 63.861)" fill="#FFFFFF" width="3.073" height="0"/>
		<path fill="#FFFFFF" d="M191.265,239.822c-0.844-0.081-1.595,0.538-1.677,1.381c-0.082,0.846,0.536,1.598,1.381,1.679
			l12.139,1.179l0.299-3.059L191.265,239.822L191.265,239.822z"/>
		<path fill="#FFFFFF" d="M195.97,250.847l6.413,0.622l0.299-3.059l-6.415-0.622h-0.001c-0.844-0.081-1.595,0.537-1.677,1.381
			C194.507,250.015,195.126,250.766,195.97,250.847z"/>
		
			<rect x="200.27" y="257.345" transform="matrix(-0.0974 0.9952 -0.9952 -0.0974 477.5788 81.553)" fill="#FFFFFF" width="3.074" height="0"/>
		<path fill="#FFFFFF" d="M195.542,255.193c-0.845-0.081-1.596,0.538-1.677,1.382c-0.082,0.846,0.537,1.597,1.381,1.679l6.413,0.621
			l0.299-3.06L195.542,255.193L195.542,255.193z"/>
		<polygon fill="#FFFFFF" points="200.932,266.278 201.11,264.468 200.932,266.278 		"/>
		<path fill="#FFFFFF" d="M189.09,262.04L189.09,262.04c-0.845-0.08-1.596,0.537-1.677,1.381c-0.082,0.846,0.536,1.598,1.38,1.679
			l12.139,1.179l0.178-1.811l0.122-1.248L189.09,262.04z"/>
		
			<rect x="198.821" y="272.157" transform="matrix(-0.0974 0.9952 -0.9952 -0.0974 490.7344 99.2595)" fill="#FFFFFF" width="3.073" height="0"/>
		<path fill="#FFFFFF" d="M194.091,270.006c-0.844-0.081-1.595,0.537-1.677,1.383c-0.082,0.844,0.537,1.595,1.382,1.676l6.412,0.622
			l0.299-3.059L194.091,270.006C194.092,270.006,194.092,270.006,194.091,270.006z"/>
		<polygon fill="#FFFFFF" points="199.782,278.033 199.782,278.033 199.615,279.741 		"/>
		<path fill="#FFFFFF" d="M193.366,277.412c-0.844-0.082-1.596,0.537-1.677,1.382c-0.082,0.845,0.537,1.596,1.381,1.677l6.412,0.622
			l0.133-1.352l0.167-1.708L193.366,277.412L193.366,277.412z"/>
		<path fill="#FFFFFF" d="M186.618,287.318l12.139,1.178l0.3-3.059l-12.142-1.18h-0.001c-0.845-0.08-1.595,0.537-1.677,1.381
			C185.155,286.484,185.773,287.236,186.618,287.318z"/>
		<polygon fill="#FFFFFF" points="198.033,295.904 198.149,294.712 198.033,295.904 		"/>
		<path fill="#FFFFFF" d="M191.917,292.224L191.917,292.224c-0.845-0.081-1.597,0.537-1.678,1.383
			c-0.082,0.844,0.537,1.595,1.382,1.677l6.413,0.621l0.117-1.192l0.182-1.866L191.917,292.224z"/>
		<path fill="#FFFFFF" d="M189.514,301.011c-0.082,0.846,0.536,1.597,1.381,1.678l6.413,0.622l0.3-3.059l-6.416-0.622
			c0,0,0,0-0.001,0C190.346,299.549,189.596,300.167,189.514,301.011z"/>
		
			<rect x="195.196" y="309.185" transform="matrix(-0.0974 0.9952 -0.9952 -0.0974 523.6077 143.5009)" fill="#FFFFFF" width="3.073" height="0"/>
		<path fill="#FFFFFF" d="M184.739,306.477c-0.844-0.081-1.594,0.537-1.677,1.38c-0.082,0.846,0.536,1.597,1.381,1.679l12.139,1.179
			l0.299-3.059l-12.141-1.179H184.739z"/>
		<polygon fill="#808285" points="158.325,246.949 156.497,255.746 162.912,254.675 		"/>
		<path fill="#FFFFFF" d="M161.017,263.078l3.962,3.697l2.445-3.944c-0.012-0.103-0.025-0.204-0.042-0.306
			c-0.035-0.208-0.062-0.503-0.22-0.816c-0.064-0.129-0.139-0.253-0.224-0.374c-0.226-0.322-0.455-0.641-0.656-0.978l-3.372-5.683
			l-6.415,1.071l-1.345,6.469c-0.08,0.385-0.195,0.761-0.303,1.138c-0.123,0.425-0.104,0.841-0.035,1.262
			c0.017,0.103,0.038,0.207,0.061,0.31l3.638,2.907L161.017,263.078z"/>
		<path fill="#FFD633" d="M162.419,271.481c-0.177,0.054-0.354,0.095-0.533,0.119c-0.865,0.116-1.896-0.263-2.901-0.947
			l6.988,41.879h3.296L162.419,271.481z"/>
		<path fill="#FFD633" d="M161.886,271.601c0.178-0.024,0.356-0.065,0.533-0.119l-1.402-8.403l-2.503,4.753l0.471,2.822
			C159.99,271.338,161.021,271.717,161.886,271.601z"/>
		<path fill="#FFCC00" d="M158.985,270.653c-1.855-1.263-3.625-3.567-4.109-5.729l-0.011-0.008l7.946,47.616h3.162L158.985,270.653z
			"/>
		<path fill="#FFCC00" d="M158.985,270.653l-0.471-2.822l-3.638-2.907C155.359,267.086,157.129,269.391,158.985,270.653z"/>
		<path fill="#FCD118" d="M162.419,271.481l6.851,41.051h3.345l-7.229-43.318C164.53,270.32,163.49,271.158,162.419,271.481z"/>
		<path fill="#FCD118" d="M165.385,269.214l-0.406-2.438l-3.962-3.697l1.402,8.403C163.49,271.158,164.53,270.32,165.385,269.214z"
			/>
		<path fill="#FFE066" d="M165.385,269.214l7.229,43.318h2.054l0.391-4.004l-7.627-45.71l-0.008,0.013
			C167.66,264.953,166.765,267.429,165.385,269.214z"/>
		<polygon fill="#FFE066" points="175.728,312.532 175.06,308.528 174.668,312.532 		"/>
		<path fill="#FFE066" d="M165.385,269.214c1.38-1.785,2.275-4.261,2.039-6.383l-2.445,3.944L165.385,269.214z"/>
		<path fill="#808285" d="M214.702,257.28l0.285-1.5c0.088-0.465-0.217-0.915-0.683-1.003c-0.465-0.088-0.915,0.218-1.003,0.684
			l-0.285,1.5C213.588,256.734,214.253,256.86,214.702,257.28z"/>
		<path fill="#D1D3D4" d="M211.304,268.775c2.521,0.446,4.603,1.179,6.169,1.863l0.062,0.012c0.167-1.104,0.099-2.229-0.207-3.305
			l-2.184-9.338c-0.085-0.297-0.243-0.54-0.442-0.728l-0.363,1.919c-0.088,0.466-0.537,0.771-1.003,0.684
			c-0.465-0.088-0.771-0.536-0.683-1.003l0.363-1.919c-0.254,0.102-0.489,0.27-0.677,0.516l-5.448,7.891
			c-0.677,0.889-1.152,1.913-1.402,3l0.062,0.012C207.122,268.321,209.086,268.384,211.304,268.775z"/>
		<path fill="#D1D3D4" d="M213.336,259.883c0.466,0.088,0.915-0.218,1.003-0.684l0.363-1.919c-0.449-0.42-1.114-0.546-1.686-0.319
			l-0.363,1.919C212.565,259.347,212.871,259.795,213.336,259.883z"/>
		
			<linearGradient id="SVGID_16_" gradientUnits="userSpaceOnUse" x1="2763.6299" y1="163.8188" x2="2763.6299" y2="157.1655" gradientTransform="matrix(-0.1862 0.9825 -0.9825 -0.1862 878.8389 -2415.5288)">
			<stop  offset="0" style="stop-color:#FFDE39"/>
			<stop  offset="0.0935" style="stop-color:#FFC63C"/>
			<stop  offset="0.2863" style="stop-color:#FE9843"/>
			<stop  offset="0.4154" style="stop-color:#FE7D4B"/>
			<stop  offset="0.6521" style="stop-color:#FE4F59"/>
			<stop  offset="1" style="stop-color:#ED327F"/>
		</linearGradient>
		<path fill="url(#SVGID_16_)" d="M210.708,271.923c2.521,0.444,4.603,1.179,6.169,1.863l0.07,0.013l0.541-2.858
			c0.019-0.096,0.032-0.192,0.046-0.29l-0.062-0.012c-1.566-0.685-3.648-1.417-6.169-1.863c-2.218-0.392-4.183-0.454-5.753-0.396
			l-0.062-0.012c-0.021,0.096-0.044,0.192-0.063,0.289l-0.542,2.857l0.07,0.014C206.526,271.468,208.489,271.531,210.708,271.923z"
			/>
		
			<linearGradient id="SVGID_17_" gradientUnits="userSpaceOnUse" x1="2761.6865" y1="155.6978" x2="2842.1868" y2="155.6978" gradientTransform="matrix(-0.1862 0.9825 -0.9825 -0.1862 878.8389 -2415.5288)">
			<stop  offset="0" style="stop-color:#FFDE39"/>
			<stop  offset="0.0935" style="stop-color:#FFC63C"/>
			<stop  offset="0.2863" style="stop-color:#FE9843"/>
			<stop  offset="0.4154" style="stop-color:#FE7D4B"/>
			<stop  offset="0.6521" style="stop-color:#FE4F59"/>
			<stop  offset="1" style="stop-color:#ED327F"/>
		</linearGradient>
		<path fill="url(#SVGID_17_)" d="M201.937,306.214c0.132-0.697,0.806-1.158,1.504-1.025c0.698,0.133,1.157,0.806,1.024,1.504
			l-1.105,5.84h6.249l7.34-38.733l-0.07-0.013c-1.566-0.685-3.648-1.419-6.169-1.863c-2.219-0.392-4.182-0.455-5.753-0.396
			l-0.07-0.014l-7.773,41.019h3.627L201.937,306.214z M202.787,301.726l0.691-3.647c0.131-0.697,0.806-1.157,1.503-1.024
			c0.698,0.132,1.157,0.807,1.024,1.504l-0.691,3.647c-0.132,0.698-0.805,1.157-1.503,1.024
			C203.113,303.097,202.654,302.424,202.787,301.726z"/>
		<path fill="#FFFFFF" d="M203.44,305.188c-0.698-0.133-1.372,0.328-1.504,1.025l-1.197,6.318h2.62l1.105-5.84
			C204.598,305.994,204.138,305.321,203.44,305.188z"/>
		<path fill="#FFFFFF" d="M203.812,303.229c0.699,0.133,1.372-0.326,1.503-1.024l0.691-3.647c0.133-0.697-0.326-1.372-1.024-1.504
			c-0.698-0.133-1.372,0.327-1.503,1.024l-0.691,3.647C202.654,302.424,203.113,303.097,203.812,303.229z"/>
	</g>
	<g>
		<g>
			<linearGradient id="SVGID_18_" gradientUnits="userSpaceOnUse" x1="127.5322" y1="299.7109" x2="162.4201" y2="340.5087">
				<stop  offset="0" style="stop-color:#42E397"/>
				<stop  offset="1" style="stop-color:#3CB6B5"/>
			</linearGradient>
			<path fill="url(#SVGID_18_)" d="M168.343,371.865c-1.421-0.176-2.507-1.348-2.571-2.777c-0.938-21.012-1.876-42.025-2.814-63.038
				h-4.698c1,22.413,2,44.826,3.002,67.237c0.063,1.431,1.149,2.602,2.57,2.778c6.018,0.745,12.772,1.256,20.147,1.286
				c7.951,0.034,15.197-0.493,21.596-1.286c1.422-0.177,2.51-1.346,2.575-2.776l0.053-1.203c-5.926,0.668-12.53,1.097-19.711,1.065
				C181.115,373.12,174.361,372.611,168.343,371.865z"/>
			<linearGradient id="SVGID_19_" gradientUnits="userSpaceOnUse" x1="187.0537" y1="306.3115" x2="187.0537" y2="390.007">
				<stop  offset="0" style="stop-color:#FFDE39"/>
				<stop  offset="0.3266" style="stop-color:#FFC63C"/>
				<stop  offset="1" style="stop-color:#FE9843"/>
			</linearGradient>
			<path fill="url(#SVGID_19_)" d="M162.958,306.05c0.938,21.013,1.876,42.026,2.814,63.038c0.063,1.43,1.15,2.602,2.571,2.777
				c6.018,0.746,12.772,1.255,20.147,1.286c7.181,0.031,13.786-0.397,19.711-1.065l2.948-66.036H162.958z"/>
			<linearGradient id="SVGID_20_" gradientUnits="userSpaceOnUse" x1="187.0537" y1="321.6836" x2="187.0537" y2="377.364">
				<stop  offset="0" style="stop-color:#42E397"/>
				<stop  offset="1" style="stop-color:#3CB6B5"/>
			</linearGradient>
			<path fill="url(#SVGID_20_)" d="M162.958,307.194c0.938,21.012,1.876,40.882,2.814,61.894c0.063,1.43,1.15,2.602,2.571,2.777
				c6.018,0.746,12.772,1.255,20.147,1.286c7.181,0.031,13.786-0.397,19.711-1.065l2.948-64.892H162.958z"/>
		</g>
		<linearGradient id="SVGID_21_" gradientUnits="userSpaceOnUse" x1="184.7046" y1="294.9541" x2="184.7046" y2="313.0123">
			<stop  offset="0" style="stop-color:#42E397"/>
			<stop  offset="1" style="stop-color:#3CB6B5"/>
		</linearGradient>
		<path fill="url(#SVGID_21_)" d="M211.871,314.298h-54.333c-2.093,0-3.79-1.697-3.79-3.791v-0.667c0-2.092,1.697-3.79,3.79-3.79
			h54.333c2.093,0,3.79,1.698,3.79,3.79v0.667C215.661,312.601,213.964,314.298,211.871,314.298z"/>
	</g>
</g>
<g>
	<linearGradient id="SVGID_22_" gradientUnits="userSpaceOnUse" x1="325.0479" y1="220.7734" x2="359.7912" y2="136.703">
		<stop  offset="0" style="stop-color:#E6E7E8"/>
		<stop  offset="1" style="stop-color:#FFFFFF"/>
	</linearGradient>
	<polygon fill="url(#SVGID_22_)" points="362.531,360.28 223.097,333.685 257.252,154.612 396.688,181.208 	"/>
	
		<linearGradient id="SVGID_23_" gradientUnits="userSpaceOnUse" x1="279.5918" y1="-53.667" x2="207.1045" y2="-230.3811" gradientTransform="matrix(0.9975 -0.0709 0.0709 0.9975 57.3701 418.209)">
		<stop  offset="0" style="stop-color:#E6E7E8"/>
		<stop  offset="1" style="stop-color:#FFFFFF"/>
	</linearGradient>
	<polygon fill="url(#SVGID_23_)" points="372.491,339.7 231.839,358.841 207.257,178.205 347.908,159.063 	"/>
	<linearGradient id="SVGID_24_" gradientUnits="userSpaceOnUse" x1="276.2344" y1="322.4336" x2="356.8731" y2="166.732">
		<stop  offset="0" style="stop-color:#E6E7E8"/>
		<stop  offset="1" style="stop-color:#FFFFFF"/>
	</linearGradient>
	<polygon fill="url(#SVGID_24_)" points="372.593,354.473 231.193,342.018 247.19,160.419 388.59,172.875 	"/>
	<linearGradient id="SVGID_25_" gradientUnits="userSpaceOnUse" x1="241.4971" y1="346.8789" x2="285.6768" y2="280.8237">
		<stop  offset="0" style="stop-color:#E6E7E8"/>
		<stop  offset="1" style="stop-color:#FFFFFF"/>
	</linearGradient>
	<rect x="230.339" y="166.296" fill="url(#SVGID_25_)" width="141.947" height="182.301"/>
	<g>
		<g>
			<path fill="#D1D3D4" d="M355.424,322.325h-4.561c-0.611,0-1.106-0.494-1.106-1.106c0-0.609,0.495-1.104,1.106-1.104h3.455v-3.457
				c0-0.609,0.494-1.104,1.105-1.104c0.61,0,1.105,0.495,1.105,1.104v4.562C356.529,321.831,356.034,322.325,355.424,322.325z"/>
		</g>
		<g>
			<path fill="#D1D3D4" d="M341.854,322.325h-9.009c-0.61,0-1.105-0.494-1.105-1.106c0-0.609,0.495-1.104,1.105-1.104h9.009
				c0.611,0,1.106,0.495,1.106,1.104C342.96,321.831,342.465,322.325,341.854,322.325z M323.836,322.325h-9.009
				c-0.61,0-1.106-0.494-1.106-1.106c0-0.609,0.496-1.104,1.106-1.104h9.009c0.61,0,1.105,0.495,1.105,1.104
				C324.941,321.831,324.446,322.325,323.836,322.325z M305.818,322.325h-9.01c-0.61,0-1.105-0.494-1.105-1.106
				c0-0.609,0.495-1.104,1.105-1.104h9.01c0.611,0,1.105,0.495,1.105,1.104C306.924,321.831,306.43,322.325,305.818,322.325z
				 M287.8,322.325h-9.009c-0.61,0-1.105-0.494-1.105-1.106c0-0.609,0.495-1.104,1.105-1.104h9.009c0.611,0,1.106,0.495,1.106,1.104
				C288.907,321.831,288.411,322.325,287.8,322.325z M269.783,322.325h-9.009c-0.61,0-1.105-0.494-1.105-1.106
				c0-0.609,0.495-1.104,1.105-1.104h9.009c0.611,0,1.105,0.495,1.105,1.104C270.888,321.831,270.394,322.325,269.783,322.325z"/>
		</g>
		<g>
			<path fill="#D1D3D4" d="M251.765,322.325h-4.561c-0.61,0-1.105-0.494-1.105-1.106v-4.562c0-0.609,0.495-1.104,1.105-1.104
				s1.106,0.495,1.106,1.104v3.457h3.455c0.611,0,1.106,0.495,1.106,1.104C252.871,321.831,252.375,322.325,251.765,322.325z"/>
		</g>
		<g>
			<path fill="#D1D3D4" d="M247.204,201.228c-0.61,0-1.105-0.496-1.105-1.106v-4.561c0-0.611,0.495-1.105,1.105-1.105h4.561
				c0.611,0,1.106,0.495,1.106,1.105c0,0.611-0.496,1.106-1.106,1.106h-3.455v3.455C248.31,200.732,247.814,201.228,247.204,201.228
				z"/>
		</g>
		<g>
			<path fill="#D1D3D4" d="M341.854,197.772h-9.009c-0.61,0-1.105-0.495-1.105-1.105c0-0.611,0.495-1.106,1.105-1.106h9.009
				c0.611,0,1.106,0.496,1.106,1.106C342.96,197.277,342.465,197.772,341.854,197.772z M323.836,197.772h-9.009
				c-0.61,0-1.106-0.495-1.106-1.105c0-0.611,0.496-1.106,1.106-1.106h9.009c0.61,0,1.105,0.496,1.105,1.106
				C324.941,197.277,324.446,197.772,323.836,197.772z M305.818,197.772h-9.01c-0.61,0-1.105-0.495-1.105-1.105
				c0-0.611,0.495-1.106,1.105-1.106h9.01c0.611,0,1.105,0.496,1.105,1.106C306.924,197.277,306.43,197.772,305.818,197.772z
				 M287.8,197.772h-9.009c-0.61,0-1.105-0.495-1.105-1.105c0-0.611,0.495-1.106,1.105-1.106h9.009c0.611,0,1.106,0.496,1.106,1.106
				C288.907,197.277,288.411,197.772,287.8,197.772z M269.783,197.772h-9.009c-0.61,0-1.105-0.495-1.105-1.105
				c0-0.611,0.495-1.106,1.105-1.106h9.009c0.611,0,1.105,0.496,1.105,1.106C270.888,197.277,270.394,197.772,269.783,197.772z"/>
		</g>
		<g>
			<path fill="#D1D3D4" d="M355.424,201.228c-0.611,0-1.105-0.496-1.105-1.106v-3.455h-3.455c-0.611,0-1.106-0.495-1.106-1.106
				c0-0.611,0.495-1.105,1.106-1.105h4.561c0.61,0,1.105,0.495,1.105,1.105v4.561C356.529,200.732,356.034,201.228,355.424,201.228z
				"/>
		</g>
		<g>
			<path fill="#D1D3D4" d="M355.424,308.729c-0.611,0-1.105-0.495-1.105-1.106v-9.033c0-0.611,0.494-1.105,1.105-1.105
				c0.61,0,1.105,0.494,1.105,1.105v9.033C356.529,308.234,356.034,308.729,355.424,308.729z M355.424,290.661
				c-0.611,0-1.105-0.495-1.105-1.106v-9.034c0-0.61,0.494-1.106,1.105-1.106c0.61,0,1.105,0.496,1.105,1.106v9.034
				C356.529,290.166,356.034,290.661,355.424,290.661z M355.424,272.592c-0.611,0-1.105-0.495-1.105-1.106v-9.033
				c0-0.61,0.494-1.105,1.105-1.105c0.61,0,1.105,0.495,1.105,1.105v9.033C356.529,272.097,356.034,272.592,355.424,272.592z
				 M355.424,254.523c-0.611,0-1.105-0.496-1.105-1.106v-9.034c0-0.61,0.494-1.105,1.105-1.105c0.61,0,1.105,0.495,1.105,1.105
				v9.034C356.529,254.027,356.034,254.523,355.424,254.523z M355.424,236.454c-0.611,0-1.105-0.495-1.105-1.106v-9.033
				c0-0.61,0.494-1.106,1.105-1.106c0.61,0,1.105,0.496,1.105,1.106v9.033C356.529,235.959,356.034,236.454,355.424,236.454z
				 M355.424,219.296c-0.611,0-1.105-0.494-1.105-1.105v-9.034c0-0.611,0.494-1.105,1.105-1.105c0.61,0,1.105,0.495,1.105,1.105
				v9.034C356.529,218.802,356.034,219.296,355.424,219.296z"/>
		</g>
		<g>
			<path fill="#D1D3D4" d="M247.202,308.729c-0.61,0-1.106-0.495-1.106-1.106v-9.033c0-0.611,0.496-1.105,1.106-1.105
				s1.105,0.494,1.105,1.105v9.033C248.307,308.234,247.812,308.729,247.202,308.729z M247.202,290.661
				c-0.61,0-1.106-0.495-1.106-1.106v-9.034c0-0.61,0.496-1.106,1.106-1.106s1.105,0.496,1.105,1.106v9.034
				C248.307,290.166,247.812,290.661,247.202,290.661z M247.202,272.592c-0.61,0-1.106-0.495-1.106-1.106v-9.033
				c0-0.61,0.496-1.105,1.106-1.105s1.105,0.495,1.105,1.105v9.033C248.307,272.097,247.812,272.592,247.202,272.592z
				 M247.202,254.523c-0.61,0-1.106-0.496-1.106-1.106v-9.034c0-0.61,0.496-1.105,1.106-1.105s1.105,0.495,1.105,1.105v9.034
				C248.307,254.027,247.812,254.523,247.202,254.523z M247.202,236.454c-0.61,0-1.106-0.495-1.106-1.106v-9.033
				c0-0.61,0.496-1.106,1.106-1.106s1.105,0.496,1.105,1.106v9.033C248.307,235.959,247.812,236.454,247.202,236.454z
				 M247.202,219.296c-0.61,0-1.106-0.494-1.106-1.105v-9.034c0-0.611,0.496-1.105,1.106-1.105s1.105,0.495,1.105,1.105v9.034
				C248.307,218.802,247.812,219.296,247.202,219.296z"/>
		</g>
		<g>
			<g>
				<g>
					<linearGradient id="SVGID_26_" gradientUnits="userSpaceOnUse" x1="333" y1="271.1396" x2="333" y2="317.7742">
						<stop  offset="0" style="stop-color:#D1D3D4"/>
						<stop  offset="1" style="stop-color:#E6E7E8"/>
					</linearGradient>
					<path fill="url(#SVGID_26_)" d="M346.084,276.721h-26.17c-0.84,0-1.521-0.681-1.521-1.521c0-0.841,0.681-1.521,1.521-1.521
						h26.17c0.84,0,1.521,0.68,1.521,1.521C347.605,276.04,346.924,276.721,346.084,276.721z"/>
				</g>
				<g>
					<linearGradient id="SVGID_27_" gradientUnits="userSpaceOnUse" x1="311.0684" y1="271.1396" x2="311.0684" y2="317.7742">
						<stop  offset="0" style="stop-color:#D1D3D4"/>
						<stop  offset="1" style="stop-color:#E6E7E8"/>
					</linearGradient>
					<path fill="url(#SVGID_27_)" d="M314.662,276.721h-7.188c-0.84,0-1.521-0.681-1.521-1.521c0-0.841,0.681-1.521,1.521-1.521
						h7.188c0.839,0,1.52,0.68,1.52,1.521C316.182,276.04,315.501,276.721,314.662,276.721z"/>
				</g>
				<g>
					<linearGradient id="SVGID_28_" gradientUnits="userSpaceOnUse" x1="343.5039" y1="271.1387" x2="343.5039" y2="317.7733">
						<stop  offset="0" style="stop-color:#D1D3D4"/>
						<stop  offset="1" style="stop-color:#E6E7E8"/>
					</linearGradient>
					<path fill="url(#SVGID_28_)" d="M346.084,285.404h-5.16c-0.841,0-1.521-0.681-1.521-1.521s0.681-1.521,1.521-1.521h5.16
						c0.84,0,1.521,0.681,1.521,1.521S346.924,285.404,346.084,285.404z"/>
				</g>
				<g>
					<linearGradient id="SVGID_29_" gradientUnits="userSpaceOnUse" x1="322.0313" y1="271.1387" x2="322.0313" y2="317.7733">
						<stop  offset="0" style="stop-color:#D1D3D4"/>
						<stop  offset="1" style="stop-color:#E6E7E8"/>
					</linearGradient>
					<path fill="url(#SVGID_29_)" d="M336.59,285.404h-29.115c-0.84,0-1.521-0.681-1.521-1.521s0.681-1.521,1.521-1.521h29.115
						c0.839,0,1.52,0.681,1.52,1.521S337.429,285.404,336.59,285.404z"/>
				</g>
				<g>
					<linearGradient id="SVGID_30_" gradientUnits="userSpaceOnUse" x1="335.418" y1="271.1309" x2="335.418" y2="317.7804">
						<stop  offset="0" style="stop-color:#D1D3D4"/>
						<stop  offset="1" style="stop-color:#E6E7E8"/>
					</linearGradient>
					<path fill="url(#SVGID_30_)" d="M346.084,294.088h-21.333c-0.839,0-1.52-0.682-1.52-1.521c0-0.839,0.681-1.521,1.52-1.521
						h21.333c0.84,0,1.521,0.682,1.521,1.521C347.605,293.406,346.924,294.088,346.084,294.088z"/>
				</g>
				<g>
					<linearGradient id="SVGID_31_" gradientUnits="userSpaceOnUse" x1="313.418" y1="271.1309" x2="313.418" y2="317.7804">
						<stop  offset="0" style="stop-color:#D1D3D4"/>
						<stop  offset="1" style="stop-color:#E6E7E8"/>
					</linearGradient>
					<path fill="url(#SVGID_31_)" d="M319.361,294.088h-11.887c-0.84,0-1.521-0.682-1.521-1.521c0-0.839,0.681-1.521,1.521-1.521
						h11.887c0.84,0,1.521,0.682,1.521,1.521C320.882,293.406,320.201,294.088,319.361,294.088z"/>
				</g>
				<g>
					<g>
						<linearGradient id="SVGID_32_" gradientUnits="userSpaceOnUse" x1="341.9141" y1="271.1367" x2="341.9141" y2="317.7713">
							<stop  offset="0" style="stop-color:#D1D3D4"/>
							<stop  offset="1" style="stop-color:#E6E7E8"/>
						</linearGradient>
						<path fill="url(#SVGID_32_)" d="M346.084,302.771h-8.339c-0.841,0-1.521-0.68-1.521-1.52c0-0.839,0.681-1.521,1.521-1.521
							h8.339c0.84,0,1.521,0.683,1.521,1.521C347.605,302.091,346.924,302.771,346.084,302.771z"/>
					</g>
					<g>
						<linearGradient id="SVGID_33_" gradientUnits="userSpaceOnUse" x1="320.2363" y1="271.1367" x2="320.2363" y2="317.7713">
							<stop  offset="0" style="stop-color:#D1D3D4"/>
							<stop  offset="1" style="stop-color:#E6E7E8"/>
						</linearGradient>
						<path fill="url(#SVGID_33_)" d="M332.999,302.771h-25.524c-0.84,0-1.521-0.68-1.521-1.52c0-0.839,0.681-1.521,1.521-1.521
							h25.524c0.84,0,1.521,0.683,1.521,1.521C334.52,302.091,333.839,302.771,332.999,302.771z"/>
					</g>
				</g>
				<g>
					<g>
						<linearGradient id="SVGID_34_" gradientUnits="userSpaceOnUse" x1="329.4746" y1="271.1494" x2="329.4746" y2="317.769">
							<stop  offset="0" style="stop-color:#D1D3D4"/>
							<stop  offset="1" style="stop-color:#E6E7E8"/>
						</linearGradient>
						<path fill="url(#SVGID_34_)" d="M346.084,311.454h-33.219c-0.84,0-1.521-0.681-1.521-1.52c0-0.84,0.682-1.521,1.521-1.521
							h33.219c0.84,0,1.521,0.681,1.521,1.521C347.605,310.773,346.924,311.454,346.084,311.454z"/>
					</g>
					<g>
						<linearGradient id="SVGID_35_" gradientUnits="userSpaceOnUse" x1="307.7969" y1="271.1494" x2="307.7969" y2="317.769">
							<stop  offset="0" style="stop-color:#D1D3D4"/>
							<stop  offset="1" style="stop-color:#E6E7E8"/>
						</linearGradient>
						<path fill="url(#SVGID_35_)" d="M308.12,311.454h-0.646c-0.84,0-1.521-0.681-1.521-1.52c0-0.84,0.681-1.521,1.521-1.521h0.646
							c0.839,0,1.521,0.681,1.521,1.521C309.641,310.773,308.959,311.454,308.12,311.454z"/>
					</g>
				</g>
			</g>
			<g>
				<g>
					<g>
						<linearGradient id="SVGID_36_" gradientUnits="userSpaceOnUse" x1="286.9058" y1="271.1309" x2="286.9058" y2="317.7804">
							<stop  offset="0" style="stop-color:#D1D3D4"/>
							<stop  offset="1" style="stop-color:#E6E7E8"/>
						</linearGradient>
						<path fill="url(#SVGID_36_)" d="M295.153,294.088h-16.495c-0.84,0-1.521-0.682-1.521-1.521c0-0.839,0.681-1.521,1.521-1.521
							h16.495c0.84,0,1.521,0.682,1.521,1.521C296.674,293.406,295.993,294.088,295.153,294.088z"/>
					</g>
					<g>
						<linearGradient id="SVGID_37_" gradientUnits="userSpaceOnUse" x1="273.4058" y1="271.1309" x2="273.4058" y2="317.7804">
							<stop  offset="0" style="stop-color:#D1D3D4"/>
							<stop  offset="1" style="stop-color:#E6E7E8"/>
						</linearGradient>
						<path fill="url(#SVGID_37_)" d="M274.604,294.088h-2.396c-0.839,0-1.52-0.682-1.52-1.521c0-0.839,0.681-1.521,1.52-1.521
							h2.396c0.84,0,1.521,0.682,1.521,1.521C276.124,293.406,275.443,294.088,274.604,294.088z"/>
					</g>
					<g>
						<linearGradient id="SVGID_38_" gradientUnits="userSpaceOnUse" x1="262.3022" y1="271.1309" x2="262.3022" y2="317.7804">
							<stop  offset="0" style="stop-color:#D1D3D4"/>
							<stop  offset="1" style="stop-color:#E6E7E8"/>
						</linearGradient>
						<path fill="url(#SVGID_38_)" d="M268.061,294.088h-11.518c-0.84,0-1.521-0.682-1.521-1.521c0-0.839,0.681-1.521,1.521-1.521
							h11.518c0.84,0,1.521,0.682,1.521,1.521C269.582,293.406,268.901,294.088,268.061,294.088z"/>
					</g>
					<g>
						<linearGradient id="SVGID_39_" gradientUnits="userSpaceOnUse" x1="292.0845" y1="271.1367" x2="292.0845" y2="317.7713">
							<stop  offset="0" style="stop-color:#D1D3D4"/>
							<stop  offset="1" style="stop-color:#E6E7E8"/>
						</linearGradient>
						<path fill="url(#SVGID_39_)" d="M295.153,302.771h-6.137c-0.84,0-1.521-0.68-1.521-1.52c0-0.839,0.681-1.521,1.521-1.521
							h6.137c0.84,0,1.521,0.683,1.521,1.521C296.674,302.091,295.993,302.771,295.153,302.771z"/>
					</g>
					<g>
						<linearGradient id="SVGID_40_" gradientUnits="userSpaceOnUse" x1="270.6875" y1="271.1367" x2="270.6875" y2="317.7713">
							<stop  offset="0" style="stop-color:#D1D3D4"/>
							<stop  offset="1" style="stop-color:#E6E7E8"/>
						</linearGradient>
						<path fill="url(#SVGID_40_)" d="M284.832,302.771h-28.289c-0.84,0-1.521-0.68-1.521-1.52c0-0.839,0.681-1.521,1.521-1.521
							h28.289c0.839,0,1.521,0.683,1.521,1.521C286.353,302.091,285.671,302.771,284.832,302.771z"/>
					</g>
					<g>
						<linearGradient id="SVGID_41_" gradientUnits="userSpaceOnUse" x1="288.5645" y1="271.1494" x2="288.5645" y2="317.769">
							<stop  offset="0" style="stop-color:#D1D3D4"/>
							<stop  offset="1" style="stop-color:#E6E7E8"/>
						</linearGradient>
						<path fill="url(#SVGID_41_)" d="M295.153,311.454h-13.178c-0.84,0-1.521-0.681-1.521-1.52c0-0.84,0.681-1.521,1.521-1.521
							h13.178c0.84,0,1.521,0.681,1.521,1.521C296.674,310.773,295.993,311.454,295.153,311.454z"/>
					</g>
					<g>
						<linearGradient id="SVGID_42_" gradientUnits="userSpaceOnUse" x1="270.2729" y1="271.1494" x2="270.2729" y2="317.769">
							<stop  offset="0" style="stop-color:#D1D3D4"/>
							<stop  offset="1" style="stop-color:#E6E7E8"/>
						</linearGradient>
						<path fill="url(#SVGID_42_)" d="M277.737,311.454h-14.928c-0.84,0-1.52-0.681-1.52-1.52c0-0.84,0.68-1.521,1.52-1.521h14.928
							c0.839,0,1.521,0.681,1.521,1.521C279.257,310.773,278.576,311.454,277.737,311.454z"/>
					</g>
					<g>
						<linearGradient id="SVGID_43_" gradientUnits="userSpaceOnUse" x1="257.1421" y1="271.1494" x2="257.1421" y2="317.769">
							<stop  offset="0" style="stop-color:#D1D3D4"/>
							<stop  offset="1" style="stop-color:#E6E7E8"/>
						</linearGradient>
						<path fill="url(#SVGID_43_)" d="M257.741,311.454h-1.198c-0.84,0-1.521-0.681-1.521-1.52c0-0.84,0.681-1.521,1.521-1.521
							h1.198c0.84,0,1.52,0.681,1.52,1.521C259.261,310.773,258.581,311.454,257.741,311.454z"/>
					</g>
				</g>
				<linearGradient id="SVGID_44_" gradientUnits="userSpaceOnUse" x1="275.8481" y1="271.1396" x2="275.8481" y2="317.7702">
					<stop  offset="0" style="stop-color:#D1D3D4"/>
					<stop  offset="1" style="stop-color:#E6E7E8"/>
				</linearGradient>
				<rect x="255.022" y="273.68" fill="url(#SVGID_44_)" width="41.651" height="12.139"/>
			</g>
			<g>
				<linearGradient id="SVGID_45_" gradientUnits="userSpaceOnUse" x1="301.314" y1="298.5898" x2="301.314" y2="165.146">
					<stop  offset="0" style="stop-color:#FFDE39"/>
					<stop  offset="0.0935" style="stop-color:#FFC63C"/>
					<stop  offset="0.2863" style="stop-color:#FE9843"/>
					<stop  offset="0.4154" style="stop-color:#FE7D4B"/>
					<stop  offset="0.6521" style="stop-color:#FE4F59"/>
					<stop  offset="1" style="stop-color:#ED327F"/>
				</linearGradient>
				<polygon fill="url(#SVGID_45_)" points="256.986,265.639 345.642,265.639 301.314,244.976 				"/>
				<linearGradient id="SVGID_46_" gradientUnits="userSpaceOnUse" x1="301.314" y1="298.5918" x2="301.314" y2="165.1479">
					<stop  offset="0" style="stop-color:#FFDE39"/>
					<stop  offset="0.0935" style="stop-color:#FFC63C"/>
					<stop  offset="0.2863" style="stop-color:#FE9843"/>
					<stop  offset="0.4154" style="stop-color:#FE7D4B"/>
					<stop  offset="0.6521" style="stop-color:#FE4F59"/>
					<stop  offset="1" style="stop-color:#ED327F"/>
				</linearGradient>
				<polygon fill="url(#SVGID_46_)" points="345.642,222.483 256.986,222.483 301.314,243.146 				"/>
				<linearGradient id="SVGID_47_" gradientUnits="userSpaceOnUse" x1="277.186" y1="298.5898" x2="277.186" y2="165.1491">
					<stop  offset="0" style="stop-color:#FFDE39"/>
					<stop  offset="0.0935" style="stop-color:#FFC63C"/>
					<stop  offset="0.2863" style="stop-color:#FE9843"/>
					<stop  offset="0.4154" style="stop-color:#FE7D4B"/>
					<stop  offset="0.6521" style="stop-color:#FE4F59"/>
					<stop  offset="1" style="stop-color:#ED327F"/>
				</linearGradient>
				<polygon fill="url(#SVGID_47_)" points="255.022,223.398 255.022,264.724 299.35,244.061 				"/>
				<linearGradient id="SVGID_48_" gradientUnits="userSpaceOnUse" x1="325.4404" y1="298.5898" x2="325.4404" y2="165.1491">
					<stop  offset="0" style="stop-color:#FFDE39"/>
					<stop  offset="0.0935" style="stop-color:#FFC63C"/>
					<stop  offset="0.2863" style="stop-color:#FE9843"/>
					<stop  offset="0.4154" style="stop-color:#FE7D4B"/>
					<stop  offset="0.6521" style="stop-color:#FE4F59"/>
					<stop  offset="1" style="stop-color:#ED327F"/>
				</linearGradient>
				<polygon fill="url(#SVGID_48_)" points="347.605,264.724 347.605,223.398 303.276,244.061 				"/>
				<polygon fill="#FFFFFF" points="347.605,264.724 303.276,244.061 301.314,244.976 345.642,265.639 347.605,265.639 				"/>
				<polygon fill="#FFFFFF" points="301.314,243.146 256.986,222.483 255.022,222.483 255.022,223.398 299.35,244.061 				"/>
				<polygon fill="#FFFFFF" points="299.35,244.061 255.022,264.724 255.022,265.639 256.986,265.639 301.314,244.976 				"/>
				<polygon fill="#FFFFFF" points="303.276,244.061 347.605,223.398 347.605,222.483 345.642,222.483 301.314,243.146 				"/>
				<polygon fill="#FFFFFF" points="299.35,244.061 301.314,244.976 303.276,244.061 301.314,243.146 				"/>
			</g>
		</g>
		<rect x="241.535" y="312.56" fill="#D1D3D4" width="11.333" height="11.333"/>
		<rect x="241.535" y="190.999" fill="#D1D3D4" width="11.333" height="11.334"/>
		<g>
			<rect x="349.757" y="312.56" fill="#D1D3D4" width="11.334" height="11.333"/>
			<rect x="349.757" y="190.999" fill="#D1D3D4" width="11.334" height="11.334"/>
		</g>
	</g>
</g>
<g>
	<g>
		
			<linearGradient id="SVGID_49_" gradientUnits="userSpaceOnUse" x1="1304.8389" y1="2431.0234" x2="1314.2705" y2="2431.0234" gradientTransform="matrix(0.9099 0.4147 -0.4147 0.9099 256.6162 -2666.2832)">
			<stop  offset="0" style="stop-color:#F1F2F2"/>
			<stop  offset="0.418" style="stop-color:#D6D7D7"/>
			<stop  offset="1" style="stop-color:#B5B5B5"/>
		</linearGradient>
		<polygon fill="url(#SVGID_49_)" points="434.851,88.781 443.432,92.691 445.218,88.774 436.637,84.863 		"/>
		
			<linearGradient id="SVGID_50_" gradientUnits="userSpaceOnUse" x1="1317.0596" y1="2426.1436" x2="1307.0255" y2="2426.1436" gradientTransform="matrix(0.9099 0.4147 -0.4147 0.9099 256.6162 -2666.2832)">
			<stop  offset="0" style="stop-color:#F1F2F2"/>
			<stop  offset="0.418" style="stop-color:#D6D7D7"/>
			<stop  offset="1" style="stop-color:#B5B5B5"/>
		</linearGradient>
		<polygon fill="url(#SVGID_50_)" points="438.897,79.9 436.637,84.863 445.218,88.774 447.479,83.812 		"/>
		
			<linearGradient id="SVGID_51_" gradientUnits="userSpaceOnUse" x1="1304.8379" y1="2420.6895" x2="1314.2686" y2="2420.6895" gradientTransform="matrix(0.9099 0.4147 -0.4147 0.9099 256.6162 -2666.2832)">
			<stop  offset="0" style="stop-color:#F1F2F2"/>
			<stop  offset="0.418" style="stop-color:#D6D7D7"/>
			<stop  offset="1" style="stop-color:#B5B5B5"/>
		</linearGradient>
		<path fill="url(#SVGID_51_)" d="M447.785,83.139c1.081-2.37,0.035-5.166-2.334-6.246c-2.371-1.08-5.167-0.034-6.246,2.335
			l-0.308,0.672l8.581,3.912L447.785,83.139z"/>
	</g>
	<g>
		
			<linearGradient id="SVGID_52_" gradientUnits="userSpaceOnUse" x1="1288.8535" y1="2505.7363" x2="1330.0518" y2="2505.7363" gradientTransform="matrix(0.9099 0.4147 -0.4147 0.9099 256.6162 -2666.2832)">
			<stop  offset="0" style="stop-color:#F1F2F2"/>
			<stop  offset="0.418" style="stop-color:#D6D7D7"/>
			<stop  offset="1" style="stop-color:#B5B5B5"/>
		</linearGradient>
		<path fill="url(#SVGID_52_)" d="M406.027,163.442c-0.277-0.126-0.522-0.327-0.705-0.586l-12.628-18.055
			c-0.552-0.787-0.36-1.872,0.428-2.423c0.787-0.55,1.872-0.358,2.423,0.429l12.037,17.208l20.663-2.299
			c0.955-0.106,1.817,0.582,1.922,1.537c0.107,0.955-0.581,1.815-1.537,1.921l-21.689,2.414
			C406.623,163.624,406.308,163.57,406.027,163.442z"/>
	</g>
	<g>
		<g>
			<g>
				
					<linearGradient id="SVGID_53_" gradientUnits="userSpaceOnUse" x1="1271.8467" y1="2495.916" x2="1304.9736" y2="2495.916" gradientTransform="matrix(0.9099 0.4147 -0.4147 0.9099 256.6162 -2666.2832)">
					<stop  offset="0" style="stop-color:#F1F2F2"/>
					<stop  offset="0.418" style="stop-color:#D6D7D7"/>
					<stop  offset="1" style="stop-color:#B5B5B5"/>
				</linearGradient>
				<path fill="url(#SVGID_53_)" d="M417.97,102.641l-52.297,59.186c-3.203,3.635-2.327,9.301,1.958,12.656l0,0l58.615-66.497
					L417.97,102.641z"/>
			</g>
		</g>
		<g>
			<g>
				
					<linearGradient id="SVGID_54_" gradientUnits="userSpaceOnUse" x1="1314.3682" y1="2495.9375" x2="1347.083" y2="2495.9375" gradientTransform="matrix(0.9099 0.4147 -0.4147 0.9099 256.6162 -2666.2832)">
					<stop  offset="0" style="stop-color:#F1F2F2"/>
					<stop  offset="0.418" style="stop-color:#D6D7D7"/>
					<stop  offset="1" style="stop-color:#B5B5B5"/>
				</linearGradient>
				<path fill="url(#SVGID_54_)" d="M443.604,116.034c0.125,0.775-9.922,76.789-9.922,76.789
					c-0.643,4.802-10.836,6.826-10.836,6.826l12.525-89.032L443.604,116.034z"/>
			</g>
		</g>
		<circle fill="#E1E1E5" cx="433.468" cy="104.003" r="14.669"/>
	</g>
	<g>
		<g>
			
				<linearGradient id="SVGID_55_" gradientUnits="userSpaceOnUse" x1="1289.3574" y1="2565.8809" x2="1289.3574" y2="2552.1262" gradientTransform="matrix(0.9099 0.4147 -0.4147 0.9099 256.6162 -2666.2832)">
				<stop  offset="0" style="stop-color:#F1F2F2"/>
				<stop  offset="0.418" style="stop-color:#D6D7D7"/>
				<stop  offset="1" style="stop-color:#B5B5B5"/>
			</linearGradient>
			<path fill="url(#SVGID_55_)" d="M359.639,184.599c-0.153-0.069-0.296-0.162-0.429-0.278c-0.722-0.636-0.79-1.734-0.155-2.456
				l60.196-68.316c0.636-0.721,1.732-0.791,2.455-0.156c0.72,0.635,0.79,1.735,0.154,2.456l-60.196,68.317
				C361.146,184.753,360.318,184.908,359.639,184.599z"/>
		</g>
	</g>
	<g>
		<g>
			
				<linearGradient id="SVGID_56_" gradientUnits="userSpaceOnUse" x1="1329.75" y1="2565.8809" x2="1329.75" y2="2552.1262" gradientTransform="matrix(0.9099 0.4147 -0.4147 0.9099 256.6162 -2666.2832)">
				<stop  offset="0" style="stop-color:#F1F2F2"/>
				<stop  offset="0.418" style="stop-color:#D6D7D7"/>
				<stop  offset="1" style="stop-color:#B5B5B5"/>
			</linearGradient>
			<path fill="url(#SVGID_56_)" d="M420.453,212.316c-0.679-0.31-1.106-1.036-1.002-1.814l12.073-90.25
				c0.127-0.952,1.002-1.621,1.955-1.493c0.951,0.128,1.621,1.002,1.493,1.955l-12.072,90.25c-0.128,0.953-1.003,1.621-1.956,1.494
				C420.771,212.434,420.606,212.385,420.453,212.316z"/>
		</g>
	</g>
	
		<linearGradient id="SVGID_57_" gradientUnits="userSpaceOnUse" x1="1292.7822" y1="2447.6025" x2="1327.0059" y2="2447.6025" gradientTransform="matrix(0.9099 0.4147 -0.4147 0.9099 256.6162 -2666.2832)">
		<stop  offset="0" style="stop-color:#F1F2F2"/>
		<stop  offset="0.418" style="stop-color:#D6D7D7"/>
		<stop  offset="1" style="stop-color:#B5B5B5"/>
	</linearGradient>
	<circle fill="url(#SVGID_57_)" cx="433.468" cy="104.003" r="17.111"/>
	
		<linearGradient id="SVGID_58_" gradientUnits="userSpaceOnUse" x1="1309.8926" y1="2462.3604" x2="1309.8926" y2="2440.5247" gradientTransform="matrix(0.9099 0.4147 -0.4147 0.9099 256.6162 -2666.2832)">
		<stop  offset="0" style="stop-color:#F1F2F2"/>
		<stop  offset="0.418" style="stop-color:#D6D7D7"/>
		<stop  offset="1" style="stop-color:#B5B5B5"/>
	</linearGradient>
	<circle fill="url(#SVGID_58_)" cx="433.468" cy="104.003" r="14.669"/>
	<g>
		<path fill="#FFFFFF" d="M433.466,108.157c-0.586,0-1.171-0.125-1.719-0.376c-1.01-0.459-1.779-1.285-2.168-2.324
			c-0.389-1.039-0.348-2.167,0.111-3.176c0.46-1.009,1.285-1.779,2.324-2.167c1.038-0.389,2.166-0.349,3.175,0.111
			c1.009,0.459,1.779,1.285,2.167,2.324c0.389,1.039,0.351,2.167-0.11,3.175c-0.46,1.009-1.286,1.779-2.323,2.167
			C434.448,108.069,433.957,108.157,433.466,108.157z M433.468,103.866c-0.015,0-0.032,0.002-0.048,0.008
			c-0.04,0.015-0.065,0.048-0.077,0.072c-0.011,0.024-0.018,0.066-0.005,0.105c0.017,0.04,0.049,0.067,0.073,0.078
			c0.023,0.01,0.065,0.018,0.105,0.003c0.039-0.015,0.066-0.048,0.077-0.071c0.011-0.025,0.02-0.066,0.003-0.106
			c-0.014-0.039-0.048-0.066-0.071-0.077C433.511,103.872,433.49,103.866,433.468,103.866z"/>
	</g>
</g>
<g>
	
		<linearGradient id="SVGID_59_" gradientUnits="userSpaceOnUse" x1="-228.3247" y1="766.0547" x2="-446.697" y2="837.6353" gradientTransform="matrix(0.9934 -0.115 0.115 0.9934 413.1123 -726.3501)">
		<stop  offset="0" style="stop-color:#42E397"/>
		<stop  offset="1" style="stop-color:#3CB6B5"/>
	</linearGradient>
	<path fill="url(#SVGID_59_)" d="M234.81,100.006L234.81,100.006c0-18.264-14.806-33.07-33.07-33.07h-77.405
		c-18.264,0-33.07,14.806-33.07,33.07l0,0c0,18.263,14.806,33.069,33.07,33.069h77.405c1.808,0,3.581-0.147,5.311-0.426
		c1.873,2.757,4.853,6.192,9.37,8.955c7.503,4.588,14.792,4.592,17.516,4.459c-2.948-2.117-8.661-6.829-12.542-14.942
		c-0.569-1.188-1.051-2.357-1.464-3.497C228.893,121.71,234.81,111.549,234.81,100.006z"/>
	<g>
		<g>
			<linearGradient id="SVGID_60_" gradientUnits="userSpaceOnUse" x1="119.8467" y1="43.0176" x2="191.6393" y2="114.8102">
				<stop  offset="0" style="stop-color:#FC9E18"/>
				<stop  offset="0.3131" style="stop-color:#FCAF18"/>
				<stop  offset="1" style="stop-color:#FCD118"/>
			</linearGradient>
			<circle fill="url(#SVGID_60_)" cx="163.036" cy="86.207" r="39.697"/>
			<linearGradient id="SVGID_61_" gradientUnits="userSpaceOnUse" x1="163.0366" y1="123.999" x2="163.0366" y2="75.9093">
				<stop  offset="0" style="stop-color:#FC9E18"/>
				<stop  offset="0.3131" style="stop-color:#FCAF18"/>
				<stop  offset="1" style="stop-color:#FCD118"/>
			</linearGradient>
			<circle fill="url(#SVGID_61_)" cx="163.036" cy="86.207" r="37.639"/>
			<g>
				<path fill="#FFFFFF" d="M138.937,62.165c-0.206,0-0.412-0.081-0.567-0.24c-0.304-0.313-0.296-0.813,0.017-1.117
					c2.175-2.111,4.611-3.937,7.243-5.426c0.38-0.215,0.862-0.081,1.078,0.298c0.214,0.38,0.081,0.862-0.299,1.077
					c-2.514,1.423-4.842,3.167-6.92,5.185C139.334,62.09,139.135,62.165,138.937,62.165z"/>
			</g>
			<g>
				<path fill="#FFFFFF" d="M134.814,66.967c-0.159,0-0.318-0.047-0.458-0.146c-0.355-0.253-0.439-0.747-0.186-1.102
					c0.611-0.859,1.269-1.702,1.956-2.505c0.283-0.332,0.782-0.371,1.114-0.087c0.332,0.284,0.371,0.783,0.087,1.114
					c-0.656,0.768-1.285,1.572-1.869,2.394C135.304,66.852,135.061,66.967,134.814,66.967z"/>
			</g>
			<g>
				<circle fill="#414042" cx="150.254" cy="73.678" r="3.52"/>
				<circle fill="#414042" cx="175.819" cy="73.678" r="3.52"/>
			</g>
			<linearGradient id="SVGID_62_" gradientUnits="userSpaceOnUse" x1="163.0366" y1="109.1328" x2="163.0366" y2="77.7263">
				<stop  offset="0" style="stop-color:#FFDE39"/>
				<stop  offset="0.0935" style="stop-color:#FFC63C"/>
				<stop  offset="0.2863" style="stop-color:#FE9843"/>
				<stop  offset="0.4154" style="stop-color:#FE7D4B"/>
				<stop  offset="0.6521" style="stop-color:#FE4F59"/>
				<stop  offset="1" style="stop-color:#ED327F"/>
			</linearGradient>
			<path fill="url(#SVGID_62_)" d="M143.584,86.207c0,7.756,4.54,14.449,11.105,17.573c1.479-2.571,4.457-6.939,9.744-10.522
				c7.438-5.041,14.947-5.477,17.989-5.485c0.042-0.517,0.065-1.038,0.065-1.566H143.584z"/>
		</g>
		<g>
			<path fill="#EF4136" d="M159.599,105.354c1.116,0.2,2.264,0.306,3.438,0.306c9.201,0,16.904-6.391,18.927-14.974
				c0.223-0.946,0.378-1.919,0.459-2.913c-3.377,0.826-9.729,2.882-15.637,8.305C163.208,99.362,160.965,102.807,159.599,105.354z"
				/>
			<linearGradient id="SVGID_63_" gradientUnits="userSpaceOnUse" x1="167.0605" y1="93.8311" x2="172.3289" y2="100.6799">
				<stop  offset="0" style="stop-color:#EF4136"/>
				<stop  offset="1" style="stop-color:#B33129"/>
			</linearGradient>
			<path fill="url(#SVGID_63_)" d="M164.434,93.258c-5.287,3.583-8.265,7.951-9.744,10.522c1.536,0.73,3.183,1.265,4.909,1.574
				c1.367-2.547,3.61-5.992,7.188-9.276c5.907-5.423,12.26-7.479,15.637-8.305l0,0C179.381,87.782,171.872,88.217,164.434,93.258z"
				/>
		</g>
		<g>
			<path fill="#414042" d="M162.968,87.55c-2.73,3.59-6.607,4.886-11.076,4.828c-2.997-0.039-5.632-1.027-7.766-3.173
				c-1.375-1.383-2.251-3.072-2.69-4.964c-0.059-0.251,0.206-0.731,0.45-0.856c0.239-0.123,0.716-0.03,0.956,0.148
				c0.458,0.34,0.808,0.823,1.229,1.218c1.293,1.212,2.64,1.323,4.046,0.195c1.1-0.882,2.055-1.942,3.128-2.86
				c1.12-0.958,2.223-1.976,3.478-2.725c1.988-1.188,4.145-1.399,6.234-0.204c0.779,0.445,1.42,1.133,2.087,1.681
				c0.603-0.5,1.249-1.199,2.033-1.66c2.109-1.239,4.241-0.906,6.309,0.171c1.662,0.866,2.906,2.25,4.244,3.515
				c0.716,0.677,1.415,1.38,2.186,1.989c1.552,1.224,2.844,1.147,4.31-0.19c0.331-0.302,0.615-0.656,0.928-0.979
				c0.316-0.328,0.674-0.574,1.132-0.288c0.432,0.271,0.554,0.656,0.394,1.165c-1.336,4.253-4.142,6.874-8.565,7.63
				c-3.752,0.641-7.264-0.102-10.422-2.213C164.598,89.312,163.809,88.342,162.968,87.55z"/>
		</g>
		<g>
			<g>
				<path fill="#58595B" d="M207.829,62.84c-0.017,0.202-0.039,0.401-0.071,0.601c-0.526,3.315-3.108,6.054-6.177,7.205
					c-3.069,1.151-6.531,0.862-9.619-0.267c-3.087-1.128-5.847-3.045-8.419-5.135c-3.009-2.444-5.919-5.215-9.555-6.46
					c-4.837-1.658-10.205-0.353-15.149-1.63c-2.688-0.694-5.152-2.134-7.354-3.868c-1.452-1.143-2.818-2.438-3.816-4.013
					c-0.335-0.528-0.616-1.083-0.856-1.657c0.038,2.237,0.618,4.445,1.809,6.325c0.998,1.575,2.365,2.87,3.817,4.013
					c2.202,1.734,4.667,3.174,7.354,3.869c4.944,1.277,10.311-0.028,15.148,1.629c3.636,1.246,6.546,4.017,9.555,6.461
					c2.572,2.09,5.332,4.006,8.419,5.135c3.087,1.128,6.549,1.417,9.619,0.266s5.65-3.89,6.177-7.204
					C208.996,66.318,208.647,64.456,207.829,62.84z"/>
				<path fill="#414042" d="M151.484,53.286c2.203,1.734,4.667,3.174,7.354,3.868c4.944,1.277,10.312-0.028,15.149,1.63
					c3.636,1.245,6.546,4.016,9.555,6.46c2.573,2.09,5.332,4.007,8.419,5.135c3.088,1.128,6.55,1.418,9.619,0.267
					c3.069-1.151,5.65-3.889,6.177-7.205c0.032-0.2,0.054-0.399,0.071-0.601c-0.537-1.06-1.275-2.015-2.176-2.771
					c-2.917-2.446-7.087-2.812-10.019-5.238c-4.057-3.356-4.515-9.425-6.914-14.172c-3.155-6.243-10.125-9.578-17.502-10.147
					c-9.214-0.711-19.063,2.892-22.909,10.529c-1.013,2.011-1.533,4.308-1.496,6.574c0.24,0.573,0.521,1.129,0.856,1.657
					C148.666,50.848,150.033,52.143,151.484,53.286z"/>
			</g>
			<path fill="#414042" d="M186.433,54.539c0,0,8.15-9.367,16.3-5.971l-1.287,3.97c-1.321-0.514-3.382-1.116-5.934-1.073
				C190.971,51.541,187.722,53.609,186.433,54.539z"/>
		</g>
	</g>
</g>
</svg>
