<?xml version="1.0" encoding="utf-8"?>
<!-- Generator: Adobe Illustrator 16.0.3, SVG Export Plug-In . SVG Version: 6.00 Build 0)  -->
<!DOCTYPE svg PUBLIC "-//W3C//DTD SVG 1.1//EN" "http://www.w3.org/Graphics/SVG/1.1/DTD/svg11.dtd">
<svg version="1.1" id="Ebene_1" xmlns="http://www.w3.org/2000/svg" xmlns:xlink="http://www.w3.org/1999/xlink" x="0px" y="0px"
	 width="140px" height="120px" viewBox="0 0 140 120" enable-background="new 0 0 140 120" xml:space="preserve">
<g>
	<g>
		<g>
			<circle fill="#E5E9FF" cx="69.594" cy="62.142" r="51.957"/>
		</g>
		<g>
			<path fill="#E5E9FF" d="M69.363,20.668H36.178c-2.806,0-5.081-2.274-5.081-5.08l0,0c0-2.805,2.275-5.081,5.081-5.081h33.185
				c2.804,0,5.079,2.276,5.079,5.081l0,0C74.441,18.394,72.167,20.668,69.363,20.668z"/>
		</g>
		<g>
			<path fill="#E5E9FF" d="M27.871,92.209h21.324c2.198,0,3.98,1.782,3.98,3.981l0,0c0,2.197-1.782,3.979-3.98,3.979H27.871
				c-2.198,0-3.98-1.782-3.98-3.979l0,0C23.891,93.991,25.673,92.209,27.871,92.209z"/>
		</g>
		<g>
			<path fill="#E5E9FF" d="M23.597,107.902h31.596c1.425,0,2.58,1.156,2.58,2.58l0,0c0,1.425-1.154,2.581-2.58,2.581H23.597
				c-1.424,0-2.58-1.156-2.58-2.581l0,0C21.018,109.059,22.173,107.902,23.597,107.902z"/>
		</g>
		<g>
			<path fill="#E5E9FF" d="M92.457,113.063h5.125c1.342,0,2.428,1.086,2.428,2.426v0.307c0,1.341-1.086,2.427-2.428,2.427h-5.125
				c-1.341,0-2.429-1.086-2.429-2.427v-0.307C90.028,114.149,91.116,113.063,92.457,113.063z"/>
		</g>
		<g>
			<path fill="#E5E9FF" d="M65.865,97.801h48.079c2.199,0,3.98,1.783,3.98,3.982v0.5c0,2.199-1.781,3.981-3.98,3.981H65.865
				c-2.199,0-3.982-1.782-3.982-3.981v-0.5C61.882,99.584,63.666,97.801,65.865,97.801z"/>
		</g>
		<g>
			<path fill="#E5E9FF" d="M32.409,100.113h14.857c-1.097,0-2.095,0.475-2.814,1.192c-0.722,0.723-1.168,1.575-1.168,2.676
				c0,2.199,1.785,3.837,3.982,3.837H32.409c1.098,0,2.092-0.291,2.814-1.006c0.719-0.72,1.165-1.667,1.165-2.768
				C36.388,101.844,34.607,100.113,32.409,100.113z"/>
		</g>
		<g>
			<path fill="#E5E9FF" d="M93.35,54.738h38.302c3.948,0,7.151,3.201,7.151,7.15l0,0c0,3.947-3.203,7.148-7.151,7.148H93.35
				c-3.948,0-7.149-3.201-7.149-7.148l0,0C86.2,57.939,89.401,54.738,93.35,54.738z"/>
		</g>
		<g>
			<path fill="#E5E9FF" d="M77.015,82.811h56.751c2.559,0,4.634,2.075,4.634,4.634l0,0c0,2.559-2.075,4.635-4.634,4.635H77.015
				c-2.56,0-4.635-2.076-4.635-4.635l0,0C72.38,84.886,74.455,82.811,77.015,82.811z"/>
		</g>
		<g>
			<path fill="#E5E9FF" d="M101.954,69.012h26.685c-1.969,0-3.762,0.775-5.054,2.066c-1.297,1.297-2.099,2.823-2.099,4.8
				c0,3.948,3.205,6.888,7.152,6.888h-26.685c1.971,0,3.758-0.557,5.054-1.843c1.291-1.291,2.093-2.933,2.093-4.91
				C109.101,72.059,105.899,69.012,101.954,69.012z"/>
		</g>
		<g>
			<path fill="#E5E9FF" d="M58.64,48.444H13.757c-4.192,0-7.591-3.398-7.591-7.591l0,0c0-4.192,3.399-7.59,7.591-7.59H58.64
				c4.191,0,7.591,3.398,7.591,7.59l0,0C66.23,45.045,62.831,48.444,58.64,48.444z"/>
		</g>
		<g>
			<path fill="#E5E9FF" d="M77.335,91.235h-64.86c-6.059,0-10.969-4.911-10.969-10.97l0,0c0-6.057,4.911-10.969,10.969-10.969h64.86
				c6.056,0,10.969,4.912,10.969,10.969l0,0C88.304,86.324,83.391,91.235,77.335,91.235z"/>
		</g>
		<g>
			<path fill="#E5E9FF" d="M114.034,31.141H78.224c-3.344,0-6.055-2.711-6.055-6.056l0,0c0-3.344,2.711-6.056,6.055-6.056h35.811
				c3.344,0,6.055,2.712,6.055,6.056l0,0C120.089,28.43,117.378,31.141,114.034,31.141z"/>
		</g>
		<g>
			<path fill="#E5E9FF" d="M103.019,10.186h-8.504c-1.82,0-3.297-1.476-3.297-3.296l0,0c0-1.819,1.477-3.295,3.297-3.295h8.504
				c1.82,0,3.294,1.476,3.294,3.295l0,0C106.313,8.71,104.839,10.186,103.019,10.186z"/>
		</g>
	</g>
	<g>
		<g id="XMLID_305_">
			<g id="XMLID_307_">
				<g>
					<g>
						<g>
							<path fill-rule="evenodd" clip-rule="evenodd" fill="#FFFFFF" d="M32.663,44.448c-0.093-0.237-2.907-4.7-2.907-4.7
								s-2.694,4.331-2.87,4.7H32.663z"/>
						</g>
					</g>
				</g>
			</g>
			<g id="XMLID_306_">
				<g>
					<g>
						<g>
							<polygon fill-rule="evenodd" clip-rule="evenodd" fill="#121F55" points="28.378,42.008 31.148,42 29.756,39.748 							"/>
						</g>
					</g>
				</g>
			</g>
		</g>
		<g id="XMLID_304_">
			<g>
				<g>
					<g>
						<polygon fill-rule="evenodd" clip-rule="evenodd" fill="#2143AF" points="32.663,44.614 26.87,44.631 26.882,85.807 
							32.663,85.807 						"/>
					</g>
				</g>
			</g>
		</g>
		<g id="XMLID_303_">
			<g>
				<g>
					<g>
						<polygon fill-rule="evenodd" clip-rule="evenodd" fill="#566CD3" points="30.761,44.614 28.771,44.631 28.776,85.807 
							30.761,85.807 						"/>
					</g>
				</g>
			</g>
		</g>
		<g>
			<g>
				<g>
					<path fill-rule="evenodd" clip-rule="evenodd" fill="#F7B75D" d="M26.862,85.807v1.269c0,1.169,0.956,2.124,2.123,2.124h1.618
						c1.167,0,2.124-0.955,2.124-2.124v-1.269H26.862z"/>
				</g>
			</g>
		</g>
	</g>
	<g>
		<g>
			<polygon fill="#FFFFFF" points="23.523,71.752 48.666,71.725 48.556,87.293 23.852,87.293 			"/>
		</g>
		<g>
			<g>
				<g>
					<g>
						<g>
							<rect x="44.553" y="71.904" fill-rule="evenodd" clip-rule="evenodd" fill="#2143AF" width="4.127" height="5.302"/>
						</g>
					</g>
				</g>
			</g>
			<g>
				<g>
					<g>
						<g>
							<rect x="38.167" y="71.904" fill-rule="evenodd" clip-rule="evenodd" fill="#2143AF" width="4.916" height="5.302"/>
						</g>
					</g>
				</g>
			</g>
		</g>
		<g>
			<polygon fill="#FFFFFF" points="23.523,89.199 48.666,89.199 39.778,80.841 32.458,80.841 			"/>
		</g>
		<g>
			<polygon fill="#B9B8F1" points="23.541,89.193 23.541,71.823 32.474,80.841 			"/>
		</g>
		<g>
			<polygon fill="#B9B8F1" points="48.68,89.193 48.68,71.904 39.778,80.841 			"/>
		</g>
	</g>
	<g>
		<g>
			<path fill="#FFFFFF" d="M116.307,41.253c0,0-3.2,2.118-3.2,5.353h-3.521c0-3.235-3.199-5.343-3.199-5.343l4.961-5.744
				L116.307,41.253z"/>
		</g>
		<g>
			<path fill="#566CD3" d="M111.601,40.581v-4.613l-0.33-0.491l-0.387,0.577v4.559c-0.36,0.186-0.635,0.559-0.635,0.992
				c0,0.619,0.489,1.121,1.109,1.121c0.619,0,1.015-0.501,1.015-1.121C112.373,41.146,112.32,40.755,111.601,40.581z"/>
		</g>
		<g>
			<g>
				<path fill="#2143AF" d="M108.557,84.374v2.036c0,1.54,1.249,2.789,2.79,2.789l0,0c1.539,0,2.788-1.249,2.788-2.789v-2.036
					H108.557z"/>
			</g>
		</g>
		<g>
			<g>
				<path fill="#566CD3" d="M113.24,54.483v-7.771h-3.787v7.771l0,0c-0.498,0-0.896,0.401-0.896,0.896v29.189h5.578V55.378
					C114.135,54.884,113.733,54.483,113.24,54.483z"/>
			</g>
		</g>
	</g>
	<g>
		<g>
			<g>
				<g>
					<g>
						<path fill="#B9B8F1" d="M74.642,83.415v-4.408c0-0.167-0.136-0.301-0.303-0.301H62.242c-0.167,0-0.302,0.134-0.302,0.301
							v4.408c0,2.991-3.199,4.484-5.703,5.195c-0.337,0.096-0.267,0.589,0.083,0.589h24.751c0.343,0,0.42-0.481,0.095-0.586
							C78.608,87.784,74.642,86.073,74.642,83.415z"/>
					</g>
				</g>
			</g>
		</g>
		<g>
			<g>
				<g>
					<g>
						<path fill="#566CD3" d="M98.384,35.402H38.198c-1.043,0-1.889,0.865-1.889,1.934v38.19h63.963v-38.19
							C100.271,36.267,99.425,35.402,98.384,35.402z"/>
					</g>
				</g>
			</g>
		</g>
		<g>
			<g>
				<g>
					<g>
						<rect x="39.379" y="38.245" fill="#FFFFFF" width="57.898" height="34.417"/>
					</g>
				</g>
			</g>
		</g>
		<g>
			<g>
				<g>
					<g>
						<g>
							<rect x="39.371" y="38.245" fill-rule="evenodd" clip-rule="evenodd" fill="#E5E9FF" width="28.161" height="10.653"/>
						</g>
					</g>
				</g>
			</g>
			<g>
				<g>
					<g>
						<g>
							<rect x="87.723" y="38.245" fill-rule="evenodd" clip-rule="evenodd" fill="#E5E9FF" width="9.568" height="10.653"/>
						</g>
					</g>
				</g>
			</g>
			<g>
				<g>
					<g>
						<g>
							<rect x="72.916" y="38.245" fill-rule="evenodd" clip-rule="evenodd" fill="#E5E9FF" width="11.396" height="10.653"/>
						</g>
					</g>
				</g>
			</g>
		</g>
		<g>
			<g>
				<g>
					<g>
						<path fill="#FFFFFF" d="M36.309,75.149v2.479c0,1.067,0.846,1.934,1.889,1.934h60.186c1.041,0,1.888-0.866,1.888-1.934v-2.479
							H36.309z"/>
					</g>
				</g>
			</g>
		</g>
		<g>
			<g>
				<g>
					<g>
						<rect x="39.379" y="38.245" fill="#E5E9FF" width="57.912" height="3.142"/>
					</g>
				</g>
			</g>
		</g>
	</g>
	<g>
		<g>
			<g>
				<g>
					<rect x="46.073" y="66.823" fill="#F7B75D" width="44.589" height="5.838"/>
				</g>
			</g>
		</g>
		<g>
			<g>
				<g>
					<rect x="47.127" y="66.824" fill="#566CD3" width="0.771" height="2.918"/>
				</g>
			</g>
			<g>
				<g>
					<rect x="48.766" y="66.824" fill="#566CD3" width="0.771" height="1.667"/>
				</g>
			</g>
			<g>
				<g>
					<rect x="49.995" y="66.824" fill="#566CD3" width="0.771" height="2.918"/>
				</g>
			</g>
			<g>
				<g>
					<rect x="51.633" y="66.824" fill="#566CD3" width="0.771" height="1.667"/>
				</g>
			</g>
			<g>
				<g>
					<rect x="53.272" y="66.824" fill="#566CD3" width="0.771" height="2.918"/>
				</g>
			</g>
			<g>
				<g>
					<rect x="54.5" y="66.824" fill="#566CD3" width="0.771" height="1.667"/>
				</g>
			</g>
			<g>
				<g>
					<rect x="56.14" y="66.824" fill="#566CD3" width="0.771" height="2.918"/>
				</g>
			</g>
			<g>
				<g>
					<rect x="57.778" y="66.824" fill="#566CD3" width="0.771" height="1.667"/>
				</g>
			</g>
			<g>
				<g>
					<rect x="59.007" y="66.824" fill="#566CD3" width="0.771" height="2.918"/>
				</g>
			</g>
			<g>
				<g>
					<rect x="60.646" y="66.824" fill="#566CD3" width="0.771" height="1.667"/>
				</g>
			</g>
			<g>
				<g>
					<rect x="61.874" y="66.824" fill="#566CD3" width="0.771" height="2.918"/>
				</g>
			</g>
			<g>
				<g>
					<rect x="63.513" y="66.824" fill="#566CD3" width="0.771" height="1.667"/>
				</g>
			</g>
			<g>
				<g>
					<rect x="65.152" y="66.824" fill="#566CD3" width="0.771" height="2.918"/>
				</g>
			</g>
			<g>
				<g>
					<rect x="66.38" y="66.824" fill="#566CD3" width="0.771" height="1.667"/>
				</g>
			</g>
			<g>
				<g>
					<rect x="68.02" y="66.824" fill="#566CD3" width="0.771" height="2.918"/>
				</g>
			</g>
			<g>
				<g>
					<rect x="69.659" y="66.824" fill="#566CD3" width="0.771" height="1.667"/>
				</g>
			</g>
			<g>
				<g>
					<rect x="70.887" y="66.824" fill="#566CD3" width="0.771" height="2.918"/>
				</g>
			</g>
			<g>
				<g>
					<rect x="72.525" y="66.824" fill="#566CD3" width="0.771" height="1.667"/>
				</g>
			</g>
			<g>
				<g>
					<rect x="74.165" y="66.824" fill="#566CD3" width="0.771" height="2.918"/>
				</g>
			</g>
			<g>
				<g>
					<rect x="75.393" y="66.824" fill="#566CD3" width="0.771" height="1.667"/>
				</g>
			</g>
			<g>
				<g>
					<rect x="77.032" y="66.824" fill="#566CD3" width="0.771" height="2.918"/>
				</g>
			</g>
			<g>
				<g>
					<rect x="78.26" y="66.824" fill="#566CD3" width="0.771" height="1.667"/>
				</g>
			</g>
			<g>
				<g>
					<rect x="79.9" y="66.824" fill="#566CD3" width="0.771" height="2.918"/>
				</g>
			</g>
			<g>
				<g>
					<rect x="81.538" y="66.824" fill="#566CD3" width="0.771" height="1.667"/>
				</g>
			</g>
			<g>
				<g>
					<rect x="82.768" y="66.824" fill="#566CD3" width="0.771" height="2.918"/>
				</g>
			</g>
			<g>
				<g>
					<rect x="84.405" y="66.824" fill="#566CD3" width="0.771" height="1.667"/>
				</g>
			</g>
			<g>
				<g>
					<rect x="86.046" y="66.824" fill="#566CD3" width="0.771" height="2.918"/>
				</g>
			</g>
			<g>
				<g>
					<rect x="87.273" y="66.824" fill="#566CD3" width="0.771" height="1.667"/>
				</g>
			</g>
			<g>
				<g>
					<rect x="88.913" y="66.824" fill="#566CD3" width="0.769" height="2.918"/>
				</g>
			</g>
		</g>
	</g>
	<g>
		<g>
			<g>
				<g>
					<g>
						<path fill-rule="evenodd" clip-rule="evenodd" fill="#B9B8F1" d="M94.381,60.395h10.537c1.402,0,2.552,1.147,2.552,2.552v23.7
							c0,1.405-1.149,2.553-2.552,2.553H94.381c-1.401,0-2.552-1.147-2.552-2.553v-23.7C91.829,61.542,92.979,60.395,94.381,60.395z
							"/>
					</g>
				</g>
			</g>
		</g>
		<g>
			<g>
				<g>
					<g>
						<rect x="92.915" y="63.44" fill-rule="evenodd" clip-rule="evenodd" fill="#FFFFFF" width="13.471" height="22.652"/>
					</g>
				</g>
			</g>
		</g>
		<g>
			<g>
				<g>
					<g>
						<rect x="92.915" y="63.44" fill-rule="evenodd" clip-rule="evenodd" fill="#E5E9FF" width="6.549" height="5.862"/>
					</g>
				</g>
			</g>
		</g>
		<g>
			<g>
				<g>
					<g>
						<rect x="92.915" y="63.44" fill-rule="evenodd" clip-rule="evenodd" fill="#E5E9FF" width="12.359" height="1.962"/>
					</g>
				</g>
			</g>
		</g>
		<g>
			<g>
				<g>
					<g>
						<rect x="104.159" y="63.44" fill-rule="evenodd" clip-rule="evenodd" fill="#E5E9FF" width="2.227" height="5.862"/>
					</g>
				</g>
			</g>
		</g>
		<g>
			<g>
				<g>
					<g>
						<rect x="100.715" y="63.44" fill-rule="evenodd" clip-rule="evenodd" fill="#E5E9FF" width="2.652" height="5.862"/>
					</g>
				</g>
			</g>
		</g>
		<g>
			<circle fill-rule="evenodd" clip-rule="evenodd" fill="#566CD3" cx="99.465" cy="87.634" r="1.047"/>
		</g>
	</g>
	<g>
		<g>
			<g>
				<path fill="#8EDEF2" d="M101.44,54.08l0.802,3.066l2.626,1.095l-0.37,0.888l-2.847-1.187c-0.137-0.057-0.241-0.177-0.28-0.322
					l-0.861-3.298c-0.066-0.255,0.085-0.515,0.341-0.581l0.009-0.003C101.115,53.672,101.375,53.825,101.44,54.08z"/>
			</g>
		</g>
		<g>
			<g>
				<path fill="#121F55" d="M103.854,62.733c0,0,0.095-0.131,0.255-0.363c0.159-0.233,0.394-0.563,0.663-0.966
					c0.272-0.401,0.584-0.872,0.915-1.378c0.163-0.255,0.333-0.517,0.506-0.784l0.065-0.1l0.031-0.052
					c0.014-0.024,0.008,0,0.071-0.124c0.091-0.188,0.114-0.432,0.055-0.64c-0.057-0.209-0.181-0.388-0.358-0.516
					c-0.178-0.126-0.402-0.197-0.654-0.167l-0.016,0.001h-0.004l-0.06,0.011l-0.008,0.002l-0.031,0.004l-0.059,0.011l-0.235,0.044
					c-0.638,0.12-1.271,0.241-1.863,0.36c-0.296,0.06-0.583,0.119-0.854,0.174c-0.271,0.057-0.528,0.111-0.765,0.161
					c-0.475,0.1-0.866,0.192-1.143,0.253c-0.275,0.062-0.432,0.101-0.432,0.101c-0.388,0.097-0.646,0.478-0.577,0.879
					c0.071,0.42,0.471,0.703,0.891,0.632c0,0,0.158-0.027,0.436-0.079c0.277-0.054,0.674-0.126,1.148-0.222
					c0.238-0.048,0.493-0.1,0.767-0.156c0.271-0.058,0.558-0.117,0.854-0.179c0.291-0.063,0.591-0.128,0.896-0.196
					c-0.259,0.462-0.499,0.896-0.704,1.274c-0.232,0.425-0.417,0.785-0.551,1.033c-0.133,0.251-0.205,0.396-0.205,0.396
					c-0.122,0.243-0.052,0.546,0.175,0.712C103.316,63.042,103.669,62.985,103.854,62.733z"/>
			</g>
		</g>
		<g id="_x38_._Right_shoe_232_">
			<g>
				<g>
					<circle fill="#F7B75D" cx="103.321" cy="62.266" r="0.773"/>
				</g>
			</g>
			<g>
				<g>
					<path fill="#F7B75D" d="M104.392,65.114l-1.692-2.39c-0.18-0.253-0.12-0.604,0.134-0.781l0,0
						c0.252-0.18,1.036-0.242,1.216,0.012l0.952,2.796c0.106,0.307-0.217,0.607-0.503,0.454
						C104.453,65.182,104.419,65.152,104.392,65.114z"/>
				</g>
			</g>
			<g>
				<g>
					<path fill="#FFFFFF" d="M104.213,63.02L104.213,63.02c0.01-0.08,0.094-0.133,0.171-0.107l0.284,0.092
						c0.059,0.02,0.098,0.079,0.09,0.141l0,0c-0.01,0.081-0.094,0.133-0.169,0.108l-0.286-0.093
						C104.244,63.142,104.206,63.083,104.213,63.02z"/>
				</g>
			</g>
			<g>
				<g>
					<path fill="#FFFFFF" d="M104.163,63.438L104.163,63.438c0.01-0.081,0.091-0.134,0.168-0.108l0.285,0.093
						c0.06,0.019,0.097,0.077,0.089,0.139l0,0c-0.01,0.082-0.091,0.134-0.168,0.108l-0.285-0.092
						C104.192,63.558,104.155,63.499,104.163,63.438z"/>
				</g>
			</g>
			<g>
				<g>
					<circle fill="#2747B3" cx="103.322" cy="62.266" r="0.464"/>
				</g>
			</g>
		</g>
		<g>
			<g>
				<path fill="#2747B3" d="M100.006,52.105l-0.087,0.638l-0.14-0.045c-0.106-0.034-0.178-0.133-0.178-0.246l0,0
					c0-0.076-0.035-0.146-0.091-0.195l-0.36-0.369c-0.149-0.153-0.254-0.347-0.287-0.559c-0.024-0.158-0.014-0.33,0.088-0.464
					c0.143-0.184-0.341-0.69,0.001-1.116c0.155-0.191,0.399-0.333,0.5-0.54c0.335-0.688,0.839-0.635,1.19-0.386
					c0.314,0.221,0.449-0.227,1.065-0.15c0.479,0.06,0.67,0.401,0.631,0.686c0,0,0.815,0.034,0.815,0.945
					c0,0.912-0.964,1.026-0.964,1.026L100.006,52.105z"/>
			</g>
		</g>
		<g>
			<g>
				<polygon fill="#F99AB6" points="100.997,51.422 100.861,52.963 100.771,53.97 99.592,53.867 99.86,51.409 99.938,50.708 				"/>
			</g>
		</g>
		<g>
			<g>
				<g>
					<path fill="#F99AB6" d="M100.061,52.191v0.246c0.191,0.242,0.493,0.429,0.801,0.526l0.068-0.772H100.061z"/>
				</g>
			</g>
		</g>
		<g>
			<g>
				<path fill="#F99AB6" d="M101.316,52.912h0.192c0.418,0,0.908-0.813,0.908-1.23c0-0.499-0.043-0.751,0-1.088
					c0.058-0.461-0.378-0.843-0.843-0.843h-0.943c-0.354,0-0.643,0.288-0.643,0.642v1.531
					C99.988,52.469,100.771,52.912,101.316,52.912z"/>
			</g>
		</g>
		<g>
			<g>
				<path fill="#2747B3" d="M101.435,49.75c0,0,0.086,0.697-1.092,0.654c0,0,0.035,1.375-0.585,1.475l-0.11-0.463
					c0,0-0.255-1.509,0.315-1.765C100.534,49.396,101.435,49.75,101.435,49.75z"/>
			</g>
		</g>
		<g>
			<g>
				<path fill="#F99AB6" d="M99.363,53.212c0.13-0.08,0.286-0.116,0.447-0.091l0.521,0.082c0.254,0.04,0.48,0.141,0.672,0.285
					C100.455,53.624,99.805,53.543,99.363,53.212z"/>
			</g>
		</g>
		<g>
			<g>
				<path fill="#8EDEF2" d="M98.54,54.137c0.043-0.41,0.426-0.805,0.823-0.925c0.441,0.331,1.092,0.412,1.64,0.275
					c0.43,0.324,0.672,0.867,0.581,1.435l-0.552,3.118l-2.813-0.381C98.219,57.659,98.438,55.068,98.54,54.137z"/>
			</g>
		</g>
		<g>
			<g>
				<path fill="#121F55" d="M108.941,63.067c0,0-0.108-0.12-0.302-0.327c-0.195-0.208-0.469-0.508-0.806-0.858
					c-0.335-0.353-2.189-2.229-2.189-2.229l-0.041-0.038c-0.029-0.024-0.058-0.049-0.087-0.071
					c-0.061-0.045-0.122-0.087-0.189-0.125c-0.13-0.075-0.273-0.131-0.421-0.166c-0.036-0.009-0.073-0.017-0.11-0.023
					c-0.018-0.003-3.159-0.297-3.431-0.363c-0.477-0.116-0.3-1.013-0.3-1.013L98.24,57.42c-0.021,0.405-0.281,0.797-0.353,1.061
					c-0.114,0.422-0.045,0.85,0.157,1.2c0.203,0.351,0.538,0.625,0.96,0.739c0.207,0.056,0.414,0.066,0.614,0.041
					c0.075,0.007,0.189,0.017,0.339,0.029c0.282,0.021,0.685,0.056,1.171,0.087c0.242,0.017,0.506,0.033,0.782,0.05
					c0.279,0.017,0.571,0.033,0.873,0.051c0.305,0.015,0.618,0.031,0.936,0.047c0.274,0.012,0.556,0.024,0.836,0.037
					c0.01,0.001,0.02,0.003,0.031,0.007c0.004,0.001,0.01,0.003,0.016,0.006l0.006,0.003c0.002,0.001,0.002,0.002,0.004,0.003
					l0.002,0.001l0.012,0.009c0.118,0.108,0.238,0.216,0.356,0.323c0.236,0.213,0.47,0.422,0.694,0.626
					c0.453,0.404,0.882,0.779,1.249,1.097c0.366,0.319,0.678,0.578,0.895,0.762c0.219,0.183,0.345,0.285,0.345,0.285
					c0.209,0.171,0.523,0.17,0.73-0.018C109.13,63.657,109.148,63.302,108.941,63.067z"/>
			</g>
		</g>
		<g id="_x38_._Right_shoe_231_">
			<g>
				<g>
					<circle fill="#F7B75D" cx="108.663" cy="63.662" r="0.773"/>
				</g>
			</g>
			<g>
				<g>
					<path fill="#F7B75D" d="M111.699,63.469l-2.781,0.924c-0.292,0.097-0.611-0.063-0.708-0.356l0,0
						c-0.097-0.294,0.071-1.062,0.366-1.16l2.952-0.098c0.325-0.012,0.518,0.387,0.287,0.616
						C111.782,63.429,111.743,63.454,111.699,63.469z"/>
				</g>
			</g>
			<g>
				<g>
					<path fill="#FFFFFF" d="M109.54,63.198L109.54,63.198c-0.081,0-0.144-0.074-0.128-0.154l0.057-0.294
						c0.011-0.062,0.065-0.105,0.127-0.105l0,0c0.082,0,0.144,0.074,0.128,0.154l-0.056,0.294
						C109.656,63.154,109.602,63.198,109.54,63.198z"/>
				</g>
			</g>
			<g>
				<g>
					<path fill="#FFFFFF" d="M109.96,63.198L109.96,63.198c-0.081,0-0.144-0.074-0.128-0.154l0.057-0.294
						c0.012-0.062,0.065-0.105,0.128-0.105l0,0c0.083,0,0.143,0.074,0.128,0.154l-0.057,0.294
						C110.076,63.154,110.022,63.198,109.96,63.198z"/>
				</g>
			</g>
			<g>
				<g>
					<circle fill="#2747B3" cx="108.662" cy="63.662" r="0.464"/>
				</g>
			</g>
		</g>
		<g>
			<g>
				<path fill="#FFFEFF" d="M101.069,52.16c0.038,0.202,0.215,0.354,0.428,0.354s0.389-0.152,0.426-0.354H101.069z"/>
			</g>
		</g>
		<g>
			<g>
				<path fill="#F99AB6" d="M106.475,57.762c-0.201-0.032-0.373-0.134-0.497-0.277l0.195-1.245c0.163-0.099,0.358-0.143,0.558-0.111
					c0.451,0.07,0.761,0.493,0.689,0.944C107.348,57.524,106.926,57.833,106.475,57.762z"/>
			</g>
		</g>
		<g>
			<g>
				<path fill="#8EDEF2" d="M98.621,57.838c-0.112-0.038-0.207-0.118-0.265-0.224c-0.064-0.114-0.077-0.249-0.039-0.373l1.082-3.518
					l0.92,0.283l-0.935,3.042l2.276,0.62l-0.253,0.929l-2.758-0.751C98.643,57.844,98.631,57.842,98.621,57.838z"/>
			</g>
		</g>
		<g>
			<g>
				
					<rect x="97.326" y="55.556" transform="matrix(-0.2719 0.9623 -0.9623 -0.2719 179.2039 -24.3432)" fill="#61C8E0" width="2.971" height="0.139"/>
			</g>
		</g>
		<g>
			<g>
				<polygon fill="#61C8E0" points="99.609,56.203 100.083,54.515 100.248,54.537 99.773,56.225 				"/>
			</g>
		</g>
		<g>
			<g>
				<path fill="#F99AB6" d="M102.817,58.045c0.027,0.202-0.023,0.396-0.124,0.555l-1.251,0.167c-0.14-0.126-0.238-0.301-0.265-0.503
					c-0.061-0.453,0.257-0.868,0.71-0.928C102.341,57.274,102.756,57.592,102.817,58.045z"/>
			</g>
		</g>
		<g>
			<g>
				<path fill="#121F55" d="M100.587,58.668c0-0.114,0.093-0.206,0.205-0.206h7.466c0.157,0,0.285,0.092,0.285,0.205
					c0,0.114-0.128,0.206-0.285,0.206h-7.466C100.68,58.873,100.587,58.781,100.587,58.668L100.587,58.668z"/>
			</g>
			<g>
				<path fill="#FFFFFF" d="M100.295,58.667c0,0.114,0.099,0.206,0.221,0.206h2.836c0.122,0,0.221-0.092,0.221-0.206
					c0-0.113-0.099-0.205-0.221-0.205h-2.836C100.394,58.462,100.295,58.554,100.295,58.667z"/>
			</g>
			<g>
				<path fill="#FFFFFF" d="M108.531,54.598v3.764c0,0.168-0.136,0.304-0.304,0.304h-4.967c-0.168,0-0.304-0.136-0.304-0.304v-3.764
					c0-0.167,0.136-0.304,0.304-0.304h4.967C108.396,54.294,108.531,54.431,108.531,54.598z"/>
			</g>
			<g>
				<path fill="#2143AF" d="M108.762,54.598v3.764c0,0.168-0.136,0.304-0.304,0.304h-4.967c-0.167,0-0.302-0.136-0.302-0.304v-3.764
					c0-0.167,0.135-0.304,0.302-0.304h4.967C108.626,54.294,108.762,54.431,108.762,54.598z"/>
			</g>
			<g>
				<path fill="#FFFFFF" d="M105.156,56.481L105.156,56.481c0-0.177,0.144-0.321,0.319-0.321h0.999c0.177,0,0.319,0.144,0.319,0.321
					l0,0c0,0.176-0.143,0.32-0.319,0.32h-0.999C105.3,56.801,105.156,56.657,105.156,56.481z"/>
			</g>
		</g>
	</g>
	<g>
		<g id="_x38_._Right_shoe_228_">
			<g>
				<g>
					<circle fill="#2143AF" cx="47.052" cy="86.706" r="0.845"/>
				</g>
			</g>
			<g>
				<g>
					<path fill="#2143AF" d="M43.727,86.635l3.079,0.879c0.325,0.093,0.664-0.097,0.757-0.422l0,0
						c0.093-0.324-0.128-1.157-0.454-1.249l-3.228,0.03c-0.356,0.003-0.548,0.446-0.285,0.687
						C43.634,86.595,43.678,86.621,43.727,86.635z"/>
				</g>
			</g>
			<g>
				<g>
					<path fill="#FFFFFF" d="M46.072,86.239L46.072,86.239c0.089-0.003,0.153-0.087,0.132-0.176l-0.075-0.317
						c-0.016-0.066-0.077-0.112-0.145-0.109l0,0c-0.088,0.003-0.153,0.087-0.132,0.176l0.076,0.318
						C45.943,86.197,46.004,86.242,46.072,86.239z"/>
				</g>
			</g>
			<g>
				<g>
					<path fill="#FFFFFF" d="M45.613,86.26L45.613,86.26c0.089-0.004,0.153-0.089,0.132-0.176l-0.075-0.318
						c-0.016-0.065-0.076-0.112-0.144-0.109l0,0c-0.09,0.004-0.154,0.088-0.133,0.175l0.075,0.318
						C45.483,86.216,45.544,86.262,45.613,86.26z"/>
				</g>
			</g>
		</g>
		<g>
			<g>
				<path fill="#8EDEF2" d="M47.98,80.724l0.016-0.009l4.615-2.72l1.38,1.496l-4.842,2.566l-1.137,4.944l-0.034-0.006l-1.298-1.177
					l0.877-4.531C47.607,81.057,47.755,80.844,47.98,80.724z"/>
			</g>
		</g>
		<g id="_x38_._Right_shoe_227_">
			<g>
				<g>
					<circle fill="#2143AF" cx="58.031" cy="88.302" r="0.759"/>
				</g>
			</g>
			<g>
				<g>
					<path fill="#2143AF" d="M55.141,89.068l2.878-0.006c0.305-0.001,0.55-0.248,0.55-0.553l0,0c0-0.305-0.398-0.967-0.702-0.967
						l-2.782,0.828c-0.307,0.091-0.362,0.522-0.076,0.665C55.05,89.058,55.095,89.068,55.141,89.068z"/>
				</g>
			</g>
			<g>
				<g>
					<path fill="#FFFFFF" d="M57.068,88.143L57.068,88.143c0.076-0.025,0.109-0.112,0.07-0.184l-0.144-0.256
						c-0.03-0.054-0.094-0.079-0.152-0.059l0,0c-0.075,0.025-0.11,0.112-0.07,0.185l0.145,0.255
						C56.946,88.139,57.01,88.163,57.068,88.143z"/>
				</g>
			</g>
			<g>
				<g>
					<path fill="#FFFFFF" d="M56.677,88.274L56.677,88.274c0.076-0.026,0.11-0.114,0.071-0.184l-0.144-0.257
						c-0.03-0.054-0.094-0.078-0.152-0.06l0,0c-0.077,0.026-0.11,0.114-0.07,0.185l0.144,0.256
						C56.555,88.271,56.618,88.293,56.677,88.274z"/>
				</g>
			</g>
		</g>
		<g>
			<g>
				<path fill="#8EDEF2" d="M51.944,77.316l3.061-0.334c0.19,0.215,0.42,0.884,0.488,1.184c0.109,0.479,0.012,0.958-0.231,1.344
					c-0.244,0.386-0.632,0.679-1.114,0.788c-0.234,0.053-1.395,0.071-1.941-0.461C51.407,79.059,51.944,77.316,51.944,77.316z"/>
			</g>
		</g>
		<g>
			<g>
				<path fill="#8EDEF2" d="M53.854,78.952h1.97l-0.757,4.688l3.324,3.872l-1.725,0.485l-3.172-3.558
					c-0.156-0.177-0.237-0.421-0.196-0.672L53.854,78.952z"/>
			</g>
		</g>
		<g>
			<g>
				<path fill="#121F55" d="M45.804,76.961l4.561-0.081c0.202-0.003,0.385-0.118,0.475-0.297l1.789-3.556L51.66,72.54l-1.642,3.262
					l-4.233,0.074L45.804,76.961z"/>
			</g>
		</g>
		<g>
			<g>
				<polygon fill="#F99AB6" points="52.316,69.727 52.455,72.605 53.789,72.542 53.596,69.763 53.541,68.972 				"/>
			</g>
		</g>
		<g>
			<g>
				<g>
					<path fill="#F99AB6" d="M53.337,70.634c0,0-0.303,0.742-0.933,0.927l-0.046-0.965L53.337,70.634z"/>
				</g>
			</g>
		</g>
		<g>
			<g>
				<path fill="#F99AB6" d="M51.881,71.432c-0.053-0.009-0.156-0.037-0.208-0.052c-0.497-0.136-0.987-0.953-0.968-1.425
					c0.023-0.563,0.082-0.844,0.049-1.225c-0.045-0.522,0.462-0.933,0.986-0.911l1.062,0.043c0.399,0.016,0.71,0.353,0.694,0.751
					l-0.068,1.723C53.404,70.95,52.488,71.527,51.881,71.432z"/>
			</g>
		</g>
		<g>
			<g>
				<path fill="#F99AB6" d="M54.075,71.814c-0.143-0.096-0.318-0.144-0.5-0.121l-0.591,0.068c-0.287,0.033-0.546,0.136-0.768,0.289
					C52.826,72.229,53.564,72.167,54.075,71.814z"/>
			</g>
		</g>
		<g>
			<g>
				<path fill="#121F55" d="M54.991,72.947c-0.026-0.463-0.438-1.089-0.943-1.15c-0.855,0.121-1.624,0.167-1.913,0.237
					c-0.498,0.345-0.793,0.944-0.719,1.588l0.075,5.326c1.6,1.129,4.531,0.675,4.531,0.675
					C56.022,77.324,55.043,73.859,54.991,72.947z"/>
			</g>
		</g>
		<g>
			<g>
				<path fill="#121F55" d="M49.012,76.931l3.725,0.04c0.271,0.003,0.502-0.194,0.542-0.462l0.613-4.101l-1.072-0.16l-0.543,3.632
					l-3.252-0.034L49.012,76.931z"/>
			</g>
		</g>
		<g>
			<g>
				<path fill="#F7B75D" d="M52.287,72.005c0.243-0.059,0.676-0.071,1.365-0.157c-0.382,0.897-1.413,1.645-1.719,2.695
					C51.773,74.368,51.789,72.35,52.287,72.005z"/>
			</g>
		</g>
		<g>
			<g>
				<path fill="#2747B3" d="M52.329,72.169c0.044-0.05,0.187-0.149,0.191-0.202c0.11-0.016,0.092,0.027,0.246,0.013
					c-0.417,0.387-0.177,1.023-0.341,1.606c-0.21,0.296-0.39,0.609-0.491,0.957c-0.088-0.097-0.123-0.759-0.052-1.39
					C51.89,73.085,51.989,72.558,52.329,72.169z"/>
			</g>
		</g>
		<g>
			<path fill="#B8B9F1" d="M52.28,72.27c0.052,0.068,0.276,0.102,0.347,0.051c0.066-0.048,0.134-0.308,0.134-0.308l-0.519-0.078
				C52.243,71.935,52.23,72.203,52.28,72.27z"/>
		</g>
		<g>
			<g>
				<path fill="#121F55" d="M51.363,68.865c-2.055-0.447-0.575-1.753-0.575-1.753s0.041,0.487,0.439,0.328
					c0.761-0.307,2.418-0.498,2.874,0.496c0.354,0.774-0.305,2.47-0.43,2.912c-0.205-0.129-0.033-2.123-0.875-2.04
					C52.336,68.854,51.813,68.963,51.363,68.865z"/>
			</g>
		</g>
		<g>
			<g>
				<path fill="#FFFEFF" d="M51.675,71.002c-0.419-0.018-0.15-0.712,0.011-0.704C51.846,70.308,52.095,71.021,51.675,71.002z"/>
			</g>
		</g>
		<g>
			<polygon fill="#FFFFFF" points="53.024,72.505 54.067,71.813 53.713,71.424 52.473,71.975 			"/>
		</g>
		<g>
			<polygon fill="#FFFFFF" points="52.157,72.237 52.216,72.006 52.416,71.797 52.501,71.975 			"/>
		</g>
		<g>
			<g>
				<path fill="#566CD3" d="M53.096,75.668c0-0.127-0.103-0.23-0.23-0.23h-8.325c-0.174,0-0.316,0.104-0.316,0.229
					c0,0.128,0.142,0.23,0.316,0.23h8.325C52.993,75.897,53.096,75.795,53.096,75.668L53.096,75.668z"/>
			</g>
			<g>
				<path fill="#2143AF" d="M53.423,75.667c0,0.128-0.112,0.23-0.248,0.23h-3.161c-0.136,0-0.248-0.103-0.248-0.23
					c0-0.125,0.111-0.229,0.248-0.229h3.161C53.312,75.438,53.423,75.542,53.423,75.667z"/>
			</g>
			<g>
				<path fill="#2143AF" d="M44.238,71.131v4.197c0,0.188,0.151,0.339,0.338,0.339h5.54c0.187,0,0.338-0.151,0.338-0.339v-4.197
					c0-0.188-0.152-0.339-0.338-0.339h-5.54C44.389,70.792,44.238,70.942,44.238,71.131z"/>
			</g>
			<g>
				<path fill="#FFFFFF" d="M43.979,71.131v4.197c0,0.188,0.151,0.339,0.339,0.339h5.539c0.187,0,0.338-0.151,0.338-0.339v-4.197
					c0-0.188-0.151-0.339-0.338-0.339h-5.539C44.13,70.792,43.979,70.942,43.979,71.131z"/>
			</g>
			<g>
				<path fill="#2143AF" d="M48,73.229L48,73.229c0-0.197-0.159-0.357-0.356-0.357h-1.113c-0.197,0-0.357,0.16-0.357,0.357l0,0
					c0,0.197,0.16,0.356,0.357,0.356h1.113C47.841,73.586,48,73.427,48,73.229z"/>
			</g>
		</g>
		<g>
			<g>
				<path fill="#F99AB6" d="M49.362,76.388c0.038-0.226-0.009-0.446-0.118-0.631l-1.4-0.235c-0.163,0.138-0.28,0.331-0.318,0.557
					c-0.085,0.508,0.256,0.988,0.764,1.073S49.277,76.896,49.362,76.388z"/>
			</g>
		</g>
		<g>
			<g>
				<path fill="#F99AB6" d="M46.407,76.129c0.019-0.229-0.047-0.445-0.17-0.618l-1.415-0.117c-0.151,0.15-0.251,0.352-0.271,0.58
					c-0.042,0.514,0.338,0.963,0.851,1.006C45.914,77.021,46.364,76.641,46.407,76.129z"/>
			</g>
		</g>
	</g>
	<g>
		<g>
			<g>
				<ellipse fill="#2143AF" cx="85.948" cy="25.013" rx="0.903" ry="1.44"/>
			</g>
		</g>
		<g>
			<g>
				<path fill="#2143AF" d="M90.334,27.131c-0.58-0.334-1.226-1.17-0.979-1.907c0.575-1.721-0.767-2.337-1.431-2.464
					c-0.664-0.126-1.251,0.042-1.621,0.338c-0.6,0.48-0.42,1.31-0.085,1.978c-0.364,0.209-0.538,0.659-0.329,0.995
					c0.455,0.73,0.063,1.714-0.209,2.298c-0.436,0.94,0.173,2.107,1.231,2.639c1.06,0.533,2.439,0.476,3.503,0
					c0.526-0.237,1.005-0.582,1.245-1.041C92.178,28.978,91.429,27.76,90.334,27.131z"/>
			</g>
		</g>
		<g>
			<g>
				<path fill="#F99AB6" d="M83.041,33.718c-0.254,0.036-0.52,0.058-0.796,0.065c-0.205,0.006-0.374-0.155-0.38-0.358
					c-0.006-0.203,0.153-0.373,0.358-0.379c1.295-0.036,2.264-0.417,2.877-1.132c0.939-1.094,0.761-2.615,0.759-2.631
					c-0.024-0.201,0.12-0.384,0.32-0.412c0.201-0.024,0.387,0.118,0.412,0.321c0.01,0.075,0.219,1.863-0.932,3.202
					C85.045,33.113,84.166,33.557,83.041,33.718z"/>
			</g>
		</g>
		<g>
			<path fill="#F7B75D" d="M86.139,28.604c-0.345,0.05-0.591,0.369-0.548,0.712c0.002,0.014,0.158,1.428-0.693,2.42
				c-0.418,0.486-1.024,0.803-1.801,0.949c0.225,0.382,0.262,0.877,0.081,1.282c1.143-0.183,2.049-0.652,2.688-1.398
				c1.228-1.429,1.005-3.331,0.994-3.412C86.816,28.808,86.495,28.56,86.139,28.604z"/>
		</g>
		<g>
			<g>
				<path fill="#F99AB6" d="M86.239,29.231c-0.188-0.096-0.341-0.383-0.116-0.646c0.223-0.258,0.567-0.401,0.936-0.415l0.097-0.004
					c0.325-0.013,0.621,0.13,0.817,0.361C87.817,29.012,86.752,29.428,86.239,29.231z"/>
			</g>
		</g>
		<g>
			<g>
				<path fill="#F99AB6" d="M86.864,27.429l-0.009,0.417l-0.016,0.783l0.602,0.01l0.018-1l0.008-0.389
					C87.287,27.373,87.08,27.439,86.864,27.429z"/>
			</g>
		</g>
		<g>
			<g>
				<g>
					<path fill="#F99AB6" d="M86.864,27.528l-0.009,0.417c0.213-0.031,0.472-0.126,0.605-0.283l0.006-0.311
						C87.287,27.473,87.08,27.539,86.864,27.528z"/>
				</g>
			</g>
		</g>
		<g>
			<g>
				<path fill="#F99AB6" d="M87.012,27.744L87.012,27.744c0.569-0.006,1.073-0.283,1.387-0.709c0.217-0.293,0.345-0.658,0.341-1.052
					l-0.008-0.686c-0.004-0.498-0.217-0.946-0.556-1.26c-0.315-0.293-0.74-0.471-1.204-0.466l0,0
					c-0.309,0.003-0.597,0.086-0.845,0.228c-0.534,0.303-0.889,0.877-0.883,1.534l0.008,0.685c0.006,0.631,0.347,1.18,0.852,1.481
					C86.369,27.657,86.681,27.747,87.012,27.744z"/>
			</g>
		</g>
		<g>
			<g>
				<circle fill="#121F55" cx="87.3" cy="33.783" r="1.654"/>
			</g>
		</g>
		<g>
			<g>
				<path fill="#FFFEFF" d="M86.899,26.836c-0.04,0.217-0.229,0.383-0.455,0.385c-0.229,0.003-0.42-0.159-0.463-0.375L86.899,26.836
					z"/>
			</g>
		</g>
		<g>
			<g>
				<path fill="#F7B75D" d="M85.36,29.509c-0.112,0.311,0.203,0.625,0.532,0.662c0.331,0.037,0.628-0.201,0.662-0.531
					c0.037-0.331-0.455-1.053-0.641-0.778C85.738,29.125,85.459,29.241,85.36,29.509z"/>
			</g>
		</g>
		<g>
			<g>
				<path fill="#F7B75D" d="M87.973,28.528c0.143,0.167,0.233,0.38,0.245,0.616c0,0-0.148,2.718,0.597,3.97l-3.17,0.265l0.086-3.762
					c-0.02-0.4,0.135-0.766,0.393-1.031C86.139,29.193,87.386,28.463,87.973,28.528z"/>
			</g>
		</g>
		<g>
			<g>
				<g>
					<g>
						<path fill="#2143AF" d="M85.839,40.666c-0.291,0.014-0.436,0.289-0.461,0.366c-0.138,0.427-0.087,0.875-0.36,1.598
							c-0.188,0.493-0.374,0.594-0.506,0.995c-0.113,0.345,0.204,0.458,0.516,0.336c0.122-0.048,0.895-0.25,0.908-0.867
							c0.01-0.45-0.043-0.794,0.101-1.181c0.144-0.386,0.266-0.168,0.31-0.05c0.035,0.084,0.138,0.326,0.173,0.401
							c0.011,0.028,0.042,0.04,0.071,0.029l0.002,0c0.029-0.011,0.045-0.048,0.029-0.078c-0.043-0.087-0.122-0.392-0.153-0.78
							C86.431,40.958,86.104,40.652,85.839,40.666z"/>
					</g>
				</g>
			</g>
			<g>
				<g>
					<g>
						<path fill="#F99AB6" d="M85.532,42.792c0.161-0.361,0.351-1.468,0.256-1.712c-0.11-0.287-0.711-0.308-0.745-0.051
							c-0.064,0.444,0.12,1.218-0.246,2.047C84.842,43.294,85.345,43.211,85.532,42.792z"/>
					</g>
				</g>
			</g>
		</g>
		<g>
			<g>
				<path fill="#121F55" d="M87.817,35.304l-3.901,1.813l0.371-0.881l1.445,4.683c0.087,0.284-0.072,0.586-0.356,0.674
					c-0.271,0.083-0.56-0.06-0.66-0.32l-1.777-4.567c-0.13-0.337,0.022-0.713,0.342-0.867l0.027-0.014l3.881-1.856
					c0.365-0.176,0.807-0.021,0.983,0.347c0.176,0.368,0.02,0.808-0.347,0.984C87.823,35.302,87.817,35.303,87.817,35.304z"/>
			</g>
		</g>
		<g>
			<g>
				<g>
					<g>
						<path fill="#2143AF" d="M83.219,39.193c-0.266-0.124-0.521,0.051-0.579,0.109c-0.319,0.313-0.483,0.732-1.063,1.244
							c-0.397,0.351-0.608,0.353-0.912,0.646c-0.262,0.252-0.033,0.499,0.3,0.538c0.13,0.014,0.906,0.195,1.206-0.343
							c0.221-0.394,0.333-0.723,0.64-0.998c0.308-0.275,0.315-0.026,0.3,0.101c-0.01,0.089-0.033,0.352-0.037,0.433
							c0,0.03,0.021,0.056,0.051,0.06h0.002c0.033,0.004,0.062-0.021,0.062-0.054c0.004-0.098,0.076-0.403,0.23-0.76
							C83.606,39.73,83.459,39.306,83.219,39.193z"/>
					</g>
				</g>
			</g>
			<g>
				<g>
					<g>
						<path fill="#F99AB6" d="M81.956,40.931c0.311-0.244,0.995-1.134,1.026-1.395c0.035-0.306-0.486-0.604-0.639-0.393
							c-0.262,0.363-0.461,1.134-1.172,1.698C81.112,41.054,81.595,41.215,81.956,40.931z"/>
					</g>
				</g>
			</g>
		</g>
		<g>
			<g>
				<path fill="#121F55" d="M87.542,35.422l-4.294-0.216l0.737-0.605l-0.906,4.816c-0.054,0.292-0.337,0.485-0.627,0.429
					c-0.279-0.053-0.469-0.313-0.436-0.59l0.558-4.869c0.042-0.359,0.353-0.62,0.706-0.607h0.031l4.297,0.168
					c0.408,0.016,0.726,0.359,0.71,0.766c-0.017,0.407-0.359,0.725-0.767,0.708C87.55,35.422,87.544,35.422,87.542,35.422z"/>
			</g>
		</g>
		<g>
			<g>
				<path fill="#F99AB6" d="M87.853,33.784c-0.19,0.031-0.392,0.054-0.606,0.067c-0.203,0.014-0.378-0.141-0.391-0.345
					c-0.014-0.203,0.141-0.377,0.344-0.391c0.684-0.045,1.544-0.213,1.765-0.764c0.349-0.868-0.851-2.448-1.298-2.933
					c-0.139-0.15-0.13-0.384,0.021-0.521c0.149-0.139,0.382-0.129,0.521,0.021c0.21,0.226,2.021,2.254,1.441,3.707
					C89.405,33.235,88.801,33.623,87.853,33.784z"/>
			</g>
		</g>
		<g>
			<path fill="#F7B75D" d="M88.408,28.736c-0.149-0.16-0.364-0.233-0.577-0.197c-0.146,0.024-0.277,0.099-0.378,0.211
				c-0.215,0.248-0.189,0.628,0.031,0.871c0.511,0.56,1.497,1.962,1.229,2.631c-0.047,0.117-0.144,0.21-0.266,0.286
				c-0.229,0.141-0.354,0.399-0.304,0.662c0.002,0.004,0.002,0.009,0.004,0.014c0.077,0.419,0.546,0.654,0.916,0.442
				c0.398-0.229,0.68-0.538,0.834-0.929C90.53,31.153,88.766,29.126,88.408,28.736z"/>
		</g>
		<g>
			<g>
				<path fill="#F99AB6" d="M85.674,33.428c0.018,0.218,0.112,0.411,0.258,0.554l1.348-0.11c0.118-0.165,0.18-0.371,0.162-0.588
					c-0.04-0.49-0.469-0.852-0.956-0.813C85.997,32.512,85.633,32.941,85.674,33.428z"/>
			</g>
		</g>
		<g>
			<g>
				<path fill="#F99AB6" d="M81.081,33.594c0.01,0.219,0.097,0.416,0.232,0.564l1.352-0.053c0.126-0.16,0.197-0.362,0.189-0.582
					c-0.02-0.489-0.432-0.87-0.921-0.851C81.443,32.692,81.062,33.104,81.081,33.594z"/>
			</g>
		</g>
		<g>
			<g>
				
					<ellipse transform="matrix(0.9437 0.3307 -0.3307 0.9437 12.984 -27.5405)" fill="#2143AF" cx="87.423" cy="24.385" rx="1.704" ry="1.069"/>
			</g>
		</g>
		<g>
			<g>
				<path fill="#121F55" d="M88.098,33.937c0-0.123-0.099-0.222-0.223-0.222H79.84c-0.17,0-0.306,0.1-0.306,0.222
					s0.136,0.221,0.306,0.221h8.035C87.999,34.158,88.098,34.059,88.098,33.937L88.098,33.937z"/>
			</g>
			<g>
				<path fill="#FFFFFF" d="M88.414,33.937c0,0.122-0.108,0.221-0.24,0.221h-3.052c-0.132,0-0.24-0.099-0.24-0.221
					s0.108-0.222,0.24-0.222h3.052C88.306,33.715,88.414,33.815,88.414,33.937z"/>
			</g>
			<g>
				<path fill="#FFFFFF" d="M79.546,29.557v4.053c0,0.18,0.147,0.326,0.327,0.326h5.348c0.181,0,0.327-0.146,0.327-0.326v-4.053
					c0-0.181-0.146-0.328-0.327-0.328h-5.348C79.693,29.229,79.546,29.375,79.546,29.557z"/>
			</g>
			<g>
				<path fill="#2143AF" d="M79.296,29.557v4.053c0,0.18,0.147,0.326,0.329,0.326h5.346c0.181,0,0.325-0.146,0.325-0.326v-4.053
					c0-0.181-0.145-0.328-0.325-0.328h-5.346C79.443,29.229,79.296,29.375,79.296,29.557z"/>
			</g>
			<g>
				<path fill="#FFFFFF" d="M83.178,31.583L83.178,31.583c0-0.191-0.152-0.345-0.345-0.345h-1.072c-0.191,0-0.345,0.153-0.345,0.345
					l0,0c0,0.19,0.153,0.344,0.345,0.344h1.072C83.025,31.927,83.178,31.773,83.178,31.583z"/>
			</g>
		</g>
	</g>
	<g id="XMLID_308_">
		<g id="XMLID_315_">
			<g>
				<g>
					<g>
						<path fill-rule="evenodd" clip-rule="evenodd" fill="#B9B8F1" d="M68.67,27.623c1.438,0,2.604,1.006,2.604,2.246
							c0,0.745-0.42,1.405-1.067,1.813l0.366,0.928l-0.898-0.668c-0.309,0.112-0.648,0.173-1.005,0.173
							c-1.438,0-2.603-1.005-2.603-2.246C66.068,28.629,67.233,27.623,68.67,27.623z"/>
					</g>
				</g>
			</g>
		</g>
		<g id="XMLID_309_">
			<g id="XMLID_314_">
				<g>
					<g>
						<g>
							<circle fill-rule="evenodd" clip-rule="evenodd" fill="#FFFFFF" cx="69.81" cy="29.913" r="0.353"/>
						</g>
					</g>
				</g>
			</g>
			<g id="XMLID_311_">
				<g>
					<g>
						<g>
							<circle fill-rule="evenodd" clip-rule="evenodd" fill="#FFFFFF" cx="68.67" cy="29.913" r="0.353"/>
						</g>
					</g>
				</g>
			</g>
			<g id="XMLID_310_">
				<g>
					<g>
						<g>
							<circle fill-rule="evenodd" clip-rule="evenodd" fill="#FFFFFF" cx="67.532" cy="29.913" r="0.353"/>
						</g>
					</g>
				</g>
			</g>
		</g>
	</g>
	<g>
		<g>
			<g>
				<path fill="#8EDEF2" d="M72.413,26.777l0.352-0.354l0.587,0.587c0.118,0.117,0.302,0.216,0.405,0.113l0.519-0.52l-0.4-0.4
					c-0.118-0.118-0.078-0.208,0.024-0.311l0.562-0.562c0.103-0.104,0.203-0.152,0.321-0.034l0.401,0.4l0.447-0.447
					c0.101-0.104,0.075-0.359-0.043-0.476l-0.589-0.588l0.283-0.282c0.103-0.103,0.126-0.279,0.008-0.396l-0.641-0.64
					c-0.116-0.117-0.291-0.095-0.396,0.008l-0.28,0.282l-0.518-0.518c-0.118-0.118-0.321-0.093-0.426,0.01l-0.447,0.446l0.279,0.279
					c0.118,0.118,0.191,0.339,0.089,0.442l-0.563,0.563c-0.103,0.103-0.315,0.019-0.432-0.098l-0.279-0.279l-0.519,0.52
					c-0.104,0.103-0.057,0.236,0.062,0.354l0.518,0.517l-0.353,0.354c-0.104,0.104-0.116,0.266,0.002,0.384l0.641,0.64
					C72.144,26.89,72.309,26.88,72.413,26.777z"/>
			</g>
		</g>
		<g>
			<g>
				<path fill="#B8B9F1" d="M72.091,22.602l-0.359-0.359l0.602-0.601c0.118-0.118,0.254-0.329,0.151-0.432l-0.546-0.547
					l-0.434,0.433c-0.118,0.118-0.153,0.08-0.256-0.023l-0.562-0.562c-0.104-0.103-0.194-0.19-0.076-0.308l0.434-0.434l-0.434-0.432
					c-0.103-0.104-0.358-0.012-0.476,0.105l-0.602,0.603l-0.315-0.314c-0.102-0.103-0.297-0.174-0.415-0.056l-0.64,0.639
					c-0.117,0.119-0.079,0.343,0.026,0.446l0.313,0.314l-0.5,0.5c-0.117,0.117-0.104,0.268-0.002,0.372l0.433,0.433l0.258-0.258
					c0.117-0.117,0.379-0.203,0.483-0.1l0.562,0.562c0.104,0.103-0.035,0.313-0.152,0.431l-0.258,0.258l0.546,0.546
					c0.104,0.104,0.21,0.072,0.327-0.047l0.5-0.5l0.36,0.359c0.103,0.104,0.282,0.097,0.4-0.02l0.639-0.64
					C72.219,22.855,72.196,22.705,72.091,22.602z"/>
			</g>
		</g>
		<g>
			<g>
				<g>
					<g>
						<path fill="#2747B3" d="M73.024,24.455l0.004,0.735c0,0.041-0.018,0.082-0.045,0.111c-0.03,0.029-0.071,0.047-0.112,0.045
							l-0.728-0.013l0.004-0.311l0.569,0.01l-0.004-0.576L73.024,24.455z"/>
					</g>
				</g>
				<g>
					<g>
						
							<rect x="70.065" y="23.872" transform="matrix(-0.7072 -0.707 0.707 -0.7072 105.4332 91.7206)" fill="#2747B3" width="3.29" height="0.311"/>
					</g>
				</g>
			</g>
			<g>
				<g>
					<g>
						<path fill="#2747B3" d="M71.028,21.309c0.002,0,0.004,0,0.004,0l0.728,0.012l-0.006,0.312l-0.568-0.01l0.004,0.577
							l-0.31,0.001l-0.006-0.735c0-0.042,0.015-0.083,0.046-0.112C70.949,21.325,70.988,21.309,71.028,21.309z"/>
					</g>
				</g>
				<g>
					<g>
						
							<rect x="70.549" y="22.471" transform="matrix(-0.707 -0.7072 0.7072 -0.707 107.2341 89.6788)" fill="#2747B3" width="3.289" height="0.311"/>
					</g>
				</g>
			</g>
		</g>
	</g>
	<g>
		<g>
			<g>
				<path fill="#B9B8F1" d="M96.016,29.375l-2.396,1.667c-0.077,0.01-0.149,0.051-0.197,0.119c-0.037,0.055-0.053,0.12-0.049,0.182
					c-0.004,0.062,0.012,0.126,0.049,0.182c0.048,0.068,0.12,0.108,0.197,0.119l2.396,1.666c0.13,0.09,0.308,0.059,0.398-0.071
					c0.089-0.129,0.059-0.308-0.073-0.396l-2.155-1.499l2.155-1.5c0.132-0.088,0.162-0.267,0.073-0.396
					C96.323,29.317,96.146,29.286,96.016,29.375z"/>
			</g>
		</g>
		<g>
			<g>
				<path fill="#B9B8F1" d="M98.581,29.375l-2.397,1.667c-0.075,0.01-0.146,0.051-0.195,0.119c-0.039,0.055-0.053,0.12-0.051,0.182
					c-0.002,0.062,0.012,0.126,0.051,0.182c0.049,0.068,0.12,0.108,0.195,0.119l2.397,1.666c0.13,0.09,0.308,0.059,0.396-0.071
					c0.091-0.129,0.061-0.308-0.069-0.396l-2.157-1.499l2.157-1.5c0.13-0.088,0.16-0.267,0.069-0.396
					C98.889,29.317,98.711,29.286,98.581,29.375z"/>
			</g>
		</g>
		<g>
			<g>
				<path fill="#B9B8F1" d="M101.145,29.266l-2.396,1.667c-0.077,0.01-0.148,0.051-0.195,0.118c-0.041,0.056-0.054,0.119-0.05,0.183
					c-0.004,0.063,0.009,0.126,0.05,0.182c0.047,0.068,0.118,0.108,0.195,0.119l2.396,1.667c0.132,0.09,0.308,0.058,0.398-0.071
					c0.09-0.129,0.059-0.308-0.071-0.398l-2.157-1.498l2.157-1.499c0.13-0.089,0.161-0.268,0.071-0.397
					C101.452,29.208,101.276,29.177,101.145,29.266z"/>
			</g>
		</g>
		<g>
			<g>
				<path fill="#B9B8F1" d="M103.71,29.266l-2.397,1.667c-0.077,0.01-0.148,0.051-0.195,0.118c-0.039,0.056-0.054,0.119-0.05,0.183
					c-0.004,0.063,0.011,0.126,0.05,0.182c0.047,0.068,0.118,0.108,0.195,0.119l2.397,1.667c0.13,0.09,0.308,0.058,0.398-0.071
					c0.09-0.129,0.057-0.308-0.073-0.398l-2.155-1.498l2.155-1.499c0.13-0.089,0.163-0.268,0.073-0.397
					C104.018,29.208,103.84,29.177,103.71,29.266z"/>
			</g>
		</g>
	</g>
	<g>
		<g>
			<g>
				<path fill="#B9B8F1" d="M37.874,28.521l-2.397,1.667c-0.076,0.011-0.147,0.05-0.194,0.118c-0.04,0.056-0.054,0.12-0.05,0.183
					c-0.003,0.062,0.011,0.125,0.05,0.182c0.047,0.067,0.118,0.108,0.194,0.119l2.397,1.667c0.13,0.09,0.309,0.058,0.399-0.072
					c0.089-0.129,0.058-0.307-0.073-0.396l-2.155-1.499l2.155-1.5c0.13-0.089,0.162-0.268,0.073-0.397
					C38.183,28.463,38.004,28.431,37.874,28.521z"/>
			</g>
		</g>
		<g>
			<g>
				<path fill="#B9B8F1" d="M40.438,28.521l-2.396,1.667c-0.076,0.011-0.148,0.05-0.195,0.118c-0.04,0.056-0.054,0.12-0.049,0.183
					c-0.004,0.062,0.01,0.125,0.049,0.182c0.047,0.067,0.12,0.108,0.195,0.119l2.396,1.667c0.13,0.09,0.308,0.058,0.397-0.072
					c0.091-0.129,0.06-0.307-0.07-0.396l-2.158-1.499l2.158-1.5c0.129-0.089,0.161-0.268,0.07-0.397
					C40.746,28.463,40.569,28.431,40.438,28.521z"/>
			</g>
		</g>
		<g>
			<g>
				<path fill="#B9B8F1" d="M43.002,28.411l-2.396,1.666c-0.076,0.01-0.148,0.051-0.195,0.119c-0.039,0.056-0.054,0.12-0.049,0.182
					c-0.005,0.063,0.01,0.127,0.049,0.183c0.046,0.068,0.119,0.108,0.195,0.119l2.396,1.667c0.131,0.09,0.309,0.058,0.398-0.071
					c0.09-0.13,0.058-0.308-0.071-0.398l-2.157-1.498l2.157-1.499c0.129-0.089,0.161-0.268,0.071-0.397
					C43.312,28.353,43.133,28.321,43.002,28.411z"/>
			</g>
		</g>
		<g>
			<g>
				<path fill="#B9B8F1" d="M45.568,28.411l-2.398,1.666c-0.076,0.01-0.148,0.051-0.195,0.119c-0.038,0.056-0.054,0.12-0.049,0.182
					c-0.004,0.063,0.011,0.127,0.049,0.183c0.047,0.068,0.119,0.108,0.195,0.119l2.398,1.667c0.128,0.09,0.308,0.058,0.398-0.071
					c0.089-0.13,0.058-0.308-0.072-0.398l-2.156-1.498l2.156-1.499c0.13-0.089,0.162-0.268,0.072-0.397
					C45.876,28.353,45.697,28.321,45.568,28.411z"/>
			</g>
		</g>
	</g>
	<g>
		<g>
			<g>
				<g>
					<path fill="#2143AF" d="M69.665,65.071c-0.184,0-0.367-0.085-0.483-0.246l-2.073-2.837c-0.161-0.221-0.153-0.522,0.021-0.733
						l2.708-3.29c0.211-0.255,0.588-0.292,0.844-0.082c0.256,0.209,0.291,0.588,0.08,0.843l-2.412,2.93l1.799,2.461
						c0.195,0.268,0.137,0.643-0.131,0.837C69.912,65.033,69.788,65.071,69.665,65.071z"/>
				</g>
			</g>
		</g>
		<g>
			<g>
				<g>
					<path fill="#2143AF" d="M73.643,65.064c-0.122,0-0.246-0.037-0.353-0.115c-0.268-0.195-0.325-0.569-0.13-0.837l1.807-2.468
						l-2.405-2.922c-0.209-0.255-0.172-0.632,0.083-0.843c0.256-0.21,0.634-0.172,0.843,0.083l2.699,3.281
						c0.172,0.212,0.182,0.513,0.021,0.733l-2.082,2.844C74.008,64.98,73.826,65.064,73.643,65.064z"/>
				</g>
			</g>
		</g>
		<g>
			<g>
				<g>
					<circle fill="#566CD3" cx="71.714" cy="54.579" r="1.727"/>
				</g>
			</g>
		</g>
		<g>
			<g>
				<g>
					<polygon fill="#F99AB6" points="72.349,56.42 72.345,58.063 72.341,59.138 71.08,59.135 71.145,56.508 71.162,55.761 					"/>
				</g>
			</g>
		</g>
		<g>
			<g>
				<g>
					<path fill="#2143AF" d="M69.843,58.995c0.004-0.512,0.447-1.008,0.907-1.248c0.685-0.357,1.745-0.108,2.083,0.093
						c0.573,0.342,0.916,1.036,0.877,1.75l0.039,3.831H69.68C69.68,63.422,69.832,60.161,69.843,58.995z"/>
				</g>
			</g>
		</g>
		<g>
			<path fill="#E5E9FF" d="M71.777,60.151c0.297-0.918,0.626-1.561,0.92-2.377c-0.904-0.342-1.781-0.15-1.965,0
				c0.294,0.816,0.624,1.458,0.921,2.377c0.016,0.065,0.061,0.172,0.063,0.171c0,0.001,0,0.005,0.002,0.006
				C71.722,60.318,71.76,60.216,71.777,60.151z"/>
		</g>
		<g>
			<polygon fill="#2747B3" points="71.822,57.839 71.716,57.839 71.607,57.839 71.402,59.081 71.547,59.836 71.716,60.322 
				71.882,59.836 72.027,59.081 			"/>
		</g>
		<g>
			<g>
				<g>
					<path fill="#F99AB6" d="M72.043,53.258h-0.656c-0.579,0-1.122,0.474-1.047,1.048c0.052,0.418,0,0.732,0,1.353
						c0,0.521,0.609,1.531,1.128,1.531h0.492c0.521,0,1.131-1.01,1.131-1.531c0-0.62-0.053-0.934,0-1.353
						C73.162,53.732,72.62,53.258,72.043,53.258z"/>
				</g>
			</g>
		</g>
		<g>
			<g>
				<g>
					<path fill="#FFFEFF" d="M71.184,56.306c0.046,0.251,0.267,0.441,0.532,0.441c0.263,0,0.481-0.19,0.53-0.441H71.184z"/>
				</g>
			</g>
		</g>
		<g>
			<g>
				<g>
					<path fill="#121F55" d="M72.368,67.086h-1.307c-0.939,0-1.644-0.859-1.46-1.78l0.079-1.884h4.069l0.077,1.884
						C74.012,66.227,73.308,67.086,72.368,67.086z"/>
				</g>
			</g>
		</g>
		<g>
			<g>
				<g>
					<g>
						<path fill="#2747B3" d="M74.386,65.783h-5.157c-0.224,0-0.406-0.181-0.406-0.404v-2.882c0-0.224,0.182-0.406,0.406-0.406
							h5.157c0.223,0,0.404,0.183,0.404,0.406v2.882C74.79,65.603,74.608,65.783,74.386,65.783z"/>
					</g>
				</g>
			</g>
			<g>
				<g>
					<g>
						<path fill="#FFFFFF" d="M74.386,65.954h-5.157c-0.224,0-0.406-0.18-0.406-0.404v-2.883c0-0.224,0.182-0.405,0.406-0.405h5.157
							c0.223,0,0.404,0.182,0.404,0.405v2.883C74.79,65.774,74.608,65.954,74.386,65.954z"/>
					</g>
				</g>
			</g>
			<g>
				<g>
					<g>
						<path fill="#2747B3" d="M72.403,64.416H71.21c-0.166,0-0.304-0.136-0.304-0.305v-0.006c0-0.168,0.138-0.305,0.304-0.305h1.193
							c0.166,0,0.304,0.137,0.304,0.305v0.006C72.707,64.28,72.569,64.416,72.403,64.416z"/>
					</g>
				</g>
			</g>
		</g>
		<g>
			<path fill="#B8B9F1" d="M71.876,57.91c-0.062,0.056-0.282,0.05-0.341-0.009c-0.054-0.057-0.075-0.318-0.075-0.318l0.508,0.015
				C71.968,57.597,71.935,57.855,71.876,57.91z"/>
		</g>
		<g>
			<polygon fill="#FFFFFF" points="71.178,58.231 70.75,57.715 71.105,57.256 71.716,57.585 			"/>
		</g>
		<g>
			<polygon fill="#FFFFFF" points="72.252,58.231 72.68,57.715 72.323,57.256 71.716,57.585 			"/>
		</g>
		<g>
			<g>
				<g>
					<g>
						<path fill="#2143AF" d="M72.424,71.551l0.353-1.313l-0.026-0.001c-0.08-0.004-0.136-0.078-0.118-0.156
							c0.013-0.06,0.067-0.101,0.127-0.099l0.086,0.003l0.038-0.148l-0.04-0.002c-0.08-0.003-0.138-0.077-0.12-0.155
							c0.016-0.06,0.067-0.101,0.13-0.098l0.097,0.003l0.221-0.827c0.01-0.017,0.023-0.031,0.038-0.046
							c0.014-0.03,0.027-0.063,0.047-0.093c0.217-0.356,0.684-0.47,1.04-0.252c0.356,0.217,0.471,0.684,0.252,1.04
							c-0.002,0.002-0.004,0.005-0.004,0.008c-0.002,0.001-0.002,0.002-0.002,0.004l-1.495,2.448
							c-0.021,0.039-0.057,0.069-0.095,0.095C72.682,72.131,72.345,71.858,72.424,71.551z"/>
					</g>
				</g>
			</g>
			<g id="_x38_._Right_shoe_230_">
				<g>
					<g>
						<g>
							<circle fill="#566CD3" cx="73.72" cy="68.971" r="0.756"/>
						</g>
					</g>
				</g>
				<g>
					<g>
						<g>
							<path fill="#2143AF" d="M72.866,71.823l1.492-2.447c0.159-0.259,0.076-0.597-0.182-0.754l0,0
								c-0.26-0.157-1.028-0.165-1.188,0.093l-0.743,2.795c-0.083,0.309,0.254,0.579,0.524,0.409
								C72.81,71.895,72.845,71.863,72.866,71.823z"/>
						</g>
					</g>
				</g>
				<g>
					<g>
						<g>
							<path fill="#FFFFFF" d="M73.085,69.705L73.085,69.705c0.017-0.077-0.039-0.152-0.118-0.155l-0.295-0.011
								c-0.062-0.003-0.114,0.039-0.13,0.099l0,0c-0.017,0.077,0.041,0.153,0.12,0.155l0.293,0.012
								C73.017,69.807,73.071,69.766,73.085,69.705z"/>
						</g>
					</g>
				</g>
				<g>
					<g>
						<g>
							<path fill="#FFFFFF" d="M72.991,70.107L72.991,70.107c0.018-0.078-0.038-0.154-0.12-0.157l-0.292-0.011
								c-0.06-0.003-0.116,0.04-0.128,0.098l0,0c-0.02,0.079,0.039,0.154,0.118,0.157l0.295,0.011
								C72.924,70.208,72.979,70.165,72.991,70.107z"/>
						</g>
					</g>
				</g>
			</g>
		</g>
		<g>
			<g>
				<g>
					<path fill="#121F55" d="M69.697,64.946l4.534,3.251l-1.427,1.224l-4.081-3.117c-0.372-0.267-0.456-0.782-0.19-1.154
						l0.009-0.014C68.809,64.765,69.324,64.679,69.697,64.946z"/>
				</g>
			</g>
		</g>
		<g>
			<g>
				<g>
					<g>
						<path fill="#2143AF" d="M72.12,73.667l0.089-1.357l0.025,0.008c0.075,0.022,0.155-0.03,0.163-0.109
							c0.006-0.061-0.033-0.117-0.091-0.136l-0.08-0.024l0.01-0.151l0.039,0.012c0.077,0.022,0.154-0.03,0.162-0.11
							c0.006-0.061-0.032-0.116-0.091-0.135l-0.093-0.028l0.056-0.853c-0.003-0.02-0.009-0.038-0.019-0.056
							c-0.004-0.033-0.006-0.068-0.016-0.104c-0.091-0.408-0.496-0.664-0.904-0.572c-0.407,0.092-0.664,0.497-0.573,0.904
							c0.002,0.003,0.002,0.005,0.004,0.008c0,0,0,0.004,0,0.005l0.627,2.798c0.01,0.044,0.033,0.085,0.063,0.121
							C71.692,74.135,72.099,73.985,72.12,73.667z"/>
					</g>
				</g>
			</g>
			<g id="_x38_._Right_shoe_229_">
				<g>
					<g>
						<g>
							<circle fill="#2143AF" cx="71.72" cy="70.808" r="0.757"/>
						</g>
					</g>
				</g>
				<g>
					<g>
						<g>
							<path fill="#2143AF" d="M71.615,73.784l-0.629-2.798c-0.066-0.295,0.12-0.589,0.417-0.654l0,0
								c0.294-0.067,1.025,0.173,1.092,0.469l-0.191,2.885c-0.02,0.318-0.427,0.468-0.626,0.221
								C71.646,73.868,71.625,73.829,71.615,73.784z"/>
						</g>
					</g>
				</g>
				<g>
					<g>
						<g>
							<path fill="#FFFFFF" d="M72.087,71.708L72.087,71.708c0.008-0.08,0.086-0.133,0.163-0.108l0.283,0.082
								c0.058,0.019,0.095,0.074,0.089,0.136l0,0c-0.008,0.079-0.088,0.132-0.163,0.108l-0.28-0.084
								C72.12,71.824,72.082,71.769,72.087,71.708z"/>
						</g>
					</g>
				</g>
				<g>
					<g>
						<g>
							<path fill="#FFFFFF" d="M72.047,72.117L72.047,72.117c0.008-0.08,0.087-0.132,0.162-0.109l0.283,0.083
								c0.058,0.018,0.095,0.073,0.089,0.135l0,0c-0.008,0.08-0.087,0.134-0.162,0.11l-0.281-0.084
								C72.08,72.234,72.041,72.178,72.047,72.117z"/>
						</g>
					</g>
				</g>
			</g>
		</g>
		<g>
			<g>
				<g>
					<path fill="#121F55" d="M72.98,65.661l-2.148,5.15l1.725,0.207l1.966-4.714c0.176-0.421-0.023-0.906-0.445-1.082l-0.016-0.005
						C73.643,65.041,73.156,65.239,72.98,65.661z"/>
				</g>
			</g>
		</g>
		<g>
			<g>
				<g>
					<path fill="#566CD3" d="M71.635,53.976c0.879-0.499,1.49-0.015,1.754,0.51c-0.138-0.809-0.837-1.426-1.685-1.426
						c-0.812,0-1.486,0.566-1.663,1.324C70.593,54.535,71.088,54.286,71.635,53.976z"/>
				</g>
			</g>
		</g>
	</g>
	<g>
		<path fill="#B9B8F1" d="M117.983,90.331H18.055c-0.319,0-0.578-0.26-0.578-0.579c0-0.318,0.259-0.577,0.578-0.577h99.928
			c0.32,0,0.579,0.259,0.579,0.577C118.563,90.071,118.304,90.331,117.983,90.331z"/>
	</g>
	<g>
		<g>
			<path fill="#B9B8F1" d="M95.173,94.434H79.761c-0.321,0-0.579-0.258-0.579-0.577s0.258-0.579,0.579-0.579h15.412
				c0.319,0,0.577,0.26,0.577,0.579S95.492,94.434,95.173,94.434z"/>
		</g>
		<g>
			<path fill="#B9B8F1" d="M75.135,94.434h-3.851c-0.322,0-0.579-0.258-0.579-0.577s0.257-0.579,0.579-0.579h3.851
				c0.319,0,0.579,0.26,0.579,0.579S75.454,94.434,75.135,94.434z"/>
		</g>
	</g>
	<g>
		<g>
			<g>
				<g>
					<path fill="#121F55" d="M84.559,91.357c-0.191,0-0.385-0.09-0.507-0.259l-2.177-2.979c-0.17-0.232-0.161-0.55,0.021-0.771
						l2.846-3.456c0.221-0.269,0.616-0.307,0.886-0.086c0.269,0.22,0.306,0.618,0.085,0.887l-2.535,3.078l1.891,2.587
						c0.205,0.279,0.143,0.674-0.138,0.879C84.818,91.317,84.688,91.357,84.559,91.357z"/>
				</g>
			</g>
		</g>
		<g>
			<g>
				<g>
					<path fill="#121F55" d="M88.739,91.352c-0.13,0-0.258-0.041-0.37-0.121c-0.28-0.206-0.341-0.6-0.138-0.88l1.897-2.594
						l-2.524-3.069c-0.221-0.268-0.183-0.664,0.085-0.886c0.271-0.221,0.666-0.182,0.887,0.087l2.835,3.448
						c0.184,0.221,0.191,0.538,0.023,0.771l-2.187,2.986C89.124,91.262,88.933,91.352,88.739,91.352z"/>
				</g>
			</g>
		</g>
		<g>
			<g>
				<g>
					<circle fill="#F7B75D" cx="86.714" cy="80.039" r="1.814"/>
				</g>
			</g>
		</g>
		<g>
			<g>
				<g>
					<polygon fill="#F99AB6" points="87.38,82.269 87.374,83.995 87.372,85.124 86.048,85.12 86.113,82.36 86.135,81.576 					"/>
				</g>
			</g>
		</g>
		<g>
			<g>
				<g>
					<path fill="#121F55" d="M84.746,84.974c0.004-0.538,0.469-1.061,0.951-1.311c0.722-0.376,1.836-0.113,2.189,0.098
						c0.604,0.359,0.965,1.088,0.922,1.839l0.043,4.024h-4.275C84.576,89.624,84.736,86.198,84.746,84.974z"/>
				</g>
			</g>
		</g>
		<g>
			<g>
				<g>
					<path fill="#F99AB6" d="M87.662,83.658c-0.528-0.222-1.27-0.296-1.87-0.038l0.445,0.444c0.281,0.281,0.735,0.281,1.017,0
						C87.39,83.929,87.525,83.794,87.662,83.658z"/>
				</g>
			</g>
		</g>
		<g>
			<g>
				<g>
					<path fill="#F99AB6" d="M87.059,79.001h-0.689c-0.608,0-1.178,0.498-1.102,1.103c0.056,0.439,0,0.769,0,1.421
						c0,0.547,0.641,1.607,1.187,1.607h0.518c0.548,0,1.188-1.061,1.188-1.607c0-0.652-0.057-0.981,0-1.421
						C88.235,79.499,87.666,79.001,87.059,79.001z"/>
				</g>
			</g>
		</g>
		<g>
			<g>
				<g>
					<path fill="#FFFEFF" d="M86.156,82.148c0.048,0.264,0.278,0.463,0.558,0.463c0.278,0,0.509-0.199,0.558-0.463H86.156z"/>
				</g>
			</g>
		</g>
		<g>
			<g>
				<g>
					<path fill="#566CD3" d="M87.399,93.475h-1.371c-0.989,0-1.728-0.903-1.535-1.87l0.083-1.98h4.275l0.081,1.98
						C89.128,92.571,88.387,93.475,87.399,93.475z"/>
				</g>
			</g>
		</g>
		<g>
			<g>
				<g>
					<path fill="#566CD3" d="M80.46,91.267l5.836-0.557l0.166,1.746l-5.836,0.557c-0.479,0.046-0.902-0.304-0.946-0.782
						l-0.002-0.018C79.631,91.736,79.981,91.311,80.46,91.267z"/>
				</g>
			</g>
		</g>
		<g>
			<g>
				<g>
					<path fill="#566CD3" d="M92.11,91.267l-5.836-0.557l-0.169,1.746l5.836,0.557c0.48,0.046,0.904-0.304,0.949-0.782l0.002-0.018
						C92.937,91.736,92.586,91.311,92.11,91.267z"/>
				</g>
			</g>
		</g>
		<g>
			<g>
				<g>
					<path fill="#FFFFFF" d="M89.134,92.441h-4.841c-0.249,0-0.451-0.201-0.451-0.451v-3.209c0-0.249,0.202-0.45,0.451-0.45h4.841
						c0.25,0,0.451,0.201,0.451,0.45v3.209C89.585,92.24,89.384,92.441,89.134,92.441z"/>
				</g>
			</g>
		</g>
		<g>
			<g>
				<g>
					<path fill="#B9B8F1" d="M89.134,92.633h-4.841c-0.249,0-0.451-0.203-0.451-0.451v-3.21c0-0.248,0.202-0.451,0.451-0.451h4.841
						c0.25,0,0.451,0.203,0.451,0.451v3.21C89.585,92.43,89.384,92.633,89.134,92.633z"/>
				</g>
			</g>
		</g>
		<g>
			<g>
				<g>
					<path fill="#FFFFFF" d="M87.378,90.919H86.05c-0.187,0-0.339-0.151-0.339-0.339v-0.007c0-0.188,0.152-0.339,0.339-0.339h1.328
						c0.186,0,0.337,0.151,0.337,0.339v0.007C87.715,90.768,87.563,90.919,87.378,90.919z"/>
				</g>
			</g>
		</g>
		<g>
			<g>
				<g>
					<g>
						<path fill="#FFFFFF" d="M84.413,94.235l1.7-0.103l-0.006,0.031c-0.016,0.099,0.063,0.188,0.163,0.186
							c0.075-0.002,0.142-0.058,0.152-0.134l0.018-0.103l0.192-0.012l-0.01,0.049c-0.016,0.099,0.062,0.188,0.162,0.186
							c0.077-0.003,0.142-0.058,0.153-0.133l0.021-0.121l1.068-0.064c0.021-0.008,0.045-0.021,0.065-0.033
							c0.041-0.01,0.084-0.021,0.124-0.036c0.492-0.178,0.748-0.722,0.569-1.213c-0.178-0.493-0.72-0.747-1.212-0.569
							c-0.006,0.002-0.008,0.004-0.012,0.005c-0.002,0.001-0.004,0.001-0.006,0.002l-3.377,1.221
							c-0.052,0.021-0.099,0.053-0.141,0.096C83.765,93.778,84.015,94.259,84.413,94.235z"/>
					</g>
				</g>
			</g>
			<g id="_x38_._Right_shoe_226_">
				<g>
					<g>
						<g>
							<circle fill="#F7B75D" cx="87.902" cy="93.29" r="0.947"/>
						</g>
					</g>
				</g>
				<g>
					<g>
						<g>
							<path fill="#F7B75D" d="M84.188,93.626l3.375-1.222c0.358-0.129,0.752,0.056,0.881,0.412l0,0
								c0.13,0.357-0.054,1.303-0.41,1.433l-3.615,0.218c-0.398,0.024-0.648-0.457-0.371-0.745
								C84.088,93.678,84.135,93.645,84.188,93.626z"/>
						</g>
					</g>
				</g>
				<g>
					<g>
						<g>
							<path fill="#FFFFFF" d="M86.844,93.886L86.844,93.886c0.099-0.002,0.178,0.088,0.16,0.187l-0.06,0.362
								c-0.012,0.076-0.076,0.131-0.153,0.133l0,0c-0.101,0.002-0.176-0.086-0.162-0.186l0.06-0.361
								C86.702,93.945,86.766,93.888,86.844,93.886z"/>
						</g>
					</g>
				</g>
				<g>
					<g>
						<g>
							<path fill="#FFFFFF" d="M86.328,93.9L86.328,93.9c0.099-0.004,0.179,0.087,0.161,0.186l-0.059,0.362
								c-0.014,0.075-0.077,0.131-0.154,0.134l0,0c-0.101,0.002-0.179-0.088-0.163-0.186l0.061-0.362
								C86.188,93.959,86.251,93.901,86.328,93.9z"/>
						</g>
					</g>
				</g>
			</g>
		</g>
		<g>
			<g>
				<g>
					<path fill="#F99AB6" d="M91.754,91.634l-3.942,1.061c-0.38,0.103-0.604,0.492-0.502,0.871l0.004,0.014
						c0.102,0.38,0.49,0.604,0.872,0.502l3.941-1.061c0.38-0.103,0.604-0.492,0.502-0.871l-0.004-0.014
						C92.524,91.756,92.133,91.531,91.754,91.634z"/>
				</g>
			</g>
		</g>
		<g>
			<g>
				<g>
					<g>
						<path fill="#FFFFFF" d="M88.156,94.235l-1.702-0.103l0.006,0.031c0.016,0.099-0.062,0.188-0.162,0.186
							c-0.076-0.002-0.142-0.058-0.153-0.134l-0.016-0.103l-0.191-0.012l0.008,0.049c0.016,0.099-0.063,0.188-0.163,0.186
							c-0.075-0.003-0.14-0.058-0.152-0.133l-0.02-0.121l-1.071-0.064c-0.021-0.008-0.042-0.021-0.063-0.033
							c-0.043-0.01-0.085-0.021-0.126-0.036c-0.494-0.178-0.747-0.722-0.569-1.213c0.178-0.493,0.723-0.747,1.214-0.569
							c0.004,0.002,0.006,0.004,0.012,0.005c0,0.001,0.002,0.001,0.004,0.002l3.377,1.221c0.054,0.021,0.099,0.053,0.142,0.096
							C88.803,93.778,88.553,94.259,88.156,94.235z"/>
					</g>
				</g>
			</g>
			<g id="_x38_._Right_shoe_225_">
				<g>
					<g>
						<g>
							<circle fill="#F7B75D" cx="84.666" cy="93.29" r="0.948"/>
						</g>
					</g>
				</g>
				<g>
					<g>
						<g>
							<path fill="#F7B75D" d="M88.381,93.626l-3.377-1.222c-0.356-0.129-0.751,0.056-0.881,0.412l0,0
								c-0.128,0.357,0.054,1.303,0.41,1.433l3.617,0.218c0.396,0.024,0.646-0.457,0.37-0.745
								C88.481,93.678,88.433,93.645,88.381,93.626z"/>
						</g>
					</g>
				</g>
				<g>
					<g>
						<g>
							<path fill="#FFFFFF" d="M85.727,93.886L85.727,93.886c-0.101-0.002-0.179,0.088-0.163,0.187l0.061,0.362
								c0.011,0.076,0.077,0.131,0.152,0.133l0,0c0.101,0.002,0.179-0.086,0.163-0.186l-0.061-0.361
								C85.865,93.945,85.804,93.888,85.727,93.886z"/>
						</g>
					</g>
				</g>
				<g>
					<g>
						<g>
							<path fill="#FFFFFF" d="M86.241,93.9L86.241,93.9c-0.101-0.004-0.178,0.087-0.161,0.186l0.059,0.362
								c0.012,0.075,0.077,0.131,0.153,0.134l0,0c0.101,0.002,0.178-0.088,0.16-0.186l-0.058-0.362
								C86.383,93.959,86.318,93.901,86.241,93.9z"/>
						</g>
					</g>
				</g>
			</g>
		</g>
		<g>
			<g>
				<g>
					<path fill="#F99AB6" d="M80.816,91.634l3.939,1.061c0.38,0.103,0.604,0.492,0.502,0.871l-0.002,0.014
						c-0.103,0.38-0.494,0.604-0.871,0.502l-3.942-1.061c-0.38-0.103-0.604-0.492-0.502-0.871l0.004-0.014
						C80.045,91.756,80.437,91.531,80.816,91.634z"/>
				</g>
			</g>
		</g>
		<g>
			<g>
				<g>
					<path fill="#F7B75D" d="M86.679,78.224c-1.208,0-2.254,1.274-2.254,1.274c1.505,0.921,2.563,0.244,2.928-0.055
						c0.106-0.086,0.321-0.268,0.321-0.508L86.679,78.224z"/>
				</g>
			</g>
		</g>
	</g>
	<g>
		<g>
			
				<rect x="39.829" y="42.467" transform="matrix(0.8856 -0.4644 0.4644 0.8856 -17.8948 24.2133)" fill="#B9B8F1" width="0.771" height="11.945"/>
		</g>
		<g>
			<polygon fill="#F7B75D" points="39.606,48.111 37.703,44.486 33.131,49.2 			"/>
		</g>
	</g>
	<g>
		<g>
			<g>
				<path fill="#F99AB6" d="M34.404,70.963c0.069-0.184,1.695-4.527,1.695-7.188h-0.965c0,2.483-1.616,6.805-1.633,6.848
					L34.404,70.963z"/>
			</g>
		</g>
		<g>
			<g>
				<path fill="#F99AB6" d="M38.642,67.393l1.617-2.709c0.067-0.112,0.086-0.249,0.05-0.377c-0.037-0.128-0.123-0.235-0.24-0.297
					l-2.596-1.365l-0.449,0.854l2.145,1.128l-1.356,2.271L38.642,67.393z"/>
			</g>
		</g>
		<g>
			<g>
				<path fill="#121F55" d="M33.957,54.014c0,0,0.637-0.769,0.925-1.017c0.527-0.453,0.962,0.048,0.962,0.048
					c2.625-0.403,3.118,3.346,1.923,4.279c-0.969,0.757-1.778,0.236-1.778,0.236s-0.546,0.408-1.383,0.537
					c-0.518,0.08-1.144-0.261-1.144-0.261s-0.733,0.523-1.294-0.251c-0.562-0.774,0.269-1.595,0.71-1.604
					c0,0-0.528-0.636,0.196-1.058C33.36,54.758,33.957,54.014,33.957,54.014z"/>
			</g>
		</g>
		<g>
			<g>
				<path fill="#F99AB6" d="M37.203,58.671c0.177-0.089,0.32-0.357,0.109-0.603c-0.208-0.241-0.529-0.375-0.874-0.388l-0.089-0.003
					c-0.305-0.012-0.581,0.121-0.765,0.337C35.731,58.468,36.725,58.855,37.203,58.671z"/>
			</g>
		</g>
		<g>
			<g>
				<path fill="#F99AB6" d="M36.673,56.988l0.008,0.39l0.014,0.731l-0.562,0.01l-0.017-0.934l-0.008-0.362
					C36.278,56.937,36.471,56.998,36.673,56.988z"/>
			</g>
		</g>
		<g>
			<g>
				<g>
					<path fill="#F99AB6" d="M36.673,56.988l0.008,0.39c-0.199-0.03-0.441-0.119-0.566-0.266l-0.006-0.29
						C36.278,56.937,36.471,56.998,36.673,56.988z"/>
				</g>
			</g>
		</g>
		<g>
			<g>
				<path fill="#F99AB6" d="M36.985,56.988L36.985,56.988c-0.475,0.239-1.011,0.224-1.454,0.004
					c-0.306-0.15-0.568-0.399-0.733-0.728l-0.288-0.573c-0.209-0.415-0.224-0.877-0.077-1.284c0.136-0.379,0.412-0.708,0.799-0.903
					l0,0c0.257-0.128,0.531-0.183,0.799-0.172c0.572,0.024,1.113,0.349,1.389,0.896l0.288,0.573
					c0.265,0.526,0.218,1.128-0.073,1.594C37.483,56.64,37.263,56.849,36.985,56.988z"/>
			</g>
		</g>
		<g>
			<g>
				<path fill="#121F55" d="M35.187,55.302c1.169,0.19,1.297-1.069,1.23-1.588c-0.139-1.084-1.555-0.875-2.051-0.335
					c-0.307,0.334-0.852,1.239-0.617,2.364c0.235,1.125,1.383,1.824,1.383,1.824c1.262-0.925-0.042-1.811-0.042-1.811L35.187,55.302
					z"/>
			</g>
		</g>
		<g>
			<g>
				<circle fill="#8EDEF2" cx="36.213" cy="62.923" r="1.546"/>
			</g>
		</g>
		<g>
			<g>
				<path fill="#FFFEFF" d="M36.856,56.101c0.125,0.163,0.352,0.221,0.542,0.126c0.19-0.097,0.279-0.313,0.223-0.511L36.856,56.101z
					"/>
			</g>
		</g>
		<g>
			<g>
				<path fill="#8EDEF2" d="M38.859,63.365c-2.042,1.771-4.576,2.639-4.576,2.639s-0.432-2.591,0.525-3.713
					c0.48-0.563,2.95,0.255,2.95,0.255L38.859,63.365z"/>
			</g>
		</g>
		<g>
			<g>
				<path fill="#8EDEF2" d="M38.025,58.931c0.105,0.291-0.188,0.585-0.497,0.619c-0.308,0.034-0.585-0.188-0.619-0.497
					c-0.034-0.309,0.426-0.983,0.599-0.726C37.673,58.572,37.934,58.682,38.025,58.931z"/>
			</g>
		</g>
		<g>
			<g>
				<path fill="#8EDEF2" d="M35.585,58.015c-0.133,0.156-0.218,0.355-0.229,0.575c0,0,0.139,2.539-0.558,3.709
					c-0.299,0.503,2.969,0.488,2.969,0.488l-0.087-3.755c0.017-0.374-0.125-0.716-0.368-0.963
					C37.298,58.636,36.133,57.955,35.585,58.015z"/>
			</g>
		</g>
		<g>
			<g>
				<path fill="#8EDEF2" d="M36.077,58.94c0.58,0,4.493-0.184,6.67-5.007l-0.879-0.397c-2.029,4.496-5.668,4.444-5.824,4.44
					l-0.033,0.963C36.02,58.939,36.042,58.94,36.077,58.94z"/>
			</g>
		</g>
		<g>
			<g>
				<path fill="#F99AB6" d="M41.893,52.762c0.173-0.107,0.372-0.142,0.559-0.114l0.664,1.075c-0.059,0.181-0.178,0.341-0.353,0.448
					c-0.389,0.24-0.9,0.119-1.14-0.27C41.382,53.513,41.503,53.001,41.893,52.762z"/>
			</g>
		</g>
		<g>
			<g>
				<g>
					<circle fill="#121F55" cx="37.842" cy="67.476" r="0.629"/>
				</g>
			</g>
			<g>
				<g>
					<path fill="#121F55" d="M39.958,68.761l-2.284-0.679c-0.242-0.071-0.379-0.326-0.308-0.566l0,0
						c0.072-0.242,0.543-0.676,0.784-0.604l2.016,1.31c0.222,0.143,0.166,0.498-0.095,0.545
						C40.033,68.772,39.994,68.771,39.958,68.761z"/>
				</g>
			</g>
		</g>
		<g>
			<g>
				<g>
					<circle fill="#121F55" cx="33.858" cy="71.156" r="0.629"/>
				</g>
			</g>
			<g>
				<g>
					<path fill="#121F55" d="M36.334,71.181l-2.31,0.582c-0.245,0.062-0.493-0.085-0.555-0.33l0,0
						c-0.062-0.243,0.122-0.857,0.366-0.92l2.401,0.096c0.266,0.011,0.398,0.346,0.197,0.518
						C36.403,71.151,36.37,71.171,36.334,71.181z"/>
				</g>
			</g>
		</g>
		<g>
			<g>
				<path fill="#8EDEF2" d="M36.734,62.478c0.247,0,0.513-0.024,0.794-0.084l-0.029-0.136c-1.319,0.284-2.346-0.28-2.355-0.286
					l-0.068,0.12C35.111,62.111,35.774,62.478,36.734,62.478z"/>
			</g>
		</g>
	</g>
	<g>
		<g>
			<g>
				<path fill="#FFFFFF" d="M53.052,27.33c0.157-0.228-0.056-0.608,0.077-1.06c0.403-1.364-0.069-1.958-0.069-1.958
					c0.007-0.501-0.414-0.94-1.042-1.172c-0.294-0.108-0.635-0.172-0.999-0.173c-0.548-0.004-1.049,0.132-1.422,0.355
					c-0.4,0.24-0.69,0.583-0.658,0.963c0.022,0.269,0.311,0.624,0.017,1.078c-0.726,1.121-0.411,1.767-0.025,1.967
					c0.354,0.186,0.764,0.2,0.972,0.319C50.973,28.26,52.494,28.139,53.052,27.33z"/>
			</g>
		</g>
		<g>
			<path fill="#F99AB6" d="M56.404,32.323c0.247-0.028,0.502-0.072,0.765-0.133c0.193-0.044,0.313-0.237,0.269-0.429
				c-0.045-0.194-0.236-0.314-0.43-0.269c-1.225,0.284-2.229,0.163-2.983-0.36c-1.15-0.799-1.354-2.272-1.356-2.287
				c-0.026-0.196-0.208-0.332-0.402-0.31c-0.196,0.026-0.335,0.207-0.309,0.402c0.009,0.074,0.25,1.806,1.66,2.783
				C54.373,32.244,55.309,32.446,56.404,32.323z"/>
		</g>
		<g>
			<path fill="#121F55" d="M52.837,29.393c0.07,0,0.136,0.007,0.198,0.02c-0.12-0.341-0.158-0.59-0.159-0.596
				c-0.037-0.282-0.28-0.494-0.566-0.494c-0.022,0-0.045,0.002-0.07,0.005c-0.311,0.04-0.531,0.327-0.49,0.637
				c0.004,0.036,0.065,0.453,0.275,0.989C52.136,29.642,52.407,29.393,52.837,29.393z"/>
		</g>
		<g>
			<g>
				<path fill="#F99AB6" d="M52.163,29.09c0.184-0.093,0.333-0.372,0.113-0.625c-0.217-0.252-0.55-0.392-0.909-0.405l-0.092-0.003
					c-0.318-0.012-0.605,0.126-0.796,0.351C50.63,28.878,51.665,29.282,52.163,29.09z"/>
			</g>
		</g>
		<g>
			<g>
				<path fill="#F99AB6" d="M51.556,27.34l0.008,0.405l0.015,0.76l-0.584,0.011l-0.019-0.973l-0.008-0.376
					C51.146,27.286,51.347,27.349,51.556,27.34z"/>
			</g>
		</g>
		<g>
			<g>
				<g>
					<path fill="#F99AB6" d="M51.556,27.437l0.008,0.405c-0.207-0.031-0.458-0.124-0.589-0.276l-0.007-0.302
						C51.146,27.382,51.347,27.445,51.556,27.437z"/>
				</g>
			</g>
		</g>
		<g>
			<g>
				<path fill="#F99AB6" d="M51.411,27.646L51.411,27.646c-0.553-0.006-1.042-0.275-1.347-0.689
					c-0.211-0.285-0.334-0.64-0.331-1.022l0.007-0.666c0.005-0.484,0.212-0.919,0.542-1.225c0.306-0.285,0.719-0.458,1.17-0.453l0,0
					c0.299,0.003,0.578,0.083,0.82,0.221c0.517,0.295,0.863,0.854,0.857,1.49l-0.007,0.667c-0.006,0.613-0.337,1.146-0.827,1.439
					C52.036,27.562,51.734,27.648,51.411,27.646z"/>
			</g>
		</g>
		<g>
			<g>
				<path fill="#F7B75D" d="M53.23,33.156c0.196,0.865-0.875,1.728-1.741,1.924c-0.866,0.197-1.728-0.345-1.925-1.21
					c-0.197-0.866,0.345-1.728,1.211-1.925C51.641,31.748,53.032,32.29,53.23,33.156z"/>
			</g>
		</g>
		<g>
			<g>
				<path fill="#FFFEFF" d="M51.523,26.763c0.038,0.211,0.22,0.372,0.441,0.375c0.222,0.001,0.407-0.155,0.449-0.366L51.523,26.763z
					"/>
			</g>
		</g>
		<g>
			<g>
				<path fill="#121F55" d="M53.117,29.483c0.11,0.303-0.195,0.672-0.515,0.708s-0.71-0.383-0.746-0.704
					c-0.036-0.32,0.443-1.022,0.624-0.755C52.65,28.987,53.023,29.224,53.117,29.483z"/>
			</g>
		</g>
		<g>
			<g>
				<path fill="#121F55" d="M50.479,28.407c-0.139,0.162-0.227,0.369-0.237,0.598c0,0,0.521,2.523-0.58,3.857
					c0,0,1.988,1.192,3.584,0.387c0-1.142-0.698-1.932-0.588-3.784c0.023-0.388-0.131-0.744-0.382-1
					C52.261,29.053,51.049,28.344,50.479,28.407z"/>
			</g>
		</g>
		<g>
			<g>
				<g>
					<g>
						<path fill="#2143AF" d="M52.184,41.202c0.038,0.376-0.029,0.678-0.014,0.771c0.024,0.155,0.719,0.295,0.806,0.724
							c0.119,0.587,0.891,0.65,1.016,0.674c0.321,0.063,0.604-0.1,0.437-0.409c-0.194-0.361-0.39-0.426-0.653-0.866
							c-0.385-0.646-0.414-1.082-0.617-1.466c-0.037-0.071-0.222-0.308-0.503-0.272C52.398,40.392,52.137,40.74,52.184,41.202z"/>
					</g>
				</g>
			</g>
			<g>
				<g>
					<g>
						<path fill="#F99AB6" d="M53.31,42.339c-0.215-0.317-0.587-1.343-0.538-1.593c0.058-0.294,0.627-0.416,0.706-0.176
							c0.135,0.414,0.093,1.185,0.584,1.917C54.057,42.703,53.561,42.709,53.31,42.339z"/>
					</g>
				</g>
			</g>
		</g>
		<g>
			<g>
				<g>
					<g>
						<path fill="#2143AF" d="M62.454,36.232c0.279-0.256,0.56-0.383,0.626-0.452c0.108-0.111-0.194-0.752,0.098-1.079
							c0.4-0.446-0.012-1.102-0.067-1.217c-0.141-0.294-0.44-0.425-0.589-0.105c-0.172,0.372-0.107,0.567-0.303,1.041
							c-0.288,0.694-0.619,0.979-0.807,1.371c-0.033,0.072-0.113,0.362,0.084,0.567C61.675,36.544,62.112,36.545,62.454,36.232z"/>
					</g>
				</g>
			</g>
			<g>
				<g>
					<g>
						<path fill="#F99AB6" d="M62.691,34.648c-0.125,0.362-0.726,1.274-0.956,1.383c-0.269,0.13-0.707-0.252-0.562-0.46
							c0.25-0.357,0.894-0.783,1.187-1.614C62.537,33.833,62.838,34.226,62.691,34.648z"/>
					</g>
				</g>
			</g>
		</g>
		<g>
			<path fill="#F7B75D" d="M54.901,35.473l-0.027-0.012l-3.797-1.744c-0.36-0.165-0.785-0.007-0.951,0.353
				c-0.165,0.359-0.007,0.785,0.353,0.951c0.001,0.001,0.006,0.003,0.007,0.003l3.267,1.457l-1.156,3.966l0.993,0.328l1.656-4.464
				C55.368,35.981,55.214,35.618,54.901,35.473z"/>
		</g>
		<g>
			<path fill="#F99AB6" d="M51.415,33.299c0.185,0,0.382-0.011,0.59-0.032c0.197-0.021,0.341-0.197,0.32-0.394
				c-0.021-0.197-0.197-0.339-0.393-0.319c-0.662,0.067-1.514,0.046-1.814-0.446c-0.473-0.775,0.421-2.483,0.771-3.02
				c0.108-0.167,0.062-0.388-0.104-0.496c-0.166-0.108-0.388-0.062-0.497,0.104c-0.163,0.251-1.573,2.486-0.782,3.785
				C49.837,33.025,50.479,33.299,51.415,33.299z"/>
		</g>
		<g>
			<g>
				<path fill="#FFFFFF" d="M49.549,25.452c0,0,1.201,0.43,1.951-0.092c0.75-0.522,1.093-1.326,0.765-1.797
					c-0.327-0.471-1.201-0.429-1.951,0.093C49.564,24.176,49.549,25.452,49.549,25.452z"/>
			</g>
		</g>
		<g>
			<path fill="#F7B75D" d="M51.043,33.548c0,0,0.665,0.017,1.66,0.059c0.499,0.023,1.079,0.051,1.702,0.08
				c0.622,0.038,1.286,0.077,1.948,0.116l0.25,0.016l0.062,0.003l0.015,0.001l0.069,0.006l0.031,0.005l0.122,0.018l0.245,0.038
				l0.016,0.002l0.06,0.011l0.007,0.001l0.031,0.007l0.06,0.015l0.119,0.029c0.317,0.079,0.63,0.156,0.933,0.23
				c0.302,0.076,0.595,0.145,0.872,0.219c0.275,0.073,0.537,0.141,0.778,0.205c0.483,0.125,0.884,0.24,1.163,0.317
				c0.281,0.08,0.441,0.126,0.441,0.126l-0.202,0.9c0,0-0.164-0.026-0.451-0.073c-0.287-0.05-0.698-0.115-1.188-0.208
				c-0.245-0.046-0.511-0.095-0.793-0.146c-0.281-0.049-0.575-0.112-0.88-0.172c-0.307-0.06-0.622-0.124-0.944-0.188l-0.12-0.024
				l-0.061-0.011l-0.03-0.007l-0.008-0.001c-0.012-0.002,0.097,0.017,0.048,0.009l-0.003-0.001l-0.015-0.001l-0.247-0.029
				l-0.124-0.016l-0.03-0.004h-0.004c-0.012-0.002,0.099,0.009,0.049,0.004h-0.007l-0.015-0.001l-0.063-0.002l-0.249-0.01
				c-0.664-0.026-1.329-0.051-1.951-0.077c-0.622-0.031-1.202-0.061-1.701-0.086c-0.995-0.057-1.658-0.105-1.658-0.105
				L51.043,33.548z"/>
		</g>
		<g>
			<g>
				<path fill="#121F55" d="M51.261,33.971c0-0.119,0.097-0.215,0.216-0.215h7.807c0.164,0,0.298,0.097,0.298,0.215
					c0,0.119-0.134,0.216-0.298,0.216h-7.807C51.358,34.187,51.261,34.09,51.261,33.971L51.261,33.971z"/>
			</g>
			<g>
				<path fill="#FFFFFF" d="M50.955,33.971c0,0.119,0.104,0.216,0.232,0.216h2.965c0.127,0,0.232-0.097,0.232-0.216
					c0-0.118-0.105-0.215-0.232-0.215h-2.965C51.06,33.755,50.955,33.853,50.955,33.971z"/>
			</g>
			<g>
				<path fill="#FFFFFF" d="M59.57,29.715v3.937c0,0.175-0.143,0.317-0.318,0.317h-5.194c-0.176,0-0.317-0.142-0.317-0.317v-3.937
					c0-0.175,0.141-0.318,0.317-0.318h5.194C59.427,29.397,59.57,29.54,59.57,29.715z"/>
			</g>
			<g>
				<path fill="#FFFFFF" d="M59.812,29.715v3.937c0,0.175-0.143,0.317-0.317,0.317h-5.194c-0.176,0-0.318-0.142-0.318-0.317v-3.937
					c0-0.175,0.142-0.318,0.318-0.318h5.194C59.669,29.397,59.812,29.54,59.812,29.715z"/>
			</g>
			<g>
				<path fill="#B9B8F1" d="M56.041,31.684L56.041,31.684c0-0.185,0.15-0.334,0.335-0.334h1.043c0.186,0,0.334,0.149,0.334,0.334
					l0,0c0,0.186-0.148,0.335-0.334,0.335h-1.043C56.191,32.019,56.041,31.869,56.041,31.684z"/>
			</g>
		</g>
		<g>
			<path fill="#121F55" d="M49.884,29.331c0.423,0,0.691,0.241,0.806,0.545c0.131-0.269,0.266-0.507,0.375-0.674
				c0.171-0.262,0.097-0.615-0.166-0.786c-0.092-0.061-0.2-0.092-0.31-0.092c-0.192,0-0.371,0.096-0.476,0.257
				c-0.083,0.126-0.257,0.406-0.441,0.773C49.737,29.34,49.808,29.331,49.884,29.331z"/>
		</g>
		<g>
			<g>
				<path fill="#F99AB6" d="M53.559,32.628c0.087,0.195,0.094,0.404,0.039,0.594l-1.206,0.533c-0.178-0.086-0.327-0.232-0.414-0.428
					c-0.193-0.437,0.004-0.947,0.44-1.14C52.855,31.995,53.366,32.192,53.559,32.628z"/>
			</g>
		</g>
	</g>
</g>
</svg>
