<?xml version="1.0" encoding="utf-8"?>
<!-- Generator: Adobe Illustrator 16.0.3, SVG Export Plug-In . SVG Version: 6.00 Build 0)  -->
<!DOCTYPE svg PUBLIC "-//W3C//DTD SVG 1.1//EN" "http://www.w3.org/Graphics/SVG/1.1/DTD/svg11.dtd">
<svg version="1.1" id="Ebene_1" xmlns="http://www.w3.org/2000/svg" xmlns:xlink="http://www.w3.org/1999/xlink" x="0px" y="0px"
	 width="600px" height="450px" viewBox="-230 -165 600 450" enable-background="new -230 -165 600 450" xml:space="preserve">
<g>
	<g>
		<g>
			<path fill="#E5E9FF" d="M68.187-117.258c100.791,0,182.497,81.706,182.497,182.5c0,100.788-81.706,182.498-182.497,182.498
				c-100.792,0-182.499-81.71-182.499-182.498C-114.312-35.552-32.605-117.258,68.187-117.258z"/>
		</g>
		<g>
			<path fill="#E5E9FF" d="M67.374-80.437H-49.187c-9.856,0-17.847-7.987-17.847-17.844l0,0c0-9.851,7.99-17.847,17.847-17.847
				H67.374c9.85,0,17.839,7.996,17.839,17.847l0,0C85.213-88.424,77.224-80.437,67.374-80.437z"/>
		</g>
		<g>
			<path fill="#E5E9FF" d="M-78.365,170.85h74.899c7.722,0,13.98,6.261,13.98,13.981l0,0c0,7.718-6.258,13.979-13.98,13.979h-74.899
				c-7.722,0-13.98-6.261-13.98-13.979l0,0C-92.345,177.11-86.086,170.85-78.365,170.85z"/>
		</g>
		<g>
			<path fill="#E5E9FF" d="M-93.377,225.973H17.603c5.006,0,9.063,4.062,9.063,9.063l0,0c0,5.005-4.053,9.063-9.063,9.063H-93.377
				c-5.003,0-9.063-4.058-9.063-9.063l0,0C-102.436,230.034-98.38,225.973-93.377,225.973z"/>
		</g>
		<g>
			<path fill="#E5E9FF" d="M148.492,244.098h18.002c4.713,0,8.527,3.814,8.527,8.524v1.076c0,4.71-3.814,8.524-8.527,8.524h-18.002
				c-4.709,0-8.534-3.814-8.534-8.524v-1.076C139.958,247.912,143.783,244.098,148.492,244.098z"/>
		</g>
		<g>
			<path fill="#E5E9FF" d="M55.089,190.491h168.874c7.725,0,13.981,6.264,13.981,13.988v1.756c0,7.725-6.257,13.981-13.981,13.981
				H55.089c-7.725,0-13.988-6.257-13.988-13.981v-1.756C41.098,196.755,47.364,190.491,55.089,190.491z"/>
		</g>
		<g>
			<path fill="#E5E9FF" d="M-62.425,198.613h52.185c-3.854,0-7.359,1.668-9.884,4.186c-2.537,2.538-4.103,5.532-4.103,9.398
				c0,7.725,6.269,13.48,13.986,13.48h-52.185c3.855,0,7.347-1.022,9.884-3.533c2.524-2.531,4.092-5.858,4.092-9.725
				C-48.449,204.692-54.706,198.613-62.425,198.613z"/>
		</g>
		<g>
			<path fill="#E5E9FF" d="M151.628,39.233h134.537c13.865,0,25.116,11.244,25.116,25.118l0,0c0,13.861-11.251,25.105-25.116,25.105
				H151.628c-13.865,0-25.109-11.244-25.109-25.105l0,0C126.516,50.477,137.756,39.233,151.628,39.233z"/>
		</g>
		<g>
			<path fill="#E5E9FF" d="M94.255,137.838h199.333c8.991,0,16.28,7.289,16.28,16.279l0,0c0,8.987-7.289,16.28-16.28,16.28H94.255
				c-8.994,0-16.283-7.293-16.283-16.28l0,0C77.972,145.127,85.261,137.838,94.255,137.838z"/>
		</g>
		<g>
			<path fill="#E5E9FF" d="M181.851,89.37h93.729c-6.915,0-13.213,2.724-17.751,7.258c-4.556,4.556-7.372,9.913-7.372,16.859
				c0,13.868,11.258,24.193,25.123,24.193h-93.732c6.922,0,13.199-1.956,17.751-6.473c4.534-4.535,7.351-10.301,7.351-17.244
				C206.956,100.072,195.705,89.37,181.851,89.37z"/>
		</g>
		<g>
			<path fill="#E5E9FF" d="M29.711,17.125h-157.652c-14.724,0-26.663-11.935-26.663-26.663l0,0
				c0-14.724,11.938-26.659,26.663-26.659H29.711c14.721,0,26.663,11.935,26.663,26.659l0,0
				C56.37,5.187,44.432,17.125,29.711,17.125z"/>
		</g>
		<g>
			<path fill="#E5E9FF" d="M95.376,167.427h-227.819c-21.282,0-38.529-17.247-38.529-38.527l0,0
				c0-21.277,17.25-38.531,38.529-38.531H95.376c21.271,0,38.531,17.254,38.531,38.531l0,0
				C133.907,150.18,116.646,167.427,95.376,167.427z"/>
		</g>
		<g>
			<path fill="#E5E9FF" d="M224.282-43.65H98.501c-11.748,0-21.271-9.522-21.271-21.272l0,0c0-11.745,9.522-21.272,21.271-21.272
				h125.784c11.745,0,21.268,9.527,21.268,21.272l0,0C245.549-53.172,236.026-43.65,224.282-43.65z"/>
		</g>
		<g>
			<path fill="#E5E9FF" d="M185.593-117.255h-29.87c-6.394,0-11.583-5.185-11.583-11.577l0,0c0-6.39,5.189-11.573,11.583-11.573
				h29.87c6.391,0,11.566,5.183,11.566,11.573l0,0C197.159-122.439,191.983-117.255,185.593-117.255z"/>
		</g>
	</g>
	<g>
		<g id="XMLID_305_">
			<g id="XMLID_307_">
				<g>
					<g>
						<g>
							<path fill="#FFFFFF" d="M-61.533,3.091c-0.328-0.833-10.211-16.509-10.211-16.509s-9.462,15.213-10.08,16.509H-61.533z"/>
						</g>
					</g>
				</g>
			</g>
			<g id="XMLID_306_">
				<g>
					<g>
						<g>
							<polygon fill="#121F55" points="-76.584,-5.481 -66.855,-5.508 -71.745,-13.418 							"/>
						</g>
					</g>
				</g>
			</g>
		</g>
		<g id="XMLID_304_">
			<g>
				<g>
					<g>
						<polygon fill="#2143AF" points="-61.533,3.674 -81.881,3.732 -81.84,148.361 -61.533,148.361 						"/>
					</g>
				</g>
			</g>
		</g>
		<g id="XMLID_303_">
			<g>
				<g>
					<g>
						<polygon fill="#566CD3" points="-68.213,3.674 -75.204,3.732 -75.187,148.361 -68.213,148.361 						"/>
					</g>
				</g>
			</g>
		</g>
		<g>
			<g>
				<g>
					<path fill="#F7B75D" d="M-81.91,148.361v4.46c0,4.105,3.358,7.46,7.458,7.46h5.684c4.099,0,7.46-3.354,7.46-7.46v-4.46H-81.91z
						"/>
				</g>
			</g>
		</g>
	</g>
	<g>
		<g>
			<polygon fill="#FFFFFF" points="-93.638,98.995 -5.323,98.898 -5.709,153.582 -92.482,153.582 			"/>
		</g>
		<g>
			<g>
				<g>
					<g>
						<g>
							<rect x="-19.769" y="99.53" fill="#2143AF" width="14.496" height="18.622"/>
						</g>
					</g>
				</g>
			</g>
			<g>
				<g>
					<g>
						<g>
							<rect x="-42.201" y="99.53" fill="#2143AF" width="17.268" height="18.622"/>
						</g>
					</g>
				</g>
			</g>
		</g>
		<g>
			<polygon fill="#FFFFFF" points="-93.638,160.278 -5.323,160.278 -36.542,130.92 -62.253,130.92 			"/>
		</g>
		<g>
			<polygon fill="#B9B8F1" points="-93.574,160.258 -93.574,99.245 -62.197,130.92 			"/>
		</g>
		<g>
			<polygon fill="#B9B8F1" points="-5.273,160.258 -5.273,99.53 -36.542,130.92 			"/>
		</g>
	</g>
	<g>
		<g>
			<path fill="#FFFFFF" d="M232.264-8.133c0,0-11.237,7.44-11.237,18.803h-12.369c0-11.362-11.237-18.767-11.237-18.767
				l17.426-20.176L232.264-8.133z"/>
		</g>
		<g>
			<path fill="#566CD3" d="M215.737-10.493v-16.204l-1.159-1.724l-1.362,2.027v16.012c-1.266,0.653-2.229,1.964-2.229,3.485
				c0,2.175,1.719,3.938,3.894,3.938s3.567-1.76,3.567-3.938C218.447-8.508,218.262-9.882,215.737-10.493z"/>
		</g>
		<g>
			<g>
				<path fill="#2143AF" d="M205.042,143.33v7.151c0,5.409,4.391,9.797,9.804,9.797l0,0c5.405,0,9.789-4.388,9.789-9.797v-7.151
					H205.042z"/>
			</g>
		</g>
		<g>
			<g>
				<path fill="#566CD3" d="M221.493,38.337V11.042h-13.302v27.295l0,0c-1.75,0-3.149,1.408-3.149,3.147v102.528h19.593V41.481
					C224.635,39.746,223.222,38.337,221.493,38.337z"/>
			</g>
		</g>
	</g>
	<g>
		<g>
			<g>
				<g>
					<g>
						<path fill="#B9B8F1" d="M85.919,139.961v-15.483c0-0.587-0.479-1.057-1.066-1.057H42.363c-0.587,0-1.062,0.47-1.062,1.057
							v15.483c0,10.507-11.236,15.748-20.032,18.245c-1.184,0.34-0.937,2.072,0.292,2.072h86.936c1.207,0,1.478-1.691,0.336-2.059
							C99.846,155.308,85.919,149.298,85.919,139.961z"/>
					</g>
				</g>
			</g>
		</g>
		<g>
			<g>
				<g>
					<g>
						<path fill="#566CD3" d="M169.311-28.685H-42.091c-3.665,0-6.636,3.039-6.636,6.793v134.14H175.94v-134.14
							C175.94-25.646,172.967-28.685,169.311-28.685z"/>
					</g>
				</g>
			</g>
		</g>
		<g>
			<g>
				<g>
					<g>
						<rect x="-37.944" y="-18.697" fill="#FFFFFF" width="203.368" height="120.889"/>
					</g>
				</g>
			</g>
		</g>
		<g>
			<g>
				<g>
					<g>
						<g>
							<rect x="-37.971" y="-18.697" fill="#E5E9FF" width="98.916" height="37.418"/>
						</g>
					</g>
				</g>
			</g>
			<g>
				<g>
					<g>
						<g>
							<rect x="131.863" y="-18.697" fill="#E5E9FF" width="33.608" height="37.418"/>
						</g>
					</g>
				</g>
			</g>
			<g>
				<g>
					<g>
						<g>
							<rect x="79.854" y="-18.697" fill="#E5E9FF" width="40.03" height="37.418"/>
						</g>
					</g>
				</g>
			</g>
		</g>
		<g>
			<g>
				<g>
					<g>
						<path fill="#FFFFFF" d="M-48.727,110.925v8.709c0,3.75,2.971,6.796,6.636,6.796h211.401c3.656,0,6.63-3.046,6.63-6.796v-8.709
							H-48.727z"/>
					</g>
				</g>
			</g>
		</g>
		<g>
			<g>
				<g>
					<g>
						<rect x="-37.944" y="-18.697" fill="#E5E9FF" width="203.416" height="11.036"/>
					</g>
				</g>
			</g>
		</g>
	</g>
	<g>
		<g>
			<g>
				<g>
					<rect x="-14.43" y="81.683" fill="#F7B75D" width="156.618" height="20.506"/>
				</g>
			</g>
		</g>
		<g>
			<g>
				<g>
					<rect x="-10.729" y="81.687" fill="#566CD3" width="2.708" height="10.249"/>
				</g>
			</g>
			<g>
				<g>
					<rect x="-4.972" y="81.687" fill="#566CD3" width="2.708" height="5.855"/>
				</g>
			</g>
			<g>
				<g>
					<rect x="-0.655" y="81.687" fill="#566CD3" width="2.708" height="10.249"/>
				</g>
			</g>
			<g>
				<g>
					<rect x="5.098" y="81.687" fill="#566CD3" width="2.708" height="5.855"/>
				</g>
			</g>
			<g>
				<g>
					<rect x="10.855" y="81.687" fill="#566CD3" width="2.708" height="10.249"/>
				</g>
			</g>
			<g>
				<g>
					<rect x="15.169" y="81.687" fill="#566CD3" width="2.708" height="5.855"/>
				</g>
			</g>
			<g>
				<g>
					<rect x="20.93" y="81.687" fill="#566CD3" width="2.708" height="10.249"/>
				</g>
			</g>
			<g>
				<g>
					<rect x="26.682" y="81.687" fill="#566CD3" width="2.708" height="5.855"/>
				</g>
			</g>
			<g>
				<g>
					<rect x="30.999" y="81.687" fill="#566CD3" width="2.708" height="10.249"/>
				</g>
			</g>
			<g>
				<g>
					<rect x="36.756" y="81.687" fill="#566CD3" width="2.708" height="5.855"/>
				</g>
			</g>
			<g>
				<g>
					<rect x="41.07" y="81.687" fill="#566CD3" width="2.708" height="10.249"/>
				</g>
			</g>
			<g>
				<g>
					<rect x="46.828" y="81.687" fill="#566CD3" width="2.708" height="5.855"/>
				</g>
			</g>
			<g>
				<g>
					<rect x="52.583" y="81.687" fill="#566CD3" width="2.708" height="10.249"/>
				</g>
			</g>
			<g>
				<g>
					<rect x="56.896" y="81.687" fill="#566CD3" width="2.708" height="5.855"/>
				</g>
			</g>
			<g>
				<g>
					<rect x="62.658" y="81.687" fill="#566CD3" width="2.708" height="10.249"/>
				</g>
			</g>
			<g>
				<g>
					<rect x="68.415" y="81.687" fill="#566CD3" width="2.708" height="5.855"/>
				</g>
			</g>
			<g>
				<g>
					<rect x="72.727" y="81.687" fill="#566CD3" width="2.71" height="10.249"/>
				</g>
			</g>
			<g>
				<g>
					<rect x="78.482" y="81.687" fill="#566CD3" width="2.707" height="5.855"/>
				</g>
			</g>
			<g>
				<g>
					<rect x="84.242" y="81.687" fill="#566CD3" width="2.706" height="10.249"/>
				</g>
			</g>
			<g>
				<g>
					<rect x="88.554" y="81.687" fill="#566CD3" width="2.71" height="5.855"/>
				</g>
			</g>
			<g>
				<g>
					<rect x="94.313" y="81.687" fill="#566CD3" width="2.707" height="10.249"/>
				</g>
			</g>
			<g>
				<g>
					<rect x="98.625" y="81.687" fill="#566CD3" width="2.709" height="5.855"/>
				</g>
			</g>
			<g>
				<g>
					<rect x="104.388" y="81.687" fill="#566CD3" width="2.706" height="10.249"/>
				</g>
			</g>
			<g>
				<g>
					<rect x="110.14" y="81.687" fill="#566CD3" width="2.706" height="5.855"/>
				</g>
			</g>
			<g>
				<g>
					<rect x="114.458" y="81.687" fill="#566CD3" width="2.71" height="10.249"/>
				</g>
			</g>
			<g>
				<g>
					<rect x="120.207" y="81.687" fill="#566CD3" width="2.71" height="5.855"/>
				</g>
			</g>
			<g>
				<g>
					<rect x="125.974" y="81.687" fill="#566CD3" width="2.706" height="10.249"/>
				</g>
			</g>
			<g>
				<g>
					<rect x="130.285" y="81.687" fill="#566CD3" width="2.706" height="5.855"/>
				</g>
			</g>
			<g>
				<g>
					<rect x="136.044" y="81.687" fill="#566CD3" width="2.7" height="10.249"/>
				</g>
			</g>
		</g>
	</g>
	<g>
		<g>
			<g>
				<g>
					<g>
						<path fill="#B9B8F1" d="M155.25,59.104h37.012c4.926,0,8.966,4.029,8.966,8.964v83.243c0,4.937-4.04,8.97-8.966,8.97H155.25
							c-4.919,0-8.963-4.03-8.963-8.97V68.068C146.287,63.133,150.324,59.104,155.25,59.104z"/>
					</g>
				</g>
			</g>
		</g>
		<g>
			<g>
				<g>
					<g>
						<rect x="150.102" y="69.797" fill="#FFFFFF" width="47.318" height="79.566"/>
					</g>
				</g>
			</g>
		</g>
		<g>
			<g>
				<g>
					<g>
						<rect x="150.102" y="69.797" fill="#E5E9FF" width="23.002" height="20.592"/>
					</g>
				</g>
			</g>
		</g>
		<g>
			<g>
				<g>
					<g>
						<rect x="150.102" y="69.797" fill="#E5E9FF" width="43.408" height="6.896"/>
					</g>
				</g>
			</g>
		</g>
		<g>
			<g>
				<g>
					<g>
						<rect x="189.596" y="69.797" fill="#E5E9FF" width="7.824" height="20.592"/>
					</g>
				</g>
			</g>
		</g>
		<g>
			<g>
				<g>
					<g>
						<rect x="177.498" y="69.797" fill="#E5E9FF" width="9.316" height="20.592"/>
					</g>
				</g>
			</g>
		</g>
		<g>
			<circle fill="#566CD3" cx="173.107" cy="154.781" r="3.679"/>
		</g>
	</g>
	<g>
		<g>
			<g>
				<path fill="#8EDEF2" d="M180.043,36.923l2.819,10.769l9.224,3.847l-1.3,3.118l-10.002-4.169c-0.48-0.201-0.844-0.621-0.981-1.13
					l-3.025-11.583c-0.233-0.897,0.302-1.81,1.201-2.041l0.027-0.012C178.904,35.489,179.816,36.027,180.043,36.923z"/>
			</g>
		</g>
		<g>
			<g>
				<path fill="#121F55" d="M188.522,67.313c0,0,0.336-0.459,0.898-1.272c0.556-0.819,1.383-1.979,2.326-3.393
					c0.957-1.409,2.051-3.063,3.217-4.841c0.569-0.895,1.167-1.816,1.777-2.752l0.227-0.352l0.109-0.184
					c0.048-0.084,0.027,0,0.247-0.436c0.322-0.661,0.404-1.517,0.195-2.247c-0.202-0.734-0.635-1.363-1.259-1.813
					c-0.624-0.443-1.413-0.693-2.298-0.587l-0.055,0.003h-0.014l-0.21,0.038l-0.03,0.009l-0.106,0.014l-0.21,0.038l-0.823,0.154
					c-2.243,0.422-4.466,0.847-6.544,1.266c-1.04,0.211-2.048,0.417-2.998,0.61c-0.954,0.201-1.855,0.39-2.689,0.566
					c-1.667,0.352-3.039,0.674-4.014,0.889c-0.967,0.218-1.516,0.355-1.516,0.355c-1.365,0.339-2.271,1.679-2.031,3.087
					c0.251,1.475,1.657,2.47,3.132,2.22c0,0,0.553-0.095,1.533-0.276c0.971-0.19,2.367-0.444,4.03-0.78
					c0.834-0.17,1.732-0.352,2.693-0.549c0.953-0.203,1.962-0.41,3.001-0.628c1.022-0.221,2.075-0.449,3.146-0.689
					c-0.909,1.625-1.749,3.147-2.47,4.475c-0.816,1.492-1.468,2.758-1.938,3.629c-0.467,0.882-0.717,1.39-0.717,1.39
					c-0.433,0.857-0.186,1.921,0.61,2.504C186.636,68.401,187.874,68.199,188.522,67.313z"/>
			</g>
		</g>
		<g id="_x38_._Right_shoe_232_">
			<g>
				<g>
					<path fill="#F7B75D" d="M186.649,62.961c1.503,0,2.717,1.215,2.717,2.713c0,1.503-1.214,2.717-2.717,2.717
						c-1.495,0-2.713-1.214-2.713-2.717C183.937,64.176,185.154,62.961,186.649,62.961z"/>
				</g>
			</g>
			<g>
				<g>
					<path fill="#F7B75D" d="M190.416,75.68l-5.944-8.394c-0.635-0.892-0.422-2.123,0.47-2.744l0,0
						c0.885-0.631,3.64-0.851,4.271,0.042l3.345,9.82c0.37,1.08-0.762,2.13-1.767,1.595
						C190.629,75.917,190.509,75.813,190.416,75.68z"/>
				</g>
			</g>
			<g>
				<g>
					<path fill="#FFFFFF" d="M189.785,68.322L189.785,68.322c0.034-0.281,0.329-0.467,0.6-0.374l0.998,0.322
						c0.206,0.072,0.344,0.278,0.316,0.498l0,0c-0.035,0.281-0.33,0.466-0.594,0.377l-1.005-0.326
						C189.895,68.755,189.761,68.545,189.785,68.322z"/>
				</g>
			</g>
			<g>
				<g>
					<path fill="#FFFFFF" d="M189.609,69.79L189.609,69.79c0.035-0.281,0.319-0.466,0.59-0.377l1.002,0.326
						c0.209,0.065,0.34,0.271,0.313,0.49l0,0c-0.034,0.288-0.322,0.467-0.59,0.377l-1.002-0.322
						C189.709,70.216,189.579,70.007,189.609,69.79z"/>
				</g>
			</g>
			<g>
				<g>
					<path fill="#2747B3" d="M186.656,64.045c0.898,0,1.629,0.73,1.629,1.629c0,0.902-0.73,1.633-1.629,1.633
						s-1.633-0.73-1.633-1.633C185.023,64.775,185.758,64.045,186.656,64.045z"/>
				</g>
			</g>
		</g>
		<g>
			<g>
				<path fill="#2747B3" d="M175.008,29.985l-0.306,2.241l-0.49-0.158c-0.374-0.12-0.624-0.468-0.624-0.864l0,0
					c0-0.268-0.124-0.513-0.323-0.686l-1.262-1.295c-0.525-0.539-0.892-1.219-1.009-1.964c-0.086-0.556-0.048-1.159,0.309-1.629
					c0.501-0.646-1.2-2.425,0.004-3.92c0.545-0.671,1.402-1.17,1.756-1.897c1.177-2.417,2.946-2.229,4.182-1.355
					c1.101,0.775,1.574-0.797,3.738-0.528c1.682,0.211,2.354,1.41,2.217,2.41c0,0,2.86,0.12,2.86,3.321
					c0,3.202-3.382,3.603-3.382,3.603L175.008,29.985z"/>
			</g>
		</g>
		<g>
			<g>
				<polygon fill="#F99AB6" points="178.489,27.586 178.013,32.999 177.697,36.537 173.553,36.175 174.493,27.541 174.768,25.078 
									"/>
			</g>
		</g>
		<g>
			<g>
				<g>
					<path fill="#F99AB6" d="M175.199,30.287v0.864c0.673,0.851,1.736,1.508,2.813,1.847l0.239-2.711H175.199z"/>
				</g>
			</g>
		</g>
		<g>
			<g>
				<path fill="#F99AB6" d="M179.611,32.82h0.672c1.468,0,3.189-2.856,3.189-4.32c0-1.753-0.15-2.638,0-3.823
					c0.206-1.619-1.327-2.96-2.96-2.96h-3.313c-1.245,0-2.26,1.012-2.26,2.255v5.376C174.945,31.263,177.697,32.82,179.611,32.82z"
					/>
			</g>
		</g>
		<g>
			<g>
				<path fill="#2747B3" d="M180.029,21.713c0,0,0.302,2.447-3.838,2.296c0,0,0.123,4.83-2.055,5.181l-0.385-1.625
					c0,0-0.898-5.3,1.104-6.2C176.863,20.47,180.029,21.713,180.029,21.713z"/>
			</g>
		</g>
		<g>
			<g>
				<path fill="#F99AB6" d="M172.75,33.873c0.457-0.281,1.002-0.406,1.571-0.319l1.828,0.288c0.893,0.141,1.685,0.494,2.36,1
					C176.586,35.321,174.301,35.036,172.75,33.873z"/>
			</g>
		</g>
		<g>
			<g>
				<path fill="#8EDEF2" d="M169.859,37.123c0.15-1.44,1.495-2.828,2.891-3.25c1.551,1.163,3.836,1.448,5.76,0.966
					c1.513,1.139,2.359,3.046,2.041,5.041l-1.938,10.953l-9.882-1.338C168.73,49.494,169.499,40.392,169.859,37.123z"/>
			</g>
		</g>
		<g>
			<g>
				<path fill="#121F55" d="M206.394,68.487c0,0-0.381-0.419-1.063-1.146c-0.686-0.731-1.646-1.784-2.83-3.016
					c-1.176-1.238-7.687-7.829-7.687-7.829l-0.145-0.132c-0.103-0.085-0.206-0.173-0.309-0.25c-0.213-0.158-0.425-0.305-0.662-0.439
					c-0.456-0.264-0.957-0.459-1.479-0.583c-0.127-0.031-0.257-0.06-0.388-0.081c-0.064-0.01-11.096-1.043-12.05-1.274
					c-1.674-0.408-1.057-3.559-1.057-3.559l-9.92-1.525c-0.075,1.423-0.987,2.799-1.241,3.727c-0.398,1.481-0.158,2.986,0.552,4.215
					c0.714,1.233,1.89,2.195,3.372,2.595c0.727,0.197,1.454,0.231,2.157,0.144c0.265,0.024,0.662,0.06,1.19,0.103
					c0.988,0.072,2.408,0.195,4.113,0.305c0.851,0.058,1.776,0.113,2.747,0.175c0.981,0.062,2.003,0.117,3.066,0.178
					c1.07,0.055,2.168,0.11,3.286,0.165c0.964,0.041,1.955,0.085,2.937,0.13c0.034,0.007,0.072,0.014,0.109,0.028
					c0.014,0,0.034,0.007,0.056,0.021l0.02,0.007c0.008,0.007,0.008,0.007,0.015,0.014l0.007,0.003l0.044,0.031
					c0.415,0.377,0.834,0.758,1.252,1.132c0.827,0.751,1.65,1.485,2.436,2.202c1.592,1.42,3.101,2.737,4.388,3.852
					c1.286,1.122,2.384,2.031,3.146,2.679c0.768,0.642,1.21,0.999,1.21,0.999c0.734,0.6,1.836,0.6,2.563-0.063
					C207.056,70.563,207.121,69.313,206.394,68.487z"/>
			</g>
		</g>
		<g id="_x38_._Right_shoe_231_">
			<g>
				<g>
					<circle fill="#F7B75D" cx="205.416" cy="70.579" r="2.717"/>
				</g>
			</g>
			<g>
				<g>
					<path fill="#F7B75D" d="M216.08,69.9l-9.769,3.245c-1.026,0.343-2.147-0.22-2.487-1.249l0,0
						c-0.34-1.032,0.25-3.732,1.286-4.075l10.366-0.343c1.146-0.041,1.821,1.358,1.009,2.161
						C216.372,69.763,216.234,69.849,216.08,69.9z"/>
				</g>
			</g>
			<g>
				<g>
					<path fill="#FFFFFF" d="M208.496,68.95L208.496,68.95c-0.284,0-0.504-0.261-0.449-0.542l0.199-1.032
						c0.041-0.22,0.229-0.371,0.445-0.371l0,0c0.288,0,0.508,0.261,0.453,0.542l-0.199,1.033
						C208.904,68.796,208.712,68.95,208.496,68.95z"/>
				</g>
			</g>
			<g>
				<g>
					<path fill="#FFFFFF" d="M209.971,68.95L209.971,68.95c-0.284,0-0.504-0.261-0.449-0.542l0.199-1.032
						c0.041-0.22,0.229-0.371,0.453-0.371l0,0c0.288,0,0.5,0.261,0.445,0.542l-0.198,1.033
						C210.379,68.796,210.188,68.95,209.971,68.95z"/>
				</g>
			</g>
			<g>
				<g>
					<circle fill="#2747B3" cx="205.412" cy="70.58" r="1.629"/>
				</g>
			</g>
		</g>
		<g>
			<g>
				<path fill="#FFFEFF" d="M178.739,30.179c0.138,0.708,0.759,1.244,1.506,1.244c0.748,0,1.369-0.535,1.496-1.244H178.739z"/>
			</g>
		</g>
		<g>
			<g>
				<path fill="#F99AB6" d="M197.729,49.856c-0.706-0.113-1.31-0.472-1.742-0.974l0.683-4.372c0.573-0.348,1.259-0.502,1.959-0.391
					c1.585,0.247,2.675,1.732,2.421,3.317C200.796,49.019,199.313,50.105,197.729,49.856z"/>
			</g>
		</g>
		<g>
			<g>
				<path fill="#8EDEF2" d="M170.144,50.122c-0.395-0.134-0.728-0.414-0.933-0.786c-0.224-0.401-0.268-0.875-0.138-1.311
					l3.801-12.357l3.231,0.993l-3.283,10.685l7.996,2.178l-0.889,3.264l-9.69-2.638C170.219,50.143,170.178,50.136,170.144,50.122z"
					/>
			</g>
		</g>
		<g>
			<g>
				
					<rect x="165.584" y="42.082" transform="matrix(0.2718 -0.9624 0.9624 0.2718 83.6479 195.1962)" fill="#61C8E0" width="10.435" height="0.489"/>
			</g>
		</g>
		<g>
			<g>
				<polygon fill="#61C8E0" points="173.615,44.38 175.278,38.451 175.858,38.528 174.191,44.457 				"/>
			</g>
		</g>
		<g>
			<g>
				<path fill="#F99AB6" d="M184.88,50.849c0.096,0.71-0.079,1.391-0.433,1.95l-4.397,0.586c-0.49-0.442-0.833-1.058-0.93-1.767
					c-0.213-1.592,0.902-3.049,2.494-3.26C183.209,48.141,184.667,49.257,184.88,50.849z"/>
			</g>
		</g>
		<g>
			<g>
				<path fill="#121F55" d="M177.049,53.038c0-0.4,0.325-0.724,0.72-0.724h26.224c0.553,0,1.002,0.324,1.002,0.72
					c0,0.401-0.449,0.724-1.002,0.724h-26.224C177.374,53.758,177.049,53.436,177.049,53.038L177.049,53.038z"/>
			</g>
			<g>
				<path fill="#FFFFFF" d="M176.022,53.034c0,0.401,0.351,0.724,0.775,0.724h9.962c0.432,0,0.778-0.322,0.778-0.724
					c0-0.396-0.347-0.72-0.778-0.72h-9.962C176.373,52.314,176.022,52.638,176.022,53.034z"/>
			</g>
			<g>
				<path fill="#FFFFFF" d="M204.953,38.742v13.22c0,0.59-0.48,1.068-1.07,1.068h-17.446c-0.59,0-1.066-0.479-1.066-1.068v-13.22
					c0-0.586,0.477-1.068,1.066-1.068h17.446C204.479,37.674,204.953,38.156,204.953,38.742z"/>
			</g>
			<g>
				<path fill="#2143AF" d="M205.763,38.742v13.22c0,0.59-0.478,1.068-1.067,1.068H187.25c-0.587,0-1.061-0.479-1.061-1.068v-13.22
					c0-0.586,0.474-1.068,1.061-1.068h17.445C205.285,37.674,205.763,38.156,205.763,38.742z"/>
			</g>
			<g>
				<path fill="#FFFFFF" d="M193.098,45.355L193.098,45.355c0-0.621,0.505-1.126,1.119-1.126h3.512c0.618,0,1.119,0.506,1.119,1.126
					l0,0c0,0.619-0.501,1.124-1.119,1.124h-3.512C193.603,46.479,193.098,45.975,193.098,45.355z"/>
			</g>
		</g>
	</g>
	<g>
		<g id="_x38_._Right_shoe_228_">
			<g>
				<g>
					<circle fill="#2143AF" cx="-10.993" cy="151.521" r="2.967"/>
				</g>
			</g>
			<g>
				<g>
					<path fill="#2143AF" d="M-22.671,151.271l10.815,3.087c1.141,0.33,2.333-0.339,2.659-1.481l0,0
						c0.326-1.139-0.449-4.062-1.595-4.388l-11.338,0.106c-1.25,0.011-1.924,1.564-1,2.415
						C-22.999,151.134-22.843,151.223-22.671,151.271z"/>
				</g>
			</g>
			<g>
				<g>
					<path fill="#FFFFFF" d="M-14.435,149.881L-14.435,149.881c0.313-0.01,0.539-0.305,0.464-0.62l-0.264-1.111
						c-0.057-0.233-0.271-0.395-0.51-0.385l0,0c-0.309,0.014-0.537,0.309-0.463,0.618l0.268,1.118
						C-14.888,149.734-14.674,149.892-14.435,149.881z"/>
				</g>
			</g>
			<g>
				<g>
					<path fill="#FFFFFF" d="M-16.047,149.953L-16.047,149.953c0.314-0.014,0.539-0.312,0.465-0.617l-0.264-1.118
						c-0.057-0.227-0.268-0.391-0.506-0.381l0,0c-0.316,0.014-0.541,0.309-0.467,0.614l0.263,1.118
						C-16.504,149.799-16.289,149.96-16.047,149.953z"/>
				</g>
			</g>
		</g>
		<g>
			<g>
				<path fill="#8EDEF2" d="M-7.733,130.512l0.057-0.035l16.209-9.553l4.849,5.255l-17.009,9.012l-3.993,17.366l-0.12-0.021
					l-4.559-4.133l3.081-15.916C-9.043,131.678-8.523,130.93-7.733,130.512z"/>
			</g>
		</g>
		<g id="_x38_._Right_shoe_227_">
			<g>
				<g>
					<circle fill="#2143AF" cx="27.57" cy="157.126" r="2.665"/>
				</g>
			</g>
			<g>
				<g>
					<path fill="#2143AF" d="M17.421,159.818l10.108-0.021c1.072-0.007,1.931-0.871,1.931-1.944l0,0c0-1.07-1.398-3.396-2.464-3.396
						l-9.772,2.909c-1.079,0.318-1.271,1.835-0.268,2.336C17.1,159.784,17.259,159.818,17.421,159.818z"/>
				</g>
			</g>
			<g>
				<g>
					<path fill="#FFFFFF" d="M24.188,156.566L24.188,156.566c0.268-0.085,0.382-0.391,0.247-0.645l-0.506-0.898
						c-0.106-0.192-0.331-0.278-0.535-0.206l0,0c-0.263,0.086-0.386,0.391-0.246,0.648l0.509,0.896
						C23.76,156.553,23.984,156.639,24.188,156.566z"/>
				</g>
			</g>
			<g>
				<g>
					<path fill="#FFFFFF" d="M22.814,157.026L22.814,157.026c0.268-0.089,0.388-0.397,0.25-0.645l-0.506-0.902
						c-0.104-0.188-0.331-0.274-0.534-0.209l0,0c-0.271,0.089-0.387,0.397-0.247,0.647l0.506,0.899
						C22.388,157.02,22.609,157.095,22.814,157.026z"/>
				</g>
			</g>
		</g>
		<g>
			<g>
				<path fill="#8EDEF2" d="M6.19,118.54l10.752-1.173c0.667,0.754,1.475,3.104,1.715,4.157c0.382,1.681,0.041,3.365-0.811,4.72
					c-0.858,1.358-2.221,2.388-3.914,2.769c-0.821,0.188-4.9,0.25-6.817-1.619C4.306,124.659,6.19,118.54,6.19,118.54z"/>
			</g>
		</g>
		<g>
			<g>
				<path fill="#8EDEF2" d="M12.9,124.285h6.92l-2.66,16.469l11.676,13.597l-6.06,1.705L11.636,143.56
					c-0.549-0.624-0.833-1.481-0.689-2.36L12.9,124.285z"/>
			</g>
		</g>
		<g>
			<g>
				<path fill="#121F55" d="M-15.375,117.291l16.021-0.284c0.708-0.011,1.352-0.415,1.667-1.043l6.284-12.489l-3.403-1.712
					l-5.768,11.457l-14.868,0.261L-15.375,117.291z"/>
			</g>
		</g>
		<g>
			<g>
				<polygon fill="#F99AB6" points="7.497,91.881 7.986,101.993 12.672,101.77 11.994,92.011 11.8,89.232 				"/>
			</g>
		</g>
		<g>
			<g>
				<g>
					<path fill="#F99AB6" d="M11.083,95.067c0,0-1.063,2.606-3.278,3.255l-0.161-3.389L11.083,95.067z"/>
				</g>
			</g>
		</g>
		<g>
			<g>
				<path fill="#F99AB6" d="M5.969,97.87c-0.186-0.031-0.547-0.131-0.731-0.183c-1.746-0.477-3.466-3.348-3.399-5.004
					c0.081-1.976,0.288-2.964,0.171-4.302c-0.158-1.835,1.623-3.279,3.464-3.204l3.729,0.151c1.403,0.059,2.496,1.242,2.439,2.642
					l-0.238,6.051C11.318,96.179,8.101,98.206,5.969,97.87z"/>
			</g>
		</g>
		<g>
			<g>
				<path fill="#F99AB6" d="M13.677,99.215c-0.502-0.34-1.118-0.508-1.756-0.426l-2.077,0.236c-1.008,0.117-1.917,0.478-2.698,1.016
					C9.29,100.669,11.881,100.453,13.677,99.215z"/>
			</g>
		</g>
		<g>
			<g>
				<path fill="#121F55" d="M16.894,103.193c-0.092-1.626-1.539-3.828-3.313-4.041c-3.003,0.426-5.705,0.587-6.72,0.834
					c-1.748,1.211-2.785,3.316-2.524,5.577l0.264,18.708c5.619,3.966,15.914,2.37,15.914,2.37
					C20.515,118.567,17.076,106.397,16.894,103.193z"/>
			</g>
		</g>
		<g>
			<g>
				<path fill="#121F55" d="M-4.107,117.188l13.083,0.138c0.952,0.014,1.763-0.68,1.904-1.623l2.154-14.403l-3.767-0.563
					L7.36,113.494l-11.422-0.12L-4.107,117.188z"/>
			</g>
		</g>
		<g>
			<g>
				<path fill="#F7B75D" d="M7.396,99.883c0.853-0.209,2.374-0.25,4.793-0.552c-1.341,3.152-4.963,5.78-6.037,9.467
					C5.59,108.185,5.646,101.094,7.396,99.883z"/>
			</g>
		</g>
		<g>
			<g>
				<path fill="#2747B3" d="M7.543,100.46c0.154-0.176,0.657-0.525,0.67-0.71c0.386-0.056,0.323,0.096,0.865,0.048
					c-1.465,1.358-0.623,3.591-1.199,5.639c-0.738,1.04-1.369,2.141-1.724,3.361c-0.309-0.343-0.433-2.665-0.184-4.884
					C6.001,103.677,6.348,101.828,7.543,100.46z"/>
			</g>
		</g>
		<g>
			<path fill="#B8B9F1" d="M7.37,100.813c0.184,0.24,0.971,0.36,1.22,0.179c0.231-0.165,0.472-1.077,0.472-1.077L7.238,99.64
				C7.242,99.64,7.195,100.58,7.37,100.813z"/>
		</g>
		<g>
			<g>
				<path fill="#121F55" d="M4.149,88.855c-7.217-1.571-2.019-6.161-2.019-6.161s0.144,1.716,1.542,1.153
					c2.672-1.077,8.493-1.75,10.095,1.742c1.243,2.72-1.072,8.679-1.511,10.229c-0.72-0.452-0.115-7.457-3.073-7.162
					C7.567,88.814,5.73,89.198,4.149,88.855z"/>
			</g>
		</g>
		<g>
			<g>
				<path fill="#FFFEFF" d="M5.245,96.36c-1.471-0.062-0.526-2.5,0.04-2.473C5.847,93.925,6.722,96.429,5.245,96.36z"/>
			</g>
		</g>
		<g>
			<polygon fill="#FFFFFF" points="9.984,101.64 13.647,99.208 12.404,97.843 8.049,99.777 			"/>
		</g>
		<g>
			<polygon fill="#FFFFFF" points="6.94,100.696 7.146,99.887 7.849,99.152 8.147,99.777 			"/>
		</g>
		<g>
			<g>
				<path fill="#566CD3" d="M10.238,112.75c0-0.446-0.362-0.81-0.808-0.81h-29.242c-0.611,0-1.11,0.367-1.11,0.806
					c0,0.449,0.499,0.807,1.11,0.807H9.43C9.876,113.553,10.238,113.195,10.238,112.75L10.238,112.75z"/>
			</g>
			<g>
				<path fill="#2143AF" d="M11.385,112.746c0,0.449-0.393,0.807-0.871,0.807H-0.588c-0.479,0-0.871-0.36-0.871-0.807
					c0-0.438,0.389-0.806,0.871-0.806h11.102C10.996,111.94,11.385,112.308,11.385,112.746z"/>
			</g>
			<g>
				<path fill="#2143AF" d="M-20.877,96.813v14.743c0,0.658,0.531,1.189,1.188,1.189h19.459c0.657,0,1.187-0.531,1.187-1.189V96.813
					c0-0.659-0.535-1.19-1.187-1.19h-19.459C-20.346,95.623-20.877,96.147-20.877,96.813z"/>
			</g>
			<g>
				<path fill="#FFFFFF" d="M-21.786,96.813v14.743c0,0.658,0.53,1.189,1.19,1.189H-1.14c0.657,0,1.187-0.531,1.187-1.189V96.813
					c0-0.659-0.53-1.19-1.187-1.19h-19.456C-21.256,95.623-21.786,96.147-21.786,96.813z"/>
			</g>
			<g>
				<path fill="#2143AF" d="M-7.663,104.182L-7.663,104.182c0-0.689-0.559-1.252-1.25-1.252h-3.909
					c-0.693,0-1.255,0.563-1.255,1.252l0,0c0,0.692,0.563,1.252,1.255,1.252h3.909C-8.222,105.437-7.663,104.878-7.663,104.182z"/>
			</g>
		</g>
		<g>
			<g>
				<path fill="#F99AB6" d="M-2.879,115.281c0.134-0.796-0.031-1.571-0.414-2.219l-4.919-0.827
					c-0.571,0.487-0.982,1.166-1.116,1.959c-0.298,1.783,0.9,3.468,2.684,3.77C-4.86,118.259-3.178,117.065-2.879,115.281z"/>
			</g>
		</g>
		<g>
			<g>
				<path fill="#F99AB6" d="M-13.257,114.369c0.065-0.803-0.167-1.564-0.599-2.172l-4.97-0.408c-0.53,0.525-0.882,1.235-0.952,2.038
					c-0.147,1.804,1.188,3.382,2.99,3.533C-14.989,117.504-13.41,116.166-13.257,114.369z"/>
			</g>
		</g>
	</g>
	<g>
		<g>
			<g>
				<ellipse fill="#2143AF" cx="125.631" cy="-65.175" rx="3.172" ry="5.058"/>
			</g>
		</g>
		<g>
			<g>
				<path fill="#2143AF" d="M141.035-57.736c-2.037-1.173-4.309-4.109-3.438-6.697c2.018-6.045-2.695-8.208-5.028-8.656
					c-2.332-0.443-4.394,0.147-5.694,1.188c-2.105,1.686-1.475,4.602-0.298,6.948c-1.279,0.734-1.89,2.313-1.156,3.494
					c1.599,2.564,0.224,6.021-0.733,8.073c-1.53,3.302,0.61,7.4,4.325,9.269c3.722,1.873,8.565,1.672,12.304,0
					c1.846-0.832,3.529-2.044,4.373-3.657C147.512-51.248,144.884-55.527,141.035-57.736z"/>
			</g>
		</g>
		<g>
			<g>
				<path fill="#F99AB6" d="M115.419-34.6c-0.892,0.127-1.825,0.204-2.796,0.229c-0.721,0.021-1.313-0.545-1.334-1.259
					c-0.021-0.711,0.535-1.31,1.255-1.331c4.549-0.127,7.951-1.465,10.105-3.976c3.3-3.844,2.676-9.186,2.669-9.241
					c-0.086-0.707,0.418-1.35,1.125-1.447c0.703-0.084,1.358,0.413,1.444,1.127c0.037,0.264,0.771,6.544-3.272,11.248
					C122.457-36.725,119.37-35.164,115.419-34.6z"/>
			</g>
		</g>
		<g>
			<path fill="#F7B75D" d="M126.299-52.562c-1.211,0.175-2.075,1.296-1.924,2.5c0.007,0.05,0.556,5.017-2.432,8.5
				c-1.469,1.708-3.599,2.821-6.326,3.334c0.789,1.341,0.92,3.08,0.281,4.502c4.014-0.641,7.197-2.29,9.443-4.91
				c4.313-5.019,3.53-11.7,3.489-11.983C128.68-51.845,127.551-52.716,126.299-52.562z"/>
		</g>
		<g>
			<g>
				<path fill="#F99AB6" d="M126.649-50.359c-0.659-0.338-1.194-1.345-0.405-2.269c0.782-0.906,1.989-1.408,3.286-1.458l0.343-0.014
					c1.139-0.046,2.182,0.456,2.868,1.268C132.192-51.128,128.453-49.667,126.649-50.359z"/>
			</g>
		</g>
		<g>
			<g>
				<path fill="#F99AB6" d="M128.845-56.688l-0.028,1.465l-0.058,2.75l2.116,0.036l0.062-3.512l0.027-1.367
					C130.333-56.885,129.605-56.654,128.845-56.688z"/>
			</g>
		</g>
		<g>
			<g>
				<g>
					<path fill="#F99AB6" d="M128.845-56.342l-0.028,1.465c0.748-0.108,1.657-0.442,2.124-0.993l0.021-1.093
						C130.333-56.534,129.605-56.302,128.845-56.342z"/>
				</g>
			</g>
		</g>
		<g>
			<g>
				<path fill="#F99AB6" d="M129.365-55.582L129.365-55.582c2-0.022,3.771-0.995,4.871-2.49c0.766-1.029,1.215-2.312,1.201-3.696
					l-0.027-2.409c-0.014-1.75-0.762-3.322-1.956-4.425c-1.104-1.029-2.6-1.655-4.226-1.638l0,0c-1.087,0.012-2.1,0.303-2.971,0.801
					c-1.876,1.065-3.121,3.081-3.101,5.389l0.027,2.406c0.021,2.216,1.222,4.146,2.991,5.202
					C127.108-55.887,128.206-55.572,129.365-55.582z"/>
			</g>
		</g>
		<g>
			<g>
				<circle fill="#121F55" cx="130.378" cy="-34.371" r="5.81"/>
			</g>
		</g>
		<g>
			<g>
				<path fill="#FFFEFF" d="M128.968-58.772c-0.137,0.763-0.803,1.345-1.599,1.353c-0.803,0.01-1.475-0.559-1.626-1.317
					L128.968-58.772z"/>
			</g>
		</g>
		<g>
			<g>
				<path fill="#F7B75D" d="M123.562-49.384c-0.391,1.093,0.714,2.195,1.873,2.326s2.202-0.705,2.326-1.864
					c0.127-1.163-1.599-3.699-2.254-2.734C124.893-50.732,123.912-50.324,123.562-49.384z"/>
			</g>
		</g>
		<g>
			<g>
				<path fill="#F7B75D" d="M132.741-52.829c0.504,0.586,0.819,1.336,0.86,2.164c0,0-0.518,9.546,2.097,13.945l-11.135,0.93
					l0.302-13.213c-0.068-1.406,0.477-2.691,1.383-3.622C126.299-50.493,130.683-53.058,132.741-52.829z"/>
			</g>
		</g>
		<g>
			<g>
				<g>
					<g>
						<path fill="#2143AF" d="M125.246-10.194c-1.022,0.05-1.533,1.016-1.619,1.287c-0.483,1.499-0.305,3.073-1.266,5.612
							c-0.658,1.732-1.311,2.087-1.776,3.495c-0.398,1.213,0.717,1.609,1.811,1.18c0.433-0.168,3.146-0.878,3.19-3.046
							c0.034-1.58-0.151-2.789,0.356-4.147c0.508-1.356,0.933-0.59,1.091-0.176c0.12,0.295,0.48,1.146,0.604,1.41
							c0.041,0.098,0.151,0.141,0.251,0.101h0.007c0.103-0.038,0.161-0.168,0.103-0.274c-0.151-0.305-0.429-1.375-0.538-2.739
							C127.328-9.168,126.176-10.244,125.246-10.194z"/>
					</g>
				</g>
			</g>
			<g>
				<g>
					<g>
						<path fill="#F99AB6" d="M124.169-2.727c0.566-1.268,1.231-5.156,0.898-6.013c-0.388-1.008-2.497-1.082-2.617-0.18
							c-0.226,1.561,0.422,4.279-0.864,7.191C121.744-0.963,123.514-1.255,124.169-2.727z"/>
					</g>
				</g>
			</g>
		</g>
		<g>
			<g>
				<path fill="#121F55" d="M132.192-29.027l-13.7,6.368l1.304-3.096l5.076,16.449c0.302,0.998-0.254,2.058-1.252,2.367
					c-0.95,0.292-1.966-0.209-2.318-1.124l-6.239-16.041c-0.46-1.183,0.075-2.504,1.2-3.046l0.096-0.048l13.632-6.521
					c1.283-0.617,2.833-0.072,3.45,1.22c0.618,1.293,0.069,2.838-1.218,3.456C132.216-29.036,132.192-29.031,132.192-29.027z"/>
			</g>
		</g>
		<g>
			<g>
				<g>
					<g>
						<path fill="#2143AF" d="M116.043-15.369c-0.933-0.436-1.828,0.18-2.03,0.383c-1.126,1.101-1.698,2.572-3.735,4.37
							c-1.396,1.233-2.138,1.24-3.204,2.27c-0.923,0.885-0.116,1.752,1.053,1.89c0.46,0.05,3.184,0.685,4.236-1.204
							c0.778-1.384,1.17-2.54,2.247-3.505c1.084-0.966,1.107-0.093,1.057,0.355c-0.035,0.312-0.117,1.235-0.131,1.52
							c0,0.106,0.076,0.197,0.179,0.211h0.007c0.116,0.014,0.22-0.074,0.22-0.188c0.014-0.345,0.268-1.417,0.806-2.67
							C117.401-13.482,116.887-14.971,116.043-15.369z"/>
					</g>
				</g>
			</g>
			<g>
				<g>
					<g>
						<path fill="#F99AB6" d="M111.607-9.263c1.095-0.857,3.496-3.984,3.605-4.9c0.123-1.076-1.708-2.122-2.247-1.381
							c-0.919,1.274-1.618,3.982-4.116,5.963C108.641-8.831,110.342-8.266,111.607-9.263z"/>
					</g>
				</g>
			</g>
		</g>
		<g>
			<g>
				<path fill="#121F55" d="M131.229-28.614l-15.083-0.758l2.587-2.125l-3.18,16.916c-0.188,1.025-1.184,1.703-2.202,1.507
					c-0.981-0.187-1.65-1.099-1.533-2.074l1.962-17.101c0.147-1.263,1.238-2.178,2.477-2.134h0.109l15.093,0.592
					c1.434,0.055,2.552,1.26,2.497,2.689c-0.062,1.431-1.262,2.547-2.696,2.487C131.256-28.614,131.235-28.614,131.229-28.614z"/>
			</g>
		</g>
		<g>
			<g>
				<path fill="#F99AB6" d="M132.322-34.366c-0.669,0.108-1.379,0.188-2.13,0.235c-0.714,0.05-1.327-0.496-1.376-1.213
					c-0.048-0.711,0.498-1.324,1.211-1.372c2.401-0.159,5.424-0.75,6.199-2.684c1.228-3.049-2.991-8.599-4.56-10.302
					c-0.49-0.527-0.456-1.348,0.072-1.83c0.525-0.489,1.345-0.453,1.832,0.074c0.737,0.794,7.101,7.917,5.063,13.021
					C137.77-36.296,135.649-34.933,132.322-34.366z"/>
			</g>
		</g>
		<g>
			<path fill="#F7B75D" d="M134.271-52.099c-0.524-0.561-1.279-0.818-2.026-0.691c-0.512,0.084-0.971,0.348-1.328,0.741
				c-0.754,0.871-0.665,2.206,0.11,3.06c1.794,1.967,5.255,6.891,4.314,9.241c-0.164,0.412-0.507,0.738-0.933,1.005
				c-0.807,0.496-1.245,1.401-1.07,2.326c0.007,0.014,0.007,0.031,0.014,0.048c0.274,1.472,1.921,2.298,3.218,1.554
				c1.399-0.806,2.391-1.89,2.929-3.264C141.721-43.609,135.526-50.729,134.271-52.099z"/>
		</g>
		<g>
			<g>
				<path fill="#F99AB6" d="M124.666-35.617c0.063,0.765,0.395,1.442,0.906,1.945l4.733-0.386c0.419-0.58,0.635-1.304,0.569-2.065
					c-0.137-1.722-1.646-2.993-3.354-2.856C125.802-38.834,124.522-37.328,124.666-35.617z"/>
			</g>
		</g>
		<g>
			<g>
				<path fill="#F99AB6" d="M108.534-35.035c0.034,0.77,0.34,1.461,0.813,1.982l4.75-0.187c0.443-0.563,0.689-1.271,0.662-2.044
					c-0.068-1.717-1.516-3.056-3.23-2.989C109.807-38.203,108.469-36.755,108.534-35.035z"/>
			</g>
		</g>
		<g>
			<g>
				
					<ellipse transform="matrix(0.3307 -0.9437 0.9437 0.3307 151.1416 78.3398)" fill="#2143AF" cx="130.803" cy="-67.39" rx="3.754" ry="5.986"/>
			</g>
		</g>
		<g>
			<g>
				<path fill="#121F55" d="M133.18-33.83c0-0.432-0.346-0.78-0.781-0.78h-28.224c-0.597,0-1.074,0.352-1.074,0.78
					s0.478,0.777,1.074,0.777h28.224C132.834-33.053,133.18-33.401,133.18-33.83L133.18-33.83z"/>
			</g>
			<g>
				<path fill="#FFFFFF" d="M134.291-33.83c0,0.429-0.377,0.777-0.844,0.777h-10.719c-0.463,0-0.844-0.348-0.844-0.777
					s0.381-0.78,0.844-0.78h10.719C133.914-34.61,134.291-34.258,134.291-33.83z"/>
			</g>
			<g>
				<path fill="#FFFFFF" d="M103.143-49.214v14.235c0,0.633,0.518,1.146,1.148,1.146h18.784c0.638,0,1.148-0.513,1.148-1.146
					v-14.235c0-0.636-0.511-1.152-1.148-1.152h-18.784C103.66-50.366,103.143-49.854,103.143-49.214z"/>
			</g>
			<g>
				<path fill="#2143AF" d="M102.264-49.214v14.235c0,0.633,0.519,1.146,1.156,1.146h18.777c0.638,0,1.142-0.513,1.142-1.146
					v-14.235c0-0.636-0.511-1.152-1.142-1.152H103.42C102.782-50.366,102.264-49.854,102.264-49.214z"/>
			</g>
			<g>
				<path fill="#FFFFFF" d="M115.898-42.098L115.898-42.098c0-0.67-0.534-1.212-1.21-1.212h-3.764c-0.672,0-1.214,0.539-1.214,1.212
					l0,0c0,0.667,0.535,1.208,1.214,1.208h3.764C115.364-40.891,115.898-41.431,115.898-42.098z"/>
			</g>
		</g>
	</g>
	<g id="XMLID_308_">
		<g id="XMLID_315_">
			<g>
				<g>
					<g>
						<path fill="#B9B8F1" d="M64.94-56.007c5.051,0,9.145,3.533,9.145,7.889c0,2.617-1.475,4.935-3.746,6.368l1.287,3.259
							l-3.156-2.346c-1.084,0.395-2.276,0.609-3.53,0.609c-5.051,0-9.143-3.531-9.143-7.89
							C55.801-52.474,59.893-56.007,64.94-56.007z"/>
					</g>
				</g>
			</g>
		</g>
		<g id="XMLID_309_">
			<g id="XMLID_314_">
				<g>
					<g>
						<g>
							<circle fill="#FFFFFF" cx="68.945" cy="-47.964" r="1.24"/>
						</g>
					</g>
				</g>
			</g>
			<g id="XMLID_311_">
				<g>
					<g>
						<g>
							<circle fill="#FFFFFF" cx="64.94" cy="-47.964" r="1.24"/>
						</g>
					</g>
				</g>
			</g>
			<g id="XMLID_310_">
				<g>
					<g>
						<g>
							<circle fill="#FFFFFF" cx="60.944" cy="-47.964" r="1.24"/>
						</g>
					</g>
				</g>
			</g>
		</g>
	</g>
	<g>
		<g>
			<g>
				<path fill="#8EDEF2" d="M78.088-58.979l1.238-1.244l2.059,2.062c0.418,0.412,1.063,0.76,1.424,0.398l1.821-1.827l-1.403-1.404
					c-0.415-0.415-0.274-0.731,0.086-1.093l1.973-1.974c0.359-0.365,0.713-0.533,1.128-0.12l1.406,1.405l1.571-1.569
					c0.356-0.365,0.264-1.26-0.15-1.672l-2.069-2.065l0.995-0.992c0.36-0.362,0.442-0.979,0.027-1.391l-2.254-2.247
					c-0.404-0.412-1.021-0.334-1.389,0.028l-0.984,0.991l-1.818-1.82c-0.415-0.415-1.128-0.328-1.495,0.034l-1.571,1.568
					l0.981,0.979c0.411,0.415,0.669,1.19,0.312,1.552l-1.979,1.978c-0.36,0.362-1.105,0.067-1.517-0.343l-0.981-0.981L73.677-66.9
					c-0.366,0.362-0.202,0.829,0.217,1.244l1.817,1.816l-1.238,1.244c-0.367,0.365-0.408,0.935,0.007,1.348L76.733-59
					C77.145-58.582,77.721-58.618,78.088-58.979z"/>
			</g>
		</g>
		<g>
			<g>
				<path fill="#B8B9F1" d="M76.956-73.644l-1.259-1.261l2.113-2.111c0.415-0.415,0.892-1.156,0.528-1.518l-1.914-1.921
					l-1.526,1.521c-0.415,0.413-0.539,0.279-0.898-0.081l-1.973-1.976c-0.367-0.36-0.683-0.667-0.268-1.081l1.522-1.524
					l-1.522-1.518c-0.363-0.365-1.259-0.041-1.672,0.369l-2.115,2.118l-1.108-1.103c-0.357-0.362-1.042-0.611-1.456-0.197
					l-2.249,2.245c-0.412,0.419-0.278,1.206,0.091,1.566l1.1,1.104l-1.756,1.756c-0.41,0.41-0.365,0.94-0.007,1.305l1.521,1.521
					l0.906-0.906c0.412-0.412,1.331-0.713,1.696-0.352l1.974,1.974c0.365,0.362-0.122,1.1-0.533,1.515l-0.906,0.905l1.917,1.917
					c0.365,0.365,0.737,0.254,1.149-0.165l1.756-1.756l1.262,1.261c0.364,0.365,0.992,0.341,1.407-0.07l2.243-2.247
					C77.405-72.755,77.323-73.282,76.956-73.644z"/>
			</g>
		</g>
		<g>
			<g>
				<g>
					<g>
						<path fill="#2747B3" d="M80.232-67.135l0.014,2.581c0,0.144-0.063,0.288-0.158,0.39c-0.103,0.103-0.247,0.166-0.391,0.159
							l-2.56-0.046l0.015-1.092l1.999,0.036l-0.014-2.024L80.232-67.135z"/>
					</g>
				</g>
				<g>
					<g>
						
							<rect x="69.832" y="-69.177" transform="matrix(0.7073 0.7069 -0.7069 0.7073 -26.3846 -73.5412)" fill="#2747B3" width="11.555" height="1.094"/>
					</g>
				</g>
			</g>
			<g>
				<g>
					<g>
						<path fill="#2747B3" d="M73.221-78.185c0.007,0,0.018,0,0.018,0l2.555,0.041l-0.02,1.096l-1.997-0.034l0.014,2.027
							l-1.087,0.003l-0.021-2.583c0-0.147,0.051-0.292,0.161-0.393C72.946-78.128,73.084-78.185,73.221-78.185z"/>
					</g>
				</g>
				<g>
					<g>
						<polygon fill="#2747B3" points="81.021,-69.086 72.851,-77.255 73.626,-78.029 81.789,-69.858 						"/>
					</g>
				</g>
			</g>
		</g>
	</g>
	<g>
		<g>
			<g>
				<path fill="#B9B8F1" d="M160.992-49.854l-8.414,5.855c-0.271,0.035-0.525,0.179-0.693,0.418
					c-0.127,0.192-0.186,0.422-0.172,0.638c-0.014,0.218,0.045,0.442,0.172,0.64c0.168,0.239,0.422,0.379,0.693,0.418l8.414,5.852
					c0.459,0.315,1.084,0.208,1.399-0.249c0.312-0.455,0.206-1.083-0.258-1.393l-7.57-5.266l7.57-5.269
					c0.464-0.309,0.569-0.937,0.258-1.389C162.072-50.058,161.451-50.166,160.992-49.854z"/>
			</g>
		</g>
		<g>
			<g>
				<path fill="#B9B8F1" d="M170.003-49.854l-8.421,5.855c-0.261,0.035-0.512,0.179-0.687,0.418
					c-0.134,0.192-0.185,0.422-0.178,0.638c-0.007,0.218,0.044,0.442,0.178,0.64c0.175,0.239,0.426,0.379,0.687,0.418l8.421,5.852
					c0.456,0.315,1.08,0.208,1.39-0.249c0.322-0.455,0.216-1.083-0.24-1.393l-7.577-5.266l7.577-5.269
					c0.456-0.309,0.563-0.937,0.24-1.389C171.083-50.058,170.459-50.166,170.003-49.854z"/>
			</g>
		</g>
		<g>
			<g>
				<path fill="#B9B8F1" d="M179.007-50.236l-8.414,5.855c-0.271,0.034-0.518,0.178-0.683,0.414
					c-0.144,0.197-0.191,0.418-0.178,0.643c-0.014,0.221,0.034,0.442,0.178,0.64c0.165,0.238,0.412,0.379,0.683,0.418l8.414,5.855
					c0.467,0.315,1.084,0.202,1.399-0.25c0.316-0.453,0.206-1.081-0.246-1.398l-7.581-5.262l7.581-5.265
					c0.452-0.313,0.563-0.942,0.246-1.395C180.088-50.44,179.467-50.55,179.007-50.236z"/>
			</g>
		</g>
		<g>
			<g>
				<path fill="#B9B8F1" d="M188.019-50.236l-8.422,5.855c-0.268,0.034-0.518,0.178-0.683,0.414
					c-0.137,0.197-0.188,0.418-0.175,0.643c-0.014,0.221,0.038,0.442,0.175,0.64c0.165,0.238,0.415,0.379,0.683,0.418l8.422,5.855
					c0.456,0.315,1.08,0.202,1.396-0.25c0.319-0.453,0.202-1.081-0.254-1.398l-7.57-5.262l7.57-5.265
					c0.456-0.313,0.573-0.942,0.254-1.395C189.099-50.44,188.475-50.55,188.019-50.236z"/>
			</g>
		</g>
	</g>
	<g>
		<g>
			<g>
				<path fill="#B9B8F1" d="M-43.23-52.854l-8.419,5.855c-0.268,0.04-0.517,0.175-0.681,0.415c-0.141,0.195-0.19,0.42-0.177,0.643
					c-0.01,0.216,0.04,0.439,0.177,0.638c0.165,0.235,0.414,0.379,0.681,0.418l8.419,5.855c0.457,0.315,1.086,0.204,1.401-0.254
					c0.312-0.453,0.204-1.077-0.255-1.389l-7.57-5.266l7.57-5.269c0.456-0.314,0.567-0.941,0.255-1.396
					C-42.144-53.058-42.773-53.169-43.23-52.854z"/>
			</g>
		</g>
		<g>
			<g>
				<path fill="#B9B8F1" d="M-34.224-52.854l-8.416,5.855c-0.268,0.04-0.52,0.175-0.685,0.415c-0.141,0.195-0.19,0.42-0.173,0.643
					c-0.014,0.216,0.036,0.439,0.173,0.638c0.165,0.235,0.42,0.379,0.685,0.418l8.416,5.855c0.456,0.315,1.082,0.204,1.394-0.254
					c0.319-0.453,0.211-1.077-0.245-1.389l-7.581-5.266l7.581-5.269c0.453-0.314,0.564-0.941,0.245-1.396
					C-33.142-53.058-33.764-53.169-34.224-52.854z"/>
			</g>
		</g>
		<g>
			<g>
				<path fill="#B9B8F1" d="M-25.218-53.239l-8.416,5.852c-0.268,0.034-0.52,0.178-0.685,0.417c-0.137,0.197-0.19,0.422-0.173,0.64
					c-0.018,0.222,0.036,0.446,0.173,0.644c0.161,0.238,0.417,0.379,0.685,0.418l8.416,5.855c0.459,0.316,1.085,0.203,1.397-0.25
					c0.317-0.457,0.204-1.083-0.249-1.398l-7.577-5.262l7.577-5.265c0.453-0.312,0.566-0.941,0.249-1.394
					C-24.129-53.443-24.758-53.557-25.218-53.239z"/>
			</g>
		</g>
		<g>
			<g>
				<path fill="#B9B8F1" d="M-16.205-53.239l-8.423,5.852c-0.266,0.034-0.52,0.178-0.685,0.417c-0.134,0.197-0.19,0.422-0.173,0.64
					c-0.014,0.222,0.039,0.446,0.173,0.644c0.165,0.238,0.418,0.379,0.685,0.418l8.423,5.855c0.449,0.316,1.082,0.203,1.397-0.25
					c0.314-0.457,0.204-1.083-0.252-1.398l-7.574-5.262l7.574-5.265c0.456-0.312,0.569-0.941,0.252-1.394
					C-15.123-53.443-15.752-53.557-16.205-53.239z"/>
			</g>
		</g>
	</g>
	<g>
		<g>
			<g>
				<g>
					<path fill="#2143AF" d="M68.436,75.525c-0.646,0-1.29-0.295-1.696-0.86L59.457,64.7c-0.564-0.775-0.537-1.835,0.074-2.576
						l9.512-11.556c0.741-0.896,2.064-1.026,2.964-0.288c0.898,0.734,1.022,2.066,0.281,2.962l-8.471,10.292l6.318,8.644
						c0.686,0.94,0.482,2.257-0.459,2.939C69.304,75.396,68.868,75.525,68.436,75.525z"/>
				</g>
			</g>
		</g>
		<g>
			<g>
				<g>
					<path fill="#2143AF" d="M82.407,75.505c-0.426,0-0.864-0.13-1.238-0.404c-0.943-0.687-1.143-2-0.457-2.943l6.347-8.665
						l-8.445-10.264c-0.734-0.897-0.604-2.221,0.288-2.962c0.898-0.738,2.229-0.604,2.964,0.292l9.48,11.525
						c0.604,0.744,0.639,1.801,0.072,2.576l-7.313,9.988C83.689,75.21,83.052,75.505,82.407,75.505z"/>
				</g>
			</g>
		</g>
		<g>
			<g>
				<g>
					<circle fill="#566CD3" cx="75.632" cy="38.676" r="6.066"/>
				</g>
			</g>
		</g>
		<g>
			<g>
				<g>
					<polygon fill="#F99AB6" points="77.865,45.141 77.852,50.913 77.834,54.689 73.406,54.677 73.633,45.45 73.694,42.826 					"/>
				</g>
			</g>
		</g>
		<g>
			<g>
				<g>
					<path fill="#2143AF" d="M69.06,54.187c0.015-1.799,1.571-3.542,3.187-4.384c2.407-1.253,6.129-0.379,7.316,0.326
						c2.014,1.202,3.218,3.639,3.08,6.146l0.138,13.457H68.489C68.489,69.735,69.022,58.282,69.06,54.187z"/>
				</g>
			</g>
		</g>
		<g>
			<path fill="#E5E9FF" d="M75.855,58.246c1.043-3.224,2.195-5.483,3.23-8.349c-3.176-1.201-6.256-0.527-6.901,0
				c1.029,2.866,2.188,5.121,3.231,8.349c0.059,0.229,0.216,0.605,0.223,0.601c0,0.005,0,0.019,0.008,0.022
				C75.663,58.833,75.793,58.475,75.855,58.246z"/>
		</g>
		<g>
			<polygon fill="#2747B3" points="76.013,50.125 75.639,50.125 75.259,50.125 74.538,54.488 75.046,57.14 75.639,58.847 
				76.223,57.14 76.733,54.488 			"/>
		</g>
		<g>
			<g>
				<g>
					<path fill="#F99AB6" d="M76.788,34.034h-2.305c-2.031,0-3.939,1.666-3.678,3.683c0.184,1.468,0,2.571,0,4.752
						c0,1.83,2.141,5.377,3.962,5.377h1.729c1.828,0,3.972-3.547,3.972-5.377c0-2.178-0.186-3.281,0-4.752
						C80.719,35.7,78.815,34.034,76.788,34.034z"/>
				</g>
			</g>
		</g>
		<g>
			<g>
				<g>
					<path fill="#FFFEFF" d="M73.77,44.742c0.165,0.881,0.94,1.549,1.869,1.549c0.923,0,1.691-0.667,1.863-1.549H73.77z"/>
				</g>
			</g>
		</g>
		<g>
			<g>
				<g>
					<path fill="#121F55" d="M77.931,82.605h-4.593c-3.297,0-5.773-3.019-5.127-6.25l0.278-6.62h14.292l0.271,6.62
						C83.703,79.587,81.233,82.605,77.931,82.605z"/>
				</g>
			</g>
		</g>
		<g>
			<g>
				<g>
					<g>
						<path fill="#2747B3" d="M85.021,78.029H66.904c-0.787,0-1.425-0.638-1.425-1.42V66.487c0-0.785,0.638-1.427,1.425-1.427
							h18.116c0.782,0,1.417,0.642,1.417,1.427v10.122C86.438,77.398,85.796,78.029,85.021,78.029z"/>
					</g>
				</g>
			</g>
			<g>
				<g>
					<g>
						<path fill="#FFFFFF" d="M85.021,78.63H66.904c-0.787,0-1.425-0.635-1.425-1.42V67.084c0-0.785,0.638-1.424,1.425-1.424h18.116
							c0.782,0,1.417,0.639,1.417,1.424V77.21C86.438,77.995,85.796,78.63,85.021,78.63z"/>
					</g>
				</g>
			</g>
			<g>
				<g>
					<g>
						<path fill="#2747B3" d="M78.051,73.228h-4.188c-0.583,0-1.066-0.48-1.066-1.07v-0.021c0-0.59,0.483-1.073,1.066-1.073h4.188
							c0.583,0,1.07,0.483,1.07,1.073v0.021C79.121,72.747,78.634,73.228,78.051,73.228z"/>
					</g>
				</g>
			</g>
		</g>
		<g>
			<path fill="#B8B9F1" d="M76.201,50.376c-0.216,0.195-0.991,0.175-1.196-0.033c-0.192-0.201-0.265-1.117-0.265-1.117l1.784,0.053
				C76.524,49.276,76.411,50.182,76.201,50.376z"/>
		</g>
		<g>
			<polygon fill="#FFFFFF" points="73.749,51.502 72.247,49.689 73.495,48.078 75.639,49.233 			"/>
		</g>
		<g>
			<polygon fill="#FFFFFF" points="77.522,51.502 79.024,49.689 77.772,48.078 75.639,49.233 			"/>
		</g>
		<g>
			<g>
				<g>
					<g>
						<path fill="#2143AF" d="M78.126,98.288l1.241-4.61l-0.092-0.007c-0.281-0.014-0.477-0.271-0.415-0.545
							c0.048-0.209,0.236-0.354,0.445-0.347l0.302,0.007l0.134-0.518l-0.141-0.007c-0.281-0.011-0.483-0.271-0.418-0.546
							c0.055-0.209,0.233-0.353,0.452-0.343l0.344,0.011l0.775-2.905c0.034-0.059,0.082-0.11,0.133-0.162
							c0.052-0.105,0.093-0.223,0.165-0.325c0.765-1.249,2.404-1.653,3.653-0.886c1.248,0.762,1.653,2.401,0.885,3.653
							c-0.007,0.007-0.014,0.018-0.014,0.027c-0.007,0.004-0.007,0.007-0.007,0.014l-5.251,8.6c-0.072,0.138-0.199,0.24-0.333,0.333
							C79.031,100.326,77.852,99.365,78.126,98.288z"/>
					</g>
				</g>
			</g>
			<g id="_x38_._Right_shoe_230_">
				<g>
					<g>
						<g>
							<path fill="#566CD3" d="M82.682,86.571c1.464,0,2.654,1.189,2.654,2.654c0,1.469-1.19,2.655-2.654,2.655
								c-1.469,0-2.659-1.187-2.659-2.655C80.022,87.761,81.213,86.571,82.682,86.571z"/>
						</g>
					</g>
				</g>
				<g>
					<g>
						<g>
							<path fill="#2143AF" d="M79.68,99.245l5.238-8.596c0.563-0.909,0.268-2.096-0.639-2.648l0,0
								c-0.912-0.552-3.608-0.579-4.171,0.326l-2.61,9.817c-0.291,1.084,0.893,2.034,1.842,1.437
								C79.484,99.496,79.607,99.386,79.68,99.245z"/>
						</g>
					</g>
				</g>
				<g>
					<g>
						<g>
							<path fill="#FFFFFF" d="M80.448,91.806L80.448,91.806c0.059-0.271-0.138-0.535-0.415-0.546l-1.036-0.038
								c-0.22-0.01-0.397,0.138-0.456,0.351l0,0c-0.059,0.268,0.145,0.535,0.422,0.542l1.029,0.041
								C80.212,92.162,80.396,92.018,80.448,91.806z"/>
						</g>
					</g>
				</g>
				<g>
					<g>
						<g>
							<path fill="#FFFFFF" d="M80.119,93.219L80.119,93.219c0.062-0.274-0.134-0.542-0.422-0.553l-1.025-0.037
								c-0.21-0.014-0.408,0.137-0.45,0.343l0,0c-0.068,0.277,0.138,0.542,0.412,0.549l1.036,0.041
								C79.882,93.572,80.074,93.421,80.119,93.219z"/>
						</g>
					</g>
				</g>
			</g>
		</g>
		<g>
			<g>
				<g>
					<path fill="#121F55" d="M68.547,75.087l15.924,11.422l-5.008,4.298L65.127,79.861c-1.307-0.939-1.602-2.751-0.667-4.055
						l0.031-0.051C65.429,74.455,67.239,74.153,68.547,75.087z"/>
				</g>
			</g>
		</g>
		<g>
			<g>
				<g>
					<g>
						<path fill="#2143AF" d="M77.06,105.722l0.312-4.765l0.09,0.027c0.26,0.075,0.541-0.106,0.569-0.384
							c0.021-0.213-0.117-0.412-0.315-0.478l-0.281-0.085l0.034-0.528l0.137,0.041c0.268,0.075,0.542-0.106,0.569-0.388
							c0.021-0.213-0.116-0.408-0.322-0.474l-0.326-0.1l0.195-2.994c-0.006-0.072-0.03-0.134-0.064-0.195
							c-0.014-0.117-0.021-0.24-0.059-0.367c-0.315-1.434-1.742-2.333-3.173-2.01c-1.431,0.325-2.333,1.745-2.014,3.176
							c0.007,0.011,0.007,0.018,0.014,0.027c0,0,0,0.014,0,0.018l2.202,9.831c0.034,0.15,0.117,0.295,0.224,0.425
							C75.554,107.364,76.987,106.836,77.06,105.722z"/>
					</g>
				</g>
			</g>
			<g id="_x38_._Right_shoe_229_">
				<g>
					<g>
						<g>
							<path fill="#2143AF" d="M75.656,93.02c1.468,0,2.655,1.193,2.655,2.662c0,1.468-1.188,2.654-2.655,2.654
								c-1.472,0-2.662-1.187-2.662-2.654C72.994,94.213,74.185,93.02,75.656,93.02z"/>
						</g>
					</g>
				</g>
				<g>
					<g>
						<g>
							<path fill="#2143AF" d="M75.286,106.133l-2.209-9.827c-0.233-1.036,0.418-2.072,1.461-2.298l0,0
								c1.036-0.233,3.602,0.606,3.838,1.646l-0.669,10.133c-0.071,1.118-1.502,1.646-2.201,0.778
								C75.396,106.428,75.32,106.291,75.286,106.133z"/>
						</g>
					</g>
				</g>
				<g>
					<g>
						<g>
							<path fill="#FFFFFF" d="M76.942,98.841L76.942,98.841c0.031-0.281,0.302-0.467,0.573-0.381l0.994,0.288
								c0.203,0.068,0.333,0.261,0.313,0.48l0,0c-0.031,0.274-0.309,0.463-0.572,0.377l-0.981-0.295
								C77.06,99.249,76.926,99.057,76.942,98.841z"/>
						</g>
					</g>
				</g>
				<g>
					<g>
						<g>
							<path fill="#FFFFFF" d="M76.802,100.277L76.802,100.277c0.027-0.281,0.306-0.466,0.569-0.384l0.995,0.292
								c0.202,0.064,0.333,0.257,0.312,0.477l0,0c-0.03,0.281-0.305,0.467-0.568,0.384l-0.985-0.295
								C76.919,100.689,76.781,100.49,76.802,100.277z"/>
						</g>
					</g>
				</g>
			</g>
		</g>
		<g>
			<g>
				<g>
					<path fill="#121F55" d="M80.081,77.601l-7.546,18.088l6.058,0.727l6.908-16.554c0.617-1.481-0.083-3.184-1.564-3.801
						l-0.055-0.021C82.407,75.423,80.698,76.119,80.081,77.601z"/>
				</g>
			</g>
		</g>
		<g>
			<g>
				<g>
					<path fill="#566CD3" d="M75.354,36.557c3.087-1.752,5.234-0.053,6.16,1.791c-0.483-2.842-2.939-5.008-5.917-5.008
						c-2.851,0-5.221,1.988-5.841,4.649C71.694,38.521,73.434,37.646,75.354,36.557z"/>
				</g>
			</g>
		</g>
	</g>
	<g>
		<path fill="#B9B8F1" d="M238.15,164.254h-350.994c-1.122,0-2.031-0.916-2.031-2.034s0.909-2.027,2.031-2.027H238.15
			c1.125,0,2.037,0.909,2.037,2.027S239.282,164.254,238.15,164.254z"/>
	</g>
	<g>
		<g>
			<path fill="#B9B8F1" d="M158.031,178.664H103.9c-1.132,0-2.038-0.906-2.038-2.024c0-1.121,0.906-2.037,2.038-2.037h54.131
				c1.122,0,2.027,0.916,2.027,2.037C160.059,177.758,159.153,178.664,158.031,178.664z"/>
		</g>
		<g>
			<path fill="#B9B8F1" d="M87.648,178.664H74.123c-1.132,0-2.034-0.906-2.034-2.024c0-1.121,0.902-2.037,2.034-2.037h13.525
				c1.121,0,2.034,0.916,2.034,2.037C89.683,177.758,88.77,178.664,87.648,178.664z"/>
		</g>
	</g>
	<g>
		<g>
			<g>
				<g>
					<path fill="#121F55" d="M120.749,167.858c-0.669,0-1.352-0.315-1.78-0.912l-7.646-10.462c-0.597-0.816-0.566-1.935,0.075-2.71
						l9.996-12.136c0.774-0.946,2.16-1.08,3.11-0.302c0.943,0.769,1.074,2.168,0.299,3.114l-8.905,10.813l6.642,9.083
						c0.72,0.98,0.504,2.37-0.48,3.087C121.662,167.715,121.202,167.858,120.749,167.858z"/>
				</g>
			</g>
		</g>
		<g>
			<g>
				<g>
					<path fill="#121F55" d="M135.431,167.838c-0.453,0-0.906-0.144-1.297-0.425c-0.984-0.721-1.2-2.106-0.487-3.087l6.665-9.114
						l-8.867-10.781c-0.775-0.939-0.642-2.332,0.302-3.111c0.95-0.774,2.34-0.638,3.115,0.306l9.957,12.112
						c0.648,0.778,0.669,1.89,0.079,2.706l-7.68,10.489C136.785,167.522,136.116,167.838,135.431,167.838z"/>
				</g>
			</g>
		</g>
		<g>
			<g>
				<g>
					<circle fill="#F7B75D" cx="128.319" cy="128.104" r="6.373"/>
				</g>
			</g>
		</g>
		<g>
			<g>
				<g>
					<polygon fill="#F99AB6" points="130.659,135.938 130.639,141.999 130.632,145.964 125.98,145.95 126.21,136.253 
						126.285,133.502 					"/>
				</g>
			</g>
		</g>
		<g>
			<g>
				<g>
					<path fill="#121F55" d="M121.408,145.439c0.014-1.894,1.646-3.729,3.341-4.606c2.534-1.321,6.448-0.398,7.69,0.343
						c2.119,1.262,3.389,3.824,3.238,6.459l0.15,14.136h-15.018C120.811,161.771,121.373,149.737,121.408,145.439z"/>
				</g>
			</g>
		</g>
		<g>
			<g>
				<g>
					<path fill="#F99AB6" d="M131.65,140.815c-1.855-0.782-4.459-1.043-6.568-0.134l1.561,1.561c0.987,0.988,2.586,0.988,3.574,0
						C130.696,141.77,131.17,141.292,131.65,140.815z"/>
				</g>
			</g>
		</g>
		<g>
			<g>
				<g>
					<path fill="#F99AB6" d="M129.53,124.457h-2.418c-2.138,0-4.141,1.749-3.873,3.873c0.199,1.543,0,2.702,0,4.994
						c0,1.921,2.254,5.643,4.171,5.643h1.818c1.928,0,4.175-3.729,4.175-5.643c0-2.292-0.202-3.447,0-4.994
						C133.66,126.206,131.664,124.457,129.53,124.457z"/>
				</g>
			</g>
		</g>
		<g>
			<g>
				<g>
					<path fill="#FFFEFF" d="M126.361,135.513c0.168,0.926,0.974,1.626,1.958,1.626c0.978,0,1.787-0.7,1.959-1.626H126.361z"/>
				</g>
			</g>
		</g>
		<g>
			<g>
				<g>
					<path fill="#566CD3" d="M130.725,175.296h-4.816c-3.472,0-6.068-3.17-5.389-6.565l0.291-6.957h15.018l0.281,6.957
						C136.799,172.119,134.195,175.296,130.725,175.296z"/>
				</g>
			</g>
		</g>
		<g>
			<g>
				<g>
					<path fill="#566CD3" d="M106.353,167.543l20.499-1.958l0.583,6.133l-20.499,1.959c-1.684,0.157-3.166-1.07-3.323-2.751
						l-0.007-0.063C103.44,169.189,104.669,167.694,106.353,167.543z"/>
				</g>
			</g>
		</g>
		<g>
			<g>
				<g>
					<path fill="#566CD3" d="M147.271,167.543l-20.499-1.958l-0.59,6.133l20.499,1.959c1.684,0.157,3.176-1.07,3.334-2.751
						l0.007-0.063C150.18,169.189,148.945,167.694,147.271,167.543z"/>
				</g>
			</g>
		</g>
		<g>
			<g>
				<g>
					<path fill="#FFFFFF" d="M136.819,171.666h-17.003c-0.875,0-1.585-0.706-1.585-1.584v-11.271c0-0.875,0.71-1.582,1.585-1.582
						h17.003c0.878,0,1.585,0.707,1.585,1.582v11.271C138.404,170.96,137.697,171.666,136.819,171.666z"/>
				</g>
			</g>
		</g>
		<g>
			<g>
				<g>
					<path fill="#B9B8F1" d="M136.819,172.339h-17.003c-0.875,0-1.585-0.714-1.585-1.585v-11.271c0-0.871,0.71-1.585,1.585-1.585
						h17.003c0.878,0,1.585,0.714,1.585,1.585v11.271C138.404,171.625,137.697,172.339,136.819,172.339z"/>
				</g>
			</g>
		</g>
		<g>
			<g>
				<g>
					<path fill="#FFFFFF" d="M130.652,166.318h-4.665c-0.655,0-1.19-0.531-1.19-1.189v-0.024c0-0.662,0.535-1.19,1.19-1.19h4.665
						c0.655,0,1.184,0.528,1.184,1.19v0.024C131.836,165.787,131.301,166.318,130.652,166.318z"/>
				</g>
			</g>
		</g>
		<g>
			<g>
				<g>
					<g>
						<path fill="#FFFFFF" d="M120.238,177.964l5.972-0.36l-0.021,0.11c-0.059,0.347,0.22,0.662,0.569,0.655
							c0.268-0.007,0.501-0.206,0.535-0.474l0.062-0.363l0.676-0.042l-0.034,0.172c-0.059,0.35,0.216,0.662,0.569,0.655
							c0.271-0.011,0.498-0.202,0.539-0.467l0.071-0.425l3.749-0.223c0.076-0.031,0.158-0.076,0.23-0.117
							c0.144-0.034,0.295-0.075,0.436-0.127c1.729-0.628,2.627-2.535,2-4.264c-0.628-1.729-2.528-2.621-4.257-1.996
							c-0.021,0.007-0.027,0.014-0.042,0.017c-0.006,0.004-0.014,0.004-0.02,0.007l-11.862,4.291
							c-0.185,0.072-0.35,0.186-0.497,0.337C117.964,176.358,118.842,178.05,120.238,177.964z"/>
					</g>
				</g>
			</g>
			<g id="_x38_._Right_shoe_226_">
				<g>
					<g>
						<g>
							<circle fill="#F7B75D" cx="132.494" cy="174.646" r="3.325"/>
						</g>
					</g>
				</g>
				<g>
					<g>
						<g>
							<path fill="#F7B75D" d="M119.445,175.827l11.855-4.291c1.259-0.453,2.641,0.195,3.094,1.447l0,0
								c0.459,1.252-0.186,4.576-1.438,5.032l-12.698,0.765c-1.396,0.086-2.274-1.605-1.304-2.613
								C119.096,176.009,119.261,175.893,119.445,175.827z"/>
						</g>
					</g>
				</g>
				<g>
					<g>
						<g>
							<path fill="#FFFFFF" d="M128.775,176.739L128.775,176.739c0.351-0.007,0.625,0.313,0.563,0.659l-0.212,1.272
								c-0.042,0.264-0.265,0.46-0.535,0.466l0,0c-0.357,0.008-0.618-0.302-0.569-0.654l0.212-1.266
								C128.278,176.949,128.501,176.75,128.775,176.739z"/>
						</g>
					</g>
				</g>
				<g>
					<g>
						<g>
							<path fill="#FFFFFF" d="M126.965,176.791L126.965,176.791c0.347-0.014,0.628,0.302,0.563,0.651l-0.206,1.272
								c-0.048,0.265-0.268,0.46-0.542,0.471l0,0c-0.354,0.007-0.624-0.309-0.569-0.652l0.213-1.272
								C126.471,176.997,126.693,176.791,126.965,176.791z"/>
						</g>
					</g>
				</g>
			</g>
		</g>
		<g>
			<g>
				<g>
					<path fill="#F99AB6" d="M146.022,168.83l-13.844,3.729c-1.338,0.359-2.124,1.729-1.764,3.06l0.014,0.048
						c0.357,1.334,1.723,2.12,3.06,1.763l13.845-3.725c1.334-0.364,2.12-1.729,1.763-3.06l-0.014-0.052
						C148.726,169.259,147.354,168.47,146.022,168.83z"/>
				</g>
			</g>
		</g>
		<g>
			<g>
				<g>
					<g>
						<path fill="#FFFFFF" d="M133.386,177.964l-5.979-0.36l0.021,0.11c0.059,0.347-0.216,0.662-0.569,0.655
							c-0.265-0.007-0.497-0.206-0.538-0.474l-0.056-0.363l-0.672-0.042l0.027,0.172c0.059,0.35-0.22,0.662-0.569,0.655
							c-0.265-0.011-0.494-0.202-0.535-0.467l-0.068-0.425l-3.764-0.223c-0.071-0.031-0.147-0.076-0.223-0.117
							c-0.15-0.034-0.295-0.075-0.439-0.127c-1.735-0.628-2.627-2.535-1.999-4.264c0.624-1.729,2.538-2.621,4.264-1.996
							c0.014,0.007,0.021,0.014,0.041,0.017c0,0.004,0.007,0.004,0.014,0.007l11.861,4.291c0.192,0.072,0.35,0.186,0.501,0.337
							C135.656,176.358,134.778,178.05,133.386,177.964z"/>
					</g>
				</g>
			</g>
			<g id="_x38_._Right_shoe_225_">
				<g>
					<g>
						<g>
							<circle fill="#F7B75D" cx="121.127" cy="174.647" r="3.331"/>
						</g>
					</g>
				</g>
				<g>
					<g>
						<g>
							<path fill="#F7B75D" d="M134.175,175.827l-11.861-4.291c-1.249-0.453-2.638,0.195-3.094,1.447l0,0
								c-0.45,1.252,0.188,4.576,1.44,5.032l12.705,0.765c1.39,0.086,2.268-1.605,1.297-2.613
								C134.524,176.009,134.36,175.893,134.175,175.827z"/>
						</g>
					</g>
				</g>
				<g>
					<g>
						<g>
							<path fill="#FFFFFF" d="M124.852,176.739L124.852,176.739c-0.354-0.007-0.628,0.313-0.569,0.659l0.213,1.272
								c0.041,0.264,0.271,0.46,0.535,0.466l0,0c0.353,0.008,0.628-0.302,0.569-0.654l-0.213-1.266
								C125.339,176.949,125.126,176.75,124.852,176.739z"/>
						</g>
					</g>
				</g>
				<g>
					<g>
						<g>
							<path fill="#FFFFFF" d="M126.659,176.791L126.659,176.791c-0.354-0.014-0.628,0.302-0.565,0.651l0.205,1.272
								c0.041,0.265,0.271,0.46,0.539,0.471l0,0c0.354,0.007,0.628-0.309,0.563-0.652l-0.202-1.272
								C127.156,176.997,126.931,176.791,126.659,176.791z"/>
						</g>
					</g>
				</g>
			</g>
		</g>
		<g>
			<g>
				<g>
					<path fill="#F99AB6" d="M107.604,168.83l13.834,3.729c1.335,0.359,2.123,1.729,1.764,3.06l-0.007,0.048
						c-0.36,1.334-1.732,2.12-3.061,1.763l-13.848-3.725c-1.33-0.364-2.119-1.729-1.763-3.06l0.014-0.052
						C104.895,169.259,106.273,168.47,107.604,168.83z"/>
				</g>
			</g>
		</g>
		<g>
			<g>
				<g>
					<path fill="#F7B75D" d="M128.199,121.73c-4.246,0-7.92,4.473-7.92,4.473c5.286,3.234,9.004,0.857,10.287-0.192
						c0.37-0.302,1.125-0.943,1.125-1.783L128.199,121.73z"/>
				</g>
			</g>
		</g>
	</g>
	<g>
		<g>
			
				<rect x="-36.362" y="-3.881" transform="matrix(-0.8854 0.4649 -0.4649 -0.8854 -58.0564 48.509)" fill="#B9B8F1" width="2.708" height="41.956"/>
		</g>
		<g>
			<polygon fill="#F7B75D" points="-37.146,15.956 -43.83,3.223 -59.89,19.782 			"/>
		</g>
	</g>
	<g>
		<g>
			<g>
				<path fill="#F99AB6" d="M-55.419,96.224c0.244-0.646,5.955-15.902,5.955-25.246h-3.391c0,8.72-5.675,23.901-5.735,24.052
					L-55.419,96.224z"/>
			</g>
		</g>
		<g>
			<g>
				<path fill="#F99AB6" d="M-40.532,83.683l5.678-9.516c0.237-0.391,0.304-0.871,0.177-1.323c-0.13-0.446-0.432-0.823-0.844-1.043
					l-9.117-4.796l-1.578,3.002l7.534,3.962l-4.763,7.979L-40.532,83.683z"/>
			</g>
		</g>
		<g>
			<g>
				<path fill="#121F55" d="M-56.988,36.691c0,0,2.238-2.701,3.249-3.572c1.852-1.592,3.38,0.168,3.38,0.168
					c9.22-1.415,10.951,11.753,6.754,15.031c-3.404,2.659-6.246,0.829-6.246,0.829s-1.917,1.432-4.857,1.887
					c-1.819,0.279-4.018-0.917-4.018-0.917s-2.575,1.837-4.545-0.882c-1.974-2.718,0.945-5.602,2.494-5.634
					c0,0-1.854-2.233,0.689-3.717C-59.086,39.303-56.988,36.691-56.988,36.691z"/>
			</g>
		</g>
		<g>
			<g>
				<path fill="#F99AB6" d="M-45.586,53.048c0.621-0.312,1.124-1.254,0.382-2.118c-0.73-0.846-1.857-1.317-3.07-1.362l-0.312-0.012
					c-1.072-0.042-2.041,0.425-2.688,1.185C-50.757,52.334-47.266,53.694-45.586,53.048z"/>
			</g>
		</g>
		<g>
			<g>
				<path fill="#F99AB6" d="M-47.449,47.136l0.029,1.371l0.048,2.567l-1.974,0.036l-0.059-3.281l-0.029-1.271
					C-48.836,46.958-48.157,47.172-47.449,47.136z"/>
			</g>
		</g>
		<g>
			<g>
				<g>
					<path fill="#F99AB6" d="M-47.449,47.136l0.029,1.371c-0.7-0.104-1.548-0.418-1.987-0.935l-0.022-1.019
						C-48.836,46.958-48.157,47.172-47.449,47.136z"/>
				</g>
			</g>
		</g>
		<g>
			<g>
				<path fill="#F99AB6" d="M-46.353,47.136L-46.353,47.136c-1.668,0.841-3.55,0.788-5.106,0.016
					c-1.075-0.528-1.996-1.403-2.576-2.557l-1.012-2.014c-0.734-1.458-0.785-3.08-0.269-4.509c0.477-1.333,1.448-2.487,2.806-3.173
					l0,0c0.902-0.449,1.866-0.643,2.808-0.604c2.008,0.084,3.909,1.227,4.878,3.147l1.012,2.012c0.931,1.849,0.765,3.963-0.257,5.6
					C-44.604,45.915-45.375,46.649-46.353,47.136z"/>
			</g>
		</g>
		<g>
			<g>
				<path fill="#121F55" d="M-52.668,41.214c4.106,0.669,4.555-3.754,4.32-5.578c-0.489-3.807-5.462-3.073-7.203-1.176
					c-1.079,1.173-2.993,4.353-2.168,8.304s4.857,6.406,4.857,6.406c4.434-3.248-0.147-6.361-0.147-6.361L-52.668,41.214z"/>
			</g>
		</g>
		<g>
			<g>
				<path fill="#8EDEF2" d="M-49.064,62.553c3,0,5.43,2.432,5.43,5.43c0,3.002-2.43,5.431-5.43,5.431
					c-2.998,0-5.43-2.429-5.43-5.431C-54.495,64.984-52.063,62.553-49.064,62.553z"/>
			</g>
		</g>
		<g>
			<g>
				<path fill="#FFFEFF" d="M-46.806,44.021c0.439,0.573,1.236,0.775,1.904,0.442c0.667-0.341,0.979-1.1,0.784-1.796L-46.806,44.021
					z"/>
			</g>
		</g>
		<g>
			<g>
				<path fill="#8EDEF2" d="M-39.771,69.537c-7.172,6.219-16.072,9.268-16.072,9.268s-1.518-9.1,1.843-13.041
					c1.686-1.976,10.361,0.896,10.361,0.896L-39.771,69.537z"/>
			</g>
		</g>
		<g>
			<g>
				<path fill="#8EDEF2" d="M-42.7,53.962c0.369,1.022-0.661,2.055-1.746,2.173c-1.081,0.12-2.055-0.66-2.173-1.744
					c-0.12-1.085,1.496-3.454,2.103-2.55C-43.937,52.7-43.019,53.087-42.7,53.962z"/>
			</g>
		</g>
		<g>
			<g>
				<path fill="#8EDEF2" d="M-51.27,50.745c-0.466,0.547-0.765,1.247-0.804,2.019c0,0,0.489,8.918-1.96,13.028
					c-1.05,1.767,10.429,1.715,10.429,1.715l-0.305-13.189c0.058-1.313-0.439-2.516-1.293-3.384
					C-45.253,52.924-49.346,50.534-51.27,50.745z"/>
			</g>
		</g>
		<g>
			<g>
				<path fill="#8EDEF2" d="M-49.541,53.993c2.037,0,15.78-0.646,23.428-17.586l-3.087-1.394
					c-7.128,15.792-19.909,15.609-20.458,15.595l-0.115,3.382C-49.742,53.989-49.665,53.993-49.541,53.993z"/>
			</g>
		</g>
		<g>
			<g>
				<path fill="#F99AB6" d="M-29.113,32.293c0.607-0.377,1.307-0.499,1.963-0.401l2.333,3.776c-0.208,0.635-0.626,1.197-1.24,1.573
					c-1.367,0.844-3.163,0.418-4.005-0.949C-30.909,34.932-30.483,33.132-29.113,32.293z"/>
			</g>
		</g>
		<g>
			<g>
				<g>
					<circle fill="#121F55" cx="-43.343" cy="83.978" r="2.209"/>
				</g>
			</g>
			<g>
				<g>
					<path fill="#121F55" d="M-35.91,88.488l-8.023-2.384c-0.849-0.251-1.331-1.146-1.081-1.989l0,0
						c0.252-0.852,1.907-2.374,2.753-2.12l7.082,4.604c0.78,0.5,0.583,1.749-0.334,1.914C-35.646,88.526-35.783,88.526-35.91,88.488
						z"/>
				</g>
			</g>
		</g>
		<g>
			<g>
				<g>
					<circle fill="#121F55" cx="-57.336" cy="96.902" r="2.209"/>
				</g>
			</g>
			<g>
				<g>
					<path fill="#121F55" d="M-48.639,96.992l-8.114,2.044c-0.861,0.216-1.732-0.302-1.95-1.159l0,0
						c-0.216-0.857,0.429-3.012,1.286-3.231l8.433,0.336c0.935,0.038,1.398,1.215,0.693,1.818
						C-48.397,96.882-48.512,96.954-48.639,96.992z"/>
				</g>
			</g>
		</g>
		<g>
			<g>
				<path fill="#8EDEF2" d="M-47.234,66.422c0.868,0,1.802-0.086,2.789-0.295l-0.101-0.48c-4.632,0.998-8.241-0.98-8.272-1.001
					l-0.238,0.418C-52.936,65.133-50.606,66.422-47.234,66.422z"/>
			</g>
		</g>
	</g>
	<g>
		<g>
			<g>
				<path fill="#FFFFFF" d="M10.082-57.036c0.552-0.801-0.196-2.136,0.271-3.724c1.417-4.79-0.242-6.877-0.242-6.877
					c0.024-1.76-1.454-3.302-3.66-4.116c-1.033-0.379-2.231-0.605-3.509-0.609c-1.924-0.014-3.684,0.465-4.994,1.247
					c-1.407,0.844-2.423,2.047-2.312,3.384c0.077,0.945,1.092,2.191,0.06,3.785c-2.55,3.938-1.444,6.207-0.087,6.91
					c1.243,0.653,2.682,0.701,3.413,1.12C2.781-53.771,8.123-54.194,10.082-57.036z"/>
			</g>
		</g>
		<g>
			<path fill="#F99AB6" d="M21.856-39.498c0.868-0.1,1.763-0.254,2.688-0.468c0.677-0.154,1.099-0.832,0.945-1.507
				c-0.158-0.681-0.828-1.103-1.511-0.943c-4.302,0.997-7.83,0.571-10.478-1.266c-4.039-2.806-4.756-7.98-4.763-8.032
				c-0.091-0.689-0.73-1.167-1.412-1.089c-0.689,0.091-1.176,0.728-1.085,1.412c0.031,0.259,0.878,6.344,5.831,9.776
				C14.723-39.776,18.011-39.067,21.856-39.498z"/>
		</g>
		<g>
			<path fill="#121F55" d="M9.327-49.79c0.247,0,0.479,0.024,0.696,0.07c-0.422-1.199-0.556-2.072-0.559-2.094
				c-0.13-0.99-0.983-1.734-1.988-1.734c-0.077,0-0.158,0.007-0.245,0.017c-1.093,0.141-1.866,1.147-1.722,2.236
				c0.014,0.127,0.228,1.592,0.966,3.475C6.866-48.916,7.818-49.79,9.327-49.79z"/>
		</g>
		<g>
			<g>
				<path fill="#F99AB6" d="M6.96-50.855c0.646-0.326,1.169-1.307,0.396-2.195c-0.761-0.885-1.931-1.375-3.191-1.421l-0.324-0.01
					c-1.117-0.043-2.125,0.442-2.796,1.233C1.575-51.6,5.211-50.18,6.96-50.855z"/>
			</g>
		</g>
		<g>
			<g>
				<path fill="#F99AB6" d="M4.829-57.002l0.027,1.423l0.053,2.668l-2.051,0.04l-0.067-3.418l-0.029-1.321
					C3.388-57.191,4.095-56.97,4.829-57.002z"/>
			</g>
		</g>
		<g>
			<g>
				<g>
					<path fill="#F99AB6" d="M4.829-56.661l0.027,1.421c-0.727-0.108-1.609-0.436-2.068-0.969l-0.026-1.06
						C3.388-56.854,4.095-56.633,4.829-56.661z"/>
				</g>
			</g>
		</g>
		<g>
			<g>
				<path fill="#F99AB6" d="M4.319-55.927L4.319-55.927c-1.943-0.021-3.66-0.966-4.732-2.42c-0.741-1.001-1.173-2.249-1.163-3.59
					l0.026-2.339c0.017-1.7,0.744-3.228,1.904-4.303c1.074-1.001,2.524-1.608,4.109-1.591l0,0c1.049,0.01,2.029,0.292,2.879,0.777
					c1.816,1.036,3.031,3,3.01,5.233l-0.024,2.343c-0.021,2.154-1.183,4.027-2.905,5.056C6.515-56.222,5.453-55.92,4.319-55.927z"/>
			</g>
		</g>
		<g>
			<g>
				<path fill="#F7B75D" d="M10.708-36.572c0.688,3.038-3.074,6.068-6.116,6.758c-3.041,0.691-6.068-1.213-6.761-4.25
					c-0.691-3.042,1.212-6.07,4.253-6.763C5.127-41.519,10.013-39.615,10.708-36.572z"/>
			</g>
		</g>
		<g>
			<g>
				<path fill="#FFFEFF" d="M4.712-59.027c0.134,0.741,0.773,1.305,1.549,1.317c0.78,0.003,1.43-0.545,1.578-1.286L4.712-59.027z"/>
			</g>
		</g>
		<g>
			<g>
				<path fill="#121F55" d="M10.312-49.475c0.386,1.065-0.686,2.36-1.809,2.487c-1.124,0.127-2.494-1.345-2.621-2.473
					c-0.127-1.123,1.555-3.59,2.191-2.651C8.67-51.217,9.98-50.384,10.312-49.475z"/>
			</g>
		</g>
		<g>
			<g>
				<path fill="#121F55" d="M1.045-53.253c-0.489,0.568-0.797,1.295-0.832,2.099c0,0,1.83,8.862-2.038,13.547
					c0,0,6.982,4.188,12.589,1.36c0-4.012-2.453-6.787-2.065-13.292C8.78-50.9,8.238-52.15,7.356-53.051
					C7.305-50.984,3.046-53.476,1.045-53.253z"/>
			</g>
		</g>
		<g>
			<g>
				<g>
					<g>
						<path fill="#2143AF" d="M7.034-8.311C7.168-6.99,6.931-5.93,6.984-5.603c0.084,0.543,2.526,1.036,2.832,2.542
							c0.418,2.063,3.13,2.285,3.569,2.369c1.126,0.221,2.122-0.352,1.535-1.438c-0.683-1.268-1.37-1.496-2.294-3.041
							c-1.352-2.269-1.455-3.801-2.167-5.15c-0.13-0.249-0.78-1.083-1.768-0.956C7.785-11.156,6.87-9.934,7.034-8.311z"/>
					</g>
				</g>
			</g>
			<g>
				<g>
					<g>
						<path fill="#F99AB6" d="M10.989-4.318c-0.755-1.113-2.062-4.716-1.89-5.594c0.204-1.033,2.202-1.461,2.48-0.619
							c0.473,1.454,0.326,4.162,2.051,6.733C13.613-3.039,11.871-3.018,10.989-4.318z"/>
					</g>
				</g>
			</g>
		</g>
		<g>
			<g>
				<g>
					<g>
						<path fill="#2143AF" d="M43.107-25.769c0.979-0.899,1.967-1.345,2.199-1.588c0.379-0.389-0.681-2.641,0.345-3.789
							c1.405-1.567-0.043-3.871-0.237-4.276c-0.494-1.032-1.545-1.492-2.068-0.369c-0.604,1.307-0.375,1.991-1.065,3.657
							c-1.01,2.439-2.173,3.438-2.833,4.816c-0.116,0.252-0.397,1.271,0.295,1.991C40.37-24.673,41.905-24.669,43.107-25.769z"/>
					</g>
				</g>
			</g>
			<g>
				<g>
					<g>
						<path fill="#F99AB6" d="M43.939-31.333c-0.439,1.271-2.551,4.475-3.358,4.859c-0.945,0.456-2.483-0.887-1.974-1.617
							c0.878-1.254,3.141-2.75,4.169-5.668C43.399-34.195,44.456-32.814,43.939-31.333z"/>
					</g>
				</g>
			</g>
		</g>
		<g>
			<path fill="#F7B75D" d="M16.577-28.434l-0.094-0.043L3.146-34.603c-1.266-0.58-2.758-0.024-3.341,1.24
				c-0.58,1.263-0.024,2.758,1.24,3.341c0.003,0.003,0.021,0.01,0.024,0.01l11.476,5.118l-4.06,13.93l3.486,1.153l5.818-15.679
				C18.218-26.65,17.676-27.925,16.577-28.434z"/>
		</g>
		<g>
			<path fill="#F99AB6" d="M4.333-36.071c0.65,0,1.341-0.038,2.072-0.111c0.693-0.074,1.199-0.693,1.125-1.384
				c-0.074-0.693-0.693-1.19-1.38-1.12c-2.326,0.235-5.319,0.161-6.372-1.568c-1.662-2.722,1.478-8.721,2.708-10.608
				c0.379-0.586,0.218-1.361-0.365-1.742c-0.583-0.379-1.364-0.218-1.746,0.365c-0.573,0.881-5.526,8.733-2.748,13.295
				C-1.21-37.033,1.045-36.071,4.333-36.071z"/>
		</g>
		<g>
			<g>
				<path fill="#FFFFFF" d="M-2.222-63.633c0,0,4.219,1.509,6.854-0.324c2.634-1.833,3.838-4.657,2.688-6.312
					C6.17-71.923,3.1-71.776,0.465-69.94C-2.169-68.116-2.222-63.633-2.222-63.633z"/>
			</g>
		</g>
		<g>
			<path fill="#F7B75D" d="M3.026-35.196c0,0,2.336,0.06,5.832,0.207c1.752,0.081,3.79,0.18,5.977,0.281
				c2.185,0.134,4.518,0.271,6.843,0.408l0.878,0.055l0.218,0.01l0.053,0.005l0.242,0.021l0.108,0.017l0.429,0.063l0.861,0.134
				l0.057,0.007l0.211,0.038l0.024,0.003l0.11,0.026l0.209,0.051l0.418,0.103c1.113,0.278,2.213,0.547,3.278,0.808
				c1.06,0.266,2.089,0.509,3.063,0.769c0.966,0.257,1.887,0.496,2.732,0.72c1.696,0.439,3.106,0.844,4.085,1.113
				c0.986,0.281,1.549,0.442,1.549,0.442l-0.71,3.163c0,0-0.575-0.093-1.583-0.257c-1.009-0.175-2.453-0.403-4.173-0.73
				c-0.861-0.161-1.796-0.333-2.785-0.513c-0.988-0.172-2.021-0.393-3.093-0.604c-1.077-0.211-2.183-0.436-3.315-0.66L24.122-29.6
				l-0.214-0.04l-0.104-0.024l-0.028-0.003c-0.042-0.007,0.34,0.06,0.168,0.031l-0.011-0.003l-0.053-0.003l-0.868-0.101
				l-0.436-0.057l-0.104-0.014h-0.014c-0.043-0.007,0.346,0.031,0.171,0.014h-0.024l-0.053-0.003l-0.221-0.007l-0.875-0.036
				c-2.333-0.091-4.668-0.178-6.854-0.269c-2.185-0.11-4.221-0.215-5.974-0.302c-3.495-0.201-5.824-0.369-5.824-0.369L3.026-35.196z
				"/>
		</g>
		<g>
			<g>
				<path fill="#121F55" d="M3.792-33.709c0-0.418,0.34-0.756,0.758-0.756h27.422c0.576,0,1.046,0.341,1.046,0.756
					c0,0.417-0.47,0.758-1.046,0.758H4.551C4.132-32.952,3.792-33.293,3.792-33.709L3.792-33.709z"/>
			</g>
			<g>
				<path fill="#FFFFFF" d="M2.717-33.709c0,0.417,0.365,0.758,0.814,0.758h10.414c0.446,0,0.815-0.341,0.815-0.758
					c0-0.415-0.369-0.756-0.815-0.756H3.532C3.086-34.469,2.717-34.125,2.717-33.709z"/>
			</g>
			<g>
				<path fill="#FFFFFF" d="M32.977-48.66v13.829c0,0.616-0.503,1.113-1.117,1.113H13.617c-0.619,0-1.113-0.497-1.113-1.113V-48.66
					c0-0.614,0.494-1.116,1.113-1.116H31.86C32.474-49.776,32.977-49.274,32.977-48.66z"/>
			</g>
			<g>
				<path fill="#FFFFFF" d="M33.827-48.66v13.829c0,0.616-0.502,1.113-1.113,1.113H14.469c-0.617,0-1.116-0.497-1.116-1.113V-48.66
					c0-0.614,0.499-1.116,1.116-1.116h18.245C33.325-49.776,33.827-49.274,33.827-48.66z"/>
			</g>
			<g>
				<path fill="#B9B8F1" d="M20.582-41.743L20.582-41.743c0-0.65,0.526-1.173,1.177-1.173h3.663c0.654,0,1.173,0.523,1.173,1.173
					l0,0c0,0.654-0.52,1.177-1.173,1.177h-3.663C21.108-40.566,20.582-41.093,20.582-41.743z"/>
			</g>
		</g>
		<g>
			<path fill="#121F55" d="M-1.045-50.008c1.487,0,2.428,0.845,2.832,1.914c0.459-0.945,0.935-1.78,1.317-2.367
				c0.601-0.921,0.341-2.161-0.583-2.761c-0.322-0.214-0.702-0.322-1.089-0.322c-0.674,0-1.304,0.336-1.672,0.902
				c-0.292,0.443-0.902,1.425-1.549,2.715C-1.562-49.977-1.312-50.008-1.045-50.008z"/>
		</g>
		<g>
			<g>
				<path fill="#F99AB6" d="M11.864-38.428c0.305,0.686,0.33,1.42,0.137,2.087l-4.236,1.871c-0.626-0.302-1.149-0.815-1.454-1.502
					c-0.678-1.535,0.014-3.327,1.545-4.005C9.391-40.65,11.187-39.959,11.864-38.428z"/>
			</g>
		</g>
	</g>
</g>
</svg>
