<?xml version="1.0" encoding="utf-8"?>
<!-- Generator: Adobe Illustrator 16.0.3, SVG Export Plug-In . SVG Version: 6.00 Build 0)  -->
<!DOCTYPE svg PUBLIC "-//W3C//DTD SVG 1.1//EN" "http://www.w3.org/Graphics/SVG/1.1/DTD/svg11.dtd">
<svg version="1.1" id="Ebene_1" xmlns="http://www.w3.org/2000/svg" xmlns:xlink="http://www.w3.org/1999/xlink" x="0px" y="0px"
	 width="140px" height="120px" viewBox="0 0 140 120" enable-background="new 0 0 140 120" xml:space="preserve">
<g>
	<g>
		<g>
			<path fill="#E5E9FF" d="M100.876,67.967h26.636c-1.967,0-3.756,0.778-5.045,2.077c-1.295,1.305-2.094,2.84-2.094,4.827
				c0,3.971,3.198,6.927,7.139,6.927h-26.636c1.967,0,3.751-0.561,5.046-1.854c1.288-1.298,2.088-2.949,2.088-4.938
				C108.01,71.031,104.816,67.967,100.876,67.967z"/>
		</g>
		<g>
			<circle fill="#E5E9FF" cx="68.961" cy="61.161" r="51.86"/>
		</g>
		<g>
			<path fill="#E5E9FF" d="M28.176,91.173h21.285c2.194,0,3.972,1.779,3.972,3.973l0,0c0,2.194-1.778,3.974-3.972,3.974H28.176
				c-2.194,0-3.973-1.779-3.973-3.974l0,0C24.204,92.952,25.982,91.173,28.176,91.173z"/>
		</g>
		<g>
			<path fill="#E5E9FF" d="M23.05,106.798h31.537c1.422,0,2.575,1.153,2.575,2.575l0,0c0,1.422-1.153,2.575-2.575,2.575H23.05
				c-1.422,0-2.575-1.153-2.575-2.575l0,0C20.476,107.951,21.628,106.798,23.05,106.798z"/>
		</g>
		<g>
			<path fill="#E5E9FF" d="M91.934,111.987h4.812c1.423,0,2.575,1.152,2.575,2.575l0,0c0,1.422-1.152,2.574-2.575,2.574h-4.812
				c-1.422,0-2.575-1.152-2.575-2.574l0,0C89.358,113.14,90.512,111.987,91.934,111.987z"/>
		</g>
		<g>
			<path fill="#E5E9FF" d="M89.543,96.754h23.435c2.333,0,4.225,1.892,4.225,4.225l0,0c0,2.333-1.892,4.224-4.225,4.224H89.543
				c-2.332,0-4.224-1.891-4.224-4.225l0,0C85.319,98.646,87.211,96.754,89.543,96.754z"/>
		</g>
		<g>
			<path fill="#E5E9FF" d="M90.75,53.694h38.231c3.94,0,7.136,3.195,7.136,7.136l0,0c0,3.94-3.195,7.136-7.136,7.136H90.75
				c-3.941,0-7.136-3.196-7.136-7.136l0,0C83.614,56.889,86.809,53.694,90.75,53.694z"/>
		</g>
		<g>
			<path fill="#E5E9FF" d="M31.845,99.106h14.83c-1.095,0-2.091,0.474-2.809,1.191c-0.721,0.721-1.166,1.571-1.166,2.67
				c0,2.194,1.78,3.83,3.975,3.83h-14.83c1.096,0,2.089-0.291,2.809-1.005c0.718-0.718,1.162-1.664,1.162-2.762
				C35.816,100.834,34.039,99.106,31.845,99.106z"/>
		</g>
		<g>
			<path fill="#E5E9FF" d="M76.367,81.83h56.646c2.555,0,4.626,2.07,4.626,4.625l0,0c0,2.555-2.071,4.625-4.626,4.625H76.367
				c-2.554,0-4.625-2.07-4.625-4.625l0,0C71.742,83.9,73.813,81.83,76.367,81.83z"/>
		</g>
		<g>
			<path fill="#E5E9FF" d="M58.027,47.488H13.228c-4.184,0-7.576-3.392-7.576-7.577l0,0c0-4.184,3.393-7.576,7.576-7.576h44.799
				c4.184,0,7.577,3.393,7.577,7.576l0,0C65.604,44.097,62.211,47.488,58.027,47.488z"/>
		</g>
		<g>
			<path fill="#E5E9FF" d="M76.686,91.354H11.948C5.901,91.354,1,86.452,1,80.405l0,0c0-6.047,4.901-10.948,10.949-10.948h64.736
				c6.048,0,10.949,4.901,10.949,10.948l0,0C87.635,86.452,82.733,91.354,76.686,91.354z"/>
		</g>
		<g>
			<path fill="#E5E9FF" d="M113.317,30.082H77.576c-3.338,0-6.045-2.707-6.045-6.044l0,0c0-3.339,2.707-6.045,6.045-6.045h35.741
				c3.338,0,6.045,2.706,6.045,6.045l0,0C119.362,27.375,116.655,30.082,113.317,30.082z"/>
		</g>
		<g>
			<path fill="#E5E9FF" d="M71.023,20.242H25.112c-3.022,0-5.471-2.449-5.471-5.47l0,0c0-3.021,2.449-5.47,5.471-5.47h45.912
				c3.021,0,5.471,2.449,5.471,5.47l0,0C76.494,17.793,74.044,20.242,71.023,20.242z"/>
		</g>
		<g>
			<path fill="#E5E9FF" d="M102.323,9.302h-8.487c-1.817,0-3.29-1.473-3.29-3.29l0,0c0-1.816,1.473-3.29,3.29-3.29h8.487
				c1.816,0,3.289,1.473,3.289,3.29l0,0C105.612,7.829,104.14,9.302,102.323,9.302z"/>
		</g>
	</g>
	<g>
		<g>
			<g>
				<rect x="32.826" y="55.164" fill="#566CD3" width="5.603" height="5.604"/>
			</g>
		</g>
	</g>
	<g>
		<g>
			<g>
				<g>
					<path fill="#B9B8F1" d="M44.239,66.961h-0.385c-0.212,0-0.385-0.172-0.385-0.385s0.172-0.385,0.385-0.385
						c0-0.213,0.172-0.385,0.385-0.385c0.212,0,0.384,0.172,0.384,0.385v0.385C44.623,66.789,44.451,66.961,44.239,66.961z"/>
				</g>
			</g>
			<g>
				<g>
					<path fill="#B9B8F1" d="M42.333,66.961h-0.76c-0.213,0-0.385-0.172-0.385-0.385s0.172-0.385,0.385-0.385h0.76
						c0.213,0,0.385,0.172,0.385,0.385S42.546,66.961,42.333,66.961z M40.053,66.961h-0.76c-0.212,0-0.385-0.172-0.385-0.385
						s0.172-0.385,0.385-0.385h0.76c0.212,0,0.384,0.172,0.384,0.385S40.265,66.961,40.053,66.961z M37.772,66.961h-0.76
						c-0.212,0-0.385-0.172-0.385-0.385s0.173-0.385,0.385-0.385h0.76c0.212,0,0.384,0.172,0.384,0.385S37.984,66.961,37.772,66.961
						z M35.491,66.961h-0.76c-0.212,0-0.384-0.172-0.384-0.385s0.172-0.385,0.384-0.385h0.76c0.213,0,0.385,0.172,0.385,0.385
						S35.704,66.961,35.491,66.961z"/>
				</g>
			</g>
			<g>
				<g>
					<path fill="#B9B8F1" d="M33.211,66.961h-0.385c-0.212,0-0.385-0.172-0.385-0.385v-0.385c0-0.213,0.172-0.385,0.385-0.385
						s0.385,0.172,0.385,0.385c0.212,0,0.384,0.172,0.384,0.385S33.423,66.961,33.211,66.961z"/>
				</g>
			</g>
			<g>
				<g>
					<path fill="#B9B8F1" d="M32.826,65.056c-0.212,0-0.385-0.172-0.385-0.385v-0.76c0-0.213,0.172-0.385,0.385-0.385
						s0.385,0.172,0.385,0.385v0.76C33.211,64.884,33.039,65.056,32.826,65.056z M32.826,62.775c-0.212,0-0.385-0.172-0.385-0.385
						V61.63c0-0.212,0.172-0.385,0.385-0.385s0.385,0.173,0.385,0.385v0.761C33.211,62.604,33.039,62.775,32.826,62.775z
						 M32.826,60.494c-0.212,0-0.385-0.171-0.385-0.384v-0.76c0-0.212,0.172-0.385,0.385-0.385s0.385,0.173,0.385,0.385v0.76
						C33.211,60.323,33.039,60.494,32.826,60.494z M32.826,58.213c-0.212,0-0.385-0.171-0.385-0.385v-0.76
						c0-0.212,0.172-0.384,0.385-0.384s0.385,0.172,0.385,0.384v0.76C33.211,58.042,33.039,58.213,32.826,58.213z"/>
				</g>
			</g>
			<g>
				<g>
					<path fill="#B9B8F1" d="M32.826,55.933c-0.212,0-0.385-0.172-0.385-0.384v-0.385c0-0.212,0.172-0.385,0.385-0.385h0.385
						c0.212,0,0.384,0.172,0.384,0.385s-0.172,0.385-0.384,0.385C33.211,55.761,33.039,55.933,32.826,55.933z"/>
				</g>
			</g>
			<g>
				<g>
					<path fill="#B9B8F1" d="M42.333,55.548h-0.76c-0.213,0-0.385-0.172-0.385-0.385s0.172-0.385,0.385-0.385h0.76
						c0.213,0,0.385,0.172,0.385,0.385S42.546,55.548,42.333,55.548z M40.053,55.548h-0.76c-0.212,0-0.385-0.172-0.385-0.385
						s0.172-0.385,0.385-0.385h0.76c0.212,0,0.384,0.172,0.384,0.385S40.265,55.548,40.053,55.548z M37.772,55.548h-0.76
						c-0.212,0-0.385-0.172-0.385-0.385s0.173-0.385,0.385-0.385h0.76c0.212,0,0.384,0.172,0.384,0.385S37.984,55.548,37.772,55.548
						z M35.491,55.548h-0.76c-0.212,0-0.384-0.172-0.384-0.385s0.172-0.385,0.384-0.385h0.76c0.213,0,0.385,0.172,0.385,0.385
						S35.704,55.548,35.491,55.548z"/>
				</g>
			</g>
			<g>
				<g>
					<path fill="#B9B8F1" d="M44.239,55.933c-0.213,0-0.385-0.172-0.385-0.384c-0.212,0-0.385-0.172-0.385-0.385
						s0.172-0.385,0.385-0.385h0.385c0.212,0,0.384,0.172,0.384,0.385v0.385C44.623,55.761,44.451,55.933,44.239,55.933z"/>
				</g>
			</g>
			<g>
				<g>
					<path fill="#B9B8F1" d="M44.239,65.056c-0.213,0-0.385-0.172-0.385-0.385v-0.76c0-0.213,0.172-0.385,0.385-0.385
						c0.212,0,0.384,0.172,0.384,0.385v0.76C44.623,64.884,44.451,65.056,44.239,65.056z M44.239,62.775
						c-0.213,0-0.385-0.172-0.385-0.385V61.63c0-0.212,0.172-0.384,0.385-0.384c0.212,0,0.384,0.172,0.384,0.384v0.761
						C44.623,62.604,44.451,62.775,44.239,62.775z M44.239,60.495c-0.213,0-0.385-0.172-0.385-0.385v-0.761
						c0-0.212,0.172-0.385,0.385-0.385c0.212,0,0.384,0.173,0.384,0.385v0.761C44.623,60.323,44.451,60.495,44.239,60.495z
						 M44.239,58.213c-0.213,0-0.385-0.171-0.385-0.385v-0.76c0-0.212,0.172-0.384,0.385-0.384c0.212,0,0.384,0.172,0.384,0.384
						v0.76C44.623,58.042,44.451,58.213,44.239,58.213z"/>
				</g>
			</g>
		</g>
		<g>
			<g>
				<g>
					<path fill="#B9B8F1" d="M38.429,61.151h-0.385c-0.212,0-0.384-0.171-0.384-0.384c0-0.212,0.172-0.384,0.384-0.384
						c0-0.213,0.172-0.385,0.385-0.385c0.212,0,0.384,0.172,0.384,0.385v0.384C38.813,60.98,38.642,61.151,38.429,61.151z"/>
				</g>
			</g>
			<g>
				<g>
					<path fill="#B9B8F1" d="M36.524,61.151h-0.76c-0.213,0-0.385-0.171-0.385-0.384c0-0.212,0.172-0.384,0.385-0.384h0.76
						c0.213,0,0.385,0.172,0.385,0.384C36.909,60.98,36.737,61.151,36.524,61.151z M34.244,61.151h-0.76
						c-0.212,0-0.385-0.171-0.385-0.384c0-0.212,0.172-0.384,0.385-0.384h0.76c0.212,0,0.385,0.172,0.385,0.384
						C34.628,60.98,34.456,61.151,34.244,61.151z M31.963,61.151h-0.76c-0.213,0-0.385-0.171-0.385-0.384
						c0-0.212,0.172-0.384,0.385-0.384h0.76c0.213,0,0.385,0.172,0.385,0.384C32.348,60.98,32.176,61.151,31.963,61.151z
						 M29.682,61.151h-0.759c-0.212,0-0.385-0.171-0.385-0.384c0-0.212,0.172-0.384,0.385-0.384h0.759
						c0.213,0,0.385,0.172,0.385,0.384C30.066,60.98,29.895,61.151,29.682,61.151z"/>
				</g>
			</g>
			<g>
				<g>
					<path fill="#B9B8F1" d="M27.401,61.151h-0.385c-0.212,0-0.385-0.171-0.385-0.384v-0.384c0-0.213,0.172-0.385,0.385-0.385
						s0.385,0.172,0.385,0.385c0.212,0,0.384,0.172,0.384,0.384C27.786,60.98,27.614,61.151,27.401,61.151z"/>
				</g>
			</g>
			<g>
				<g>
					<path fill="#B9B8F1" d="M27.017,59.247c-0.212,0-0.385-0.173-0.385-0.385v-0.76c0-0.213,0.172-0.385,0.385-0.385
						s0.385,0.171,0.385,0.385v0.76C27.401,59.074,27.229,59.247,27.017,59.247z M27.017,56.966c-0.212,0-0.385-0.173-0.385-0.385
						v-0.761c0-0.212,0.172-0.385,0.385-0.385s0.385,0.172,0.385,0.385v0.761C27.401,56.793,27.229,56.966,27.017,56.966z
						 M27.017,54.685c-0.212,0-0.385-0.172-0.385-0.385v-0.76c0-0.212,0.172-0.384,0.385-0.384s0.385,0.172,0.385,0.384v0.76
						C27.401,54.513,27.229,54.685,27.017,54.685z M27.017,52.404c-0.212,0-0.385-0.172-0.385-0.384v-0.76
						c0-0.212,0.172-0.385,0.385-0.385s0.385,0.172,0.385,0.385v0.76C27.401,52.232,27.229,52.404,27.017,52.404z"/>
				</g>
			</g>
			<g>
				<g>
					<path fill="#B9B8F1" d="M27.017,50.123c-0.212,0-0.385-0.171-0.385-0.384v-0.385c0-0.212,0.172-0.385,0.385-0.385h0.385
						c0.212,0,0.384,0.173,0.384,0.385c0,0.213-0.172,0.385-0.384,0.385C27.401,49.952,27.229,50.123,27.017,50.123z"/>
				</g>
			</g>
			<g>
				<g>
					<path fill="#B9B8F1" d="M36.524,49.739h-0.76c-0.213,0-0.385-0.171-0.385-0.385c0-0.212,0.172-0.385,0.385-0.385h0.76
						c0.213,0,0.385,0.173,0.385,0.385C36.909,49.567,36.737,49.739,36.524,49.739z M34.244,49.739h-0.76
						c-0.212,0-0.385-0.171-0.385-0.385c0-0.212,0.172-0.385,0.385-0.385h0.76c0.212,0,0.385,0.173,0.385,0.385
						C34.628,49.567,34.456,49.739,34.244,49.739z M31.963,49.739h-0.76c-0.213,0-0.385-0.171-0.385-0.385
						c0-0.212,0.172-0.385,0.385-0.385h0.76c0.213,0,0.385,0.173,0.385,0.385C32.348,49.567,32.176,49.739,31.963,49.739z
						 M29.682,49.739h-0.759c-0.212,0-0.385-0.171-0.385-0.385c0-0.212,0.172-0.385,0.385-0.385h0.759
						c0.213,0,0.385,0.173,0.385,0.385C30.066,49.567,29.895,49.739,29.682,49.739z"/>
				</g>
			</g>
			<g>
				<g>
					<path fill="#B9B8F1" d="M38.429,50.123c-0.213,0-0.385-0.171-0.385-0.384c-0.212,0-0.384-0.171-0.384-0.385
						c0-0.212,0.172-0.385,0.384-0.385h0.385c0.212,0,0.384,0.173,0.384,0.385v0.385C38.813,49.952,38.642,50.123,38.429,50.123z"/>
				</g>
			</g>
			<g>
				<g>
					<path fill="#B9B8F1" d="M38.429,59.247c-0.213,0-0.385-0.173-0.385-0.385v-0.76c0-0.213,0.172-0.385,0.385-0.385
						c0.212,0,0.384,0.171,0.384,0.385v0.76C38.813,59.074,38.642,59.247,38.429,59.247z M38.429,56.966
						c-0.213,0-0.385-0.173-0.385-0.385v-0.76c0-0.213,0.172-0.385,0.385-0.385c0.212,0,0.384,0.171,0.384,0.385v0.76
						C38.813,56.793,38.642,56.966,38.429,56.966z M38.429,54.686c-0.213,0-0.385-0.173-0.385-0.385V53.54
						c0-0.212,0.172-0.384,0.385-0.384c0.212,0,0.384,0.172,0.384,0.384v0.761C38.813,54.513,38.642,54.686,38.429,54.686z
						 M38.429,52.404c-0.213,0-0.385-0.172-0.385-0.384v-0.76c0-0.212,0.172-0.385,0.385-0.385c0.212,0,0.384,0.172,0.384,0.385
						v0.76C38.813,52.232,38.642,52.404,38.429,52.404z"/>
				</g>
			</g>
		</g>
	</g>
	<g>
		<g>
			<g>
				<path fill="#566CD3" d="M90.456,74.882c-0.213,0-0.385-0.172-0.385-0.385v-0.385c0-0.213,0.172-0.385,0.385-0.385h0.384
					c0.213,0,0.385,0.172,0.385,0.385s-0.172,0.385-0.385,0.385C90.84,74.71,90.668,74.882,90.456,74.882z"/>
			</g>
		</g>
		<g>
			<g>
				<path fill="#566CD3" d="M90.456,77.695c-0.213,0-0.385-0.173-0.385-0.385v-0.938c0-0.213,0.172-0.385,0.385-0.385
					c0.212,0,0.384,0.172,0.384,0.385v0.938C90.84,77.522,90.668,77.695,90.456,77.695z"/>
			</g>
		</g>
		<g>
			<g>
				<path fill="#566CD3" d="M90.84,79.956h-0.384c-0.213,0-0.385-0.172-0.385-0.385v-0.385c0-0.213,0.172-0.385,0.385-0.385
					c0.212,0,0.384,0.172,0.384,0.385c0.213,0,0.385,0.172,0.385,0.385S91.053,79.956,90.84,79.956z"/>
			</g>
		</g>
		<g>
			<g>
				<path fill="#566CD3" d="M94.795,79.956h-0.659c-0.213,0-0.385-0.172-0.385-0.385s0.172-0.385,0.385-0.385h0.659
					c0.212,0,0.385,0.172,0.385,0.385S95.007,79.956,94.795,79.956z M92.817,79.956h-0.659c-0.212,0-0.384-0.172-0.384-0.385
					s0.172-0.385,0.384-0.385h0.659c0.213,0,0.385,0.172,0.385,0.385S93.03,79.956,92.817,79.956z"/>
			</g>
		</g>
		<g>
			<g>
				<path fill="#566CD3" d="M96.497,79.956h-0.385c-0.212,0-0.384-0.172-0.384-0.385s0.172-0.385,0.384-0.385
					c0-0.213,0.173-0.385,0.385-0.385c0.213,0,0.385,0.172,0.385,0.385v0.385C96.882,79.784,96.71,79.956,96.497,79.956z"/>
			</g>
		</g>
		<g>
			<g>
				<path fill="#566CD3" d="M96.497,77.695c-0.212,0-0.385-0.172-0.385-0.385v-0.938c0-0.213,0.173-0.384,0.385-0.384
					c0.213,0,0.385,0.171,0.385,0.384v0.938C96.882,77.523,96.71,77.695,96.497,77.695z"/>
			</g>
		</g>
		<g>
			<g>
				<path fill="#566CD3" d="M96.497,74.882c-0.212,0-0.385-0.172-0.385-0.385c-0.212,0-0.384-0.172-0.384-0.385
					s0.172-0.385,0.384-0.385h0.385c0.213,0,0.385,0.172,0.385,0.385v0.385C96.882,74.71,96.71,74.882,96.497,74.882z"/>
			</g>
		</g>
		<g>
			<g>
				<path fill="#566CD3" d="M94.794,74.497h-0.658c-0.213,0-0.385-0.172-0.385-0.385s0.172-0.385,0.385-0.385h0.658
					c0.213,0,0.385,0.172,0.385,0.385S95.007,74.497,94.794,74.497z M92.817,74.497h-0.659c-0.212,0-0.384-0.172-0.384-0.385
					s0.172-0.385,0.384-0.385h0.659c0.213,0,0.385,0.172,0.385,0.385S93.03,74.497,92.817,74.497z"/>
			</g>
		</g>
	</g>
	<g>
		<g>
			<g>
				<path fill="#566CD3" d="M106.765,75.962h-0.77V57.753c0-3.213-2.615-5.828-5.828-5.828h-6.469v-0.769h6.469
					c3.637,0,6.598,2.959,6.598,6.597V75.962z"/>
			</g>
		</g>
		<g>
			<g>
				<path fill="#FFFFFF" d="M106.484,87.915h-0.21c-2.099,0-3.8-1.701-3.8-3.799v-4.354c0-2.099,1.701-3.8,3.8-3.8h0.21
					c2.099,0,3.799,1.701,3.799,3.8v4.354C110.283,86.214,108.583,87.915,106.484,87.915z"/>
			</g>
		</g>
		<g>
			<g>
				<path fill="#B9B8F1" d="M107.942,76.253v6.076c0,3.517-5.438,3.525-5.468,0.027v1.76c0,2.098,1.701,3.799,3.8,3.799h0.21
					c2.098,0,3.799-1.701,3.799-3.799v-4.354C110.283,78.18,109.316,76.825,107.942,76.253z"/>
			</g>
		</g>
		<g>
			<g>
				<path fill="#E5E9FF" d="M106.38,79.696c-0.377,0-0.684-0.307-0.684-0.684v-1.07c0-0.377,0.307-0.683,0.684-0.683
					c0.376,0,0.683,0.306,0.683,0.683v1.07C107.063,79.39,106.756,79.696,106.38,79.696z"/>
			</g>
		</g>
	</g>
	<g>
		<g>
			<g>
				
					<rect x="98.262" y="81.545" transform="matrix(0.7071 0.7071 -0.7071 0.7071 87.7722 -46.1186)" fill="#B9B8F1" width="2.588" height="2.692"/>
			</g>
		</g>
		<g>
			<g>
				<g>
					<polygon fill="#B9B8F1" points="97.164,84.676 95.637,78.971 101.341,80.499 					"/>
				</g>
			</g>
		</g>
	</g>
	<g>
		<g>
			<g>
				<g>
					<path fill="#566CD3" d="M102.055,61.514h-0.769v-1.882c0-0.212,0.172-0.384,0.385-0.384h1.826v0.769h-1.442V61.514z"/>
				</g>
			</g>
			<g>
				<g>
					<path fill="#566CD3" d="M111.478,61.514h-0.769v-1.498h-1.442v-0.769h1.826c0.213,0,0.385,0.172,0.385,0.384V61.514z"/>
				</g>
			</g>
		</g>
		<g>
			<g>
				<g>
					<path fill="#566CD3" d="M111.093,69.742h-1.826v-0.77h1.442v-1.497h0.769v1.882C111.478,69.57,111.306,69.742,111.093,69.742z"
						/>
				</g>
			</g>
			<g>
				<g>
					<path fill="#566CD3" d="M103.497,69.742h-1.826c-0.213,0-0.385-0.172-0.385-0.385v-1.882h0.769v1.497h1.442V69.742z"/>
				</g>
			</g>
		</g>
	</g>
	<g>
		<g>
			<g>
				<path fill="#FFFFFF" d="M40.539,87.915L40.539,87.915c1.201,0,2.174-0.975,2.174-2.175V73.882c0-1.201-0.973-2.175-2.174-2.175
					l0,0c-1.201,0-2.175,0.974-2.175,2.175V85.74C38.364,86.94,39.337,87.915,40.539,87.915z"/>
			</g>
			<g>
				<circle fill="#566CD3" cx="40.539" cy="85.973" r="0.735"/>
			</g>
		</g>
		<g>
			<g>
				<path fill="#FFFFFF" d="M41.625,87.623L41.625,87.623c1.04-0.601,1.396-1.931,0.796-2.971l-5.93-10.27
					c-0.6-1.04-1.93-1.396-2.97-0.796l0,0c-1.041,0.601-1.397,1.931-0.796,2.971l5.929,10.27
					C39.255,87.868,40.585,88.224,41.625,87.623z"/>
			</g>
			<g>
				<path fill="#566CD3" d="M37.653,85.092l-4.928-8.534c-0.601-1.04-0.244-2.37,0.796-2.971l0,0c1.04-0.601,2.37-0.244,2.97,0.796
					l4.928,8.535L37.653,85.092z"/>
			</g>
			<g>
				<circle fill="#566CD3" cx="40.654" cy="85.941" r="0.736"/>
			</g>
		</g>
		<g>
			<g>
				<path fill="#FFFFFF" d="M42.421,86.827L42.421,86.827c0.601-1.04,0.244-2.369-0.796-2.971l-10.27-5.929
					c-1.04-0.601-2.37-0.244-2.971,0.795l0,0c-0.601,1.041-0.244,2.371,0.796,2.972l10.27,5.929
					C40.491,88.224,41.821,87.868,42.421,86.827z"/>
			</g>
			<g>
				<path fill="#B9B8F1" d="M37.715,86.622l-8.535-4.928c-1.04-0.601-1.396-1.931-0.796-2.972l0,0
					c0.601-1.039,1.931-1.396,2.971-0.795l8.535,4.927L37.715,86.622z"/>
			</g>
			<g>
				<circle fill="#566CD3" cx="40.739" cy="85.856" r="0.736"/>
			</g>
		</g>
		<g>
			<g>
				<path fill="#FFFFFF" d="M42.713,85.74L42.713,85.74c0-1.201-0.973-2.175-2.174-2.175H28.68c-1.201,0-2.175,0.974-2.175,2.175
					l0,0c0,1.2,0.974,2.175,2.175,2.175h11.859C41.74,87.915,42.713,86.94,42.713,85.74z"/>
			</g>
			<g>
				<path fill="#2143AF" d="M38.535,87.915H28.68c-1.201,0-2.175-0.975-2.175-2.175l0,0c0-1.201,0.974-2.175,2.175-2.175h9.855
					V87.915z"/>
			</g>
			<g>
				<circle fill="#566CD3" cx="40.771" cy="85.74" r="0.736"/>
			</g>
		</g>
	</g>
	<g>
		<g>
			<g>
				<g>
					<path fill="#2143AF" d="M91.895,71.44H45.959c-2.227,0-4.031-1.804-4.031-4.03V38.657c0-2.226,1.804-4.031,4.031-4.031h45.935
						c2.226,0,4.03,1.805,4.03,4.031V67.41C95.925,69.637,94.12,71.44,91.895,71.44z"/>
				</g>
			</g>
			<g>
				<rect x="52.243" y="39.312" fill="#566CD3" width="38.997" height="27.444"/>
			</g>
			<g>
				<circle fill="#F7B75D" cx="47.294" cy="59.81" r="1.844"/>
			</g>
			<g>
				<circle fill="#FFFFFF" cx="47.294" cy="64.494" r="1.844"/>
			</g>
			<g>
				<circle fill="#F7B75D" cx="47.294" cy="46.416" r="1.844"/>
			</g>
			<g>
				<circle fill="#FFFFFF" cx="47.294" cy="41.729" r="1.844"/>
			</g>
		</g>
	</g>
	<g>
		<g>
			<circle fill="#121F55" cx="74.504" cy="53.045" r="10.31"/>
		</g>
		<g>
			<circle fill="#FFFFFF" cx="77.406" cy="53.045" r="10.311"/>
		</g>
		<g>
			<path fill="#FFFFFF" d="M85.608,51.853h6.06c-0.447,0-0.854,0.187-1.147,0.499c-0.295,0.313-0.477,0.681-0.477,1.157
				c0,0.953,0.728,1.662,1.624,1.662h-6.06c0.447,0,0.854-0.134,1.147-0.444c0.293-0.311,0.475-0.708,0.475-1.184
				C87.23,52.587,86.505,51.853,85.608,51.853z"/>
		</g>
		<g>
			<path fill="#FFFFFF" d="M84.279,48.69h8.698c0.896,0,1.623,0.727,1.623,1.624l0,0c0,0.897-0.728,1.624-1.623,1.624h-8.698
				c-0.897,0-1.624-0.727-1.624-1.624l0,0C82.655,49.417,83.382,48.69,84.279,48.69z"/>
		</g>
		<g>
			<path fill="#FFFFFF" d="M83.017,44.111h3.998c0.896,0,1.623,0.727,1.623,1.624l0,0c0,0.896-0.727,1.623-1.623,1.623h-3.998
				c-0.896,0-1.623-0.727-1.623-1.623l0,0C81.394,44.838,82.12,44.111,83.017,44.111z"/>
		</g>
		<g>
			<path fill="#FFFFFF" d="M82.194,55.091h12.888c0.581,0,1.053,0.472,1.053,1.053l0,0c0,0.581-0.472,1.052-1.053,1.052H82.194
				c-0.581,0-1.053-0.471-1.053-1.052l0,0C81.142,55.563,81.613,55.091,82.194,55.091z"/>
		</g>
		<g>
			<path fill="#FFFFFF" d="M83.891,59.269h5.032c0.408,0,0.739,0.332,0.739,0.739l0,0c0,0.408-0.331,0.739-0.739,0.739h-5.032
				c-0.409,0-0.739-0.332-0.739-0.739l0,0C83.151,59.6,83.481,59.269,83.891,59.269z"/>
		</g>
		<g>
			<path fill="#FFFFFF" d="M91.444,46.473h2.712c0.409,0,0.739,0.332,0.739,0.739l0,0c0,0.408-0.33,0.739-0.739,0.739h-2.712
				c-0.409,0-0.739-0.332-0.739-0.739l0,0C90.705,46.805,91.035,46.473,91.444,46.473z"/>
		</g>
		<g>
			<path fill="#FFFFFF" d="M94.401,52.345h2.197c0.33,0,0.598,0.268,0.598,0.598l0,0c0,0.331-0.268,0.599-0.598,0.599h-2.197
				c-0.33,0-0.598-0.269-0.598-0.599l0,0C93.804,52.613,94.071,52.345,94.401,52.345z"/>
		</g>
	</g>
	<g>
		<g>
			<g>
				<g>
					<rect x="46.747" y="82.088" fill="#F7B75D" width="44.505" height="5.827"/>
				</g>
			</g>
		</g>
		<g>
			<g>
				<g>
					<rect x="47.799" y="82.088" fill="#566CD3" width="0.769" height="2.913"/>
				</g>
			</g>
			<g>
				<g>
					<rect x="49.435" y="82.088" fill="#566CD3" width="0.769" height="1.665"/>
				</g>
			</g>
			<g>
				<g>
					<rect x="50.661" y="82.088" fill="#566CD3" width="0.769" height="2.913"/>
				</g>
			</g>
			<g>
				<g>
					<rect x="52.296" y="82.088" fill="#566CD3" width="0.769" height="1.665"/>
				</g>
			</g>
			<g>
				<g>
					<rect x="53.933" y="82.088" fill="#566CD3" width="0.769" height="2.913"/>
				</g>
			</g>
			<g>
				<g>
					<rect x="55.159" y="82.088" fill="#566CD3" width="0.769" height="1.665"/>
				</g>
			</g>
			<g>
				<g>
					<rect x="56.795" y="82.088" fill="#566CD3" width="0.77" height="2.913"/>
				</g>
			</g>
			<g>
				<g>
					<rect x="58.431" y="82.088" fill="#566CD3" width="0.769" height="1.665"/>
				</g>
			</g>
			<g>
				<g>
					<rect x="59.657" y="82.088" fill="#566CD3" width="0.769" height="2.913"/>
				</g>
			</g>
			<g>
				<g>
					<rect x="61.292" y="82.088" fill="#566CD3" width="0.769" height="1.665"/>
				</g>
			</g>
			<g>
				<g>
					<rect x="62.519" y="82.088" fill="#566CD3" width="0.769" height="2.913"/>
				</g>
			</g>
			<g>
				<g>
					<rect x="64.155" y="82.088" fill="#566CD3" width="0.769" height="1.665"/>
				</g>
			</g>
			<g>
				<g>
					<rect x="65.791" y="82.088" fill="#566CD3" width="0.769" height="2.913"/>
				</g>
			</g>
			<g>
				<g>
					<rect x="67.017" y="82.088" fill="#566CD3" width="0.769" height="1.665"/>
				</g>
			</g>
			<g>
				<g>
					<rect x="68.653" y="82.088" fill="#566CD3" width="0.77" height="2.913"/>
				</g>
			</g>
			<g>
				<g>
					<rect x="70.289" y="82.088" fill="#566CD3" width="0.769" height="1.665"/>
				</g>
			</g>
			<g>
				<g>
					<rect x="71.515" y="82.088" fill="#566CD3" width="0.77" height="2.913"/>
				</g>
			</g>
			<g>
				<g>
					<rect x="73.15" y="82.088" fill="#566CD3" width="0.77" height="1.665"/>
				</g>
			</g>
			<g>
				<g>
					<rect x="74.786" y="82.088" fill="#566CD3" width="0.77" height="2.913"/>
				</g>
			</g>
			<g>
				<g>
					<rect x="76.013" y="82.088" fill="#566CD3" width="0.77" height="1.665"/>
				</g>
			</g>
			<g>
				<g>
					<rect x="77.648" y="82.088" fill="#566CD3" width="0.769" height="2.913"/>
				</g>
			</g>
			<g>
				<g>
					<rect x="78.875" y="82.088" fill="#566CD3" width="0.77" height="1.665"/>
				</g>
			</g>
			<g>
				<g>
					<rect x="80.51" y="82.088" fill="#566CD3" width="0.77" height="2.913"/>
				</g>
			</g>
			<g>
				<g>
					<rect x="82.146" y="82.088" fill="#566CD3" width="0.769" height="1.665"/>
				</g>
			</g>
			<g>
				<g>
					<rect x="83.373" y="82.088" fill="#566CD3" width="0.77" height="2.913"/>
				</g>
			</g>
			<g>
				<g>
					<rect x="85.008" y="82.088" fill="#566CD3" width="0.77" height="1.665"/>
				</g>
			</g>
			<g>
				<g>
					<rect x="86.645" y="82.088" fill="#566CD3" width="0.769" height="2.913"/>
				</g>
			</g>
			<g>
				<g>
					<rect x="87.871" y="82.088" fill="#566CD3" width="0.769" height="1.665"/>
				</g>
			</g>
			<g>
				<g>
					<rect x="89.506" y="82.088" fill="#566CD3" width="0.77" height="2.913"/>
				</g>
			</g>
		</g>
	</g>
	<g>
		<g>
			<g>
				<path fill="#8EDEF2" d="M57.298,28.407l0.799,3.061l2.621,1.092l-0.371,0.887l-2.84-1.184c-0.138-0.059-0.242-0.177-0.279-0.322
					l-0.86-3.291c-0.066-0.254,0.085-0.514,0.34-0.581l0.009-0.002C56.972,28.001,57.231,28.153,57.298,28.407z"/>
			</g>
		</g>
		<g>
			<g>
				<path fill="#121F55" d="M59.705,37.044c0,0,0.094-0.13,0.255-0.363c0.159-0.232,0.393-0.562,0.662-0.963
					c0.271-0.4,0.583-0.871,0.912-1.377c0.165-0.253,0.334-0.516,0.506-0.781l0.065-0.1l0.032-0.05c0.014-0.025,0.007,0,0.07-0.125
					c0.092-0.188,0.115-0.433,0.056-0.639c-0.057-0.209-0.181-0.388-0.358-0.515c-0.176-0.126-0.4-0.197-0.653-0.167l-0.015,0.001
					l-0.003,0l-0.061,0.01l-0.007,0.001l-0.03,0.005l-0.06,0.011l-0.237,0.045c-0.632,0.119-1.266,0.24-1.857,0.359
					c-0.296,0.061-0.582,0.118-0.853,0.174c-0.271,0.056-0.527,0.11-0.763,0.16c-0.473,0.101-0.865,0.192-1.14,0.253
					c-0.275,0.063-0.431,0.101-0.431,0.101c-0.388,0.096-0.645,0.477-0.577,0.877c0.071,0.42,0.47,0.702,0.89,0.631
					c0,0,0.158-0.027,0.436-0.079c0.276-0.054,0.673-0.125,1.146-0.221c0.236-0.048,0.493-0.1,0.764-0.155
					c0.271-0.057,0.556-0.117,0.852-0.179c0.291-0.063,0.59-0.127,0.895-0.195c-0.259,0.46-0.497,0.893-0.702,1.271
					c-0.233,0.424-0.417,0.783-0.551,1.032c-0.131,0.25-0.204,0.394-0.204,0.394c-0.122,0.244-0.053,0.545,0.174,0.709
					C59.169,37.354,59.521,37.297,59.705,37.044z"/>
			</g>
		</g>
		<g id="_x38_._Right_shoe_246_">
			<g>
				<g>
					<circle fill="#F7B75D" cx="59.174" cy="36.578" r="0.771"/>
				</g>
			</g>
			<g>
				<g>
					<path fill="#F7B75D" d="M60.242,39.421l-1.689-2.386c-0.179-0.252-0.119-0.602,0.133-0.78l0,0
						c0.252-0.178,1.035-0.241,1.214,0.012l0.952,2.791c0.105,0.308-0.218,0.608-0.505,0.453
						C60.305,39.488,60.269,39.459,60.242,39.421z"/>
				</g>
			</g>
			<g>
				<g>
					<path fill="#FFFFFF" d="M60.065,37.331L60.065,37.331c0.01-0.082,0.092-0.132,0.169-0.107l0.284,0.092
						c0.06,0.019,0.097,0.077,0.089,0.139l0,0c-0.01,0.082-0.091,0.133-0.169,0.107l-0.284-0.091
						C60.094,37.452,60.058,37.393,60.065,37.331z"/>
				</g>
			</g>
			<g>
				<g>
					<path fill="#FFFFFF" d="M60.014,37.747L60.014,37.747c0.01-0.081,0.091-0.132,0.169-0.107l0.284,0.092
						c0.06,0.019,0.097,0.078,0.089,0.14l0,0c-0.01,0.081-0.091,0.132-0.168,0.107l-0.285-0.092
						C60.043,37.868,60.006,37.81,60.014,37.747z"/>
				</g>
			</g>
			<g>
				<g>
					<circle fill="#2747B3" cx="59.175" cy="36.579" r="0.463"/>
				</g>
			</g>
		</g>
		<g>
			<g>
				<path fill="#2747B3" d="M55.864,26.438l-0.085,0.636l-0.14-0.044c-0.106-0.035-0.179-0.134-0.179-0.245l0,0
					c0-0.076-0.033-0.147-0.09-0.196l-0.359-0.367c-0.149-0.153-0.254-0.346-0.287-0.558c-0.025-0.158-0.014-0.331,0.088-0.463
					c0.142-0.184-0.34-0.689,0.002-1.114c0.155-0.192,0.398-0.332,0.498-0.538c0.334-0.688,0.836-0.634,1.188-0.387
					c0.313,0.22,0.449-0.226,1.063-0.149c0.478,0.059,0.669,0.401,0.63,0.685c0,0,0.814,0.032,0.814,0.942
					c0,0.912-0.961,1.024-0.961,1.024L55.864,26.438z"/>
			</g>
		</g>
		<g>
			<g>
				<polygon fill="#F99AB6" points="56.854,25.754 56.719,27.293 56.629,28.299 55.451,28.195 55.719,25.74 55.796,25.042 				"/>
			</g>
		</g>
		<g>
			<g>
				<g>
					<path fill="#F99AB6" d="M55.918,26.522v0.246c0.191,0.242,0.494,0.427,0.8,0.525l0.067-0.771H55.918z"/>
				</g>
			</g>
		</g>
		<g>
			<g>
				<path fill="#F99AB6" d="M57.174,27.241h0.191c0.417,0,0.906-0.81,0.906-1.228c0-0.499-0.042-0.75,0-1.086
					c0.059-0.461-0.376-0.841-0.841-0.841h-0.941c-0.354,0-0.642,0.287-0.642,0.641v1.527
					C55.847,26.799,56.628,27.241,57.174,27.241z"/>
			</g>
		</g>
		<g>
			<g>
				<path fill="#2747B3" d="M57.29,24.086c0,0,0.085,0.695-1.09,0.653c0,0,0.035,1.373-0.583,1.472l-0.109-0.462
					c0,0-0.255-1.507,0.315-1.762C56.393,23.732,57.29,24.086,57.29,24.086z"/>
			</g>
		</g>
		<g>
			<g>
				<path fill="#F99AB6" d="M55.224,27.54c0.129-0.079,0.286-0.115,0.447-0.089l0.52,0.082c0.252,0.039,0.48,0.14,0.67,0.283
					C56.313,27.952,55.663,27.872,55.224,27.54z"/>
			</g>
		</g>
		<g>
			<g>
				<path fill="#8EDEF2" d="M54.401,28.464c0.043-0.408,0.425-0.804,0.822-0.924c0.439,0.332,1.09,0.412,1.637,0.276
					c0.428,0.323,0.669,0.865,0.58,1.433l-0.551,3.112l-2.808-0.381C54.081,31.979,54.3,29.394,54.401,28.464z"/>
			</g>
		</g>
		<g>
			<g>
				<path fill="#121F55" d="M64.783,37.379c0,0-0.107-0.121-0.301-0.329c-0.194-0.206-0.468-0.505-0.804-0.854
					c-0.334-0.352-2.185-2.225-2.185-2.225l-0.042-0.038c-0.028-0.025-0.057-0.048-0.087-0.071c-0.06-0.046-0.123-0.087-0.188-0.124
					c-0.131-0.075-0.273-0.131-0.42-0.166c-0.037-0.009-0.074-0.017-0.111-0.023c-0.017-0.003-3.155-0.296-3.424-0.362
					c-0.477-0.116-0.3-1.011-0.3-1.011l-2.82-0.433c-0.021,0.403-0.281,0.795-0.352,1.059c-0.113,0.42-0.044,0.848,0.158,1.198
					s0.536,0.624,0.958,0.737c0.207,0.055,0.414,0.067,0.613,0.041c0.075,0.006,0.189,0.017,0.338,0.029
					c0.282,0.02,0.685,0.055,1.169,0.087c0.242,0.015,0.504,0.032,0.781,0.05c0.277,0.016,0.57,0.033,0.873,0.049
					c0.302,0.016,0.615,0.032,0.933,0.048c0.275,0.012,0.554,0.024,0.833,0.036c0.011,0.001,0.021,0.005,0.031,0.008
					c0.005,0.001,0.01,0.004,0.016,0.006l0.007,0.004c0.001,0,0.002,0.001,0.003,0.002l0.002,0l0.01,0.009
					c0.119,0.108,0.238,0.216,0.356,0.323c0.237,0.213,0.47,0.422,0.696,0.625c0.451,0.404,0.877,0.777,1.245,1.094
					c0.367,0.319,0.678,0.577,0.894,0.761c0.216,0.182,0.342,0.285,0.342,0.285c0.211,0.171,0.521,0.169,0.73-0.018
					C64.971,37.968,64.991,37.611,64.783,37.379z"/>
			</g>
		</g>
		<g id="_x38_._Right_shoe_245_">
			<g>
				<g>
					<circle fill="#F7B75D" cx="64.505" cy="37.972" r="0.771"/>
				</g>
			</g>
			<g>
				<g>
					<path fill="#F7B75D" d="M67.535,37.779l-2.774,0.92c-0.293,0.098-0.609-0.062-0.707-0.355l0,0
						c-0.098-0.293,0.072-1.06,0.365-1.157l2.947-0.098c0.324-0.011,0.518,0.386,0.287,0.615
						C67.618,37.739,67.58,37.765,67.535,37.779z"/>
				</g>
			</g>
			<g>
				<g>
					<path fill="#FFFFFF" d="M65.381,37.509L65.381,37.509c-0.082,0-0.144-0.074-0.127-0.154l0.056-0.294
						c0.012-0.061,0.065-0.106,0.128-0.106l0,0c0.082,0,0.143,0.075,0.127,0.155l-0.057,0.294
						C65.497,37.464,65.443,37.509,65.381,37.509z"/>
				</g>
			</g>
			<g>
				<g>
					<path fill="#FFFFFF" d="M65.8,37.509L65.8,37.509c-0.082,0-0.143-0.074-0.128-0.154l0.056-0.294
						c0.012-0.061,0.065-0.106,0.128-0.106l0,0c0.082,0,0.144,0.075,0.128,0.155l-0.057,0.294
						C65.917,37.464,65.862,37.509,65.8,37.509z"/>
				</g>
			</g>
			<g>
				<g>
					<circle fill="#2747B3" cx="64.505" cy="37.972" r="0.463"/>
				</g>
			</g>
		</g>
		<g>
			<g>
				<path fill="#FFFEFF" d="M56.927,26.49c0.038,0.201,0.213,0.354,0.426,0.354c0.212,0,0.388-0.153,0.426-0.354H56.927z"/>
			</g>
		</g>
		<g>
			<g>
				<path fill="#F99AB6" d="M62.322,32.083c-0.201-0.032-0.374-0.133-0.497-0.276l0.194-1.243c0.161-0.098,0.356-0.143,0.557-0.111
					c0.45,0.07,0.758,0.492,0.688,0.942C63.194,31.845,62.772,32.153,62.322,32.083z"/>
			</g>
		</g>
		<g>
			<g>
				<path fill="#8EDEF2" d="M54.484,32.158c-0.113-0.038-0.208-0.117-0.267-0.223c-0.063-0.113-0.077-0.249-0.038-0.373l1.08-3.51
					l0.918,0.283l-0.934,3.036l2.272,0.619l-0.252,0.927l-2.751-0.75C54.502,32.165,54.493,32.161,54.484,32.158z"/>
			</g>
		</g>
		<g>
			<g>
				
					<rect x="53.189" y="29.881" transform="matrix(-0.2723 0.9622 -0.9622 -0.2723 98.3781 -14.5)" fill="#61C8E0" width="2.966" height="0.137"/>
			</g>
		</g>
		<g>
			<g>
				<polygon fill="#61C8E0" points="55.469,30.527 55.942,28.842 56.106,28.864 55.632,30.548 				"/>
			</g>
		</g>
		<g>
			<g>
				<path fill="#F99AB6" d="M58.67,32.365c0.027,0.202-0.021,0.396-0.124,0.555l-1.247,0.167c-0.14-0.126-0.237-0.301-0.265-0.502
					c-0.06-0.452,0.257-0.867,0.708-0.927C58.194,31.597,58.61,31.914,58.67,32.365z"/>
			</g>
		</g>
		<g>
			<g>
				<path fill="#121F55" d="M56.444,32.986c0-0.113,0.092-0.205,0.206-0.205h7.451c0.156,0,0.284,0.092,0.284,0.205
					c0,0.114-0.127,0.206-0.284,0.206H56.65C56.537,33.192,56.444,33.1,56.444,32.986L56.444,32.986z"/>
			</g>
			<g>
				<path fill="#FFFFFF" d="M56.152,32.986c0,0.114,0.1,0.206,0.221,0.206h2.83c0.122,0,0.221-0.092,0.221-0.206
					c0-0.113-0.1-0.205-0.221-0.205h-2.83C56.252,32.781,56.152,32.874,56.152,32.986z"/>
			</g>
			<g>
				<path fill="#FFFFFF" d="M64.374,28.925v3.757c0,0.167-0.136,0.304-0.303,0.304h-4.957c-0.167,0-0.304-0.136-0.304-0.304v-3.757
					c0-0.167,0.136-0.304,0.304-0.304h4.957C64.238,28.622,64.374,28.758,64.374,28.925z"/>
			</g>
			<g>
				<path fill="#2143AF" d="M64.604,28.925v3.757c0,0.167-0.135,0.304-0.303,0.304h-4.957c-0.167,0-0.304-0.136-0.304-0.304v-3.757
					c0-0.167,0.136-0.304,0.304-0.304h4.957C64.469,28.622,64.604,28.758,64.604,28.925z"/>
			</g>
			<g>
				<path fill="#FFFFFF" d="M61.005,30.804L61.005,30.804c0-0.177,0.143-0.319,0.319-0.319h0.996c0.176,0,0.32,0.143,0.32,0.319l0,0
					c0,0.176-0.144,0.319-0.32,0.319h-0.996C61.148,31.123,61.005,30.98,61.005,30.804z"/>
			</g>
		</g>
	</g>
	<g>
		<g id="_x38_._Right_shoe_242_">
			<g>
				<g>
					<circle fill="#2143AF" cx="44.111" cy="85.518" r="0.844"/>
				</g>
			</g>
			<g>
				<g>
					<path fill="#2143AF" d="M40.792,85.447l3.073,0.878c0.325,0.092,0.664-0.097,0.756-0.421l0,0
						c0.092-0.324-0.128-1.154-0.452-1.247l-3.223,0.029c-0.355,0.004-0.548,0.445-0.285,0.686
						C40.701,85.407,40.744,85.434,40.792,85.447z"/>
				</g>
			</g>
			<g>
				<g>
					<path fill="#FFFFFF" d="M43.133,85.053L43.133,85.053c0.089-0.003,0.153-0.088,0.132-0.175l-0.075-0.317
						c-0.016-0.066-0.076-0.112-0.144-0.109l0,0c-0.089,0.003-0.153,0.088-0.132,0.175l0.075,0.317
						C43.004,85.01,43.065,85.056,43.133,85.053z"/>
				</g>
			</g>
			<g>
				<g>
					<path fill="#FFFFFF" d="M42.675,85.072L42.675,85.072c0.089-0.004,0.153-0.088,0.132-0.175l-0.075-0.317
						c-0.015-0.067-0.076-0.112-0.145-0.109l0,0c-0.088,0.003-0.152,0.088-0.132,0.175l0.075,0.317
						C42.546,85.029,42.607,85.075,42.675,85.072z"/>
				</g>
			</g>
		</g>
		<g>
			<g>
				<path fill="#8EDEF2" d="M45.038,79.548l0.016-0.009l4.607-2.716l1.377,1.493l-4.833,2.563l-1.134,4.935l-0.034-0.006
					l-1.295-1.174l0.875-4.522C44.666,79.88,44.813,79.667,45.038,79.548z"/>
			</g>
		</g>
		<g id="_x38_._Right_shoe_241_">
			<g>
				<g>
					<circle fill="#2143AF" cx="55.07" cy="87.112" r="0.758"/>
				</g>
			</g>
			<g>
				<g>
					<path fill="#2143AF" d="M52.185,87.877l2.873-0.007c0.304-0.001,0.549-0.247,0.549-0.552l0,0
						c-0.001-0.303-0.397-0.965-0.702-0.965l-2.777,0.827c-0.306,0.091-0.361,0.521-0.075,0.663
						C52.095,87.864,52.14,87.877,52.185,87.877z"/>
				</g>
			</g>
			<g>
				<g>
					<path fill="#FFFFFF" d="M54.109,86.953L54.109,86.953c0.076-0.025,0.11-0.113,0.071-0.184l-0.144-0.256
						c-0.03-0.054-0.094-0.078-0.152-0.059l0,0c-0.076,0.025-0.11,0.113-0.071,0.184l0.144,0.256
						C53.987,86.948,54.051,86.973,54.109,86.953z"/>
				</g>
			</g>
			<g>
				<g>
					<path fill="#FFFFFF" d="M53.718,87.084L53.718,87.084c0.076-0.026,0.11-0.114,0.071-0.184l-0.145-0.256
						c-0.03-0.054-0.093-0.078-0.151-0.059l0,0c-0.076,0.025-0.11,0.113-0.071,0.184l0.144,0.256
						C53.597,87.079,53.66,87.104,53.718,87.084z"/>
				</g>
			</g>
		</g>
		<g>
			<g>
				<path fill="#8EDEF2" d="M48.994,76.147l3.055-0.334c0.189,0.215,0.419,0.882,0.487,1.182c0.108,0.479,0.012,0.956-0.231,1.341
					c-0.244,0.385-0.632,0.677-1.112,0.786c-0.234,0.054-1.394,0.071-1.938-0.46C48.458,77.886,48.994,76.147,48.994,76.147z"/>
			</g>
		</g>
		<g>
			<g>
				<path fill="#8EDEF2" d="M50.9,77.779h1.967l-0.756,4.679l3.318,3.865l-1.722,0.484l-3.166-3.551
					c-0.156-0.177-0.237-0.421-0.196-0.671L50.9,77.779z"/>
			</g>
		</g>
		<g>
			<g>
				<path fill="#121F55" d="M42.866,75.791l4.553-0.079c0.202-0.004,0.384-0.118,0.474-0.298l1.785-3.549l-0.967-0.486l-1.638,3.257
					l-4.225,0.073L42.866,75.791z"/>
			</g>
		</g>
		<g>
			<g>
				<polygon fill="#F99AB6" points="49.366,68.571 49.504,71.444 50.835,71.381 50.643,68.606 50.588,67.816 				"/>
			</g>
		</g>
		<g>
			<g>
				<g>
					<path fill="#F99AB6" d="M50.384,69.477c0,0-0.301,0.74-0.931,0.925l-0.046-0.964L50.384,69.477z"/>
				</g>
			</g>
		</g>
		<g>
			<g>
				<path fill="#F99AB6" d="M48.932,70.272c-0.053-0.008-0.156-0.037-0.208-0.051c-0.495-0.136-0.984-0.953-0.965-1.423
					c0.022-0.562,0.082-0.843,0.049-1.223c-0.045-0.521,0.462-0.93,0.984-0.909l1.06,0.043c0.398,0.016,0.708,0.352,0.693,0.75
					l-0.068,1.719C50.452,69.793,49.538,70.369,48.932,70.272z"/>
			</g>
		</g>
		<g>
			<g>
				<path fill="#F99AB6" d="M51.121,70.654c-0.142-0.095-0.316-0.143-0.499-0.121l-0.59,0.068c-0.285,0.033-0.546,0.136-0.766,0.289
					C49.875,71.068,50.611,71.007,51.121,70.654z"/>
			</g>
		</g>
		<g>
			<g>
				<path fill="#121F55" d="M52.036,71.786c-0.026-0.463-0.437-1.087-0.942-1.148c-0.854,0.12-1.62,0.167-1.91,0.235
					c-0.496,0.345-0.792,0.943-0.717,1.586l0.076,5.316c1.596,1.127,4.522,0.674,4.522,0.674
					C53.065,76.154,52.088,72.696,52.036,71.786z"/>
			</g>
		</g>
		<g>
			<g>
				<path fill="#121F55" d="M46.067,75.762l3.718,0.039c0.271,0.003,0.501-0.193,0.541-0.461l0.612-4.093l-1.071-0.159l-0.542,3.626
					l-3.247-0.035L46.067,75.762z"/>
			</g>
		</g>
		<g>
			<g>
				<path fill="#F7B75D" d="M49.336,70.845c0.243-0.058,0.675-0.072,1.363-0.156c-0.381,0.896-1.411,1.641-1.715,2.689
					C48.824,73.203,48.839,71.188,49.336,70.845z"/>
			</g>
		</g>
		<g>
			<g>
				<path fill="#2747B3" d="M49.379,71.01c0.043-0.051,0.186-0.15,0.19-0.203c0.11-0.015,0.092,0.027,0.245,0.014
					c-0.417,0.385-0.175,1.021-0.34,1.602c-0.209,0.297-0.389,0.609-0.49,0.956c-0.089-0.097-0.124-0.758-0.052-1.387
					C48.94,71.923,49.04,71.396,49.379,71.01z"/>
			</g>
		</g>
		<g>
			<path fill="#B8B9F1" d="M49.329,71.108c0.053,0.068,0.277,0.102,0.347,0.052c0.067-0.048,0.133-0.308,0.133-0.308l-0.517-0.078
				C49.292,70.774,49.28,71.043,49.329,71.108z"/>
		</g>
		<g>
			<g>
				<path fill="#121F55" d="M48.415,67.711c-2.051-0.446-0.574-1.75-0.574-1.75s0.041,0.486,0.438,0.327
					c0.76-0.305,2.414-0.496,2.869,0.496c0.354,0.773-0.305,2.465-0.43,2.906c-0.205-0.128-0.032-2.119-0.873-2.036
					C49.386,67.7,48.864,67.809,48.415,67.711z"/>
			</g>
		</g>
		<g>
			<g>
				<path fill="#FFFEFF" d="M48.726,69.845c-0.419-0.02-0.149-0.712,0.01-0.703C48.896,69.15,49.145,69.862,48.726,69.845z"/>
			</g>
		</g>
		<g>
			<polygon fill="#FFFFFF" points="50.072,71.344 51.113,70.651 50.76,70.265 49.521,70.814 			"/>
		</g>
		<g>
			<polygon fill="#FFFFFF" points="49.207,71.076 49.266,70.846 49.465,70.638 49.55,70.814 			"/>
		</g>
		<g>
			<g>
				<path fill="#566CD3" d="M50.145,74.502c0-0.127-0.103-0.23-0.23-0.23h-8.309c-0.174,0-0.316,0.104-0.316,0.229
					c0,0.127,0.142,0.229,0.316,0.229h8.309C50.042,74.73,50.145,74.628,50.145,74.502L50.145,74.502z"/>
			</g>
			<g>
				<path fill="#2143AF" d="M50.47,74.501c0,0.127-0.11,0.229-0.247,0.229h-3.155c-0.136,0-0.247-0.103-0.247-0.229
					c0-0.126,0.111-0.229,0.247-0.229h3.155C50.36,74.271,50.47,74.375,50.47,74.501z"/>
			</g>
			<g>
				<path fill="#2143AF" d="M41.302,69.972v4.19c0,0.187,0.151,0.338,0.338,0.338h5.529c0.187,0,0.338-0.151,0.338-0.338v-4.19
					c0-0.187-0.151-0.338-0.338-0.338H41.64C41.453,69.634,41.302,69.785,41.302,69.972z"/>
			</g>
			<g>
				<path fill="#FFFFFF" d="M41.044,69.972v4.19c0,0.187,0.152,0.338,0.339,0.338h5.528c0.187,0,0.338-0.151,0.338-0.338v-4.19
					c0-0.187-0.151-0.338-0.338-0.338h-5.528C41.196,69.634,41.044,69.785,41.044,69.972z"/>
			</g>
			<g>
				<path fill="#2143AF" d="M45.058,72.067L45.058,72.067c0-0.197-0.159-0.357-0.356-0.357h-1.111c-0.197,0-0.356,0.16-0.356,0.357
					l0,0c0,0.196,0.16,0.355,0.356,0.355h1.111C44.899,72.423,45.058,72.264,45.058,72.067z"/>
			</g>
		</g>
		<g>
			<g>
				<path fill="#F99AB6" d="M46.417,75.22c0.039-0.227-0.009-0.446-0.118-0.63l-1.397-0.234c-0.163,0.137-0.279,0.329-0.318,0.556
					c-0.085,0.506,0.256,0.985,0.763,1.07C45.852,76.067,46.332,75.726,46.417,75.22z"/>
			</g>
		</g>
		<g>
			<g>
				<path fill="#F99AB6" d="M43.467,74.961c0.019-0.228-0.047-0.444-0.17-0.617l-1.413-0.117c-0.15,0.15-0.25,0.352-0.27,0.58
					c-0.043,0.512,0.337,0.961,0.849,1.004C42.975,75.853,43.424,75.472,43.467,74.961z"/>
			</g>
		</g>
	</g>
	<g>
		<g>
			<g>
				
					<ellipse transform="matrix(-0.0037 1 -1 -0.0037 104.4263 -53.1243)" fill="#2143AF" cx="78.676" cy="25.456" rx="1.438" ry="0.902"/>
			</g>
		</g>
		<g>
			<g>
				<path fill="#2143AF" d="M83.055,27.571c-0.58-0.334-1.224-1.168-0.978-1.903c0.573-1.718-0.767-2.333-1.43-2.46
					c-0.662-0.126-1.247,0.042-1.616,0.337c-0.6,0.48-0.421,1.308-0.086,1.974c-0.363,0.21-0.538,0.659-0.329,0.993
					c0.455,0.729,0.063,1.71-0.207,2.293c-0.436,0.939,0.171,2.103,1.229,2.635c1.058,0.531,2.435,0.475,3.495-0.001
					c0.527-0.236,1.003-0.581,1.243-1.039C84.895,29.414,84.146,28.198,83.055,27.571z"/>
			</g>
		</g>
		<g>
			<g>
				<path fill="#F99AB6" d="M75.774,34.145c-0.253,0.037-0.518,0.059-0.794,0.066c-0.204,0.006-0.374-0.155-0.379-0.357
					c-0.005-0.204,0.154-0.373,0.357-0.379c1.292-0.035,2.259-0.416,2.872-1.131c0.938-1.092,0.759-2.61,0.757-2.625
					c-0.025-0.202,0.12-0.385,0.319-0.412c0.202-0.026,0.386,0.118,0.411,0.32c0.01,0.075,0.219,1.859-0.928,3.196
					C77.774,33.541,76.896,33.984,75.774,34.145z"/>
			</g>
		</g>
		<g>
			<path fill="#F7B75D" d="M78.866,29.04c-0.344,0.05-0.589,0.369-0.547,0.711c0.003,0.014,0.157,1.426-0.692,2.417
				c-0.416,0.484-1.021,0.801-1.797,0.946c0.225,0.382,0.262,0.876,0.083,1.28c1.14-0.183,2.042-0.65,2.682-1.396
				c1.225-1.426,1.001-3.325,0.991-3.405C79.542,29.244,79.223,28.996,78.866,29.04z"/>
		</g>
		<g>
			<g>
				<path fill="#F99AB6" d="M78.968,29.667c-0.189-0.095-0.342-0.382-0.116-0.644c0.224-0.258,0.565-0.401,0.934-0.416l0.095-0.003
					c0.326-0.012,0.621,0.13,0.818,0.36C80.542,29.448,79.479,29.863,78.968,29.667z"/>
			</g>
		</g>
		<g>
			<g>
				<path fill="#F99AB6" d="M79.591,27.868l-0.009,0.416l-0.016,0.781l0.601,0.011l0.019-0.999l0.008-0.387
					C80.012,27.812,79.806,27.877,79.591,27.868z"/>
			</g>
		</g>
		<g>
			<g>
				<g>
					<path fill="#F99AB6" d="M79.591,27.967l-0.009,0.416c0.213-0.031,0.471-0.126,0.605-0.284l0.006-0.31
						C80.012,27.911,79.806,27.977,79.591,27.967z"/>
				</g>
			</g>
		</g>
		<g>
			<g>
				<path fill="#F99AB6" d="M79.739,28.182L79.739,28.182c0.568-0.006,1.07-0.283,1.383-0.708c0.218-0.293,0.345-0.657,0.34-1.05
					l-0.007-0.685c-0.005-0.497-0.218-0.943-0.555-1.257c-0.315-0.293-0.739-0.47-1.203-0.465l0,0
					c-0.307,0.003-0.594,0.084-0.843,0.227c-0.531,0.303-0.886,0.877-0.88,1.532l0.007,0.684c0.007,0.63,0.346,1.178,0.851,1.479
					C79.098,28.096,79.408,28.185,79.739,28.182z"/>
			</g>
		</g>
		<g>
			<g>
				<circle fill="#121F55" cx="80.026" cy="34.21" r="1.652"/>
			</g>
		</g>
		<g>
			<g>
				<path fill="#FFFEFF" d="M79.625,27.276c-0.039,0.216-0.226,0.382-0.453,0.384c-0.229,0.003-0.419-0.159-0.462-0.375
					L79.625,27.276z"/>
			</g>
		</g>
		<g>
			<g>
				<path fill="#F7B75D" d="M78.09,29.943c-0.112,0.312,0.202,0.625,0.531,0.662c0.33,0.036,0.626-0.201,0.662-0.531
					c0.036-0.329-0.456-1.051-0.641-0.776C78.466,29.559,78.187,29.676,78.09,29.943z"/>
			</g>
		</g>
		<g>
			<g>
				<path fill="#F7B75D" d="M80.698,28.964c0.142,0.167,0.231,0.379,0.244,0.614c0,0-0.149,2.713,0.596,3.963l-3.163,0.264
					l0.084-3.755c-0.019-0.399,0.134-0.764,0.393-1.028C78.866,29.627,80.112,28.9,80.698,28.964z"/>
			</g>
		</g>
		<g>
			<g>
				<g>
					<g>
						<path fill="#2143AF" d="M78.567,41.079c-0.292,0.015-0.437,0.289-0.461,0.366c-0.135,0.426-0.087,0.872-0.359,1.594
							c-0.186,0.492-0.372,0.593-0.505,0.994c-0.113,0.344,0.203,0.456,0.516,0.335c0.123-0.048,0.893-0.25,0.906-0.865
							c0.01-0.449-0.043-0.792,0.1-1.179c0.143-0.386,0.266-0.168,0.312-0.05c0.032,0.084,0.136,0.325,0.169,0.4
							c0.013,0.027,0.045,0.04,0.072,0.029l0.002,0c0.03-0.012,0.045-0.047,0.03-0.078c-0.043-0.087-0.123-0.391-0.153-0.778
							C79.159,41.372,78.832,41.066,78.567,41.079z"/>
					</g>
				</g>
			</g>
			<g>
				<g>
					<g>
						<path fill="#F99AB6" d="M78.261,43.201c0.161-0.36,0.352-1.465,0.258-1.709c-0.111-0.286-0.71-0.308-0.746-0.049
							c-0.063,0.442,0.119,1.215-0.246,2.043C77.572,43.704,78.074,43.62,78.261,43.201z"/>
					</g>
				</g>
			</g>
		</g>
		<g>
			<g>
				<path fill="#121F55" d="M80.542,35.729l-3.892,1.81l0.368-0.879l1.442,4.674c0.087,0.284-0.072,0.584-0.355,0.672
					c-0.271,0.083-0.558-0.06-0.659-0.319l-1.772-4.558c-0.131-0.335,0.021-0.712,0.339-0.865l0.029-0.014l3.872-1.852
					c0.366-0.176,0.807-0.021,0.981,0.345c0.176,0.368,0.021,0.807-0.347,0.982C80.548,35.726,80.543,35.728,80.542,35.729z"/>
			</g>
		</g>
		<g>
			<g>
				<g>
					<g>
						<path fill="#2143AF" d="M75.952,39.61c-0.265-0.123-0.52,0.052-0.578,0.109c-0.318,0.313-0.483,0.73-1.062,1.242
							c-0.395,0.349-0.605,0.352-0.909,0.645c-0.262,0.251-0.034,0.497,0.299,0.536c0.131,0.015,0.906,0.195,1.205-0.342
							c0.219-0.393,0.332-0.721,0.639-0.996c0.306-0.275,0.313-0.025,0.298,0.101c-0.011,0.089-0.031,0.35-0.036,0.433
							c-0.002,0.03,0.021,0.057,0.051,0.06h0.001c0.032,0.004,0.062-0.021,0.063-0.054c0.003-0.098,0.074-0.404,0.229-0.76
							C76.34,40.146,76.192,39.723,75.952,39.61z"/>
					</g>
				</g>
			</g>
			<g>
				<g>
					<g>
						<path fill="#F99AB6" d="M74.691,41.344c0.31-0.243,0.995-1.132,1.024-1.392c0.035-0.305-0.483-0.603-0.636-0.392
							c-0.263,0.362-0.461,1.131-1.17,1.693C73.848,41.467,74.331,41.627,74.691,41.344z"/>
					</g>
				</g>
			</g>
		</g>
		<g>
			<g>
				<path fill="#121F55" d="M80.27,35.847l-4.287-0.216l0.736-0.604l-0.905,4.807c-0.055,0.292-0.336,0.484-0.628,0.429
					c-0.278-0.052-0.465-0.313-0.435-0.589l0.559-4.859c0.041-0.357,0.352-0.619,0.704-0.607l0.031,0.001l4.289,0.167
					c0.407,0.017,0.724,0.359,0.708,0.765c-0.016,0.407-0.358,0.723-0.765,0.708C80.275,35.847,80.271,35.847,80.27,35.847z"/>
			</g>
		</g>
		<g>
			<g>
				<path fill="#F99AB6" d="M80.575,34.21c-0.188,0.031-0.388,0.055-0.603,0.068c-0.203,0.013-0.378-0.142-0.391-0.344
					c-0.014-0.203,0.141-0.377,0.343-0.391c0.683-0.044,1.542-0.212,1.762-0.762c0.347-0.866-0.85-2.443-1.296-2.928
					c-0.138-0.149-0.128-0.382,0.021-0.521c0.149-0.137,0.383-0.128,0.521,0.022c0.209,0.225,2.019,2.25,1.438,3.701
					C82.128,33.664,81.525,34.05,80.575,34.21z"/>
			</g>
		</g>
		<g>
			<path fill="#F7B75D" d="M81.131,29.172c-0.146-0.16-0.362-0.233-0.575-0.197C80.41,29,80.278,29.073,80.18,29.186
				c-0.216,0.246-0.19,0.627,0.03,0.869c0.509,0.559,1.494,1.959,1.227,2.626c-0.047,0.117-0.142,0.21-0.264,0.285
				c-0.228,0.14-0.354,0.399-0.304,0.662c0.002,0.004,0.002,0.008,0.003,0.013c0.078,0.419,0.546,0.653,0.915,0.442
				c0.398-0.228,0.678-0.537,0.834-0.927C83.25,31.584,81.489,29.562,81.131,29.172z"/>
		</g>
		<g>
			<g>
				<path fill="#F99AB6" d="M78.402,33.856c0.019,0.218,0.113,0.41,0.256,0.553l1.346-0.11c0.118-0.165,0.181-0.37,0.163-0.587
					c-0.04-0.487-0.468-0.85-0.955-0.81C78.725,32.941,78.362,33.369,78.402,33.856z"/>
			</g>
		</g>
		<g>
			<g>
				<path fill="#F99AB6" d="M73.819,34.021c0.009,0.218,0.096,0.415,0.232,0.563l1.349-0.053c0.126-0.159,0.196-0.362,0.188-0.58
					c-0.02-0.489-0.432-0.869-0.92-0.85C74.18,33.121,73.8,33.533,73.819,34.021z"/>
			</g>
		</g>
		<g>
			<g>
				
					<ellipse transform="matrix(0.9437 0.3309 -0.3309 0.9437 12.7325 -25.1244)" fill="#2143AF" cx="80.149" cy="24.829" rx="1.7" ry="1.067"/>
			</g>
		</g>
		<g>
			<g>
				<path fill="#121F55" d="M80.822,34.363c0-0.122-0.099-0.221-0.221-0.221h-8.022c-0.168,0-0.306,0.1-0.306,0.221
					c0,0.123,0.138,0.222,0.306,0.222h8.022C80.724,34.584,80.822,34.485,80.822,34.363L80.822,34.363z"/>
			</g>
			<g>
				<path fill="#FFFFFF" d="M81.137,34.363c0,0.123-0.107,0.222-0.239,0.222h-3.045c-0.132,0-0.239-0.099-0.239-0.222
					c0-0.122,0.107-0.221,0.239-0.221h3.045C81.029,34.142,81.137,34.241,81.137,34.363z"/>
			</g>
			<g>
				<path fill="#FFFFFF" d="M72.286,29.99v4.046c0,0.18,0.146,0.326,0.326,0.326h5.337c0.181,0,0.326-0.146,0.326-0.326V29.99
					c0-0.179-0.146-0.326-0.326-0.326h-5.337C72.433,29.665,72.286,29.811,72.286,29.99z"/>
			</g>
			<g>
				<path fill="#2143AF" d="M72.038,29.99v4.046c0,0.18,0.146,0.326,0.326,0.326H77.7c0.181,0,0.327-0.146,0.327-0.326V29.99
					c0-0.179-0.146-0.326-0.327-0.326h-5.336C72.184,29.665,72.038,29.811,72.038,29.99z"/>
			</g>
			<g>
				<path fill="#FFFFFF" d="M75.912,32.013L75.912,32.013c0-0.19-0.153-0.344-0.344-0.344h-1.072c-0.189,0-0.344,0.154-0.344,0.344
					l0,0c0,0.19,0.154,0.344,0.344,0.344h1.072C75.759,32.357,75.912,32.204,75.912,32.013z"/>
			</g>
		</g>
	</g>
	<g>
		<g>
			<path fill="#FFFFFF" d="M101.114,39.426c-0.491,0-0.982-0.173-1.356-0.521c-0.566-0.526-1.489-0.526-2.057,0
				c-0.097,0.09-0.249,0.085-0.339-0.012c-0.092-0.098-0.085-0.25,0.012-0.34c0.748-0.695,1.964-0.694,2.712,0
				c0.566,0.527,1.489,0.527,2.056,0c0.748-0.694,1.964-0.694,2.712,0c0.566,0.527,1.489,0.527,2.057,0
				c0.747-0.695,1.963-0.694,2.711,0c0.097,0.091,0.103,0.243,0.012,0.34c-0.09,0.097-0.242,0.103-0.34,0.012
				c-0.566-0.526-1.489-0.526-2.057,0c-0.747,0.695-1.963,0.695-2.711,0c-0.566-0.526-1.489-0.526-2.057,0
				C102.096,39.252,101.604,39.426,101.114,39.426z"/>
		</g>
	</g>
	<g>
		<g>
			<path fill="#FFFFFF" d="M64.712,26.153c-0.491,0-0.982-0.173-1.356-0.521c-0.567-0.527-1.489-0.527-2.057,0
				c-0.097,0.09-0.25,0.085-0.339-0.012c-0.091-0.098-0.085-0.25,0.012-0.339c0.749-0.696,1.964-0.695,2.712,0
				c0.567,0.526,1.49,0.526,2.057,0c0.748-0.696,1.963-0.696,2.711,0c0.567,0.526,1.49,0.526,2.056,0
				c0.748-0.696,1.964-0.695,2.712,0c0.098,0.09,0.103,0.242,0.012,0.339c-0.09,0.098-0.242,0.103-0.34,0.012
				c-0.566-0.527-1.489-0.527-2.056,0c-0.748,0.694-1.963,0.695-2.712,0c-0.566-0.527-1.489-0.527-2.056,0
				C65.694,25.979,65.203,26.153,64.712,26.153z"/>
		</g>
	</g>
	<g>
		<g>
			<path fill="#FFFFFF" d="M38.154,31.82c-0.491,0-0.982-0.173-1.355-0.521c-0.567-0.527-1.49-0.527-2.057,0
				c-0.097,0.09-0.249,0.085-0.339-0.013c-0.091-0.098-0.085-0.25,0.012-0.34c0.747-0.695,1.963-0.695,2.711,0
				c0.566,0.527,1.49,0.527,2.056,0c0.748-0.695,1.963-0.695,2.711,0c0.566,0.527,1.49,0.527,2.057,0
				c0.747-0.695,1.963-0.695,2.711,0c0.097,0.09,0.103,0.242,0.012,0.34c-0.09,0.098-0.243,0.103-0.339,0.013
				c-0.567-0.527-1.49-0.527-2.057,0c-0.748,0.694-1.964,0.695-2.711,0c-0.567-0.527-1.49-0.527-2.057,0
				C39.137,31.647,38.646,31.82,38.154,31.82z"/>
		</g>
	</g>
	<g>
		<g>
			<g>
				<path fill="#B9B8F1" d="M104.732,44.054l-2.393,1.663c-0.076,0.011-0.147,0.051-0.194,0.119c-0.038,0.056-0.054,0.12-0.05,0.182
					c-0.004,0.063,0.012,0.126,0.05,0.182c0.047,0.067,0.118,0.109,0.194,0.119l2.393,1.663c0.131,0.09,0.309,0.059,0.398-0.071
					c0.089-0.129,0.058-0.307-0.072-0.396l-2.151-1.496l2.151-1.497c0.13-0.088,0.161-0.267,0.072-0.396
					C105.041,43.996,104.863,43.964,104.732,44.054z"/>
			</g>
		</g>
		<g>
			<g>
				<path fill="#B9B8F1" d="M107.293,44.054l-2.393,1.663c-0.075,0.011-0.147,0.051-0.195,0.119c-0.039,0.056-0.053,0.12-0.05,0.182
					c-0.003,0.063,0.011,0.126,0.05,0.182c0.048,0.067,0.12,0.109,0.195,0.119l2.393,1.663c0.129,0.09,0.308,0.059,0.396-0.071
					c0.091-0.129,0.059-0.307-0.07-0.396l-2.153-1.496l2.153-1.497c0.129-0.088,0.161-0.267,0.07-0.396
					C107.601,43.996,107.422,43.964,107.293,44.054z"/>
			</g>
		</g>
		<g>
			<g>
				<path fill="#B9B8F1" d="M109.852,43.944l-2.392,1.663c-0.077,0.01-0.148,0.051-0.194,0.119c-0.039,0.055-0.055,0.119-0.05,0.182
					c-0.005,0.063,0.011,0.126,0.05,0.182c0.046,0.068,0.117,0.108,0.194,0.119l2.392,1.663c0.132,0.091,0.309,0.059,0.398-0.07
					c0.089-0.13,0.058-0.308-0.071-0.397l-2.153-1.496l2.153-1.496c0.129-0.089,0.16-0.268,0.071-0.396
					C110.16,43.886,109.983,43.854,109.852,43.944z"/>
			</g>
		</g>
		<g>
			<g>
				<path fill="#B9B8F1" d="M112.412,43.944l-2.393,1.663c-0.076,0.01-0.147,0.051-0.195,0.119
					c-0.037,0.055-0.053,0.119-0.049,0.182c-0.004,0.063,0.012,0.126,0.049,0.182c0.048,0.068,0.119,0.108,0.195,0.119l2.393,1.663
					c0.13,0.091,0.308,0.059,0.397-0.07c0.09-0.13,0.058-0.308-0.071-0.397l-2.152-1.496l2.152-1.496
					c0.129-0.089,0.161-0.268,0.071-0.396C112.72,43.886,112.542,43.854,112.412,43.944z"/>
			</g>
		</g>
	</g>
	<g>
		<g>
			<g>
				<path fill="#B9B8F1" d="M34.591,39.259l2.392-1.664c0.077-0.01,0.148-0.05,0.195-0.118c0.039-0.055,0.053-0.12,0.049-0.183
					c0.004-0.063-0.01-0.125-0.049-0.182c-0.047-0.067-0.119-0.108-0.195-0.118l-2.392-1.664c-0.13-0.09-0.309-0.058-0.399,0.072
					c-0.088,0.129-0.057,0.307,0.072,0.396l2.151,1.496l-2.151,1.496c-0.129,0.089-0.161,0.268-0.072,0.396
					C34.283,39.317,34.461,39.349,34.591,39.259z"/>
			</g>
		</g>
		<g>
			<g>
				<path fill="#B9B8F1" d="M32.031,39.259l2.392-1.664c0.077-0.01,0.148-0.05,0.195-0.118c0.039-0.055,0.054-0.12,0.05-0.183
					c0.004-0.063-0.011-0.125-0.05-0.182c-0.047-0.067-0.119-0.108-0.195-0.118l-2.392-1.664c-0.13-0.09-0.307-0.058-0.396,0.072
					c-0.091,0.129-0.059,0.307,0.07,0.396l2.153,1.496l-2.153,1.496c-0.128,0.089-0.161,0.268-0.07,0.396
					C31.724,39.317,31.901,39.349,32.031,39.259z"/>
			</g>
		</g>
		<g>
			<g>
				<path fill="#B9B8F1" d="M29.472,39.369l2.392-1.663c0.077-0.01,0.148-0.051,0.195-0.119c0.039-0.056,0.053-0.119,0.049-0.183
					c0.004-0.062-0.01-0.126-0.049-0.182c-0.047-0.067-0.119-0.108-0.195-0.119l-2.392-1.663c-0.131-0.09-0.309-0.058-0.398,0.071
					c-0.089,0.13-0.058,0.307,0.071,0.397l2.153,1.495l-2.153,1.497c-0.129,0.089-0.161,0.267-0.071,0.396
					S29.341,39.458,29.472,39.369z"/>
			</g>
		</g>
		<g>
			<g>
				<path fill="#B9B8F1" d="M26.911,39.369l2.393-1.663c0.076-0.01,0.147-0.051,0.195-0.119c0.038-0.056,0.053-0.119,0.048-0.183
					c0.004-0.062-0.011-0.126-0.048-0.182c-0.048-0.067-0.119-0.108-0.195-0.119l-2.393-1.663c-0.129-0.09-0.307-0.058-0.397,0.071
					c-0.089,0.13-0.058,0.307,0.072,0.397l2.152,1.495l-2.152,1.497c-0.13,0.089-0.162,0.267-0.072,0.396
					C26.604,39.427,26.782,39.458,26.911,39.369z"/>
			</g>
		</g>
	</g>
	<g>
		<g>
			<g>
				<g>
					<path fill="#2143AF" d="M33.323,53.829c-0.184,0-0.366-0.085-0.483-0.246l-2.068-2.831c-0.161-0.22-0.152-0.522,0.021-0.732
						l2.703-3.283c0.21-0.255,0.587-0.292,0.841-0.082c0.255,0.209,0.292,0.586,0.081,0.841l-2.408,2.925l1.795,2.457
						c0.194,0.267,0.136,0.64-0.13,0.835C33.569,53.791,33.446,53.829,33.323,53.829z"/>
				</g>
			</g>
		</g>
		<g>
			<g>
				<g>
					<path fill="#2143AF" d="M37.294,53.823c-0.122,0-0.246-0.037-0.353-0.115c-0.266-0.195-0.324-0.569-0.129-0.835l1.803-2.463
						l-2.399-2.917c-0.209-0.255-0.173-0.632,0.082-0.841c0.255-0.21,0.632-0.173,0.841,0.082l2.694,3.275
						c0.173,0.211,0.182,0.512,0.021,0.732l-2.077,2.838C37.659,53.739,37.478,53.823,37.294,53.823z"/>
				</g>
			</g>
		</g>
		<g>
			<g>
				<g>
					<circle fill="#566CD3" cx="35.369" cy="43.357" r="1.724"/>
				</g>
			</g>
		</g>
		<g>
			<g>
				<g>
					<polygon fill="#F99AB6" points="36.001,45.195 35.997,46.834 35.993,47.907 34.737,47.903 34.8,45.283 34.818,44.536 					"/>
				</g>
			</g>
		</g>
		<g>
			<g>
				<g>
					<path fill="#2143AF" d="M33.5,47.765c0.004-0.512,0.447-1.007,0.904-1.246c0.686-0.356,1.743-0.108,2.08,0.092
						c0.574,0.342,0.915,1.035,0.875,1.748l0.04,3.824h-4.061C33.338,52.183,33.491,48.927,33.5,47.765z"/>
				</g>
			</g>
		</g>
		<g>
			<path fill="#E5E9FF" d="M35.431,48.918c0.298-0.917,0.625-1.558,0.92-2.373c-0.903-0.34-1.777-0.15-1.963,0
				c0.294,0.815,0.622,1.456,0.92,2.373c0.015,0.066,0.06,0.172,0.061,0.17c0.002,0.001,0.002,0.005,0.004,0.007
				C35.375,49.085,35.416,48.984,35.431,48.918z"/>
		</g>
		<g>
			<polygon fill="#2747B3" points="35.477,46.61 35.369,46.61 35.261,46.61 35.058,47.85 35.201,48.604 35.369,49.089 
				35.537,48.604 35.681,47.85 			"/>
		</g>
		<g>
			<g>
				<g>
					<path fill="#F99AB6" d="M35.696,42.039h-0.654c-0.578,0-1.119,0.472-1.046,1.046c0.053,0.417,0,0.73,0,1.351
						c0,0.52,0.608,1.527,1.128,1.527h0.49c0.52,0,1.128-1.007,1.128-1.527c0-0.62-0.053-0.933,0-1.351
						C36.815,42.511,36.274,42.039,35.696,42.039z"/>
				</g>
			</g>
		</g>
		<g>
			<g>
				<g>
					<path fill="#FFFEFF" d="M34.839,45.081c0.047,0.25,0.266,0.44,0.529,0.44c0.265,0,0.483-0.19,0.531-0.44H34.839z"/>
				</g>
			</g>
		</g>
		<g>
			<g>
				<g>
					<path fill="#121F55" d="M36.021,55.839h-1.305c-0.938,0-1.641-0.857-1.457-1.776l0.078-1.88h4.061l0.079,1.88
						C37.662,54.982,36.959,55.839,36.021,55.839z"/>
				</g>
			</g>
		</g>
		<g>
			<g>
				<g>
					<g>
						<path fill="#2747B3" d="M38.035,54.54h-5.147c-0.223,0-0.404-0.181-0.404-0.404v-2.877c0-0.223,0.181-0.404,0.404-0.404h5.147
							c0.223,0,0.403,0.181,0.403,0.404v2.877C38.438,54.359,38.258,54.54,38.035,54.54z"/>
					</g>
				</g>
			</g>
			<g>
				<g>
					<g>
						<path fill="#FFFFFF" d="M38.035,54.71h-5.147c-0.223,0-0.404-0.181-0.404-0.403V51.43c0-0.223,0.181-0.404,0.404-0.404h5.147
							c0.223,0,0.403,0.181,0.403,0.404v2.877C38.438,54.53,38.258,54.71,38.035,54.71z"/>
					</g>
				</g>
			</g>
			<g>
				<g>
					<g>
						<path fill="#2747B3" d="M36.056,53.175h-1.188c-0.168,0-0.304-0.136-0.304-0.304v-0.006c0-0.167,0.136-0.303,0.304-0.303
							h1.188c0.167,0,0.304,0.136,0.304,0.303v0.006C36.36,53.039,36.223,53.175,36.056,53.175z"/>
					</g>
				</g>
			</g>
		</g>
		<g>
			<path fill="#B8B9F1" d="M35.53,46.681c-0.062,0.056-0.281,0.05-0.339-0.01c-0.056-0.057-0.074-0.316-0.074-0.316l0.506,0.014
				C35.623,46.369,35.589,46.627,35.53,46.681z"/>
		</g>
		<g>
			<polygon fill="#FFFFFF" points="34.833,47.001 34.406,46.486 34.762,46.029 35.369,46.358 			"/>
		</g>
		<g>
			<polygon fill="#FFFFFF" points="35.905,47.001 36.333,46.486 35.977,46.029 35.369,46.358 			"/>
		</g>
		<g>
			<g>
				<g>
					<g>
						<path fill="#2143AF" d="M36.079,60.297l0.35-1.312l-0.025-0.001c-0.081-0.003-0.138-0.077-0.12-0.155
							c0.014-0.06,0.068-0.101,0.128-0.099l0.083,0.003l0.039-0.147l-0.039-0.001c-0.081-0.003-0.137-0.078-0.12-0.156
							c0.014-0.059,0.068-0.101,0.128-0.099l0.098,0.004l0.22-0.825c0.01-0.017,0.022-0.032,0.038-0.047
							c0.013-0.031,0.028-0.062,0.046-0.091c0.218-0.357,0.682-0.47,1.039-0.252c0.355,0.217,0.469,0.682,0.251,1.038
							c-0.002,0.003-0.004,0.005-0.005,0.007c0,0.001-0.001,0.003-0.002,0.004L36.7,60.611c-0.024,0.039-0.057,0.071-0.098,0.096
							C36.333,60.876,35.997,60.605,36.079,60.297z"/>
					</g>
				</g>
			</g>
			<g id="_x38_._Right_shoe_244_">
				<g>
					<g>
						<g>
							<circle fill="#566CD3" cx="37.371" cy="57.722" r="0.755"/>
						</g>
					</g>
				</g>
				<g>
					<g>
						<g>
							<path fill="#2143AF" d="M36.52,60.57l1.489-2.444c0.158-0.258,0.077-0.595-0.182-0.752l0,0
								c-0.258-0.158-1.027-0.166-1.184,0.093l-0.743,2.789c-0.082,0.307,0.254,0.579,0.523,0.409
								C36.462,60.64,36.496,60.609,36.52,60.57z"/>
						</g>
					</g>
				</g>
				<g>
					<g>
						<g>
							<path fill="#FFFFFF" d="M36.737,58.455L36.737,58.455c0.018-0.078-0.04-0.153-0.12-0.156l-0.292-0.01
								c-0.061-0.002-0.115,0.039-0.128,0.098l0,0c-0.018,0.078,0.039,0.152,0.119,0.156l0.292,0.011
								C36.669,58.556,36.723,58.515,36.737,58.455z"/>
						</g>
					</g>
				</g>
				<g>
					<g>
						<g>
							<path fill="#FFFFFF" d="M36.644,58.855L36.644,58.855c0.019-0.078-0.039-0.153-0.119-0.156l-0.292-0.011
								c-0.061-0.001-0.115,0.039-0.129,0.099l0,0c-0.018,0.078,0.04,0.152,0.12,0.156l0.292,0.011
								C36.576,58.956,36.63,58.915,36.644,58.855z"/>
						</g>
					</g>
				</g>
			</g>
		</g>
		<g>
			<g>
				<g>
					<path fill="#121F55" d="M33.355,53.703l4.526,3.246l-1.423,1.221l-4.075-3.111c-0.371-0.265-0.455-0.781-0.19-1.151l0.01-0.014
						C32.469,53.523,32.984,53.438,33.355,53.703z"/>
				</g>
			</g>
		</g>
		<g>
			<g>
				<g>
					<g>
						<path fill="#2143AF" d="M35.773,62.409l0.09-1.355l0.024,0.008c0.077,0.022,0.155-0.03,0.163-0.109
							c0.007-0.06-0.032-0.117-0.09-0.135l-0.08-0.023l0.01-0.153l0.039,0.011c0.076,0.023,0.154-0.03,0.163-0.109
							c0.006-0.06-0.032-0.117-0.09-0.135l-0.093-0.027l0.056-0.852c-0.004-0.019-0.011-0.038-0.02-0.056
							c-0.003-0.034-0.008-0.068-0.015-0.102c-0.092-0.407-0.496-0.663-0.903-0.572c-0.406,0.091-0.663,0.495-0.572,0.902
							c0.001,0.003,0.002,0.006,0.003,0.009c0,0,0,0.003,0,0.005l0.627,2.792c0.01,0.044,0.032,0.084,0.061,0.121
							C35.346,62.876,35.752,62.727,35.773,62.409z"/>
					</g>
				</g>
			</g>
			<g id="_x38_._Right_shoe_243_">
				<g>
					<g>
						<g>
							<circle fill="#2143AF" cx="35.376" cy="59.555" r="0.756"/>
						</g>
					</g>
				</g>
				<g>
					<g>
						<g>
							<path fill="#2143AF" d="M35.268,62.525l-0.626-2.792c-0.066-0.295,0.12-0.588,0.415-0.654l0,0
								c0.295-0.066,1.025,0.173,1.092,0.468l-0.191,2.88c-0.021,0.317-0.427,0.466-0.627,0.219
								C35.3,62.61,35.279,62.57,35.268,62.525z"/>
						</g>
					</g>
				</g>
				<g>
					<g>
						<g>
							<path fill="#FFFFFF" d="M35.741,60.453L35.741,60.453c0.008-0.08,0.086-0.132,0.163-0.109l0.28,0.083
								c0.059,0.017,0.096,0.074,0.09,0.134l0,0c-0.008,0.08-0.086,0.132-0.163,0.109l-0.28-0.083
								C35.774,60.57,35.735,60.514,35.741,60.453z"/>
						</g>
					</g>
				</g>
				<g>
					<g>
						<g>
							<path fill="#FFFFFF" d="M35.701,60.862L35.701,60.862c0.008-0.08,0.086-0.132,0.163-0.109l0.28,0.083
								c0.059,0.017,0.096,0.074,0.09,0.134l0,0c-0.008,0.08-0.086,0.132-0.163,0.109l-0.28-0.083
								C35.732,60.979,35.695,60.923,35.701,60.862z"/>
						</g>
					</g>
				</g>
			</g>
		</g>
		<g>
			<g>
				<g>
					<path fill="#121F55" d="M36.633,54.418l-2.145,5.139l1.724,0.208l1.96-4.705c0.176-0.421-0.022-0.904-0.443-1.08l-0.016-0.007
						C37.292,53.799,36.809,53.998,36.633,54.418z"/>
				</g>
			</g>
		</g>
		<g>
			<g>
				<g>
					<path fill="#566CD3" d="M35.291,42.754c0.877-0.498,1.487-0.015,1.75,0.509c-0.137-0.807-0.835-1.423-1.681-1.423
						c-0.809,0-1.483,0.564-1.661,1.32C34.25,43.313,34.745,43.064,35.291,42.754z"/>
				</g>
			</g>
		</g>
	</g>
	<g>
		<g>
			<g>
				<path fill="#F99AB6" d="M112.87,71.524c-0.068-0.184-1.691-4.52-1.691-7.174h0.963c0,2.479,1.613,6.791,1.63,6.834
					L112.87,71.524z"/>
			</g>
		</g>
		<g>
			<g>
				<path fill="#F99AB6" d="M108.642,67.96l-1.613-2.703c-0.068-0.113-0.087-0.25-0.051-0.378c0.036-0.127,0.122-0.233,0.239-0.295
					l2.592-1.362l0.448,0.853l-2.142,1.126l1.354,2.267L108.642,67.96z"/>
			</g>
		</g>
		<g>
			<g>
				<path fill="#121F55" d="M113.316,54.606c0,0-0.635-0.767-0.923-1.014c-0.526-0.452-0.96,0.048-0.96,0.048
					c-2.62-0.403-3.113,3.339-1.919,4.272c0.967,0.756,1.773,0.234,1.773,0.234s0.546,0.407,1.381,0.536
					c0.518,0.08,1.142-0.26,1.142-0.26s0.732,0.523,1.292-0.25c0.56-0.773-0.269-1.593-0.709-1.6c0,0,0.527-0.636-0.195-1.056
					C113.913,55.348,113.316,54.606,113.316,54.606z"/>
			</g>
		</g>
		<g>
			<g>
				<path fill="#F99AB6" d="M110.076,59.256c-0.177-0.089-0.318-0.357-0.108-0.602c0.208-0.241,0.528-0.375,0.872-0.388l0.089-0.004
					c0.305-0.011,0.58,0.122,0.763,0.337C111.546,59.052,110.554,59.438,110.076,59.256z"/>
			</g>
		</g>
		<g>
			<g>
				<path fill="#F99AB6" d="M110.606,57.576l-0.008,0.388l-0.014,0.729l0.561,0.01l0.017-0.932l0.008-0.361
					C111.001,57.524,110.807,57.584,110.606,57.576z"/>
			</g>
		</g>
		<g>
			<g>
				<g>
					<path fill="#F99AB6" d="M110.606,57.576l-0.008,0.388c0.198-0.03,0.439-0.119,0.565-0.265l0.006-0.289
						C111.001,57.524,110.807,57.584,110.606,57.576z"/>
				</g>
			</g>
		</g>
		<g>
			<g>
				<path fill="#F99AB6" d="M110.294,57.575L110.294,57.575c0.474,0.239,1.009,0.223,1.451,0.005
					c0.306-0.151,0.566-0.399,0.731-0.727l0.288-0.571c0.208-0.416,0.223-0.877,0.076-1.282c-0.136-0.377-0.411-0.707-0.798-0.901
					l0,0c-0.257-0.128-0.53-0.184-0.797-0.172c-0.571,0.023-1.112,0.347-1.387,0.894l-0.287,0.571
					c-0.265,0.525-0.217,1.126,0.072,1.591C109.798,57.229,110.018,57.436,110.294,57.575z"/>
			</g>
		</g>
		<g>
			<g>
				<path fill="#121F55" d="M112.089,55.892c-1.166,0.19-1.295-1.067-1.228-1.585c0.139-1.083,1.552-0.874,2.047-0.336
					c0.306,0.333,0.851,1.238,0.616,2.36c-0.235,1.122-1.381,1.821-1.381,1.821c-1.259-0.924,0.041-1.808,0.041-1.808
					L112.089,55.892z"/>
			</g>
		</g>
		<g>
			<g>
				<circle fill="#8EDEF2" cx="111.065" cy="63.499" r="1.543"/>
			</g>
		</g>
		<g>
			<g>
				<path fill="#FFFEFF" d="M110.423,56.69c-0.125,0.163-0.352,0.22-0.541,0.125c-0.19-0.096-0.279-0.312-0.223-0.509L110.423,56.69
					z"/>
			</g>
		</g>
		<g>
			<g>
				<path fill="#8EDEF2" d="M108.424,63.94c2.038,1.768,4.566,2.634,4.566,2.634s0.432-2.586-0.523-3.707
					c-0.479-0.563-2.945,0.256-2.945,0.256L108.424,63.94z"/>
			</g>
		</g>
		<g>
			<g>
				<path fill="#8EDEF2" d="M109.257,59.514c-0.105,0.291,0.188,0.584,0.495,0.618c0.309,0.034,0.585-0.188,0.618-0.496
					c0.034-0.307-0.424-0.981-0.598-0.725C109.608,59.155,109.348,59.265,109.257,59.514z"/>
			</g>
		</g>
		<g>
			<g>
				<path fill="#8EDEF2" d="M111.691,58.6c0.134,0.155,0.219,0.354,0.229,0.574c0,0-0.139,2.534,0.557,3.702
					c0.299,0.502-2.962,0.487-2.962,0.487l0.087-3.749c-0.018-0.373,0.125-0.713,0.366-0.96
					C109.982,59.22,111.146,58.539,111.691,58.6z"/>
			</g>
		</g>
		<g>
			<g>
				<path fill="#8EDEF2" d="M111.201,59.523c-0.579,0-4.485-0.184-6.657-4.999l0.878-0.396c2.025,4.488,5.657,4.436,5.813,4.431
					l0.033,0.962C111.259,59.523,111.236,59.523,111.201,59.523z"/>
			</g>
		</g>
		<g>
			<g>
				<path fill="#F99AB6" d="M105.396,53.356c-0.174-0.107-0.371-0.142-0.559-0.113l-0.661,1.073c0.059,0.18,0.178,0.341,0.352,0.447
					c0.388,0.241,0.898,0.12,1.138-0.269C105.905,54.106,105.785,53.597,105.396,53.356z"/>
			</g>
		</g>
		<g>
			<g>
				<g>
					<circle fill="#121F55" cx="109.439" cy="68.043" r="0.628"/>
				</g>
			</g>
			<g>
				<g>
					<path fill="#121F55" d="M107.327,69.325l2.279-0.677c0.241-0.072,0.379-0.325,0.308-0.566l0,0
						c-0.072-0.241-0.542-0.674-0.783-0.603l-2.012,1.307c-0.222,0.144-0.166,0.499,0.095,0.544
						C107.253,69.337,107.291,69.337,107.327,69.325z"/>
				</g>
			</g>
		</g>
		<g>
			<g>
				<g>
					<circle fill="#121F55" cx="113.416" cy="71.717" r="0.628"/>
				</g>
			</g>
			<g>
				<g>
					<path fill="#121F55" d="M110.944,71.74l2.307,0.583c0.244,0.062,0.491-0.087,0.553-0.331l0,0
						c0.062-0.243-0.121-0.855-0.365-0.917l-2.397,0.096c-0.264,0.011-0.396,0.344-0.195,0.516
						C110.875,71.713,110.908,71.731,110.944,71.74z"/>
				</g>
			</g>
		</g>
		<g>
			<g>
				<path fill="#8EDEF2" d="M110.545,63.054c-0.246,0-0.513-0.024-0.793-0.084l0.029-0.136c1.316,0.284,2.342-0.279,2.352-0.285
					l0.067,0.12C112.166,62.688,111.503,63.054,110.545,63.054z"/>
			</g>
		</g>
	</g>
	<g>
		<g>
			<g>
				<path fill="#FFFFFF" d="M61.607,58.792c0.157-0.228-0.056-0.607,0.077-1.058c0.403-1.361-0.069-1.955-0.069-1.955
					c0.007-0.5-0.413-0.938-1.04-1.169c-0.294-0.108-0.633-0.171-0.996-0.174c-0.548-0.003-1.048,0.131-1.42,0.355
					c-0.399,0.24-0.688,0.582-0.657,0.961c0.022,0.268,0.311,0.623,0.017,1.076c-0.723,1.119-0.409,1.763-0.024,1.963
					c0.354,0.185,0.762,0.2,0.971,0.319C59.532,59.72,61.05,59.599,61.607,58.792z"/>
			</g>
		</g>
		<g>
			<path fill="#F99AB6" d="M64.953,63.775c0.247-0.027,0.501-0.072,0.764-0.133c0.192-0.044,0.313-0.236,0.268-0.43
				c-0.044-0.192-0.236-0.313-0.429-0.268c-1.223,0.283-2.225,0.162-2.977-0.359c-1.148-0.797-1.353-2.268-1.354-2.282
				c-0.026-0.196-0.208-0.332-0.401-0.309c-0.196,0.025-0.334,0.206-0.309,0.401c0.01,0.074,0.25,1.802,1.656,2.778
				C62.925,63.697,63.859,63.898,64.953,63.775z"/>
		</g>
		<g>
			<path fill="#121F55" d="M61.392,60.852c0.071,0,0.136,0.006,0.198,0.02c-0.12-0.34-0.158-0.589-0.159-0.594
				c-0.037-0.282-0.279-0.494-0.565-0.494c-0.022,0-0.045,0.001-0.07,0.004c-0.31,0.041-0.53,0.326-0.489,0.636
				c0.005,0.036,0.065,0.451,0.274,0.987C60.693,61.1,60.962,60.852,61.392,60.852z"/>
		</g>
		<g>
			<g>
				<path fill="#F99AB6" d="M60.719,60.549c0.183-0.093,0.331-0.371,0.112-0.625c-0.215-0.25-0.549-0.39-0.907-0.403l-0.092-0.003
					c-0.316-0.012-0.603,0.125-0.794,0.35C59.19,60.337,60.222,60.739,60.719,60.549z"/>
			</g>
		</g>
		<g>
			<g>
				<path fill="#F99AB6" d="M60.114,58.802l0.008,0.403l0.014,0.759l-0.583,0.01l-0.017-0.97l-0.008-0.375
					C59.704,58.748,59.905,58.811,60.114,58.802z"/>
			</g>
		</g>
		<g>
			<g>
				<g>
					<path fill="#F99AB6" d="M60.114,58.898l0.008,0.404c-0.207-0.031-0.458-0.123-0.588-0.275l-0.006-0.301
						C59.704,58.844,59.905,58.907,60.114,58.898z"/>
				</g>
			</g>
		</g>
		<g>
			<g>
				<path fill="#F99AB6" d="M59.969,59.107L59.969,59.107c-0.551-0.006-1.039-0.275-1.344-0.688c-0.21-0.285-0.333-0.638-0.33-1.02
					l0.006-0.666c0.005-0.482,0.212-0.917,0.541-1.221c0.306-0.284,0.717-0.457,1.168-0.452l0,0
					c0.298,0.003,0.577,0.083,0.819,0.221c0.516,0.294,0.861,0.852,0.854,1.487l-0.007,0.665c-0.006,0.612-0.336,1.145-0.826,1.437
					C60.593,59.023,60.291,59.11,59.969,59.107z"/>
			</g>
		</g>
		<g>
			<g>
				<path fill="#F7B75D" d="M61.784,64.607c0.197,0.863-0.873,1.724-1.737,1.921c-0.864,0.196-1.724-0.345-1.921-1.209
					s0.344-1.724,1.208-1.921C60.198,63.202,61.587,63.742,61.784,64.607z"/>
			</g>
		</g>
		<g>
			<g>
				<path fill="#FFFEFF" d="M60.081,58.227c0.037,0.21,0.219,0.371,0.44,0.375c0.222,0.001,0.406-0.156,0.448-0.365L60.081,58.227z"
					/>
			</g>
		</g>
		<g>
			<g>
				<path fill="#121F55" d="M61.672,60.941c0.109,0.303-0.195,0.672-0.515,0.706c-0.32,0.035-0.71-0.382-0.745-0.702
					c-0.035-0.32,0.442-1.021,0.622-0.754C61.206,60.446,61.578,60.682,61.672,60.941z"/>
			</g>
		</g>
		<g>
			<g>
				<path fill="#121F55" d="M59.038,59.867c-0.138,0.162-0.226,0.369-0.237,0.598c0,0,0.52,2.518-0.579,3.85
					c0,0,1.984,1.189,3.578,0.386c0-1.141-0.697-1.929-0.587-3.777c0.023-0.388-0.131-0.743-0.382-1
					C60.817,60.512,59.607,59.804,59.038,59.867z"/>
			</g>
		</g>
		<g>
			<g>
				<g>
					<g>
						<path fill="#2143AF" d="M60.74,72.638c0.038,0.376-0.028,0.677-0.014,0.771c0.025,0.153,0.718,0.294,0.805,0.723
							c0.118,0.586,0.889,0.647,1.014,0.672c0.319,0.063,0.603-0.099,0.436-0.408c-0.194-0.36-0.39-0.425-0.652-0.864
							c-0.384-0.644-0.413-1.079-0.616-1.463c-0.037-0.07-0.222-0.307-0.503-0.271C60.955,71.829,60.694,72.178,60.74,72.638z"/>
					</g>
				</g>
			</g>
			<g>
				<g>
					<g>
						<path fill="#F99AB6" d="M61.865,73.773c-0.215-0.316-0.586-1.341-0.537-1.59c0.058-0.293,0.626-0.416,0.705-0.176
							c0.136,0.413,0.093,1.183,0.583,1.913C62.61,74.137,62.115,74.143,61.865,73.773z"/>
					</g>
				</g>
			</g>
		</g>
		<g>
			<g>
				<g>
					<g>
						<path fill="#2143AF" d="M70.99,67.678c0.279-0.255,0.561-0.382,0.626-0.45c0.108-0.111-0.193-0.751,0.098-1.077
							c0.399-0.445-0.012-1.1-0.066-1.214c-0.141-0.294-0.439-0.425-0.589-0.105c-0.172,0.371-0.107,0.566-0.303,1.039
							c-0.287,0.693-0.617,0.977-0.804,1.368c-0.034,0.071-0.113,0.361,0.083,0.565C70.215,67.989,70.649,67.99,70.99,67.678z"/>
					</g>
				</g>
			</g>
			<g>
				<g>
					<g>
						<path fill="#F99AB6" d="M71.229,66.097c-0.125,0.361-0.725,1.271-0.953,1.382c-0.27,0.129-0.708-0.254-0.563-0.46
							c0.25-0.356,0.893-0.782,1.185-1.612C71.074,65.283,71.375,65.676,71.229,66.097z"/>
					</g>
				</g>
			</g>
		</g>
		<g>
			<path fill="#F7B75D" d="M63.453,66.92l-0.028-0.013l-3.79-1.74c-0.359-0.165-0.783-0.009-0.949,0.352
				c-0.165,0.358-0.007,0.783,0.352,0.948c0.001,0,0.006,0.003,0.007,0.003l3.261,1.455l-1.154,3.958l0.991,0.328l1.653-4.456
				C63.918,67.427,63.765,67.064,63.453,66.92z"/>
		</g>
		<g>
			<path fill="#F99AB6" d="M59.973,64.75c0.185,0,0.381-0.011,0.589-0.032c0.196-0.021,0.339-0.196,0.319-0.393
				c-0.021-0.196-0.197-0.339-0.393-0.319c-0.66,0.068-1.511,0.046-1.81-0.444c-0.472-0.774,0.42-2.479,0.769-3.014
				c0.108-0.166,0.061-0.388-0.104-0.495c-0.165-0.108-0.387-0.062-0.495,0.104c-0.163,0.251-1.57,2.482-0.78,3.779
				C58.398,64.477,59.038,64.75,59.973,64.75z"/>
		</g>
		<g>
			<g>
				<path fill="#FFFFFF" d="M58.11,56.917c0,0,1.199,0.429,1.948-0.092c0.748-0.521,1.091-1.324,0.763-1.794
					c-0.327-0.47-1.199-0.428-1.947,0.092C58.125,55.644,58.11,56.917,58.11,56.917z"/>
			</g>
		</g>
		<g>
			<path fill="#F7B75D" d="M59.602,64.999c0,0,0.664,0.017,1.658,0.059c0.498,0.022,1.077,0.051,1.698,0.08
				c0.621,0.037,1.283,0.076,1.945,0.115l0.249,0.016l0.062,0.003l0.016,0.001l0.069,0.006l0.031,0.005l0.122,0.019l0.245,0.037
				l0.015,0.002l0.059,0.011l0.007,0.002l0.03,0.008l0.06,0.015l0.12,0.029c0.316,0.078,0.628,0.156,0.931,0.23
				c0.301,0.075,0.594,0.144,0.87,0.219c0.276,0.072,0.537,0.141,0.777,0.204c0.482,0.125,0.881,0.239,1.162,0.316
				c0.279,0.08,0.438,0.126,0.438,0.126l-0.2,0.898c0,0-0.165-0.027-0.452-0.073c-0.286-0.05-0.696-0.114-1.185-0.208
				c-0.245-0.045-0.51-0.094-0.791-0.145c-0.281-0.05-0.575-0.113-0.88-0.173c-0.305-0.061-0.621-0.123-0.941-0.188l-0.121-0.023
				l-0.06-0.013l-0.03-0.006l-0.008-0.001c-0.012-0.003,0.097,0.017,0.049,0.009l-0.003-0.001l-0.015-0.001l-0.246-0.029
				l-0.124-0.016l-0.031-0.004h-0.003c-0.013-0.001,0.098,0.01,0.049,0.005l-0.007-0.001l-0.016-0.001l-0.062-0.002l-0.248-0.01
				c-0.663-0.025-1.327-0.052-1.948-0.076c-0.621-0.031-1.2-0.061-1.698-0.086c-0.993-0.057-1.655-0.104-1.655-0.104L59.602,64.999z
				"/>
		</g>
		<g>
			<g>
				<path fill="#121F55" d="M59.819,65.421c0-0.119,0.096-0.215,0.215-0.215h7.793c0.163,0,0.296,0.097,0.296,0.215
					s-0.133,0.216-0.296,0.216h-7.793C59.916,65.637,59.819,65.539,59.819,65.421L59.819,65.421z"/>
			</g>
			<g>
				<path fill="#FFFFFF" d="M59.514,65.421c0,0.118,0.104,0.216,0.232,0.216h2.959c0.127,0,0.231-0.098,0.231-0.216
					s-0.104-0.215-0.231-0.215h-2.959C59.618,65.206,59.514,65.303,59.514,65.421z"/>
			</g>
			<g>
				<path fill="#FFFFFF" d="M68.112,61.173v3.93c0,0.176-0.142,0.317-0.317,0.317h-5.185c-0.176,0-0.317-0.142-0.317-0.317v-3.93
					c0-0.175,0.142-0.317,0.317-0.317h5.185C67.97,60.856,68.112,60.998,68.112,61.173z"/>
			</g>
			<g>
				<path fill="#FFFFFF" d="M68.354,61.173v3.93c0,0.176-0.142,0.317-0.317,0.317h-5.185c-0.175,0-0.317-0.142-0.317-0.317v-3.93
					c0-0.175,0.142-0.317,0.317-0.317h5.185C68.212,60.856,68.354,60.998,68.354,61.173z"/>
			</g>
			<g>
				<path fill="#B9B8F1" d="M64.59,63.138L64.59,63.138c0-0.185,0.149-0.334,0.333-0.334h1.042c0.185,0,0.334,0.149,0.334,0.334l0,0
					c0,0.185-0.149,0.335-0.334,0.335h-1.042C64.739,63.473,64.59,63.322,64.59,63.138z"/>
			</g>
		</g>
		<g>
			<path fill="#121F55" d="M58.444,60.79c0.423,0,0.689,0.241,0.805,0.544c0.131-0.269,0.265-0.506,0.374-0.673
				c0.17-0.262,0.096-0.613-0.166-0.785c-0.092-0.06-0.199-0.092-0.309-0.092c-0.193,0-0.371,0.096-0.477,0.257
				c-0.081,0.125-0.255,0.405-0.439,0.771C58.298,60.799,58.369,60.79,58.444,60.79z"/>
		</g>
		<g>
			<g>
				<path fill="#F99AB6" d="M62.113,64.081c0.086,0.194,0.094,0.403,0.038,0.592l-1.203,0.533c-0.177-0.087-0.327-0.233-0.413-0.428
					c-0.192-0.436,0.004-0.944,0.44-1.138S61.92,63.645,62.113,64.081z"/>
			</g>
		</g>
	</g>
	<g>
		<path fill="#B9B8F1" d="M117.272,89.023H17.531c-0.318,0-0.577-0.258-0.577-0.576s0.258-0.577,0.577-0.577h99.742
			c0.319,0,0.577,0.259,0.577,0.577S117.592,89.023,117.272,89.023z"/>
	</g>
	<g>
		<g>
			<path fill="#B9B8F1" d="M94.503,93.119H79.119c-0.318,0-0.577-0.259-0.577-0.577s0.259-0.576,0.577-0.576h15.384
				c0.319,0,0.577,0.258,0.577,0.576S94.822,93.119,94.503,93.119z"/>
		</g>
		<g>
			<path fill="#B9B8F1" d="M74.504,93.119h-3.846c-0.318,0-0.577-0.259-0.577-0.577s0.259-0.576,0.577-0.576h3.846
				c0.319,0,0.577,0.258,0.577,0.576S74.823,93.119,74.504,93.119z"/>
		</g>
	</g>
	<g>
		<g>
			<g>
				<g>
					<path fill="#2143AF" d="M85.604,90.388c-0.197,0-0.391-0.091-0.517-0.261l-2.208-3.023c-0.172-0.234-0.162-0.557,0.023-0.781
						l2.886-3.505c0.224-0.272,0.626-0.312,0.897-0.088c0.271,0.225,0.311,0.627,0.087,0.898l-2.571,3.123l1.916,2.623
						c0.209,0.284,0.146,0.684-0.139,0.892C85.865,90.349,85.733,90.388,85.604,90.388z"/>
				</g>
			</g>
		</g>
		<g>
			<g>
				<g>
					<path fill="#2143AF" d="M89.842,90.382c-0.131,0-0.263-0.04-0.376-0.122c-0.285-0.209-0.347-0.608-0.139-0.893l1.925-2.629
						l-2.561-3.114c-0.224-0.272-0.185-0.675,0.087-0.898s0.674-0.185,0.897,0.088l2.876,3.496c0.186,0.226,0.194,0.547,0.022,0.782
						l-2.217,3.029C90.232,90.292,90.038,90.382,89.842,90.382z"/>
				</g>
			</g>
		</g>
		<g>
			<g>
				<g>
					<path fill="#121F55" d="M86.039,78.909c0,1.018,0.824,1.842,1.842,1.842c1.017,0,1.84-0.824,1.84-1.842
						c0-1.016-0.823-1.479-1.84-1.479C86.863,77.431,86.039,77.894,86.039,78.909z"/>
				</g>
			</g>
		</g>
		<g>
			<g>
				<g>
					<polygon fill="#F99AB6" points="87.205,81.171 87.21,82.922 87.214,84.065 88.556,84.063 88.487,81.265 88.469,80.468 					"/>
				</g>
			</g>
		</g>
		<g>
			<g>
				<g>
					<path fill="#2143AF" d="M85.792,83.914c0.004-0.547,0.477-1.074,0.965-1.329c0.732-0.381,1.861-0.116,2.221,0.099
						c0.612,0.364,0.978,1.104,0.935,1.865l0.043,4.082H85.62C85.62,88.631,85.782,85.156,85.792,83.914z"/>
				</g>
			</g>
		</g>
		<g>
			<g>
				<g>
					<path fill="#F99AB6" d="M88.748,82.58c-0.534-0.225-1.286-0.3-1.895-0.039l0.45,0.451c0.285,0.284,0.747,0.284,1.032,0
						C88.474,82.854,88.61,82.717,88.748,82.58z"/>
				</g>
			</g>
		</g>
		<g>
			<g>
				<g>
					<path fill="#F99AB6" d="M87.531,77.856h0.698c0.617,0,1.194,0.505,1.117,1.117c-0.056,0.446,0,0.78,0,1.441
						c0,0.556-0.649,1.631-1.204,1.631h-0.524c-0.555,0-1.204-1.075-1.204-1.631c0-0.661,0.056-0.995,0-1.441
						C86.336,78.361,86.914,77.856,87.531,77.856z"/>
				</g>
			</g>
		</g>
		<g>
			<g>
				<g>
					<path fill="#FFFEFF" d="M88.446,81.049c-0.051,0.268-0.284,0.47-0.565,0.47c-0.282,0-0.517-0.202-0.566-0.47H88.446z"/>
				</g>
			</g>
		</g>
		<g>
			<g>
				<g>
					<path fill="#566CD3" d="M88.483,92.535h-1.393c-1.001,0-1.751-0.915-1.556-1.897l0.085-2.007h4.335l0.083,2.007
						C90.234,91.62,89.484,92.535,88.483,92.535z"/>
				</g>
			</g>
		</g>
		<g>
			<g>
				<g>
					<path fill="#566CD3" d="M81.444,90.296l5.918-0.564l0.17,1.772l-5.919,0.564c-0.484,0.046-0.915-0.31-0.962-0.794l-0.001-0.018
						C80.604,90.771,80.959,90.342,81.444,90.296z"/>
				</g>
			</g>
		</g>
		<g>
			<g>
				<g>
					<path fill="#566CD3" d="M93.26,90.296l-5.919-0.564l-0.169,1.772l5.919,0.564c0.484,0.046,0.915-0.31,0.961-0.794l0.002-0.018
						C94.1,90.771,93.744,90.342,93.26,90.296z"/>
				</g>
			</g>
		</g>
		<g>
			<g>
				<g>
					<path fill="#FFFFFF" d="M90.104,91.499H85.47c-0.237,0-0.431-0.193-0.431-0.432v-3.071c0-0.238,0.193-0.431,0.431-0.431h4.635
						c0.237,0,0.431,0.192,0.431,0.431v3.071C90.535,91.306,90.342,91.499,90.104,91.499z"/>
				</g>
			</g>
		</g>
		<g>
			<g>
				<g>
					<path fill="#B9B8F1" d="M90.104,91.682H85.47c-0.237,0-0.431-0.193-0.431-0.432v-3.071c0-0.239,0.193-0.431,0.431-0.431h4.635
						c0.237,0,0.431,0.191,0.431,0.431v3.071C90.535,91.488,90.342,91.682,90.104,91.682z"/>
				</g>
			</g>
		</g>
		<g>
			<g>
				<g>
					<path fill="#FFFFFF" d="M88.422,90.042h-1.27c-0.179,0-0.324-0.146-0.324-0.325v-0.006c0-0.18,0.146-0.324,0.324-0.324h1.27
						c0.179,0,0.324,0.145,0.324,0.324v0.006C88.746,89.896,88.601,90.042,88.422,90.042z"/>
				</g>
			</g>
		</g>
		<g>
			<g>
				<g>
					<g>
						<path fill="#FFFFFF" d="M85.454,93.307l1.725-0.104l-0.005,0.032c-0.017,0.101,0.063,0.191,0.164,0.188
							c0.078-0.003,0.143-0.059,0.155-0.136l0.018-0.105l0.193-0.011l-0.008,0.05c-0.017,0.1,0.062,0.19,0.163,0.188
							c0.078-0.002,0.144-0.059,0.155-0.135l0.021-0.123l1.085-0.064c0.023-0.008,0.046-0.021,0.066-0.035
							c0.043-0.009,0.085-0.02,0.127-0.035c0.5-0.181,0.758-0.731,0.577-1.23c-0.18-0.499-0.731-0.758-1.231-0.577
							c-0.003,0.002-0.006,0.003-0.01,0.005c-0.002,0-0.003,0-0.006,0.001l-3.424,1.239c-0.055,0.02-0.102,0.053-0.144,0.097
							C84.797,92.844,85.05,93.331,85.454,93.307z"/>
					</g>
				</g>
			</g>
			<g id="_x38_._Right_shoe_240_">
				<g>
					<g>
						<g>
							<circle fill="#F7B75D" cx="88.993" cy="92.348" r="0.961"/>
						</g>
					</g>
				</g>
				<g>
					<g>
						<g>
							<path fill="#F7B75D" d="M85.226,92.688l3.424-1.238c0.362-0.132,0.762,0.057,0.893,0.418l0,0
								c0.132,0.362-0.053,1.322-0.415,1.453l-3.667,0.221c-0.403,0.024-0.657-0.464-0.377-0.756
								C85.124,92.742,85.172,92.708,85.226,92.688z"/>
						</g>
					</g>
				</g>
				<g>
					<g>
						<g>
							<path fill="#FFFFFF" d="M87.918,92.953L87.918,92.953c0.102-0.002,0.181,0.088,0.164,0.188l-0.061,0.367
								c-0.013,0.077-0.078,0.134-0.155,0.136l0,0c-0.102,0.003-0.181-0.088-0.164-0.188l0.061-0.367
								C87.775,93.013,87.84,92.955,87.918,92.953z"/>
						</g>
					</g>
				</g>
				<g>
					<g>
						<g>
							<path fill="#FFFFFF" d="M87.396,92.968L87.396,92.968c0.101-0.003,0.18,0.088,0.163,0.188l-0.061,0.366
								c-0.012,0.077-0.077,0.134-0.155,0.136l0,0c-0.102,0.003-0.181-0.088-0.164-0.188l0.061-0.366
								C87.253,93.026,87.318,92.97,87.396,92.968z"/>
						</g>
					</g>
				</g>
			</g>
		</g>
		<g>
			<g>
				<g>
					<path fill="#F99AB6" d="M92.899,90.669L88.9,91.744c-0.384,0.104-0.612,0.499-0.509,0.884l0.004,0.015
						c0.104,0.384,0.498,0.612,0.883,0.508l3.999-1.075c0.385-0.104,0.612-0.499,0.509-0.884l-0.004-0.014
						C93.679,90.793,93.284,90.565,92.899,90.669z"/>
				</g>
			</g>
		</g>
		<g>
			<g>
				<g>
					<g>
						<path fill="#FFFFFF" d="M89.249,93.307l-1.725-0.104l0.006,0.032c0.017,0.101-0.063,0.191-0.165,0.188
							c-0.077-0.003-0.142-0.059-0.154-0.136l-0.018-0.105L87,93.172l0.008,0.05c0.016,0.1-0.063,0.19-0.164,0.188
							c-0.078-0.002-0.144-0.059-0.156-0.135l-0.02-0.123l-1.085-0.064c-0.022-0.008-0.045-0.021-0.067-0.035
							c-0.042-0.009-0.084-0.02-0.127-0.035c-0.498-0.181-0.757-0.731-0.576-1.23s0.732-0.758,1.23-0.577
							c0.004,0.002,0.008,0.003,0.011,0.005c0.002,0,0.004,0,0.006,0.001l3.424,1.239c0.055,0.02,0.103,0.053,0.144,0.097
							C89.906,92.844,89.653,93.331,89.249,93.307z"/>
					</g>
				</g>
			</g>
			<g id="_x38_._Right_shoe_239_">
				<g>
					<g>
						<g>
							<circle fill="#F7B75D" cx="85.71" cy="92.348" r="0.961"/>
						</g>
					</g>
				</g>
				<g>
					<g>
						<g>
							<path fill="#F7B75D" d="M89.478,92.688l-3.425-1.238c-0.361-0.132-0.762,0.057-0.892,0.418l0,0
								c-0.131,0.362,0.054,1.322,0.416,1.453l3.666,0.221c0.404,0.024,0.657-0.464,0.378-0.756
								C89.579,92.742,89.531,92.708,89.478,92.688z"/>
						</g>
					</g>
				</g>
				<g>
					<g>
						<g>
							<path fill="#FFFFFF" d="M86.785,92.953L86.785,92.953c-0.102-0.002-0.18,0.088-0.163,0.188l0.06,0.367
								c0.013,0.077,0.077,0.134,0.155,0.136l0,0c0.102,0.003,0.181-0.088,0.164-0.188l-0.06-0.367
								C86.928,93.013,86.863,92.955,86.785,92.953z"/>
						</g>
					</g>
				</g>
				<g>
					<g>
						<g>
							<path fill="#FFFFFF" d="M87.308,92.968L87.308,92.968c-0.102-0.003-0.181,0.088-0.164,0.188l0.062,0.366
								c0.012,0.077,0.077,0.134,0.154,0.136l0,0c0.103,0.003,0.181-0.088,0.164-0.188l-0.061-0.366
								C87.451,93.026,87.386,92.97,87.308,92.968z"/>
						</g>
					</g>
				</g>
			</g>
		</g>
		<g>
			<g>
				<g>
					<path fill="#F99AB6" d="M81.805,90.669l3.998,1.075c0.385,0.104,0.612,0.499,0.509,0.884l-0.004,0.015
						c-0.103,0.384-0.499,0.612-0.883,0.508l-3.999-1.075c-0.385-0.104-0.612-0.499-0.509-0.884l0.004-0.014
						C81.024,90.793,81.42,90.565,81.805,90.669z"/>
				</g>
			</g>
		</g>
		<g>
			<g>
				<g>
					<path fill="#121F55" d="M87.991,77.145c1.678,0,1.647,1.799,1.647,1.799c-1.758,0.336-2.434-0.91-2.434-1.153
						C87.205,77.79,87.39,77.145,87.991,77.145z"/>
				</g>
			</g>
		</g>
		<g>
			<g>
				<g>
					<path fill="#121F55" d="M87.119,77.541c-1.34-0.179-1.036,1.58-1.036,1.58c0.885-0.171,1.408-0.89,1.377-1.049L87.119,77.541z"
						/>
				</g>
			</g>
		</g>
	</g>
	<g>
		<g>
			<g>
				<g>
					<path fill="#B9B8F1" d="M56.271,70.485c-0.179,0-0.354-0.082-0.466-0.238c-0.117-0.159-0.23-0.321-0.34-0.485
						c-0.177-0.263-0.108-0.62,0.155-0.798c0.264-0.177,0.621-0.108,0.798,0.155c0.104,0.153,0.21,0.305,0.318,0.456
						c0.186,0.257,0.128,0.616-0.13,0.802C56.505,70.45,56.388,70.485,56.271,70.485z"/>
				</g>
			</g>
			<g>
				<g>
					<path fill="#B9B8F1" d="M70.873,77.965c-0.191,0-0.385-0.003-0.576-0.01c-0.317-0.01-0.565-0.276-0.555-0.593
						c0.01-0.312,0.266-0.557,0.573-0.557c0.007,0,0.014,0,0.02,0.001c0.194,0.007,0.388,0.011,0.581,0.009
						c0.188,0,0.373-0.002,0.558-0.008c0.007-0.001,0.013-0.001,0.02-0.001c0.309,0,0.564,0.246,0.573,0.557
						c0.011,0.317-0.238,0.582-0.555,0.592C71.3,77.963,71.097,77.965,70.873,77.965z M73.834,77.731
						c-0.276,0-0.521-0.2-0.566-0.482c-0.051-0.313,0.161-0.608,0.475-0.659c0.378-0.062,0.751-0.135,1.12-0.22
						c0.308-0.071,0.618,0.122,0.688,0.433c0.071,0.31-0.123,0.617-0.432,0.688c-0.393,0.091-0.789,0.168-1.191,0.233
						C73.896,77.729,73.864,77.731,73.834,77.731z M67.976,77.728c-0.031,0-0.062-0.003-0.093-0.008
						c-0.395-0.064-0.795-0.144-1.191-0.235c-0.309-0.072-0.502-0.381-0.431-0.689c0.072-0.311,0.382-0.501,0.69-0.431
						c0.372,0.087,0.748,0.161,1.116,0.221c0.313,0.051,0.526,0.346,0.475,0.66C68.497,77.526,68.253,77.728,67.976,77.728z
						 M77.243,76.828c-0.232,0-0.452-0.143-0.538-0.374c-0.11-0.297,0.04-0.629,0.338-0.738c0.355-0.134,0.711-0.28,1.053-0.434
						c0.289-0.133,0.629-0.002,0.761,0.287c0.131,0.289,0.002,0.63-0.288,0.76c-0.365,0.165-0.744,0.321-1.124,0.462
						C77.379,76.815,77.311,76.828,77.243,76.828z M64.57,76.819c-0.067,0-0.135-0.012-0.201-0.036
						c-0.377-0.142-0.755-0.298-1.122-0.464c-0.29-0.131-0.418-0.471-0.287-0.76c0.131-0.29,0.471-0.418,0.761-0.287
						c0.344,0.156,0.699,0.302,1.052,0.434c0.297,0.112,0.448,0.443,0.336,0.741C65.022,76.678,64.803,76.819,64.57,76.819z
						 M80.41,75.276c-0.192,0-0.381-0.096-0.489-0.272c-0.166-0.27-0.083-0.624,0.187-0.791c0.324-0.199,0.643-0.411,0.949-0.63
						c0.258-0.184,0.617-0.125,0.802,0.135c0.184,0.258,0.124,0.617-0.135,0.801c-0.327,0.233-0.667,0.459-1.012,0.673
						C80.617,75.249,80.514,75.276,80.41,75.276z M61.407,75.265c-0.104,0-0.207-0.027-0.302-0.086
						c-0.341-0.212-0.681-0.438-1.011-0.674c-0.258-0.185-0.318-0.543-0.133-0.801c0.184-0.259,0.544-0.318,0.801-0.134
						c0.31,0.221,0.628,0.434,0.947,0.631c0.271,0.167,0.354,0.521,0.187,0.791C61.788,75.168,61.6,75.265,61.407,75.265z
						 M83.214,73.14c-0.154,0-0.309-0.062-0.422-0.184c-0.215-0.231-0.202-0.596,0.03-0.812c0.278-0.26,0.549-0.526,0.809-0.803
						c0.22-0.231,0.583-0.239,0.813-0.022c0.23,0.219,0.24,0.582,0.022,0.813c-0.275,0.29-0.565,0.578-0.861,0.853
						C83.494,73.089,83.354,73.14,83.214,73.14z M58.606,73.125c-0.141,0-0.28-0.051-0.391-0.153
						c-0.293-0.272-0.583-0.56-0.862-0.855c-0.219-0.231-0.208-0.595,0.022-0.813s0.595-0.207,0.813,0.023
						c0.261,0.276,0.529,0.544,0.808,0.802c0.232,0.217,0.246,0.58,0.029,0.813C58.914,73.063,58.76,73.125,58.606,73.125z"/>
				</g>
			</g>
			<g>
				<g>
					<path fill="#B9B8F1" d="M85.564,70.485c-0.117,0-0.234-0.035-0.336-0.108c-0.258-0.186-0.315-0.545-0.13-0.802
						c0.109-0.151,0.216-0.304,0.321-0.457c0.178-0.263,0.535-0.331,0.798-0.152c0.263,0.177,0.331,0.534,0.152,0.798
						c-0.11,0.162-0.224,0.324-0.34,0.483C85.919,70.403,85.743,70.485,85.564,70.485z"/>
				</g>
			</g>
		</g>
		<g>
			<rect x="54.47" y="67.908" fill="#FFFFFF" width="2.692" height="2.692"/>
		</g>
		<g>
			<rect x="69.469" y="75.985" fill="#FFFFFF" width="2.692" height="2.692"/>
		</g>
		<g>
			<rect x="84.468" y="67.908" fill="#FFFFFF" width="2.692" height="2.692"/>
		</g>
		<g>
			<g>
				<path fill="#2143AF" d="M74.695,83.786c-0.261-1.691-2.779-4.712-3.793-5.843v5.73c0.171,0.116,0.347,0.303,0.347,0.526
					c0,0.364-0.295,0.661-0.661,0.661c-0.364,0-0.603-0.297-0.603-0.661c0-0.221,0.171-0.403,0.339-0.521v-5.715
					c-0.939,1.031-3.889,4.352-3.889,6.151c0,2.146,1.786,3.799,1.786,3.799h4.687C72.908,87.915,75.024,85.933,74.695,83.786z"/>
			</g>
		</g>
	</g>
</g>
</svg>
