<?xml version="1.0" encoding="utf-8"?>
<!-- Generator: Adobe Illustrator 16.0.3, SVG Export Plug-In . SVG Version: 6.00 Build 0)  -->
<!DOCTYPE svg PUBLIC "-//W3C//DTD SVG 1.1//EN" "http://www.w3.org/Graphics/SVG/1.1/DTD/svg11.dtd">
<svg version="1.1" id="Ebene_1" xmlns="http://www.w3.org/2000/svg" xmlns:xlink="http://www.w3.org/1999/xlink" x="0px" y="0px"
	 width="600px" height="450px" viewBox="-230 -165 600 450" enable-background="new -230 -165 600 450" xml:space="preserve">
<g>
	<g>
		<g>
			<path fill="#E5E9FF" d="M182.517,88.762h95.545c-7.055,0-13.473,2.792-18.097,7.451c-4.645,4.684-7.511,10.187-7.511,17.315
				c0,14.243,11.47,24.847,25.607,24.847h-95.545c7.055,0,13.455-2.015,18.1-6.652c4.621-4.652,7.49-10.575,7.49-17.711
				C208.106,99.754,196.651,88.762,182.517,88.762z"/>
		</g>
		<g>
			<circle fill="#E5E9FF" cx="68.034" cy="64.349" r="186.029"/>
		</g>
		<g>
			<path fill="#E5E9FF" d="M-78.267,172.004h76.352c7.87,0,14.249,6.383,14.249,14.254l0,0c0,7.868-6.379,14.254-14.249,14.254
				h-76.352c-7.87,0-14.25-6.383-14.25-14.254l0,0C-92.514,178.387-86.137,172.004-78.267,172.004z"/>
		</g>
		<g>
			<path fill="#E5E9FF" d="M-96.654,228.053H16.473c5.101,0,9.237,4.137,9.237,9.237l0,0c0,5.101-4.137,9.237-9.237,9.237H-96.654
				c-5.101,0-9.236-4.137-9.236-9.237l0,0C-105.887,232.189-101.755,228.053-96.654,228.053z"/>
		</g>
		<g>
			<path fill="#E5E9FF" d="M150.439,246.664h17.263c5.104,0,9.233,4.134,9.233,9.241l0,0c0,5.101-4.13,9.23-9.233,9.23h-17.263
				c-5.101,0-9.234-4.13-9.234-9.23l0,0C141.198,250.805,145.339,246.664,150.439,246.664z"/>
		</g>
		<g>
			<path fill="#E5E9FF" d="M141.863,192.024h84.066c8.365,0,15.154,6.788,15.154,15.153l0,0c0,8.373-6.789,15.154-15.154,15.154
				h-84.066c-8.365,0-15.153-6.781-15.153-15.154l0,0C126.71,198.813,133.498,192.024,141.863,192.024z"/>
		</g>
		<g>
			<path fill="#E5E9FF" d="M146.193,37.563H283.33c14.135,0,25.601,11.462,25.601,25.598l0,0c0,14.132-11.462,25.597-25.601,25.597
				H146.193c-14.139,0-25.6-11.465-25.6-25.597l0,0C120.594,49.025,132.055,37.563,146.193,37.563z"/>
		</g>
		<g>
			<path fill="#E5E9FF" d="M-65.104,200.459h53.195c-3.927,0-7.5,1.703-10.074,4.274c-2.587,2.585-4.183,5.636-4.183,9.577
				c0,7.871,6.384,13.738,14.257,13.738h-53.195c3.931,0,7.493-1.044,10.075-3.604c2.576-2.574,4.168-5.969,4.168-9.91
				C-50.861,206.659-57.235,200.459-65.104,200.459z"/>
		</g>
		<g>
			<path fill="#E5E9FF" d="M94.601,138.49h203.197c9.164,0,16.59,7.427,16.59,16.591l0,0c0,9.164-7.426,16.59-16.59,16.59H94.601
				c-9.164,0-16.59-7.426-16.59-16.59l0,0C78.011,145.917,85.437,138.49,94.601,138.49z"/>
		</g>
		<g>
			<path fill="#E5E9FF" d="M28.812,15.301h-160.698c-15.009,0-27.176-12.166-27.176-27.178l0,0
				c0-15.009,12.171-27.177,27.176-27.177H28.812c15.009,0,27.18,12.171,27.18,27.177l0,0C55.992,3.139,43.821,15.301,28.812,15.301
				z"/>
		</g>
		<g>
			<path fill="#E5E9FF" d="M95.743,172.652h-232.22c-21.693,0-39.272-17.582-39.272-39.276l0,0c0-21.69,17.58-39.269,39.276-39.269
				H95.743c21.69,0,39.272,17.578,39.272,39.269l0,0C135.019,155.07,117.434,172.652,95.743,172.652z"/>
		</g>
		<g>
			<path fill="#E5E9FF" d="M227.142-47.135H98.938c-11.974,0-21.684-9.71-21.684-21.68l0,0c0-11.977,9.71-21.684,21.684-21.684
				h128.204c11.974,0,21.684,9.707,21.684,21.684l0,0C248.825-56.846,239.115-47.135,227.142-47.135z"/>
		</g>
		<g>
			<path fill="#E5E9FF" d="M75.432-82.432H-89.258c-10.84,0-19.624-8.786-19.624-19.622l0,0c0-10.837,8.784-19.623,19.624-19.623
				H75.432c10.839,0,19.628,8.786,19.628,19.623l0,0C95.057-91.217,86.268-82.432,75.432-82.432z"/>
		</g>
		<g>
			<path fill="#E5E9FF" d="M187.708-121.676h-30.445c-6.516,0-11.802-5.282-11.802-11.8l0,0c0-6.516,5.286-11.802,11.802-11.802
				h30.445c6.512,0,11.795,5.283,11.795,11.802l0,0C199.503-126.958,194.227-121.676,187.708-121.676z"/>
		</g>
	</g>
	<g>
		<g>
			<g>
				<rect x="-61.585" y="42.837" fill="#566CD3" width="20.099" height="20.101"/>
			</g>
		</g>
	</g>
	<g>
		<g>
			<g>
				<g>
					<path fill="#B9B8F1" d="M-20.647,85.153h-1.38c-0.76,0-1.38-0.616-1.38-1.38s0.617-1.381,1.38-1.381
						c0-0.764,0.616-1.38,1.38-1.38c0.762,0,1.379,0.616,1.379,1.38v1.381C-19.269,84.537-19.885,85.153-20.647,85.153z"/>
				</g>
			</g>
			<g>
				<g>
					<path fill="#B9B8F1" d="M-27.483,85.153h-2.726c-0.765,0-1.382-0.616-1.382-1.38s0.617-1.381,1.382-1.381h2.726
						c0.764,0,1.38,0.617,1.38,1.381S-26.72,85.153-27.483,85.153z M-35.661,85.153h-2.727c-0.76,0-1.38-0.616-1.38-1.38
						s0.617-1.381,1.38-1.381h2.727c0.76,0,1.376,0.617,1.376,1.381S-34.901,85.153-35.661,85.153z M-43.844,85.153h-2.726
						c-0.762,0-1.382-0.616-1.382-1.38s0.62-1.381,1.382-1.381h2.726c0.76,0,1.376,0.617,1.376,1.381S-43.084,85.153-43.844,85.153z
						 M-52.026,85.153h-2.727c-0.76,0-1.376-0.616-1.376-1.38s0.617-1.381,1.376-1.381h2.727c0.764,0,1.38,0.617,1.38,1.381
						S-51.262,85.153-52.026,85.153z"/>
				</g>
			</g>
			<g>
				<g>
					<path fill="#B9B8F1" d="M-60.205,85.153h-1.38c-0.762,0-1.382-0.616-1.382-1.38v-1.381c0-0.764,0.616-1.38,1.382-1.38
						c0.764,0,1.38,0.616,1.38,1.38c0.76,0,1.378,0.617,1.378,1.381S-59.445,85.153-60.205,85.153z"/>
				</g>
			</g>
			<g>
				<g>
					<path fill="#B9B8F1" d="M-61.585,78.322c-0.762,0-1.382-0.62-1.382-1.384v-2.725c0-0.764,0.616-1.384,1.382-1.384
						c0.764,0,1.38,0.62,1.38,1.384v2.725C-60.205,77.702-60.822,78.322-61.585,78.322z M-61.585,70.14
						c-0.762,0-1.382-0.617-1.382-1.38V66.03c0-0.76,0.616-1.38,1.382-1.38c0.764,0,1.38,0.62,1.38,1.38v2.729
						C-60.205,69.522-60.822,70.14-61.585,70.14z M-61.585,61.956c-0.762,0-1.382-0.612-1.382-1.378v-2.726
						c0-0.76,0.616-1.382,1.382-1.382c0.764,0,1.38,0.622,1.38,1.382v2.726C-60.205,61.344-60.822,61.956-61.585,61.956z
						 M-61.585,53.773c-0.762,0-1.382-0.613-1.382-1.38v-2.727c0-0.76,0.616-1.377,1.382-1.377c0.764,0,1.38,0.617,1.38,1.377v2.727
						C-60.205,53.16-60.822,53.773-61.585,53.773z"/>
				</g>
			</g>
			<g>
				<g>
					<path fill="#B9B8F1" d="M-61.585,45.596c-0.762,0-1.382-0.619-1.382-1.379v-1.38c0-0.76,0.616-1.382,1.382-1.382h1.38
						c0.76,0,1.378,0.618,1.378,1.382s-0.619,1.38-1.378,1.38C-60.205,44.977-60.822,45.596-61.585,45.596z"/>
				</g>
			</g>
			<g>
				<g>
					<path fill="#B9B8F1" d="M-27.483,44.213h-2.726c-0.765,0-1.382-0.616-1.382-1.38s0.617-1.382,1.382-1.382h2.726
						c0.764,0,1.38,0.619,1.38,1.382S-26.72,44.213-27.483,44.213z M-35.661,44.213h-2.727c-0.76,0-1.38-0.616-1.38-1.38
						s0.617-1.382,1.38-1.382h2.727c0.76,0,1.376,0.619,1.376,1.382S-34.901,44.213-35.661,44.213z M-43.844,44.213h-2.726
						c-0.762,0-1.382-0.616-1.382-1.38s0.62-1.382,1.382-1.382h2.726c0.76,0,1.376,0.619,1.376,1.382S-43.084,44.213-43.844,44.213z
						 M-52.026,44.213h-2.727c-0.76,0-1.376-0.616-1.376-1.38s0.617-1.382,1.376-1.382h2.727c0.764,0,1.38,0.619,1.38,1.382
						S-51.262,44.213-52.026,44.213z"/>
				</g>
			</g>
			<g>
				<g>
					<path fill="#B9B8F1" d="M-20.647,45.596c-0.764,0-1.38-0.619-1.38-1.379c-0.76,0-1.38-0.616-1.38-1.38s0.617-1.382,1.38-1.382
						h1.38c0.762,0,1.379,0.618,1.379,1.382v1.38C-19.269,44.977-19.885,45.596-20.647,45.596z"/>
				</g>
			</g>
			<g>
				<g>
					<path fill="#B9B8F1" d="M-20.647,78.322c-0.764,0-1.38-0.62-1.38-1.384v-2.725c0-0.764,0.616-1.384,1.38-1.384
						c0.762,0,1.379,0.62,1.379,1.384v2.725C-19.269,77.702-19.885,78.322-20.647,78.322z M-20.647,70.14
						c-0.764,0-1.38-0.617-1.38-1.38V66.03c0-0.76,0.616-1.377,1.38-1.377c0.762,0,1.379,0.617,1.379,1.377v2.729
						C-19.269,69.522-19.885,70.14-20.647,70.14z M-20.647,61.96c-0.764,0-1.38-0.616-1.38-1.382v-2.729
						c0-0.76,0.616-1.382,1.38-1.382c0.762,0,1.379,0.622,1.379,1.382v2.729C-19.269,61.344-19.885,61.96-20.647,61.96z
						 M-20.647,53.773c-0.764,0-1.38-0.613-1.38-1.38v-2.727c0-0.76,0.616-1.377,1.38-1.377c0.762,0,1.379,0.617,1.379,1.377v2.727
						C-19.269,53.16-19.885,53.773-20.647,53.773z"/>
				</g>
			</g>
		</g>
		<g>
			<g>
				<g>
					<path fill="#B9B8F1" d="M-41.487,64.311h-1.382c-0.76,0-1.377-0.609-1.377-1.373s0.617-1.381,1.377-1.381
						c0-0.764,0.617-1.38,1.382-1.38c0.76,0,1.376,0.616,1.376,1.38v1.381C-40.11,63.701-40.723,64.311-41.487,64.311z"/>
				</g>
			</g>
			<g>
				<g>
					<path fill="#B9B8F1" d="M-48.321,64.311h-2.725c-0.766,0-1.382-0.609-1.382-1.373s0.617-1.381,1.382-1.381h2.725
						c0.764,0,1.382,0.617,1.382,1.381S-47.558,64.311-48.321,64.311z M-56.499,64.311h-2.727c-0.76,0-1.38-0.609-1.38-1.373
						s0.617-1.381,1.38-1.381h2.727c0.76,0,1.38,0.617,1.38,1.381C-55.123,63.701-55.739,64.311-56.499,64.311z M-64.682,64.311
						h-2.725c-0.764,0-1.382-0.609-1.382-1.373s0.619-1.381,1.382-1.381h2.725c0.764,0,1.382,0.617,1.382,1.381
						S-63.918,64.311-64.682,64.311z M-72.863,64.311h-2.724c-0.76,0-1.38-0.609-1.38-1.373s0.617-1.381,1.38-1.381h2.724
						c0.764,0,1.38,0.617,1.38,1.381C-71.487,63.701-72.1,64.311-72.863,64.311z"/>
				</g>
			</g>
			<g>
				<g>
					<path fill="#B9B8F1" d="M-81.046,64.311h-1.38c-0.76,0-1.382-0.609-1.382-1.373v-1.381c0-0.764,0.618-1.38,1.382-1.38
						s1.38,0.616,1.38,1.38c0.76,0,1.378,0.617,1.378,1.381C-79.665,63.701-80.283,64.311-81.046,64.311z"/>
				</g>
			</g>
			<g>
				<g>
					<path fill="#B9B8F1" d="M-82.423,57.483c-0.76,0-1.382-0.62-1.382-1.382v-2.726c0-0.764,0.618-1.382,1.382-1.382
						s1.38,0.615,1.38,1.382v2.726C-81.046,56.863-81.663,57.483-82.423,57.483z M-82.423,49.3c-0.76,0-1.382-0.62-1.382-1.38
						v-2.731c0-0.76,0.618-1.38,1.382-1.38s1.38,0.616,1.38,1.38v2.731C-81.046,48.68-81.663,49.3-82.423,49.3z M-82.423,41.119
						c-0.76,0-1.382-0.617-1.382-1.382v-2.726c0-0.76,0.618-1.376,1.382-1.376s1.38,0.616,1.38,1.376v2.726
						C-81.046,40.502-81.663,41.119-82.423,41.119z M-82.423,32.936c-0.76,0-1.382-0.617-1.382-1.377v-2.727
						c0-0.76,0.618-1.38,1.382-1.38s1.38,0.616,1.38,1.38v2.727C-81.046,32.319-81.663,32.936-82.423,32.936z"/>
				</g>
			</g>
			<g>
				<g>
					<path fill="#B9B8F1" d="M-82.423,24.754c-0.76,0-1.382-0.613-1.382-1.376v-1.382c0-0.76,0.618-1.382,1.382-1.382h1.38
						c0.76,0,1.378,0.622,1.378,1.382c0,0.764-0.618,1.382-1.378,1.382C-81.046,24.141-81.663,24.754-82.423,24.754z"/>
				</g>
			</g>
			<g>
				<g>
					<path fill="#B9B8F1" d="M-48.321,23.377h-2.725c-0.766,0-1.382-0.615-1.382-1.382c0-0.76,0.617-1.382,1.382-1.382h2.725
						c0.764,0,1.382,0.622,1.382,1.382C-46.939,22.759-47.558,23.377-48.321,23.377z M-56.499,23.377h-2.727
						c-0.76,0-1.38-0.615-1.38-1.382c0-0.76,0.617-1.382,1.38-1.382h2.727c0.76,0,1.38,0.622,1.38,1.382
						C-55.123,22.759-55.739,23.377-56.499,23.377z M-64.682,23.377h-2.725c-0.764,0-1.382-0.615-1.382-1.382
						c0-0.76,0.619-1.382,1.382-1.382h2.725c0.764,0,1.382,0.622,1.382,1.382C-63.3,22.759-63.918,23.377-64.682,23.377z
						 M-72.863,23.377h-2.724c-0.76,0-1.38-0.615-1.38-1.382c0-0.76,0.617-1.382,1.38-1.382h2.724c0.764,0,1.38,0.622,1.38,1.382
						C-71.487,22.759-72.1,23.377-72.863,23.377z"/>
				</g>
			</g>
			<g>
				<g>
					<path fill="#B9B8F1" d="M-41.487,24.754c-0.765,0-1.382-0.613-1.382-1.376c-0.76,0-1.377-0.615-1.377-1.382
						c0-0.76,0.617-1.382,1.377-1.382h1.382c0.76,0,1.376,0.622,1.376,1.382v1.382C-40.11,24.141-40.723,24.754-41.487,24.754z"/>
				</g>
			</g>
			<g>
				<g>
					<path fill="#B9B8F1" d="M-41.487,57.483c-0.765,0-1.382-0.62-1.382-1.382v-2.726c0-0.764,0.617-1.382,1.382-1.382
						c0.76,0,1.376,0.615,1.376,1.382v2.726C-40.11,56.863-40.723,57.483-41.487,57.483z M-41.487,49.3
						c-0.765,0-1.382-0.62-1.382-1.38v-2.728c0-0.764,0.617-1.38,1.382-1.38c0.76,0,1.376,0.613,1.376,1.38v2.728
						C-40.11,48.68-40.723,49.3-41.487,49.3z M-41.487,41.122c-0.765,0-1.382-0.62-1.382-1.382v-2.729
						c0-0.76,0.617-1.376,1.382-1.376c0.76,0,1.376,0.616,1.376,1.376v2.729C-40.11,40.502-40.723,41.122-41.487,41.122z
						 M-41.487,32.936c-0.765,0-1.382-0.617-1.382-1.377v-2.727c0-0.76,0.617-1.38,1.382-1.38c0.76,0,1.376,0.616,1.376,1.38v2.727
						C-40.11,32.319-40.723,32.936-41.487,32.936z"/>
				</g>
			</g>
		</g>
	</g>
	<g>
		<g>
			<g>
				<path fill="#566CD3" d="M145.139,113.566c-0.764,0-1.383-0.616-1.383-1.38v-1.384c0-0.764,0.619-1.38,1.383-1.38h1.377
					c0.764,0,1.38,0.616,1.38,1.38c0,0.768-0.616,1.384-1.38,1.384C146.516,112.95,145.899,113.566,145.139,113.566z"/>
			</g>
		</g>
		<g>
			<g>
				<path fill="#566CD3" d="M145.139,123.659c-0.764,0-1.383-0.624-1.383-1.381v-3.366c0-0.764,0.619-1.384,1.383-1.384
					c0.761,0,1.377,0.62,1.377,1.384v3.366C146.516,123.035,145.899,123.659,145.139,123.659z"/>
			</g>
		</g>
		<g>
			<g>
				<path fill="#566CD3" d="M146.516,131.769h-1.377c-0.764,0-1.383-0.617-1.383-1.384v-1.381c0-0.764,0.619-1.38,1.383-1.38
					c0.761,0,1.377,0.616,1.377,1.38c0.764,0,1.38,0.617,1.38,1.381C147.896,131.151,147.279,131.769,146.516,131.769z"/>
			</g>
		</g>
		<g>
			<g>
				<path fill="#566CD3" d="M160.703,131.769h-2.361c-0.767,0-1.384-0.617-1.384-1.384c0-0.764,0.617-1.381,1.384-1.381h2.361
					c0.76,0,1.38,0.617,1.38,1.381C162.083,131.151,161.463,131.769,160.703,131.769z M153.605,131.769h-2.36
					c-0.764,0-1.381-0.617-1.381-1.384c0-0.764,0.617-1.381,1.381-1.381h2.36c0.764,0,1.384,0.617,1.384,1.381
					C154.989,131.151,154.369,131.769,153.605,131.769z"/>
			</g>
		</g>
		<g>
			<g>
				<path fill="#566CD3" d="M166.809,131.769h-1.384c-0.757,0-1.373-0.617-1.373-1.384c0-0.764,0.616-1.381,1.373-1.381
					c0-0.764,0.624-1.38,1.384-1.38c0.764,0,1.381,0.616,1.381,1.38v1.381C168.189,131.151,167.572,131.769,166.809,131.769z"/>
			</g>
		</g>
		<g>
			<g>
				<path fill="#566CD3" d="M166.809,123.659c-0.76,0-1.384-0.617-1.384-1.381v-3.366c0-0.764,0.624-1.377,1.384-1.377
					c0.764,0,1.381,0.613,1.381,1.377v3.366C168.189,123.042,167.572,123.659,166.809,123.659z"/>
			</g>
		</g>
		<g>
			<g>
				<path fill="#566CD3" d="M166.809,113.566c-0.76,0-1.384-0.616-1.384-1.38c-0.757,0-1.373-0.616-1.373-1.384
					c0-0.764,0.616-1.38,1.373-1.38h1.384c0.764,0,1.381,0.616,1.381,1.38v1.384C168.189,112.95,167.572,113.566,166.809,113.566z"
					/>
			</g>
		</g>
		<g>
			<g>
				<path fill="#566CD3" d="M160.699,112.187h-2.357c-0.767,0-1.384-0.616-1.384-1.384c0-0.764,0.617-1.38,1.384-1.38h2.357
					c0.764,0,1.384,0.616,1.384,1.38C162.083,111.57,161.463,112.187,160.699,112.187z M153.605,112.187h-2.36
					c-0.764,0-1.381-0.616-1.381-1.384c0-0.764,0.617-1.38,1.381-1.38h2.36c0.764,0,1.384,0.616,1.384,1.38
					C154.989,111.57,154.369,112.187,153.605,112.187z"/>
			</g>
		</g>
	</g>
	<g>
		<g>
			<g>
				<path fill="#566CD3" d="M203.644,117.441h-2.765V52.124c0-11.525-9.381-20.906-20.906-20.906H156.77V28.46h23.203
					c13.049,0,23.671,10.614,23.671,23.663V117.441z"/>
			</g>
		</g>
		<g>
			<g>
				<path fill="#FFFFFF" d="M202.635,160.318h-0.757c-7.528,0-13.627-6.103-13.627-13.627v-15.62c0-7.528,6.099-13.63,13.627-13.63
					h0.757c7.527,0,13.626,6.102,13.626,13.63v15.62C216.261,154.216,210.162,160.318,202.635,160.318z"/>
			</g>
		</g>
		<g>
			<g>
				<path fill="#B9B8F1" d="M207.861,118.484v21.796c0,12.615-19.506,12.643-19.61,0.095v6.316c0,7.524,6.099,13.627,13.627,13.627
					h0.757c7.524,0,13.626-6.103,13.626-13.627v-15.62C216.261,125.396,212.793,120.537,207.861,118.484z"/>
			</g>
		</g>
		<g>
			<g>
				<path fill="#E5E9FF" d="M202.26,130.833c-1.353,0-2.456-1.1-2.456-2.452v-3.839c0-1.353,1.104-2.449,2.456-2.449
					c1.349,0,2.448,1.097,2.448,2.449v3.839C204.708,129.74,203.608,130.833,202.26,130.833z"/>
			</g>
		</g>
	</g>
	<g>
		<g>
			<g>
				
					<rect x="173.139" y="137.465" transform="matrix(-0.7071 -0.7071 0.7071 -0.7071 202.8775 368.6166)" fill="#B9B8F1" width="9.285" height="9.653"/>
			</g>
		</g>
		<g>
			<g>
				<g>
					<polygon fill="#B9B8F1" points="169.201,148.698 163.723,128.233 184.184,133.716 					"/>
				</g>
			</g>
		</g>
	</g>
	<g>
		<g>
			<g>
				<g>
					<path fill="#566CD3" d="M186.744,65.613h-2.757v-6.75c0-0.76,0.617-1.377,1.381-1.377h6.55v2.759h-5.174V65.613z"/>
				</g>
			</g>
			<g>
				<g>
					<path fill="#566CD3" d="M220.549,65.613h-2.761v-5.372h-5.17v-2.759h6.547c0.768,0,1.384,0.617,1.384,1.377V65.613z"/>
				</g>
			</g>
		</g>
		<g>
			<g>
				<g>
					<path fill="#566CD3" d="M219.165,95.13h-6.547v-2.76h5.17v-5.374h2.761v6.754C220.549,94.514,219.933,95.13,219.165,95.13z"/>
				</g>
			</g>
			<g>
				<g>
					<path fill="#566CD3" d="M191.918,95.13h-6.55c-0.764,0-1.381-0.616-1.381-1.38v-6.754h2.757v5.374h5.174V95.13z"/>
				</g>
			</g>
		</g>
	</g>
	<g>
		<g>
			<g>
				<path fill="#FFFFFF" d="M-33.918,160.318L-33.918,160.318c4.309,0,7.798-3.5,7.798-7.802v-42.537
					c0-4.306-3.489-7.802-7.798-7.802l0,0c-4.309,0-7.803,3.496-7.803,7.802v42.537C-41.722,156.818-38.23,160.318-33.918,160.318z"
					/>
			</g>
			<g>
				<circle fill="#566CD3" cx="-33.918" cy="153.352" r="2.636"/>
			</g>
		</g>
		<g>
			<g>
				<path fill="#FFFFFF" d="M-30.023,159.271L-30.023,159.271c3.73-2.158,5.007-6.929,2.855-10.656l-21.271-36.841
					c-2.153-3.731-6.924-5.006-10.655-2.855l0,0c-3.734,2.158-5.011,6.929-2.855,10.656l21.267,36.842
					C-38.525,160.149-33.754,161.429-30.023,159.271z"/>
			</g>
			<g>
				<path fill="#566CD3" d="M-44.271,150.19l-17.677-30.609c-2.156-3.734-0.875-8.505,2.855-10.659l0,0
					c3.731-2.154,8.502-0.876,10.655,2.854l17.676,30.616L-44.271,150.19z"/>
			</g>
			<g>
				<circle fill="#566CD3" cx="-33.507" cy="153.236" r="2.64"/>
			</g>
		</g>
		<g>
			<g>
				<path fill="#FFFFFF" d="M-27.168,156.416L-27.168,156.416c2.156-3.731,0.875-8.499-2.855-10.66l-36.84-21.267
					c-3.731-2.154-8.502-0.872-10.658,2.854l0,0c-2.155,3.734-0.874,8.502,2.856,10.656l36.84,21.271
					C-34.09,161.429-29.321,160.149-27.168,156.416z"/>
			</g>
			<g>
				<path fill="#B9B8F1" d="M-44.049,155.68L-74.664,138c-3.73-2.154-5.008-6.922-2.856-10.656l0,0
					c2.156-3.727,6.927-5.009,10.658-2.854l30.617,17.673L-44.049,155.68z"/>
			</g>
			<g>
				<path fill="#566CD3" d="M-33.202,150.292c1.459,0,2.641,1.181,2.641,2.638c0,1.461-1.182,2.642-2.641,2.642
					c-1.457,0-2.64-1.181-2.64-2.642C-35.842,151.473-34.659,150.292-33.202,150.292z"/>
			</g>
		</g>
		<g>
			<g>
				<path fill="#FFFFFF" d="M-26.121,152.517L-26.121,152.517c0-4.309-3.489-7.805-7.798-7.805h-42.539
					c-4.309,0-7.803,3.496-7.803,7.805l0,0c0,4.302,3.495,7.802,7.803,7.802h42.539C-29.61,160.318-26.121,156.818-26.121,152.517z"
					/>
			</g>
			<g>
				<path fill="#2143AF" d="M-41.107,160.318h-35.351c-4.309,0-7.803-3.5-7.803-7.802l0,0c0-4.309,3.495-7.805,7.803-7.805h35.351
					V160.318z"/>
			</g>
			<g>
				<circle fill="#566CD3" cx="-33.086" cy="152.517" r="2.642"/>
			</g>
		</g>
	</g>
	<g>
		<g>
			<g>
				<g>
					<path fill="#2143AF" d="M150.299,101.219H-14.477c-7.989,0-14.459-6.471-14.459-14.454v-103.14
						c0-7.985,6.47-14.46,14.459-14.46h164.775c7.983,0,14.453,6.475,14.453,14.46v103.14
						C164.756,94.752,158.282,101.219,150.299,101.219z"/>
				</g>
			</g>
			<g>
				<rect x="8.065" y="-14.026" fill="#566CD3" width="139.887" height="98.444"/>
			</g>
			<g>
				<circle fill="#F7B75D" cx="-9.688" cy="59.503" r="6.615"/>
			</g>
			<g>
				<circle fill="#FFFFFF" cx="-9.688" cy="76.305" r="6.614"/>
			</g>
			<g>
				<circle fill="#F7B75D" cx="-9.688" cy="11.456" r="6.615"/>
			</g>
			<g>
				<circle fill="#FFFFFF" cx="-9.688" cy="-5.356" r="6.615"/>
			</g>
		</g>
	</g>
	<g>
		<g>
			<circle fill="#121F55" cx="87.917" cy="35.236" r="36.984"/>
		</g>
		<g>
			<path fill="#FFFFFF" d="M98.328-1.751c20.426,0,36.984,16.561,36.984,36.987c0,20.428-16.559,36.985-36.984,36.985
				c-20.43,0-36.987-16.558-36.987-36.985C61.341,14.809,77.898-1.751,98.328-1.751z"/>
		</g>
		<g>
			<path fill="#FFFFFF" d="M127.746,30.96h21.74c-1.604,0-3.062,0.671-4.112,1.79c-1.059,1.123-1.713,2.443-1.713,4.149
				c0,3.419,2.609,5.962,5.825,5.962h-21.74c1.604,0,3.065-0.48,4.116-1.592c1.051-1.116,1.706-2.54,1.706-4.247
				C133.568,33.592,130.966,30.96,127.746,30.96z"/>
		</g>
		<g>
			<path fill="#FFFFFF" d="M122.982,19.613h31.198c3.216,0,5.821,2.608,5.821,5.826l0,0c0,3.218-2.609,5.826-5.821,5.826h-31.198
				c-3.22,0-5.829-2.608-5.829-5.826l0,0C117.153,22.222,119.763,19.613,122.982,19.613z"/>
		</g>
		<g>
			<path fill="#FFFFFF" d="M118.456,3.188h14.342c3.212,0,5.822,2.608,5.822,5.826l0,0c0,3.214-2.61,5.822-5.822,5.822h-14.342
				c-3.216,0-5.821-2.608-5.821-5.822l0,0C112.635,5.796,115.237,3.188,118.456,3.188z"/>
		</g>
		<g>
			<path fill="#FFFFFF" d="M115.5,42.574h46.232c2.085,0,3.776,1.693,3.776,3.778l0,0c0,2.084-1.691,3.773-3.776,3.773H115.5
				c-2.081,0-3.776-1.688-3.776-3.773l0,0C111.73,44.268,113.419,42.574,115.5,42.574z"/>
		</g>
		<g>
			<path fill="#FFFFFF" d="M121.588,57.562h18.052c1.464,0,2.651,1.191,2.651,2.65l0,0c0,1.464-1.188,2.651-2.651,2.651h-18.052
				c-1.464,0-2.648-1.19-2.648-2.651l0,0C118.933,58.75,120.117,57.562,121.588,57.562z"/>
		</g>
		<g>
			<path fill="#FFFFFF" d="M148.681,11.662h9.731c1.464,0,2.648,1.191,2.648,2.65l0,0c0,1.464-1.185,2.652-2.648,2.652h-9.731
				c-1.464,0-2.648-1.191-2.648-2.652l0,0C146.032,12.853,147.217,11.662,148.681,11.662z"/>
		</g>
		<g>
			<path fill="#FFFFFF" d="M159.288,32.725h7.882c1.184,0,2.144,0.96,2.144,2.144l0,0c0,1.188-0.96,2.149-2.144,2.149h-7.882
				c-1.185,0-2.145-0.965-2.145-2.149l0,0C157.15,33.685,158.104,32.725,159.288,32.725z"/>
		</g>
	</g>
	<g>
		<g>
			<g>
				<g>
					<rect x="-11.65" y="139.415" fill="#F7B75D" width="159.644" height="20.903"/>
				</g>
			</g>
		</g>
		<g>
			<g>
				<g>
					<rect x="-7.877" y="139.415" fill="#566CD3" width="2.759" height="10.45"/>
				</g>
			</g>
			<g>
				<g>
					<rect x="-2.008" y="139.415" fill="#566CD3" width="2.759" height="5.973"/>
				</g>
			</g>
			<g>
				<g>
					<rect x="2.391" y="139.415" fill="#566CD3" width="2.758" height="10.45"/>
				</g>
			</g>
			<g>
				<g>
					<rect x="8.254" y="139.415" fill="#566CD3" width="2.759" height="5.973"/>
				</g>
			</g>
			<g>
				<g>
					<rect x="14.127" y="139.415" fill="#566CD3" width="2.758" height="10.45"/>
				</g>
			</g>
			<g>
				<g>
					<rect x="18.525" y="139.415" fill="#566CD3" width="2.759" height="5.973"/>
				</g>
			</g>
			<g>
				<g>
					<rect x="24.393" y="139.415" fill="#566CD3" width="2.762" height="10.45"/>
				</g>
			</g>
			<g>
				<g>
					<rect x="30.262" y="139.415" fill="#566CD3" width="2.759" height="5.973"/>
				</g>
			</g>
			<g>
				<g>
					<rect x="34.66" y="139.415" fill="#566CD3" width="2.757" height="10.45"/>
				</g>
			</g>
			<g>
				<g>
					<rect x="40.524" y="139.415" fill="#566CD3" width="2.759" height="5.973"/>
				</g>
			</g>
			<g>
				<g>
					<rect x="44.926" y="139.415" fill="#566CD3" width="2.759" height="10.45"/>
				</g>
			</g>
			<g>
				<g>
					<rect x="50.793" y="139.415" fill="#566CD3" width="2.759" height="5.973"/>
				</g>
			</g>
			<g>
				<g>
					<rect x="56.663" y="139.415" fill="#566CD3" width="2.758" height="10.45"/>
				</g>
			</g>
			<g>
				<g>
					<rect x="61.061" y="139.415" fill="#566CD3" width="2.758" height="5.973"/>
				</g>
			</g>
			<g>
				<g>
					<rect x="66.929" y="139.415" fill="#566CD3" width="2.762" height="10.45"/>
				</g>
			</g>
			<g>
				<g>
					<rect x="72.798" y="139.415" fill="#566CD3" width="2.761" height="5.973"/>
				</g>
			</g>
			<g>
				<g>
					<rect x="77.197" y="139.415" fill="#566CD3" width="2.761" height="10.45"/>
				</g>
			</g>
			<g>
				<g>
					<rect x="83.062" y="139.415" fill="#566CD3" width="2.761" height="5.973"/>
				</g>
			</g>
			<g>
				<g>
					<rect x="88.93" y="139.415" fill="#566CD3" width="2.764" height="10.45"/>
				</g>
			</g>
			<g>
				<g>
					<rect x="93.333" y="139.415" fill="#566CD3" width="2.76" height="5.973"/>
				</g>
			</g>
			<g>
				<g>
					<rect x="99.197" y="139.415" fill="#566CD3" width="2.756" height="10.45"/>
				</g>
			</g>
			<g>
				<g>
					<rect x="103.597" y="139.415" fill="#566CD3" width="2.761" height="5.973"/>
				</g>
			</g>
			<g>
				<g>
					<rect x="109.461" y="139.415" fill="#566CD3" width="2.76" height="10.45"/>
				</g>
			</g>
			<g>
				<g>
					<rect x="115.332" y="139.415" fill="#566CD3" width="2.757" height="5.973"/>
				</g>
			</g>
			<g>
				<g>
					<rect x="119.731" y="139.415" fill="#566CD3" width="2.761" height="10.45"/>
				</g>
			</g>
			<g>
				<g>
					<rect x="125.596" y="139.415" fill="#566CD3" width="2.76" height="5.973"/>
				</g>
			</g>
			<g>
				<g>
					<rect x="131.467" y="139.415" fill="#566CD3" width="2.76" height="10.45"/>
				</g>
			</g>
			<g>
				<g>
					<rect x="135.866" y="139.415" fill="#566CD3" width="2.761" height="5.973"/>
				</g>
			</g>
			<g>
				<g>
					<rect x="141.73" y="139.415" fill="#566CD3" width="2.761" height="10.45"/>
				</g>
			</g>
		</g>
	</g>
	<g>
		<g>
			<g>
				<path fill="#8EDEF2" d="M26.197-53.143l2.867,10.979l9.4,3.918l-1.33,3.181l-10.188-4.246c-0.494-0.212-0.867-0.636-1-1.156
					l-3.084-11.806c-0.238-0.911,0.305-1.844,1.219-2.084l0.032-0.007C25.029-54.6,25.957-54.055,26.197-53.143z"/>
			</g>
		</g>
		<g>
			<g>
				<path fill="#121F55" d="M34.832-22.162c0,0,0.336-0.466,0.914-1.301c0.571-0.832,1.41-2.016,2.375-3.456
					c0.973-1.435,2.092-3.123,3.272-4.939c0.592-0.907,1.198-1.85,1.815-2.801l0.232-0.359l0.116-0.179
					c0.049-0.091,0.025,0,0.25-0.448c0.33-0.674,0.412-1.554,0.202-2.293c-0.205-0.75-0.65-1.392-1.286-1.848
					c-0.631-0.452-1.435-0.706-2.342-0.599l-0.054,0.003h-0.011l-0.219,0.037l-0.025,0.004l-0.106,0.018l-0.216,0.04l-0.851,0.161
					c-2.266,0.427-4.54,0.86-6.661,1.288c-1.062,0.219-2.088,0.424-3.06,0.624c-0.972,0.201-1.89,0.396-2.736,0.574
					c-1.697,0.363-3.104,0.688-4.09,0.907c-0.986,0.226-1.547,0.363-1.547,0.363c-1.391,0.345-2.313,1.711-2.07,3.146
					c0.256,1.506,1.687,2.519,3.193,2.263c0,0,0.567-0.097,1.564-0.282c0.99-0.194,2.414-0.448,4.111-0.793
					c0.846-0.171,1.769-0.359,2.741-0.555c0.972-0.205,1.993-0.42,3.056-0.643c1.044-0.226,2.116-0.456,3.21-0.699
					c-0.93,1.65-1.783,3.204-2.519,4.56c-0.835,1.52-1.496,2.808-1.976,3.701c-0.471,0.897-0.732,1.414-0.732,1.414
					c-0.438,0.876-0.19,1.955,0.624,2.543C32.909-21.05,34.172-21.255,34.832-22.162z"/>
			</g>
		</g>
		<g id="_x38_._Right_shoe_246_">
			<g>
				<g>
					<circle fill="#F7B75D" cx="32.926" cy="-23.833" r="2.766"/>
				</g>
			</g>
			<g>
				<g>
					<path fill="#F7B75D" d="M36.759-13.636L30.7-22.193c-0.643-0.904-0.427-2.16,0.477-2.799l0,0
						c0.903-0.638,3.713-0.864,4.354,0.043l3.416,10.012c0.376,1.105-0.783,2.181-1.811,1.624
						C36.984-13.396,36.855-13.499,36.759-13.636z"/>
				</g>
			</g>
			<g>
				<g>
					<path fill="#FFFFFF" d="M36.123-21.132L36.123-21.132c0.037-0.294,0.331-0.473,0.606-0.384l1.019,0.329
						c0.216,0.068,0.349,0.277,0.319,0.5l0,0c-0.035,0.294-0.326,0.476-0.606,0.383l-1.02-0.326
						C36.228-20.698,36.099-20.91,36.123-21.132z"/>
				</g>
			</g>
			<g>
				<g>
					<path fill="#FFFFFF" d="M35.94-19.64L35.94-19.64c0.035-0.291,0.326-0.473,0.606-0.384l1.018,0.329
						c0.215,0.068,0.349,0.28,0.32,0.503l0,0c-0.037,0.291-0.327,0.473-0.603,0.384l-1.022-0.33
						C36.044-19.206,35.911-19.414,35.94-19.64z"/>
				</g>
			</g>
			<g>
				<g>
					<circle fill="#2747B3" cx="32.93" cy="-23.829" r="1.66"/>
				</g>
			</g>
		</g>
		<g>
			<g>
				<path fill="#2747B3" d="M21.053-60.207l-0.305,2.282l-0.501-0.16c-0.38-0.124-0.643-0.479-0.643-0.877l0,0
					c0-0.273-0.119-0.527-0.322-0.704l-1.288-1.315c-0.536-0.55-0.913-1.242-1.03-2.002c-0.089-0.567-0.051-1.188,0.315-1.66
					c0.51-0.661-1.219-2.472,0.007-3.997c0.557-0.688,1.428-1.191,1.787-1.93c1.198-2.468,2.999-2.273,4.261-1.387
					c1.123,0.788,1.611-0.811,3.813-0.534c1.715,0.21,2.4,1.438,2.26,2.458c0,0,2.919,0.114,2.919,3.378
					c0,3.27-3.447,3.673-3.447,3.673L21.053-60.207z"/>
			</g>
		</g>
		<g>
			<g>
				<polygon fill="#F99AB6" points="24.605,-62.661 24.122,-57.14 23.797,-53.532 19.573,-53.905 20.534,-62.709 20.81,-65.214 				
					"/>
			</g>
		</g>
		<g>
			<g>
				<g>
					<path fill="#F99AB6" d="M21.247-59.905v0.883c0.685,0.867,1.772,1.531,2.869,1.883l0.242-2.766H21.247z"/>
				</g>
			</g>
		</g>
		<g>
			<g>
				<path fill="#F99AB6" d="M25.752-57.325h0.687c1.496,0,3.25-2.906,3.25-4.405c0-1.79-0.151-2.69,0-3.897
					c0.212-1.654-1.349-3.016-3.016-3.016h-3.377c-1.27,0-2.302,1.03-2.302,2.3v5.477C20.993-58.912,23.794-57.325,25.752-57.325z"
					/>
			</g>
		</g>
		<g>
			<g>
				<path fill="#2747B3" d="M26.169-68.644c0,0,0.305,2.494-3.909,2.343c0,0,0.124,4.924-2.091,5.279l-0.393-1.657
					c0,0-0.914-5.405,1.131-6.321C22.952-69.914,26.169-68.644,26.169-68.644z"/>
			</g>
		</g>
		<g>
			<g>
				<path fill="#F99AB6" d="M18.758-56.253c0.462-0.284,1.025-0.414,1.603-0.319l1.866,0.294c0.903,0.138,1.722,0.501,2.403,1.014
					C22.664-54.775,20.333-55.063,18.758-56.253z"/>
			</g>
		</g>
		<g>
			<g>
				<path fill="#8EDEF2" d="M15.805-52.939c0.154-1.463,1.526-2.883,2.95-3.314c1.575,1.191,3.909,1.478,5.871,0.99
					c1.536,1.159,2.399,3.104,2.081,5.141l-1.976,11.162l-10.073-1.366C14.658-40.331,15.443-49.603,15.805-52.939z"/>
			</g>
		</g>
		<g>
			<g>
				<path fill="#121F55" d="M53.048-20.96c0,0-0.385-0.434-1.081-1.181c-0.695-0.739-1.678-1.811-2.883-3.063
					c-1.2-1.263-7.838-7.98-7.838-7.98l-0.15-0.137c-0.102-0.089-0.205-0.173-0.314-0.256c-0.213-0.165-0.439-0.312-0.674-0.445
					c-0.469-0.268-0.979-0.469-1.506-0.594c-0.133-0.033-0.265-0.062-0.398-0.084c-0.061-0.011-11.316-1.062-12.282-1.298
					c-1.711-0.417-1.077-3.627-1.077-3.627L14.73-41.176c-0.076,1.445-1.009,2.851-1.263,3.797
					c-0.404,1.508-0.157,3.042,0.568,4.298c0.723,1.256,1.921,2.239,3.436,2.643c0.741,0.198,1.484,0.242,2.198,0.147
					c0.27,0.023,0.678,0.062,1.212,0.105c1.012,0.072,2.458,0.196,4.193,0.312c0.869,0.055,1.808,0.114,2.803,0.179
					c0.993,0.058,2.044,0.119,3.131,0.177c1.083,0.056,2.206,0.114,3.346,0.172c0.988,0.044,1.988,0.086,2.988,0.129
					c0.041,0.004,0.075,0.018,0.112,0.028c0.018,0.003,0.035,0.014,0.058,0.021l0.024,0.016c0.004,0,0.007,0.003,0.011,0.007h0.007
					l0.037,0.032c0.425,0.387,0.853,0.776,1.277,1.16c0.849,0.764,1.685,1.513,2.496,2.242c1.619,1.449,3.146,2.787,4.467,3.923
					c1.317,1.144,2.433,2.07,3.207,2.731c0.774,0.651,1.226,1.021,1.226,1.021c0.757,0.615,1.869,0.606,2.619-0.065
					C53.722-18.848,53.794-20.128,53.048-20.96z"/>
			</g>
		</g>
		<g id="_x38_._Right_shoe_245_">
			<g>
				<g>
					<circle fill="#F7B75D" cx="52.049" cy="-18.833" r="2.766"/>
				</g>
			</g>
			<g>
				<g>
					<path fill="#F7B75D" d="M62.919-19.526l-9.951,3.302c-1.053,0.35-2.186-0.223-2.536-1.275l0,0
						c-0.352-1.051,0.258-3.801,1.309-4.149l10.572-0.352c1.161-0.039,1.856,1.386,1.028,2.207
						C63.217-19.668,63.081-19.575,62.919-19.526z"/>
				</g>
			</g>
			<g>
				<g>
					<path fill="#FFFFFF" d="M55.191-20.495L55.191-20.495c-0.294,0-0.517-0.264-0.455-0.552l0.201-1.054
						c0.042-0.219,0.233-0.38,0.459-0.38l0,0c0.294,0,0.513,0.268,0.456,0.555l-0.205,1.055
						C55.608-20.656,55.414-20.495,55.191-20.495z"/>
				</g>
			</g>
			<g>
				<g>
					<path fill="#FFFFFF" d="M56.694-20.495L56.694-20.495c-0.294,0-0.511-0.264-0.459-0.552l0.202-1.054
						c0.043-0.219,0.233-0.38,0.459-0.38l0,0c0.294,0,0.517,0.268,0.458,0.555l-0.205,1.055
						C57.115-20.656,56.917-20.495,56.694-20.495z"/>
				</g>
			</g>
			<g>
				<g>
					<circle fill="#2747B3" cx="52.049" cy="-18.833" r="1.661"/>
				</g>
			</g>
		</g>
		<g>
			<g>
				<path fill="#FFFEFF" d="M24.866-60.019c0.137,0.72,0.766,1.268,1.529,1.268c0.76,0,1.393-0.548,1.527-1.268H24.866z"/>
			</g>
		</g>
		<g>
			<g>
				<path fill="#F99AB6" d="M44.218-39.958c-0.72-0.116-1.34-0.476-1.781-0.989l0.695-4.459c0.578-0.352,1.277-0.513,1.999-0.397
					c1.613,0.25,2.718,1.764,2.468,3.378C47.347-40.811,45.833-39.707,44.218-39.958z"/>
			</g>
		</g>
		<g>
			<g>
				<path fill="#8EDEF2" d="M16.103-39.688c-0.405-0.137-0.746-0.42-0.958-0.801c-0.226-0.406-0.275-0.893-0.135-1.338l3.873-12.592
					l3.294,1.016l-3.351,10.891l8.15,2.221l-0.904,3.324l-9.868-2.69C16.168-39.663,16.136-39.677,16.103-39.688z"/>
			</g>
		</g>
		<g>
			<g>
				
					<rect x="11.464" y="-47.853" transform="matrix(0.2724 -0.9622 0.9622 0.2724 58.0196 -18.4928)" fill="#61C8E0" width="10.638" height="0.491"/>
			</g>
		</g>
		<g>
			<g>
				<polygon fill="#61C8E0" points="19.638,-45.54 21.333,-51.584 21.922,-51.503 20.221,-45.464 				"/>
			</g>
		</g>
		<g>
			<g>
				<path fill="#F99AB6" d="M31.119-38.945c0.096,0.723-0.075,1.418-0.445,1.99l-4.473,0.599c-0.501-0.452-0.85-1.079-0.95-1.8
					c-0.215-1.622,0.921-3.111,2.54-3.325C29.411-41.7,30.903-40.563,31.119-38.945z"/>
			</g>
		</g>
		<g>
			<g>
				<path fill="#121F55" d="M23.134-36.719c0-0.405,0.331-0.734,0.739-0.734h26.728c0.559,0,1.018,0.329,1.018,0.734
					c0,0.41-0.456,0.739-1.018,0.739H23.873C23.468-35.979,23.134-36.309,23.134-36.719L23.134-36.719z"/>
			</g>
			<g>
				<path fill="#FFFFFF" d="M22.086-36.719c0,0.41,0.359,0.739,0.794,0.739h10.151c0.438,0,0.792-0.33,0.792-0.739
					c0-0.405-0.357-0.734-0.792-0.734H22.88C22.445-37.453,22.086-37.12,22.086-36.719z"/>
			</g>
			<g>
				<path fill="#FFFFFF" d="M51.58-51.286v13.478c0,0.599-0.489,1.089-1.088,1.089H32.711c-0.599,0-1.089-0.487-1.089-1.089v-13.478
					c0-0.599,0.487-1.089,1.089-1.089h17.781C51.091-52.372,51.58-51.885,51.58-51.286z"/>
			</g>
			<g>
				<path fill="#2143AF" d="M52.405-51.286v13.478c0,0.599-0.485,1.089-1.088,1.089H33.536c-0.599,0-1.09-0.487-1.09-1.089v-13.478
					c0-0.599,0.487-1.089,1.09-1.089h17.781C51.921-52.372,52.405-51.885,52.405-51.286z"/>
			</g>
			<g>
				<path fill="#FFFFFF" d="M39.495-44.544L39.495-44.544c0-0.636,0.513-1.146,1.146-1.146h3.571c0.632,0,1.149,0.513,1.149,1.146
					l0,0c0,0.63-0.517,1.144-1.149,1.144H40.64C40.008-43.401,39.495-43.914,39.495-44.544z"/>
			</g>
		</g>
	</g>
	<g>
		<g id="_x38_._Right_shoe_242_">
			<g>
				<g>
					<path fill="#2143AF" d="M-21.106,148.691c1.672,0,3.028,1.355,3.028,3.026c0,1.675-1.356,3.027-3.028,3.027
						c-1.671,0-3.027-1.353-3.027-3.027C-24.133,150.047-22.777,148.691-21.106,148.691z"/>
				</g>
			</g>
			<g>
				<g>
					<path fill="#2143AF" d="M-33.011,151.466l11.024,3.149c1.165,0.329,2.38-0.347,2.711-1.51l0,0
						c0.33-1.163-0.459-4.141-1.622-4.474l-11.562,0.102c-1.273,0.014-1.965,1.598-1.021,2.463
						C-33.337,151.322-33.183,151.417-33.011,151.466z"/>
				</g>
			</g>
			<g>
				<g>
					<path fill="#FFFFFF" d="M-24.614,150.051L-24.614,150.051c0.32-0.011,0.55-0.315,0.475-0.627l-0.27-1.139
						c-0.058-0.234-0.273-0.399-0.517-0.389l0,0c-0.319,0.011-0.548,0.315-0.473,0.627l0.268,1.135
						C-25.077,149.896-24.858,150.064-24.614,150.051z"/>
				</g>
			</g>
			<g>
				<g>
					<path fill="#FFFFFF" d="M-26.257,150.121L-26.257,150.121c0.32-0.015,0.55-0.315,0.475-0.631l-0.27-1.135
						c-0.055-0.238-0.273-0.403-0.521-0.393l0,0c-0.315,0.014-0.544,0.315-0.473,0.631l0.268,1.135
						C-26.72,149.967-26.501,150.131-26.257,150.121z"/>
				</g>
			</g>
		</g>
		<g>
			<g>
				<path fill="#8EDEF2" d="M-17.78,130.304l0.058-0.031l16.525-9.742l4.939,5.356l-17.336,9.192l-4.069,17.704l-0.121-0.021
					l-4.645-4.214l3.139-16.223C-19.115,131.495-18.587,130.731-17.78,130.304z"/>
			</g>
		</g>
		<g id="_x38_._Right_shoe_241_">
			<g>
				<g>
					<path fill="#2143AF" d="M18.205,154.717c1.502,0,2.72,1.219,2.72,2.718c0,1.507-1.217,2.723-2.72,2.723
						c-1.501,0-2.719-1.216-2.719-2.723C15.486,155.936,16.704,154.717,18.205,154.717z"/>
				</g>
			</g>
			<g>
				<g>
					<path fill="#2143AF" d="M7.857,160.182l10.306-0.024c1.089-0.004,1.969-0.887,1.969-1.979l0,0
						c-0.004-1.086-1.424-3.461-2.519-3.461l-9.961,2.964c-1.098,0.329-1.294,1.87-0.268,2.378
						C7.535,160.136,7.696,160.182,7.857,160.182z"/>
				</g>
			</g>
			<g>
				<g>
					<path fill="#FFFFFF" d="M14.758,156.867L14.758,156.867c0.273-0.091,0.396-0.406,0.256-0.658l-0.517-0.918
						c-0.109-0.196-0.338-0.28-0.547-0.214l0,0c-0.271,0.088-0.394,0.403-0.254,0.662l0.517,0.918
						C14.32,156.85,14.549,156.938,14.758,156.867z"/>
				</g>
			</g>
			<g>
				<g>
					<path fill="#FFFFFF" d="M13.355,157.337L13.355,157.337c0.273-0.091,0.396-0.406,0.255-0.658l-0.52-0.918
						c-0.108-0.196-0.334-0.28-0.541-0.214l0,0c-0.273,0.088-0.396,0.406-0.256,0.662l0.517,0.918
						C12.922,157.319,13.148,157.407,13.355,157.337z"/>
				</g>
			</g>
		</g>
		<g>
			<g>
				<path fill="#8EDEF2" d="M-3.589,118.103l10.958-1.197c0.678,0.771,1.503,3.166,1.748,4.242c0.387,1.72,0.042,3.429-0.828,4.81
					c-0.876,1.38-2.269,2.431-3.99,2.819c-0.839,0.193-5,0.256-6.952-1.649C-5.512,124.342-3.589,118.103-3.589,118.103z"/>
			</g>
		</g>
		<g>
			<g>
				<path fill="#8EDEF2" d="M3.247,123.96h7.057l-2.713,16.783l11.903,13.865l-6.178,1.733L1.959,143.605
					c-0.561-0.635-0.85-1.51-0.702-2.407L3.247,123.96z"/>
			</g>
		</g>
		<g>
			<g>
				<path fill="#121F55" d="M-25.571,116.828l16.331-0.284c0.725-0.014,1.378-0.424,1.701-1.068l6.404-12.729l-3.47-1.745
					l-5.875,11.683l-15.156,0.263L-25.571,116.828z"/>
			</g>
		</g>
		<g>
			<g>
				<polygon fill="#F99AB6" points="-2.254,90.927 -1.761,101.232 3.014,101.008 2.326,91.053 2.128,88.222 				"/>
			</g>
		</g>
		<g>
			<g>
				<g>
					<path fill="#F99AB6" d="M1.396,94.178c0,0-1.079,2.655-3.338,3.32l-0.165-3.461L1.396,94.178z"/>
				</g>
			</g>
		</g>
		<g>
			<g>
				<path fill="#F99AB6" d="M-3.812,97.028c-0.191-0.027-0.561-0.133-0.746-0.182c-1.776-0.487-3.529-3.419-3.463-5.104
					c0.079-2.014,0.294-3.022,0.177-4.386c-0.161-1.866,1.657-3.338,3.529-3.261l3.803,0.154c1.427,0.056,2.54,1.261,2.485,2.69
					L1.73,93.105C1.641,95.313-1.638,97.379-3.812,97.028z"/>
			</g>
		</g>
		<g>
			<g>
				<path fill="#F99AB6" d="M4.041,98.402c-0.51-0.344-1.133-0.516-1.79-0.435l-2.116,0.245c-1.023,0.115-1.96,0.483-2.748,1.037
					C-0.43,99.887,2.21,99.666,4.041,98.402z"/>
			</g>
		</g>
		<g>
			<g>
				<path fill="#121F55" d="M7.323,102.462c-0.095-1.66-1.568-3.898-3.38-4.116c-3.062,0.428-5.81,0.596-6.85,0.841
					c-1.78,1.236-2.841,3.384-2.573,5.688l0.273,19.071c5.726,4.042,16.221,2.417,16.221,2.417
					C11.013,118.131,7.508,105.724,7.323,102.462z"/>
			</g>
		</g>
		<g>
			<g>
				<path fill="#121F55" d="M-14.09,116.723l13.338,0.141c0.972,0.014,1.797-0.694,1.941-1.654l2.195-14.681l-3.841-0.571
					l-1.944,13.007l-11.647-0.122L-14.09,116.723z"/>
			</g>
		</g>
		<g>
			<g>
				<path fill="#F7B75D" d="M-2.363,99.089c0.873-0.211,2.422-0.26,4.89-0.561c-1.368,3.212-5.062,5.885-6.153,9.644
					C-4.199,107.545-4.146,100.314-2.363,99.089z"/>
			</g>
		</g>
		<g>
			<g>
				<path fill="#2747B3" d="M-2.209,99.677c0.154-0.182,0.667-0.539,0.681-0.729c0.396-0.053,0.331,0.099,0.879,0.049
					c-1.496,1.384-0.627,3.665-1.219,5.749c-0.75,1.068-1.396,2.186-1.758,3.43c-0.319-0.348-0.445-2.719-0.186-4.975
					C-3.784,102.952-3.425,101.064-2.209,99.677z"/>
			</g>
		</g>
		<g>
			<path fill="#B8B9F1" d="M-2.388,100.027c0.189,0.245,0.993,0.368,1.244,0.189c0.242-0.176,0.478-1.107,0.478-1.107l-1.855-0.28
				C-2.521,98.829-2.564,99.796-2.388,100.027z"/>
		</g>
		<g>
			<g>
				<path fill="#121F55" d="M-5.667,87.844c-7.358-1.598-2.06-6.277-2.06-6.277s0.147,1.744,1.571,1.174
					c2.727-1.097,8.66-1.78,10.292,1.779c1.27,2.771-1.095,8.842-1.543,10.422c-0.734-0.456-0.114-7.602-3.13-7.301
					C-2.183,87.806-4.057,88.194-5.667,87.844z"/>
			</g>
		</g>
		<g>
			<g>
				<path fill="#FFFEFF" d="M-4.551,95.501c-1.503-0.073-0.534-2.557,0.035-2.521C-3.941,93.007-3.048,95.558-4.551,95.501z"/>
			</g>
		</g>
		<g>
			<polygon fill="#FFFFFF" points="0.276,100.875 4.011,98.388 2.744,97.008 -1.699,98.977 			"/>
		</g>
		<g>
			<polygon fill="#FFFFFF" points="-2.826,99.915 -2.614,99.089 -1.901,98.346 -1.596,98.977 			"/>
		</g>
		<g>
			<g>
				<path fill="#566CD3" d="M0.539,112.204c0-0.456-0.37-0.827-0.825-0.827h-29.805c-0.624,0-1.133,0.375-1.133,0.823
					c0,0.456,0.51,0.823,1.133,0.823h29.805C0.169,113.023,0.539,112.656,0.539,112.204L0.539,112.204z"/>
			</g>
			<g>
				<path fill="#2143AF" d="M1.706,112.2c0,0.456-0.396,0.823-0.886,0.823h-11.318c-0.487,0-0.886-0.371-0.886-0.823
					s0.399-0.823,0.886-0.823H0.819C1.31,111.377,1.706,111.748,1.706,112.2z"/>
			</g>
			<g>
				<path fill="#2143AF" d="M-31.183,95.957v15.027c0,0.673,0.543,1.213,1.214,1.213h19.833c0.67,0,1.212-0.54,1.212-1.213V95.957
					c0-0.673-0.542-1.216-1.212-1.216h-19.833C-30.64,94.741-31.183,95.284-31.183,95.957z"/>
			</g>
			<g>
				<path fill="#FFFFFF" d="M-32.107,95.957v15.027c0,0.673,0.545,1.213,1.215,1.213h19.831c0.67,0,1.212-0.54,1.212-1.213V95.957
					c0-0.673-0.542-1.216-1.212-1.216h-19.831C-31.563,94.741-32.107,95.284-32.107,95.957z"/>
			</g>
			<g>
				<path fill="#2143AF" d="M-17.708,103.467L-17.708,103.467c0-0.703-0.571-1.278-1.277-1.278h-3.987
					c-0.706,0-1.277,0.575-1.277,1.278l0,0c0,0.708,0.575,1.275,1.277,1.275h3.987C-18.279,104.746-17.708,104.175-17.708,103.467z"
					/>
			</g>
		</g>
		<g>
			<g>
				<path fill="#F99AB6" d="M-12.834,114.782c0.141-0.816-0.031-1.604-0.424-2.263l-5.011-0.841c-0.585,0.493-1,1.184-1.141,1.996
					c-0.305,1.814,0.918,3.531,2.738,3.84C-14.86,117.815-13.139,116.597-12.834,114.782z"/>
			</g>
		</g>
		<g>
			<g>
				<path fill="#F99AB6" d="M-23.417,113.851c0.068-0.82-0.168-1.591-0.609-2.214l-5.069-0.421c-0.538,0.54-0.897,1.265-0.969,2.081
					c-0.154,1.836,1.21,3.447,3.046,3.602C-25.18,117.052-23.57,115.686-23.417,113.851z"/>
			</g>
		</g>
	</g>
	<g>
		<g>
			<g>
				
					<ellipse transform="matrix(1 0.0038 -0.0038 1 -0.2397 -0.3887)" fill="#2143AF" cx="102.894" cy="-63.724" rx="3.235" ry="5.158"/>
			</g>
		</g>
		<g>
			<g>
				<path fill="#2143AF" d="M118.59-56.143c-2.081-1.198-4.39-4.19-3.507-6.826c2.057-6.162-2.75-8.369-5.132-8.824
					c-2.375-0.452-4.47,0.15-5.794,1.208c-2.151,1.722-1.514,4.692-0.309,7.082c-1.303,0.753-1.93,2.364-1.181,3.563
					c1.629,2.615,0.229,6.134-0.742,8.225c-1.566,3.368,0.613,7.544,4.41,9.451c3.79,1.906,8.733,1.704,12.534-0.003
					c1.892-0.846,3.601-2.084,4.459-3.728C125.189-49.531,122.506-53.893,118.59-56.143z"/>
			</g>
		</g>
		<g>
			<g>
				<path fill="#F99AB6" d="M92.471-32.561c-0.903,0.133-1.856,0.212-2.844,0.236c-0.736,0.021-1.346-0.555-1.359-1.28
					c-0.021-0.732,0.55-1.338,1.278-1.359c4.635-0.126,8.103-1.492,10.303-4.058c3.362-3.917,2.722-9.362,2.715-9.417
					c-0.088-0.723,0.431-1.38,1.146-1.476c0.722-0.093,1.383,0.422,1.471,1.147c0.039,0.27,0.788,6.668-3.328,11.465
					C99.646-34.728,96.499-33.139,92.471-32.561z"/>
			</g>
		</g>
		<g>
			<path fill="#F7B75D" d="M103.565-50.873c-1.237,0.179-2.112,1.324-1.966,2.55c0.015,0.051,0.567,5.115-2.48,8.67
				c-1.492,1.735-3.664,2.872-6.445,3.394c0.806,1.37,0.939,3.142,0.298,4.591c4.088-0.657,7.325-2.331,9.623-5.007
				c4.393-5.116,3.587-11.928,3.552-12.215C105.989-50.141,104.844-51.03,103.565-50.873z"/>
		</g>
		<g>
			<g>
				<path fill="#F99AB6" d="M103.93-48.624c-0.677-0.341-1.227-1.37-0.417-2.31c0.806-0.925,2.028-1.438,3.353-1.492l0.34-0.011
					c1.17-0.043,2.228,0.466,2.936,1.291C109.576-49.409,105.762-47.921,103.93-48.624z"/>
			</g>
		</g>
		<g>
			<g>
				<path fill="#F99AB6" d="M106.164-55.077l-0.031,1.493l-0.057,2.8l2.155,0.041l0.066-3.583l0.028-1.389
					C107.674-55.278,106.938-55.045,106.164-55.077z"/>
			</g>
		</g>
		<g>
			<g>
				<g>
					<path fill="#F99AB6" d="M106.164-54.723l-0.031,1.492c0.764-0.11,1.688-0.452,2.172-1.018l0.021-1.112
						C107.674-54.922,106.938-54.686,106.164-54.723z"/>
				</g>
			</g>
		</g>
		<g>
			<g>
				<path fill="#F99AB6" d="M106.693-53.95L106.693-53.95c2.039-0.023,3.839-1.016,4.964-2.54c0.781-1.051,1.236-2.358,1.219-3.768
					l-0.024-2.456c-0.018-1.783-0.785-3.384-1.99-4.51c-1.131-1.051-2.651-1.685-4.315-1.667l0,0c-1.1,0.01-2.13,0.301-3.026,0.814
					c-1.905,1.086-3.178,3.146-3.152,5.495l0.021,2.454c0.028,2.26,1.243,4.227,3.055,5.306
					C104.396-54.258,105.509-53.94,106.693-53.95z"/>
			</g>
		</g>
		<g>
			<g>
				<circle fill="#121F55" cx="107.723" cy="-32.328" r="5.925"/>
			</g>
		</g>
		<g>
			<g>
				<path fill="#FFFEFF" d="M106.287-57.201c-0.141,0.776-0.813,1.372-1.626,1.378c-0.819,0.011-1.503-0.571-1.656-1.345
					L106.287-57.201z"/>
			</g>
		</g>
		<g>
			<g>
				<path fill="#F7B75D" d="M100.78-47.634c-0.399,1.119,0.725,2.242,1.905,2.375c1.185,0.13,2.246-0.722,2.375-1.904
					c0.126-1.181-1.636-3.771-2.298-2.785C102.129-49.011,101.131-48.592,100.78-47.634z"/>
			</g>
		</g>
		<g>
			<g>
				<path fill="#F7B75D" d="M110.137-51.146c0.508,0.599,0.83,1.359,0.872,2.204c0,0-0.532,9.731,2.141,14.215l-11.347,0.948
					l0.302-13.471c-0.07-1.431,0.479-2.74,1.408-3.687C103.565-48.768,108.031-51.375,110.137-51.146z"/>
			</g>
		</g>
		<g>
			<g>
				<g>
					<g>
						<path fill="#2143AF" d="M102.489-7.688c-1.044,0.053-1.565,1.037-1.653,1.312c-0.483,1.529-0.309,3.128-1.285,5.719
							c-0.669,1.766-1.335,2.126-1.812,3.566c-0.406,1.233,0.729,1.636,1.85,1.202c0.441-0.173,3.202-0.897,3.251-3.104
							c0.035-1.609-0.154-2.841,0.357-4.228c0.515-1.385,0.953-0.603,1.121-0.18c0.112,0.301,0.486,1.167,0.605,1.435
							c0.046,0.098,0.161,0.144,0.256,0.105h0.007c0.112-0.044,0.161-0.168,0.112-0.28c-0.154-0.312-0.441-1.403-0.554-2.79
							C104.616-6.637,103.442-7.735,102.489-7.688z"/>
					</g>
				</g>
			</g>
			<g>
				<g>
					<g>
						<path fill="#F99AB6" d="M101.396-0.075c0.574-1.293,1.262-5.256,0.925-6.13c-0.399-1.026-2.55-1.105-2.676-0.177
							c-0.228,1.585,0.427,4.36-0.883,7.329C98.924,1.729,100.725,1.427,101.396-0.075z"/>
					</g>
				</g>
			</g>
		</g>
		<g>
			<g>
				<path fill="#121F55" d="M109.576-26.879l-13.959,6.493l1.316-3.153l5.174,16.766c0.313,1.019-0.256,2.095-1.271,2.41
					c-0.974,0.298-2.004-0.215-2.368-1.144l-6.354-16.351c-0.469-1.201,0.077-2.554,1.22-3.102l0.102-0.051l13.89-6.644
					c1.31-0.631,2.893-0.075,3.517,1.238c0.631,1.319,0.077,2.894-1.243,3.522C109.598-26.889,109.58-26.882,109.576-26.879z"/>
			</g>
		</g>
		<g>
			<g>
				<g>
					<g>
						<path fill="#2143AF" d="M93.112-12.958c-0.95-0.441-1.867,0.188-2.074,0.391c-1.139,1.125-1.733,2.621-3.808,4.456
							c-1.419,1.252-2.172,1.263-3.265,2.314c-0.939,0.9-0.119,1.783,1.075,1.923c0.47,0.054,3.247,0.699,4.322-1.228
							c0.785-1.408,1.191-2.585,2.291-3.571c1.097-0.988,1.125-0.091,1.068,0.361c-0.038,0.32-0.111,1.256-0.126,1.553
							c-0.007,0.109,0.074,0.205,0.183,0.215l0,0c0.119,0.014,0.225-0.075,0.228-0.194c0.011-0.35,0.267-1.448,0.823-2.725
							C94.503-11.035,93.971-12.551,93.112-12.958z"/>
					</g>
				</g>
			</g>
			<g>
				<g>
					<g>
						<path fill="#F99AB6" d="M88.59-6.738c1.11-0.87,3.565-4.06,3.671-4.992c0.126-1.095-1.73-2.163-2.28-1.406
							c-0.942,1.298-1.653,4.056-4.197,6.072C85.563-6.297,87.297-5.722,88.59-6.738z"/>
					</g>
				</g>
			</g>
		</g>
		<g>
			<g>
				<path fill="#121F55" d="M108.599-26.455l-15.378-0.776l2.641-2.167l-3.243,17.244c-0.2,1.047-1.205,1.736-2.256,1.54
					c-0.995-0.188-1.668-1.123-1.56-2.114l2.008-17.429c0.147-1.28,1.261-2.221,2.522-2.177l0.111,0.004l15.386,0.599
					c1.461,0.062,2.6,1.288,2.54,2.745c-0.06,1.459-1.286,2.594-2.743,2.54C108.62-26.455,108.605-26.455,108.599-26.455z"/>
			</g>
		</g>
		<g>
			<g>
				<path fill="#F99AB6" d="M109.695-32.328c-0.676,0.112-1.391,0.198-2.161,0.243c-0.729,0.047-1.359-0.509-1.405-1.233
					c-0.053-0.729,0.508-1.352,1.229-1.403c2.452-0.158,5.532-0.76,6.319-2.732c1.248-3.107-3.047-8.765-4.645-10.504
					c-0.497-0.534-0.463-1.37,0.073-1.869c0.536-0.492,1.374-0.459,1.867,0.079c0.75,0.808,7.245,8.071,5.16,13.276
					C115.266-34.286,113.104-32.902,109.695-32.328z"/>
			</g>
		</g>
		<g>
			<path fill="#F7B75D" d="M111.688-50.4c-0.525-0.573-1.296-0.835-2.06-0.706c-0.525,0.089-1.002,0.352-1.353,0.757
				c-0.774,0.883-0.68,2.249,0.108,3.118c1.825,2.005,5.36,7.027,4.403,9.42c-0.168,0.418-0.511,0.753-0.949,1.021
				c-0.815,0.502-1.271,1.433-1.089,2.375c0.007,0.014,0.007,0.028,0.01,0.047c0.281,1.503,1.959,2.342,3.283,1.585
				c1.429-0.818,2.431-1.927,2.991-3.324C119.29-41.748,112.971-49,111.688-50.4z"/>
		</g>
		<g>
			<g>
				<path fill="#F99AB6" d="M101.901-33.598c0.066,0.783,0.406,1.471,0.917,1.984l4.828-0.396c0.424-0.592,0.651-1.326,0.585-2.105
					c-0.144-1.746-1.679-3.049-3.427-2.906C103.057-36.88,101.754-35.344,101.901-33.598z"/>
			</g>
		</g>
		<g>
			<g>
				<path fill="#F99AB6" d="M85.458-33.006c0.035,0.783,0.347,1.489,0.834,2.02l4.841-0.189c0.448-0.571,0.7-1.3,0.673-2.081
					c-0.07-1.755-1.549-3.118-3.3-3.05C86.754-36.233,85.392-34.755,85.458-33.006z"/>
			</g>
		</g>
		<g>
			<g>
				<path fill="#2143AF" d="M109.446-69.593c3.181,1.114,5.191,3.634,4.491,5.629c-0.7,1.995-3.847,2.708-7.02,1.594
					c-3.182-1.114-5.192-3.634-4.491-5.629C103.127-69.994,106.27-70.709,109.446-69.593z"/>
			</g>
		</g>
		<g>
			<g>
				<path fill="#121F55" d="M110.582-31.779c0-0.437-0.357-0.792-0.792-0.792H81.013c-0.603,0-1.097,0.359-1.097,0.792
					c0,0.441,0.494,0.797,1.097,0.797h28.777C110.231-30.986,110.582-31.342,110.582-31.779L110.582-31.779z"/>
			</g>
			<g>
				<path fill="#FFFFFF" d="M111.71-31.779c0,0.441-0.386,0.797-0.855,0.797H99.933c-0.477,0-0.862-0.355-0.862-0.797
					c0-0.437,0.386-0.792,0.862-0.792h10.922C111.324-32.571,111.71-32.216,111.71-31.779z"/>
			</g>
			<g>
				<path fill="#FFFFFF" d="M79.962-47.464v14.513c0,0.645,0.521,1.168,1.166,1.168h19.147c0.648,0,1.17-0.523,1.17-1.168v-14.513
					c0-0.643-0.525-1.17-1.17-1.17H81.128C80.49-48.631,79.962-48.107,79.962-47.464z"/>
			</g>
			<g>
				<path fill="#2143AF" d="M79.072-47.464v14.513c0,0.645,0.521,1.168,1.166,1.168h19.145c0.647,0,1.173-0.523,1.173-1.168v-14.513
					c0-0.643-0.525-1.17-1.173-1.17H80.238C79.594-48.631,79.072-48.107,79.072-47.464z"/>
			</g>
			<g>
				<path fill="#FFFFFF" d="M92.969-40.208L92.969-40.208c0-0.681-0.551-1.235-1.233-1.235h-3.847c-0.68,0-1.232,0.554-1.232,1.235
					l0,0c0,0.682,0.553,1.233,1.232,1.233h3.847C92.418-38.975,92.969-39.523,92.969-40.208z"/>
			</g>
		</g>
	</g>
	<g>
		<g>
			<path fill="#FFFFFF" d="M183.367-13.618c-1.758,0-3.521-0.62-4.861-1.869c-2.032-1.886-5.339-1.886-7.378,0
				c-0.351,0.324-0.894,0.306-1.219-0.042c-0.329-0.352-0.302-0.897,0.045-1.219c2.684-2.494,7.045-2.491,9.729,0
				c2.031,1.89,5.342,1.89,7.377,0c2.684-2.491,7.041-2.491,9.725,0c2.032,1.89,5.342,1.89,7.381,0c2.68-2.494,7.041-2.491,9.725,0
				c0.347,0.326,0.368,0.871,0.042,1.219c-0.322,0.348-0.865,0.37-1.219,0.042c-2.028-1.886-5.343-1.886-7.381,0
				c-2.677,2.494-7.041,2.494-9.725,0c-2.028-1.886-5.339-1.886-7.378,0C186.892-14.242,185.126-13.618,183.367-13.618z"/>
		</g>
	</g>
	<g>
		<g>
			<path fill="#FFFFFF" d="M52.792-61.229c-1.76,0-3.522-0.62-4.864-1.869c-2.034-1.89-5.34-1.89-7.379,0
				c-0.347,0.324-0.896,0.305-1.215-0.042c-0.326-0.352-0.305-0.896,0.043-1.215c2.687-2.498,7.045-2.494,9.728,0
				c2.034,1.886,5.344,1.886,7.379,0c2.682-2.498,7.041-2.498,9.724,0c2.034,1.886,5.344,1.886,7.374,0
				c2.684-2.498,7.049-2.494,9.732,0c0.35,0.322,0.364,0.867,0.042,1.215c-0.323,0.351-0.869,0.37-1.22,0.042
				c-2.031-1.89-5.346-1.89-7.377,0c-2.684,2.491-7.041,2.494-9.728,0c-2.03-1.89-5.342-1.89-7.375,0
				C56.314-61.853,54.554-61.229,52.792-61.229z"/>
		</g>
	</g>
	<g>
		<g>
			<path fill="#FFFFFF" d="M-42.475-40.901c-1.76,0-3.522-0.62-4.86-1.869c-2.034-1.89-5.344-1.89-7.377,0
				c-0.349,0.324-0.894,0.305-1.217-0.045c-0.326-0.352-0.305-0.897,0.043-1.221c2.68-2.493,7.042-2.493,9.725,0
				c2.03,1.892,5.346,1.892,7.375,0c2.684-2.493,7.041-2.493,9.725,0c2.03,1.892,5.344,1.892,7.379,0
				c2.678-2.493,7.042-2.493,9.725,0c0.347,0.324,0.37,0.869,0.042,1.221c-0.322,0.351-0.871,0.37-1.215,0.045
				c-2.034-1.89-5.346-1.89-7.379,0c-2.683,2.491-7.044,2.494-9.724,0c-2.034-1.89-5.344-1.89-7.379,0
				C-38.947-41.521-40.709-40.901-42.475-40.901z"/>
		</g>
	</g>
	<g>
		<g>
			<g>
				<path fill="#B9B8F1" d="M196.35,2.984l-8.586,5.964c-0.27,0.041-0.528,0.184-0.697,0.428c-0.133,0.201-0.192,0.431-0.175,0.653
					c-0.018,0.226,0.042,0.452,0.175,0.653c0.169,0.24,0.428,0.391,0.697,0.425l8.586,5.966c0.47,0.322,1.107,0.212,1.426-0.254
					c0.319-0.462,0.207-1.102-0.256-1.42l-7.717-5.367l7.717-5.37c0.463-0.315,0.575-0.958,0.256-1.42
					C197.457,2.776,196.819,2.661,196.35,2.984z"/>
			</g>
		</g>
		<g>
			<g>
				<path fill="#B9B8F1" d="M205.535,2.984l-8.583,5.964c-0.27,0.041-0.528,0.184-0.7,0.428c-0.141,0.201-0.189,0.431-0.183,0.653
					c-0.007,0.226,0.042,0.452,0.183,0.653c0.172,0.24,0.431,0.391,0.7,0.425l8.583,5.966c0.462,0.322,1.106,0.212,1.422-0.254
					c0.322-0.462,0.21-1.102-0.252-1.42l-7.725-5.367l7.725-5.37c0.462-0.315,0.574-0.958,0.252-1.42
					C206.642,2.776,205.997,2.661,205.535,2.984z"/>
			</g>
		</g>
		<g>
			<g>
				<path fill="#B9B8F1" d="M214.713,2.589l-8.579,5.965c-0.276,0.037-0.529,0.184-0.697,0.428c-0.14,0.198-0.196,0.427-0.179,0.653
					c-0.018,0.226,0.039,0.452,0.179,0.651c0.168,0.245,0.421,0.389,0.697,0.427l8.579,5.966c0.477,0.326,1.11,0.212,1.429-0.252
					c0.319-0.466,0.211-1.103-0.252-1.424l-7.728-5.365l7.728-5.367c0.463-0.319,0.571-0.961,0.252-1.42
					C215.819,2.38,215.182,2.267,214.713,2.589z"/>
			</g>
		</g>
		<g>
			<g>
				<path fill="#B9B8F1" d="M223.897,2.589l-8.582,5.965c-0.273,0.037-0.529,0.184-0.701,0.428
					c-0.133,0.198-0.188,0.427-0.175,0.653c-0.014,0.226,0.042,0.452,0.175,0.651c0.172,0.245,0.428,0.389,0.701,0.427l8.582,5.966
					c0.466,0.326,1.107,0.212,1.423-0.252c0.322-0.466,0.21-1.103-0.253-1.424l-7.721-5.365l7.721-5.367
					c0.463-0.319,0.575-0.961,0.253-1.42C225.005,2.38,224.363,2.267,223.897,2.589z"/>
			</g>
		</g>
	</g>
	<g>
		<g>
			<g>
				<path fill="#B9B8F1" d="M-55.255-14.217l8.581-5.967c0.277-0.037,0.531-0.18,0.701-0.424c0.138-0.198,0.189-0.431,0.175-0.657
					c0.014-0.226-0.037-0.448-0.175-0.653c-0.17-0.24-0.427-0.387-0.701-0.422l-8.581-5.969c-0.466-0.322-1.107-0.208-1.431,0.257
					c-0.315,0.464-0.205,1.102,0.259,1.42l7.715,5.367l-7.715,5.367c-0.464,0.319-0.578,0.961-0.259,1.42
					C-56.359-14.009-55.721-13.893-55.255-14.217z"/>
			</g>
		</g>
		<g>
			<g>
				<path fill="#B9B8F1" d="M-64.438-14.217l8.581-5.967c0.277-0.037,0.531-0.18,0.701-0.424c0.14-0.198,0.192-0.431,0.179-0.657
					c0.014-0.226-0.039-0.448-0.179-0.653c-0.17-0.24-0.428-0.387-0.701-0.422l-8.581-5.969c-0.466-0.322-1.1-0.208-1.421,0.257
					c-0.326,0.464-0.21,1.102,0.252,1.42l7.722,5.367l-7.722,5.367c-0.459,0.319-0.578,0.961-0.252,1.42
					C-65.539-14.009-64.905-13.893-64.438-14.217z"/>
			</g>
		</g>
		<g>
			<g>
				<path fill="#B9B8F1" d="M-73.617-13.821l8.579-5.966c0.277-0.037,0.532-0.184,0.701-0.427c0.14-0.2,0.189-0.427,0.175-0.657
					c0.014-0.223-0.035-0.452-0.175-0.651c-0.168-0.242-0.428-0.387-0.701-0.428l-8.579-5.965c-0.471-0.322-1.109-0.208-1.427,0.255
					c-0.321,0.466-0.208,1.1,0.254,1.424l7.722,5.361l-7.722,5.37c-0.462,0.32-0.578,0.958-0.254,1.42
					C-74.722-13.622-74.088-13.502-73.617-13.821z"/>
			</g>
		</g>
		<g>
			<g>
				<path fill="#B9B8F1" d="M-82.803-13.821l8.584-5.966c0.271-0.037,0.527-0.184,0.699-0.427c0.137-0.2,0.189-0.427,0.172-0.657
					c0.014-0.223-0.039-0.452-0.172-0.651c-0.171-0.242-0.427-0.387-0.699-0.428l-8.584-5.965c-0.462-0.322-1.102-0.208-1.424,0.255
					c-0.32,0.466-0.208,1.1,0.258,1.424l7.719,5.361l-7.719,5.37c-0.466,0.32-0.582,0.958-0.258,1.42
					C-83.905-13.615-83.266-13.502-82.803-13.821z"/>
			</g>
		</g>
	</g>
	<g>
		<g>
			<g>
				<g>
					<path fill="#2143AF" d="M-59.802,38.048c-0.661,0-1.314-0.305-1.734-0.883l-7.417-10.155c-0.578-0.789-0.545-1.873,0.075-2.625
						l9.696-11.777c0.753-0.914,2.105-1.047,3.017-0.294c0.914,0.751,1.047,2.104,0.291,3.018l-8.639,10.492l6.44,8.813
						c0.695,0.958,0.487,2.296-0.468,2.995C-58.921,37.912-59.363,38.048-59.802,38.048z"/>
				</g>
			</g>
		</g>
		<g>
			<g>
				<g>
					<path fill="#2143AF" d="M-45.559,38.027c-0.438,0-0.883-0.133-1.266-0.414c-0.955-0.699-1.162-2.041-0.463-2.995l6.469-8.834
						l-8.607-10.464c-0.75-0.916-0.62-2.268,0.294-3.018c0.916-0.753,2.269-0.62,3.018,0.294l9.663,11.748
						c0.62,0.758,0.653,1.837,0.075,2.627l-7.451,10.18C-44.249,37.726-44.899,38.027-45.559,38.027z"/>
				</g>
			</g>
		</g>
		<g>
			<g>
				<g>
					<circle fill="#566CD3" cx="-52.463" cy="0.483" r="6.185"/>
				</g>
			</g>
		</g>
		<g>
			<g>
				<g>
					<polygon fill="#F99AB6" points="-50.197,7.076 -50.211,12.956 -50.225,16.806 -54.732,16.79 -54.506,7.393 -54.441,4.713 					
						"/>
				</g>
			</g>
		</g>
		<g>
			<g>
				<g>
					<path fill="#2143AF" d="M-59.168,16.296c0.014-1.837,1.603-3.613,3.242-4.47c2.461-1.277,6.253-0.387,7.461,0.329
						c2.06,1.228,3.282,3.713,3.139,6.271l0.144,13.718H-59.75C-59.75,32.144-59.2,20.463-59.168,16.296z"/>
				</g>
			</g>
		</g>
		<g>
			<path fill="#E5E9FF" d="M-52.241,20.432c1.068-3.29,2.242-5.589,3.3-8.513c-3.238-1.219-6.374-0.538-7.041,0
				c1.055,2.923,2.229,5.223,3.3,8.513c0.055,0.236,0.216,0.616,0.219,0.609c0.007,0.003,0.007,0.018,0.014,0.026
				C-52.442,21.03-52.295,20.668-52.241,20.432z"/>
		</g>
		<g>
			<polygon fill="#2747B3" points="-52.077,12.152 -52.463,12.152 -52.851,12.152 -53.579,16.601 -53.066,19.305 -52.463,21.044 
				-51.861,19.305 -51.344,16.601 			"/>
		</g>
		<g>
			<g>
				<g>
					<path fill="#F99AB6" d="M-51.292-4.244h-2.345c-2.074,0-4.014,1.692-3.751,3.752c0.189,1.496,0,2.619,0,4.847
						c0,1.865,2.181,5.477,4.046,5.477h1.757c1.865,0,4.048-3.611,4.048-5.477c0-2.225-0.191-3.348,0-4.847
						C-47.277-2.552-49.218-4.244-51.292-4.244z"/>
				</g>
			</g>
		</g>
		<g>
			<g>
				<g>
					<path fill="#FFFEFF" d="M-54.366,6.668c0.17,0.897,0.955,1.578,1.899,1.578c0.949,0,1.732-0.681,1.904-1.578H-54.366z"/>
				</g>
			</g>
		</g>
		<g>
			<g>
				<g>
					<path fill="#121F55" d="M-50.125,45.257h-4.682c-3.365,0-5.885-3.074-5.227-6.37l0.28-6.744h14.567l0.284,6.744
						C-44.238,42.184-46.761,45.257-50.125,45.257z"/>
				</g>
			</g>
		</g>
		<g>
			<g>
				<g>
					<g>
						<path fill="#2747B3" d="M-42.9,40.599h-18.463c-0.8,0-1.45-0.65-1.45-1.451v-10.32c0-0.799,0.65-1.448,1.45-1.448H-42.9
							c0.799,0,1.445,0.649,1.445,1.448v10.32C-41.455,39.949-42.102,40.599-42.9,40.599z"/>
					</g>
				</g>
			</g>
			<g>
				<g>
					<g>
						<path fill="#FFFFFF" d="M-42.9,41.208h-18.463c-0.8,0-1.45-0.65-1.45-1.445v-10.32c0-0.8,0.65-1.45,1.45-1.45H-42.9
							c0.799,0,1.445,0.65,1.445,1.45v10.32C-41.455,40.562-42.102,41.208-42.9,41.208z"/>
					</g>
				</g>
			</g>
			<g>
				<g>
					<g>
						<path fill="#2747B3" d="M-49.999,35.701h-4.262c-0.603,0-1.091-0.487-1.091-1.089v-0.021c0-0.599,0.488-1.088,1.091-1.088
							h4.262c0.599,0,1.089,0.489,1.089,1.088v0.021C-48.91,35.214-49.4,35.701-49.999,35.701z"/>
					</g>
				</g>
			</g>
		</g>
		<g>
			<path fill="#B8B9F1" d="M-51.887,12.408c-0.223,0.2-1.007,0.179-1.216-0.037c-0.201-0.203-0.264-1.133-0.264-1.133l1.814,0.051
				C-51.553,11.289-51.675,12.213-51.887,12.408z"/>
		</g>
		<g>
			<polygon fill="#FFFFFF" points="-54.387,13.555 -55.919,11.707 -54.641,10.068 -52.463,11.248 			"/>
		</g>
		<g>
			<polygon fill="#FFFFFF" points="-50.542,13.555 -49.006,11.707 -50.283,10.068 -52.463,11.248 			"/>
		</g>
		<g>
			<g>
				<g>
					<g>
						<path fill="#2143AF" d="M-49.917,61.249l1.256-4.707l-0.091-0.003c-0.289-0.011-0.494-0.275-0.429-0.555
							c0.049-0.216,0.244-0.363,0.459-0.356l0.297,0.011l0.141-0.527l-0.141-0.003c-0.291-0.01-0.492-0.28-0.431-0.559
							c0.051-0.212,0.244-0.363,0.459-0.355l0.352,0.014l0.788-2.96c0.037-0.06,0.079-0.114,0.137-0.168
							c0.047-0.11,0.102-0.223,0.165-0.326c0.783-1.281,2.447-1.687,3.727-0.904c1.273,0.778,1.684,2.445,0.9,3.724
							c-0.007,0.01-0.014,0.018-0.018,0.024c0,0.003-0.003,0.01-0.007,0.014l-5.337,8.765c-0.087,0.14-0.205,0.252-0.352,0.343
							C-49.006,63.326-50.211,62.355-49.917,61.249z"/>
					</g>
				</g>
			</g>
			<g id="_x38_._Right_shoe_244_">
				<g>
					<g>
						<g>
							<circle fill="#566CD3" cx="-45.282" cy="52.012" r="2.709"/>
						</g>
					</g>
				</g>
				<g>
					<g>
						<g>
							<path fill="#2143AF" d="M-48.335,62.229l5.34-8.768c0.568-0.925,0.277-2.133-0.651-2.697l0,0
								c-0.927-0.567-3.685-0.596-4.248,0.333l-2.666,10.004c-0.294,1.1,0.911,2.077,1.876,1.468
								C-48.543,62.481-48.421,62.37-48.335,62.229z"/>
						</g>
					</g>
				</g>
				<g>
					<g>
						<g>
							<path fill="#FFFFFF" d="M-47.558,54.642L-47.558,54.642c0.065-0.28-0.144-0.55-0.429-0.561l-1.047-0.035
								c-0.219-0.007-0.413,0.14-0.46,0.352l0,0c-0.063,0.279,0.14,0.545,0.427,0.559l1.047,0.041
								C-47.801,55.004-47.606,54.857-47.558,54.642z"/>
						</g>
					</g>
				</g>
				<g>
					<g>
						<g>
							<path fill="#FFFFFF" d="M-47.891,56.077L-47.891,56.077c0.068-0.28-0.14-0.548-0.427-0.559l-1.047-0.04
								c-0.219-0.003-0.412,0.14-0.462,0.355l0,0c-0.065,0.28,0.144,0.545,0.431,0.559l1.047,0.041
								C-48.134,56.439-47.941,56.292-47.891,56.077z"/>
						</g>
					</g>
				</g>
			</g>
		</g>
		<g>
			<g>
				<g>
					<path fill="#121F55" d="M-59.688,37.596l16.235,11.644l-5.104,4.379L-63.176,42.46c-1.33-0.951-1.631-2.802-0.682-4.128
						l0.037-0.051C-62.866,36.95-61.02,36.645-59.688,37.596z"/>
				</g>
			</g>
		</g>
		<g>
			<g>
				<g>
					<g>
						<path fill="#2143AF" d="M-51.015,68.826l0.322-4.859l0.087,0.028c0.275,0.077,0.556-0.108,0.583-0.393
							c0.026-0.217-0.114-0.42-0.322-0.483l-0.287-0.084l0.037-0.546l0.14,0.034c0.271,0.084,0.552-0.104,0.583-0.389
							c0.022-0.215-0.114-0.42-0.322-0.483l-0.333-0.098l0.2-3.057c-0.014-0.068-0.039-0.135-0.072-0.2
							c-0.011-0.123-0.028-0.244-0.053-0.366c-0.331-1.461-1.779-2.379-3.24-2.053c-1.456,0.328-2.378,1.776-2.051,3.237
							c0.003,0.011,0.007,0.021,0.01,0.032c0,0,0,0.01,0,0.018l2.249,10.015c0.037,0.157,0.116,0.301,0.219,0.435
							C-52.546,70.5-51.09,69.964-51.015,68.826z"/>
					</g>
				</g>
			</g>
			<g id="_x38_._Right_shoe_243_">
				<g>
					<g>
						<g>
							<circle fill="#2143AF" cx="-52.439" cy="58.587" r="2.712"/>
						</g>
					</g>
				</g>
				<g>
					<g>
						<g>
							<path fill="#2143AF" d="M-52.826,69.242l-2.246-10.017c-0.236-1.058,0.431-2.108,1.489-2.345l0,0
								c1.058-0.236,3.677,0.62,3.917,1.678l-0.685,10.33c-0.076,1.139-1.531,1.671-2.249,0.788
								C-52.712,69.544-52.788,69.404-52.826,69.242z"/>
						</g>
					</g>
				</g>
				<g>
					<g>
						<g>
							<path fill="#FFFFFF" d="M-51.129,61.81L-51.129,61.81c0.028-0.288,0.308-0.475,0.583-0.393l1.006,0.298
								c0.212,0.062,0.343,0.266,0.322,0.479l0,0c-0.028,0.287-0.309,0.477-0.585,0.393l-1.004-0.298
								C-51.012,62.229-51.152,62.026-51.129,61.81z"/>
						</g>
					</g>
				</g>
				<g>
					<g>
						<g>
							<path fill="#FFFFFF" d="M-51.272,63.273L-51.272,63.273c0.028-0.283,0.308-0.47,0.583-0.389l1.005,0.298
								c0.212,0.063,0.345,0.266,0.322,0.483l0,0c-0.028,0.283-0.308,0.469-0.585,0.389l-1.003-0.298
								C-51.162,63.693-51.295,63.494-51.272,63.273z"/>
						</g>
					</g>
				</g>
			</g>
		</g>
		<g>
			<g>
				<g>
					<path fill="#121F55" d="M-47.931,40.161l-7.694,18.435l6.185,0.746l7.031-16.877c0.632-1.51-0.079-3.242-1.589-3.875
						l-0.058-0.024C-45.566,37.939-47.298,38.654-47.931,40.161z"/>
				</g>
			</g>
		</g>
		<g>
			<g>
				<g>
					<path fill="#566CD3" d="M-52.744-1.68c3.146-1.787,5.333-0.053,6.277,1.827c-0.492-2.895-2.995-5.105-6.031-5.105
						c-2.902,0-5.319,2.023-5.957,4.736C-56.478,0.326-54.702-0.567-52.744-1.68z"/>
				</g>
			</g>
		</g>
	</g>
	<g>
		<g>
			<g>
				<path fill="#F99AB6" d="M225.541,101.52c-0.246-0.658-6.064-16.212-6.064-25.733h3.454c0,8.895,5.784,24.36,5.843,24.515
					L225.541,101.52z"/>
			</g>
		</g>
		<g>
			<g>
				<path fill="#F99AB6" d="M210.376,88.737l-5.787-9.696c-0.245-0.403-0.315-0.897-0.182-1.356
					c0.126-0.455,0.434-0.833,0.854-1.058l9.297-4.883l1.607,3.058l-7.682,4.039l4.855,8.131L210.376,88.737z"/>
			</g>
		</g>
		<g>
			<g>
				<path fill="#121F55" d="M227.142,40.835c0,0-2.277-2.752-3.313-3.638c-1.885-1.62-3.44,0.173-3.44,0.173
					c-9.402-1.446-11.168,11.977-6.887,15.324c3.468,2.711,6.361,0.839,6.361,0.839s1.958,1.461,4.953,1.923
					c1.856,0.287,4.099-0.934,4.099-0.934s2.624,1.876,4.631-0.897c2.011-2.772-0.963-5.713-2.543-5.74c0,0,1.892-2.28-0.697-3.787
					C229.282,43.497,227.142,40.835,227.142,40.835z"/>
			</g>
		</g>
		<g>
			<g>
				<path fill="#F99AB6" d="M215.519,57.515c-0.638-0.319-1.142-1.28-0.389-2.16c0.746-0.864,1.895-1.345,3.128-1.391l0.322-0.014
					c1.093-0.04,2.077,0.436,2.732,1.208C220.791,56.782,217.235,58.168,215.519,57.515z"/>
			</g>
		</g>
		<g>
			<g>
				<path fill="#F99AB6" d="M217.417,51.489l-0.028,1.391l-0.049,2.615l2.011,0.037l0.063-3.344l0.027-1.294
					C218.836,51.302,218.139,51.518,217.417,51.489z"/>
			</g>
		</g>
		<g>
			<g>
				<g>
					<path fill="#F99AB6" d="M217.417,51.489l-0.028,1.391c0.712-0.107,1.577-0.425,2.028-0.949l0.021-1.037
						C218.836,51.302,218.139,51.518,217.417,51.489z"/>
				</g>
			</g>
		</g>
		<g>
			<g>
				<path fill="#F99AB6" d="M216.3,51.486L216.3,51.486c1.698,0.856,3.618,0.799,5.205,0.018c1.097-0.542,2.028-1.431,2.624-2.608
					l1.03-2.048c0.749-1.492,0.798-3.147,0.272-4.6c-0.486-1.352-1.471-2.536-2.861-3.231l0,0c-0.922-0.459-1.902-0.66-2.858-0.618
					c-2.05,0.084-3.99,1.245-4.979,3.207l-1.029,2.049c-0.946,1.883-0.778,4.039,0.259,5.707
					C214.52,50.244,215.309,50.987,216.3,51.486z"/>
			</g>
		</g>
		<g>
			<g>
				<path fill="#121F55" d="M222.738,45.448c-4.183,0.682-4.646-3.827-4.403-5.686c0.497-3.885,5.566-3.135,7.343-1.205
					c1.096,1.195,3.051,4.44,2.206,8.465c-0.841,4.025-4.953,6.531-4.953,6.531c-4.516-3.314,0.147-6.486,0.147-6.486
					L222.738,45.448z"/>
			</g>
		</g>
		<g>
			<g>
				<circle fill="#8EDEF2" cx="219.063" cy="72.735" r="5.535"/>
			</g>
		</g>
		<g>
			<g>
				<path fill="#FFFEFF" d="M216.762,48.311c-0.448,0.585-1.265,0.79-1.94,0.448c-0.683-0.345-0.998-1.119-0.799-1.825
					L216.762,48.311z"/>
			</g>
		</g>
		<g>
			<g>
				<path fill="#8EDEF2" d="M209.592,74.315c7.311,6.344,16.38,9.451,16.38,9.451s1.548-9.276-1.878-13.298
					c-1.717-2.018-10.565,0.918-10.565,0.918L209.592,74.315z"/>
			</g>
		</g>
		<g>
			<g>
				<path fill="#8EDEF2" d="M212.579,58.441c-0.374,1.044,0.677,2.095,1.776,2.215c1.107,0.123,2.099-0.674,2.218-1.779
					c0.122-1.1-1.524-3.519-2.147-2.599C213.837,57.152,212.905,57.548,212.579,58.441z"/>
			</g>
		</g>
		<g>
			<g>
				<path fill="#8EDEF2" d="M221.313,55.162c0.479,0.555,0.785,1.27,0.819,2.058c0,0-0.497,9.09,1.997,13.28
					c1.072,1.801-10.621,1.748-10.621,1.748l0.309-13.448c-0.063-1.338,0.448-2.559,1.313-3.445
					C215.182,57.387,219.357,54.943,221.313,55.162z"/>
			</g>
		</g>
		<g>
			<g>
				<path fill="#8EDEF2" d="M219.554,58.473c-2.077,0-16.089-0.66-23.88-17.932l3.149-1.42c7.265,16.1,20.293,15.913,20.85,15.895
					l0.119,3.451C219.761,58.473,219.68,58.473,219.554,58.473z"/>
			</g>
		</g>
		<g>
			<g>
				<path fill="#F99AB6" d="M198.732,36.351c-0.624-0.384-1.332-0.51-2.008-0.405l-2.371,3.848c0.21,0.646,0.637,1.224,1.261,1.604
					c1.395,0.863,3.223,0.429,4.085-0.965C200.554,39.041,200.126,37.216,198.732,36.351z"/>
			</g>
		</g>
		<g>
			<g>
				<g>
					<path fill="#121F55" d="M213.234,86.782c1.24,0,2.249,1.009,2.249,2.253c0,1.243-1.009,2.252-2.249,2.252
						c-1.247,0-2.256-1.009-2.256-2.252C210.979,87.791,211.987,86.782,213.234,86.782z"/>
				</g>
			</g>
			<g>
				<g>
					<path fill="#121F55" d="M205.657,93.635l8.173-2.428c0.869-0.26,1.359-1.167,1.106-2.032l0,0
						c-0.259-0.865-1.943-2.417-2.809-2.165l-7.217,4.69c-0.799,0.516-0.596,1.79,0.34,1.951
						C205.392,93.677,205.527,93.677,205.657,93.635z"/>
				</g>
			</g>
		</g>
		<g>
			<g>
				<g>
					<circle fill="#121F55" cx="227.499" cy="102.215" r="2.254"/>
				</g>
			</g>
			<g>
				<g>
					<path fill="#121F55" d="M218.629,102.297l8.278,2.092c0.875,0.221,1.762-0.312,1.985-1.188l0,0
						c0.221-0.872-0.434-3.068-1.31-3.289l-8.601,0.343c-0.949,0.039-1.418,1.236-0.696,1.854
						C218.384,102.199,218.503,102.263,218.629,102.297z"/>
				</g>
			</g>
		</g>
		<g>
			<g>
				<path fill="#8EDEF2" d="M217.2,71.142c-0.883,0-1.839-0.092-2.845-0.302l0.105-0.49c4.722,1.02,8.4-1.002,8.435-1.022
					l0.242,0.431C223.015,69.824,220.637,71.142,217.2,71.142z"/>
			</g>
		</g>
	</g>
	<g>
		<g>
			<g>
				<path fill="#FFFFFF" d="M41.654,55.851c0.564-0.818-0.202-2.177,0.276-3.795c1.445-4.881-0.247-7.013-0.247-7.013
					c0.024-1.793-1.482-3.365-3.731-4.193c-1.056-0.387-2.271-0.613-3.573-0.624c-1.967-0.01-3.76,0.47-5.093,1.273
					c-1.433,0.862-2.468,2.088-2.357,3.447c0.079,0.961,1.116,2.235,0.061,3.86c-2.594,4.013-1.468,6.323-0.085,7.041
					c1.27,0.664,2.732,0.718,3.482,1.144C34.212,59.18,39.656,58.746,41.654,55.851z"/>
			</g>
		</g>
		<g>
			<path fill="#F99AB6" d="M53.657,73.727c0.886-0.098,1.797-0.259,2.739-0.477c0.69-0.161,1.123-0.848,0.962-1.545
				c-0.158-0.689-0.846-1.124-1.538-0.963c-4.388,1.016-7.981,0.581-10.679-1.286c-4.118-2.858-4.854-8.136-4.857-8.185
				c-0.093-0.704-0.747-1.191-1.438-1.109c-0.704,0.089-1.198,0.74-1.109,1.438c0.035,0.265,0.897,6.465,5.939,9.965
				C46.381,73.446,49.732,74.168,53.657,73.727z"/>
		</g>
		<g>
			<path fill="#121F55" d="M40.884,63.238c0.254,0,0.487,0.021,0.709,0.074c-0.429-1.22-0.565-2.113-0.569-2.132
				c-0.133-1.011-1.002-1.771-2.026-1.771c-0.079,0-0.163,0.003-0.252,0.014c-1.112,0.147-1.9,1.17-1.753,2.28
				c0.018,0.13,0.233,1.618,0.982,3.542C38.375,64.128,39.34,63.238,40.884,63.238z"/>
		</g>
		<g>
			<g>
				<path fill="#F99AB6" d="M38.47,62.152c0.655-0.333,1.186-1.329,0.401-2.242c-0.771-0.897-1.969-1.398-3.254-1.445l-0.33-0.011
					c-1.133-0.044-2.163,0.448-2.848,1.256C32.984,61.393,36.687,62.836,38.47,62.152z"/>
			</g>
		</g>
		<g>
			<g>
				<path fill="#F99AB6" d="M36.298,55.886l0.03,1.447l0.051,2.722l-2.092,0.037l-0.061-3.48l-0.03-1.345
					C34.829,55.693,35.548,55.919,36.298,55.886z"/>
			</g>
		</g>
		<g>
			<g>
				<g>
					<path fill="#F99AB6" d="M36.298,56.23l0.03,1.449c-0.743-0.11-1.643-0.44-2.109-0.986l-0.022-1.079
						C34.829,56.036,35.548,56.264,36.298,56.23z"/>
				</g>
			</g>
		</g>
		<g>
			<g>
				<path fill="#F99AB6" d="M35.779,56.98L35.779,56.98c-1.977-0.021-3.727-0.986-4.822-2.468c-0.753-1.023-1.194-2.287-1.184-3.659
					l0.021-2.389c0.019-1.729,0.762-3.289,1.94-4.379c1.098-1.019,2.573-1.639,4.189-1.622l0,0c1.07,0.01,2.07,0.298,2.939,0.793
					c1.851,1.054,3.088,3.055,3.063,5.333l-0.026,2.386c-0.021,2.195-1.205,4.107-2.962,5.155
					C38.016,56.679,36.934,56.991,35.779,56.98z"/>
			</g>
		</g>
		<g>
			<g>
				<path fill="#F7B75D" d="M42.29,76.711c0.706,3.097-3.132,6.183-6.232,6.887c-3.099,0.708-6.183-1.232-6.891-4.336
					c-0.706-3.097,1.235-6.18,4.333-6.888C36.601,71.67,41.583,73.607,42.29,76.711z"/>
			</g>
		</g>
		<g>
			<g>
				<path fill="#FFFEFF" d="M36.181,53.824c0.133,0.753,0.785,1.331,1.578,1.345c0.797,0.003,1.456-0.561,1.608-1.311L36.181,53.824
					z"/>
			</g>
		</g>
		<g>
			<g>
				<path fill="#121F55" d="M41.887,63.561c0.391,1.086-0.699,2.41-1.846,2.529c-1.149,0.126-2.548-1.366-2.673-2.515
					c-0.126-1.149,1.585-3.665,2.231-2.706C40.216,61.783,41.551,62.629,41.887,63.561z"/>
			</g>
		</g>
		<g>
			<g>
				<path fill="#121F55" d="M32.439,59.708c-0.496,0.58-0.811,1.322-0.851,2.144c0,0,1.865,9.03-2.076,13.809
					c0,0,7.116,4.267,12.833,1.388c0-4.092-2.5-6.923-2.105-13.55c0.083-1.391-0.469-2.664-1.37-3.587
					C38.82,62.02,34.48,59.481,32.439,59.708z"/>
			</g>
		</g>
		<g>
			<g>
				<g>
					<g>
						<path fill="#2143AF" d="M38.545,105.521c0.135,1.345-0.102,2.424-0.051,2.764c0.09,0.55,2.575,1.054,2.887,2.592
							c0.424,2.103,3.189,2.323,3.638,2.414c1.144,0.224,2.164-0.357,1.564-1.465c-0.695-1.292-1.399-1.527-2.338-3.1
							c-1.378-2.309-1.482-3.871-2.21-5.251c-0.133-0.249-0.795-1.101-1.804-0.971C39.316,102.616,38.379,103.866,38.545,105.521z"
							/>
					</g>
				</g>
			</g>
			<g>
				<g>
					<g>
						<path fill="#F99AB6" d="M42.581,109.591c-0.772-1.135-2.104-4.813-1.926-5.703c0.208-1.051,2.245-1.492,2.529-0.634
							c0.487,1.481,0.333,4.242,2.091,6.862C45.252,110.894,43.478,110.915,42.581,109.591z"/>
					</g>
				</g>
			</g>
		</g>
		<g>
			<g>
				<g>
					<g>
						<path fill="#2143AF" d="M75.313,87.725c1.001-0.914,2.011-1.369,2.245-1.611c0.389-0.399-0.693-2.697,0.351-3.867
							c1.433-1.594-0.042-3.944-0.235-4.351c-0.508-1.059-1.576-1.527-2.115-0.379c-0.617,1.331-0.382,2.032-1.086,3.728
							c-1.03,2.487-2.213,3.503-2.883,4.907c-0.123,0.256-0.407,1.293,0.297,2.028C72.531,88.842,74.087,88.846,75.313,87.725z"/>
					</g>
				</g>
			</g>
			<g>
				<g>
					<g>
						<path fill="#F99AB6" d="M76.168,82.057c-0.448,1.293-2.6,4.558-3.417,4.953c-0.969,0.463-2.54-0.91-2.02-1.646
							c0.896-1.278,3.201-2.809,4.252-5.783C75.614,79.135,76.693,80.543,76.168,82.057z"/>
					</g>
				</g>
			</g>
		</g>
		<g>
			<path fill="#F7B75D" d="M48.276,85.006l-0.102-0.045L34.58,78.719c-1.288-0.593-2.808-0.032-3.403,1.265
				c-0.592,1.281-0.024,2.806,1.263,3.397c0.003,0,0.021,0.014,0.024,0.014l11.698,5.217l-4.141,14.197l3.556,1.177l5.929-15.984
				C49.944,86.824,49.396,85.524,48.276,85.006z"/>
		</g>
		<g>
			<path fill="#F99AB6" d="M35.793,77.223c0.664,0,1.366-0.039,2.112-0.115c0.703-0.074,1.216-0.704,1.144-1.408
				c-0.075-0.705-0.706-1.216-1.41-1.146c-2.366,0.245-5.419,0.164-6.491-1.591c-1.693-2.778,1.506-8.895,2.757-10.813
				c0.389-0.596,0.219-1.392-0.373-1.774c-0.59-0.389-1.387-0.223-1.774,0.373c-0.585,0.9-5.633,8.901-2.799,13.553
				C30.143,76.242,32.439,77.223,35.793,77.223z"/>
		</g>
		<g>
			<g>
				<path fill="#FFFFFF" d="M29.11,49.125c0,0,4.302,1.539,6.989-0.33c2.683-1.869,3.913-4.75,2.735-6.435
					c-1.171-1.687-4.3-1.536-6.983,0.329C29.164,44.559,29.11,49.125,29.11,49.125z"/>
			</g>
		</g>
		<g>
			<path fill="#F7B75D" d="M34.462,78.116c0,0,2.382,0.06,5.946,0.213c1.787,0.077,3.864,0.183,6.092,0.288
				c2.228,0.129,4.603,0.27,6.977,0.409l0.893,0.06l0.223,0.007l0.058,0.008l0.247,0.021l0.112,0.018l0.438,0.066l0.877,0.133
				l0.054,0.008l0.212,0.042l0.025,0.007l0.108,0.028l0.215,0.052l0.429,0.105c1.135,0.276,2.254,0.557,3.34,0.823
				c1.081,0.27,2.131,0.519,3.121,0.784c0.99,0.26,1.927,0.509,2.787,0.736c1.729,0.448,3.16,0.854,4.168,1.131
				c1,0.288,1.571,0.452,1.571,0.452l-0.718,3.223c0,0-0.592-0.098-1.621-0.263c-1.026-0.179-2.498-0.409-4.25-0.746
				c-0.879-0.161-1.831-0.336-2.838-0.519c-1.009-0.182-2.063-0.406-3.156-0.623c-1.095-0.218-2.228-0.441-3.377-0.673l-0.433-0.084
				l-0.215-0.046l-0.108-0.024h-0.028c-0.044-0.014,0.348,0.06,0.175,0.032l-0.011-0.004l-0.054-0.004l-0.881-0.104l-0.445-0.057
				l-0.112-0.018h-0.01c-0.047,0,0.352,0.039,0.175,0.021l-0.025-0.004l-0.058-0.003l-0.222-0.007l-0.89-0.035
				c-2.376-0.092-4.759-0.189-6.987-0.273c-2.228-0.112-4.305-0.221-6.092-0.309c-3.561-0.206-5.936-0.375-5.936-0.375
				L34.462,78.116z"/>
		</g>
		<g>
			<g>
				<path fill="#121F55" d="M35.24,79.629c0-0.427,0.345-0.771,0.772-0.771h27.954c0.585,0,1.062,0.347,1.062,0.771
					s-0.477,0.774-1.062,0.774H36.013C35.589,80.403,35.24,80.053,35.24,79.629L35.24,79.629z"/>
			</g>
			<g>
				<path fill="#FFFFFF" d="M34.147,79.629c0,0.424,0.373,0.774,0.832,0.774h10.614c0.456,0,0.829-0.351,0.829-0.774
					s-0.373-0.771-0.829-0.771H34.979C34.521,78.858,34.147,79.205,34.147,79.629z"/>
			</g>
			<g>
				<path fill="#FFFFFF" d="M64.988,64.391v14.1c0,0.631-0.508,1.136-1.137,1.136H45.252c-0.631,0-1.137-0.512-1.137-1.136v-14.1
					c0-0.627,0.51-1.138,1.137-1.138h18.599C64.48,63.253,64.988,63.764,64.988,64.391z"/>
			</g>
			<g>
				<path fill="#FFFFFF" d="M65.856,64.391v14.1c0,0.631-0.51,1.136-1.137,1.136H46.121c-0.629,0-1.137-0.512-1.137-1.136v-14.1
					c0-0.627,0.508-1.138,1.137-1.138H64.72C65.347,63.253,65.856,63.764,65.856,64.391z"/>
			</g>
			<g>
				<path fill="#B9B8F1" d="M52.354,71.442L52.354,71.442c0-0.665,0.535-1.198,1.195-1.198h3.738c0.664,0,1.198,0.533,1.198,1.198
					l0,0c0,0.662-0.534,1.198-1.198,1.198h-3.738C52.889,72.641,52.354,72.102,52.354,71.442z"/>
			</g>
		</g>
		<g>
			<path fill="#121F55" d="M30.308,63.018c1.519,0,2.472,0.865,2.889,1.951c0.469-0.967,0.951-1.814,1.341-2.413
				c0.61-0.94,0.345-2.2-0.595-2.817c-0.33-0.215-0.715-0.329-1.109-0.329c-0.692,0-1.331,0.343-1.711,0.921
				c-0.291,0.448-0.914,1.452-1.574,2.768C29.784,63.049,30.04,63.018,30.308,63.018z"/>
		</g>
		<g>
			<g>
				<path fill="#F99AB6" d="M43.469,74.823c0.31,0.697,0.338,1.446,0.137,2.123l-4.314,1.912c-0.636-0.312-1.173-0.837-1.482-1.538
					c-0.69-1.563,0.014-3.384,1.578-4.077C40.952,72.543,42.777,73.257,43.469,74.823z"/>
			</g>
		</g>
	</g>
	<g>
		<path fill="#B9B8F1" d="M241.329,164.294h-357.781c-1.14,0-2.069-0.925-2.069-2.066c0-1.143,0.925-2.07,2.069-2.07h357.788
			c1.142,0,2.066,0.928,2.066,2.07C243.402,163.369,242.478,164.294,241.329,164.294z"/>
	</g>
	<g>
		<g>
			<path fill="#B9B8F1" d="M159.655,178.985h-55.183c-1.143,0-2.07-0.932-2.07-2.07c0-1.138,0.928-2.066,2.07-2.066h55.183
				c1.146,0,2.07,0.929,2.07,2.066C161.726,178.054,160.801,178.985,159.655,178.985z"/>
		</g>
		<g>
			<path fill="#B9B8F1" d="M87.917,178.985H74.122c-1.142,0-2.07-0.932-2.07-2.07c0-1.138,0.929-2.066,2.07-2.066h13.795
				c1.146,0,2.07,0.929,2.07,2.066C89.987,178.054,89.063,178.985,87.917,178.985z"/>
		</g>
	</g>
	<g>
		<g>
			<g>
				<g>
					<path fill="#2143AF" d="M127.732,169.191c-0.704,0-1.401-0.329-1.854-0.939l-7.92-10.845c-0.616-0.838-0.582-1.997,0.084-2.799
						l10.352-12.572c0.802-0.978,2.245-1.121,3.219-0.315c0.971,0.806,1.114,2.249,0.309,3.219l-9.22,11.203l6.873,9.409
						c0.749,1.02,0.525,2.455-0.497,3.198C128.671,169.051,128.195,169.191,127.732,169.191z"/>
				</g>
			</g>
		</g>
		<g>
			<g>
				<g>
					<path fill="#2143AF" d="M142.936,169.167c-0.47,0-0.942-0.144-1.349-0.438c-1.02-0.749-1.243-2.179-0.497-3.201l6.904-9.431
						l-9.186-11.171c-0.806-0.978-0.665-2.421,0.309-3.22c0.978-0.802,2.421-0.665,3.22,0.315l10.316,12.541
						c0.665,0.81,0.696,1.962,0.08,2.803l-7.955,10.866C144.337,168.845,143.64,169.167,142.936,169.167z"/>
				</g>
			</g>
		</g>
		<g>
			<g>
				<g>
					<path fill="#121F55" d="M129.295,128.013c0,3.65,2.956,6.607,6.606,6.607s6.6-2.957,6.6-6.607c0-3.646-2.949-5.307-6.6-5.307
						C132.251,122.713,129.295,124.373,129.295,128.013z"/>
				</g>
			</g>
		</g>
		<g>
			<g>
				<g>
					<polygon fill="#F99AB6" points="133.478,136.126 133.495,142.407 133.509,146.506 138.325,146.498 138.073,136.466 
						138.011,133.604 					"/>
				</g>
			</g>
		</g>
		<g>
			<g>
				<g>
					<path fill="#2143AF" d="M128.408,145.966c0.015-1.962,1.713-3.854,3.461-4.768c2.624-1.366,6.677-0.417,7.97,0.354
						c2.193,1.307,3.507,3.962,3.353,6.69l0.154,14.643h-15.554C127.792,162.886,128.373,150.422,128.408,145.966z"/>
				</g>
			</g>
		</g>
		<g>
			<g>
				<g>
					<path fill="#F99AB6" d="M139.012,141.181c-1.916-0.806-4.613-1.079-6.795-0.14l1.611,1.618c1.022,1.016,2.68,1.016,3.702,0
						C138.031,142.162,138.515,141.672,139.012,141.181z"/>
				</g>
			</g>
		</g>
		<g>
			<g>
				<g>
					<path fill="#F99AB6" d="M134.647,124.233h2.501c2.214,0,4.284,1.814,4.008,4.007c-0.2,1.602,0,2.8,0,5.171
						c0,1.997-2.326,5.851-4.316,5.851h-1.881c-1.993,0-4.319-3.854-4.319-5.851c0-2.371,0.203-3.569,0-5.171
						C130.359,126.048,132.434,124.233,134.647,124.233z"/>
				</g>
			</g>
		</g>
		<g>
			<g>
				<g>
					<path fill="#FFFEFF" d="M137.926,135.688c-0.182,0.96-1.016,1.688-2.024,1.688s-1.856-0.729-2.031-1.688H137.926z"/>
				</g>
			</g>
		</g>
		<g>
			<g>
				<g>
					<path fill="#566CD3" d="M138.06,176.891h-4.995c-3.591,0-6.281-3.282-5.581-6.803l0.305-7.202h15.551l0.298,7.202
						C144.344,173.608,141.653,176.891,138.06,176.891z"/>
				</g>
			</g>
		</g>
		<g>
			<g>
				<g>
					<path fill="#566CD3" d="M112.81,168.858l21.229-2.021l0.612,6.354l-21.231,2.025c-1.737,0.164-3.282-1.114-3.454-2.852v-0.063
						C109.797,170.564,111.072,169.023,112.81,168.858z"/>
				</g>
			</g>
		</g>
		<g>
			<g>
				<g>
					<path fill="#566CD3" d="M155.196,168.858l-21.231-2.021l-0.606,6.354l21.231,2.025c1.738,0.164,3.283-1.114,3.447-2.852
						l0.011-0.063C158.209,170.564,156.934,169.023,155.196,168.858z"/>
				</g>
			</g>
		</g>
		<g>
			<g>
				<g>
					<path fill="#FFFFFF" d="M143.874,173.174h-16.618c-0.854,0-1.548-0.689-1.548-1.552v-11.014c0-0.854,0.693-1.548,1.548-1.548
						h16.626c0.848,0,1.544,0.69,1.544,1.548v11.014C145.423,172.484,144.729,173.174,143.874,173.174z"/>
				</g>
			</g>
		</g>
		<g>
			<g>
				<g>
					<path fill="#B9B8F1" d="M143.874,173.829h-16.618c-0.854,0-1.548-0.69-1.548-1.548v-11.014c0-0.862,0.693-1.549,1.548-1.549
						h16.626c0.848,0,1.544,0.687,1.544,1.549v11.014C145.423,173.136,144.729,173.829,143.874,173.829z"/>
				</g>
			</g>
		</g>
		<g>
			<g>
				<g>
					<path fill="#FFFFFF" d="M137.842,167.947h-4.554c-0.645,0-1.163-0.521-1.163-1.166v-0.021c0-0.645,0.525-1.163,1.163-1.163
						h4.554c0.645,0,1.163,0.522,1.163,1.163v0.021C139.005,167.426,138.486,167.947,137.842,167.947z"/>
				</g>
			</g>
		</g>
		<g>
			<g>
				<g>
					<g>
						<path fill="#FFFFFF" d="M127.196,179.658l6.19-0.371l-0.021,0.112c-0.06,0.364,0.225,0.687,0.589,0.676
							c0.28-0.011,0.511-0.21,0.557-0.487l0.066-0.378l0.69-0.039l-0.031,0.179c-0.057,0.357,0.224,0.684,0.588,0.677
							c0.28-0.007,0.516-0.214,0.554-0.487l0.077-0.441l3.892-0.228c0.081-0.028,0.165-0.073,0.235-0.126
							c0.153-0.031,0.308-0.07,0.455-0.123c1.793-0.651,2.719-2.623,2.073-4.414c-0.647-1.789-2.623-2.718-4.417-2.069
							c-0.011,0.007-0.024,0.01-0.038,0.017c-0.007,0-0.007,0-0.021,0.004l-12.281,4.445c-0.196,0.07-0.364,0.189-0.516,0.347
							C124.839,177.998,125.746,179.746,127.196,179.658z"/>
					</g>
				</g>
			</g>
			<g id="_x38_._Right_shoe_240_">
				<g>
					<g>
						<g>
							<circle fill="#F7B75D" cx="139.892" cy="176.218" r="3.447"/>
						</g>
					</g>
				</g>
				<g>
					<g>
						<g>
							<path fill="#F7B75D" d="M126.38,177.438l12.282-4.438c1.296-0.473,2.732,0.203,3.201,1.499l0,0
								c0.474,1.3-0.188,4.74-1.488,5.209l-13.154,0.796c-1.443,0.087-2.354-1.664-1.352-2.712
								C126.013,177.634,126.184,177.511,126.38,177.438z"/>
						</g>
					</g>
				</g>
				<g>
					<g>
						<g>
							<path fill="#FFFFFF" d="M136.035,178.391L136.035,178.391c0.363-0.008,0.651,0.314,0.588,0.672l-0.217,1.317
								c-0.049,0.276-0.28,0.483-0.558,0.49l0,0c-0.367,0.007-0.647-0.315-0.588-0.676l0.221-1.317
								C135.523,178.607,135.754,178.397,136.035,178.391z"/>
						</g>
					</g>
				</g>
				<g>
					<g>
						<g>
							<path fill="#FFFFFF" d="M134.164,178.442L134.164,178.442c0.36-0.01,0.645,0.319,0.581,0.677l-0.217,1.31
								c-0.042,0.28-0.276,0.483-0.557,0.49l0,0c-0.364,0.011-0.648-0.314-0.585-0.672l0.217-1.317
								C133.649,178.649,133.884,178.453,134.164,178.442z"/>
						</g>
					</g>
				</g>
			</g>
		</g>
		<g>
			<g>
				<g>
					<path fill="#F99AB6" d="M153.9,170.196l-14.342,3.857c-1.38,0.371-2.196,1.79-1.828,3.17l0.014,0.053
						c0.375,1.38,1.786,2.196,3.167,1.821l14.349-3.854c1.38-0.371,2.192-1.79,1.824-3.174l-0.014-0.049
						C156.702,170.642,155.284,169.821,153.9,170.196z"/>
				</g>
			</g>
		</g>
		<g>
			<g>
				<g>
					<g>
						<path fill="#FFFFFF" d="M140.81,179.658l-6.19-0.371l0.021,0.112c0.063,0.364-0.225,0.687-0.589,0.676
							c-0.276-0.011-0.511-0.21-0.554-0.487l-0.063-0.378l-0.693-0.035l0.027,0.183c0.057,0.356-0.224,0.679-0.588,0.672
							c-0.28-0.007-0.516-0.21-0.561-0.483l-0.07-0.441l-3.892-0.23c-0.081-0.028-0.161-0.077-0.242-0.127
							c-0.147-0.031-0.301-0.069-0.455-0.126c-1.787-0.647-2.715-2.62-2.067-4.41c0.652-1.79,2.628-2.722,4.414-2.07
							c0.015,0.007,0.028,0.011,0.042,0.018c0.007,0,0.015,0,0.021,0.004l12.281,4.445c0.196,0.073,0.368,0.188,0.515,0.347
							C143.167,177.998,142.256,179.746,140.81,179.658z"/>
					</g>
				</g>
			</g>
			<g id="_x38_._Right_shoe_239_">
				<g>
					<g>
						<g>
							<circle fill="#F7B75D" cx="128.114" cy="176.218" r="3.447"/>
						</g>
					</g>
				</g>
				<g>
					<g>
						<g>
							<path fill="#F7B75D" d="M141.633,177.438l-12.289-4.438c-1.296-0.473-2.732,0.203-3.198,1.499l0,0
								c-0.473,1.3,0.192,4.74,1.492,5.209l13.15,0.796c1.447,0.087,2.357-1.664,1.355-2.712
								C141.993,177.634,141.821,177.511,141.633,177.438z"/>
						</g>
					</g>
				</g>
				<g>
					<g>
						<g>
							<path fill="#FFFFFF" d="M131.971,178.391L131.971,178.391c-0.364-0.008-0.645,0.314-0.585,0.672l0.214,1.317
								c0.049,0.276,0.277,0.483,0.557,0.49l0,0c0.368,0.007,0.648-0.315,0.589-0.676l-0.214-1.317
								C132.482,178.607,132.251,178.397,131.971,178.391z"/>
						</g>
					</g>
				</g>
				<g>
					<g>
						<g>
							<path fill="#FFFFFF" d="M133.849,178.442L133.849,178.442c-0.368-0.01-0.651,0.319-0.589,0.677l0.221,1.31
								c0.043,0.28,0.277,0.483,0.551,0.49l0,0c0.371,0.011,0.651-0.314,0.588-0.672l-0.217-1.317
								C134.36,178.649,134.129,178.453,133.849,178.442z"/>
						</g>
					</g>
				</g>
			</g>
		</g>
		<g>
			<g>
				<g>
					<path fill="#F99AB6" d="M114.105,170.196l14.342,3.857c1.38,0.371,2.196,1.79,1.828,3.17l-0.014,0.053
						c-0.371,1.38-1.794,2.196-3.17,1.821l-14.346-3.854c-1.38-0.371-2.192-1.79-1.824-3.174l0.014-0.049
						C111.303,170.642,112.726,169.821,114.105,170.196z"/>
				</g>
			</g>
		</g>
		<g>
			<g>
				<g>
					<path fill="#121F55" d="M136.297,121.683c6.019,0,5.91,6.453,5.91,6.453c-6.309,1.205-8.733-3.262-8.733-4.134
						C133.478,123.999,134.143,121.683,136.297,121.683z"/>
				</g>
			</g>
		</g>
		<g>
			<g>
				<g>
					<path fill="#121F55" d="M133.169,123.105c-4.806-0.645-3.717,5.668-3.717,5.668c3.174-0.613,5.052-3.195,4.939-3.763
						L133.169,123.105z"/>
				</g>
			</g>
		</g>
	</g>
	<g>
		<g>
			<g>
				<g>
					<path fill="#B9B8F1" d="M22.514,97.792c-0.643,0-1.27-0.294-1.671-0.851c-0.42-0.571-0.825-1.152-1.221-1.741
						c-0.634-0.942-0.387-2.221,0.557-2.862c0.946-0.634,2.228-0.389,2.862,0.558c0.373,0.546,0.753,1.093,1.14,1.636
						c0.667,0.921,0.458,2.21-0.466,2.876C23.353,97.67,22.934,97.792,22.514,97.792z"/>
				</g>
			</g>
			<g>
				<g>
					<path fill="#B9B8F1" d="M74.893,124.626c-0.687,0-1.382-0.011-2.066-0.035c-1.137-0.035-2.026-0.988-1.99-2.13
						c0.035-1.117,0.953-1.997,2.055-1.997c0.024,0,0.051,0,0.072,0.007c0.697,0.021,1.391,0.035,2.084,0.028
						c0.673,0,1.338-0.007,2.004-0.028c0.021,0,0.042,0,0.07,0c1.106,0,2.024,0.88,2.053,1.997c0.042,1.135-0.852,2.088-1.99,2.123
						C76.424,124.618,75.698,124.626,74.893,124.626z M85.514,123.785c-0.987,0-1.87-0.715-2.031-1.728
						c-0.183-1.124,0.581-2.183,1.706-2.364c1.355-0.225,2.693-0.483,4.018-0.788c1.104-0.256,2.214,0.438,2.466,1.552
						c0.256,1.114-0.441,2.214-1.548,2.47c-1.408,0.325-2.831,0.603-4.273,0.837C85.738,123.778,85.619,123.785,85.514,123.785z
						 M64.501,123.778c-0.112,0-0.223-0.015-0.334-0.028c-1.417-0.231-2.852-0.519-4.272-0.848c-1.109-0.256-1.801-1.366-1.545-2.47
						c0.257-1.117,1.37-1.797,2.475-1.545c1.335,0.312,2.684,0.574,4.002,0.792c1.123,0.182,1.886,1.24,1.705,2.367
						C66.37,123.049,65.494,123.778,64.501,123.778z M97.743,120.548c-0.83,0-1.622-0.511-1.931-1.342
						c-0.393-1.064,0.144-2.256,1.213-2.647c1.274-0.48,2.55-1.006,3.775-1.556c1.037-0.48,2.256-0.011,2.732,1.026
						c0.47,1.037,0.008,2.263-1.037,2.729c-1.307,0.592-2.665,1.152-4.028,1.657C98.229,120.499,97.984,120.548,97.743,120.548z
						 M52.282,120.513c-0.24,0-0.483-0.042-0.72-0.126c-1.352-0.512-2.709-1.071-4.025-1.667c-1.041-0.47-1.5-1.688-1.03-2.726
						c0.469-1.037,1.69-1.499,2.73-1.03c1.233,0.561,2.506,1.086,3.772,1.56c1.065,0.402,1.608,1.587,1.205,2.658
						C53.904,120.009,53.12,120.513,52.282,120.513z M109.104,114.979c-0.69,0-1.366-0.344-1.755-0.975
						c-0.596-0.967-0.298-2.238,0.669-2.837c1.163-0.715,2.309-1.475,3.404-2.26c0.926-0.662,2.215-0.448,2.88,0.483
						c0.658,0.929,0.441,2.214-0.483,2.876c-1.177,0.834-2.396,1.646-3.633,2.41C109.846,114.884,109.475,114.979,109.104,114.979z
						 M40.938,114.943c-0.373,0-0.742-0.099-1.084-0.309c-1.223-0.764-2.443-1.572-3.625-2.42c-0.927-0.662-1.142-1.948-0.478-2.873
						c0.66-0.928,1.951-1.142,2.874-0.479c1.11,0.791,2.252,1.555,3.396,2.263c0.972,0.599,1.27,1.87,0.67,2.838
						C42.304,114.593,41.63,114.943,40.938,114.943z M119.16,107.32c-0.55,0-1.11-0.224-1.513-0.662
						c-0.771-0.83-0.726-2.14,0.108-2.91c0.995-0.936,1.969-1.889,2.9-2.884c0.792-0.83,2.092-0.858,2.914-0.08
						c0.827,0.788,0.862,2.088,0.081,2.918c-0.984,1.04-2.028,2.073-3.086,3.058C120.166,107.135,119.661,107.32,119.16,107.32z
						 M30.89,107.265c-0.506,0-1.004-0.183-1.403-0.547c-1.051-0.977-2.091-2.011-3.091-3.068c-0.787-0.83-0.746-2.137,0.079-2.914
						c0.825-0.785,2.135-0.743,2.917,0.08c0.937,0.991,1.897,1.951,2.899,2.876c0.832,0.777,0.883,2.081,0.103,2.915
						C31.995,107.04,31.441,107.265,30.89,107.265z"/>
				</g>
			</g>
			<g>
				<g>
					<path fill="#B9B8F1" d="M127.592,97.792c-0.42,0-0.84-0.122-1.204-0.385c-0.925-0.666-1.132-1.955-0.47-2.876
						c0.393-0.543,0.777-1.09,1.152-1.64c0.641-0.942,1.92-1.188,2.862-0.547c0.945,0.635,1.188,1.917,0.546,2.862
						c-0.396,0.582-0.806,1.163-1.219,1.734C128.864,97.498,128.233,97.792,127.592,97.792z"/>
				</g>
			</g>
		</g>
		<g>
			<rect x="16.054" y="88.552" fill="#FFFFFF" width="9.656" height="9.654"/>
		</g>
		<g>
			<rect x="69.857" y="117.521" fill="#FFFFFF" width="9.657" height="9.658"/>
		</g>
		<g>
			<rect x="123.658" y="88.552" fill="#FFFFFF" width="9.658" height="9.654"/>
		</g>
		<g>
			<g>
				<path fill="#2143AF" d="M88.604,145.507c-0.938-6.063-9.97-16.901-13.605-20.958v20.552c0.613,0.417,1.243,1.09,1.243,1.889
					c0,1.303-1.058,2.368-2.371,2.368c-1.306,0-2.163-1.065-2.163-2.368c0-0.792,0.612-1.447,1.217-1.871v-20.5
					c-3.37,3.699-13.951,15.61-13.951,22.066c0,7.696,6.407,13.626,6.407,13.626h16.813C82.193,160.318,89.78,153.21,88.604,145.507
					z"/>
			</g>
		</g>
	</g>
</g>
</svg>
